<svg xmlns="http://www.w3.org/2000/svg" width="25.745" height="25.735" viewBox="0 0 25.745 25.735">
  <g id="Group_309" data-name="Group 309" transform="translate(-681.489 -694.955)">
    <path id="Path_263" data-name="Path 263" d="M681.489,707.8a12.872,12.872,0,1,1,12.858,12.893A12.912,12.912,0,0,1,681.489,707.8Zm12.863-10.9a10.926,10.926,0,1,0,10.942,10.91A10.888,10.888,0,0,0,694.352,696.9Z" transform="translate(0 0)" fill="#fff"/>
    <path id="Path_264" data-name="Path 264" d="M691.884,708V709.7c0,.991-.333,1.471-1,1.459-.644-.012-.96-.478-.963-1.429,0-1.265-.019-2.53.007-3.792.012-.5-.171-.663-.66-.656-1.349.023-2.7.007-4.045.007a1.006,1.006,0,0,1-1.12-.728c-.18-.672.272-1.209,1.054-1.22,1.328-.019,2.656-.033,3.982,0,.6.019.815-.157.794-.777-.042-1.284-.016-2.572-.009-3.855,0-.785.358-1.232.953-1.248.618-.014.993.452,1,1.267.007,1.223,0,2.445,0,3.668,0,.946,0,.949.92.949h3.412a4.578,4.578,0,0,1,.567.016.957.957,0,1,1-.047,1.913c-1.094.028-2.19.012-3.286.012-1.567,0-1.567,0-1.567,1.567Z" transform="translate(3.463 3.374)" fill="#fff"/>
  </g>
</svg>
