<svg xmlns="http://www.w3.org/2000/svg" width="37.009" height="2.02" viewBox="0 0 37.009 2.02">
  <path id="Path_300" data-name="Path 300" d="M486.759,704.81c-3.074-.17-6.183-.22-9.274-.14-1.537.05-3.074.11-4.611.22l-4.576.41c-3.039.28-6.13.55-9.222.74s-6.2.32-9.309.4l-.017-.38,6.026-.68q1.6-.03,3.2-.09c.437-.01.873-.03,1.31-.05l-.559.46,10.619-1.03,2.48-.15c1.554-.07,3.109-.1,4.663-.1C480.594,704.43,483.685,704.55,486.759,704.81Z" transform="translate(-449.75 -704.42)" fill="rgba(181,180,178,0.59)"/>
</svg>
