<svg xmlns="http://www.w3.org/2000/svg" width="172.305" height="162.515" viewBox="0 0 172.305 162.515">
  <g id="Group_317" data-name="Group 317" transform="translate(0 -4.204)">
    <g id="Group_268" data-name="Group 268" transform="translate(0 4.204)">
      <g id="Grupo_5" data-name="Grupo 5" transform="translate(0 0)">
        <path id="Trazado_28" data-name="Trazado 28" d="M1026.968,83c-1.25,3.063-2.109,6.252-3.128,9.39q-4.23,13.006-8.388,26.041c-2.378,7.421-4.72,14.848-7.087,22.275-1.445,4.543-2.879,9.085-4.376,13.616a5.962,5.962,0,0,1-5.964,4.387c-.575.04-1.191,0-1.79,0q-39.355,0-78.708-.035c-1.653,0-2.562.357-3.1,2.044-1.047,3.316-2.355,6.552-3.535,9.834-.575,1.531-.512,1.56,1.181,1.56h85.174a6.085,6.085,0,0,1,4.036,1.042,4.652,4.652,0,0,1,1.687,5.026,4.345,4.345,0,0,1-3.708,3.42,22.87,22.87,0,0,1-4.254.173c-.318,0-.721-.1-.9.184-.242.391.172.662.374.944a15.9,15.9,0,0,1,3.046,11.682,16.695,16.695,0,0,1-30.323,7.571,16.1,16.1,0,0,1-1.341-16.7,10.4,10.4,0,0,1,1.675-2.827c.477-.524.219-.818-.426-.846H934.615c-.45,0-1.077-.2-1.307.173-.311.512.328.881.575,1.261a16.756,16.756,0,0,1-3.23,22.293,16.336,16.336,0,0,1-12.28,3.777A16.693,16.693,0,0,1,904.256,198a16.238,16.238,0,0,1,2.361-15.245c.523-.754.3-.956-.473-.967s-1.56,0-2.337,0a4.872,4.872,0,0,1-4.646-6.984q2.582-7.107,5.147-14.221c.576-1.687.524-1.779-1.238-1.842a5.75,5.75,0,0,1-6.183-5.228c-1.658-8.964-3.27-17.94-4.928-26.9-1.855-10.047-3.748-20.082-5.6-30.134q-2.591-14.051-5.1-28.125a2.434,2.434,0,0,0-1.727-2.038c-6.973-2.683-13.916-5.429-20.876-8.152a7.062,7.062,0,0,1-3.99-3.765V50.82A5.914,5.914,0,0,1,862.2,47.2a6.071,6.071,0,0,1,1,.461c8.106,3.178,16.2,6.379,24.319,9.517a6.685,6.685,0,0,1,4.294,5.579q1.917,10.545,3.846,21.089,2.16,11.762,4.325,23.519,3.263,17.851,6.51,35.7c.064.363.167.714.253,1.071.783,3.224.783,3.224,4.18,3.224h81.178c2.153,0,2.147,0,2.787-2q6.469-20.3,12.948-40.6c1.728-5.458,3.535-10.9,5.292-16.345.575-1.779.512-1.877-1.325-1.958-4.991-.219-9.983-.38-14.969-.576-9.521-.426-19.039-.892-28.557-1.313-2.792-.127-5.59-.207-8.382-.294-10.212-.322-20.409-.95-30.623-1.37-4.168-.173-8.336-.259-12.5-.386a12.182,12.182,0,0,1-4.451-.725,5.665,5.665,0,0,1,2.055-10.858c3.892.035,7.79.2,11.676.374,3.708.173,7.4.489,11.111.639,8.745.351,17.5.512,26.236,1,8.284.461,16.57.7,24.854,1.048,10.531.443,21.049,1.151,31.585,1.353a6.914,6.914,0,0,1,7.1,4.14ZM920,199.688a7.061,7.061,0,0,0,7.26-6.851l.006-.15a7.263,7.263,0,0,0-7.11-7.243,7.1,7.1,0,0,0-7.134,7.013,6.866,6.866,0,0,0,6.494,7.22C919.68,199.688,919.841,199.688,920,199.688Zm60.918,0a7.005,7.005,0,0,0,7.117-6.892l.006-.109a7.218,7.218,0,0,0-7.094-7.243,7.017,7.017,0,0,0-7.1,6.938c0,.069,0,.138.006.213a6.777,6.777,0,0,0,6.442,7.093C980.5,199.694,980.707,199.694,980.92,199.688Z" transform="translate(-854.663 -46.863)" fill="#616161"/>
      </g>
    </g>
  </g>
</svg>
