<svg xmlns="http://www.w3.org/2000/svg" width="45.739" height="41.012" viewBox="0 0 45.739 41.012">
  <g id="Group_124" data-name="Group 124" transform="translate(-344.596 -111)">
    <g id="Grupo_5" data-name="Grupo 5" transform="translate(353.312 111)">
      <path id="Trazado_28" data-name="Trazado 28" d="M882.972,52.8c-.205.5-.346,1.027-.514,1.543q-.7,2.137-1.378,4.278c-.391,1.219-.776,2.44-1.164,3.66-.237.746-.473,1.493-.719,2.237a.98.98,0,0,1-.98.721c-.094.007-.2,0-.294,0q-6.466,0-12.932-.006c-.271,0-.421.059-.51.336-.172.545-.387,1.076-.581,1.616-.095.252-.084.256.194.256h13.994a1,1,0,0,1,.663.171.764.764,0,0,1,.277.826.714.714,0,0,1-.609.562,3.758,3.758,0,0,1-.7.028c-.052,0-.118-.017-.149.03-.04.064.028.109.061.155a2.613,2.613,0,0,1,.5,1.919,2.743,2.743,0,0,1-4.982,1.244,2.645,2.645,0,0,1-.22-2.743,1.707,1.707,0,0,1,.275-.464c.078-.086.036-.134-.07-.139H867.8c-.074,0-.177-.033-.215.028-.051.084.054.145.095.207a2.753,2.753,0,0,1-.531,3.663,2.684,2.684,0,0,1-2.018.621,2.743,2.743,0,0,1-2.319-1.854,2.668,2.668,0,0,1,.388-2.5c.086-.124.049-.157-.078-.159s-.256,0-.384,0a.8.8,0,0,1-.763-1.147q.424-1.168.846-2.336c.095-.277.086-.292-.2-.3a.945.945,0,0,1-1.016-.859c-.272-1.473-.537-2.947-.81-4.42-.3-1.651-.616-3.3-.92-4.951q-.426-2.309-.838-4.621a.4.4,0,0,0-.284-.335c-1.146-.441-2.286-.892-3.43-1.339a1.16,1.16,0,0,1-.656-.619v-.587a.972.972,0,0,1,1.239-.595,1,1,0,0,1,.165.076c1.332.522,2.662,1.048,4,1.564a1.1,1.1,0,0,1,.706.917q.315,1.732.632,3.465.355,1.933.71,3.864.536,2.933,1.07,5.865c.01.06.027.117.042.176.129.53.129.53.687.53h13.337c.354,0,.353,0,.458-.328q1.063-3.336,2.127-6.671c.284-.9.581-1.791.869-2.685.095-.292.084-.308-.218-.322-.82-.036-1.64-.062-2.459-.095-1.564-.07-3.128-.147-4.692-.216-.459-.021-.918-.034-1.377-.048-1.678-.053-3.353-.156-5.031-.225-.685-.028-1.37-.043-2.055-.063a2,2,0,0,1-.731-.119.931.931,0,0,1,.338-1.784c.639.006,1.28.032,1.918.061.609.028,1.216.08,1.826.1,1.437.058,2.875.084,4.31.165,1.361.076,2.722.114,4.083.172,1.73.073,3.458.189,5.189.222a1.136,1.136,0,0,1,1.167.68ZM865.4,71.971a1.16,1.16,0,0,0,1.193-1.126v-.025a1.193,1.193,0,0,0-1.168-1.19,1.166,1.166,0,0,0-1.172,1.152,1.128,1.128,0,0,0,1.067,1.186C865.345,71.971,865.372,71.971,865.4,71.971Zm10.009,0a1.151,1.151,0,0,0,1.169-1.132v-.018a1.186,1.186,0,0,0-1.165-1.19,1.153,1.153,0,0,0-1.167,1.14c0,.011,0,.023,0,.035a1.114,1.114,0,0,0,1.059,1.165Z" transform="translate(-854.663 -46.863)" fill="#a7a5a3"/>
    </g>
    <g id="Compra" transform="translate(344.596 136.405)" style="isolation: isolate">
      <g id="Group_5" data-name="Group 5" style="isolation: isolate">
        <path id="Path_28" data-name="Path 28" d="M854.73,75.044a3.3,3.3,0,0,1,1.13.969,3.145,3.145,0,0,1,.552,1.339,4.328,4.328,0,0,1-.063,1.637,7.484,7.484,0,0,1-.7,1.864,2.476,2.476,0,0,1-.959,1.086,1.475,1.475,0,0,1-1.068.163,1.574,1.574,0,0,0,.688-.253,2.2,2.2,0,0,0,.5-.471,2.667,2.667,0,0,0,.334-.561,2.95,2.95,0,0,0,.182-.525,2,2,0,0,1-.335.616,2.062,2.062,0,0,1-.452.415,1.781,1.781,0,0,1-.489.236,1.186,1.186,0,0,1-.444.055,1.191,1.191,0,0,0,.426-.308,2.045,2.045,0,0,0,.462-.724,2.859,2.859,0,0,1-.742.543,3.322,3.322,0,0,1-.77.281,3.138,3.138,0,0,1-.66.081,1.289,1.289,0,0,1-.434-.055,2.281,2.281,0,0,0,.823-.226,3.108,3.108,0,0,0,.7-.462,3.166,3.166,0,0,0,.506-.561,1.631,1.631,0,0,0,.253-.507,2.94,2.94,0,0,1-.552.58,3.394,3.394,0,0,1-.66.416,2.562,2.562,0,0,1-.66.217,1.028,1.028,0,0,1-.552-.036,2.359,2.359,0,0,0,1.013-.507,3.558,3.558,0,0,0,.761-.886,3.927,3.927,0,0,0,.452-1.076,2.977,2.977,0,0,0,.091-1.059,1.578,1.578,0,0,0-.343-.842,1.243,1.243,0,0,0-.833-.425,2.262,2.262,0,0,0-1.249.271,5.424,5.424,0,0,0-1.5,1.14,10.43,10.43,0,0,0-1.512,2.063,13.408,13.408,0,0,0-1.24,3.059,5.7,5.7,0,0,0-.253,2.217,3.783,3.783,0,0,0,.516,1.629,2.4,2.4,0,0,0,1.04.932,2.1,2.1,0,0,0,1.348.136,3.2,3.2,0,0,0,1.422-.778,5.581,5.581,0,0,0,1.267-1.8,3.853,3.853,0,0,1,.941-.389,1.514,1.514,0,0,1,.941.027,7.88,7.88,0,0,1-1.882,2.607,5.317,5.317,0,0,1-2.217,1.213,3.97,3.97,0,0,1-2.19-.073,3.662,3.662,0,0,1-1.774-1.249,5.279,5.279,0,0,1-.987-2.317,7.9,7.9,0,0,1,.164-3.276,12.594,12.594,0,0,1,1.2-3.267,8.317,8.317,0,0,1,1.6-2.082,5.569,5.569,0,0,1,1.8-1.13,6.282,6.282,0,0,1,1.774-.4,5.514,5.514,0,0,1,1.538.1A4.92,4.92,0,0,1,854.73,75.044Zm-8.507,9.864a3.556,3.556,0,0,0,.045.525,3.818,3.818,0,0,0,.145.616,2.562,2.562,0,0,0,.262.569,1.139,1.139,0,0,0,.38.39,2.265,2.265,0,0,1-.344-.507,4.528,4.528,0,0,1-.243-.58c-.067-.192-.121-.376-.164-.551A3.244,3.244,0,0,1,846.224,84.908Zm1.466,2.245a2.849,2.849,0,0,1-.57-.7,3.806,3.806,0,0,1-.353-.8,4.539,4.539,0,0,1-.172-.815,4.283,4.283,0,0,1-.027-.724,2.409,2.409,0,0,0-.045.905,3.813,3.813,0,0,0,.227.886,3.1,3.1,0,0,0,.416.751A1.9,1.9,0,0,0,847.69,87.153Zm3.384-5.955c.024-.085.066-.127.127-.127a.847.847,0,0,1,.2.026,1.948,1.948,0,0,0,.235.045.327.327,0,0,0,.235-.054.637.637,0,0,1-.217.163,1.115,1.115,0,0,1-.281.1.514.514,0,0,1-.235,0C851.071,81.334,851.05,81.283,851.074,81.2Zm.832.144c-.048.013-.07,0-.063-.026s.021-.045.045-.045.042,0,.055.027S851.944,81.342,851.907,81.342Zm2.643-4.09a1.837,1.837,0,0,0-.127-.968,1.286,1.286,0,0,0-.507-.561,1.75,1.75,0,0,0-.733-.227,3.015,3.015,0,0,0-.805.037,3.65,3.65,0,0,1,1.013.117,1.6,1.6,0,0,1,.642.344,1.379,1.379,0,0,1,.362.543A2.782,2.782,0,0,1,854.55,77.252Zm-.832,4.652c.024.025.017.043-.019.054a.118.118,0,0,1-.109-.018c-.036-.024-.029-.039.018-.045A.2.2,0,0,1,853.717,81.9Zm.108-.091q.035-.017.045,0c.007.012,0,.03-.027.055s-.037.009-.037-.009A.061.061,0,0,1,853.825,81.813Zm.2.453a1.029,1.029,0,0,0,.317-.018,1.3,1.3,0,0,0,.407-.164,1.849,1.849,0,0,0,.435-.371,3.2,3.2,0,0,0,.415-.624,2.171,2.171,0,0,1-.742,1.076A.83.83,0,0,1,854.025,82.266Z" transform="translate(-845.449 -74.578)" fill="#a7a5a3"/>
        <path id="Path_29" data-name="Path 29" d="M862.739,83.252a.5.5,0,0,1,.236-.227.329.329,0,0,1,.244-.026.234.234,0,0,1,.136.181.618.618,0,0,1-.091.4,11.1,11.1,0,0,1-.6,1.086,8.142,8.142,0,0,1-.905,1.213,3.944,3.944,0,0,1-1.094.868,1.332,1.332,0,0,1-1.168.073.681.681,0,0,1-.217-.127,3.332,3.332,0,0,1-1.113.751,1.827,1.827,0,0,1-1,.117,1.269,1.269,0,0,1-.751-.452,1.881,1.881,0,0,1-.38-.959,3.957,3.957,0,0,1,.1-1.394,6.877,6.877,0,0,1,.724-1.774,7.107,7.107,0,0,1,1.258-1.71,3.15,3.15,0,0,1,1.23-.778,1.551,1.551,0,0,1,1.06.026,1.4,1.4,0,0,1,.714.688,2.643,2.643,0,0,1,.235,1.222,4.26,4.26,0,0,1-.389,1.619,11.937,11.937,0,0,1-.516,1.077,6.849,6.849,0,0,1-.552.86V86a.558.558,0,0,0,.525-.009,2.435,2.435,0,0,0,.588-.407,5.484,5.484,0,0,0,.588-.634q.289-.362.516-.706c.15-.229.284-.434.4-.616S862.7,83.324,862.739,83.252Zm-6.588,2.606a2.1,2.1,0,0,0,.064.47,1.68,1.68,0,0,0,.226.525,1.321,1.321,0,0,0,1.123.616,3.205,3.205,0,0,1-.362-.073,1.153,1.153,0,0,1-.435-.226,1.6,1.6,0,0,1-.389-.48A2.2,2.2,0,0,1,856.151,85.858Zm1.032,1.067a.858.858,0,0,1-.317-.271.891.891,0,0,1-.171-.507,1.192,1.192,0,0,0,.109.47A.494.494,0,0,0,857.183,86.925Zm-.127-1.267a1.014,1.014,0,0,0,.136.832.52.52,0,0,0,.516.218.546.546,0,0,1-.371-.117.705.705,0,0,1-.2-.289,1.2,1.2,0,0,1-.072-.354C857.059,85.827,857.056,85.731,857.056,85.658Zm1.576.289a2.878,2.878,0,0,1-.309-1.375,3.961,3.961,0,0,1,.309-1.538,4.9,4.9,0,0,0-.281.832,4.28,4.28,0,0,0-.118.652,2.3,2.3,0,0,1,.009-.606,5.04,5.04,0,0,1,.136-.66,2.576,2.576,0,0,1,.245-.6,1.413,1.413,0,0,1,.334-.416,2.267,2.267,0,0,0-.615.661,9.69,9.69,0,0,0-.634,1.13,4.444,4.444,0,0,0-.453,1.385,1.63,1.63,0,0,0,.082.905.421.421,0,0,0,.5.235A1.574,1.574,0,0,0,858.632,85.947Zm2.081-5.1a.81.81,0,0,0-.507-.308,1.436,1.436,0,0,0-.652.045,3.119,3.119,0,0,0-.688.3,2.829,2.829,0,0,0-.6.452,2.477,2.477,0,0,1,.624-.452,3.084,3.084,0,0,1,.706-.263,1.614,1.614,0,0,1,.651-.026A.748.748,0,0,1,860.713,80.844Zm-1.955,4.724a.85.85,0,0,0,.172.407,1.478,1.478,0,0,0,.461.444,1.323,1.323,0,0,0,.653.2.982.982,0,0,0,.723-.325,1.068,1.068,0,0,1-.742.307,1.233,1.233,0,0,1-.642-.208,1.657,1.657,0,0,1-.452-.444A.806.806,0,0,1,858.758,85.568Zm1.52.669a1.241,1.241,0,0,1-.95-.361,1.521,1.521,0,0,1-.362-.814,2.584,2.584,0,0,1,.063-.978,3.64,3.64,0,0,1,.325-.868,3.738,3.738,0,0,0-.389.969,2.426,2.426,0,0,0-.063.986,1.29,1.29,0,0,0,.4.761A1.376,1.376,0,0,0,860.278,86.237Zm-.652-1.99a5.123,5.123,0,0,0,.253-.624,3.531,3.531,0,0,0,.128-.516,2.682,2.682,0,0,0-.444.8,2.917,2.917,0,0,0-.173.85c.037-.072.076-.15.118-.235A2.907,2.907,0,0,0,859.626,84.247Zm1.032.67a5.4,5.4,0,0,0,.561-1.177,5.329,5.329,0,0,0,.236-1.041,2.975,2.975,0,0,0-.009-.842,1.979,1.979,0,0,0-.19-.6,1.381,1.381,0,0,1,.281.615,2.742,2.742,0,0,1,.027.869,4.283,4.283,0,0,1-.271,1.049A4.817,4.817,0,0,1,860.658,84.916Z" transform="translate(-846.02 -74.894)" fill="#a7a5a3"/>
        <path id="Path_30" data-name="Path 30" d="M872.988,83.221a.509.509,0,0,1,.226-.227.327.327,0,0,1,.245-.026.211.211,0,0,1,.135.181.728.728,0,0,1-.082.4c-.1.193-.229.446-.4.761s-.368.645-.6,1-.477.7-.743,1.04a6.305,6.305,0,0,1-.832.9,3.285,3.285,0,0,1-.86.561,1.082,1.082,0,0,1-.824.036,1.229,1.229,0,0,1-.641-.551,2.029,2.029,0,0,1-.245-1.058,4.945,4.945,0,0,1,.3-1.539,9.712,9.712,0,0,1,1.005-2.009,2.845,2.845,0,0,0-1.1.643,7.076,7.076,0,0,0-1.014,1.149,13.011,13.011,0,0,0-.9,1.466,16.491,16.491,0,0,0-.752,1.61h-1.538q.164-.56.434-1.285t.588-1.484q.316-.761.652-1.494t.661-1.312a1.863,1.863,0,0,0-.715.471,9.586,9.586,0,0,0-1.014,1.1q-.552.688-1.159,1.611a20.034,20.034,0,0,0-1.149,2.008c-.036.061-.069.121-.1.182s-.058.121-.082.181a.283.283,0,0,1-.334,0,1.31,1.31,0,0,1-.326-.3,2.582,2.582,0,0,1-.263-.389,1.188,1.188,0,0,1-.126-.289q.814-1.809,1.348-3.149t.95-2.516a1.544,1.544,0,0,1,.408-.2,4.014,4.014,0,0,1,.534-.145,4.255,4.255,0,0,1,.488-.073.66.66,0,0,1,.29.018c-.073.169-.146.341-.218.516l-.235.569a10.525,10.525,0,0,1,1.058-1.023,4.708,4.708,0,0,1,1.113-.7c.145.073.313.169.507.29s.374.244.543.371a4.053,4.053,0,0,1,.426.362c.114.114.171.2.171.262-.132.133-.3.317-.488.552a6.84,6.84,0,0,0-.6.878,6.726,6.726,0,0,1,1.385-1.032,8.3,8.3,0,0,1,1.51-.634,1.273,1.273,0,0,1,.444.453,2.935,2.935,0,0,1,.271.6,2.674,2.674,0,0,1,.127.58c.019.181.027.319.027.415l-.135.172a1.856,1.856,0,0,0-.118.172c.121-.12.211-.181.272-.181a4.885,4.885,0,0,0-.615.742,10.709,10.709,0,0,0-.707,1.177,6.569,6.569,0,0,0-.543,1.33c-.084.344-.078.547.019.606a.5.5,0,0,0,.551-.054,3.3,3.3,0,0,0,.661-.579,9.8,9.8,0,0,0,.7-.879q.353-.5.642-.959t.489-.814C872.849,83.448,872.94,83.293,872.988,83.221Zm-9.05,1.465c.012-.024.07-.114.172-.271s.223-.331.362-.524.281-.38.425-.562a1.626,1.626,0,0,1,.362-.361,1.132,1.132,0,0,0-.289.163c-.1.073-.164.12-.2.145a.135.135,0,0,0,.01.045.208.208,0,0,1,.009.062.183.183,0,0,0-.1.055c-.042.036-.069.061-.081.073.025.011.03.024.018.036a.022.022,0,0,0,0,.036.149.149,0,0,1-.091.055c-.012.024-.045.084-.1.181s-.118.2-.19.317-.139.226-.2.335A1.749,1.749,0,0,0,863.938,84.687Zm2.118-.814c.011-.036.063-.154.154-.353s.189-.41.3-.633.211-.435.307-.634.157-.323.182-.371a.244.244,0,0,0-.146.054c-.024.048-.075.166-.153.353s-.164.389-.253.606-.175.423-.254.616A3.7,3.7,0,0,0,866.056,83.872Zm1.249-2.063c-.024.061-.069.166-.136.317a3.789,3.789,0,0,0-.171.48,1.917,1.917,0,0,1,.081-.19c.043-.091.084-.181.126-.271s.082-.172.118-.244a.526.526,0,0,0,.054-.127.051.051,0,0,0-.036.018A.05.05,0,0,1,867.3,81.809Zm.67-.163q-.036.054-.136.236c-.066.12-.138.254-.217.4l-.235.435c-.078.145-.136.259-.172.343.036-.06.094-.16.172-.3s.16-.287.245-.444.16-.3.226-.426A2.664,2.664,0,0,0,867.974,81.647Zm1.538,3.492c.073-.217.16-.44.263-.669a5.764,5.764,0,0,1,.335-.643q.18-.3.334-.533a2.2,2.2,0,0,1,.264-.344,2.167,2.167,0,0,0-.308.354,4.68,4.68,0,0,0-.354.561c-.115.211-.222.428-.324.652A2.724,2.724,0,0,0,869.513,85.139Zm.38-4.235c0,.012-.018.036-.054.073a.11.11,0,0,1,.018-.063C869.869,80.9,869.881,80.893,869.893,80.9Zm.47,1.864a1.525,1.525,0,0,0-.226.254c-.091.121-.166.229-.226.325a3.17,3.17,0,0,0,.245-.317A1.974,1.974,0,0,1,870.363,82.768Zm-.2-2.009c.036.037.021.073-.044.109a.991.991,0,0,1-.155.072.314.314,0,0,1,.091-.162C870.1,80.73,870.14,80.723,870.164,80.759Z" transform="translate(-846.314 -74.864)" fill="#a7a5a3"/>
        <path id="Path_31" data-name="Path 31" d="M879.949,83.234a.5.5,0,0,1,.235-.227.3.3,0,0,1,.244-.018.261.261,0,0,1,.136.19.623.623,0,0,1-.091.4q-.143.289-.4.761c-.169.314-.367.645-.6,1s-.478.694-.742,1.032a6.475,6.475,0,0,1-.833.886,3.256,3.256,0,0,1-.86.561,1.089,1.089,0,0,1-.823.036q-.8-.289-.588-1.674a14.944,14.944,0,0,1,1.547-4.027,2.473,2.473,0,0,0-.969.507,7.253,7.253,0,0,0-1.049,1.023,11.327,11.327,0,0,0-.97,1.331,7.764,7.764,0,0,0-.706,1.411,19.414,19.414,0,0,1-1,2.037,9.237,9.237,0,0,1-.842,1.239,2.754,2.754,0,0,1-.679.624,1.2,1.2,0,0,1-.534.182.658.658,0,0,1-.389-.091,1.079,1.079,0,0,1-.245-.208.7.7,0,0,0,.507-.154,2.542,2.542,0,0,0,.5-.462,4.086,4.086,0,0,0,.389-.551,1.732,1.732,0,0,0,.2-.444,4.318,4.318,0,0,1-.905,1.1.688.688,0,0,1-.8.145q.217-.054.606-.652t.861-1.484q.471-.885.977-1.954t.958-2.073q.454-1,.8-1.819t.489-1.231a1.006,1.006,0,0,1,.362-.163,1.8,1.8,0,0,1,.435-.054,2.011,2.011,0,0,1,.4.036,1.2,1.2,0,0,1,.253.072l-.326.733c-.121.271-.247.565-.379.878a2.31,2.31,0,0,1,.254-.335,4.935,4.935,0,0,1,.434-.434,5.3,5.3,0,0,1,.561-.434,3.012,3.012,0,0,1,.652-.335,3.059,3.059,0,0,0-.434.28c-.169.127-.35.275-.543.444a5.223,5.223,0,0,1,.841-.543,2.267,2.267,0,0,1,.806-.254,1.555,1.555,0,0,1,.524.4,2.278,2.278,0,0,1,.344.525,2.461,2.461,0,0,1,.181.516,1.878,1.878,0,0,1,.055.39q-.579.959-1.022,1.782t-.725,1.43a7.346,7.346,0,0,0-.389.987q-.108.38,0,.434a.5.5,0,0,0,.552-.055,3.264,3.264,0,0,0,.66-.578,8.677,8.677,0,0,0,.688-.879c.229-.331.441-.652.634-.959s.356-.579.488-.814S879.9,83.305,879.949,83.234Zm-6.986,3.691a10.922,10.922,0,0,1,.824-1.756,11.521,11.521,0,0,1,.9-1.33,8.88,8.88,0,0,1,.788-.878,5.718,5.718,0,0,1,.47-.416,2.661,2.661,0,0,0-.923.661,7.1,7.1,0,0,0-.814,1.058,10.329,10.329,0,0,0-.7,1.294Q873.2,86.255,872.964,86.925Zm3.2.146q-.2-.182.191-1.367a16.142,16.142,0,0,1,1.656-3.212,4.633,4.633,0,0,0-.381.525q-.236.362-.488.814t-.489.959q-.235.507-.4.959a3.524,3.524,0,0,0-.2.8A.658.658,0,0,0,876.167,87.07Zm.308-.688a1.175,1.175,0,0,0-.055.144.758.758,0,0,0-.036.236.677.677,0,0,0,.045.245.357.357,0,0,0,.19.189.389.389,0,0,1-.2-.316A1.539,1.539,0,0,1,876.475,86.383Z" transform="translate(-846.76 -74.894)" fill="#a7a5a3"/>
        <path id="Path_32" data-name="Path 32" d="M880,85.625a4.162,4.162,0,0,0,.371-.561c.164-.277.331-.579.507-.905s.341-.645.5-.958.277-.562.362-.743a.706.706,0,0,1-.063-.036.668.668,0,0,0-.064-.037q-.18.417-.4.842t-.471.842c-.072.12-.138.172-.2.154a.3.3,0,0,1-.163-.154.756.756,0,0,1-.091-.3.426.426,0,0,1,.036-.262q.182-.326.372-.707l.371-.742a1.379,1.379,0,0,1-.525-1.575.977.977,0,0,1,.226-.4.927.927,0,0,1,.344-.236.764.764,0,0,1,.379-.044.581.581,0,0,1,.335.172.791.791,0,0,1,.253.506,2.116,2.116,0,0,1-.054.707,4.117,4.117,0,0,0,1.013.543.054.054,0,0,0,.019-.037,3.925,3.925,0,0,1,.605-.977,2.628,2.628,0,0,1,.679-.57,1.555,1.555,0,0,1,.66-.208,1.124,1.124,0,0,1,.57.109.869.869,0,0,1,.362.362,1.11,1.11,0,0,1,.126.534,1.98,1.98,0,0,1-.108.624,1.92,1.92,0,0,1-.326.6,2.152,2.152,0,0,0,.235-.281,1.626,1.626,0,0,0,.182-.335,1.513,1.513,0,0,1-.417.715,2.641,2.641,0,0,1-.67.48,2.08,2.08,0,0,1-.651.218l-.036.018h-.055q-.308.579-.579,1.176a11.681,11.681,0,0,0-.444,1.113,4.551,4.551,0,0,0-.217.886c-.03.248.009.4.117.463a.488.488,0,0,0,.524-.018,2.752,2.752,0,0,0,.616-.507,7.147,7.147,0,0,0,.643-.8q.315-.453.589-.887t.451-.769c.121-.223.205-.371.255-.443a.5.5,0,0,1,.226-.227.275.275,0,0,1,.235-.018.263.263,0,0,1,.136.19.617.617,0,0,1-.091.4c-.084.193-.208.441-.371.742s-.347.613-.552.933a10.84,10.84,0,0,1-.687.95,6.321,6.321,0,0,1-.779.814,2.637,2.637,0,0,1-.815.5,1.1,1.1,0,0,1-.8.009,1.081,1.081,0,0,1-.687-.661,2.785,2.785,0,0,1-.146-1.14,6.587,6.587,0,0,1,.253-1.421,13.626,13.626,0,0,1,.526-1.5c-.133-.036-.267-.076-.4-.117a3.644,3.644,0,0,1-.4-.154,4.655,4.655,0,0,1-.28.751q-.209.463-.48.933t-.562.877A2.628,2.628,0,0,1,880,85.625Zm1.538-4.832q.091-.345-.054-.4c-.1-.048-.146-.033-.146.045A.687.687,0,0,0,881.538,80.793Zm.652,3.583c-.061.242-.115.5-.163.778a4.742,4.742,0,0,0-.072.814,2.354,2.354,0,0,0,.117.751,1.275,1.275,0,0,0,.443.606,2.214,2.214,0,0,1-.343-.48,1.617,1.617,0,0,1-.164-.57,3.9,3.9,0,0,1,.01-.787Q882.063,85.027,882.19,84.376Zm2.9-2.226a1.253,1.253,0,0,1-.324.244,1.51,1.51,0,0,1-.4.172,1.143,1.143,0,0,0,.435-.164C884.964,82.308,885.062,82.222,885.085,82.151Zm.525-1.412a1.431,1.431,0,0,1,.018.263,1.015,1.015,0,0,1-.1.4,1.752,1.752,0,0,1-.325.47,2.545,2.545,0,0,1-.661.48,1.8,1.8,0,0,0,.951-.8A1.1,1.1,0,0,0,885.61,80.738Zm-.344.6a.6.6,0,0,0,.081-.171c-.006-.007-.036.018-.091.072s-.12.131-.2.227-.16.193-.245.289A1.282,1.282,0,0,0,885.267,81.335Zm.507-.94a1.053,1.053,0,0,1,.153.38,1.175,1.175,0,0,1,.01.434,1.165,1.165,0,0,0-.036-.625A1.3,1.3,0,0,0,885.774,80.395Z" transform="translate(-847.318 -74.861)" fill="#a7a5a3"/>
        <path id="Path_33" data-name="Path 33" d="M892.735,83.239a.493.493,0,0,1,.235-.227.3.3,0,0,1,.245-.018.26.26,0,0,1,.135.19.618.618,0,0,1-.091.4q-.126.289-.371.733t-.561.932q-.316.49-.688.959a5.587,5.587,0,0,1-.779.814,2.8,2.8,0,0,1-.814.5,1.123,1.123,0,0,1-.806.009.991.991,0,0,1-.515-.4,1.441,1.441,0,0,1-.208-.652,2.9,2.9,0,0,1-.778.824,1.843,1.843,0,0,1-1.195.3.869.869,0,0,1-.824-.516,2.375,2.375,0,0,1-.135-1.195,7.447,7.447,0,0,1,.344-1.547,14.415,14.415,0,0,1,.616-1.575,9.81,9.81,0,0,1,.7-1.276,1.821,1.821,0,0,1,.588-.642,2.986,2.986,0,0,1,1.53-.335,1.872,1.872,0,0,1,1.077.407,1.478,1.478,0,0,1,.082-.171,1.129,1.129,0,0,1,.1-.154c.011-.036.123-.055.335-.055a3.568,3.568,0,0,1,.652.063,1.7,1.7,0,0,1,.561.2.22.22,0,0,1,.081.353q-.236.362-.569.886t-.67,1.1c-.224.386-.441.772-.653,1.158s-.386.743-.524,1.068a4.141,4.141,0,0,0-.272.832c-.043.23-.009.38.1.453a.462.462,0,0,0,.516-.027,2.84,2.84,0,0,0,.624-.516,7.132,7.132,0,0,0,.643-.8q.315-.453.588-.878t.451-.761C892.6,83.458,892.686,83.311,892.735,83.239Zm-6.3,3.113a6,6,0,0,1,.254-1.178q.2-.633.444-1.212t.479-1.041q.236-.463.343-.625a3.762,3.762,0,0,0-.4.634q-.254.471-.506,1.068a10.5,10.5,0,0,0-.435,1.231A4.17,4.17,0,0,0,886.436,86.352Zm1.973.379c.047.1.057.16.026.19s-.051.027-.063-.009a1.234,1.234,0,0,1-.452.463,2.452,2.452,0,0,1-.57.253,2.117,2.117,0,0,1-.516.091.777.777,0,0,1-.308-.027,2.375,2.375,0,0,0,.715-.1,2.241,2.241,0,0,0,.543-.244,2.08,2.08,0,0,0,.381-.307A2.173,2.173,0,0,0,888.409,86.731Zm-1.321-.036q.326.182,1.041-1.023a27.026,27.026,0,0,0,1.692-3.7c.024-.061,0-.124-.072-.19a.735.735,0,0,0-.29-.154,1.012,1.012,0,0,0-.379-.036.507.507,0,0,0-.344.182,1.593,1.593,0,0,0-.154.244c-.079.139-.174.317-.289.533s-.238.464-.372.743-.259.561-.379.85c.192-.434.389-.832.587-1.195a5.558,5.558,0,0,1,.462-.742q-.054.126-.236.462t-.4.787q-.217.453-.434.968t-.362.978a4.167,4.167,0,0,0-.181.814A.544.544,0,0,0,887.088,86.7Zm.343.271a.974.974,0,0,0,.326-.244,3.818,3.818,0,0,0,.362-.453,4.276,4.276,0,0,0,.325-.561,3.2,3.2,0,0,0,.217-.57,3.13,3.13,0,0,1-.208.453q-.153.289-.343.579t-.38.525A.833.833,0,0,1,887.431,86.967Zm.941.2q-.072.018-.054-.054a.066.066,0,1,1,.109-.009C888.439,87.144,888.421,87.165,888.373,87.165Zm.055-.163c-.013-.024-.009-.039.009-.045s.033,0,.045.027.01.025-.009.036S888.439,87.027,888.427,87Z" transform="translate(-847.619 -74.899)" fill="#a7a5a3"/>
      </g>
    </g>
  </g>
</svg>
