<svg xmlns="http://www.w3.org/2000/svg" width="86.444" height="49.868" viewBox="0 0 86.444 49.868">
  <g id="Group_74" data-name="Group 74" transform="translate(0 0)">
    <g id="Group_3" data-name="Group 3" transform="translate(54.988)">
      <path id="Path_1" data-name="Path 1" d="M793.638,544.612c-.864-1.2-2.21-1.117-4.127-2.709-2.309-1.912-.881-3.752-3.317-6.255-.14-.083-.282-.168-.426-.257a24.452,24.452,0,0,0,2.086-2.027c1.094-1.341,1.238-3.5.928-5.418-.05-.319-.114-.629-.189-.928-.429-1.745-1.2-3.109-1.872-3.147a.842.842,0,0,0-.652.356,2.088,2.088,0,0,0-.486,1.038,7.44,7.44,0,0,1-.466,1.639,6.081,6.081,0,0,1-.553,1.042c-.036.055-.072.107-.107.158-.821,1.152-1.883,1.784-2.289,3.331a4.469,4.469,0,0,0-.138,1.068l-.959.05c-.1-.336-.218-.687-.356-1.043a12.164,12.164,0,0,0-1.939-3.273,6.747,6.747,0,0,1-.751-1.542c-.063-.189-.117-.371-.161-.548a6.785,6.785,0,0,1-.195-1.357c0-.083-.005-.162-.007-.237a1.023,1.023,0,0,0-1.883-.4c-.492.761-1.087,1.731-1.713,2.89q-.266.49-.535,1.023c-.033.063-.063.127-.1.19a14.641,14.641,0,0,0-1.409,3.4c-2.164.075-4.885.1-8.048-.02a.934.934,0,1,0,.055,1.864,61.758,61.758,0,0,0,7.865-1.232,6.572,6.572,0,0,0,.545,4.57,5.434,5.434,0,0,0,1.181,1.419,5.563,5.563,0,0,0,.46.361c.553.167,1.111.346,1.67.518a.307.307,0,0,0,.326-.489,7.814,7.814,0,0,1-1.716-3.994,7.946,7.946,0,0,1,1.38-5.415.524.524,0,0,1,.781-.088,10.41,10.41,0,0,1,1.235,1.275,8.376,8.376,0,0,1,1.755,3.278,7.488,7.488,0,0,1,.252,2.329.921.921,0,0,0,.505.913.859.859,0,0,0,.564.055.937.937,0,0,0,.622-.692,8.2,8.2,0,0,0,.039-1.231,8.668,8.668,0,0,0-.153-1.325c2.842,1.186,4.054,2.7,4.628,3.871,1.077,2.191.722,4.064,2.234,5.577a5.314,5.314,0,0,0,1.2.9,6.623,6.623,0,0,0,.955.427,4.554,4.554,0,0,1,.428.175c2.714,1.243.625,3.331.625,3.331s-.791,1.155-6.305,1.794q-.482.058-1.016.107c-.44.042-.905.081-1.4.115a14.792,14.792,0,0,1-3.125-.109l-.029-.005c-.32-.045-.691-.084-1.1-.1a9.94,9.94,0,0,0-5.868,1.516c-.015.01-.041.024-.06.039a7.742,7.742,0,0,0-3.429,6.173c0,.063-.005.127-.007.19,0,.25-.01.5-.015.749q-.117,6.382-.237,12.768a.894.894,0,0,1-1.642-.1q-.163-2.916-.327-5.834a7.917,7.917,0,0,0-.1-.84q-.483-2.759-.964-5.523a3.2,3.2,0,0,0-.144-.5c-.444-1.438-.741-2.4-1.477-2.709a1.242,1.242,0,0,0-1.193.073c-.479.4-.266,1.34.154,3.144.479,2.018.717,3.026.855,3.6.3,1.237.525,3.036,1.009,6.63.177,1.345.317,2.467.4,3.239a6.478,6.478,0,0,0,2.186.969c.06.014.12.027.179.037a5.625,5.625,0,0,0,3.079-.338.765.765,0,0,0,.361-.271.79.79,0,0,0,.079-.807,9.877,9.877,0,0,1-.762-2.431,11.837,11.837,0,0,1-.138-2.19,39.491,39.491,0,0,1,.3-4.687c.213-1.67.393-3.024.582-4.123.057-.33.114-.637.174-.921a6.737,6.737,0,0,1,1.019-2.724,7.34,7.34,0,0,1,2.789-2.161,6.7,6.7,0,0,1,.751-.276,12.829,12.829,0,0,1,2.6-.48c.379-.034.739-.053,1.065-.063.679-.021,1.212,0,1.466,0,0,0,1.247.035,2.962-.1.323-.024.663-.057,1.016-.1a23.167,23.167,0,0,0,3.817-.72,13.561,13.561,0,0,0,1.31-.445,9.585,9.585,0,0,0,.936-.426c.189-.094.377-.2.377-.2s.257-.153.484-.291a4.788,4.788,0,0,0,2.036-2.21A3.655,3.655,0,0,0,793.638,544.612Zm-8.557-10.184c-.677-.411-1.36-.821-2.036-1.227a7.821,7.821,0,0,1,.766-2.031,6.618,6.618,0,0,1,1.454-1.943,9.543,9.543,0,0,0,1.3-1.152c.038-.044.072-.086.1-.127.335-.421.4-.642.52-.624s.21.255.271.624a7.883,7.883,0,0,1-.271,3.222A7.232,7.232,0,0,1,785.081,534.428Z" transform="translate(-762.712 -523.665)" fill="#b5b4b2"/>
      <path id="Rectangle_18" data-name="Rectangle 18" d="M.525,0h.837a.525.525,0,0,1,.525.525v0a.525.525,0,0,1-.525.525H.525A.525.525,0,0,1,0,.525v0A.525.525,0,0,1,.525,0Z" transform="translate(20.739 15.524) rotate(90)" fill="#b5b4b2"/>
    </g>
    <path id="Path_2" data-name="Path 2" d="M734.223,585.09l-2.06-1.99a1,1,0,0,0-.794-.275l-.646.061c-.515.048-1.667.074-3.426.074h-.214a9.265,9.265,0,0,0-1.916-.65,14.2,14.2,0,0,0-1.846-.249c-.349-.026-.707-.044-1.056-.052-.148,0-.3,0-.454,0-.092,0-.188,0-.284,0h-.157a11.258,11.258,0,0,0-6.01,1.6,6.779,6.779,0,0,0-1.938,1.864,5.63,5.63,0,0,0-.973,3.226,5.512,5.512,0,0,0,.982,3.243,6.877,6.877,0,0,0,.441.546.812.812,0,0,0,.061.061,4.27,4.27,0,0,0-.655,1.117,3.622,3.622,0,0,0-.262,1.379,3.828,3.828,0,0,0,.148,1.008,1.751,1.751,0,0,0-.223.218,4.426,4.426,0,0,0-1.157,2.479,5.039,5.039,0,0,0-.039.633A5.265,5.265,0,0,0,714.73,604a13.45,13.45,0,0,0,6.5,1.3h0l.218,0a13.913,13.913,0,0,0,7.787-2.078,7.26,7.26,0,0,0,3.531-6.12,5.317,5.317,0,0,0-.938-3.151,4.926,4.926,0,0,0-2.361-1.794,4.582,4.582,0,0,0-.624-.179,5.836,5.836,0,0,0,1.288-2.667h.8a1.013,1.013,0,0,0,.834-.441l.419-.611a10.038,10.038,0,0,1,.834-1.1l1.231-1.379A.491.491,0,0,0,734.223,585.09Zm-12.654,3.745h-.1a.756.756,0,0,1-.114-.009,3.641,3.641,0,0,1-.083-.79c.044,0,.1,0,.157,0a.935.935,0,0,1,.118,0,2.569,2.569,0,0,1,.039.506C721.583,588.665,721.574,588.761,721.569,588.835Zm.367,10.209c.642,0,1.152,0,1.558.013a6.613,6.613,0,0,1-1.772.205h-.044c-.061,0-.122,0-.179,0h-.022a5.489,5.489,0,0,1-1.563-.214Z" transform="translate(-679.003 -556.54)" fill="#b5b4b2" fill-rule="evenodd"/>
    <path id="Path_3" data-name="Path 3" d="M695.253,598.539c-1.849-.049-3.287-.074-4.271-.074-.522,0-1.991.025-4.365.074l-1.881.04a.57.57,0,0,1-.582-.57v-4.695a.573.573,0,0,1,.559-.574l1.676-.042a.245.245,0,0,0,.24-.24c.01-.416.016-.943.016-1.607,0-.706-.015-1.375-.045-1.988h0a.248.248,0,0,0-.24-.241l-1.965-.056a.248.248,0,0,1-.24-.248V583.23a.249.249,0,0,1,.234-.248l2.038-.12a21.628,21.628,0,0,0,5.516-.916l.66-.224a.961.961,0,0,1,.826.1l1.721,1.1a.96.96,0,0,1,.439.9l-.082.882c-.137,1.492-.206,3.705-.206,6.577,0,.469,0,.86.007,1.185a.245.245,0,0,0,.231.242l1.568.091a.664.664,0,0,1,.625.663v4.477a.653.653,0,0,1-.671.653Z" transform="translate(-663.455 -556.352)" fill="#b5b4b2" fill-rule="evenodd"/>
    <path id="Path_4" data-name="Path 4" d="M696.77,598.945c-1.854-.049-3.3-.074-4.3-.074-.534,0-2.011.025-4.389.075l-.931.02a.349.349,0,0,1-.357-.349v-2.84a.349.349,0,0,1,.341-.349l.889-.022c.365-.01.652-.021.878-.033a.347.347,0,0,0,.328-.325c.029-.485.055-1.294.055-2.637,0-.728-.016-1.416-.046-2.044l-.029-.969a.348.348,0,0,0-.338-.338l-1.739-.05a.349.349,0,0,1-.338-.349v-2.69a.349.349,0,0,1,.329-.349l.859-.051a22.76,22.76,0,0,0,5.818-.975l.415-.141a.35.35,0,0,1,.3.036l1.223.781a.349.349,0,0,1,.16.327l-.052.553c-.14,1.53-.211,3.779-.211,6.684,0,1.069.014,1.748.031,2.178a.348.348,0,0,0,.321.333c.231.018.524.039.891.06l.859.05a.35.35,0,0,1,.329.349v2.817a.35.35,0,0,1-.359.349Z" transform="translate(-664.942 -557.909)" fill="#272727" fill-rule="evenodd"/>
    <path id="Path_5" data-name="Path 5" d="M657.415,573.087a6.153,6.153,0,0,0-3-1.929c-.179-.057-.371-.1-.554-.148a19.333,19.333,0,0,0-4.16-.362c-.528,0-1.353.017-2.37.052l-.454.013c-1.807.039-2.994.061-3.745.061-.611,0-1.44-.013-2.527-.035l-3.614-.1a.247.247,0,0,0-.258.244v4.592a.247.247,0,0,0,.231.244l2.1.148a.245.245,0,0,1,.227.236c.065,1.052.1,2.833.1,5.452,0,1.157-.018,2.344-.048,3.536,0,.24-.009.476-.018.729l-.009.179c0,.218-.013.41-.022.581a.241.241,0,0,1-.227.231c-.118,0-.249.013-.393.022l-1.275.074a.712.712,0,0,0-.668.711V591.3a.708.708,0,0,0,.725.707l1.375-.026c3.946-.07,5.242-.087,5.631-.087,1.235,0,2.767.031,4.553.087l1.4.044a.711.711,0,0,0,.733-.711V587.6a.713.713,0,0,0-.677-.707l-1.292-.061c-.34-.018-.628-.031-.873-.048a.243.243,0,0,1-.231-.236c0-.127-.009-.262-.013-.41,0,0,0-.153,0-.175-.022-.8-.039-1.51-.057-2.139.065,0,.135.013.2.022a10.416,10.416,0,0,0,1.083.065,11.754,11.754,0,0,0,6.425-1.955,6.607,6.607,0,0,0,1.091-1.017,6.069,6.069,0,0,0,.633-.93,8.969,8.969,0,0,0,.546-1.222,17.1,17.1,0,0,0,.559-2.06.033.033,0,0,1,0-.013.2.2,0,0,0,.022-.092V576.5A5.241,5.241,0,0,0,657.415,573.087Zm-2.4,7.944a9.286,9.286,0,0,1-5.731,1.724,9.112,9.112,0,0,1-.956-.057c-.131-.017-.266-.031-.4-.052-.2-.022-.4-.052-.611-.087l-.2-.035a.25.25,0,0,1-.131-.065c-.022-.022-.052-.052-.083-.079-.044-.044-.087-.083-.092-.087q.033,1.368.092,3.7c0,.013,0,.026,0,.044,0,.044,0,.092,0,.135.017.72.039,1.17.057,1.449a.247.247,0,0,0,.223.227c.336.035.925.083,1.934.131l.633.026a.252.252,0,0,1,.236.249V590.6a.248.248,0,0,1-.258.249l-.685-.022c-1.807-.057-3.348-.087-4.588-.087-.554,0-2.457.031-5.653.087l-.672.013a.247.247,0,0,1-.253-.249v-2.331a.248.248,0,0,1,.231-.249l.624-.035c.707-.044,1.148-.083,1.419-.114a.242.242,0,0,0,.218-.223c.031-.292.066-.79.092-1.606,0-.065,0-.131.009-.2.009-.245.013-.489.017-.733.031-1.179.048-2.37.048-3.557,0-2.645-.03-4.452-.1-5.526-.026-.476-.057-.8-.087-1.021a.25.25,0,0,0-.218-.214q-.19-.02-.5-.039l-1.523-.109a.248.248,0,0,1-.231-.249v-2.326a.247.247,0,0,1,.253-.249l2.436.07q1.6.039,2.558.039c.8,0,2.069-.026,3.771-.066.148,0,.3-.009.454-.009,1.052-.035,1.842-.052,2.34-.052a18.309,18.309,0,0,1,3.9.332c.17.039.323.083.471.127a4.991,4.991,0,0,1,2.449,1.558,4.084,4.084,0,0,1,.89,2.68A5.484,5.484,0,0,1,655.014,581.031Zm-1.213-7.9a14.7,14.7,0,0,0-4.1-.419c-.5,0-1.27.018-2.322.048q-2.933.079-4.247.079-.962,0-2.584-.039l-1.75-.052v1.03l.89.061a2.886,2.886,0,0,1,1.344.258,4.2,4.2,0,0,1,.323,1.872q.1,1.676.1,5.583,0,2.089-.07,4.317a11.3,11.3,0,0,1-.223,2.532.527.527,0,0,1-.279.262,10.183,10.183,0,0,1-2.086.227v1.035q4.825-.092,5.666-.092,1.873,0,4.618.092v-1.035a14.9,14.9,0,0,1-2.632-.24.5.5,0,0,1-.3-.3A11.3,11.3,0,0,1,646,586.2c-.087-3.16-.127-5.028-.127-5.618q0-2.619.175-6.386a12.292,12.292,0,0,1,1.886-.175,4.613,4.613,0,0,1,3,.842,3.082,3.082,0,0,1,1.026,2.536,2.952,2.952,0,0,1-1,2.379,3.775,3.775,0,0,1-2.553.851,4.575,4.575,0,0,1-.515-.035c-.192-.026-.406-.061-.633-.1a1.029,1.029,0,0,0-.065.725,1,1,0,0,0,.266.437c.345.057.663.1.965.131a7.31,7.31,0,0,0,.851.052,8.385,8.385,0,0,0,5.181-1.536,4.623,4.623,0,0,0,2.038-3.81,3.212,3.212,0,0,0-.69-2.1A4.051,4.051,0,0,0,653.8,573.13Zm-5.875,6.547.092.013a3.482,3.482,0,0,0,.4.026,2.861,2.861,0,0,0,1.96-.633,1.74,1.74,0,0,0,.375-.428,2.1,2.1,0,0,0,.279-.864,2.805,2.805,0,0,0,.022-.393,2.179,2.179,0,0,0-.69-1.829,3.8,3.8,0,0,0-2.427-.637h-.009c-.24,0-.5.013-.79.039a.252.252,0,0,0-.223.236c0,.074,0,.144-.009.214-.061,1.506-.1,2.868-.113,4.072l.113.018.511.087C647.6,579.626,647.768,579.656,647.926,579.678Zm.1-3.339a.255.255,0,0,1,.266-.244,2.267,2.267,0,0,1,1.344.367c.074.061.266.218.266.938a2.443,2.443,0,0,1-.013.262.889.889,0,0,1-.118.388.611.611,0,0,1-.144.162,1.7,1.7,0,0,1-1.209.354,1.784,1.784,0,0,1-.249-.017l-.026,0s-.14-.018-.179-.026C647.974,577.823,648,577.094,648.022,576.339Z" transform="translate(-636.734 -550.132)" fill="#b5b4b2" fill-rule="evenodd"/>
    <path id="Path_6" data-name="Path 6" d="M658.478,577.074a4.049,4.049,0,0,0-2.012-1.261,14.692,14.692,0,0,0-4.1-.419c-.5,0-1.27.017-2.322.048q-2.933.079-4.247.079c-.642,0-1.5-.013-2.584-.039l-1.75-.052v1.03l.89.061a2.889,2.889,0,0,1,1.344.258,4.2,4.2,0,0,1,.323,1.873q.1,1.676.1,5.583,0,2.089-.07,4.317a11.311,11.311,0,0,1-.223,2.532.528.528,0,0,1-.279.262,10.188,10.188,0,0,1-2.086.227V592.6q4.825-.092,5.666-.092,1.873,0,4.618.092V591.57a14.886,14.886,0,0,1-2.632-.24.5.5,0,0,1-.3-.3,11.293,11.293,0,0,1-.153-2.152c-.087-3.16-.127-5.028-.127-5.618q0-2.619.175-6.386a12.277,12.277,0,0,1,1.886-.175,4.613,4.613,0,0,1,3,.842,3.082,3.082,0,0,1,1.026,2.536,2.951,2.951,0,0,1-1,2.379,3.775,3.775,0,0,1-2.553.851,4.549,4.549,0,0,1-.515-.035c-.192-.026-.406-.061-.633-.1a1.029,1.029,0,0,0-.065.724,1,1,0,0,0,.266.437c.345.057.663.1.965.131a7.282,7.282,0,0,0,.851.052,8.384,8.384,0,0,0,5.181-1.536,4.623,4.623,0,0,0,2.039-3.811A3.211,3.211,0,0,0,658.478,577.074Z" transform="translate(-639.399 -552.815)" fill="#fff" fill-rule="evenodd"/>
    <path id="Path_7" data-name="Path 7" d="M697.972,599.284c-1.858-.05-3.313-.075-4.327-.075-.546,0-2.029.025-4.408.075l-.357.007v-1.717l.34-.008a8.437,8.437,0,0,0,1.883-.14c.024-.01.1-.106.148-.416a26.971,26.971,0,0,0,.118-3.351c0-.749-.016-1.452-.047-2.088l-.043-1.45a1.446,1.446,0,0,0-.079-.611,2.343,2.343,0,0,0-.824-.1l-1.5-.043V587.75l.329-.019a23.647,23.647,0,0,0,6.058-1.022l.159-.054.527.337a.349.349,0,0,1,.16.327h0c-.143,1.558-.215,3.835-.215,6.768a22.863,22.863,0,0,0,.1,3.054.451.451,0,0,0,.1.246,11.822,11.822,0,0,0,1.9.182l.329.019v1.708Z" transform="translate(-666.119 -559.16)" fill="#b5b4b2" fill-rule="evenodd"/>
    <path id="Path_8" data-name="Path 8" d="M659.168,579.178a4.623,4.623,0,0,1-2.039,3.811,8.384,8.384,0,0,1-5.181,1.536,7.282,7.282,0,0,1-.851-.052c-.3-.031-.62-.074-.965-.131a1,1,0,0,1-.266-.437,1.029,1.029,0,0,1,.065-.724c.227.035.441.07.633.1a4.549,4.549,0,0,0,.515.035,3.775,3.775,0,0,0,2.553-.851,2.951,2.951,0,0,0,1-2.379,3.082,3.082,0,0,0-1.026-2.536,4.613,4.613,0,0,0-3-.842,12.277,12.277,0,0,0-1.886.175q-.177,3.765-.175,6.386c0,.589.039,2.457.127,5.618a11.293,11.293,0,0,0,.153,2.152.5.5,0,0,0,.3.3,14.886,14.886,0,0,0,2.632.24V592.6q-2.743-.092-4.618-.092-.838,0-5.666.092V591.57a10.188,10.188,0,0,0,2.086-.227.528.528,0,0,0,.279-.262,11.311,11.311,0,0,0,.223-2.532q.072-2.226.07-4.317,0-3.9-.1-5.583a4.2,4.2,0,0,0-.323-1.873,2.889,2.889,0,0,0-1.344-.258l-.89-.061v-1.03l1.75.052c1.082.026,1.942.039,2.584.039q1.316,0,4.247-.079c1.052-.031,1.825-.048,2.322-.048a14.692,14.692,0,0,1,4.1.419,4.049,4.049,0,0,1,2.012,1.261A3.211,3.211,0,0,1,659.168,579.178Z" transform="translate(-639.399 -552.815)" fill="#b5b4b2" fill-rule="evenodd"/>
    <path id="Path_9" data-name="Path 9" d="M690.2,577.121a3.22,3.22,0,0,1-.721-2.038,3.323,3.323,0,0,1,1.315-2.641,4.246,4.246,0,0,1,5.132,0,3.324,3.324,0,0,1,1.315,2.641,3.194,3.194,0,0,1-.307,1.374Z" transform="translate(-666.457 -550.666)" fill="#b5b4b2" fill-rule="evenodd"/>
    <path id="Path_10" data-name="Path 10" d="M694.843,578.912a2.906,2.906,0,0,1-1.846-.619,2.145,2.145,0,0,1,0-3.461,3.093,3.093,0,0,1,3.7,0,2.145,2.145,0,0,1,0,3.461A2.922,2.922,0,0,1,694.843,578.912Z" transform="translate(-667.945 -552.151)" fill="#272727" fill-rule="evenodd"/>
    <path id="Path_11" data-name="Path 11" d="M697.312,576.727a2.17,2.17,0,0,0-2.575,0,1.307,1.307,0,0,0-.511.781,1.389,1.389,0,0,0-.022.236,1.252,1.252,0,0,0,.533,1.008,1.929,1.929,0,0,0,.917.4,2.509,2.509,0,0,0,.367.026,2.009,2.009,0,0,0,1.292-.423,1.235,1.235,0,0,0,0-2.025Z" transform="translate(-669.119 -553.328)" fill="#b5b4b2" fill-rule="evenodd"/>
    <path id="Path_12" data-name="Path 12" d="M688.884,540.65a5.123,5.123,0,0,0-.794-2.353l-.183-2.767-.262-3.99a.7.7,0,0,0-.7-.655h-2.182a2.083,2.083,0,0,0-.991.258l-.013.009c-.07.039-.14.079-.209.113a9.841,9.841,0,0,0-3.383-.611,8.289,8.289,0,0,0-5,1.506,5.329,5.329,0,0,0-2.361,4.382,5.045,5.045,0,0,0,1.17,3.282h-.445a.644.644,0,0,0-.642.646v6.473a.658.658,0,0,0,.659.659h2.388a1.939,1.939,0,0,0,1-.284l.039-.026h0a1.036,1.036,0,0,1,.864-.1,10.2,10.2,0,0,0,3.064.454,8.645,8.645,0,0,0,5.7-1.79,6.934,6.934,0,0,0,1.266-1.379,5.783,5.783,0,0,0,.939-2.248,5.677,5.677,0,0,0,.1-1.061A4.963,4.963,0,0,0,688.884,540.65Zm-7.922-5.735a2.743,2.743,0,0,1,1.488.986l-2.955-.576c-.354-.07-.419-.131-.419-.17C679.072,534.993,680.05,534.692,680.962,534.914Zm.986,7.879a4.674,4.674,0,0,1-1.122.114,3.045,3.045,0,0,1-2.108-.629c.323.061.655.118,1,.166C680.866,542.6,681.547,542.714,681.948,542.793Z" transform="translate(-657.06 -527.603)" fill="#b5b4b2" fill-rule="evenodd"/>
    <path id="Path_13" data-name="Path 13" d="M687.736,539.431a4.882,4.882,0,0,0-1.2-.72h1.82l-.341-5.186h-1.99l-.205.118c-.253.144-.5.266-.72.371a8.8,8.8,0,0,0-3.44-.72,7.178,7.178,0,0,0-4.321,1.283,4.158,4.158,0,0,0-1.89,3.453,3.957,3.957,0,0,0,1.576,3.2,8.859,8.859,0,0,0,4.348,1.554,18.052,18.052,0,0,1,3.021.546,2.591,2.591,0,0,1,.755.48c.148.135.148.218.148.253,0,.114,0,.458-.633.921a4.008,4.008,0,0,1-2.344.559,3.775,3.775,0,0,1-3.937-2.51l-.231-.572h-2.623v5.474h2.112l.223-.135c.3-.188.616-.371.952-.554a8.744,8.744,0,0,0,3.588.729,7.528,7.528,0,0,0,4.958-1.519,4.829,4.829,0,0,0,1.89-3.806A4.05,4.05,0,0,0,687.736,539.431Zm-7.948-3.274a3.172,3.172,0,0,1,1.746-.423,4.455,4.455,0,0,1,2.261.533,4.776,4.776,0,0,1,1.659,1.96l.061.113a19.178,19.178,0,0,0-2.877-.607,15.2,15.2,0,0,1-2.986-.615c-.31-.114-.332-.231-.332-.41S679.477,536.354,679.787,536.157Z" transform="translate(-658.547 -529.091)" fill="#272727" fill-rule="evenodd"/>
    <path id="Path_14" data-name="Path 14" d="M688.323,541.307q-1.185-1-4.64-1.493a16.622,16.622,0,0,1-3.178-.664,1.264,1.264,0,0,1-.925-1.266,1.608,1.608,0,0,1,.882-1.318,4.092,4.092,0,0,1,2.244-.567,5.3,5.3,0,0,1,2.719.659,5.629,5.629,0,0,1,2.008,2.318h1.117l-.218-3.361h-.9a9.852,9.852,0,0,1-1.174.572,7.98,7.98,0,0,0-3.431-.8,6.237,6.237,0,0,0-3.784,1.109,3.28,3.28,0,0,0-1.519,2.715,3.073,3.073,0,0,0,1.24,2.492,7.925,7.925,0,0,0,3.9,1.362,19.173,19.173,0,0,1,3.247.607,3.431,3.431,0,0,1,1.026.655,1.22,1.22,0,0,1,.441.921,2.066,2.066,0,0,1-1.008,1.654,4.823,4.823,0,0,1-2.881.738,4.684,4.684,0,0,1-4.784-3.082h-1.1V548.2h.943c.419-.262.886-.528,1.414-.8a7.613,7.613,0,0,0,3.605.842,6.629,6.629,0,0,0,4.374-1.305,3.936,3.936,0,0,0,1.563-3.108A3.154,3.154,0,0,0,688.323,541.307Z" transform="translate(-659.72 -530.269)" fill="#b5b4b2" fill-rule="evenodd"/>
    <path id="Path_15" data-name="Path 15" d="M743.451,540.3l-.218,1.866c-.06.512-.1,1.23-.117,2.134l-.024,1.179a.546.546,0,0,1-.391.515l-2.347.689a.3.3,0,0,0-.216.289v.465a.3.3,0,0,0,.3.3h.616a.344.344,0,0,1,.343.343v3.935a.541.541,0,0,1-.541.541h-10.7v-5.106a.263.263,0,0,1,.239-.263.052.052,0,0,1,.016,0l1.155-.041a.265.265,0,0,0,.255-.26c.006-.3.008-.593.008-.866v-.168a.265.265,0,0,0-.258-.263l-1.157-.029a.264.264,0,0,1-.258-.265v-4.761a.264.264,0,0,1,.245-.263l1.99-.148a18.1,18.1,0,0,0,2.74-.336l1.37-.4.08-.012h.305a2.57,2.57,0,0,1,1.281.341h0a5.021,5.021,0,0,1,1.944-.341,5.22,5.22,0,0,1,1.315.171l1.82.463A.268.268,0,0,1,743.451,540.3Z" transform="translate(-689.381 -532.519)" fill="#b5b4b2" fill-rule="evenodd"/>
    <path id="Path_16" data-name="Path 16" d="M739.208,552.971c-.785-.017-1.443-.026-2.011-.026-.53,0-1.155.009-1.859.026l-2.088.045a.44.44,0,0,1-.45-.44v-2.357a.44.44,0,0,1,.424-.44l.791-.028h0a.44.44,0,0,0,.423-.427c.02-.657.029-1.266.029-1.817,0-.467,0-.836-.007-1.127a.438.438,0,0,0-.427-.431h-.009l-.8-.02a.44.44,0,0,1-.429-.44v-2.235a.44.44,0,0,1,.407-.439l.761-.056a19.806,19.806,0,0,0,2.957-.373l1.213-.353a.45.45,0,0,1,.123-.017h.117a1.408,1.408,0,0,1,.922.336.439.439,0,0,0,.5.062,2.715,2.715,0,0,1,.346-.164,4,4,0,0,1,1.458-.235,4.119,4.119,0,0,1,1.03.134l.7.178a.44.44,0,0,1,.328.477l-.083.714c-.064.546-.106,1.3-.123,2.244l-.012.61a.44.44,0,0,1-.32.415l-1.625.457a.44.44,0,0,1-.471-.16l-.337-.451a.527.527,0,0,0-.076-.086h0a1.787,1.787,0,0,0-.26-.017,1.013,1.013,0,0,0-.5.1l-.033.02c-.013.2-.029.579-.029,1.277,0,.6,0,1.044.011,1.378a.438.438,0,0,0,.417.43l.306.012.794.028a.44.44,0,0,1,.424.44v2.357a.44.44,0,0,1-.45.44Z" transform="translate(-690.868 -534.006)" fill="#272727" fill-rule="evenodd"/>
    <path id="Path_17" data-name="Path 17" d="M740.4,553.237c-.792-.018-1.456-.027-2.03-.027-.536,0-1.169.009-1.883.027l-1.6.035v-1.419l.337-.012a7.484,7.484,0,0,0,1.171-.084.074.074,0,0,0,.031-.023,2.408,2.408,0,0,0,.089-.746c.03-.839.045-1.614.045-2.3a20.454,20.454,0,0,0-.062-2.322.163.163,0,0,0-.017-.06,7.6,7.6,0,0,0-1.254-.087l-.341-.008V544.87l.323-.024a20.45,20.45,0,0,0,3.115-.4l1.178-.342h.05a.488.488,0,0,1,.5.516v.016l-.013.138c-.017.209-.029.477-.036.8.2-.176.418-.371.647-.59a3.192,3.192,0,0,1,1-.708,3.117,3.117,0,0,1,1.127-.172,3.222,3.222,0,0,1,.8.106l.3.076-.036.3c-.068.577-.111,1.362-.129,2.333l0,.259-.977.275-.144-.192a1.113,1.113,0,0,0-.421-.367,1.662,1.662,0,0,0-.645-.1,1.878,1.878,0,0,0-.958.224,1,1,0,0,0-.453.43,9.582,9.582,0,0,0-.067,1.658,19.521,19.521,0,0,0,.071,2.5l0,.017a.169.169,0,0,0,.027.078,6.383,6.383,0,0,0,1.513.141l.337.012v1.419Z" transform="translate(-692.045 -535.184)" fill="#b5b4b2" fill-rule="evenodd"/>
    <path id="Path_18" data-name="Path 18" d="M718.381,547.306v4.972H707.874a.542.542,0,0,1-.542-.541v-4.5a.368.368,0,0,1,.359-.367l1.053-.026a.367.367,0,0,0,.359-.364v-.273c0-.19,0-.375,0-.553a.367.367,0,0,0-.356-.36l-1.053-.029a.369.369,0,0,1-.357-.367v-4.588a.368.368,0,0,1,.347-.367l1.925-.112c.208-.013.411-.026.609-.042h0c.418-.036.808-.079,1.176-.135a12.649,12.649,0,0,0,1.255-.239q.376-.09.7-.2l.473-.161.457-.156a.365.365,0,0,1,.315.038l.119.076.824.526,1.21.772a.367.367,0,0,1,.168.343l-.112,1.24c-.1,1.042-.144,2.6-.144,4.617v0a.363.363,0,0,0,.342.362l.542.031.5.029A.368.368,0,0,1,718.381,547.306Z" transform="translate(-676.517 -532.24)" fill="#b5b4b2" fill-rule="evenodd"/>
    <path id="Path_19" data-name="Path 19" d="M717.422,552.861c-1.307-.035-2.333-.053-3.05-.053-.378,0-1.425.018-3.114.053l-.912.019a.367.367,0,0,1-.375-.367V550a.367.367,0,0,1,.358-.367l.872-.022.17,0a.364.364,0,0,0,.353-.352c.011-.333.019-.788.019-1.409,0-.521-.011-1-.032-1.435,0,0,0-.1-.007-.24a.368.368,0,0,0-.357-.357l-1.019-.03a.367.367,0,0,1-.357-.367v-2.382a.367.367,0,0,1,.346-.367l.842-.05a15.862,15.862,0,0,0,4.042-.675l.407-.138a.367.367,0,0,1,.316.038l1.094.7a.367.367,0,0,1,.168.343l-.049.542c-.1,1.077-.149,2.665-.149,4.721,0,.463,0,.821.01,1.1a.364.364,0,0,0,.341.357l.191.012.842.048a.367.367,0,0,1,.346.367v2.487a.368.368,0,0,1-.377.367Z" transform="translate(-678.004 -533.878)" fill="#272727" fill-rule="evenodd"/>
    <path id="Path_20" data-name="Path 20" d="M718.624,553.2c-1.322-.035-2.356-.053-3.074-.053-.385,0-1.439.018-3.132.053l-.357.007v-1.422l.34-.008a7.8,7.8,0,0,0,1.288-.088.648.648,0,0,0,.06-.221,19.045,19.045,0,0,0,.083-2.369c0-.532-.011-1.03-.033-1.48l-.031-1.036a1.366,1.366,0,0,0-.033-.355,2.272,2.272,0,0,0-.512-.053l-1.162-.034V544.8l.329-.019a16.7,16.7,0,0,0,4.281-.722l.159-.054.6.38-.019.212c-.1,1.106-.153,2.722-.153,4.8a16.362,16.362,0,0,0,.069,2.152.439.439,0,0,0,.033.1,10.78,10.78,0,0,0,1.3.118l.329.019v1.413Z" transform="translate(-679.181 -535.127)" fill="#b5b4b2" fill-rule="evenodd"/>
    <path id="Path_21" data-name="Path 21" d="M713.415,535.668a3.418,3.418,0,0,1-.536-1.581,2.606,2.606,0,0,1,1.029-2.071,3.31,3.31,0,0,1,4,0,2.611,2.611,0,0,1,1.033,2.073,4.578,4.578,0,0,1-.246,1.2Z" transform="translate(-679.642 -527.991)" fill="#b5b4b2" fill-rule="evenodd"/>
    <path id="Path_22" data-name="Path 22" d="M717.143,537.106a2.206,2.206,0,0,1-1.4-.47,1.631,1.631,0,0,1,0-2.63,2.352,2.352,0,0,1,2.814,0,1.63,1.63,0,0,1,0,2.629A2.221,2.221,0,0,1,717.143,537.106Z" transform="translate(-680.879 -529.229)" fill="#272727" fill-rule="evenodd"/>
    <path id="Path_23" data-name="Path 23" d="M719.015,535.443a1.518,1.518,0,0,0-.973-.319,1.534,1.534,0,0,0-.982.319,1.027,1.027,0,0,0-.388.6,1.19,1.19,0,0,0-.017.179.95.95,0,0,0,.406.768,1.475,1.475,0,0,0,.7.3,1.368,1.368,0,0,0,.14.017c.044,0,.092,0,.135,0a1.559,1.559,0,0,0,.982-.319c.018-.017.035-.031.052-.048a.912.912,0,0,0,.349-.72A.96.96,0,0,0,719.015,535.443Z" transform="translate(-681.77 -530.122)" fill="#b5b4b2" fill-rule="evenodd"/>
    <path id="Path_24" data-name="Path 24" d="M755.173,569.574" transform="translate(-703.475 -549.535)" fill="#fff" fill-rule="evenodd"/>
    <path id="Path_25" data-name="Path 25" d="M728.524,568.855h-21.21" transform="translate(-676.506 -549.13)" fill="none"/>
    <path id="Path_26" data-name="Path 26" d="M734.118,586.639l-.886-.855a1,1,0,0,0-.794-.275l-.118.013c-.559.052-1.715.078-3.54.078h-.471a8.087,8.087,0,0,0-1.89-.677,13.45,13.45,0,0,0-1.7-.227c-.323-.026-.655-.039-1-.048-.14,0-.284,0-.428,0s-.271,0-.415,0a10.165,10.165,0,0,0-5.4,1.41,5.75,5.75,0,0,0-1.619,1.549,4.493,4.493,0,0,0-.777,2.58,4.386,4.386,0,0,0,.777,2.58,4.414,4.414,0,0,0,1.257,1.187,3.385,3.385,0,0,0-1.462,2.575,2.713,2.713,0,0,0,.323,1.248l.035.061c.026.039.048.079.074.113a3.017,3.017,0,0,0-.816.589,3.169,3.169,0,0,0-.506.711,3.273,3.273,0,0,0-.314.912,3.743,3.743,0,0,0-.065.707,4.114,4.114,0,0,0,2.4,3.614,12.421,12.421,0,0,0,5.932,1.148h.214a12.85,12.85,0,0,0,7.154-1.886,6.075,6.075,0,0,0,3.021-5.164,4.18,4.18,0,0,0-.72-2.479,3.8,3.8,0,0,0-1.816-1.384,9.7,9.7,0,0,0-3.082-.336h-.5c.314-.131.615-.275.912-.432a4.839,4.839,0,0,0,2.693-4.312h1.759l.375-.55a12.4,12.4,0,0,1,.925-1.222l.493-.554A.489.489,0,0,0,734.118,586.639Zm-7.407,14.216a2.505,2.505,0,0,1-1.157.711,7.022,7.022,0,0,1-2.344.332h-.271a5.122,5.122,0,0,1-2.488-.537c-.5-.314-.567-.594-.567-.829a.544.544,0,0,1,.122-.371,4.361,4.361,0,0,1,1.056-.781h2.361a28.192,28.192,0,0,1,3.213.087.983.983,0,0,1,.205.061.785.785,0,0,1,.17.537A1.161,1.161,0,0,1,726.711,600.855ZM721.6,589.406a.858.858,0,0,1,.271-.746,1.53,1.53,0,0,1,1.039-.292,1.64,1.64,0,0,1,.812.17,1.212,1.212,0,0,1,.183.144,1.971,1.971,0,0,1,.314,1.349c0,.79-.2,1.074-.284,1.157a.7.7,0,0,1-.214.153,1.618,1.618,0,0,1-.72.135h-.065a1.294,1.294,0,0,1-.982-.345C721.874,591.043,721.6,590.655,721.6,589.406Z" transform="translate(-680.49 -558.027)" fill="#272727" fill-rule="evenodd"/>
    <path id="Path_27" data-name="Path 27" d="M733.144,589.755a13.7,13.7,0,0,1,1-1.314l.223-.253-.62-.6-.162.013c-.585.057-1.772.087-3.627.087-.223,0-.454,0-.694,0a7.259,7.259,0,0,0-1.851-.69,11.552,11.552,0,0,0-1.515-.205q-.478-.039-1-.052c-.14,0-.284,0-.428,0s-.262,0-.393,0A9.325,9.325,0,0,0,719.159,588a3.927,3.927,0,0,0-1.986,3.37,3.416,3.416,0,0,0,.882,2.392,4.963,4.963,0,0,0,1.995,1.222c-.061.039-.118.079-.179.118-.947.659-2.126,1.475-2.126,2.61a1.77,1.77,0,0,0,.205.8l.009.013.009.013a1.4,1.4,0,0,0,.332.371,2.443,2.443,0,0,0,.777.358l-.144.07a5.973,5.973,0,0,0-1.816,1.008,2.422,2.422,0,0,0-.642,1.707,3.217,3.217,0,0,0,1.929,2.82,11.591,11.591,0,0,0,5.487,1.03h.205a11.934,11.934,0,0,0,6.652-1.728,5.213,5.213,0,0,0,2.619-4.409,3.264,3.264,0,0,0-.55-1.942,2.849,2.849,0,0,0-1.379-1.061,9.191,9.191,0,0,0-2.776-.284c-1.96,0-3.492-.009-4.566-.022-1.235-.013-1.58-.039-1.685-.052-.332-.039-.725-.131-.725-.362a.261.261,0,0,1,.083-.192,3.138,3.138,0,0,1,.733-.419c.533.03.93.044,1.2.044.135,0,.271,0,.4,0a10.014,10.014,0,0,0,4.535-1.139,3.935,3.935,0,0,0,2.222-3.662,3.189,3.189,0,0,0-.1-.759h2.287Zm-11.157,9.9H724.6a27.665,27.665,0,0,1,3.383.1,1.27,1.27,0,0,1,.738.375,1.66,1.66,0,0,1,.38,1.117,2.064,2.064,0,0,1-.5,1.358,3.385,3.385,0,0,1-1.563,1,7.95,7.95,0,0,1-2.654.384H724.1a5.917,5.917,0,0,1-2.955-.677,1.829,1.829,0,0,1-.991-1.6,1.439,1.439,0,0,1,.314-.934A5.911,5.911,0,0,1,721.987,599.65Zm3.911-6.8a1.6,1.6,0,0,1-.135.157,1.768,1.768,0,0,1-.86.471,2.8,2.8,0,0,1-.716.083H724.1a2.172,2.172,0,0,1-1.637-.637,3.509,3.509,0,0,1-.594-2.344,1.774,1.774,0,0,1,.581-1.432,2.4,2.4,0,0,1,1.641-.519,2.908,2.908,0,0,1,.812.1,1.749,1.749,0,0,1,.834.489,1.023,1.023,0,0,1,.161.2,3.174,3.174,0,0,1,.415,1.785A2.775,2.775,0,0,1,725.9,592.854Z" transform="translate(-681.668 -559.205)" fill="#b5b4b2" fill-rule="evenodd"/>
  </g>
</svg>
