<?xml version="1.0" standalone="no"?>
<!DOCTYPE svg PUBLIC "-//W3C//DTD SVG 20010904//EN"
 "http://www.w3.org/TR/2001/REC-SVG-20010904/DTD/svg10.dtd">
<svg version="1.0" xmlns="http://www.w3.org/2000/svg"
 width="424.000000pt" height="245.000000pt" viewBox="0 0 424.000000 245.000000"
 preserveAspectRatio="xMidYMid meet">

<g transform="translate(0.000000,245.000000) scale(0.100000,-0.100000)"
fill="#000000" stroke="none">
<path d="M3342 2432 c-28 -28 -122 -196 -163 -292 l-37 -85 -199 -1 c-109 0
-206 -3 -216 -7 -26 -10 -23 -65 4 -75 23 -9 115 0 254 24 50 8 104 18 120 21
l31 5 0 -74 c0 -125 55 -215 150 -244 57 -19 76 -14 56 14 -7 9 -27 46 -45 82
-29 59 -32 74 -32 155 0 80 3 97 32 158 40 83 55 85 118 15 74 -82 106 -162
117 -292 2 -19 10 -32 25 -37 37 -14 53 13 53 87 l0 64 51 -25 c109 -56 170
-137 208 -278 12 -44 28 -91 35 -105 22 -43 77 -89 131 -112 66 -28 95 -56 95
-92 0 -51 -27 -88 -83 -113 -107 -49 -381 -82 -525 -65 -167 21 -317 -25 -412
-126 -58 -61 -85 -119 -99 -207 -6 -34 -12 -208 -15 -386 -5 -346 -8 -361 -54
-347 -28 9 -30 19 -38 168 -3 73 -19 211 -35 306 -41 239 -71 312 -129 312
-31 0 -50 -17 -50 -45 0 -11 18 -96 40 -190 22 -93 52 -264 67 -379 l28 -209
53 -25 c47 -21 64 -24 130 -20 62 4 79 9 93 27 18 21 17 24 -4 74 -20 47 -22
68 -21 227 0 193 29 419 64 513 36 96 141 174 264 196 33 6 108 11 167 11 209
0 412 35 520 91 54 27 114 83 129 119 18 44 8 125 -20 155 -12 13 -60 45 -107
71 -110 62 -136 93 -169 201 -23 78 -63 151 -86 161 -16 7 -7 22 41 67 29 27
58 67 71 97 20 46 22 64 17 158 -5 117 -26 185 -70 233 -25 27 -29 28 -50 14
-14 -9 -28 -35 -38 -74 -22 -79 -39 -111 -99 -179 -29 -33 -55 -74 -61 -98 -6
-23 -13 -47 -15 -53 -2 -7 -12 -13 -22 -13 -13 0 -25 17 -42 57 -13 31 -43 86
-68 121 -50 74 -66 114 -77 190 -6 44 -11 55 -32 63 -32 12 -30 12 -51 -9z
m562 -204 c14 -79 -33 -225 -91 -280 l-28 -27 -48 29 c-26 17 -47 36 -47 43 0
36 57 127 122 193 39 41 75 74 79 74 4 0 9 -15 13 -32z"/>
<path d="M1034 2285 c-110 -24 -184 -74 -229 -157 -45 -81 -41 -170 13 -270 1
-3 -6 -9 -18 -13 -20 -6 -20 -12 -18 -188 l3 -182 95 2 c52 1 109 3 125 3 17
1 75 -2 129 -6 153 -10 243 16 332 98 l44 41 0 -66 c0 -36 4 -68 10 -72 5 -3
235 -6 511 -6 397 0 504 3 511 13 10 16 10 189 0 204 -4 7 -16 13 -27 15 -13
3 -20 12 -20 28 0 21 9 27 65 45 l65 21 7 105 c3 58 8 121 10 140 l3 34 -63
18 c-47 12 -93 16 -185 14 -67 -2 -130 -7 -140 -11 -9 -4 -70 -12 -135 -19
l-117 -11 -3 -127 -3 -127 38 -3 c36 -3 38 -5 38 -38 l0 -35 -50 0 -50 0 0
154 -1 154 -28 22 c-24 19 -28 29 -29 83 -2 44 -7 66 -22 82 -63 71 -199 63
-246 -14 -21 -34 -25 -87 -9 -116 12 -22 -1 -27 -82 -32 l-47 -3 -7 98 c-4 64
-12 103 -21 113 -17 16 -101 19 -153 4 -25 -7 -54 -6 -107 5 -85 18 -108 18
-189 0z m221 -60 c32 -9 54 -11 66 -5 10 6 43 10 73 10 l56 0 0 -38 c0 -22 3
-80 6 -130 l7 -92 -32 0 -33 0 31 -25 c68 -58 93 -143 68 -227 -36 -116 -142
-187 -294 -195 -63 -4 -106 -1 -151 11 -56 14 -66 14 -92 1 -16 -8 -52 -15
-80 -15 l-50 0 0 135 0 135 68 0 68 0 18 -40 c24 -54 66 -86 129 -100 116 -24
248 47 168 90 -10 5 -73 18 -140 29 -148 25 -208 50 -260 107 -47 50 -55 74
-49 153 3 45 11 68 32 95 32 42 88 82 143 102 51 18 188 18 248 -1z m575 0
c58 -30 67 -90 21 -136 -24 -24 -38 -29 -76 -29 -106 0 -143 119 -51 164 39
20 69 20 106 1z m60 -185 c25 -19 25 -20 25 -187 l0 -168 30 -3 c17 -2 36 -8
43 -14 12 -10 17 -113 7 -140 -4 -10 -50 -13 -218 -12 l-212 0 -3 68 c-3 77 5
93 51 98 l32 3 3 73 c3 80 -6 102 -42 102 -12 0 -27 5 -34 12 -16 16 -16 123
1 136 6 5 46 13 87 17 41 4 95 13 120 20 64 18 82 17 110 -5z m505 9 c17 0 57
2 90 3 33 1 70 -4 82 -10 20 -11 21 -18 16 -94 -2 -46 -6 -93 -9 -105 -7 -36
-118 -61 -130 -28 -4 8 -15 15 -25 15 -17 0 -19 -8 -19 -74 l0 -75 43 -3 42
-3 0 -80 0 -79 -215 0 -215 -1 0 80 0 80 38 3 38 3 -3 87 -3 87 -35 5 -35 5 0
75 0 75 80 8 c44 4 102 14 130 22 27 8 61 11 75 8 14 -3 39 -5 55 -4z m-801
-262 c8 -12 8 -22 0 -34 -21 -33 -34 -26 -34 17 0 43 13 50 34 17z m-394 -81
c8 -2 -10 -4 -41 -5 -33 -1 -63 5 -74 13 -16 12 -11 12 41 5 32 -5 66 -11 74
-13z"/>
<path d="M1069 2190 c-145 -25 -228 -136 -181 -243 31 -71 103 -106 276 -133
55 -9 118 -25 138 -35 64 -33 64 -98 1 -146 -34 -26 -42 -28 -139 -28 -98 0
-104 1 -146 30 -23 17 -53 50 -66 73 -18 31 -30 42 -48 42 -24 0 -24 -1 -24
-90 0 -87 1 -90 23 -90 12 1 37 9 55 19 32 17 36 17 90 -2 82 -27 217 -21 287
14 120 61 160 197 83 284 -37 43 -107 69 -254 95 -143 25 -181 40 -190 74 -15
62 55 110 158 109 89 0 150 -30 192 -95 24 -37 37 -47 59 -47 25 -1 27 2 27
42 0 23 -3 59 -6 80 -6 30 -11 37 -30 37 -13 0 -34 -5 -48 -11 -18 -9 -35 -8
-72 4 -66 21 -129 27 -185 17z"/>
<path d="M1061 2102 c-70 -35 -51 -46 126 -77 51 -8 100 -18 108 -21 26 -10
16 14 -22 54 -57 60 -146 78 -212 44z m147 -32 c37 -23 41 -32 10 -26 -13 3
-49 10 -81 16 -31 6 -55 16 -52 21 11 16 89 10 123 -11z"/>
<path d="M1732 2184 c-47 -33 -15 -88 51 -86 36 1 57 18 57 47 0 48 -63 71
-108 39z"/>
<path d="M1770 1994 c-36 -7 -86 -16 -112 -19 -45 -6 -48 -8 -48 -35 0 -26 4
-29 37 -32 33 -3 39 -7 44 -33 9 -41 10 -175 3 -214 -6 -28 -10 -31 -45 -31
-38 0 -39 -1 -39 -35 l0 -35 170 0 170 0 0 34 c0 33 -2 35 -37 38 -50 4 -55
27 -47 212 5 121 4 150 -7 157 -8 5 -16 8 -19 8 -3 -1 -34 -8 -70 -15z"/>
<path d="M2270 1995 c-25 -8 -59 -14 -76 -14 -17 -1 -46 -4 -63 -7 -26 -5 -31
-11 -31 -34 0 -24 5 -28 40 -34 l41 -6 -3 -133 -3 -132 -37 -3 c-36 -3 -38 -5
-38 -38 l0 -34 175 0 175 0 0 35 c0 33 -2 35 -34 35 -65 0 -66 2 -66 116 0 95
2 104 22 118 29 21 67 20 89 0 12 -11 27 -14 43 -10 22 5 25 11 28 73 2 38 -1
71 -7 75 -31 23 -112 1 -150 -42 l-20 -22 -5 33 c-6 39 -16 42 -80 24z"/>
<path d="M3667 1683 c-11 -10 -8 -81 3 -88 17 -11 40 15 40 44 0 36 -25 62
-43 44z"/>
<path d="M4 1427 c-2 -7 -3 -62 -2 -123 l3 -109 60 -5 60 -5 0 -265 0 -265
-50 -5 c-27 -3 -56 -9 -63 -13 -13 -9 -18 -190 -6 -221 5 -14 46 -16 349 -16
303 0 344 2 349 16 3 9 6 58 6 109 0 114 -7 125 -86 125 -63 0 -66 4 -68 87
l-1 55 75 3 c141 7 277 61 345 136 l34 38 3 -47 3 -47 53 -3 c47 -3 54 -6 63
-29 5 -15 9 -58 7 -97 l-3 -71 -53 -5 c-31 -3 -57 -12 -62 -20 -6 -8 -10 -67
-10 -131 0 -92 3 -119 15 -129 11 -10 62 -12 198 -9 262 5 389 1 382 -11 -4
-6 -1 -35 5 -64 21 -104 99 -176 235 -219 60 -19 92 -22 220 -21 171 0 239 14
347 71 136 71 218 193 218 326 0 108 -65 207 -154 237 l-36 12 19 26 c10 15
24 44 32 65 10 29 18 37 37 37 24 0 43 17 125 113 63 74 62 92 -10 156 l-58
51 -105 -6 c-92 -5 -113 -4 -170 16 -90 30 -258 38 -360 16 -143 -31 -231 -90
-281 -191 -29 -60 -31 -71 -27 -140 4 -61 11 -84 35 -123 24 -38 28 -52 20
-70 -10 -22 -27 -30 -27 -13 0 5 -25 12 -57 16 l-56 7 6 229 6 229 -35 26
c-33 25 -34 30 -29 69 7 44 -11 103 -43 139 -42 47 -153 70 -219 45 -91 -34
-136 -136 -99 -224 l15 -35 -43 0 -43 0 -6 45 c-17 120 -102 200 -246 231 -93
19 -809 21 -817 1z m821 -51 c130 -37 189 -108 188 -228 0 -84 -37 -155 -109
-211 -86 -65 -141 -82 -281 -82 l-123 0 0 -116 c0 -83 4 -120 13 -127 7 -6 40
-12 72 -14 l60 -3 0 -70 0 -70 -293 -1 -293 -2 3 72 3 71 55 5 55 5 7 161 c4
88 4 230 0 315 l-7 154 -55 5 -55 5 -3 59 c-2 32 -1 64 1 70 5 13 715 15 762
2z m558 -22 c47 -24 67 -53 67 -101 0 -53 -36 -98 -90 -113 -88 -24 -180 34
-180 112 0 86 117 145 203 102z m101 -228 l30 -23 -3 -236 c-2 -159 1 -237 8
-241 6 -4 30 -10 53 -14 l43 -8 0 -83 0 -83 -265 1 c-146 0 -269 1 -273 1 -4
0 -7 37 -5 83 l3 82 45 5 c25 3 51 9 58 13 17 12 17 270 -1 285 -7 6 -33 12
-57 14 l-45 3 0 80 0 79 35 7 c19 4 78 12 130 18 52 6 113 17 135 25 56 21 76
19 109 -8z m808 -7 c43 -14 86 -19 171 -19 111 0 114 -1 140 -28 15 -15 27
-35 27 -44 0 -9 -18 -38 -40 -64 -22 -27 -40 -52 -40 -56 0 -4 -21 -8 -47 -10
l-48 -3 -7 -44 c-10 -59 -49 -116 -103 -150 l-44 -28 68 -6 c79 -7 140 -34
169 -74 50 -72 53 -171 9 -260 -80 -158 -305 -241 -576 -214 -150 16 -241 59
-287 136 -44 75 -26 188 35 227 16 9 17 16 9 31 -17 32 -3 103 27 143 25 32
26 38 12 46 -27 15 -66 91 -73 141 -9 64 11 129 56 180 60 68 140 103 275 121
60 8 211 -6 267 -25z"/>
<path d="M100 1317 c0 -21 6 -25 57 -33 57 -9 57 -9 66 -49 12 -59 4 -652 -9
-665 -6 -6 -34 -13 -62 -17 -46 -5 -52 -8 -52 -29 l0 -24 255 0 255 0 0 24 c0
21 -5 24 -67 29 -37 4 -71 11 -77 17 -13 13 -16 684 -3 697 17 16 160 8 201
-12 73 -35 103 -128 68 -207 -27 -62 -75 -90 -155 -92 -47 -2 -63 -6 -65 -17
-5 -30 26 -42 106 -42 218 0 371 129 347 292 -5 35 -16 54 -44 81 -64 61 -79
63 -468 67 l-353 4 0 -24z"/>
<path d="M508 1224 c-5 -4 -8 -54 -8 -110 l0 -103 44 -6 c84 -13 144 23 153
92 6 48 -9 87 -41 108 -27 18 -136 32 -148 19z m128 -64 c1 0 5 -11 8 -25 8
-32 -8 -63 -40 -75 -40 -16 -54 -3 -54 49 0 59 12 72 53 60 18 -5 33 -9 33 -9z"/>
<path d="M1256 1299 c-31 -25 -34 -61 -6 -89 41 -41 107 -36 142 11 51 68 -65
134 -136 78z"/>
<path d="M1401 1089 c-31 -12 -196 -39 -243 -39 -38 0 -38 0 -38 -40 l0 -40
43 0 c23 0 48 -4 55 -8 16 -10 27 -276 15 -342 l-8 -45 -53 -3 -52 -3 0 -42 0
-43 230 1 230 0 0 42 0 42 -57 3 -58 3 -1 253 c0 210 -3 255 -15 263 -17 10
-17 10 -48 -2z"/>
<path d="M1964 1086 c-183 -42 -267 -166 -201 -296 15 -31 35 -52 65 -69 l44
-23 -51 -47 c-44 -41 -51 -52 -51 -85 0 -27 7 -43 26 -61 l26 -24 -39 -20
c-47 -23 -61 -39 -73 -80 -12 -44 6 -100 47 -138 56 -53 152 -78 303 -78 138
0 202 12 297 56 138 65 209 212 155 319 -34 68 -59 74 -314 80 -124 3 -230 8
-234 12 -20 20 21 35 109 41 124 7 218 39 273 92 44 42 70 106 61 152 -4 22
-1 23 48 23 50 0 54 2 89 44 50 62 36 72 -98 68 -83 -3 -112 1 -161 19 -77 27
-234 35 -321 15z m182 -101 c44 -28 54 -126 18 -182 -29 -46 -128 -48 -169 -3
-23 26 -33 127 -15 159 25 48 112 62 166 26z m153 -539 c51 -46 13 -137 -71
-171 -64 -25 -210 -24 -270 3 -89 39 -97 110 -20 167 37 26 38 26 188 23 133
-3 155 -5 173 -22z"/>
<path d="M2038 949 c-26 -15 -25 -92 2 -119 41 -41 100 -9 100 55 0 59 -54 93
-102 64z m39 -71 c-3 -7 -5 -2 -5 12 0 14 2 19 5 13 2 -7 2 -19 0 -25z"/>
<path d="M1957 396 c-15 -14 -27 -29 -27 -34 0 -41 126 -72 222 -54 78 14 113
39 113 78 l0 29 -141 3 c-138 2 -141 2 -167 -22z m170 -33 c-20 -2 -52 -2 -70
0 -17 2 0 4 38 4 39 0 53 -2 32 -4z"/>
</g>
</svg>
