<svg xmlns="http://www.w3.org/2000/svg" width="302.293" height="48.499" viewBox="0 0 302.293 48.499">
  <g id="Group_329" data-name="Group 329" transform="translate(247.946 2633.844)">
    <path id="Path_168" data-name="Path 168" d="M628.516,723.04c.011-.039,0-.1.092-.074-.014-.069-.028-.127-.039-.185a.16.16,0,0,1-.007-.056,2.21,2.21,0,0,1,.092-.271c.016-.035.072-.056.109-.081a.1.1,0,0,0,.042-.028l-.035-.014c-.06.021-.065-.018-.053-.053.032-.095.072-.187.106-.28a.587.587,0,0,0,.009-.062l.023-.088.018,0a.948.948,0,0,0,.03.116.107.107,0,0,0,.021.039.145.145,0,0,0,.016-.039c-.007-.042-.023-.083-.028-.127a.6.6,0,0,1,0-.146c.018-.074.049-.148.074-.224.007-.021.021-.039.03-.06l.021,0a.487.487,0,0,1,0,.06c-.012.051-.025.1-.037.146s.018.072.067.065a.344.344,0,0,1,.069,0c0-.086-.053-.169.009-.25a.679.679,0,0,1-.09-.069.066.066,0,0,1-.007-.055c.019-.069.044-.139.065-.206A.215.215,0,0,0,629,720.9a.642.642,0,0,1-.294-.2.119.119,0,0,1-.007-.1c0-.016.051-.028.079-.023.072.009.074.009.065-.067.083-.044.143-.1.081-.217l.058.016c.033-.1.033-.123,0-.174.09-.014-.007-.148.123-.153-.007.053-.014.1-.021.15l-.025.155.109.107-.007.1.016,0,.037-.058c.044.023.088.042.088.106,0,.046.037.095,0,.143l.009.021.03,0c.007-.009.018-.023.016-.032-.021-.09.058-.146.076-.222a.313.313,0,0,1,.058-.072l-.187.007c.042-.03.083-.046.09-.072.018-.062.076-.109.079-.18,0-.039.014-.072-.037-.095a.085.085,0,0,1-.042-.118c.037-.09.032-.1-.053-.16l-.076.009.012-.1-.06-.093c-.053.039-.06.095-.028.173a.211.211,0,0,1,.018.086c0,.039.012.09-.051.095-.095.007-.111-.007-.127-.088a.552.552,0,0,0-.035-.086l-.023,0a.407.407,0,0,0,.014.081c.028.056-.03.06-.049.086-.007.009-.042,0-.072-.016.157-.044.014-.109.025-.164l.06-.014-.069-.069a.579.579,0,0,0-.088.107.36.36,0,0,0-.021.116l-.03.007c.06.076.118.155.185.25l-.037.1c-.012.03-.037.065-.032.092.021.081-.046.118-.079.171-.014.025-.044.025-.049-.009-.009-.067-.053-.132.014-.2a.131.131,0,0,0,.028-.086c0-.018-.021-.039-.037-.055s-.039-.03-.065-.049l-.03.009c-.021-.086.079-.058.1-.113-.062,0-.12,0-.176.009-.007,0-.021.033-.016.046.007.042.028.086-.025.113l0,.012a1.224,1.224,0,0,0-.03.2c0,.049.009.109.088.109.014,0,.032.03.044.049l-.028.037-.046-.039a.444.444,0,0,1-.074-.035c-.347-.282-.689-.564-1.034-.846a1.43,1.43,0,0,1-.141-.118.6.6,0,0,1-.067-.109c-.072.039-.111-.039-.166-.083s-.113-.088-.169-.134a.5.5,0,0,1-.058-.06l.213,0a.3.3,0,0,0,.046,0c.088,0,.111.021.118.111,0,.016.009.039.018.044a.043.043,0,0,0,.046-.009c.009-.012,0-.032,0-.051a.248.248,0,0,1,0-.083l.055-.009a.244.244,0,0,1,.035.088.26.26,0,0,1,0,.06l.028.007a.3.3,0,0,0,.021-.06c.009-.076.028-.095.1-.095a1.062,1.062,0,0,1,.171,0c.026,0,.046.035.062.065h.012c.1-.1.229-.055.347-.06a.718.718,0,0,1,.157,0,1.239,1.239,0,0,1,.127.03c.035.007.069.007.111.012,0-.037.039-.042.083-.042.16,0,.317,0,.476.009.053,0,.092,0,.1-.042.116.023.225.042.329.063a.687.687,0,0,0-.042.074l.016.037c.012-.007.028-.012.035-.021.065-.1.1-.106.185-.035a.26.26,0,0,0,.086.049c.009,0,.03-.014.039-.028a.372.372,0,0,0,.032-.06.41.41,0,0,1,.012-.106c.056-.15.127-.294.169-.449.028-.1.086-.178.113-.275s.074-.187.109-.28c.086-.22.167-.442.252-.661a.235.235,0,0,1,.023-.051l.044.032.009-.016a.908.908,0,0,1,.023-.21c.009-.035.058-.058.095-.093l-.049,0c.007-.06.016-.116.072-.143.018-.007.051.012.083.018,0-.055-.042-.051-.083-.049a.068.068,0,0,1,.044-.088c.072-.028.076-.044.042-.113a.073.073,0,0,1-.009-.035l.109-.264a.311.311,0,0,1,.039.067c.023.07.042.141.065.213a.221.221,0,0,1,0,.208.046.046,0,0,0,0,.03c.014.095.034.187.044.28a1.8,1.8,0,0,1,0,.224.059.059,0,0,1-.021.039c-.083.007-.074.086-.1.134s-.06.062-.12.025l.083-.081-.016,0,.014-.095-.086.018.018.09c-.058-.014-.081-.069-.049-.109s.018-.065,0-.1l-.088.081c.016.039.035.083.058.136a.857.857,0,0,0-.118.224c-.018.086-.049.169-.072.25a.271.271,0,0,0,0,.171.291.291,0,0,1,.025.241l0,.028c.076-.051.15-.1.22-.15.016-.014.025-.067.016-.074-.055-.044-.023-.069.016-.095-.021-.014-.039-.021-.049-.035a.185.185,0,0,1-.009-.062.148.148,0,0,1,.056,0,.069.069,0,0,0,.1-.042.367.367,0,0,0-.088,0c-.044.009-.072.007-.069-.051,0,0-.025-.014-.039-.018s-.049,0-.067,0c.019-.06.028-.113.049-.162s.037-.079.069-.093a.328.328,0,0,1,.125,0l.072-.09c.025.032.021.109.09.062a.139.139,0,0,1,.141-.178.074.074,0,0,1,.039.023c.037.111.072.224.109.34-.116.016-.069.118-.118.187l.109.014c-.046-.109-.046-.109.037-.136l.012-.1c.06.055.06.095.025.129l.039.247.067-.046.021.016-.037.058c-.012.016-.028.039-.026.053.093.3.188.6.278.895a.1.1,0,0,0,.1.072c.192.007.384.018.578.028.044,0,.09.016.125-.032,0-.007.032,0,.046,0s.053.037.081.039c.416.025.833.051,1.249.074l.715.035.109.012c-.03.028-.042.044-.06.058-.153.109-.308.215-.46.326a.221.221,0,0,0-.051.069c-.021.035-.028.074-.086.044-.037-.018-.039.014-.035.044s.009.053,0,.058a.09.09,0,0,1-.072.012.094.094,0,0,0-.109.016q-.559.4-1.119.793c-.13.093-.259.187-.389.277a.071.071,0,0,0-.035.093c.081.307.16.618.238.925l.012.039.021-.014.055-.032c0,.028.007.06-.007.081s-.058.062-.065.09a.383.383,0,0,1,.051.095l.388,1.526.023.1-.016.009-.187-.136c-.15-.113-.3-.222-.444-.345-.053-.044-.072-.129-.164-.118-.13-.1-.261-.192-.384-.3-.1-.086-.208-.148-.308-.227s-.2-.157-.308-.234a.126.126,0,0,0-.051-.016c-.062-.053-.111-.1-.167-.146s-.058-.039-.046-.09a.691.691,0,0,0-.132-.046.134.134,0,0,1-.127-.086c-.007-.014-.055-.016-.072-.007-.069.037-.134.083-.2.125l-.055.037-.056-.153c-.062.025-.069.051-.018.095a.07.07,0,0,1-.009.111c-.069.042-.15.074-.187.155,0,.009-.037.007-.058.009l-.021.074-.065-.032c-.127.083-.261.169-.4.254-.033.021-.063.042-.095.06a.254.254,0,0,1-.06,0,.533.533,0,0,1,0-.06c0-.035.012-.07.014-.1a.061.061,0,0,0-.021-.044c-.03-.021-.025-.039,0-.06.044-.039.053-.076,0-.12-.032-.03-.056-.067,0-.1.012-.007.009-.028.014-.041a.249.249,0,0,0-.042,0l-.021.012c-.035.058-.06.051-.1,0-.014-.014-.072.009-.106.016-.033-.028-.067-.058-.1-.086l0-.018c.063.009.125.016.187.023a.366.366,0,0,1,.014-.055.235.235,0,0,1,.035-.053c-.012-.049-.018-.1-.032-.146s-.037-.06-.049-.092a1.017,1.017,0,0,1-.051-.194c0-.065.016-.134-.037-.2l-.067.019a.18.18,0,0,1,.014.053c0,.012-.007.026-.009.037-.009-.009-.028-.016-.028-.028,0-.042-.023-.053-.07-.046l.037.111.106.009,0,.021a.525.525,0,0,1-.088.042c-.067.016-.086.053-.06.12s.055.148.081.222v.018a1,1,0,0,1-.208-.018c-.018,0-.028-.051-.044-.09-.014.014-.035.025-.037.044a.072.072,0,0,0,.019.055c.051.044.03.1.023.15a.665.665,0,0,0,0,.069c0,.035,0,.07.007.1s0,.069.019.09c.069.076.072.074.062.155.049,0,.044,0,.039-.044,0-.018.012-.037.018-.055l.021.042c.046.088.014.125-.079.125l-.026.035.081-.014a1.723,1.723,0,0,1,.007.213c0,.018-.028.035-.049.055l.032.014a.349.349,0,0,0,.088-.021.117.117,0,0,0,.044-.055c.014-.046.018-.1.072-.12l.042-.009c.028.039.069.079.074.12,0,.067-.062.09-.113.116-.014,0-.042-.009-.049,0a.645.645,0,0,1-.093.1,2.076,2.076,0,0,1-.2.111c-.014.007-.035,0-.051,0l.044-.046,0-.016c.019-.055.037-.111-.062-.086a.16.16,0,0,1-.025-.083c.035-.123-.032-.206-.157-.19a.6.6,0,0,1-.065,0Zm1.193-1.49-.018-.014c.018-.049.023-.116.058-.141s.049-.037.009-.074c-.021-.014-.021-.053-.021-.081,0-.009.035-.025.051-.023a.116.116,0,0,1,.067.042c.025.06.042.125.06.183.116-.014.109-.086.1-.162l-.111-.067.056-.15.018,0-.007.086c.021.018.037.044.06.053a.142.142,0,0,0,.07,0,.054.054,0,0,0,.007-.042c-.012-.058-.025-.111-.037-.169a.031.031,0,0,1,.012-.03c.076-.076.018-.164.025-.247,0-.039,0-.095.028-.116a.113.113,0,0,1,.146-.026c-.032.035-.039.095-.109.06l-.009.07c.035-.009.065-.028.086-.021s.032.037.049.063l.049-.028c.007.028.009.046.016.067a.194.194,0,0,0,.035.065c.007.007.039,0,.053-.014l0-.044c-.067-.016-.067-.088-.109-.125s-.039-.07.016-.09a.2.2,0,0,0,.042-.023l-.044-.007-.046-.018c.009-.019.021-.051.032-.051.083-.007.046-.088.088-.123-.058.039-.086.016-.1-.028-.06.032-.106,0-.164-.023l.018.063-.067.058.035.056c.018.028.016.051-.016.06-.058.016-.069.053-.062.106a.237.237,0,0,1,0,.07c-.093-.03-.1-.025-.187.113.009.007.025.014.028.023a.569.569,0,0,1,.012.139c0,.014-.044.028-.069.037a.658.658,0,0,1-.095.018c-.014-.016-.039-.053-.055-.051-.067.011-.055-.03-.058-.067a.306.306,0,0,0,0-.079c0-.009-.025-.014-.042-.021a.728.728,0,0,0-.018.1c0,.014.018.033.018.044-.014.058-.007.125-.062.167l-.018.032c.023.072-.028.081-.065.088-.007.035,0,.067-.023.086-.03.037-.053.069-.016.113-.074.069-.074.069-.162-.021l.007.2a.121.121,0,0,0-.028.079c.009.049.028.1.037.148s-.032.109.062.136c.069.021.123.093.2.153a.724.724,0,0,1,0-.074c0-.016,0-.046.012-.053.062-.03.058-.074.025-.127l.058-.032-.028-.042c.079,0,.051-.051.037-.09s-.039-.093.032-.111l-.018-.058.06-.016m.315-1.852-.014-.012a.362.362,0,0,1,.069-.076c.035-.023.058-.042.044-.088s-.019-.088-.028-.13l-.014-.032-.028,0a.043.043,0,0,0,0,.037.135.135,0,0,1-.016.141c-.009.018-.035.028-.051.044-.016-.023-.046-.046-.049-.069a1.681,1.681,0,0,1,.012-.18l.028,0a.136.136,0,0,0,.157-.169.129.129,0,0,1,0-.044l.016-.014.035.062c.007-.058.058-.113-.037-.122-.009,0-.021-.026-.025-.042a.29.29,0,0,1-.016-.065l-.018,0-.023.053c-.007.021-.009.049-.023.058-.032.023-.025.044-.016.074a.115.115,0,0,1-.132.157c-.014,0-.042.007-.044.014-.007.1-.079.055-.132.062-.032,0-.088.035-.09.058a1.13,1.13,0,0,0,.019.213.188.188,0,0,0,.025.053l.049-.033,0,.051c.095-.012.093-.012.1-.1,0-.012.007-.028.016-.03l.032.012c.063.049.063.058.035.155l.125-.037m.587-.014c.074-.021.074-.021.088.046a.054.054,0,0,0,.03.025c.035,0,.1-.086.1-.125l-.058.014c-.009-.042-.019-.074-.023-.109a.09.09,0,0,1,.007-.049c.056-.009.072-.053.092-.1l.021-.014c.056.023.132-.042.18.046a.117.117,0,0,0,.009-.072c-.007-.026-.03-.046-.035-.069a.279.279,0,0,1,.009-.106c0-.007.042,0,.062-.009a.047.047,0,0,0,.03-.026c.014-.018.018-.044.035-.058s.06-.042.086-.067a.157.157,0,0,0,.023-.06c-.018,0-.046-.007-.058,0a.515.515,0,0,0-.083.09l-.058.069c-.025-.021-.049-.049-.062-.046-.044.016-.07-.007-.1-.03a.171.171,0,0,0-.062-.019.529.529,0,0,1,0,.058c0,.025,0,.065-.012.072-.049.021-.065.1-.139.079l-.023.023a.129.129,0,0,1-.065.141l.062.213-.06.079m-.122,2.128-.016,0-.035.16c-.032-.03-.063-.044-.065-.065-.012-.092-.074-.058-.118-.062l-.062.148.081-.014c-.007.069,0,.127.074.153l-.009.044c-.032,0-.053.011-.046.046a.238.238,0,0,0,.03.06l.056-.049c.062-.023.127-.046.2-.074-.076-.1.014-.162.062-.234l-.1.023a.347.347,0,0,1-.03-.1l-.016-.037m2.322,1.328c-.1.007-.088-.065-.093-.123s0-.127-.058-.169a.067.067,0,0,0-.051-.018c-.019,0-.044.03-.044.042a2.257,2.257,0,0,0,.055.243.663.663,0,0,0,.049.1c.018,0,.058-.023.046.041,0,.009.007.021.014.03s.028-.007.03-.016a1.243,1.243,0,0,0,.051-.129m-1.945-4.524c.012.039.014.062.023.086s.019.014.028.023c.007-.012.019-.023.019-.035a.539.539,0,0,0,0-.06.3.3,0,0,1,.014-.111.094.094,0,0,0-.062-.132l-.021.009.039.06c-.035.009-.06.014-.092.023.016-.053,0-.076-.037-.06l-.046.1c.083.065.021.157.011.243l.033,0c.03-.046.06-.093.1-.155m-.62.217a.838.838,0,0,0,0-.127.182.182,0,0,0-.03-.069c-.069.023-.067-.051-.1-.076-.035.037-.042.072,0,.109l.012.025c-.026.109.06.192.067.294l.062,0a.261.261,0,0,0,.021-.076.2.2,0,0,1,.023-.051.24.24,0,0,1,.046-.035l-.062,0-.042.007m1.684,3.744-.053.088c-.042-.023-.081-.037-.113.021.113.012.053.1.088.155-.081.044-.092.081-.046.132.155-.141.18-.22.125-.4m-.789-1.062a.418.418,0,0,1-.074,0c-.039-.007-.06,0-.037.044.039.072.083.141.127.213l.035,0,0-.028c-.06-.044-.012-.088,0-.125.035-.081-.014-.143-.021-.213h-.028l-.009.106m-1.575-1.9-.1-.116a.758.758,0,0,0-.062.081.057.057,0,0,0-.009.046c.021.046.049.088.067.123l.076-.028.032-.106m-.77.074c.021-.028.03-.055.049-.065.056-.025.037-.072.037-.113,0-.009-.012-.021-.018-.032-.012.009-.028.012-.032.023-.018.044-.044.051-.088.032a.074.074,0,0,0-.051.014s0,.032.012.041c.028.035.058.063.092.1m.988.174c-.055-.012-.021-.125-.127-.1l.072.065c-.019,0-.03.014-.042.014-.046,0-.069.007-.035.058a1.373,1.373,0,0,1,.081.164l.051-.2m1.05,1.961-.021.009c.018.014.039.044.053.042.06-.012.069.023.074.067.053,0,.044-.025.042-.058s.009-.06.009-.09a.411.411,0,0,0-.007-.079l-.012,0-.032.088-.09-.095-.016.113m.585.162H631.4c-.037.072-.076.146-.12.231.028.009.065.035.083.025s.032-.051.037-.081c.009-.058.009-.116.014-.176m-1.462-1.952c-.032,0-.088.049-.086.081s0,.076,0,.116a.209.209,0,0,0,.018.072c.007.016.028.025.044.037,0-.018.016-.037.012-.056s-.037-.063-.035-.09a.856.856,0,0,1,.042-.16m-1.822-.467c-.06.016-.113.039-.113.1,0,.028.046.06.069.088l.025-.007.018-.178m2.859,1.247-.023.062c.023,0,.046.021.065.016.042-.012.028-.042.014-.069-.021-.046-.039-.095-.062-.143l-.023-.012-.021.035c.014.037.035.074.051.111m1.556,2.648v-.092a.485.485,0,0,0-.007-.081c0-.009-.016-.016-.028-.023-.007.009-.021.016-.021.028,0,.042.016.086-.035.113l0,.025c.014.072.062.035.088.03m-.284-1.33h-.03a.217.217,0,0,0-.007.074,1.916,1.916,0,0,0,.074.187l.023.009.014-.023c-.023-.083-.049-.167-.074-.248m-1.561-1.207-.095-.086-.009.014.042.213c.086-.023,0-.111.063-.141m-1.316-.2c.063.042.109.042.116,0a.644.644,0,0,0,.009-.095l-.014-.025-.028.007c-.028.035-.056.074-.083.111m-.981-.883c-.049.007-.071.009-.095.014a.372.372,0,0,0-.042.023c.007.014.018.025.025.039l.016.046.014.025.028-.007c.016-.042.032-.083.053-.141m4.253,2.9a.111.111,0,0,1-.069-.155c0-.014-.018-.035-.03-.053a.3.3,0,0,0-.018.053.338.338,0,0,0,.009.1c.009.053.046.072.109.058m-1.21-1.612c.058.069.079.072.139.025a.055.055,0,0,0,0-.053c-.055-.055-.09.009-.139.028m-1.478-.645-.009.06-.067-.014-.009.023.148.074c.009-.086,0-.111-.063-.143m.8-.134,0,.023.095.028a.446.446,0,0,0,.014-.093.051.051,0,0,0-.069-.049l.009.067-.046.023m.025-.187,0-.026a.3.3,0,0,0-.053-.055c-.044-.035-.06.011-.083.032l0,.042a1.217,1.217,0,0,0,.132.007m-.368.4c.062-.042.12-.074.122-.155-.037.016-.062.055-.1.06-.067.018-.042.051-.025.095m1.829,2.033c0,.056.072.095.16.092-.028-.076-.09-.083-.16-.092m-.872-3.041.007.042.042-.014.018-.019a.471.471,0,0,0,.049-.069l-.021-.016a.645.645,0,0,0-.076.044l-.019.032m-.222,2.916.016.009c.026-.009.074.011.072-.042,0-.028-.016-.079-.032-.081-.053-.009-.035.046-.049.074a.22.22,0,0,0-.007.039m-.7-2.662.039.111a.176.176,0,0,0,.03-.046.331.331,0,0,0,0-.051l.014-.053a.352.352,0,0,0-.062.023l-.026.016m-.821,2.445a.124.124,0,0,0,.13-.062l0-.032c-.012-.009-.035-.016-.042-.012-.028.03-.053.065-.086.106m2.815.692-.028.009c-.039.062-.03.116.021.125.012,0,.039-.021.037-.028a.544.544,0,0,0-.03-.106m-.853-2.685.016.016.056-.012,0,.055.025,0c0-.021.021-.046.014-.06a.366.366,0,0,0-.06-.06l-.049.055m-.594,1.05-.012-.037c-.032.009-.065.014-.095.025l.012.063.095-.051m-3.613-1.941-.039.049-.053.051.079-.007.055-.007,0-.025c-.042-.007-.067-.019-.039-.06m2.932-.946c0,.021,0,.035,0,.048l.021.007c.025-.028.051-.055.074-.086l-.014-.023-.083.053m.747.273a.258.258,0,0,0-.058-.014l-.023.014.009.028a.369.369,0,0,0,.09-.03c.014-.009,0-.042.007-.065h-.021l0,.067m-1.513,3.786.016.021.1-.039-.076-.06-.037.079m1.1-3.462-.019,0a.208.208,0,0,0,.019.081l.072-.014,0-.016-.074-.055m-.206,2.341.025-.1c-.016,0-.042,0-.049.016-.021.028-.037.058.023.088m-1.418-1.883.028.042c.046-.023.067.009.088.051.012-.07-.007-.086-.116-.093m2.058-1.092-.023.012.037.076c.014-.012.039-.021.042-.032.014-.051-.025-.049-.055-.055m.063-.243c-.076.007-.086.037-.069.076,0,.012.021.021.03.033l.039-.109m-1.637,1.226c-.03.021-.056.033-.058.042a.13.13,0,0,0,.025.058l.039-.012a.465.465,0,0,0-.007-.088m1.332.629.021.032.074-.037-.037-.032a.175.175,0,0,0-.058.037m.749.932-.016-.025a.708.708,0,0,0-.086.058l.014.06.088-.092m.125,1.524-.019.007-.025.1.058-.012c0-.032-.009-.067-.014-.1m-.7-3.467a.778.778,0,0,0-.081.007l-.021.021.012.026c.028.021.083-.009.09-.053m-.465,1.025-.016-.012a.377.377,0,0,0-.062.044c-.009.007-.009.026-.012.04l.042,0a.743.743,0,0,0,.049-.069m-.234,1.661c0-.044.009-.07.009-.095l-.009-.023-.021,0a.231.231,0,0,0-.028.072c0,.009.023.023.049.044m1.048-2.9a.672.672,0,0,0-.072.044l.007.035c.025-.012.051-.021.076-.035l-.012-.044m-.192,2.289.028-.014-.018-.083c-.014.014-.037.025-.037.039s.018.037.028.058m-3.275-1.214.086-.049c-.012-.012-.021-.035-.033-.037-.039,0-.06.021-.053.086m2.972-1.675.095.035-.009-.09-.086.056m-1.168,4.193,0,.032.074,0-.012-.051-.067.014m.687-2.44-.065-.083-.021.009a.254.254,0,0,0,.025.074c0,.007.03,0,.06,0" transform="translate(-586.896 -3342.39)" fill="#b5b4b2"/>
    <path id="Path_169" data-name="Path 169" d="M631.559,718.69c.012-.035,0-.088.081-.065-.012-.06-.023-.109-.032-.159a.086.086,0,0,1-.007-.046,1.6,1.6,0,0,1,.079-.231c.016-.03.06-.049.092-.069.012-.007.026-.009.037-.025l-.03-.012c-.051.018-.056-.016-.044-.046.025-.081.06-.159.09-.241a.335.335,0,0,0,.007-.053l.021-.076.014,0c.009.035.016.069.025.1,0,.012.014.023.018.033,0-.009.016-.023.014-.033,0-.037-.018-.072-.023-.109a.449.449,0,0,1,0-.125c.016-.067.042-.13.063-.194a.532.532,0,0,1,.028-.051l.016,0a.4.4,0,0,1,0,.051c-.009.042-.023.083-.032.125s.016.06.058.055a.256.256,0,0,1,.06,0c0-.074-.046-.143.007-.215-.025-.018-.055-.037-.079-.058a.07.07,0,0,1,0-.049c.016-.06.037-.118.056-.178a.184.184,0,0,0-.1-.176.537.537,0,0,1-.252-.169.11.11,0,0,1,0-.09c0-.012.044-.021.065-.018.063.007.065.009.058-.058.072-.037.123-.088.07-.187l.049.014c.028-.083.028-.1,0-.148.079-.012,0-.127.106-.132l-.018.132-.021.132.092.092,0,.083.014,0,.03-.051c.039.021.076.037.076.092,0,.039.032.081,0,.123l.007.019.025,0,.016-.028c-.021-.079.049-.125.065-.19,0-.019.026-.035.049-.062l-.16.007c.035-.025.072-.042.076-.063.016-.053.067-.092.067-.153,0-.035.011-.065-.03-.083a.072.072,0,0,1-.035-.1c.03-.076.026-.088-.049-.136l-.065.007.009-.083-.049-.078c-.049.035-.053.083-.026.148a.2.2,0,0,1,.014.074c0,.035.012.076-.042.081-.081.007-.095-.007-.111-.074a.413.413,0,0,0-.028-.074l-.019,0a.236.236,0,0,0,.012.072c.023.049-.028.051-.044.072s-.035,0-.06-.012c.134-.037.011-.095.023-.143l.051-.009-.06-.06a.437.437,0,0,0-.076.09.455.455,0,0,0-.019.1l-.023,0,.157.215-.033.088c-.009.026-.032.055-.025.076.016.072-.042.1-.069.148-.011.023-.037.023-.041-.009-.009-.055-.044-.113.011-.167a.13.13,0,0,0,.026-.074.115.115,0,0,0-.035-.049.429.429,0,0,0-.055-.042l-.023.009c-.018-.074.065-.049.081-.1-.051,0-.1,0-.15.007-.007,0-.016.028-.014.039.007.037.026.074-.021.1l0,.012a1.044,1.044,0,0,0-.025.171c0,.039.009.09.074.093.014,0,.03.025.039.042l-.023.032-.039-.035a.326.326,0,0,1-.065-.03l-.888-.726c-.039-.035-.083-.065-.12-.1a.432.432,0,0,1-.058-.093c-.06.032-.095-.035-.143-.072l-.143-.113a.615.615,0,0,1-.049-.053l.183,0a.2.2,0,0,0,.037,0c.076,0,.1.018.1.1,0,.011.007.032.016.037a.045.045,0,0,0,.042-.009c.007-.009,0-.028,0-.044a.24.24,0,0,1,0-.071l.049-.007a.212.212,0,0,1,.03.074.194.194,0,0,1,0,.051l.023.007a.19.19,0,0,0,.018-.051c.007-.067.023-.081.088-.081a1.017,1.017,0,0,1,.146,0c.023,0,.042.032.055.056l.009,0c.088-.083.2-.046.3-.053a.864.864,0,0,1,.134,0c.037,0,.072.019.109.025s.06.007.095.012c.007-.032.035-.037.072-.037.139,0,.273,0,.412.009.044,0,.076,0,.088-.037l.282.056a.359.359,0,0,0-.037.062l.014.032.03-.019c.056-.085.086-.093.16-.03a.2.2,0,0,0,.072.042c.009,0,.025-.012.035-.023a.521.521,0,0,0,.028-.051.413.413,0,0,1,.009-.092c.049-.13.109-.252.146-.384.023-.086.074-.155.1-.236a2.128,2.128,0,0,1,.095-.241c.072-.19.141-.379.213-.567l.021-.046.04.028.007-.014a.944.944,0,0,1,.018-.18c.009-.028.051-.049.083-.079l-.042,0c0-.051.014-.1.06-.123.016-.007.044.009.072.014,0-.046-.035-.042-.069-.039a.057.057,0,0,1,.037-.076c.06-.023.065-.037.035-.1l-.007-.03c.028-.071.06-.143.093-.224a.3.3,0,0,1,.032.055c.021.06.037.123.058.185a.2.2,0,0,1,0,.176l0,.028c.012.079.028.159.037.24a1.33,1.33,0,0,1,0,.192c0,.009-.009.03-.016.032-.072.007-.065.074-.088.116s-.051.053-.1.021l.07-.069h-.012l.009-.083-.072.016.014.079a.059.059,0,0,1-.039-.095c.026-.03.016-.056,0-.086l-.076.072.051.116a.71.71,0,0,0-.1.192c-.016.074-.042.146-.063.215a.251.251,0,0,0,0,.148.25.25,0,0,1,.023.2v.026c.067-.044.13-.083.19-.13a.078.078,0,0,0,.014-.065c-.049-.035-.021-.058.014-.079-.016-.012-.035-.019-.042-.032a.19.19,0,0,1-.009-.053.336.336,0,0,1,.049,0c.037.016.065.014.088-.035a.377.377,0,0,0-.074,0c-.039.009-.062,0-.06-.044,0,0-.023-.012-.035-.014l-.058,0a1.174,1.174,0,0,1,.042-.136.157.157,0,0,1,.06-.081.275.275,0,0,1,.106,0l.062-.079c.021.03.016.095.079.053a.115.115,0,0,1,.118-.15.048.048,0,0,1,.035.019c.032.1.062.192.095.292-.1.014-.063.1-.1.16l.093.014c-.039-.095-.039-.095.03-.118l.012-.083c.051.049.051.081.021.111l.035.213.058-.039.018.014-.032.049c-.009.016-.026.035-.021.046.079.257.16.511.238.768a.078.078,0,0,0,.083.06c.164.007.329.018.5.025.037,0,.076.014.106-.028,0-.007.028,0,.042,0s.044.03.067.032c.359.023.715.044,1.073.062l.61.032c.025,0,.051,0,.095.009-.025.023-.037.037-.051.049-.132.093-.264.185-.4.28a.185.185,0,0,0-.044.06c-.016.03-.023.065-.074.037-.03-.014-.035.012-.028.039s.007.044,0,.049a.071.071,0,0,1-.06.009.081.081,0,0,0-.092.016l-.96.68c-.113.079-.222.16-.335.236a.065.065,0,0,0-.03.081c.069.264.137.53.206.793l.009.035.018-.011.049-.03a.233.233,0,0,1-.007.072c-.018.03-.049.053-.056.076a.441.441,0,0,1,.044.081q.167.652.331,1.309l.021.09-.012.007c-.056-.039-.109-.077-.162-.116-.13-.1-.261-.192-.382-.3-.046-.039-.062-.111-.141-.1-.111-.086-.224-.164-.328-.254-.083-.072-.178-.127-.266-.194s-.173-.134-.264-.2c-.014-.012-.037-.009-.042-.012-.053-.046-.1-.09-.143-.127s-.049-.032-.042-.076a.582.582,0,0,0-.111-.039.117.117,0,0,1-.109-.074c-.007-.011-.049-.014-.062-.007-.06.035-.116.072-.171.109l-.049.03-.049-.129c-.053.021-.058.044-.016.081a.06.06,0,0,1-.007.095c-.06.037-.129.063-.162.134l-.049.009-.016.063-.055-.028-.342.218c-.026.016-.053.037-.081.051s-.032,0-.051,0a.346.346,0,0,1,0-.051c0-.03.009-.06.012-.09a.055.055,0,0,0-.016-.037c-.025-.018-.023-.032,0-.053s.044-.065,0-.1-.046-.058,0-.086l.012-.037a.191.191,0,0,0-.035,0l-.018.009c-.03.051-.051.044-.088,0-.012-.014-.063.007-.093.012l-.09-.074,0-.014.162.018a.18.18,0,0,1,.012-.046.249.249,0,0,1,.03-.049c-.009-.039-.016-.083-.028-.122s-.032-.053-.042-.081a.7.7,0,0,1-.044-.164c0-.058.014-.116-.032-.171l-.058.014a.213.213,0,0,1,.014.049.142.142,0,0,1-.009.03l-.023-.023c0-.035-.021-.046-.06-.042l.032.1.09.007,0,.019a.485.485,0,0,1-.079.035c-.055.016-.072.046-.049.1s.046.125.067.19v.016a1.09,1.09,0,0,1-.178-.014c-.016,0-.023-.046-.039-.079-.009.012-.028.023-.03.037a.065.065,0,0,0,.016.049c.044.037.026.083.019.13a.6.6,0,0,0,0,.06.537.537,0,0,0,0,.086.151.151,0,0,0,.016.076c.06.067.062.065.053.134.042,0,.037,0,.034-.037,0-.016.009-.032.014-.049l.018.037c.039.074.012.107-.067.1l-.021.032.07-.012c0,.06.007.123,0,.183,0,.014-.023.028-.042.046l.028.012a.29.29,0,0,0,.076-.018.093.093,0,0,0,.037-.046c.012-.042.016-.083.062-.1l.035-.009c.023.035.06.069.062.106,0,.055-.053.076-.095.1-.012,0-.037-.007-.044,0a.447.447,0,0,1-.079.083,1.512,1.512,0,0,1-.169.1c-.012,0-.028,0-.044,0l.039-.039,0-.014c.014-.049.03-.095-.053-.074,0,0-.03-.051-.023-.072.03-.1-.028-.176-.134-.162a.433.433,0,0,1-.055,0Zm1.025-1.279-.014-.012c.014-.042.018-.1.049-.12s.042-.033.007-.065c-.016-.012-.018-.046-.016-.069s.03-.023.044-.019a.087.087,0,0,1,.056.035c.023.053.037.109.053.157.1-.011.092-.074.088-.141l-.095-.058.046-.127.014,0,0,.072c.018.018.032.039.051.046a.107.107,0,0,0,.06,0,.048.048,0,0,0,.007-.035c-.009-.049-.023-.1-.032-.146l.009-.025c.067-.065.016-.141.023-.211,0-.035,0-.083.023-.1a.1.1,0,0,1,.125-.021c-.028.03-.032.083-.093.051l-.009.06c.03-.009.055-.023.074-.018s.028.032.042.055l.042-.025c.007.023.007.042.014.058a.144.144,0,0,0,.03.055c.007.007.033,0,.046-.012l0-.037c-.058-.014-.058-.076-.093-.109s-.035-.058.012-.076l.037-.021-.037,0-.042-.016c.009-.016.018-.044.03-.044.069,0,.039-.074.074-.1-.049.032-.074.014-.083-.026-.051.028-.09,0-.141-.018l.016.051-.058.051.03.049c.016.023.014.044-.014.051-.049.014-.06.046-.053.092a.246.246,0,0,1,0,.058c-.079-.026-.088-.021-.162.1l.025.021a.506.506,0,0,1,.009.118c0,.014-.037.026-.058.032a.5.5,0,0,1-.083.016c-.012-.014-.032-.046-.049-.044-.055.009-.046-.026-.049-.055a.343.343,0,0,0,0-.069l-.037-.018a.639.639,0,0,0-.016.086c0,.014.016.028.014.039-.009.049,0,.106-.051.143l-.016.028c.021.06-.026.067-.056.074-.007.03,0,.058-.018.074s-.049.06-.016.095c-.063.06-.063.06-.139-.016l.007.174a.083.083,0,0,0-.023.065c.007.044.023.086.03.127s-.028.095.055.12c.058.016.1.079.169.13,0-.03,0-.046,0-.062l.012-.046c.053-.028.049-.065.021-.109l.048-.028-.023-.037c.069,0,.044-.044.032-.076s-.035-.081.028-.1l-.016-.049.051-.014m.271-1.589-.012-.011a.309.309,0,0,1,.06-.062c.028-.021.049-.04.037-.079a.942.942,0,0,1-.023-.109l-.012-.028-.025,0,0,.03a.129.129,0,0,1-.014.122.272.272,0,0,1-.046.037c-.014-.021-.037-.042-.039-.06a.907.907,0,0,1,.009-.155l.023,0a.117.117,0,0,0,.134-.146.252.252,0,0,1,0-.039l.012-.009.03.053c.007-.051.051-.1-.03-.107l-.023-.035-.014-.058H632.9l-.021.046c0,.016-.007.042-.018.049-.028.018-.021.037-.012.062a.1.1,0,0,1-.116.134c-.012,0-.035.007-.037.014-.007.086-.067.046-.113.053-.028,0-.076.03-.076.049a1,1,0,0,0,.014.185.242.242,0,0,0,.021.044l.044-.028,0,.044c.081-.009.079-.011.083-.086a.032.032,0,0,1,.014-.026l.028.009c.053.042.053.051.03.134l.106-.032m.5-.011c.062-.019.062-.019.076.039,0,.009.016.021.026.021.028,0,.083-.072.081-.107l-.049.012c-.007-.035-.016-.065-.021-.093s0-.039.007-.042c.049-.007.062-.046.081-.083l.016-.012c.049.021.116-.037.155.039a.1.1,0,0,0,.009-.063c-.007-.021-.025-.039-.03-.058a.252.252,0,0,1,.007-.093c0-.007.037,0,.053-.007a.067.067,0,0,0,.028-.023.439.439,0,0,1,.028-.049c.023-.023.053-.037.076-.058a.251.251,0,0,0,.018-.051c-.016,0-.039-.007-.051,0a.578.578,0,0,0-.072.076l-.049.058c-.021-.016-.042-.042-.053-.037-.039.012-.06-.007-.086-.028a.289.289,0,0,0-.053-.016.187.187,0,0,1,0,.051c0,.021,0,.056-.009.06-.042.018-.056.088-.118.067l-.021.023a.109.109,0,0,1-.056.12l.053.18-.051.069m-.106,1.825-.014,0-.03.137c-.025-.025-.051-.039-.053-.055-.009-.079-.065-.049-.1-.053l-.055.127.072-.014c-.007.06,0,.111.063.132l-.007.037c-.03,0-.046.011-.039.039a.186.186,0,0,0,.025.053l.049-.042c.053-.021.106-.039.169-.065-.065-.088.012-.139.056-.2l-.093.021a.375.375,0,0,1-.026-.09l-.014-.03m1.994,1.14c-.09,0-.076-.058-.079-.106s0-.109-.051-.146a.069.069,0,0,0-.044-.016c-.016,0-.037.025-.037.037a1.711,1.711,0,0,0,.049.208.457.457,0,0,0,.039.086c.016,0,.051-.021.039.035l.012.028.028-.014a1.128,1.128,0,0,0,.044-.111m-1.667-3.883a.488.488,0,0,0,.018.074l.023.021c0-.012.016-.021.016-.03a.388.388,0,0,0,0-.051.253.253,0,0,1,.014-.095.084.084,0,0,0-.053-.116l-.019.009.032.051-.079.021c.012-.046,0-.065-.032-.053l-.039.093c.072.053.018.132.012.206l.025,0,.086-.134m-.534.187a.45.45,0,0,0,0-.109.169.169,0,0,0-.025-.06c-.06.021-.058-.044-.088-.065-.03.032-.037.062,0,.092l.011.023c-.023.093.051.164.056.25l.053,0a.179.179,0,0,0,.021-.065.1.1,0,0,1,.016-.044.277.277,0,0,1,.042-.03l-.053,0-.037,0m1.445,3.212-.046.076c-.037-.021-.07-.032-.1.016.1.012.046.09.076.132-.072.039-.079.072-.039.116.132-.123.153-.187.106-.34m-.675-.911a.3.3,0,0,1-.065,0c-.035,0-.051,0-.033.039.035.06.072.12.109.18l.03.007,0-.026c-.053-.037-.009-.076,0-.109.028-.067-.011-.12-.018-.18h-.023l-.007.09m-1.353-1.631-.09-.1c-.014.018-.035.042-.053.069a.05.05,0,0,0-.007.039c.018.042.042.076.058.106l.065-.023.028-.09m-.662.062c.019-.025.028-.049.044-.055.046-.023.03-.062.03-.1l-.014-.026c-.012.007-.025.009-.03.019-.016.037-.037.044-.077.028-.009,0-.03,0-.042.012l.009.037c.023.028.051.053.079.085m.849.148c-.049-.009-.019-.106-.111-.09l.063.055a.133.133,0,0,1-.037.012c-.039,0-.058.007-.028.051a.907.907,0,0,1,.067.141l.046-.169m.9,1.681-.016.009c.014.012.032.037.044.035.053-.009.06.021.063.058.046,0,.039-.021.039-.049s.007-.053.007-.079-.007-.046-.007-.067l-.009,0-.03.076-.076-.081-.014.095m.5.141-.014,0-.1.2c.023.009.055.03.072.023s.028-.044.03-.072c.009-.049.009-.1.014-.148m-1.256-1.677c-.028,0-.076.042-.074.072s0,.065,0,.1a.145.145,0,0,0,.016.062.1.1,0,0,0,.037.032.127.127,0,0,0,.012-.049c-.007-.025-.033-.053-.03-.076a.806.806,0,0,1,.034-.139m-1.563-.4c-.051.014-.1.035-.1.083,0,.026.039.051.06.076l.021-.007.016-.153m2.454,1.071-.021.053c.018,0,.039.016.056.012.035-.009.023-.035.012-.058-.018-.042-.035-.081-.053-.123l-.021-.012-.019.03c.014.032.03.065.046.1m1.334,2.271v-.079c0-.023,0-.049-.007-.072l-.023-.019-.018.023c0,.035.014.074-.03.1l0,.021c.014.065.053.03.076.028m-.245-1.14h-.025a.2.2,0,0,0-.007.063,1.619,1.619,0,0,0,.065.159l.021.009.009-.021c-.019-.072-.039-.141-.062-.21m-1.339-1.036-.081-.074-.007.012.035.183c.072-.018,0-.095.053-.12m-1.129-.169c.053.037.093.035.1,0a.472.472,0,0,0,.007-.083l-.012-.021-.023,0c-.025.032-.049.065-.072.1m-.842-.759c-.042.007-.06.007-.081.012s-.023.014-.037.021l.023.032.014.039.012.023.025-.007c.014-.035.025-.072.044-.12m3.65,2.484a.1.1,0,0,1-.06-.132c0-.014-.016-.033-.026-.046a.38.38,0,0,0-.016.046.508.508,0,0,0,.007.083c.009.044.042.06.095.049m-1.039-1.383c.051.06.067.063.118.021l0-.044c-.049-.049-.076.009-.12.023m-1.267-.553-.007.051-.058-.012-.007.019.125.065c.009-.072,0-.095-.053-.123m.682-.116,0,.021.081.023a.24.24,0,0,0,.012-.079.041.041,0,0,0-.058-.042l.007.056-.039.021m.023-.162V716.2a.438.438,0,0,0-.044-.049c-.037-.03-.051.012-.072.03l0,.034a.915.915,0,0,0,.113,0m-.314.342c.051-.035.1-.062.1-.132-.03.014-.053.046-.081.051-.058.016-.035.044-.021.081m1.568,1.744c0,.049.062.081.136.079-.025-.065-.076-.07-.136-.079m-.749-2.609.007.037.037-.014.016-.014.042-.06-.018-.014a.34.34,0,0,0-.065.037l-.019.028m-.19,2.5.014.007c.021-.007.062.012.062-.035,0-.023-.014-.067-.028-.069-.046-.009-.03.039-.042.062l-.007.035m-.6-2.283.032.093a.128.128,0,0,0,.028-.037.271.271,0,0,0,0-.044l.012-.046a.236.236,0,0,0-.051.018l-.023.016m-.705,2.1a.106.106,0,0,0,.111-.055v-.028c-.009-.007-.03-.014-.035-.009-.025.025-.046.056-.076.092m2.417.592-.025.009c-.032.051-.025.1.018.106.009,0,.035-.019.033-.026a.665.665,0,0,0-.026-.09m-.733-2.3.014.014.049-.012,0,.049.021,0c0-.018.018-.039.012-.053a.35.35,0,0,0-.051-.051l-.042.049m-.511.9-.009-.03a.818.818,0,0,0-.081.021l.009.053.081-.044m-3.1-1.663-.035.039-.046.044.067,0,.048-.007,0-.021c-.035-.007-.058-.016-.032-.051m2.516-.814a.289.289,0,0,0,0,.044l.019,0c.023-.023.044-.049.065-.074l-.014-.019-.069.044m.641.236a.192.192,0,0,0-.051-.012l-.021.012.007.023a.3.3,0,0,0,.081-.026c.009-.007,0-.037,0-.055h-.018l0,.058m-1.3,3.249.011.016.086-.035-.067-.051-.03.069m.944-2.972-.016,0a.174.174,0,0,0,.016.069l.06-.012,0-.016-.062-.046m-.176,2.008.021-.088c-.014,0-.035,0-.042.014s-.032.049.021.074m-1.219-1.614.025.037c.039-.023.058.007.076.042.009-.058-.007-.072-.1-.079m1.767-.937-.019.009.03.065c.012-.009.035-.016.037-.028.012-.042-.021-.042-.048-.046m.055-.208c-.067.007-.074.03-.062.065,0,.009.018.018.028.028l.035-.093m-1.406,1.05-.049.037a.116.116,0,0,0,.021.051l.032-.011a.234.234,0,0,0,0-.076m1.142.541.016.028.065-.03-.033-.03a.128.128,0,0,0-.049.032m.643.8-.014-.021a.791.791,0,0,0-.074.049l.012.053.076-.081m.106,1.309-.014,0-.023.09.048-.009c0-.028-.007-.058-.012-.086m-.6-2.974a.546.546,0,0,0-.067.007l-.018.016.009.023c.025.018.072-.009.076-.046m-.4.879-.014-.009a.272.272,0,0,0-.053.037l-.012.035.037,0a.56.56,0,0,0,.042-.06m-.2,1.424a.8.8,0,0,0,.009-.081l-.007-.021-.021,0a.228.228,0,0,0-.023.062l.042.037m.9-2.489a.511.511,0,0,0-.062.039l.007.028.065-.028-.009-.039m-.164,1.964.023-.009-.016-.074c-.011.012-.03.023-.032.035a.168.168,0,0,0,.026.049m-2.81-1.041.074-.042-.028-.03c-.032,0-.051.016-.046.072m2.551-1.436.081.03-.009-.079-.072.049m-1,3.6,0,.028.063,0-.009-.044-.058.012m.59-2.093-.055-.072-.019.009a.491.491,0,0,0,.021.062c0,.007.028,0,.053,0" transform="translate(-582.582 -3346.868)" fill="#b5b4b2"/>
    <path id="Path_176" data-name="Path 176" d="M596.39,720.2c.046,1.041.046,2.082.046,3.145l-.416-.069c-2.822-.255-5.62-.625-8.465-.763l-1.5-.093-2.729-.162-4.256-.093c-22.642-.254-45.585,4.3-66.308,14.617,19.335-12.859,42.833-19.289,66.261-20.029,2.752-.093,5.528-.116,8.28-.046,3.007.069,5.99.231,8.974.509C596.321,718.16,596.367,719.154,596.39,720.2Z" transform="translate(-736.639 -3342.092)" fill="#b5b4b2"/>
    <path id="Path_177" data-name="Path 177" d="M562.008,718.728a57.575,57.575,0,0,0-3.608,4.857c-.185.3-.393.578-.578.879-1.6-.324-3.215-.648-4.81-.925a.818.818,0,0,0-.231-.046c-.393-.069-.786-.139-1.18-.185.162-.347.324-.671.509-1.018.879-1.688,1.758-3.307,2.706-4.88.324.046.648.093.971.162a3.829,3.829,0,0,1,.509.069C558.192,717.965,560.111,718.335,562.008,718.728Z" transform="translate(-685.65 -3341.11)" fill="#b5b4b2"/>
    <path id="Path_178" data-name="Path 178" d="M562.918,719.24c.463.116.948.231,1.411.37-.555,1.226-1.064,2.452-1.573,3.677-.347.833-.671,1.688-1.018,2.5-.416-.116-.856-.231-1.272-.347-.231-.069-.462-.115-.694-.185-.948-.254-1.92-.509-2.868-.74-.555-.139-1.11-.277-1.665-.393.856-1.943,1.758-3.978,2.706-6.059,1.527.3,3.03.671,4.533,1.087A1.347,1.347,0,0,1,562.918,719.24Z" transform="translate(-680.872 -3340.257)" fill="#b5b4b2"/>
    <path id="Path_179" data-name="Path 179" d="M563.723,720.371a3.233,3.233,0,0,1-1.133-.6c.809.254,1.619.555,2.428.856A7.559,7.559,0,0,1,563.723,720.371Z" transform="translate(-671.223 -3338.012)" fill="#b5b4b2"/>
    <path id="Path_180" data-name="Path 180" d="M571.992,721.955c.37.416.277.879-.324,1.434.139-.208.092-.37-.185-.509-.277-.162-.74.046-1.365.578a19.719,19.719,0,0,0-2.66,3.145c-.324-.116-.647-.231-.971-.37a.335.335,0,0,1-.162-.046c-1.873-.694-3.77-1.341-5.69-1.966a3.986,3.986,0,0,1-.486-.162c.624-.948,1.3-1.943,2.035-2.96a9.7,9.7,0,0,0-.463.879,10.449,10.449,0,0,0-.486,1.041c-.093.185-.162.324-.231.486a2.12,2.12,0,0,1,.185-.3c.278-.416.555-.809.81-1.156a7.679,7.679,0,0,1,.833-.879,1.486,1.486,0,0,1,.694-.439,15.14,15.14,0,0,1,3.446-.232,14.945,14.945,0,0,1,3.146.439A3.755,3.755,0,0,1,571.992,721.955Z" transform="translate(-674.426 -3337.075)" fill="#b5b4b2"/>
    <path id="Path_181" data-name="Path 181" d="M572.195,727.455a1.448,1.448,0,0,0-.578.231q-1.318-.694-2.637-1.318c-.625-.324-1.249-.625-1.9-.9-.37-.185-.74-.347-1.133-.509.3-.254.6-.486.925-.717a1.883,1.883,0,0,1,2.128-.37,9.538,9.538,0,0,1,.856.625c.416.324.856.694,1.3,1.11s.856.809,1.226,1.18a3.436,3.436,0,0,1,.694.856A.965.965,0,0,0,572.195,727.455Z" transform="translate(-666.812 -3332.884)" fill="#b5b4b2"/>
    <path id="Path_182" data-name="Path 182" d="M568.877,725.539a2.118,2.118,0,0,1,.971.486.681.681,0,0,1-.208.046c-.37-.208-.74-.416-1.11-.6A2.306,2.306,0,0,1,568.877,725.539Z" transform="translate(-663.425 -3330.529)" fill="#b5b4b2"/>
    <path id="Path_183" data-name="Path 183" d="M569.956,726.01c.023.162,0,.254-.139.277-.208-.116-.416-.231-.648-.347a2.125,2.125,0,0,1,.393-.208C569.771,725.663,569.91,725.756,569.956,726.01Z" transform="translate(-662.585 -3330.214)" fill="#b5b4b2"/>
    <path id="Path_184" data-name="Path 184" d="M572.59,724.094a4.526,4.526,0,0,1-.74-.231.645.645,0,0,0,.208-.023A2.253,2.253,0,0,0,572.59,724.094Z" transform="translate(-659.066 -3332.669)" fill="#b5b4b2"/>
    <path id="Path_185" data-name="Path 185" d="M581.606,731.68a9.588,9.588,0,0,1,1.411,4.672c-1.226-.486-2.475-.971-3.677-1.5a.717.717,0,0,1-.3-.139,10.154,10.154,0,0,1-1.156-.486c-.092-.023-.185-.069-.254-.093-.509-.208-.995-.439-1.48-.647a12.863,12.863,0,0,0-4.487-4.464,3.58,3.58,0,0,1-.786-.555,3.584,3.584,0,0,0-.786-.555,7.815,7.815,0,0,1-2.868-4.071,4.243,4.243,0,0,1,.069-2.29c2.382,1.018,4.741,2.128,7.054,3.33a2.957,2.957,0,0,0,.786.671,8.886,8.886,0,0,0,.879.624,10.8,10.8,0,0,1,.9.625A16.655,16.655,0,0,1,581.606,731.68Z" transform="translate(-665.307 -3335.676)" fill="#b5b4b2"/>
    <path id="Path_186" data-name="Path 186" d="M583.8,727.693a5.976,5.976,0,0,0,.6.185,5.924,5.924,0,0,0-.254.555,26.235,26.235,0,0,0-1.341,4,13.609,13.609,0,0,0-.347,1.92,6.4,6.4,0,0,1-.625-.185l-.277-.069c-1.55-.486-3.1-.995-4.626-1.573a14.718,14.718,0,0,1-1.6-.578,8.339,8.339,0,0,1-1.064-.393c.347-.509.671-1.064,1.018-1.642.3-.463.555-.925.81-1.365v-.023c.3-.995.671-2.035,1.11-3.145a2.12,2.12,0,0,0,.532.208c.833.324,1.665.625,2.521.9,1.041.393,2.082.74,3.145,1.064A1.336,1.336,0,0,0,583.8,727.693Z" transform="translate(-655.889 -3330.647)" fill="#b5b4b2"/>
    <path id="Path_187" data-name="Path 187" d="M612.586,731.744c.254.023.509.023.763.046-1.041,1.735-2.035,3.562-3.03,5.458a2.14,2.14,0,0,1-.162.324c-1.249-.023-2.475-.093-3.7-.185a6.146,6.146,0,0,1-.786-1.18,4.928,4.928,0,0,1-.532-1.179c.116-.254.208-.486.324-.717a13.988,13.988,0,0,1-2.128,1.388,5.419,5.419,0,0,1-4.764.277,2.556,2.556,0,0,1-.9-.509c-.37.347-.74.694-1.087.972-1.873-.255-3.747-.532-5.62-.879a.54.54,0,0,1-.185-.046c-.231-.023-.486-.069-.717-.116-.833-.139-1.688-.3-2.521-.486a.139.139,0,0,1-.092-.023c-.694-.139-1.388-.278-2.082-.44a.139.139,0,0,1-.092-.023l-.694-.139c-.07-.324-.139-.671-.185-1.041-.023-.231-.069-.463-.093-.717a5.458,5.458,0,0,1-.439.578c-.231.277-.463.555-.717.833-1.087-.254-2.2-.509-3.284-.833.139-.116.278-.278.416-.416a38.412,38.412,0,0,0,2.544-3.145c.555-.74,1.064-1.48,1.526-2.2a1.505,1.505,0,0,0,.463.116q1.249.347,2.5.624c.786.185,1.6.37,2.405.532a11.15,11.15,0,0,0-.324,1.619,6.57,6.57,0,0,0,.324,3.7,1.727,1.727,0,0,0,2.035.971,6.419,6.419,0,0,0,3.261-2.475,9.785,9.785,0,0,1-.994-2.937c.74.139,1.5.278,2.267.393a1.048,1.048,0,0,0,.37.069c1.619.278,3.238.532,4.857.717-.439.671-.879,1.3-1.318,1.9v.069a2.285,2.285,0,0,0,2.151-.023,10,10,0,0,0,2.29-1.55c.74.093,1.457.162,2.2.231.324.023.647.07.971.093a5.292,5.292,0,0,0,.6.046c1.388.116,2.775.231,4.163.3Z" transform="translate(-648.551 -3328.061)" fill="#b5b4b2"/>
    <path id="Path_188" data-name="Path 188" d="M667.513,721.86c-16.953,12.674-37.837,19.821-59.092,22.157-2.082.254-4.163.439-6.245.578-1.526.092-3.03.162-4.556.231a9.237,9.237,0,0,1-.277-3.932,13.937,13.937,0,0,1,.3-1.712c1.434.023,2.845.023,4.279,0,.462,0,.925-.023,1.388-.046-1.249,2.822-1.6,4.394-1.087,4.718a2.07,2.07,0,0,0,2.267-.208,13.511,13.511,0,0,0,2.683-2.382c.671-.74,1.341-1.549,2.035-2.452,1.226-.069,2.451-.162,3.677-.3A135.993,135.993,0,0,0,667.513,721.86Z" transform="translate(-625.722 -3335.269)" fill="#b5b4b2"/>
    <g id="Group_35" data-name="Group 35" transform="translate(-247.946 -2625.42)">
      <path id="Path_189" data-name="Path 189" d="M514.379,727.63c-.018.055.007.15-.136.109.021.1.039.185.058.268a.2.2,0,0,1,.009.081,3.284,3.284,0,0,1-.134.393c-.025.051-.1.081-.157.116-.016.014-.042.016-.062.044.018.007.039.021.053.018.086-.032.093.028.076.079-.049.136-.1.271-.155.407-.009.028-.007.06-.014.088-.009.044-.023.088-.032.13l-.025,0c-.016-.055-.025-.113-.044-.169a.214.214,0,0,0-.032-.058c-.007.019-.023.042-.021.06.009.06.03.12.037.183a.733.733,0,0,1,0,.213c-.025.109-.067.215-.1.326a.792.792,0,0,1-.046.088l-.028-.007a.553.553,0,0,1,0-.088c.016-.072.039-.141.053-.213s-.025-.1-.1-.093a.482.482,0,0,1-.1,0c0,.123.081.243-.012.363a1.358,1.358,0,0,1,.132.1.114.114,0,0,1,.012.083c-.03.1-.067.2-.1.3a.318.318,0,0,0,.169.3.9.9,0,0,1,.426.287.164.164,0,0,1,.012.148c-.007.023-.076.039-.113.034-.1-.014-.109-.014-.095.1-.123.065-.208.148-.118.317l-.083-.023c-.049.141-.046.176,0,.25-.132.021.009.217-.178.222.012-.076.018-.148.03-.22s.028-.162.037-.222c-.058-.058-.106-.109-.157-.157,0-.049.007-.1.009-.143l-.023-.007-.055.086c-.062-.035-.125-.06-.125-.155,0-.069-.055-.139,0-.208l-.014-.03c-.011,0-.035,0-.042,0a.073.073,0,0,0-.026.049c.032.132-.083.211-.111.321-.009.033-.044.056-.086.1l.273-.012c-.06.046-.12.069-.13.106-.028.093-.113.157-.116.262,0,.058-.018.106.055.139a.122.122,0,0,1,.058.171c-.051.132-.044.15.079.234l.113-.014-.018.141c.018.028.053.083.086.134.079-.058.09-.139.042-.252a.316.316,0,0,1-.025-.125c0-.055-.016-.13.074-.137.136-.012.16.009.185.127a.949.949,0,0,0,.049.125l.032-.007a.652.652,0,0,0-.019-.12c-.039-.081.044-.086.072-.122.009-.014.058,0,.1.023-.227.063-.018.16-.037.24-.023,0-.044.009-.088.016l.1.1a.877.877,0,0,0,.125-.155.563.563,0,0,0,.032-.169l.042-.009c-.086-.113-.169-.227-.266-.363.009-.03.03-.088.053-.146s.053-.095.044-.134c-.028-.118.072-.171.116-.25.021-.037.065-.037.072.016.014.095.076.192-.021.284a.181.181,0,0,0-.039.123c0,.028.032.06.055.083s.055.042.093.069l.042-.014c.032.125-.111.083-.139.164.09,0,.173,0,.254-.014.012,0,.03-.046.025-.067-.012-.06-.042-.122.037-.162l.007-.018a1.8,1.8,0,0,0,.039-.289c0-.069-.012-.157-.125-.159-.021,0-.049-.042-.062-.072,0-.009.023-.032.039-.053l.067.06a.456.456,0,0,1,.106.051c.5.409,1,.819,1.506,1.231.069.056.141.109.2.169a.823.823,0,0,1,.1.157c.1-.053.162.06.243.123s.164.13.245.194a.711.711,0,0,1,.081.09h-.308a.559.559,0,0,0-.065,0c-.127,0-.164-.03-.173-.162,0-.023-.012-.058-.025-.063a.072.072,0,0,0-.069.012c-.012.019,0,.051,0,.074a.427.427,0,0,1,0,.123c0,.012-.074.023-.081.012a.372.372,0,0,1-.051-.125.368.368,0,0,1,0-.088l-.042-.009a.426.426,0,0,0-.03.086c-.014.113-.042.139-.15.139a1.779,1.779,0,0,1-.247,0c-.039-.007-.067-.053-.092-.095l-.016,0c-.15.141-.333.081-.506.09a1.247,1.247,0,0,1-.227-.007,1.833,1.833,0,0,1-.185-.046c-.049-.009-.1-.009-.162-.014-.007.053-.056.06-.12.06-.234-.007-.463-.007-.694-.014-.076,0-.134,0-.15.06l-.479-.093a.558.558,0,0,0,.06-.106c.007-.012-.014-.035-.021-.053-.016.009-.042.016-.051.03-.093.146-.146.155-.271.049a.355.355,0,0,0-.123-.067c-.014,0-.044.019-.058.037a.8.8,0,0,0-.046.088.605.605,0,0,1-.018.157c-.079.215-.185.426-.245.65-.039.141-.125.259-.164.4a4.32,4.32,0,0,1-.16.407c-.123.322-.243.641-.363.96-.009.025-.021.046-.035.076l-.065-.046-.014.023a1.488,1.488,0,0,1-.032.305c-.014.051-.086.086-.136.134l.069,0c-.009.085-.025.169-.1.206-.028.014-.074-.014-.12-.023,0,.081.058.071.118.069a.1.1,0,0,1-.062.127c-.1.039-.113.062-.062.164a.078.078,0,0,1,.014.051c-.049.123-.1.243-.157.382a.647.647,0,0,1-.056-.095c-.032-.1-.062-.208-.095-.312a.321.321,0,0,1,0-.3.071.071,0,0,0,.007-.044c-.021-.136-.049-.27-.065-.407a3.056,3.056,0,0,1,0-.326c0-.019.019-.053.03-.056.12-.012.109-.125.148-.194s.088-.092.173-.037l-.12.116.023,0-.018.141.123-.028-.025-.132a.1.1,0,0,1,.069.16c-.044.051-.028.092,0,.143.039-.039.076-.072.127-.12-.023-.056-.051-.118-.083-.2a1.2,1.2,0,0,0,.169-.326c.028-.125.072-.245.107-.365a.381.381,0,0,0-.007-.247.421.421,0,0,1-.037-.347c0-.012,0-.028,0-.042-.111.074-.22.141-.319.22-.023.018-.037.1-.023.109.081.06.032.1-.023.134a.294.294,0,0,1,.069.053.279.279,0,0,1,.014.09.318.318,0,0,1-.081,0,.1.1,0,0,0-.15.06.809.809,0,0,0,.127,0c.067-.016.1-.012.1.069,0,.009.037.026.058.028a.739.739,0,0,0,.1,0,1.952,1.952,0,0,1-.069.236.264.264,0,0,1-.1.134.473.473,0,0,1-.18,0l-.106.132c-.037-.049-.03-.162-.132-.092a.2.2,0,0,1-.2.257.078.078,0,0,1-.058-.032c-.055-.162-.106-.324-.16-.493.169-.025.1-.173.171-.271-.058-.007-.1-.014-.157-.023.067.16.067.16-.053.2,0,.046-.012.09-.018.143-.086-.081-.088-.141-.037-.19-.018-.127-.037-.238-.055-.361l-.1.069-.03-.023c.019-.028.039-.058.056-.086s.039-.058.035-.079c-.134-.435-.271-.867-.4-1.3a.137.137,0,0,0-.141-.1c-.28-.009-.557-.028-.84-.042-.062,0-.132-.023-.18.049-.007.009-.049,0-.069-.007-.042-.018-.076-.055-.118-.055q-.906-.059-1.816-.109l-1.036-.053a1.363,1.363,0,0,1-.16-.016c.042-.039.062-.065.088-.083.222-.157.446-.312.666-.472a.281.281,0,0,0,.076-.1c.03-.051.042-.107.125-.062.053.026.058-.021.049-.065,0-.028-.014-.076,0-.083a.133.133,0,0,1,.1-.016.141.141,0,0,0,.157-.026q.812-.576,1.628-1.154c.187-.134.375-.268.564-.4a.107.107,0,0,0,.051-.134c-.118-.449-.231-.9-.347-1.348l-.016-.056-.03.021-.081.046c0-.039-.009-.088.009-.118.032-.051.083-.09.095-.13a.669.669,0,0,1-.074-.139c-.19-.738-.375-1.478-.562-2.218-.014-.051-.023-.1-.035-.153l.021-.012c.09.065.183.13.273.2.217.166.442.324.648.5.076.065.1.19.238.171.188.143.379.28.557.432.141.123.3.213.449.328s.3.229.446.34a.208.208,0,0,0,.072.021c.09.079.164.153.243.213s.083.058.069.13a.754.754,0,0,0,.19.067.2.2,0,0,1,.185.127c.009.018.079.023.1.009.1-.055.194-.12.291-.183l.083-.051.079.22c.092-.037.1-.072.028-.137a.1.1,0,0,1,.014-.162c.1-.062.217-.106.273-.227,0-.014.051-.009.083-.014l.028-.106.095.046c.187-.12.382-.245.578-.368.044-.03.09-.062.136-.088a.506.506,0,0,1,.086-.009.571.571,0,0,1,0,.088c0,.053-.018.1-.021.153a.078.078,0,0,0,.03.063c.042.032.037.058,0,.09-.065.055-.076.109-.007.173.046.044.081.1,0,.146-.016.012-.014.042-.021.065a.534.534,0,0,0,.062,0c.009,0,.028-.007.03-.016.051-.086.088-.074.148,0,.021.021.106-.014.155-.023.049.042.1.083.155.127l0,.023c-.09-.012-.18-.021-.273-.03a.306.306,0,0,1-.018.076.452.452,0,0,1-.053.081,2.093,2.093,0,0,0,.051.208c.016.049.051.09.069.136a1.55,1.55,0,0,1,.074.282c.007.1-.023.2.053.289l.1-.025a.453.453,0,0,1-.021-.079.175.175,0,0,1,.014-.055c.014.014.042.028.042.042,0,.06.032.079.1.069l-.055-.162-.155-.016,0-.03a1.129,1.129,0,0,1,.13-.06c.1-.023.123-.076.086-.173s-.079-.213-.116-.321c-.007-.012,0-.023,0-.03a2.133,2.133,0,0,1,.305.028c.028,0,.039.074.065.132.016-.019.049-.037.053-.063a.1.1,0,0,0-.03-.081c-.072-.067-.042-.146-.032-.222a.7.7,0,0,0,0-.1,1.377,1.377,0,0,0-.009-.146c0-.046,0-.1-.028-.129-.1-.113-.1-.109-.088-.229-.072,0-.067.007-.06.062,0,.028-.016.055-.025.083l-.032-.062c-.065-.127-.018-.18.116-.178l.037-.053-.118.021c0-.1-.014-.211-.009-.31,0-.025.042-.049.069-.081a.145.145,0,0,0-.046-.019.525.525,0,0,0-.127.03.167.167,0,0,0-.065.078c-.019.069-.028.143-.1.178-.018.007-.053.021-.058.014-.042-.058-.1-.116-.109-.178-.007-.095.09-.13.164-.167.018-.009.06.014.072,0a.975.975,0,0,1,.134-.141,2.292,2.292,0,0,1,.287-.164c.019-.009.049,0,.074.007l-.065.067a.041.041,0,0,1,0,.026c-.025.081-.053.16.09.122,0,0,.049.088.037.123-.051.176.049.3.229.273.03,0,.062,0,.092,0Zm-1.735,2.167.025.016c-.028.072-.032.171-.083.206-.072.049-.072.056-.012.109.026.021.03.079.028.12,0,.011-.053.037-.074.03a.157.157,0,0,1-.1-.058c-.037-.09-.06-.185-.088-.268-.167.021-.16.125-.148.238l.159.1-.079.215-.025,0c0-.044,0-.088.007-.125a.371.371,0,0,0-.086-.076.161.161,0,0,0-.1,0c-.009,0-.016.039-.014.06.018.083.039.162.055.245a.051.051,0,0,1-.016.042c-.111.111-.028.238-.037.358,0,.06,0,.139-.039.171a.167.167,0,0,1-.213.035c.049-.049.055-.139.157-.085l.014-.1c-.051.014-.092.042-.125.032s-.046-.055-.072-.092l-.069.039c-.009-.037-.014-.067-.023-.095a.23.23,0,0,0-.049-.095c-.014-.012-.058,0-.081.018s0,.062,0,.065c.1.023.1.127.157.183s.058.1-.021.13a.243.243,0,0,0-.062.034l.062.009.069.028c-.016.028-.03.074-.049.074-.12.007-.067.125-.125.176.081-.053.123-.023.141.044.083-.049.153-.007.238.03l-.028-.088.1-.086c-.021-.032-.035-.058-.051-.078-.028-.042-.023-.076.025-.09.081-.023.1-.076.088-.155a.478.478,0,0,1,0-.1c.134.044.148.035.273-.162-.014-.014-.037-.023-.039-.037a.734.734,0,0,1-.018-.2c0-.023.065-.044.1-.055s.092-.018.139-.028c.023.023.058.079.083.074.095-.016.081.046.083.1a.462.462,0,0,0,0,.113c0,.014.039.023.06.032a1.073,1.073,0,0,0,.028-.146c0-.021-.028-.046-.025-.062.018-.086.007-.183.088-.245.014-.012.03-.035.028-.046-.035-.1.042-.116.095-.127.012-.049.007-.1.032-.125.046-.053.079-.1.023-.162.109-.1.109-.1.236.028l-.009-.291a.174.174,0,0,0,.039-.113c-.012-.069-.042-.141-.053-.215s.046-.16-.093-.2c-.1-.028-.176-.132-.284-.222,0,.055,0,.083,0,.109s0,.067-.016.076c-.09.046-.086.109-.037.187l-.083.046.039.06c-.116.009-.074.074-.055.132s.06.134-.046.162l.028.083-.086.026m-.458,2.692.018.016a.569.569,0,0,1-.1.109c-.051.035-.086.065-.062.132s.025.125.039.187a.069.069,0,0,0,.018.044l.042-.007a.056.056,0,0,0,0-.051.2.2,0,0,1,.026-.206c.014-.028.049-.042.074-.062.026.035.067.067.069.1a2.563,2.563,0,0,1-.014.261l-.044,0a.2.2,0,0,0-.227.248.273.273,0,0,1,0,.062l-.023.019a.764.764,0,0,1-.051-.09c-.009.086-.086.166.053.18.014,0,.03.037.039.058s.016.062.023.1l.025,0,.035-.079c.012-.03.012-.072.032-.083.049-.033.037-.065.021-.107a.17.17,0,0,1,.194-.229c.021,0,.062-.009.062-.021.014-.146.116-.079.192-.09.049-.009.129-.051.132-.083a1.438,1.438,0,0,0-.025-.312.294.294,0,0,0-.037-.076l-.072.046,0-.074c-.136.018-.134.018-.139.146a.06.06,0,0,1-.023.046.067.067,0,0,1-.049-.019c-.09-.069-.092-.085-.051-.226l-.18.055m-.856.018c-.106.03-.1.03-.127-.065a.06.06,0,0,0-.044-.037c-.049,0-.143.12-.139.18.03-.009.062-.016.083-.021.014.06.025.109.035.159,0,.023,0,.065-.012.067-.083.014-.106.079-.134.143,0,.009-.023.021-.03.019-.083-.032-.194.063-.264-.067a.176.176,0,0,0-.014.1c.012.037.044.067.051.1a.44.44,0,0,1-.012.155c0,.012-.062,0-.092.014a.09.09,0,0,0-.046.037.752.752,0,0,1-.046.086c-.039.037-.09.06-.127.095a.249.249,0,0,0-.032.088c.028,0,.067.012.086,0a1.07,1.07,0,0,0,.12-.129c.03-.035.058-.072.083-.1.037.028.072.069.09.062.065-.021.1.012.143.046a.3.3,0,0,0,.09.028.536.536,0,0,1,0-.086c0-.035,0-.095.016-.1.072-.03.092-.146.2-.113.009,0,.035-.025.035-.035a.188.188,0,0,1,.092-.2c-.03-.106-.058-.2-.09-.31l.088-.116m.18-3.09.023,0c.016-.072.03-.146.051-.234.044.042.088.065.092.095.016.132.109.083.171.09l.092-.215-.12.021c.012-.1,0-.185-.106-.222l.014-.062c.049,0,.076-.018.067-.067a.384.384,0,0,0-.044-.088c-.025.023-.055.046-.081.067-.09.037-.183.069-.289.111.111.153-.018.233-.092.338.072-.016.146-.049.155-.035a.605.605,0,0,1,.044.15.284.284,0,0,0,.023.055m-3.377-1.933c.15-.007.129.1.134.178s0,.187.083.247a.115.115,0,0,0,.076.028c.025-.009.065-.044.062-.062-.021-.118-.049-.236-.081-.351a1.036,1.036,0,0,0-.069-.146c-.025.007-.086.035-.067-.06,0-.014-.012-.03-.021-.046-.014.007-.039.012-.044.026a2.01,2.01,0,0,0-.074.187m2.826,6.578c-.014-.058-.021-.093-.032-.125,0-.011-.025-.021-.039-.032-.009.016-.028.032-.028.048a.593.593,0,0,0,.007.088.453.453,0,0,1-.021.16.14.14,0,0,0,.09.194c.009,0,.018-.009.03-.016l-.058-.083c.053-.014.09-.021.136-.035-.023.079,0,.109.055.088l.065-.155c-.12-.09-.03-.227-.019-.349l-.044-.009c-.044.069-.088.136-.143.227m.9-.317a1.043,1.043,0,0,0-.007.185.27.27,0,0,0,.044.1c.1-.035.1.074.148.109.051-.053.063-.1,0-.155a.053.053,0,0,1-.018-.039c.037-.157-.086-.28-.1-.426,0,0-.079-.021-.088-.007a.312.312,0,0,0-.032.111.2.2,0,0,1-.032.074.239.239,0,0,1-.067.049c.03,0,.06.007.09.007l.06-.009m-2.447-5.442.079-.127c.06.032.116.053.164-.03-.164-.018-.079-.153-.13-.224.12-.067.134-.12.067-.194-.224.206-.259.319-.18.576m1.145,1.543a.6.6,0,0,1,.109,0c.058.009.086-.007.053-.065-.058-.106-.12-.206-.183-.308-.007-.012-.035-.007-.051-.009l0,.042c.09.063.016.127-.007.183-.049.116.021.206.032.308h.039c0-.049.007-.092.012-.155m2.29,2.766c.039.042.1.106.155.171.023-.03.058-.072.088-.118a.085.085,0,0,0,.012-.069,1.786,1.786,0,0,0-.1-.178l-.109.039-.049.155m1.122-.106c-.032.042-.046.079-.074.092-.079.039-.051.107-.051.167,0,.014.018.03.025.046.016-.011.042-.016.049-.032.028-.062.065-.076.13-.049.016.009.051,0,.069-.021s0-.046-.016-.06c-.039-.049-.083-.09-.132-.143m-1.436-.252c.081.016.032.18.185.153l-.1-.095a.234.234,0,0,1,.06-.021c.067,0,.1-.009.051-.086a1.28,1.28,0,0,1-.116-.238c-.03.111-.053.194-.076.287m-1.526-2.849.028-.014c-.026-.021-.056-.065-.074-.06-.088.014-.1-.037-.109-.1-.076,0-.065.037-.062.083a1.23,1.23,0,0,1-.014.134c0,.039.012.076.014.113l.016,0,.049-.127.129.137c.009-.06.016-.111.023-.162m-.851-.238.021,0c.053-.106.111-.213.173-.338-.039-.014-.093-.051-.12-.037s-.049.074-.053.118c-.014.083-.014.169-.021.254m2.126,2.84c.046,0,.129-.072.125-.12s0-.111-.007-.167a.281.281,0,0,0-.028-.1.181.181,0,0,0-.062-.055.205.205,0,0,0-.018.081c.009.046.053.09.051.132a1.6,1.6,0,0,1-.06.234m2.65.68c.086-.026.164-.06.162-.143,0-.042-.065-.086-.1-.13l-.035.012c-.009.083-.016.166-.025.261m-4.158-1.816.035-.09c-.032-.007-.067-.03-.095-.023-.058.019-.037.06-.019.1.03.067.058.136.088.206a.1.1,0,0,0,.037.021c.012-.016.032-.042.03-.053-.023-.055-.051-.106-.076-.162m-2.262-3.848v.134a.944.944,0,0,0,.012.118c0,.014.023.023.039.035.009-.014.03-.025.03-.039,0-.06-.021-.127.051-.167l0-.035c-.018-.109-.09-.051-.127-.046m.414,1.933.044,0a.276.276,0,0,0,.012-.1c-.03-.095-.069-.185-.106-.273,0-.009-.03-.021-.037-.016s-.021.025-.019.034c.035.123.069.241.106.361m2.271,1.753c.056.051.095.088.137.125l.012-.018c-.019-.1-.039-.2-.058-.31-.125.032-.007.159-.09.2m1.91.287c-.088-.06-.157-.06-.169,0a.941.941,0,0,0-.012.141.042.042,0,0,0,.021.034.036.036,0,0,0,.039-.009c.042-.051.081-.106.12-.162m1.427,1.283c.069-.009.1-.012.136-.018a.418.418,0,0,0,.062-.035.248.248,0,0,1-.037-.058.311.311,0,0,1-.025-.065l-.019-.039a.044.044,0,0,0-.042.012c-.023.06-.046.123-.076.2m-6.184-4.207a.16.16,0,0,1,.1.224c-.007.021.028.051.044.076a.241.241,0,0,0,.026-.079.566.566,0,0,0-.012-.139c-.014-.079-.069-.1-.16-.083m1.76,2.343c-.086-.1-.113-.106-.2-.037-.014.009-.014.063,0,.076.081.083.132-.014.2-.039m2.146.937.014-.088.1.021.014-.032-.213-.109c-.016.125,0,.162.088.208m-1.154.2a.188.188,0,0,0,0-.035l-.139-.039a.563.563,0,0,0-.021.134.073.073,0,0,0,.1.069l-.014-.095.069-.035m-.039.273,0,.037a.842.842,0,0,0,.076.081c.065.049.088-.018.123-.049a.09.09,0,0,0,0-.062,1.734,1.734,0,0,0-.192-.007m.534-.58c-.088.062-.171.106-.176.227.053-.025.093-.081.141-.09.1-.023.058-.072.035-.136m-2.657-2.953c-.007-.081-.1-.139-.231-.134.042.109.13.118.231.134m1.27,4.422-.014-.063a.306.306,0,0,0-.06.021l-.028.026a.768.768,0,0,0-.069.1l.03.023a.658.658,0,0,0,.111-.065c.009-.007.014-.021.03-.044m.322-4.242-.023-.012c-.039.012-.109-.019-.106.058,0,.042.026.116.046.118.079.014.051-.067.069-.106a.287.287,0,0,0,.014-.058m1.018,3.869c-.021-.06-.037-.1-.056-.16a.227.227,0,0,0-.046.065.7.7,0,0,0,0,.074l-.021.079a.6.6,0,0,0,.09-.032.182.182,0,0,0,.037-.025m1.193-3.555a.178.178,0,0,0-.187.09.056.056,0,0,0,0,.051c.016.012.051.023.06.014.042-.044.076-.092.125-.155m-4.091-1,.039-.014c.055-.09.046-.167-.028-.18-.016,0-.058.03-.056.039a.9.9,0,0,0,.044.155m1.242,3.9-.023-.025-.083.019,0-.081-.035-.007c-.009.03-.03.067-.018.088a.377.377,0,0,0,.086.086l.072-.079m.863-1.526.018.053a.894.894,0,0,0,.136-.037l-.016-.09-.139.074m5.25,2.819c.021-.023.037-.046.058-.07s.053-.051.079-.074l-.116.009c-.025,0-.053.007-.081.012l0,.037c.058.009.1.028.056.086m-4.262,1.376a.671.671,0,0,0,0-.072l-.032-.009c-.037.039-.074.083-.106.125l.023.035.118-.079m-1.087-.4a.436.436,0,0,0,.086.021.04.04,0,0,0,.035-.021c0-.012-.012-.039-.014-.037a.4.4,0,0,0-.132.042c-.019.012-.007.062-.009.095h.03l0-.1m2.2-5.5-.021-.028-.143.055.111.09.053-.118m-1.6,5.037.03-.012c-.009-.039-.007-.088-.03-.116-.012-.011-.067.012-.1.019l0,.026c.035.03.069.055.106.083m.3-3.4-.037.15c.028-.007.06-.007.072-.023.03-.039.053-.083-.035-.127m2.065,2.736-.044-.062c-.067.037-.1-.012-.127-.069-.016.1.012.123.171.132m-2.995,1.587.032-.019-.051-.109c-.021.016-.058.028-.062.049-.021.072.037.069.081.079m-.092.351c.111-.009.125-.051.1-.109-.007-.016-.03-.03-.046-.046-.016.046-.035.095-.058.155m2.38-1.778c.046-.032.083-.046.086-.06a.18.18,0,0,0-.035-.088s-.058.011-.058.021a.7.7,0,0,0,.007.127m-1.933-.914-.03-.049c-.035.019-.072.033-.106.051.018.018.039.053.053.049a.292.292,0,0,0,.083-.051m-1.089-1.355.023.035a1.036,1.036,0,0,0,.125-.083l-.021-.088-.127.136m-.183-2.215.028-.011c.009-.042.021-.086.035-.15l-.081.016c0,.046.012.1.019.146m1.022,5.039c.044,0,.081,0,.118-.012a.038.038,0,0,0,.014-.069c-.042-.03-.12.016-.132.081m.678-1.492.021.016a.418.418,0,0,0,.09-.062c.014-.012.014-.037.018-.058-.021,0-.051-.007-.06,0a.991.991,0,0,0-.069.1m.34-2.415c-.007.065-.016.1-.016.141a.037.037,0,0,0,.014.032l.032,0a.332.332,0,0,0,.039-.106c0-.014-.035-.035-.069-.065m-1.526,4.218a.7.7,0,0,0,.106-.067l-.009-.046a1.218,1.218,0,0,0-.113.049l.016.065m.28-3.328-.042.018.03.123c.019-.021.053-.04.053-.06s-.028-.053-.042-.081m4.76,1.762-.122.072c.016.018.032.051.046.053.055,0,.088-.03.076-.125m-4.32,2.435c-.053-.021-.088-.032-.136-.051,0,.046.009.079.014.132l.123-.081m1.7-6.094-.007-.046-.107-.009.014.076.1-.021m-1,3.548.095.118.03-.012a.359.359,0,0,0-.037-.109c0-.009-.042,0-.088,0" transform="translate(-498.513 -704.204)" fill="#b5b4b2"/>
      <path id="Path_190" data-name="Path 190" d="M507.722,732.036c-.009.032,0,.088-.081.065.014.058.026.109.035.16a.107.107,0,0,1,0,.046,1.582,1.582,0,0,1-.079.231c-.014.03-.06.049-.092.069-.009.007-.026.009-.037.025l.032.009c.051-.016.053.016.044.046-.028.081-.06.162-.09.243a.383.383,0,0,0-.009.051l-.019.076-.016,0c-.009-.032-.014-.067-.025-.1a.1.1,0,0,0-.018-.035.134.134,0,0,0-.014.035c.007.037.018.072.023.109a.38.38,0,0,1,0,.125c-.016.065-.039.127-.063.192a.531.531,0,0,1-.025.053l-.018,0c0-.016,0-.035,0-.051.012-.044.023-.083.032-.125s-.014-.062-.058-.055a.236.236,0,0,1-.058,0c0,.072.046.143-.009.213a.719.719,0,0,1,.079.06.058.058,0,0,1,.007.049c-.019.058-.039.118-.058.176a.188.188,0,0,0,.1.178.537.537,0,0,1,.252.169.1.1,0,0,1,.007.088c0,.014-.044.023-.067.021-.06-.009-.065-.009-.055.055-.072.039-.125.088-.069.19l-.051-.014c-.028.081-.028.1,0,.146-.076.014,0,.129-.106.132l.021-.13.021-.132-.092-.092,0-.086-.014,0-.032.051c-.037-.023-.074-.037-.074-.093s-.032-.081,0-.123l-.009-.018-.025,0-.014.03c.018.076-.049.125-.067.19,0,.018-.025.032-.049.06l.16,0c-.035.025-.069.039-.076.063-.016.053-.065.092-.067.153,0,.035-.012.062.032.083a.07.07,0,0,1,.035.1c-.03.078-.025.09.046.139l.067-.009-.012.085.051.079a.11.11,0,0,0,.025-.148.172.172,0,0,1-.016-.074c0-.035-.009-.079.044-.083.081,0,.095.007.109.076a.488.488,0,0,0,.03.074l.018,0a.338.338,0,0,0-.012-.069c-.023-.049.025-.051.042-.074.007-.007.035,0,.062.014-.136.037-.012.095-.023.141l-.051.012.06.06a.619.619,0,0,0,.074-.092.336.336,0,0,0,.018-.1l.025-.007c-.051-.067-.1-.134-.157-.213l.03-.088c.012-.026.032-.055.028-.079-.016-.069.042-.1.067-.146.014-.023.039-.023.044.007.007.058.044.113-.014.169a.113.113,0,0,0-.023.074c0,.016.019.035.032.049s.032.023.055.042l.025-.009c.018.074-.067.049-.083.1.053,0,.1,0,.15-.009.007,0,.016-.026.014-.039-.007-.035-.023-.071.023-.095l0-.012a.863.863,0,0,0,.025-.171c0-.042-.007-.093-.074-.093-.012,0-.028-.025-.037-.042l.023-.032.039.034a.243.243,0,0,1,.065.03l.886.726a1.261,1.261,0,0,1,.123.1.838.838,0,0,1,.055.092c.062-.032.095.037.143.074l.146.113c.014.011.023.028.049.053h-.183l-.039,0c-.074,0-.095-.016-.1-.095a.032.032,0,0,0-.055-.03c-.007.012,0,.03,0,.044a.241.241,0,0,1,0,.072l-.046.007a.2.2,0,0,1-.03-.072.207.207,0,0,1,0-.053l-.023,0a.2.2,0,0,0-.018.051c-.009.065-.025.081-.09.081a1.019,1.019,0,0,1-.146,0c-.023,0-.039-.03-.053-.055h-.012c-.088.083-.2.046-.3.051a.654.654,0,0,1-.136,0c-.037,0-.072-.021-.109-.028s-.06,0-.095-.009c0,.032-.032.037-.072.037-.136,0-.273,0-.409-.009-.044,0-.079,0-.088.037-.1-.021-.192-.037-.282-.056a.491.491,0,0,0,.035-.062l-.012-.032-.03.018c-.055.086-.086.09-.16.028a.271.271,0,0,0-.072-.039c-.009,0-.028.012-.035.023a.335.335,0,0,0-.028.051.317.317,0,0,1-.012.092c-.046.127-.109.252-.143.384-.023.083-.074.153-.1.236s-.065.16-.095.24c-.072.19-.143.379-.215.567l-.021.044-.037-.028-.007.014a1.18,1.18,0,0,1-.021.18c-.007.03-.051.051-.081.081l.042,0c-.007.051-.014.1-.06.123-.016.007-.046-.009-.074-.016,0,.049.037.044.072.042a.058.058,0,0,1-.037.076c-.06.023-.067.035-.037.1l.009.03c-.03.072-.06.143-.095.224a.377.377,0,0,1-.032-.058c-.018-.06-.037-.12-.055-.183a.187.187,0,0,1,0-.178l0-.025c-.014-.081-.03-.16-.039-.241a1.327,1.327,0,0,1,0-.192c0-.012.009-.032.016-.032.072-.007.065-.074.088-.116s.053-.056.1-.023l-.069.072h.014l-.012.083.074-.016-.016-.079a.058.058,0,0,1,.039.095c-.025.03-.014.053,0,.083l.074-.069-.049-.116a.7.7,0,0,0,.1-.194c.016-.074.042-.143.062-.215a.212.212,0,0,0,0-.146.253.253,0,0,1-.021-.206l0-.023c-.065.044-.129.083-.187.13-.014.009-.023.058-.014.062.046.037.018.06-.014.081a.212.212,0,0,1,.042.03.142.142,0,0,1,.007.053.145.145,0,0,1-.046,0,.062.062,0,0,0-.09.035.289.289,0,0,0,.076,0c.039-.009.063-.007.06.042,0,.007.021.014.035.016l.056,0a1.141,1.141,0,0,1-.039.139.162.162,0,0,1-.06.078c-.03.014-.069,0-.106,0l-.062.077c-.023-.028-.018-.093-.079-.053a.118.118,0,0,1-.12.153c-.009,0-.03-.012-.032-.021-.032-.095-.062-.19-.095-.289.1-.016.06-.1.1-.162l-.095-.011c.039.093.039.093-.03.118l-.012.083c-.051-.049-.051-.083-.021-.111l-.032-.215-.06.042-.016-.014.032-.049c.007-.016.023-.035.021-.046-.079-.257-.16-.513-.238-.77a.079.079,0,0,0-.083-.06c-.164,0-.331-.016-.495-.023-.039,0-.079-.014-.106.028,0,0-.03,0-.042,0s-.046-.033-.069-.033c-.356-.023-.715-.044-1.071-.065-.2-.011-.409-.021-.613-.03l-.093-.009a.519.519,0,0,1,.051-.051c.132-.092.264-.185.393-.277a.234.234,0,0,0,.046-.06c.016-.03.023-.065.072-.039.032.016.035-.012.03-.037s-.009-.046,0-.049a.088.088,0,0,1,.062-.012.08.08,0,0,0,.093-.014q.479-.34.96-.68c.111-.081.222-.16.333-.238a.059.059,0,0,0,.03-.078c-.069-.264-.136-.53-.2-.8l-.012-.033-.016.012-.049.028c0-.023,0-.051.007-.07s.049-.053.056-.076a.348.348,0,0,1-.044-.081q-.166-.656-.333-1.309l-.018-.09.012-.007c.053.037.109.076.162.116.127.1.259.19.382.3.044.037.06.111.141.1.109.083.222.164.328.254.083.072.178.125.264.192s.176.136.264.2a.116.116,0,0,0,.042.014c.055.046.1.09.146.125s.049.035.039.076a.476.476,0,0,0,.113.039.118.118,0,0,1,.109.076c0,.009.046.014.063,0,.058-.032.113-.072.171-.109l.049-.03.046.13c.055-.021.06-.042.016-.079a.059.059,0,0,1,.009-.095c.058-.037.127-.065.16-.134l.049-.009.019-.062.055.028.34-.217c.028-.019.053-.037.081-.053a.342.342,0,0,1,.051,0,.414.414,0,0,1,0,.053c0,.03-.012.06-.014.09a.044.044,0,0,0,.018.035c.025.021.021.035,0,.053-.037.032-.046.065,0,.1s.049.055,0,.086l-.012.037a.191.191,0,0,0,.037,0l.019-.011c.028-.049.051-.042.086,0,.014.014.065-.007.093-.012l.09.074,0,.014c-.053-.007-.106-.014-.162-.018a.171.171,0,0,1-.009.046.266.266,0,0,1-.032.046c.012.042.016.083.03.123a.894.894,0,0,0,.042.081,1.112,1.112,0,0,1,.044.167c0,.058-.014.116.03.171l.058-.016a.221.221,0,0,1-.012-.046c0-.009,0-.021.007-.033l.026.026c0,.035.018.046.06.041l-.032-.1-.093-.009,0-.016a.334.334,0,0,1,.076-.037c.058-.014.074-.046.051-.1s-.046-.127-.069-.19v-.019a1.454,1.454,0,0,1,.18.016c.016,0,.023.044.037.079.012-.012.028-.023.032-.037a.065.065,0,0,0-.019-.049c-.042-.039-.023-.086-.019-.13a.483.483,0,0,0,0-.06c0-.03,0-.058,0-.086s0-.06-.018-.076c-.058-.067-.06-.065-.051-.136-.042,0-.039,0-.035.039a.242.242,0,0,1-.016.049l-.018-.037c-.039-.076-.012-.106.067-.106l.023-.03-.069.012a1.615,1.615,0,0,1-.007-.183c0-.014.025-.028.042-.049l-.028-.009a.253.253,0,0,0-.074.016.107.107,0,0,0-.039.046c-.012.042-.016.085-.06.106l-.035.007a.252.252,0,0,1-.065-.1c0-.058.053-.076.1-.1.012-.007.035.007.042,0a.68.68,0,0,1,.079-.083,1.547,1.547,0,0,1,.171-.1c.012-.007.028,0,.042,0l-.037.039,0,.014c-.016.049-.032.095.053.072a.134.134,0,0,1,.021.074c-.03.1.028.176.136.16.016,0,.035,0,.053,0Zm-1.025,1.279.016.009c-.016.044-.019.1-.049.122s-.042.033-.007.063a.117.117,0,0,1,.016.072c0,.007-.03.021-.044.018a.1.1,0,0,1-.058-.034c-.021-.053-.035-.109-.051-.157-.1.012-.095.072-.088.139l.095.058-.046.127-.016,0,0-.074c-.018-.016-.032-.037-.051-.044a.122.122,0,0,0-.058,0c-.007,0-.012.025-.009.037l.035.143-.012.025c-.065.065-.016.141-.021.213,0,.035,0,.081-.023.1a.094.094,0,0,1-.125.021c.028-.028.032-.081.093-.049l.007-.062c-.03.009-.056.025-.074.019s-.026-.03-.042-.053l-.042.023a.313.313,0,0,0-.014-.056.126.126,0,0,0-.028-.055c-.007-.007-.035,0-.049.009l0,.039c.058.014.058.076.092.106s.032.06-.014.076l-.037.023.037,0,.042.016c-.009.016-.018.044-.028.044-.072,0-.039.074-.074.1.046-.032.072-.014.083.026.049-.028.09,0,.139.019l-.014-.053.055-.051-.03-.046c-.016-.023-.014-.044.016-.053.049-.014.058-.046.051-.09a.547.547,0,0,1,0-.06c.081.028.088.021.162-.095l-.023-.023a.488.488,0,0,1-.012-.116c0-.014.039-.025.06-.032a.458.458,0,0,1,.081-.016c.014.011.035.046.049.042.055-.009.049.028.049.058a.623.623,0,0,0,0,.067l.037.021c0-.03.014-.058.016-.088,0-.012-.019-.026-.016-.037.012-.051,0-.109.053-.143l.016-.028c-.021-.06.023-.067.055-.076,0-.028,0-.058.019-.072.028-.032.046-.06.014-.1.065-.06.065-.06.139.016l0-.171a.112.112,0,0,0,.023-.067c-.007-.041-.025-.083-.032-.127s.028-.095-.053-.118c-.058-.016-.1-.079-.169-.132a.563.563,0,0,1,0,.065l-.009.046c-.053.026-.051.063-.021.109l-.051.028.025.035c-.069,0-.044.044-.035.079s.037.079-.025.095l.016.049-.053.016m-.268,1.589.009.009a.317.317,0,0,1-.058.065c-.03.021-.051.037-.037.076s.014.074.023.111l.012.028.023,0,0-.03c-.025-.044,0-.083.014-.122.009-.016.03-.023.044-.037.014.021.039.039.042.06a1.21,1.21,0,0,1-.009.155l-.025,0a.117.117,0,0,0-.134.146.1.1,0,0,1,0,.037l-.014.011-.03-.053c0,.051-.051.1.032.107l.023.035.014.055.016,0,.018-.046c.007-.016.007-.042.021-.049s.021-.039.012-.065a.1.1,0,0,1,.113-.134c.012,0,.037,0,.037-.012.007-.086.069-.046.113-.053s.076-.03.079-.049a.84.84,0,0,0-.016-.185.182.182,0,0,0-.021-.044l-.042.025,0-.044c-.081.011-.081.011-.083.088a.031.031,0,0,1-.014.025l-.028-.009c-.053-.042-.055-.051-.03-.134l-.106.032m-.5.012c-.065.019-.065.016-.076-.039a.033.033,0,0,0-.025-.021c-.03,0-.086.072-.083.106l.049-.012a.825.825,0,0,1,.021.092c0,.014,0,.039-.007.039-.049.009-.062.049-.079.086l-.018.012c-.049-.021-.113.037-.155-.039a.114.114,0,0,0-.007.06c0,.023.025.039.03.06a.315.315,0,0,1-.007.093c0,.007-.037,0-.056.007a.041.041,0,0,0-.025.023c-.012.014-.016.037-.028.049s-.055.035-.076.058a.113.113,0,0,0-.018.051c.016,0,.039.007.049,0a.8.8,0,0,0,.074-.076l.046-.06c.023.016.044.042.056.039.037-.014.058.007.083.025s.037.012.053.019c0-.019,0-.035,0-.053s0-.056.012-.06c.042-.018.055-.086.118-.067l.019-.021a.112.112,0,0,1,.056-.12l-.053-.183.053-.067m.1-1.825.014,0,.03-.139c.028.025.053.039.055.055.009.081.065.051.1.053l.056-.125-.069.012c0-.06,0-.109-.065-.13l.009-.039c.028,0,.044-.009.039-.039a.262.262,0,0,0-.025-.051l-.049.039-.169.065c.062.09-.012.139-.056.2l.09-.021a.324.324,0,0,1,.026.088l.014.032m-1.991-1.14c.088,0,.076.058.079.1s0,.111.049.146a.066.066,0,0,0,.046.019c.014-.007.037-.028.035-.037a1.964,1.964,0,0,0-.046-.208.429.429,0,0,0-.042-.086c-.016,0-.049.019-.039-.037l-.012-.025-.028.014c-.014.033-.025.067-.042.111m1.668,3.883c-.009-.037-.012-.055-.018-.074l-.023-.021a.082.082,0,0,0-.018.03c0,.016,0,.032,0,.051a.255.255,0,0,1-.012.095.081.081,0,0,0,.053.113l.018-.009-.035-.049.081-.021c-.014.046,0,.065.032.051l.039-.09c-.072-.053-.019-.134-.011-.206l-.028,0-.083.134m.532-.19a.983.983,0,0,0,0,.111.162.162,0,0,0,.028.06c.06-.021.055.042.086.065.03-.032.037-.062,0-.092l-.009-.023c.021-.092-.051-.164-.058-.252l-.053,0a.292.292,0,0,0-.019.067.145.145,0,0,1-.018.044.231.231,0,0,1-.039.028l.053,0,.035-.007m-1.445-3.21.049-.076c.035.018.067.032.1-.019-.1-.009-.049-.088-.076-.132.069-.039.079-.069.039-.113-.134.12-.155.188-.109.34m.678.909c.019,0,.042,0,.062,0s.053,0,.032-.037c-.035-.062-.069-.122-.109-.18l-.028-.007,0,.026c.053.037.012.074,0,.106-.03.069.012.123.019.183h.023l.007-.092m1.351,1.633.09.1c.014-.019.035-.044.053-.069s.014-.032.007-.042c-.019-.039-.039-.076-.056-.1l-.067.023-.028.09m.661-.062c-.018.025-.025.046-.042.056-.049.023-.03.062-.032.1l.016.028c.009-.007.023-.009.028-.021a.05.05,0,0,1,.076-.028c.009.007.032,0,.042-.011L507.56,735a.892.892,0,0,0-.079-.086m-.847-.148c.046.009.019.106.109.09l-.06-.055a.1.1,0,0,1,.035-.014c.039,0,.06,0,.03-.049a.881.881,0,0,1-.069-.141l-.044.169m-.9-1.681.018-.009c-.016-.011-.035-.039-.046-.034-.051.009-.06-.021-.062-.06-.046,0-.039.023-.037.051s-.007.053-.007.079a.329.329,0,0,0,.007.067l.009,0,.028-.076.079.081.012-.095m-.5-.141.012,0,.1-.2c-.023-.009-.056-.033-.072-.023s-.028.044-.032.069c-.007.049-.007.1-.012.15m1.256,1.675c.026,0,.074-.042.072-.069s0-.065,0-.1a.176.176,0,0,0-.014-.062c-.007-.014-.025-.023-.037-.032a.116.116,0,0,0-.012.049c0,.025.03.051.03.076a.982.982,0,0,1-.035.136m1.563.4c.051-.014.1-.035.095-.083,0-.025-.039-.053-.06-.076l-.021,0-.014.155m-2.454-1.071.018-.053c-.018,0-.039-.018-.056-.014-.032.012-.021.037-.012.06.019.039.035.081.053.123l.021.009.018-.03c-.014-.032-.03-.062-.044-.095m-1.335-2.271v.078a.332.332,0,0,0,.007.07l.021.021.018-.023c0-.037-.012-.074.03-.1l0-.023c-.012-.063-.053-.03-.074-.026m.243,1.14h.025c0-.021.014-.044.007-.062a1.4,1.4,0,0,0-.062-.162l-.021-.009-.012.021c.021.072.042.143.062.213m1.341,1.036.079.074.009-.012-.035-.185c-.074.021,0,.095-.053.123m1.126.169c-.051-.037-.092-.035-.1,0s0,.053-.007.081l.012.023.023-.007c.025-.03.049-.062.072-.095m.842.756a.631.631,0,0,0,.081-.012.109.109,0,0,0,.037-.019l-.023-.034-.014-.039-.012-.021-.023,0-.046.12m-3.65-2.482a.093.093,0,0,1,.06.132c0,.012.016.03.028.046a.207.207,0,0,0,.014-.046.327.327,0,0,0-.007-.083c-.009-.046-.042-.06-.095-.049m1.038,1.383c-.049-.06-.067-.062-.118-.023v.046c.046.049.076-.009.118-.023m1.267.553.009-.053.058.014.007-.021-.125-.063c-.012.072,0,.095.051.123m-.68.116v-.021l-.081-.023a.332.332,0,0,0-.012.079.042.042,0,0,0,.058.042l-.007-.058.042-.018m-.023.159,0,.023a.223.223,0,0,0,.046.046c.037.03.051-.009.072-.028l0-.037c-.039,0-.076,0-.113,0m.315-.342c-.053.037-.1.065-.1.134.032-.014.053-.046.083-.053.058-.014.035-.042.021-.081m-1.57-1.744c0-.046-.06-.081-.134-.079.023.065.076.072.134.079m.749,2.611-.007-.037-.035.012-.016.016a.36.36,0,0,0-.042.06l.019.014a.585.585,0,0,0,.065-.039l.016-.025m.192-2.5-.014-.007c-.023.007-.065-.011-.062.032,0,.025.014.069.028.072.046.007.03-.039.039-.062l.009-.035m.6,2.283-.032-.095a.209.209,0,0,0-.028.039c0,.012,0,.028,0,.044l-.012.046a.342.342,0,0,0,.053-.021l.021-.014m.705-2.1a.109.109,0,0,0-.111.053l0,.03c.009.007.03.014.035.009a1.178,1.178,0,0,0,.074-.092m-2.415-.592.023-.009c.032-.053.028-.1-.016-.106-.009,0-.035.018-.032.023a.591.591,0,0,0,.025.093m.733,2.3-.014-.014-.049.009v-.046l-.021,0c0,.016-.016.039-.012.051a.358.358,0,0,0,.051.051l.044-.046m.509-.9.012.032a.4.4,0,0,0,.079-.023l-.009-.053-.081.044m3.1,1.665.032-.042.046-.044-.067.007-.049,0,0,.023c.035,0,.06.016.035.051m-2.516.812c0-.018,0-.03,0-.041l-.019,0a.608.608,0,0,0-.062.072l.014.021.069-.046m-.641-.233a.3.3,0,0,0,.049.012l.021-.012-.007-.023a.266.266,0,0,0-.079.026c-.012.007,0,.035,0,.055h.018l0-.058m1.3-3.25-.011-.016-.086.033.065.053.032-.069m-.944,2.972.016,0a.152.152,0,0,0-.019-.069l-.06.012,0,.014.065.049m.176-2.008-.023.088c.016,0,.037,0,.044-.014s.03-.049-.021-.074m1.217,1.614-.023-.037c-.042.021-.06-.007-.076-.042-.009.058.007.072.1.079m-1.767.937.021-.012-.03-.065c-.014.009-.035.016-.037.03-.014.042.021.039.046.046m-.053.208c.065-.007.074-.03.06-.065,0-.012-.016-.019-.025-.028l-.035.093m1.4-1.052.051-.035a.1.1,0,0,0-.021-.051l-.035.011a.474.474,0,0,0,0,.074m-1.143-.539-.016-.028-.062.03.03.03a.18.18,0,0,0,.049-.033m-.641-.8.012.021a.417.417,0,0,0,.074-.049l-.012-.051-.074.079m-.109-1.307.016-.007.021-.088-.049.009c0,.028.007.058.012.086m.6,2.974a.609.609,0,0,0,.069-.007l.019-.016-.009-.023c-.025-.019-.072.009-.079.046m.4-.881.012.011a.306.306,0,0,0,.053-.037l.012-.035-.037,0a.514.514,0,0,0-.039.058m.2-1.422c0,.037-.009.06-.012.081l.009.019h.018a.233.233,0,0,0,.023-.062l-.039-.037m-.9,2.489a.356.356,0,0,0,.062-.039l0-.028a.339.339,0,0,0-.067.028l.009.039m.164-1.966-.023.011.019.074c.012-.014.03-.026.03-.037s-.016-.03-.025-.049m2.81,1.041-.072.044.028.03c.032,0,.051-.016.044-.074m-2.549,1.438-.081-.03.007.076.074-.046m1-3.6,0-.028-.065-.007.009.046.058-.012m-.59,2.093.058.069.016-.007a.178.178,0,0,0-.021-.062c0-.007-.025,0-.053,0" transform="translate(-502.354 -697.627)" fill="#b5b4b2"/>
      <path id="Path_191" data-name="Path 191" d="M584.827,716.675c3.469,0,6.938.139,10.384.44-.648,1.873-1.318,3.839-2.035,5.875-1.827-.208-3.677-.393-5.527-.486l-4.233-.254h-.208l-4.047-.093c-22.642-.254-45.585,4.3-66.307,14.617,19.335-12.859,42.81-19.289,66.261-20.029C581.011,716.675,582.93,716.652,584.827,716.675Z" transform="translate(-488.571 -716.666)" fill="#b5b4b2"/>
      <path id="Path_192" data-name="Path 192" d="M538.642,725.287l-31.9,7.249,46.912-13.566.829,1.45Z" transform="translate(-496.588 -713.642)" fill="#b5b4b2"/>
    </g>
    <path id="Path_193" data-name="Path 193" d="M611.179,740.047l30.929-20.435-20.435,17.674Z" transform="translate(-607.436 -3338.219)" fill="#b5b4b2"/>
  </g>
</svg>
