<svg xmlns="http://www.w3.org/2000/svg" width="153.987" height="111.537" viewBox="0 0 153.987 111.537">
  <path id="Path_2751" data-name="Path 2751" d="M2554.532,1774.525c-.111-.219-.206-.374-.257-.463-2.2-3.839-5.4-2.947-9.091-6.05-4.66-3.922-2.417-7.691-6.122-12.589a.417.417,0,0,0-.06-.081,15.316,15.316,0,0,0-1.125-1.31c-.317-.2-.633-.389-.943-.572,1.015-.921,3.112-2.85,4.251-4.138.119-.142.236-.273.33-.4a8.357,8.357,0,0,0,1.023-1.627l1.109-3.643a21.4,21.4,0,0,0,.02-6.078,25.28,25.28,0,0,0-1.3-5.44,13.335,13.335,0,0,0-1.542-3.06,2.9,2.9,0,0,0-.117-.5c-.493-.381-.671-.831-1.156-1.205l-.221.389-.8,2.9.593-2.952.074-.4-.588-.1a17.95,17.95,0,0,1-.73,2.209c.193-.926.412-2,.4-2.022.008-.06.008-.06-.028-.127a.768.768,0,0,0-.839.442c-.222.384-.369.958-.589,1.332-.074.391-.153.766-.235,1.119l.089-.015a4.364,4.364,0,0,0-.162.669,15.319,15.319,0,0,1-2.247,6c-.076.125-.157.244-.237.361-.927,1.323-2,2.341-2.941,3.49-.263.323-.522.654-.758,1.009a9.345,9.345,0,0,0-1.279,2.774,1.738,1.738,0,0,0-.051.169,9.61,9.61,0,0,0-.219,1.141,9.437,9.437,0,0,0-.087,1.25l-.17.008-.28.016h-.021l-.383.021-.662.03-.31.013-.293.017v.013a.016.016,0,0,1-.017-.013h.017c0-.007-.015-.007-.015-.007a26.141,26.141,0,0,0-3.627-7.756c-.425-.625-.9-1.258-1.413-1.883a15.31,15.31,0,0,1-1.658-3.443,15.141,15.141,0,0,1-.671-2.944,14.435,14.435,0,0,1-.132-1.838,2.285,2.285,0,0,0-1.1-1.685,2.2,2.2,0,0,0-.686-.264,1.7,1.7,0,0,0-.346-.038,1.242,1.242,0,0,0-.28.008,2.272,2.272,0,0,0-1.729,1.067c-.346.544-.72,1.142-1.111,1.782q-.349.589-.724,1.23c-.214.361-.428.737-.649,1.118-.389.692-.793,1.423-1.2,2.189-.353.653-.706,1.337-1.065,2.044-.134.273-.274.546-.4.819-.443.882-.824,1.67-1.163,2.39-.3.626-.564,1.208-.8,1.751a19.541,19.541,0,0,0-1.144,3.454c-1.849.059-4.335.136-7.256.151-1.759.008-3.445,0-5.048-.026-.2-.007-.4-.008-.6-.015-.006.007-.013.008-.02,0-1.319-.023-2.578-.051-3.761-.086a1.38,1.38,0,0,0-.162-.008c-.286-.006-.573-.021-.854-.028-1.553-.058-2.98-.125-4.253-.19-1.591-.087-2.944-.183-4.021-.262-1.111-.081-1.925-.147-2.4-.19-1.135-.1-2.164-.2-3.112-.3-1.656-.177-3.05-.353-4.278-.528-.072-.017-.147-.021-.222-.038-.358-.051-.7-.1-1.029-.153-4.372-.7-6.609-1.38-11.945-1.907-1.169-.117-2.487-.219-4.009-.322l-1.444-.089c-.1,0-.215-.005-.323-.013-.465-.021-.926-.043-1.376-.066-5.372-.224-9.957-.142-11.959-.1a89.234,89.234,0,0,0-9.058.432c-2.082.275-14.085,1.93-21.858,12.31-.5.669-9.985,13.973-4.253,28.445a28.117,28.117,0,0,0,9.5,12.172,60.211,60.211,0,0,0,.283,8.3c.058.536.117,1.022.185,1.5.244,1.642.569,3.091.945,5.366-.266-2.216-.414-5.484.4-6.417-.534,6.32,1.054,12.089,2.982,17.917.237.706.481,1.419.724,2.133a10.159,10.159,0,0,1-.949-1.464,10.6,10.6,0,0,1-1.01-2.781c-.643-2.42-1.24-4.738-1.777-7.176.826,4.96,1.395,8.14,2.03,10.759.065.287.14.567.214.839a44.618,44.618,0,0,0,1.332,4.281c.133.361.265.716.4,1.053a57.955,57.955,0,0,0,2.642,5.819,12.465,12.465,0,0,0,3.793,1.368c.338.058.7.109,1.067.145.1.008.2.016.3.021.03,0,.058.008.088.008.324.015.633.021.936.013a4.27,4.27,0,0,0,.463-.013,11.38,11.38,0,0,0,1.825-.244c.155-.03.3-.068.448-.1.236-.06.463-.127.678-.193a12.207,12.207,0,0,0,1.4-.522.92.92,0,0,0,.442-1.281,16.749,16.749,0,0,1-1.2-3.208c-.01-.031-.023-.068-.031-.1-.153-.531-.318-1.134-.493-1.818-.061-.25-.127-.508-.193-.78-.119-.5-.242-1.075-.369-1.714-.1-.544-.213-1.132-.308-1.765-.2-1.215-.371-2.577-.481-4.034a42.426,42.426,0,0,1,0-7.314c0-.008,0-.008,0-.008.036-.544.1-1.09.178-1.634a8.219,8.219,0,0,1,1.358-3.481l.457.176a31.8,31.8,0,0,0,1.556-4.437.877.877,0,0,1,.061-.125,5.266,5.266,0,0,0,.322-1.457c.044-.287.082-.589.14-.905a2.888,2.888,0,0,1-.9.021c-.17-.353-.244-.816-.92-.889-.046-.008-.244.007-.5.021a6.56,6.56,0,0,0-.648.537c-.142.134-.282.289-.427.448l-.125-.013-.11-.015.036-.082.25-.5.294-.59-.31-.035a.952.952,0,0,0-.839.257.176.176,0,0,0-.051.043,3.913,3.913,0,0,1-.368.384c-.079.111-.163.228-.235.338-.177.25-.345.509-.5.766s-.316.5-.457.752c-.646,1.1-1.2,2.222-1.726,3.363-.222.465-.433.936-.647,1.406-.081,1.009-.124,2.164-.122,3.482a23.184,23.184,0,0,1,2.021-3.968q-.981,2.671-2.021,5.338c.038,2.751.216,6.137.58,10.273v.006c.066.778.14,1.589.221,2.427.091.9.185,1.833.282,2.8a.073.073,0,0,1,.006.036c.03.279.068.561.1.854.006.045.006.1.013.14a2.54,2.54,0,0,1-.9,1.193,2.277,2.277,0,0,1-1.406.442,2.427,2.427,0,0,1-2.143-1.455c-.138-.369-.278-.75-.412-1.149-.664-1.84-1.386-3.979-2.056-6.386-.089-.31-.178-.626-.265-.948-.023-.091-.053-.185-.074-.282-.153-.551-.325-1.2-.5-1.948a98.855,98.855,0,0,1-1.867-9.712,41.572,41.572,0,0,1-.424-8.926c.167-2.547.447-3.951-.477-6.623-2.2-6.35-6.19-5.868-9.094-11.5-3.961-7.69-1.769-18.764,3.547-25.677,7.693-9.978,21.91-10.373,24.611-10.377,0,0,.11,0,.323,0,6.706.018,12.372.031,15.749.051.839.007,1.539.013,2.075.02,1.6.03,3.137.073,4.607.139,2.031.1,3.936.219,5.7.358q1.6.118,3.046.264c1.118.1,2.164.211,3.129.313.933.1,1.8.2,2.575.287.948.1,1.853.213,2.751.321,1.274.147,2.517.3,3.821.44,1.279.145,2.62.285,4.1.409,1.378.125,2.863.234,4.541.33.33.021.655.044.971.058.34.021.669.036,1,.053l.058,0c1.309.058,2.531.086,3.76.073,1.436-.017,2.863-.107,4.408-.269a51.437,51.437,0,0,0,8.58-1.652,18.867,18.867,0,0,0-.322,5.266,12.359,12.359,0,0,0,1.52,4.937,12.743,12.743,0,0,0,1.245,1.788,9.05,9.05,0,0,1-1.291-3.089,42.779,42.779,0,0,0,2.622,4.436c.007.015.022.021.03.03v.007a12.8,12.8,0,0,0,1.009.8c.308.1.617.19.928.292-.04-.044-.076-.094-.112-.138a20.318,20.318,0,0,1-3.351-6.277,33.942,33.942,0,0,0,3.668,5.923c.015.015.03.036.044.051.17.229.344.457.531.684.663.208,1.323.42,1.986.625a.627.627,0,0,0,.722-.236c-.692-.771-1.348-1.566-1.952-2.39a18.467,18.467,0,0,1-2.741-5.135,23.809,23.809,0,0,0,3.043,4.789c.074.094.155.185.227.289l1.283,1.721.278.374a.719.719,0,0,0-.153-.508c-.29-.361-.59-.765-.883-1.215a16.712,16.712,0,0,1-1.747-3.274c-.007-.013-.009-.022-.015-.036-.146-.367-.293-.757-.419-1.154a16.837,16.837,0,0,1-.715-3.252c-.023-.17-.038-.346-.053-.516-.045-.514-.068-1.009-.066-1.5v-.008a16.693,16.693,0,0,1,.351-3.437,18.758,18.758,0,0,1,2.792-6.631,1.111,1.111,0,0,1,.5-.406,1,1,0,0,1,.436-.1,1.125,1.125,0,0,1,.787.3,20.57,20.57,0,0,1,1.636,1.591c.155.162.308.323.456.5.028.038.066.076.094.11.178.206.361.42.539.649.344.419.758.94,1.194,1.564a17.6,17.6,0,0,1,2.5,5.092c.066.214.125.442.183.669a15.5,15.5,0,0,1,.465,2.494c.017.155.03.31.044.471a.566.566,0,0,1,.007.14c0,.03.008.059.008.087.03.348.045.709.046,1.1,0,.066,0,.132,0,.208,0,.226,0,.461-.013.705a2.144,2.144,0,0,0,.875,1.912l-.2,1.383.949-1.1.147-.17-.008.191-.124,2.188.487-1.576c.013.038.013.067.023.1.2,1.559.33-.684.33-.684l.582.536,1,.913-.826-2.1.023-.021a.45.45,0,0,0,.058-.083l1.353,1.154-1.126-1.507,0-.008a2.181,2.181,0,0,0,.191-.508c.005-.147.022-.293.022-.448.042-.692.051-1.442.021-2.243a.036.036,0,0,1,0-.015q-.034-.818-.134-1.7c-.046-.429-.112-.87-.186-1.317-.03-.178-.058-.354-.1-.547.016.076.038.142.059.216.183.079.361.16.531.242h.007c.074.038.147.074.213.1.038.023.074.036.1.053a26.3,26.3,0,0,1,3.836,2.219c.1.074.2.14.292.213a18.3,18.3,0,0,1,2.859,2.545,15.324,15.324,0,0,1,2.026,2.825c.14.272.28.529.4.786,2.306,4.915,1.587,9.117,4.915,12.463a12.7,12.7,0,0,0,4.771,2.97c7.375,2.7,2.323,7.828,2.323,7.828s-2.235,3.307-19.211,4.53a32.118,32.118,0,0,1-6.882-.254,22.3,22.3,0,0,0-15.423,3.158.983.983,0,0,1-.127.087,17.4,17.4,0,0,0-7.562,14.231q-.119,6.51-.234,13.017-.089,5.044-.181,10.1c-.041,2.369-.084,4.746-.127,7.115a1.982,1.982,0,0,1-1.92,1.085,1.938,1.938,0,0,1-1.317-.684,1.99,1.99,0,0,1-.377-.641q-.367-6.523-.729-13.039c0-.119-.012-.236-.028-.354-.044-.514-.1-1.022-.193-1.522q-1.063-6.169-2.118-12.342c-.523-1.662-.973-3.068-1.357-4.258a.044.044,0,0,0-.015-.036c-2.05-6.277-2.563-6.726-3.086-7.1a266.993,266.993,0,0,1-30.164,1.576c-7.072-.033-13.763-.344-20.031-.842l-.059-.007-10.23-1.047,3.107.58,3.951.733-3.275-.285-7.138-.628,7.779,1.04,1.51.2-.4.177-4.472,2,9-1.174a158.9,158.9,0,0,0,47.48.717c.031.3.068.744.134,1.279a48.764,48.764,0,0,0,1.411,7.1s.62,2.849,1.879,8.043c.26,1.068.49,2.326.739,3.928.391,2.548.836,5.962,1.485,10.893.4,3,.7,5.511.9,7.231a14.475,14.475,0,0,0,1.833,1.082.126.126,0,0,0,.036.015,14.926,14.926,0,0,0,1.538.653c.117.045.242.083.356.119.389.133.74.227,1.052.3a10.829,10.829,0,0,0,3.892.19c.3-.046.6-.1.877-.157-.061-2.471-.231-4.973-.381-7.543l-.9-8.094a7.079,7.079,0,0,0-.346-1.729,2.683,2.683,0,0,1,.546,1.236c.229,2.1.6,4.063.849,6.335a68.888,68.888,0,0,1,.61,9.708c.293-.066.565-.142.831-.223-.059-1.92-.033-3.679-.107-5.621-.074-2.061-.369-4.268-.451-6.322l-.089-.816a6.323,6.323,0,0,1,.008-.824c.073.641.279,1.147.353,1.788.414,3.788.7,7.637.786,11.633.251-.081.478-.162.692-.242a1.72,1.72,0,0,0,.971-.885,1.788,1.788,0,0,0,0-1.53.48.48,0,0,1-.036-.089,22.324,22.324,0,0,1-1.644-5.356,26.444,26.444,0,0,1-.3-4.879c.02-2.8.167-5.283.313-7.146.138-1.757.292-2.958.334-3.333,1.248-9.877,1.981-14.793,3.915-17.369a16.233,16.233,0,0,1,6.134-4.838,15.657,15.657,0,0,1,1.655-.62,37.039,37.039,0,0,1,11.311-1.212s13.819.381,22.112-4.024c.321-.17.646-.346.771-.419.03-.015.051-.023.051-.023s.582-.331,1.075-.648c.051-.038.109-.068.162-.1a22.834,22.834,0,0,1,4.159-9.48,10.114,10.114,0,0,0-.56-1.3m-127.895,42.517-.184-.023c.948-2.649,1.976-5,2.866-7.484l.419.043c-1.139,2.458-1.977,5-3.1,7.464m-10.95-13a2.042,2.042,0,0,0,.308-.9.363.363,0,0,0,.332.06,26.1,26.1,0,0,0,.417,8.867c.509,2.4,1.084,4.657,1.732,7.021.134.47.265.939.4,1.421a3.437,3.437,0,0,1-.56-1.06,2.119,2.119,0,0,1-.109-.531,42.123,42.123,0,0,1-2.517-12.569,10.072,10.072,0,0,1,0-2.31m-10.771-21.429a33.246,33.246,0,0,1-.783-19.524,39.724,39.724,0,0,0,3.938,25.768,30.72,30.72,0,0,1-3.155-6.244m.875-2.423a32.909,32.909,0,0,0,2.608,6.887,29.789,29.789,0,0,1-4.063-16.047q.233,1.336.465,2.672a32.571,32.571,0,0,0,.99,6.488m5.718-27.657a35.041,35.041,0,0,1,13.232-8.412,35.412,35.412,0,0,1,21.348-.63c-19.833-1.3-30.052,4.911-34.58,9.042m56.018-7.294a20.332,20.332,0,0,1-5.969-2.013l10.281,2.275a20,20,0,0,1-4.312-.262m20.783,1.792a122.279,122.279,0,0,1-19.149-2.39c7.426,1.042,28.972,2.054,28.972,2.054s-.992.463-9.823.336m21.683-7.306c-.221.612-.412,1.238-.6,1.865-.491,1.661-.917,3.333-1.469,4.79a37.738,37.738,0,0,1,1.807-7.059,20.909,20.909,0,0,1,1.072-2.371,17.781,17.781,0,0,1,1.742-2.687c.208-.272.429-.544.671-.81-.25.376-.492.748-.728,1.134a30.206,30.206,0,0,0-1.917,3.7c-.213.47-.4.956-.573,1.434m1.7-.376a23.285,23.285,0,0,0-.955,2.23,14.7,14.7,0,0,1,1.125-3.313v-.013c.235-.508.485-1.009.742-1.479a6.931,6.931,0,0,1,2.245-2.748c-.877,1.325-1.723,2.621-2.472,4q-.364.648-.684,1.324m1.7,1.559c.867-1.812,1.426-4.091,2.882-5.212Zm11.71,14.034c-.089.949-.2,1.678-.221,1.848.066-.6.124-1.253.138-1.973a20.9,20.9,0,0,0-.1-2.553,20.57,20.57,0,0,0-.562-3.112c.986.888.913,3.818.74,5.791m.389.587a5.169,5.169,0,0,1-.236.922l.11-1.1.233-2.26a11.881,11.881,0,0,1-.107,2.443m17.315-14.8a29.408,29.408,0,0,1-2.329,7.853c.794-2.532,1.5-5.145,2.329-7.853m-.6-2.664a32.2,32.2,0,0,1-2.451,9.981,69.9,69.9,0,0,0,2.451-9.981m-4.36-8.606a.125.125,0,0,0,.028-.046c-.087.442-.183.869-.249,1.141.036-.219.117-.574.221-1.095m-1.373,20.663c-.308.384-.61.729-.9,1.039-.316.346-.625.641-.9.9-.824-.506-1.648-1.015-2.481-1.523a.063.063,0,0,0-.029-.013c-.663-.412-1.317-.809-1.98-1.207a17.717,17.717,0,0,1,1.683-4.54c.045-.074.081-.163.124-.244.177-.323.374-.7.627-1.1a15.17,15.17,0,0,1,1.258-1.759,12.963,12.963,0,0,1,1.19-1.238,20.857,20.857,0,0,0,2.855-2.575c.933-1.134,1.1-1.724,1.375-1.68.75.139,1.187,4.614,0,8.595-.087.3-.183.59-.293.875a15.567,15.567,0,0,1-.632,1.5,16.708,16.708,0,0,1-1.4,2.324q-.245.344-.48.64l-.006.008m-73.7,48.323a138.624,138.624,0,0,1-23.2-2.09,143.14,143.14,0,0,0,39.74-.025q.4.554.794,1.119a139.005,139.005,0,0,1-17.33,1m29.447,34.277c-.3-2.738-.479-5.255-.783-7.991a19.423,19.423,0,0,0-.326-2.906,6.526,6.526,0,0,0,.073-.722l.1-.007c.043.4.219.682.272,1.147.259,2.333.371,4.673.645,7.18.214,1.92.312,3.681.526,5.6l.081.758a6.312,6.312,0,0,1-.59-3.061m1.015-2.173-.224-3.87-.216-3.745c.14,1.281.282,2.56.467,3.775a12.193,12.193,0,0,1-.026,3.841m13.161-33.975s3.094-5.006,6.914-6.522Zm1.911-3.622a26.956,26.956,0,0,0-6.653,11.336s1.971-14.763,14.488-16.807a26.554,26.554,0,0,0-7.835,5.471m44.906-9.717a17.985,17.985,0,0,1,2.314-5.549,8.543,8.543,0,0,0-.391-1.731,29.673,29.673,0,0,0-2.667,5.425c-.419,1.187-.765,2.422-1.109,3.623a10.324,10.324,0,0,0,3.9-4.537,6.091,6.091,0,0,0,.316-2.039,26.8,26.8,0,0,0-2.36,4.807" transform="translate(-2401.587 -1727.201)" fill="#b70011"/>
</svg>
