<svg id="Capa_1" data-name="Capa 1" xmlns="http://www.w3.org/2000/svg" viewBox="0 0 266.65 108.48"><defs><style>.cls-1,.cls-7{fill:#2f4d9b;}.cls-1,.cls-2,.cls-3{fill-rule:evenodd;}.cls-2{fill:#fff;}.cls-3,.cls-5{fill:#e31f1c;}.cls-4{fill:none;}.cls-6{fill:#ffdf5c;}</style></defs><title>LOGO</title><path class="cls-1" d="M127.72,141.5c-6.37,0-11.38-1-14.89-3-4.4-2.47-6.83-6.22-6.83-10.57a10.31,10.31,0,0,1,2.73-7.14c.16-.17.33-.34.51-.5a8.25,8.25,0,0,1-.33-2.3A8.93,8.93,0,0,1,111,112.3l-.13-.14a12.26,12.26,0,0,1-1-1.25,12.64,12.64,0,0,1-2.26-7.44,12.92,12.92,0,0,1,2.23-7.39,15.84,15.84,0,0,1,4.45-4.27c3.49-2.3,8.12-3.53,13.77-3.66h2c.8,0,1.62,0,2.41.11a33.77,33.77,0,0,1,4.23.58,21.29,21.29,0,0,1,4.4,1.48h.48c4,0,6.68-.06,7.86-.17L151,90a2.3,2.3,0,0,1,1.82.63l4.73,4.57a1.12,1.12,0,0,1,.06,1.55l-2.82,3.16a25.16,25.16,0,0,0-1.92,2.53l-.95,1.4a2.32,2.32,0,0,1-1.91,1h-1.85a13.21,13.21,0,0,1-2.94,6.11,12.78,12.78,0,0,1,1.43.41,11.32,11.32,0,0,1,5.4,4.11,12.14,12.14,0,0,1,2.16,7.22c0,5.61-2.8,10.46-8.09,14-4.57,3.09-10.58,4.69-17.84,4.76h-.51Zm-3-14.32a12.62,12.62,0,0,0,3.58.48h.56a15,15,0,0,0,4-.47l-3.56,0Zm3.78-23.4a5.58,5.58,0,0,0,0-.67,6.9,6.9,0,0,0-.09-1.16h-.27l-.36,0a8.74,8.74,0,0,0,.18,1.81h.5Z" transform="translate(-30.99 -36.6)"/><path class="cls-1" d="M103.84,126.45c-4.24-.12-7.53-.17-9.79-.17-1.19,0-4.56,0-10,.17l-4.31.09a1.3,1.3,0,0,1-1.33-1.31V114.48a1.31,1.31,0,0,1,1.28-1.32l3.84-.09a.57.57,0,0,0,.55-.55c0-1,0-2.16,0-3.68s0-3.15-.1-4.56h0a.57.57,0,0,0-.55-.55L79,103.6a.57.57,0,0,1-.55-.57V91.38a.56.56,0,0,1,.53-.57l4.67-.28a49.3,49.3,0,0,0,12.64-2.1l1.51-.51a2.18,2.18,0,0,1,1.89.23l3.94,2.51a2.19,2.19,0,0,1,1,2.06l-.19,2c-.31,3.42-.47,8.49-.47,15.07,0,1.08,0,2,0,2.71a.56.56,0,0,0,.53.56l3.59.21a1.52,1.52,0,0,1,1.43,1.52v10.25a1.5,1.5,0,0,1-1.54,1.5Z" transform="translate(-30.99 -36.6)"/><path class="cls-2" d="M103.91,123.81c-4.25-.11-7.57-.17-9.86-.17-1.22,0-4.61.06-10.06.17l-2.13,0a.81.81,0,0,1-.82-.8v-6.51a.8.8,0,0,1,.78-.8l2,0c.84,0,1.5,0,2-.08a.8.8,0,0,0,.76-.74c.06-1.11.12-3,.12-6,0-1.67,0-3.25-.1-4.69l-.07-2.22a.79.79,0,0,0-.77-.77l-4-.12a.8.8,0,0,1-.78-.8V94.08a.81.81,0,0,1,.76-.8l2-.11a51.82,51.82,0,0,0,13.32-2.24l1-.32a.79.79,0,0,1,.69.08l2.81,1.79a.8.8,0,0,1,.36.75l-.12,1.27c-.32,3.5-.48,8.66-.48,15.31,0,2.45,0,4,.07,5a.8.8,0,0,0,.74.76c.53,0,1.2.09,2,.14l2,.12a.79.79,0,0,1,.75.79v6.46a.8.8,0,0,1-.82.8Z" transform="translate(-30.99 -36.6)"/><path class="cls-1" d="M57.12,94.89h.06a4.85,4.85,0,0,0,.57,0,3.88,3.88,0,0,0,2.77-.81,1.6,1.6,0,0,0,.33-.37,2.4,2.4,0,0,0,.27-.9,5.47,5.47,0,0,0,0-.6c0-1.65-.44-2-.61-2.14a5.25,5.25,0,0,0-3.08-.84.57.57,0,0,0-.61.55c-.06,1.74-.11,3.41-.15,5ZM77,100.36a15.25,15.25,0,0,1-2.51,2.34,26.91,26.91,0,0,1-14.71,4.47,21.7,21.7,0,0,1-2.49-.15l-.45,0c0,1.44.08,3.08.13,4.91,0,.05,0,.4,0,.4,0,.34,0,.65,0,.94a.55.55,0,0,0,.52.54l2,.11,3,.13A1.63,1.63,0,0,1,64,115.63v8.52a1.62,1.62,0,0,1-1.67,1.62l-3.2-.1c-4.1-.13-7.61-.19-10.43-.19-.9,0-3.86,0-12.9.2l-3.15.06A1.63,1.63,0,0,1,31,124.11v-8.45A1.62,1.62,0,0,1,32.52,114l2.92-.17.9-.06a.56.56,0,0,0,.52-.53c0-.39,0-.83,0-1.32l0-.42c0-.57,0-1.11,0-1.67.07-2.72.11-5.45.11-8.1,0-6-.08-10.08-.22-12.49a.57.57,0,0,0-.53-.53l-4.81-.34a.57.57,0,0,1-.53-.57V77.33a.57.57,0,0,1,.58-.57l8.29.24c2.49.06,4.39.08,5.79.08,1.72,0,4.44,0,8.58-.14l1,0c2.33-.07,4.22-.11,5.42-.11a43.52,43.52,0,0,1,9.53.83c.43.09.86.21,1.28.34a14.05,14.05,0,0,1,6.86,4.41A12,12,0,0,1,81,90.19v.29a.61.61,0,0,1-.07.23,38,38,0,0,1-1.27,4.73A16.66,16.66,0,0,1,77,100.36Z" transform="translate(-30.99 -36.6)"/><path class="cls-2" d="M76.32,84.05a11.48,11.48,0,0,0-5.62-3.56,9.75,9.75,0,0,0-1.07-.29,41.36,41.36,0,0,0-8.94-.76c-1.14,0-2.95,0-5.37.11l-1,0c-3.9.09-6.8.14-8.64.14-1.46,0-3.42,0-5.87-.08l-5.57-.17a.57.57,0,0,0-.58.57v5.34a.57.57,0,0,0,.52.57l3.49.24c.48,0,.86.06,1.15.1a.56.56,0,0,1,.5.48c.06.51.14,1.26.2,2.35.15,2.46.23,6.6.23,12.65,0,2.72,0,5.46-.11,8.16,0,.56,0,1.12,0,1.67,0,.16,0,.31,0,.45-.07,1.88-.15,3-.21,3.69a.56.56,0,0,1-.5.51c-.62.07-1.63.16-3.25.25l-1.43.09a.55.55,0,0,0-.53.56v5.35a.57.57,0,0,0,.58.57l1.54,0c7.32-.14,11.67-.2,13-.2,2.83,0,6.37.06,10.51.2l1.57,0a.57.57,0,0,0,.59-.57v-5.38a.57.57,0,0,0-.55-.57l-1.45-.07c-2.3-.11-3.65-.21-4.43-.29a.57.57,0,0,1-.5-.53c0-.64-.1-1.67-.14-3.31v-.32s0-.06,0-.1c-.09-3.56-.17-6.39-.21-8.48l.21.21.19.18a.57.57,0,0,0,.3.15l.45.07,1.39.21.93.11a18.48,18.48,0,0,0,2.19.13c5.23,0,9.65-1.32,13.13-3.94a12.61,12.61,0,0,0,5.49-10.4A9.43,9.43,0,0,0,76.32,84.05Zm-22,3.69c0-.16,0-.33,0-.49a.56.56,0,0,1,.51-.54q1-.09,1.8-.09h0c2.51,0,4.38.48,5.56,1.45s1.58,2.21,1.58,4.19a8.76,8.76,0,0,1,0,.91,4.59,4.59,0,0,1-.65,2,4,4,0,0,1-.85,1,6.61,6.61,0,0,1-4.49,1.45,8.54,8.54,0,0,1-.92-.07l-.21,0-1.16-.18-1.17-.19-.26,0C54.06,94.31,54.15,91.19,54.29,87.74Z" transform="translate(-30.99 -36.6)"/><path class="cls-3" d="M104,121.72c-4.25-.11-7.59-.17-9.91-.17-1.25,0-4.65.06-10.1.17l-.82,0v-3.93l.78,0a20.17,20.17,0,0,0,4.32-.32s.24-.25.34-1a62.64,62.64,0,0,0,.27-7.67c0-1.72,0-3.33-.11-4.79l-.1-3.32a3.29,3.29,0,0,0-.18-1.4,5.33,5.33,0,0,0-1.89-.24L83.13,99V95.3l.76,0a54.37,54.37,0,0,0,13.88-2.34l.36-.12,1.21.77a.8.8,0,0,1,.36.75h0c-.32,3.57-.49,8.78-.49,15.5a51.07,51.07,0,0,0,.23,7,1,1,0,0,0,.24.56,26.28,26.28,0,0,0,4.35.42l.75,0v3.91Z" transform="translate(-30.99 -36.6)"/><path class="cls-3" d="M35.71,121v-2.36a24.06,24.06,0,0,0,4.79-.53,1.19,1.19,0,0,0,.64-.59q.34-.7.51-5.8c.11-3.41.16-6.7.16-9.9,0-6-.08-10.23-.23-12.78s-.4-4-.74-4.3-1.37-.49-3.08-.58l-2-.15V81.61l4,.11c2.49.06,4.46.09,5.93.09,2,0,5.24-.06,9.73-.17,2.41-.08,4.17-.12,5.31-.12a34,34,0,0,1,9.39,1,9.38,9.38,0,0,1,4.62,2.89,7.35,7.35,0,0,1,1.57,4.82,10.56,10.56,0,0,1-4.66,8.73c-3.11,2.35-7.08,3.52-11.87,3.52a19,19,0,0,1-2-.11c-.69-.08-1.42-.17-2.21-.31a2.33,2.33,0,0,1-.62-1,2.36,2.36,0,0,1,.16-1.67c.52.09,1,.16,1.44.22a8.93,8.93,0,0,0,1.19.09,8.65,8.65,0,0,0,5.85-2,6.78,6.78,0,0,0,2.28-5.46,7.07,7.07,0,0,0-2.35-5.81q-2.34-1.92-6.88-1.92a28.24,28.24,0,0,0-4.33.39q-.39,8.63-.4,14.63,0,2,.29,12.87a26.39,26.39,0,0,0,.36,4.93,1.08,1.08,0,0,0,.67.68,34.89,34.89,0,0,0,6,.56V121c-4.2-.13-7.72-.2-10.58-.2Q46.78,120.75,35.71,121Z" transform="translate(-30.99 -36.6)"/><path class="cls-1" d="M85.39,90.41a7.37,7.37,0,0,1-1.66-4.67,7.6,7.6,0,0,1,3-6,9.71,9.71,0,0,1,11.75,0,7.6,7.6,0,0,1,3,6,7.37,7.37,0,0,1-.71,3.15Z" transform="translate(-30.99 -36.6)"/><path class="cls-2" d="M92.61,91.1a6.68,6.68,0,0,1-4.23-1.41,4.92,4.92,0,0,1,0-7.93,7.1,7.1,0,0,1,8.49,0,4.92,4.92,0,0,1,0,7.93A6.7,6.7,0,0,1,92.61,91.1Z" transform="translate(-30.99 -36.6)"/><path class="cls-3" d="M95.57,83.4a5,5,0,0,0-5.89,0,3,3,0,0,0-1.17,1.79,3.31,3.31,0,0,0-.05.55,2.84,2.84,0,0,0,1.22,2.31,4.52,4.52,0,0,0,2.1.91,7.55,7.55,0,0,0,.83.05,4.63,4.63,0,0,0,3-1,2.83,2.83,0,0,0,0-4.65Z" transform="translate(-30.99 -36.6)"/><path class="cls-1" d="M102.08,54.3l-1-15.48a1.61,1.61,0,0,0-1.6-1.5h-5a4.6,4.6,0,0,0-2.27.59l0,0-.48.26a22.64,22.64,0,0,0-7.75-1.41,18.93,18.93,0,0,0-11.46,3.46,12.18,12.18,0,0,0-5.41,10,11.53,11.53,0,0,0,2.68,7.51h-1a1.49,1.49,0,0,0-1.48,1.49V74.1a1.52,1.52,0,0,0,1.51,1.52h5.47A4.37,4.37,0,0,0,76.53,75l.09,0h0a2.4,2.4,0,0,1,2-.24,23,23,0,0,0,7,1c5.41,0,9.81-1.38,13.06-4.1A13.78,13.78,0,0,0,104,60.86,12,12,0,0,0,102.08,54.3ZM85.44,64.85a7,7,0,0,1-4.83-1.44c.74.15,1.5.27,2.3.38,2.62.36,4.18.63,5.1.81A10.81,10.81,0,0,1,85.44,64.85ZM82.38,47.49c-.8-.16-1-.31-1-.4,0-.36,2.23-1.06,4.33-.55a6.44,6.44,0,0,1,3.41,2.26Z" transform="translate(-30.99 -36.6)"/><path class="cls-2" d="M97.86,53.48a11.51,11.51,0,0,0-2.76-1.65h4.17L98.49,40H93.93l-.48.26c-.58.33-1.13.61-1.65.85a20.24,20.24,0,0,0-7.87-1.65A16.36,16.36,0,0,0,74,42.37a9.52,9.52,0,0,0-4.34,7.91,9.09,9.09,0,0,0,3.61,7.33c2.19,1.77,5.54,3,10,3.57,5.28.72,6.6,1.11,6.92,1.25a5.64,5.64,0,0,1,1.74,1.09c.34.32.34.51.34.59,0,.26,0,1-1.46,2.1a9.13,9.13,0,0,1-5.36,1.28c-4.59,0-7.46-1.82-9-5.74l-.52-1.32h-6V73h4.84l.51-.32c.68-.42,1.41-.85,2.18-1.27a20,20,0,0,0,8.21,1.68c4.78,0,8.6-1.18,11.37-3.48a11.1,11.1,0,0,0,4.33-8.73A9.29,9.29,0,0,0,97.86,53.48ZM78.58,47.24c0-.38.35-.8,1.06-1.26a7.38,7.38,0,0,1,4-1,10.15,10.15,0,0,1,5.19,1.23,10.91,10.91,0,0,1,3.8,4.48l.14.27a44.18,44.18,0,0,0-6.59-1.39,35.64,35.64,0,0,1-6.84-1.41C78.63,47.93,78.58,47.65,78.58,47.24Z" transform="translate(-30.99 -36.6)"/><path class="cls-3" d="M96.51,55.08c-1.8-1.52-5.35-2.66-10.62-3.41a39.73,39.73,0,0,1-7.28-1.52,2.92,2.92,0,0,1-2.12-2.91,3.67,3.67,0,0,1,2-3,9.28,9.28,0,0,1,5.13-1.31,12.17,12.17,0,0,1,6.24,1.51,12.93,12.93,0,0,1,4.6,5.32H97l-.5-7.7H94.48a23.17,23.17,0,0,1-2.69,1.3,18.32,18.32,0,0,0-7.86-1.84,14.34,14.34,0,0,0-8.67,2.54,7.52,7.52,0,0,0-3.48,6.23A7,7,0,0,0,74.62,56q2.84,2.28,8.93,3.12A42.64,42.64,0,0,1,91,60.5,8,8,0,0,1,93.34,62a2.83,2.83,0,0,1,1,2.12A4.75,4.75,0,0,1,92,67.9a11.09,11.09,0,0,1-6.6,1.68q-8.14,0-11-7H72v8.36h2.15c1-.6,2-1.21,3.24-1.84A17.59,17.59,0,0,0,85.62,71q6.45,0,10-3a9,9,0,0,0,3.58-7.12A7.22,7.22,0,0,0,96.51,55.08Z" transform="translate(-30.99 -36.6)"/><path class="cls-1" d="M154.86,47.62l-.5,4.27c-.14,1.18-.22,2.82-.27,4.89l-.05,2.7a1.26,1.26,0,0,1-.9,1.19l-5.37,1.57a.7.7,0,0,0-.5.67V64a.69.69,0,0,0,.69.69h1.41a.79.79,0,0,1,.79.79v9a1.25,1.25,0,0,1-1.24,1.24h-24.5V64a.58.58,0,0,1,.54-.6h0l2.65-.09a.6.6,0,0,0,.58-.6c0-.69,0-1.36,0-2v-.39a.61.61,0,0,0-.59-.6L125,59.67a.59.59,0,0,1-.59-.6V48.16a.59.59,0,0,1,.56-.6l4.56-.34a42.21,42.21,0,0,0,6.27-.77l3.14-.91.19,0h.7a5.84,5.84,0,0,1,2.93.78h0a11.48,11.48,0,0,1,4.46-.78,12.19,12.19,0,0,1,3,.39L154.41,47A.62.62,0,0,1,154.86,47.62Z" transform="translate(-30.99 -36.6)"/><path class="cls-2" d="M141.73,73.24c-1.79,0-3.3-.06-4.6-.06s-2.65,0-4.26.06l-4.79.11a1,1,0,0,1-1-1v-5.4a1,1,0,0,1,1-1l1.81-.06h0a1,1,0,0,0,1-1c0-1.5.07-2.9.07-4.16,0-1.07,0-1.92,0-2.58a1,1,0,0,0-1-1h0l-1.83,0a1,1,0,0,1-1-1V51a1,1,0,0,1,.94-1l1.74-.13a47.27,47.27,0,0,0,6.78-.85l2.77-.81a.9.9,0,0,1,.28,0h.27a3.26,3.26,0,0,1,2.12.77,1,1,0,0,0,1.14.14,6.18,6.18,0,0,1,.79-.37,9.09,9.09,0,0,1,3.34-.54,9.28,9.28,0,0,1,2.36.31l1.6.4a1,1,0,0,1,.75,1.1l-.19,1.63c-.15,1.25-.24,3-.28,5.14l0,1.4a1,1,0,0,1-.74.95L147,60.13a1,1,0,0,1-1.08-.37l-.77-1a1,1,0,0,0-.18-.2h0a4.14,4.14,0,0,0-.59,0,2.33,2.33,0,0,0-1.16.24l-.08,0c0,.46-.06,1.33-.06,2.93,0,1.37,0,2.39,0,3.16a1,1,0,0,0,1,1l.7,0,1.82.06a1,1,0,0,1,1,1v5.4a1,1,0,0,1-1,1Z" transform="translate(-30.99 -36.6)"/><path class="cls-3" d="M141.78,71.16c-1.82,0-3.34-.07-4.65-.07s-2.68,0-4.32.07l-3.67.08V68l.77,0a16.1,16.1,0,0,0,2.69-.2.11.11,0,0,0,.07-.05,5.69,5.69,0,0,0,.2-1.71c.07-1.92.11-3.69.11-5.27a44,44,0,0,0-.15-5.32.5.5,0,0,0,0-.14,17,17,0,0,0-2.88-.2l-.78,0V52l.74-.06A46,46,0,0,0,137,51l2.7-.78h.11A1.12,1.12,0,0,1,141,51.42v0l0,.31c0,.48-.07,1.09-.09,1.84.47-.41,1-.85,1.49-1.36a7.41,7.41,0,0,1,2.28-1.62,7.19,7.19,0,0,1,2.58-.39,7.58,7.58,0,0,1,1.85.24l.68.17-.09.7c-.15,1.32-.25,3.12-.29,5.34v.6l-2.24.63-.33-.44a2.49,2.49,0,0,0-1-.84,3.66,3.66,0,0,0-1.47-.24,4.27,4.27,0,0,0-2.2.52,2.31,2.31,0,0,0-1,1,23.1,23.1,0,0,0-.15,3.8,45.5,45.5,0,0,0,.16,5.72v0a.46.46,0,0,0,.06.17,14.75,14.75,0,0,0,3.47.33l.77,0v3.26Z" transform="translate(-30.99 -36.6)"/><path class="cls-1" d="M126.9,64.31v11.4H102.83a1.24,1.24,0,0,1-1.24-1.24V64.16a.84.84,0,0,1,.82-.84l2.41-.06a.83.83,0,0,0,.82-.83V61.8c0-.43,0-.86,0-1.26a.84.84,0,0,0-.81-.83l-2.41-.06a.85.85,0,0,1-.82-.85V48.29a.84.84,0,0,1,.79-.84l4.41-.25,1.4-.1h0c1-.08,1.85-.18,2.7-.31a28.23,28.23,0,0,0,2.87-.55c.57-.14,1.11-.29,1.6-.46l1.08-.36,1-.36a.84.84,0,0,1,.72.09l.27.17,1.89,1.21,2.77,1.76a.84.84,0,0,1,.39.79l-.26,2.84c-.22,2.39-.33,5.95-.33,10.58h0a.82.82,0,0,0,.78.83l1.24.08,1.15.06A.85.85,0,0,1,126.9,64.31Z" transform="translate(-30.99 -36.6)"/><path class="cls-2" d="M121.29,73.29c-3-.08-5.34-.13-7-.13-.87,0-3.27,0-7.14.13l-2.09,0a.84.84,0,0,1-.86-.84V66.74a.84.84,0,0,1,.83-.84l2-.05h.39a.85.85,0,0,0,.81-.81c0-.76,0-1.8,0-3.23,0-1.19,0-2.3-.07-3.28,0,0,0-.24,0-.55a.84.84,0,0,0-.81-.82L105,57.08a.84.84,0,0,1-.82-.84V50.78a.85.85,0,0,1,.8-.84l1.93-.11a36.71,36.71,0,0,0,9.25-1.55l.94-.31a.83.83,0,0,1,.72.08l2.51,1.6a.86.86,0,0,1,.38.79l-.11,1.24c-.23,2.47-.34,6.11-.34,10.82,0,1.06,0,1.88,0,2.51a.84.84,0,0,0,.78.82l.44,0,1.93.11a.85.85,0,0,1,.79.84v5.7a.84.84,0,0,1-.86.84Z" transform="translate(-30.99 -36.6)"/><path class="cls-3" d="M121.35,71.2c-3-.08-5.4-.12-7-.12-.89,0-3.3,0-7.18.12h-.82V68l.78,0a18.82,18.82,0,0,0,3-.2,1.47,1.47,0,0,0,.14-.51,43.26,43.26,0,0,0,.19-5.43c0-1.21,0-2.36-.07-3.39L110.23,56a3,3,0,0,0-.08-.81A5.42,5.42,0,0,0,109,55.1L106.31,55V52l.76-.05a38.37,38.37,0,0,0,9.81-1.65l.36-.12,1.36.87,0,.48c-.23,2.54-.35,6.24-.35,11a36.85,36.85,0,0,0,.16,4.93.78.78,0,0,0,.07.24,25.5,25.5,0,0,0,3,.27l.75,0v3.24Z" transform="translate(-30.99 -36.6)"/><path class="cls-1" d="M108.36,47.39a7.86,7.86,0,0,1-1.23-3.63A6,6,0,0,1,109.49,39a7.58,7.58,0,0,1,9.17,0A6,6,0,0,1,121,43.76a10.35,10.35,0,0,1-.57,2.76Z" transform="translate(-30.99 -36.6)"/><path class="cls-2" d="M114.07,47.84a5.1,5.1,0,0,1-3.22-1.07,3.75,3.75,0,0,1,0-6,5.11,5.11,0,0,1,3.24-1.07,5,5,0,0,1,3.21,1.07,3.74,3.74,0,0,1,0,6A5.09,5.09,0,0,1,114.07,47.84Z" transform="translate(-30.99 -36.6)"/><path class="cls-3" d="M116.32,42a3.48,3.48,0,0,0-2.23-.73,3.51,3.51,0,0,0-2.25.73,2.28,2.28,0,0,0-.89,1.36,1.93,1.93,0,0,0,0,.42,2.17,2.17,0,0,0,.93,1.75,3.26,3.26,0,0,0,1.6.69l.32,0h.31a3.51,3.51,0,0,0,2.25-.73l.12-.1a2.12,2.12,0,0,0,.8-1.65A2.17,2.17,0,0,0,116.32,42Z" transform="translate(-30.99 -36.6)"/><path class="cls-2" d="M149.43,75.71" transform="translate(-30.99 -36.6)"/><polyline class="cls-4" points="119.17 38.38 95.91 38.38 93.43 38.38 70.6 38.38 70.58 38.38"/><path class="cls-2" d="M145.76,102.22h4l.86-1.25a25.89,25.89,0,0,1,2.12-2.8l1.13-1.27a1.12,1.12,0,0,0-.06-1.56l-2-2a2.28,2.28,0,0,0-1.82-.63l-.27,0c-1.28.13-3.94.18-8.12.18h-1.08a18.26,18.26,0,0,0-4.32-1.54,30.66,30.66,0,0,0-3.9-.53c-.73,0-1.49-.09-2.27-.1h-1.93C123,90.9,118.8,92,115.73,94A13,13,0,0,0,112,97.56a10.32,10.32,0,0,0-1.78,5.91,10,10,0,0,0,1.78,5.91,8.36,8.36,0,0,0,.79,1,10.79,10.79,0,0,0,2.08,1.74c-1.82,1.52-3.35,3.4-3.34,5.9a6.25,6.25,0,0,0,.73,2.85l.09.15c0,.09.11.17.17.26a6.74,6.74,0,0,0-1.87,1.35,7.55,7.55,0,0,0-2,5.34c0,3.4,1.9,6.26,5.49,8.27,3.1,1.75,7.67,2.63,13.59,2.63h.48c6.75-.06,12.26-1.51,16.4-4.31,4.59-3.1,6.92-7.08,6.92-11.84a9.55,9.55,0,0,0-1.66-5.67,8.67,8.67,0,0,0-4.15-3.17,21.94,21.94,0,0,0-7.07-.78H137.5a19.8,19.8,0,0,0,2.08-1A11.09,11.09,0,0,0,145.76,102.22Zm-9,22.51a2.1,2.1,0,0,1,.47.15,1.8,1.8,0,0,1,.39,1.23,2.68,2.68,0,0,1-.69,1.81,5.74,5.74,0,0,1-2.65,1.63,16.35,16.35,0,0,1-5.37.76h-.62a11.75,11.75,0,0,1-5.7-1.22c-1.15-.72-1.3-1.37-1.3-1.91a1.26,1.26,0,0,1,.28-.85,10.2,10.2,0,0,1,2.41-1.78h5.42A67.2,67.2,0,0,1,136.71,124.73Zm-6.18-19a1.72,1.72,0,0,1-.49.34,3.72,3.72,0,0,1-1.66.31h-.14a3,3,0,0,1-2.25-.78c-.19-.21-.81-1.1-.81-4a2,2,0,0,1,.62-1.72,3.56,3.56,0,0,1,2.38-.67,3.75,3.75,0,0,1,1.86.4,1.86,1.86,0,0,1,.41.33c.22.22.72,1,.72,3.08C131.17,104.92,130.72,105.58,130.53,105.77Z" transform="translate(-30.99 -36.6)"/><path class="cls-3" d="M148.92,99.79a30.14,30.14,0,0,1,2.29-3l.51-.57-1.42-1.37-.37,0c-1.35.13-4.06.19-8.32.19H140a16.43,16.43,0,0,0-4.23-1.58,28.12,28.12,0,0,0-3.48-.48c-.73-.06-1.49-.1-2.27-.11h-1.88c-4.75.1-8.54,1.07-11.28,2.88-3,2-4.55,4.59-4.55,7.71a7.85,7.85,0,0,0,2,5.49,11.4,11.4,0,0,0,4.57,2.79l-.41.28c-2.17,1.5-4.88,3.38-4.87,6a4,4,0,0,0,.47,1.83v0l0,0a3.25,3.25,0,0,0,.77.85,5.48,5.48,0,0,0,1.78.83l-.34.15c-3.09,1.39-3.85,2-4.15,2.31a5.53,5.53,0,0,0-1.47,3.92c0,2.64,1.49,4.81,4.42,6.45s7,2.36,12.57,2.36h.47c6.32-.06,11.45-1.39,15.24-4,4-2.69,6-6.09,6-10.11a7.54,7.54,0,0,0-1.25-4.45,6.65,6.65,0,0,0-3.16-2.43,21.43,21.43,0,0,0-6.37-.65c-4.48,0-8,0-10.45-.05-2.83,0-3.63-.08-3.86-.11-.76-.09-1.67-.31-1.67-.83a.6.6,0,0,1,.2-.44,7.18,7.18,0,0,1,1.68-1c1.22.07,2.13.1,2.75.1.31,0,.61,0,.91,0a23.07,23.07,0,0,0,10.39-2.6,9,9,0,0,0,5.08-8.39,7.35,7.35,0,0,0-.22-1.75h5.23Zm-25.57,22.66h6a66.36,66.36,0,0,1,7.75.23,3,3,0,0,1,1.69.86,3.9,3.9,0,0,1,.87,2.57,4.68,4.68,0,0,1-1.15,3.1,7.68,7.68,0,0,1-3.57,2.31,18.51,18.51,0,0,1-6.08.88h-.66a13.4,13.4,0,0,1-6.77-1.54,4.21,4.21,0,0,1-2.28-3.68,3.32,3.32,0,0,1,.73-2.14A13.63,13.63,0,0,1,123.35,122.45Zm9-15.57a3.47,3.47,0,0,1-.3.37,4.22,4.22,0,0,1-2,1.08,7,7,0,0,1-1.65.18h-.2a5,5,0,0,1-3.74-1.45c-.9-1-1.36-2.79-1.36-5.37a4.07,4.07,0,0,1,1.33-3.29,5.5,5.5,0,0,1,3.76-1.18,6.67,6.67,0,0,1,1.86.23A4.22,4.22,0,0,1,132,98.57a2.71,2.71,0,0,1,.36.46,7.26,7.26,0,0,1,.95,4.08A6.33,6.33,0,0,1,132.31,106.88Z" transform="translate(-30.99 -36.6)"/><rect class="cls-5" x="247.12" y="35.2" width="1.6" height="2.95" rx="0.46"/><path class="cls-5" d="M279.26,71.14h-.7a1.1,1.1,0,0,0-1.07,1.13v2a1.1,1.1,0,0,0,1.07,1.13h.7a1.1,1.1,0,0,0,1.07-1.13v-2A1.1,1.1,0,0,0,279.26,71.14Zm-.17,3h-.36V72.46h.36Z" transform="translate(-30.99 -36.6)"/><path class="cls-6" d="M233.23,68.1A46.5,46.5,0,0,1,230,74.78s0,0,0,0a46,46,0,0,1-3.28,4.94c-.2.28-.41.55-.62.82-.8,1-1.63,2-2.46,2.93-.32.35-.65.71-1,1a55.26,55.26,0,0,1-6.58,6A62.09,62.09,0,0,1,205,97.34q3.79-10.22,6.83-19.89c2-6.46,3.57-12.13,4.67-17a54.9,54.9,0,0,0,1.63-10c-.8-.23-1.52-.4-2.15-.52a10.63,10.63,0,0,0-1.82-.17A7.26,7.26,0,0,0,207.7,53a21.14,21.14,0,0,0-3,7.1c-.34,1.61-.66,3-1,4.08s-.54,2.33-.77,3.71a99.55,99.55,0,0,1-13.58,15.82c-4.67,4.34-8.63,6.49-11.85,6.49a5.28,5.28,0,0,1-4.25-2c-1.09-1.34-1.64-3.32-1.64-6a30.07,30.07,0,0,1,2.87-11.94,59.3,59.3,0,0,1,7.59-12.72,43,43,0,0,1,11.08-10.12,24.2,24.2,0,0,1,13.07-4,13.43,13.43,0,0,1,4.33.61,6.41,6.41,0,0,1,2.93,2.16,6.64,6.64,0,0,0,1.3-1.13,3.61,3.61,0,0,0,.95-2.67,5,5,0,0,0-2.33-4.15c-1.56-1.16-4.08-1.75-7.53-1.75a37.73,37.73,0,0,0-15.31,3.57,60,60,0,0,0-15.23,9.76,51.33,51.33,0,0,0-11.59,14.36,35.59,35.59,0,0,0-4.41,17.13c0,5,1.17,9.12,3.48,12.28l.06.08q3.54,4.75,10.12,4.76t12.8-4.84c.44-.32.87-.66,1.31-1A82.21,82.21,0,0,0,200.53,78q-1.92,7.61-3.9,14.1c-1.32,4.33-2.74,8.32-4.24,12-3.68,1.83-7.53,3.79-11.51,5.87a90.24,90.24,0,0,0-11.07,6.84c-.62.46-1.22.92-1.8,1.4a36.15,36.15,0,0,0-5.36,5.26c-.4.48-.79,1-1.15,1.47a16.33,16.33,0,0,0-3.18,9.77c0,3.7,1.09,6.34,3.28,8a12,12,0,0,0,6.41,2.4l.85,0c4.51,0,8.71-1.9,12.64-5.7a69.42,69.42,0,0,0,11.33-15.22A173.81,173.81,0,0,0,203,103a78.61,78.61,0,0,0,12.1-7.26,66.64,66.64,0,0,0,8.8-7.46c.27-.25.53-.53.8-.8.5-.5,1-1,1.48-1.56s.81-.88,1.21-1.34a43.73,43.73,0,0,0,7.76-12.39,1.88,1.88,0,0,1,0-.31c0-.65.1-1.33.19-2Zm-55.81,64.09q-5.79,6.5-9.08,6.49l-.33,0a3.41,3.41,0,0,1-2.51-1.45,6.47,6.47,0,0,1-1.13-4.06,12.59,12.59,0,0,1,3.64-8.66,45.12,45.12,0,0,1,9.41-7.61A136.69,136.69,0,0,1,190,110Q183.22,125.71,177.42,132.19Z" transform="translate(-30.99 -36.6)"/><path class="cls-7" d="M276.1,51.82c-.5-.58-1-1.14-1.55-1.68a27.87,27.87,0,0,0-10.73-6.79,33.55,33.55,0,0,0-8.74-1.72l-.21,0q-13.89-.84-23,8t-10,23.54a39.64,39.64,0,0,0,.5,9.48c.11.64.24,1.27.39,1.9s.37,1.45.59,2.14c0,.14.08.27.13.42.15.41.29.83.44,1.24a33.09,33.09,0,0,0,2.32,5,28.58,28.58,0,0,0,3.21,4.57c.54.63,1.1,1.22,1.66,1.78a28.3,28.3,0,0,0,7.57,5.4,30.14,30.14,0,0,0,8.27,2.64h0c-.14-.91-.29-1.63-.45-2.27s-.29-1.19-.54-2.26v0c0-.18-.1-.35-.15-.55a1.67,1.67,0,0,0-.06-.29c0-.09,0-.21-.07-.32h0a10.44,10.44,0,0,1-2.27-1.32,3,3,0,0,1-.36-.26A17.88,17.88,0,0,1,238,93.69a32.4,32.4,0,0,1-2.61-9.45,59.59,59.59,0,0,1-.29-11.37c0-.21,0-.42,0-.64s0-.19,0-.31c0-.66.11-1.33.19-2a61.6,61.6,0,0,1,1.13-6.6,29.85,29.85,0,0,1,3.41-8.68c.23-.38.47-.77.73-1.14a17.32,17.32,0,0,1,5.33-5.13,13.37,13.37,0,0,1,6.58-1.92,15.85,15.85,0,0,1,1.95,0,14.33,14.33,0,0,1,6.21,1.71,12.3,12.3,0,0,1,1.74,1.17c.06,0,.13.12.19.16.76-1.35,1.48-2.51,2.1-3.46a1.65,1.65,0,0,1,.94-.69,1.7,1.7,0,0,1,.71,0,1.56,1.56,0,0,1,1.11.86,1.13,1.13,0,0,1,.1.34.4.4,0,0,1,0,.15,11,11,0,0,0,.57,3.31,10.07,10.07,0,0,0,1.15,2.37A17.43,17.43,0,0,1,271.69,56c.3.63.56,1.24.79,1.84h0c.14.41.25.79.37,1.18,0,0,0,0,0,0v0l1.48-.08a3.61,3.61,0,0,0,2.17-.57,4.24,4.24,0,0,0,1.4-4.6c-.3-.28-.75-.72-1.26-1.3C276.41,52.21,276.29,52.05,276.1,51.82Z" transform="translate(-30.99 -36.6)"/><path class="cls-5" d="M297.55,82.21a5.24,5.24,0,0,0-.2-.91,7.78,7.78,0,0,0-.76-1.71c-1.54-2.64-3.69-2.44-6.19-4-.18-.11-.36-.23-.55-.37s-.35-.28-.52-.42a2.33,2.33,0,0,1-.38-.31,3.27,3.27,0,0,0-.33-.32c-.29-.32-.56-.64-.79-1a1.87,1.87,0,0,0-.2-.32l-.18-.31a6.27,6.27,0,0,1-.3-.64c0-.11-.09-.22-.13-.32a5.65,5.65,0,0,1-.22-.62,2.11,2.11,0,0,0-.09-.36c-.06-.23-.12-.43-.17-.65s-.05-.21-.07-.33-.11-.44-.17-.68a13.21,13.21,0,0,0-.46-1.54,8.13,8.13,0,0,0-.86-1.76,11.43,11.43,0,0,0-.66-.94,8.15,8.15,0,0,0-.86-1h0l-.74-.45c.44-.38,1.12-1,1.79-1.65l.6-.57c.33-.32.64-.64.91-.94v0a3.16,3.16,0,0,0,.36-.4A8.21,8.21,0,0,0,288,55.91c1.05-5.5-1.56-12.83-3.63-12.94h-.12a1.36,1.36,0,0,0-.17,0,.27.27,0,0,0-.17.06.91.91,0,0,0-.18.08,3,3,0,0,0-.52.45,3.34,3.34,0,0,0-.74,1.34,1.14,1.14,0,0,1-.06.25.89.89,0,0,0,0,.14s0,.07,0,.11a14.43,14.43,0,0,1-.39,1.63,9,9,0,0,1-.47,1.36c-.09.2-.18.4-.28.59a7.9,7.9,0,0,1-.57,1,5.09,5.09,0,0,1-.29.42c-.18.25-.37.5-.55.72s-.3.35-.44.51c-.46.52-.92,1-1.36,1.51l-.31.41-.15.19a4.83,4.83,0,0,0-.5.77,9,9,0,0,0-.41.82c-.1.29-.21.62-.31.95a2.29,2.29,0,0,1-.07.28c0,.09,0,.18-.06.28a8.8,8.8,0,0,0-.12,1.32l-1.69.09v0c-.13-.42-.26-.87-.44-1.3v0a16.16,16.16,0,0,0-.91-2.09,19.74,19.74,0,0,0-1.24-2.21,24.21,24.21,0,0,0-1.46-2A12.21,12.21,0,0,1,269.05,48a11.78,11.78,0,0,1-.56-2.48,10.42,10.42,0,0,1-.08-1.28.34.34,0,0,0-.05-.17,1.72,1.72,0,0,0-.11-.38,1.81,1.81,0,0,0-1.27-1,1.84,1.84,0,0,0-.81,0,1.74,1.74,0,0,0-.8.45,1.59,1.59,0,0,0-.28.34l-.2.3c-.65,1-1.42,2.25-2.2,3.66-.27.47-.54,1-.83,1.51l-.47.92-.44.86c-.15.28-.28.56-.4.8s-.26.5-.37.74a20,20,0,0,0-1.73,4.46c-2,.07-4.24.12-6.74.12-2.08,0-4.34,0-6.75-.14h-.71a.83.83,0,0,0-.33,0h-.12a1.62,1.62,0,0,0-1.26,1.59A1.72,1.72,0,0,0,243,59.5a1.74,1.74,0,0,0,.51.32,1.6,1.6,0,0,0,.31.1,1.34,1.34,0,0,0,.49,0c2.14-.2,4.35-.45,6.67-.8s4.72-.81,7.22-1.36c-.07.4-.15.87-.22,1.39a16.13,16.13,0,0,0-.09,1.62,10.06,10.06,0,0,0,1.27,5,9.38,9.38,0,0,0,2.09,2.5c.29.25.55.44.79.64h0l2.94.92a.77.77,0,0,0,.4,0,.7.7,0,0,0,.16-.14.51.51,0,0,0,0-.72,13.78,13.78,0,0,1-3-7.05A14,14,0,0,1,265,52.44a.5.5,0,0,1,.15-.17,1.12,1.12,0,0,1,.37-.2.33.33,0,0,1,.2,0,.7.7,0,0,1,.35.06.69.69,0,0,1,.32.16,5.59,5.59,0,0,1,.44.42l.07.06c.13.11.26.26.41.39v0a3,3,0,0,1,.43.44c.28.28.53.59.8.92a14,14,0,0,1,1.6,2.25,10.31,10.31,0,0,1,.83,1.59,13.2,13.2,0,0,1,.68,2c0,.16.09.34.12.54a2.14,2.14,0,0,1,.12.57c0,.15.05.3.08.45a2.34,2.34,0,0,1,.05.47,2.85,2.85,0,0,1,.06.52c0,.33,0,.69,0,1.08v0a3,3,0,0,0,0,.42,1.93,1.93,0,0,0,.23,1A1.53,1.53,0,0,0,273,66h0a1.77,1.77,0,0,0,.65.15.49.49,0,0,0,.2,0,.37.37,0,0,0,.15,0,1.41,1.41,0,0,0,.69-.43,2,2,0,0,0,.24-.35,1.08,1.08,0,0,0,.11-.3.24.24,0,0,0,.05-.12,4.72,4.72,0,0,0,0-.67,20.84,20.84,0,0,0-.06-2.46,11.73,11.73,0,0,0-.19-1.4,2.06,2.06,0,0,1,0-.26c.95.43,1.8.87,2.56,1.31.43.25.82.5,1.19.76a11.33,11.33,0,0,1,1,.75h0a6.85,6.85,0,0,1,.89.77,4.08,4.08,0,0,1,.46.47,3.22,3.22,0,0,1,.41.45,11,11,0,0,1,1.72,2.58,4.58,4.58,0,0,1,.27.66,3.31,3.31,0,0,1,.26.64c.08.19.14.37.21.55.14.47.25.91.36,1.31a4.65,4.65,0,0,1,.15.59,4.56,4.56,0,0,1,.14.59c.1.34.17.69.27,1s.11.43.16.63a13.77,13.77,0,0,0,.55,1.57.52.52,0,0,1,.07.16c.1.18.19.36.3.55a3.32,3.32,0,0,0,.33.53,2.19,2.19,0,0,0,.14.2v0l.26.31a.29.29,0,0,1,.08.1l.38.4a8.87,8.87,0,0,0,.92.79,5.76,5.76,0,0,0,.73.52,4.29,4.29,0,0,1,.51.28,6.27,6.27,0,0,0,.58.28c.21.09.42.21.64.28.05,0,.08,0,.12,0l.33.13c.25.1.51.21.73.32a4.53,4.53,0,0,1,1.6,1,2,2,0,0,1,.37.4v0a2.41,2.41,0,0,1,.42.85,2.59,2.59,0,0,1,.06.82.63.63,0,0,1,0,.24,2,2,0,0,1-.15.6,4.46,4.46,0,0,1-.72,1.38h0a1.63,1.63,0,0,1-.31.4l-.09.1a0,0,0,0,1,0,0l-.05.06a1.45,1.45,0,0,1-.24.2,2.19,2.19,0,0,1-.45.29s-.05,0-.07,0a2.48,2.48,0,0,1-.46.24,12.28,12.28,0,0,1-2.2.86l-1.65.45c-.22,0-.42.09-.66.15l-.71.15c-.47.09-1,.18-1.56.26a1.5,1.5,0,0,1-.29.06l-1.5.22c-.52.08-1.07.14-1.67.21-1.16.13-2.45.26-3.87.35a25.52,25.52,0,0,1-3.71,0c-.32,0-.62-.06-.92-.07l-.88-.14c-.16,0-.35,0-.54,0a.13.13,0,0,0-.09,0c-.31,0-.65,0-1-.09h-.66a17.89,17.89,0,0,0-2.68.1l-.58.07c-.19,0-.39.07-.59.09l-.52.1-.16,0a10.47,10.47,0,0,0-1.07.27,7.33,7.33,0,0,0-.72.22,8,8,0,0,0-.89.33,5.63,5.63,0,0,0-.79.36c-.26.1-.52.23-.8.35s-.82.49-1.24.75l-.1,0a14,14,0,0,0-2,1.58,3.89,3.89,0,0,0-.34.36,13.5,13.5,0,0,0-2.8,4.42,13.7,13.7,0,0,0-.7,2.39c-.07.4-.14.82-.19,1.23,0,.22,0,.42-.05.62a1.8,1.8,0,0,0,0,.22c0,.15,0,.29,0,.43,0,1.94-.07,3.88-.11,5.82s-.08,3.78-.11,5.68c-.07,4.11-.14,8.25-.22,12.36a1.28,1.28,0,0,1-.26.35.48.48,0,0,1-.18.17,1.62,1.62,0,0,1-1.1.35l-.17,0-.17,0a1.92,1.92,0,0,1-.57-.34,1.67,1.67,0,0,1-.23-.23,1.75,1.75,0,0,1-.22-.43c-.19-3.42-.37-6.85-.57-10.28,0-.32-.06-.63-.11-1s0-.37-.07-.52,0-.26-.08-.4c-.33-1.88-.64-3.76-1-5.66-.2-1.23-.42-2.47-.63-3.71a4.81,4.81,0,0,0-.27-.87l-.55-1.76a7.06,7.06,0,0,0-1.21-2.4,1.63,1.63,0,0,0-.38-.36,2.4,2.4,0,0,0-.46-.27,5.11,5.11,0,0,0-.75-.2h-.6a1.37,1.37,0,0,0-.75.32h0a1.31,1.31,0,0,0-.27.35,1.48,1.48,0,0,0-.17.56,6.22,6.22,0,0,0,.09,1.71c.08.38.15.83.26,1.32s.26,1,.39,1.59c.05.23.11.45.15.65v0c.1.45.19.88.29,1.27,0,.16.07.33.11.48a1.43,1.43,0,0,0,.09.37,1.94,1.94,0,0,1,.07.33c0,.22.11.42.17.62v0c.28,1.23.46,2,.6,2.59a23.75,23.75,0,0,1,.5,2.58c.17,1,.35,2.25.57,3.75a2.23,2.23,0,0,1,0,.27c.08.52.15,1.06.23,1.65.14,1,.29,2.18.46,3.44v0c.13.9.23,1.72.33,2.49,0,.26.05.5.1.74.12,1,.21,1.78.28,2.47.29.2.59.36.85.52l.81.43a13.44,13.44,0,0,0,2.21.77c.32.07.65.12,1,.16a8.34,8.34,0,0,0,1.65,0,9.32,9.32,0,0,0,1-.12c.35-.07.65-.15,1-.22s.84-.25,1.19-.38a1.47,1.47,0,0,0,.39-.22,1.42,1.42,0,0,0,.46-.66,1.32,1.32,0,0,0-.08-1c-.25-.58-.51-1.22-.74-1.94a17.64,17.64,0,0,1-.6-2.36,22.16,22.16,0,0,1-.23-3.86c0-.87,0-1.69.05-2.46s.08-1.31.11-1.88c0-.24,0-.44,0-.65s0-.36,0-.52,0-.2,0-.3,0-.31,0-.45c0-.41.07-.76.11-1.06a2.88,2.88,0,0,1,0-.33v0c0-.17,0-.32.06-.43s0-.11,0-.14c0-.37.09-.72.12-1.07s.1-.67.13-1,.07-.44.1-.66.05-.42.09-.62.07-.41.09-.61.09-.65.13-.93.08-.64.13-.91c.12-.88.25-1.67.4-2.39.19-.95.37-1.79.59-2.54a6.78,6.78,0,0,1,.33-1,8.88,8.88,0,0,1,.39-.91,3.87,3.87,0,0,1,.2-.36,4.18,4.18,0,0,1,.44-.68,14,14,0,0,1,1.08-1.23A13.8,13.8,0,0,1,264.17,94a.77.77,0,0,1,.16-.07,8.71,8.71,0,0,1,1.14-.41l0,0a7.32,7.32,0,0,1,1.05-.26,0,0,0,0,1,0,0l.69-.15h.06l.79-.13a.44.44,0,0,1,.18,0l.67-.1c.45,0,.91-.11,1.33-.12a5.56,5.56,0,0,1,.79-.06l.59,0c1.12,0,2.06,0,2.61,0h.25s.94,0,2.43,0c.28,0,.59,0,.92,0,.72,0,1.52-.09,2.39-.17h.29c.28,0,.55-.07.85-.09.53,0,1.08-.13,1.65-.22s1.18-.17,1.76-.28q1.38-.24,2.76-.6c.32-.07.62-.17.94-.27a19.84,19.84,0,0,0,3.73-1.47c.35-.16.67-.35.67-.35l.4-.23a.85.85,0,0,0,.22-.13,1.82,1.82,0,0,0,.23-.15l.51-.33c.18-.11.32-.22.47-.32s0,0,0,0a9.29,9.29,0,0,0,.79-.69,9,9,0,0,0,1.11-1.25,3.83,3.83,0,0,0,.31-.5,0,0,0,0,0,0,0,2.07,2.07,0,0,0,.2-.39s0,0,0,0c.1-.22.14-.34.14-.34h0A4.58,4.58,0,0,0,297.55,82.21ZM282.17,60.89a12.56,12.56,0,0,1-1.27,1.32l-.8-.47v0c-.94-.58-1.88-1.13-2.8-1.67.12-.5.28-1.09.5-1.74.11-.25.22-.52.33-.82,0,0,0,0,0,0,.15-.31.32-.65.5-1,.1-.17.2-.37.33-.6a3.59,3.59,0,0,1,.21-.35,11,11,0,0,1,1.5-2,6.51,6.51,0,0,1,.54-.51,3.56,3.56,0,0,1,.31-.26,3.52,3.52,0,0,1,.42-.33,9.91,9.91,0,0,0,.81-.67c.13-.12.28-.25.43-.41s.22-.25.32-.38a5.6,5.6,0,0,0,.43-.54c.12-.17.22-.31.29-.43l.11-.15a.31.31,0,0,1,.07-.09.23.23,0,0,1,.07-.07.09.09,0,0,1,.12,0l0,0a.07.07,0,0,1,.07.06c.54.57.76,3.8-.12,6.71a5.59,5.59,0,0,1-.32.87,9.33,9.33,0,0,1-.77,1.62v0a7.56,7.56,0,0,1-.66,1,2.66,2.66,0,0,1-.35.46A2.27,2.27,0,0,1,282.17,60.89Z" transform="translate(-30.99 -36.6)"/></svg>