<svg xmlns="http://www.w3.org/2000/svg" width="441.497" height="127.957" viewBox="0 0 441.497 127.957">
  <g id="Group_180" data-name="Group 180" transform="translate(506.427 -279.164)">
    <path id="Path_97" data-name="Path 97" d="M396.466,780.534l-2.452-.258c-.909.372-1.823.749-2.721,1.156Z" transform="translate(-834.923 -399.61)" fill="#b5b4b2" opacity="0.42"/>
    <path id="Path_98" data-name="Path 98" d="M384.167,822.319c5.74-1.8,11.4-3.732,16.994-5.745l-3.066,11.342,7.315-12.86c1.032-.361,2.08-.738,3.087-1.1.454-.154.909-.273,1.358-.423l11.863,9.318-7.144-10.779c6.138-1.951,12.2-3.959,18.31-5.952l12.3-3.459c4.073-1.177,8.125-2.473,12.245-3.547,8.3-1.93,16.457-4.228,24.7-6.4,4.145-.981,8.285-2,12.42-3.009s8.249-2.22,12.451-3.066c8.363-1.606,16.772-3.345,25.248-4.445,8.512-.769,17.025-1.693,25.584-1.915,4.269-.051,8.564-.036,12.838.051l6.391.1,3.2.036,3.216.212c8.5.7,17.025,1.167,25.5,2.024,4.238.537,8.466.96,12.688,1.44l6.35.656,3.18.325,3.139.491,12.6,1.993,6.282.991,3.16.5,3.1.661c8.27,1.9,16.669,3.226,24.928,5.2,8.239,2.018,16.519,3.9,24.758,6.056l12.245,3.525c4.1,1.193,8.244,2.153,12.27,3.521,8.079,2.741,16.194,5.322,24.325,8.012,3.98,1.554,8,2.993,12.023,4.465,4.053,1.477,8.074,2.948,12.162,4.347l.4-.831c-.924-.558-1.838-1.1-2.788-1.616q-6.984-4.1-14.227-7.821c-1.667-.877-3.386-1.724-5.079-2.566l-15.616-1.92,5.612-2.6-36.1-11.77,3.273-1.347c-10.2-3.438-20.566-6.453-31.02-9.013a59.323,59.323,0,0,0-6.344-1.445l-6.375-1.239c-4.269-.841-8.523-1.677-12.792-2.411l-3.2-.583-3.231-.377-6.448-.764-12.9-1.58-3.226-.382-3.242-.206-6.494-.392c-4.326-.243-8.626-.527-12.962-.7-4.305-.315-8.652.015-12.983.026l-12.937.294c-8.641.222-17.216,1.213-25.821,1.518-4.31.181-8.58.754-12.869,1.089-4.285.4-8.585.65-12.88,1-4.3.237-8.569.872-12.859,1.249l-12.9,1.12c-8.584.96-17.138,2.287-25.708,3.6-4.243.764-8.451,1.771-12.658,2.819-4.2,1.027-8.42,2.049-12.586,3.206-2.153.64-4.31,1.342-6.453,2.008l-32.8,7.263,9.307.95,2.457.253-5.172.893-23.8,4.084,14.95-.372c-2.344,1-4.713,2.034-7.052,3.071-.1.047-.222.119-.33.16l-20.948,5.859,12.849-1.719c-4.878,2.519-9.7,5.1-14.459,7.795ZM663.4,785.931l-81.021-8.12c33.167-4.6,81.021,8.12,81.021,8.12M496.9,785.4l-64.775,13.442c4.532-4.935,62.953-13.174,64.775-13.442" transform="translate(-866.198 -420.793)" fill="#b5b4b2" opacity="0.42"/>
    <path id="Path_99" data-name="Path 99" d="M421.676,775.22c-.15.155-.206.491-.609.145-.083.356-.144.656-.217.955-.026.093-.026.207-.088.274a9.841,9.841,0,0,1-1.017,1.063c-.155.129-.449.108-.676.145-.078.015-.16-.016-.268.041.047.052.093.134.139.14.325.031.263.227.129.366-.351.372-.738.723-1.1,1.084a2.015,2.015,0,0,0-.176.269c-.093.124-.2.242-.3.361l-.077-.046c.036-.207.088-.408.113-.614a.706.706,0,0,0-.015-.233c-.052.052-.139.093-.16.155-.062.217-.077.439-.15.65a2.489,2.489,0,0,1-.33.676,12.157,12.157,0,0,1-.826.893,2.032,2.032,0,0,1-.279.217l-.078-.062a1.745,1.745,0,0,1,.145-.279c.16-.207.335-.4.49-.6s.072-.366-.181-.438a2.485,2.485,0,0,1-.32-.15c-.186.392-.108.9-.583,1.146a4.494,4.494,0,0,1,.274.516.385.385,0,0,1-.088.289c-.243.273-.506.542-.754.815a1.106,1.106,0,0,0,.1,1.218,3.185,3.185,0,0,1,.939,1.559.6.6,0,0,1-.186.5c-.052.062-.3.01-.413-.061-.315-.2-.33-.207-.449.17-.491.026-.9.165-.852.852-.124-.1-.181-.149-.237-.206-.366.382-.413.5-.366.816-.449-.129-.294.708-.909.449.15-.232.289-.449.428-.661.165-.243.335-.485.454-.666-.1-.274-.186-.511-.274-.744.088-.15.165-.3.243-.449l-.067-.057c-.093.057-.175.119-.3.2-.155-.211-.315-.382-.176-.692.1-.222.026-.522.32-.661v-.124c-.036-.026-.108-.062-.144-.047-.062.026-.145.072-.155.124-.093.469-.578.557-.841.867-.072.093-.222.119-.423.212.31.124.557.232.893.371-.258.057-.485.041-.573.145-.232.253-.6.346-.759.671-.1.181-.222.315-.036.531a.432.432,0,0,1-.062.635c-.367.351-.367.418-.1.872l.387.124c-.078.119-.15.232-.268.428.015.118.041.346.072.557.341-.067.5-.315.511-.743a1.1,1.1,0,0,1,.1-.444c.077-.186.14-.449.444-.335.454.176.5.273.4.687a2.925,2.925,0,0,0-.026.48l.114.026a1.808,1.808,0,0,0,.113-.418c-.005-.315.274-.207.418-.284.052-.031.181.1.3.222-.831-.14-.3.49-.48.718-.083-.016-.16-.036-.31-.072.072.2.119.336.176.485a2.854,2.854,0,0,0,.64-.315,2.21,2.21,0,0,0,.356-.49l.15.031c-.108-.49-.206-.986-.325-1.564.083-.082.237-.243.4-.4.119-.114.315-.222.341-.361.082-.423.485-.449.743-.63.124-.088.263-.031.212.155-.1.331-.041.728-.49.883a.735.735,0,0,0-.32.34.593.593,0,0,0,.057.351,3.849,3.849,0,0,0,.2.361l.16.021c-.083.449-.485.1-.7.32.289.124.563.243.842.336.036.016.16-.1.181-.176.052-.222.046-.464.361-.474l.047-.052a5.856,5.856,0,0,0,.568-.867c.1-.222.191-.522-.17-.7-.067-.036-.088-.212-.1-.325,0-.036.129-.078.206-.114.042.1.083.191.129.289a1.834,1.834,0,0,1,.274.325q1.51,3.105,3.01,6.205c.139.289.294.562.408.857a3.356,3.356,0,0,1,.077.656c.418-.026.429.428.6.754s.336.661.5.991a3.638,3.638,0,0,1,.129.408c-.392-.176-.692-.315-1-.454-.072-.031-.129-.083-.206-.108-.413-.181-.48-.341-.315-.779.026-.078.047-.2.01-.243a.24.24,0,0,0-.243-.057c-.062.036-.072.155-.108.238a1.152,1.152,0,0,1-.191.382c-.031.036-.274-.031-.279-.078a1.5,1.5,0,0,1,.021-.48,1.345,1.345,0,0,1,.124-.284l-.113-.093a1.4,1.4,0,0,0-.232.232c-.212.341-.335.382-.686.222a6.63,6.63,0,0,1-.8-.377c-.114-.077-.139-.273-.155-.444l-.057-.031c-.692.232-1.192-.238-1.755-.47a4.757,4.757,0,0,1-.728-.356c-.191-.114-.346-.289-.527-.423-.144-.1-.31-.181-.5-.294-.108.165-.273.119-.48.015-.738-.367-1.482-.707-2.22-1.079-.232-.129-.434-.18-.568-.026-.5-.356-.965-.686-1.409-1.011a2.3,2.3,0,0,0,.356-.253c.036-.036.005-.134.01-.206-.072.01-.16-.01-.212.026-.516.325-.7.279-.94-.248a1.329,1.329,0,0,0-.294-.4c-.041-.031-.17,0-.243.036a2.859,2.859,0,0,0-.284.212,2.137,2.137,0,0,1-.289.475c-.583.583-1.234,1.1-1.76,1.734-.341.4-.79.651-1.131,1.043s-.749.717-1.12,1.074c-.872.852-1.734,1.709-2.6,2.555a2.434,2.434,0,0,1-.227.186l-.139-.243c-.026.016-.062.031-.072.057a6.055,6.055,0,0,1-.563.934c-.124.14-.4.15-.645.227.077.047.139.078.217.124-.16.258-.33.5-.64.506-.1,0-.222-.16-.356-.258-.124.258.082.325.284.4a.346.346,0,0,1-.4.32c-.387-.026-.454.036-.444.439,0,.062.005.15-.031.186-.336.32-.687.635-1.079,1a1.617,1.617,0,0,1-.031-.393c.041-.382.1-.759.155-1.146a1.147,1.147,0,0,1,.434-.976.3.3,0,0,0,.093-.134c.134-.47.242-.945.4-1.4a9.119,9.119,0,0,1,.47-1.058c.026-.062.139-.15.176-.134.413.139.542-.243.769-.413.253-.175.423-.165.615.139-.191.067-.372.14-.558.2l.067.036c-.083.134-.16.258-.269.428l.439.1c.046-.165.072-.31.119-.465a.351.351,0,0,1-.021.614c-.217.1-.227.258-.2.47.186-.067.346-.119.583-.2.01-.211.016-.454.031-.759a4.362,4.362,0,0,0,1.032-.8c.274-.362.589-.682.883-1.012a1.366,1.366,0,0,0,.346-.81,1.5,1.5,0,0,1,.4-1.177c.031-.026.036-.088.052-.139-.47.072-.919.124-1.358.232-.1.026-.263.259-.232.315.165.315-.047.366-.279.4a1.029,1.029,0,0,1,.144.279,1.043,1.043,0,0,1-.088.31,1.333,1.333,0,0,1-.258-.134.355.355,0,0,0-.573-.031,1.884,1.884,0,0,0,.413.2c.232.047.351.124.217.382-.015.026.088.129.15.17.1.067.222.119.3.165a7.732,7.732,0,0,1-.573.65.955.955,0,0,1-.532.279c-.186,0-.366-.17-.578-.273-.15.078-.33.165-.532.263-.046-.206.139-.557-.294-.485a.7.7,0,0,1-1.032.521.3.3,0,0,1-.139-.191c.067-.6.145-1.2.222-1.828.583.176.589-.4.96-.614-.181-.113-.315-.2-.48-.31-.021.609-.021.609-.465.568-.083.134-.17.263-.268.429-.16-.392-.072-.583.16-.661.129-.444.237-.831.356-1.255-.16.031-.294.057-.418.077l-.062-.124c.1-.057.212-.119.3-.186s.212-.124.227-.2c.222-1.6.423-3.2.645-4.8a.475.475,0,0,0-.3-.537c-.883-.454-1.755-.929-2.638-1.389-.2-.109-.392-.269-.656-.113-.041.02-.155-.072-.212-.129-.108-.113-.17-.289-.294-.356q-2.842-1.541-5.694-3.056c-1.084-.573-2.173-1.141-3.262-1.714-.139-.072-.263-.155-.485-.289.191-.067.289-.118.4-.144.95-.17,1.91-.341,2.855-.526a1.169,1.169,0,0,0,.4-.212c.165-.124.284-.289.49-.026.134.165.222.026.253-.134.026-.093.072-.263.124-.268a.487.487,0,0,1,.356.1.486.486,0,0,0,.547.155q3.469-.65,6.958-1.286c.811-.155,1.616-.31,2.426-.449a.381.381,0,0,0,.361-.362c.289-1.621.594-3.237.893-4.857.01-.062.015-.124.026-.207l-.124.021-.335.031c.072-.129.108-.3.217-.366a3.34,3.34,0,0,0,.49-.274,2.544,2.544,0,0,1-.031-.557c.49-2.664,1-5.327,1.5-7.991.036-.181.077-.361.119-.542a.231.231,0,0,1,.083-.005c.2.346.4.692.589,1.038.454.862.94,1.7,1.337,2.586.15.32.052.764.511.909.392.738.805,1.466,1.156,2.22.274.609.656,1.141.955,1.729s.609,1.177.929,1.76c.052.1.181.155.2.176.176.392.294.738.465,1.053s.181.31.026.516a2.912,2.912,0,0,0,.516.5.706.706,0,0,1,.408.687c0,.072.217.191.32.191.408-.036.805-.1,1.213-.16.093-.01.191-.026.341-.041-.026.294-.052.557-.072.826.356.021.434-.083.294-.4a.36.36,0,0,1,.284-.5,2.061,2.061,0,0,0,1.213-.325c.041-.036.186.051.289.077.067-.082.165-.2.258-.3.067.082.139.171.232.289.779-.108,1.595-.217,2.411-.325a5.235,5.235,0,0,1,.573-.072,1.379,1.379,0,0,1,.289.1,2.487,2.487,0,0,1-.129.289c-.093.154-.207.3-.289.459a.268.268,0,0,0,0,.243c.093.165.031.242-.134.289-.289.083-.408.243-.279.547.083.212.113.439-.222.475-.062.01-.109.114-.155.176a2.135,2.135,0,0,0,.186.109.158.158,0,0,0,.129-.005c.284-.2.387-.108.485.2.031.1.361.119.532.165.093.2.2.413.3.63l-.046.073c-.274-.17-.552-.335-.836-.506a1.511,1.511,0,0,1-.175.222,1.2,1.2,0,0,1-.289.18c-.052.248-.124.5-.155.749-.015.175.041.366.021.542a4.954,4.954,0,0,1-.175,1.012c-.124.325-.366.6-.263,1.017.093.021.212.036.351.062a1.936,1.936,0,0,1,.052-.289.661.661,0,0,1,.129-.15c.026.067.093.145.072.191-.083.2-.016.3.222.377.021-.217.052-.423.067-.6l-.48-.279.031-.1a2.36,2.36,0,0,1,.506,0c.351.062.516-.073.537-.434.021-.4.067-.81.1-1.213,0-.041.036-.077.041-.093a6.626,6.626,0,0,1,.945.537c.078.057.01.3.005.521.088-.036.217-.046.268-.119a.37.37,0,0,0,.026-.3c-.134-.32.082-.527.227-.759a3.081,3.081,0,0,0,.134-.33c.067-.171.139-.326.191-.491.046-.15.139-.33.1-.459-.155-.511-.17-.5.057-.867-.232-.082-.222-.077-.284.119-.031.088-.134.15-.207.227a1.93,1.93,0,0,0-.01-.248c-.021-.506.206-.609.635-.408.026.015.078-.042.2-.114-.191-.052-.3-.088-.408-.114.144-.341.268-.692.428-1.006.041-.083.212-.1.351-.16-.046-.047-.083-.108-.119-.124a1.655,1.655,0,0,0-.46-.093.567.567,0,0,0-.325.155c-.165.2-.3.424-.6.418-.072,0-.206-.015-.212-.046a1.6,1.6,0,0,1-.083-.733c.119-.32.485-.279.774-.289.077,0,.176.134.227.124a3.246,3.246,0,0,1,.64-.258,8.828,8.828,0,0,1,1.167-.1c.078,0,.15.082.232.129l-.315.124c.01-.026.01.047-.021.083-.207.222-.408.439.1.526a.737.737,0,0,1-.062.455.7.7,0,0,0,.33,1.223,3.228,3.228,0,0,1,.3.124Zm-8.827,4.393.051.1c-.186.186-.356.5-.568.537-.3.052-.31.067-.2.331.052.108-.026.3-.093.423-.015.047-.217.047-.284-.01a.53.53,0,0,1-.222-.33c.01-.346.077-.682.114-.991-.568-.186-.7.16-.831.542l.372.557-.578.578-.072-.062c.072-.134.15-.269.212-.387a1.3,1.3,0,0,0-.165-.372.642.642,0,0,0-.33-.14c-.031-.005-.113.1-.129.176-.067.289-.119.578-.186.872a.2.2,0,0,1-.119.114c-.521.186-.444.728-.656,1.1-.1.186-.217.438-.382.49a.582.582,0,0,1-.733-.2c.222-.088.382-.367.635-.041.072-.108.124-.191.2-.31-.186-.031-.361-.005-.454-.088-.078-.062-.062-.242-.088-.4-.057.005-.15.016-.289.026a2.889,2.889,0,0,0,.072-.341.931.931,0,0,0-.015-.382c-.026-.057-.191-.078-.289-.057-.041.01-.1.2-.083.216.284.217.129.557.237.821.1.248.031.408-.263.382a2.03,2.03,0,0,0-.253.021,1.889,1.889,0,0,1,.186.129c.067.062.124.124.186.191-.093.062-.211.191-.268.171-.4-.16-.4.3-.671.377.346-.057.434.109.392.346.346-.026.506.207.723.459.021-.139.031-.238.046-.325.145-.047.294-.093.439-.134-.016-.134-.031-.237-.046-.33-.026-.17.036-.279.217-.253.3.046.434-.1.511-.361a2.362,2.362,0,0,1,.165-.32c.372.346.423.336,1.125-.119-.026-.057-.093-.124-.077-.176a2.852,2.852,0,0,1,.243-.666c.041-.067.268-.046.4-.031a3.948,3.948,0,0,1,.485.119c.041.108.067.341.16.361.325.087.191.268.118.438a2.283,2.283,0,0,0-.16.367c-.005.056.093.134.15.2a4.654,4.654,0,0,0,.3-.434c.036-.062-.026-.191.011-.243.186-.248.294-.578.65-.65.057-.021.15-.072.155-.113.047-.382.3-.31.5-.269.108-.144.17-.3.289-.351.232-.1.408-.207.32-.49.5-.165.5-.165.718.439.129-.3.268-.63.408-.95a.578.578,0,0,0,.294-.3c.067-.247.083-.521.15-.774s.387-.444,0-.785a3.84,3.84,0,0,1-.588-1.141,3.19,3.19,0,0,1-.16.351c-.047.077-.1.212-.165.222-.361.015-.434.222-.392.547-.119.01-.227.015-.341.02.01.078.021.145.041.259-.392-.15-.351.129-.382.341-.026.242-.005.521-.387.454l-.031.3c-.124-.016-.222-.031-.32-.046m-5.493,7.991.031.088a2.028,2.028,0,0,1-.48.2c-.212.03-.367.077-.4.325-.031.227-.1.444-.15.661a.3.3,0,0,0-.01.176.149.149,0,0,0,.144.041.236.236,0,0,0,.1-.155c-.026-.3.181-.47.382-.635a1.094,1.094,0,0,1,.341-.088c.021.15.109.315.067.429a8.048,8.048,0,0,1-.439.826c-.021-.01-.088-.026-.144-.052a.7.7,0,0,0-1.1.46.894.894,0,0,1-.1.2l-.1.026c-.01-.114-.015-.2-.026-.367-.155.264-.521.408-.1.661.047.026.041.165.041.248-.015.113-.041.227-.067.341l.077.052.227-.2c.078-.078.145-.212.233-.222.2-.036.211-.155.227-.31a.594.594,0,0,1,.96-.449c.062.041.217.062.237.026.258-.449.49-.083.749-.005.17.046.5.026.547-.072a5.151,5.151,0,0,0,.387-1.043.974.974,0,0,0-.005-.3c-.1.01-.206.031-.3.041l.1-.248c-.47-.145-.465-.139-.666.263a.232.232,0,0,1-.144.114.228.228,0,0,1-.129-.129c-.181-.361-.17-.413.176-.805l-.666-.1m-2.782-1.208c-.392-.062-.387-.062-.315-.4a.233.233,0,0,0-.083-.186c-.16-.078-.65.181-.723.377.114.021.232.036.3.057-.046.211-.077.392-.129.563-.021.082-.108.206-.134.2-.284-.078-.459.1-.645.258a.151.151,0,0,1-.129.021c-.212-.232-.712-.088-.748-.609a.646.646,0,0,0-.2.315c-.021.134.041.278.01.4a1.513,1.513,0,0,1-.268.48c-.026.031-.2-.077-.315-.093a.315.315,0,0,0-.2.052c-.1.062-.18.165-.279.2-.181.062-.382.062-.558.124-.093.036-.155.15-.232.227.093.047.2.145.274.129a3.326,3.326,0,0,0,.589-.237c.144-.062.289-.14.413-.2.077.144.124.33.2.341.238.026.31.186.392.361.052.093.165.15.253.227a2.3,2.3,0,0,1,.114-.284c.062-.114.139-.3.212-.31.273.01.521-.335.81-.067.021.021.145-.031.16-.067a.679.679,0,0,1,.609-.516c.057-.382.108-.728.17-1.13.072-.036.222-.114.454-.238m5.188-9.694.083.015c.16-.206.315-.412.511-.676.083.212.191.351.16.449-.15.454.227.428.413.542l.62-.552c-.17-.041-.269-.073-.413-.109.181-.31.263-.6-.021-.878l.145-.181c.149.078.273.052.31-.119a1.305,1.305,0,0,0-.005-.346c-.119.036-.248.067-.367.1-.341-.021-.687-.052-1.089-.072.124.651-.413.723-.8.95.253.051.537.062.547.118a2.186,2.186,0,0,1-.088.552,1.377,1.377,0,0,0-.005.206m-8-11.264c.5.2.269.5.16.774-.119.3-.274.6-.093.919.041.088.124.191.2.207.093.01.273-.052.294-.114q.163-.619.263-1.254a2.623,2.623,0,0,0-.005-.568c-.1-.015-.32-.021-.124-.294.031-.041.005-.119,0-.176-.057-.005-.145-.031-.181.005-.165.14-.32.3-.516.5m-.707,25.414c.041-.212.072-.331.083-.45,0-.051-.052-.108-.078-.165-.057.036-.139.062-.165.114-.052.083-.057.2-.1.289a1.585,1.585,0,0,1-.31.491.493.493,0,0,0,0,.759c.031.015.078,0,.124-.005-.021-.124-.036-.222-.057-.357.186.031.32.062.49.088-.191.217-.186.346.041.366.165-.144.284-.258.444-.4-.253-.475.237-.774.465-1.156l-.134-.093c-.243.155-.485.31-.8.516m3.381.32a4.24,4.24,0,0,0-.3.589.817.817,0,0,0-.005.392c.377.041.2.382.3.573.248-.1.361-.242.237-.5a.2.2,0,0,1,0-.155c.356-.449.139-1.022.325-1.512.005-.021-.227-.186-.279-.16a1.223,1.223,0,0,0-.269.31.761.761,0,0,1-.212.2,1.155,1.155,0,0,1-.294.057c.093.052.186.109.284.154a1.539,1.539,0,0,0,.207.057m.232-21.191.444-.295c.145.2.289.352.573.15-.5-.3-.026-.6-.077-.914.48-.036.609-.186.5-.527-1.032.33-1.311.64-1.44,1.585m1.394,6.685a3.046,3.046,0,0,1,.341.175c.17.114.284.1.263-.129-.026-.423-.077-.842-.129-1.265-.005-.046-.1-.072-.15-.1-.026.041-.088.1-.077.124.2.341-.134.438-.294.578-.325.3-.238.7-.356,1.043l.129.057c.083-.15.16-.289.274-.48m3.252,12.327c.062.2.15.49.238.779.119-.062.294-.14.459-.243.067-.042.15-.139.144-.207,0-.263-.031-.516-.046-.717l-.413-.036c-.108.119-.222.248-.382.423m3.768,1.326c-.165.088-.263.2-.372.2-.315.005-.325.269-.418.46-.021.041.015.119.015.18.072-.005.155.01.2-.031a.3.3,0,0,1,.49.041.3.3,0,0,0,.258.041c.031-.01.057-.154.041-.222-.062-.212-.134-.418-.217-.666m-4.248-2.953c.227.175-.17.63.367.774-.078-.186-.134-.3-.191-.464a.867.867,0,0,1,.222.026c.222.093.341.119.284-.2a5.525,5.525,0,0,1-.015-.945c-.258.315-.459.552-.666.811m-.671-11.46h.114c-.052-.108-.083-.294-.155-.3-.3-.083-.273-.268-.2-.48-.243-.134-.268.02-.33.176s-.171.269-.238.408-.083.263-.129.387l.057.01.346-.341c.088.248.155.444.217.635.119-.181.217-.336.315-.491m-2.39-2.034.062.041c.335-.264.676-.526,1.063-.831-.1-.1-.222-.3-.33-.3s-.263.171-.351.31c-.165.243-.294.521-.444.785m2.617,12.322a.531.531,0,0,0,.578-.2c.067-.186.16-.356.222-.542a1.086,1.086,0,0,0,.072-.377.693.693,0,0,0-.119-.279c-.067.078-.16.15-.181.243-.036.155.036.367-.036.5a5.567,5.567,0,0,1-.537.661m7.526,6.143c.315.052.614.057.738-.212.062-.14-.088-.382-.14-.573l-.129-.02c-.155.263-.3.516-.47.8m-10.7-12.049c.077-.077.165-.16.243-.243-.088-.072-.165-.2-.268-.212-.212-.031-.212.139-.212.294,0,.269-.015.532-.021.8a.254.254,0,0,0,.088.119c.062-.031.17-.083.176-.124.01-.211-.005-.423-.005-.635m-1.544-15.781c-.077.175-.145.3-.2.434a2.806,2.806,0,0,0-.14.4c-.015.047.041.108.072.17.052-.031.134-.036.16-.082.1-.191.113-.439.408-.454.016,0,.031-.083.041-.124.093-.377-.217-.3-.341-.341m-1.554,6.85.139.057c.067-.1.181-.207.2-.32a8.769,8.769,0,0,0,.062-1.037c.005-.036-.062-.108-.093-.1-.036-.01-.1.052-.108.088-.072.439-.134.877-.2,1.316m4.7,9.039c.108.248.175.428.248.6l.072-.041c.093-.351.175-.707.274-1.089-.444-.077-.258.511-.594.527m5.73,3.774c-.191-.331-.418-.423-.537-.264a2.943,2.943,0,0,0-.243.434.158.158,0,0,0,.005.144.151.151,0,0,0,.145.031c.212-.1.418-.227.63-.346m2.684,6.267a4.833,4.833,0,0,0,.47.14,1.07,1.07,0,0,0,.253-.016,1.194,1.194,0,0,1-.041-.237,2.054,2.054,0,0,1,.021-.253c0-.052.015-.119-.005-.15s-.124-.052-.145-.026c-.17.155-.336.32-.552.542M401.59,767.652a.563.563,0,0,1-.01.872c-.047.062.015.212.031.32a1.128,1.128,0,0,0,.2-.217,2.222,2.222,0,0,0,.17-.47c.067-.268-.072-.433-.392-.506m2.178,10.18c-.129-.454-.212-.516-.6-.423a.286.286,0,0,0-.114.248c.134.382.439.145.712.176m5.518,6.22.175-.263c.108.077.2.149.284.211l.088-.083c-.165-.217-.336-.433-.521-.671-.237.377-.237.526-.026.805m-4.016-1.089.062-.109c-.129-.109-.258-.222-.382-.331a1.706,1.706,0,0,0-.263.4.253.253,0,0,0,.217.372c.036-.119.067-.222.1-.325.1,0,.186,0,.268,0m-.526.816-.067.119a2.344,2.344,0,0,0,.129.377c.129.253.31.067.464.02a.3.3,0,0,0,.078-.2c-.191-.119-.4-.212-.6-.315m2.581-1.069c-.377.062-.712.088-.9.465.2,0,.408-.118.583-.078.351.067.3-.144.315-.387m-4.155-13.489c.093-.269-.134-.6-.542-.775-.036.413.237.578.542.775m-2.509,16.142a1.691,1.691,0,0,0,.052-.217,1.589,1.589,0,0,0-.222-.021.283.283,0,0,0-.129.036c-.129.072-.258.144-.377.227l.062.124a2.55,2.55,0,0,0,.449-.047c.047,0,.077-.041.165-.1m7.366-13.184-.057-.072c-.145-.016-.32-.222-.423.031-.057.135-.1.4-.031.449.232.165.263-.139.382-.237a.778.778,0,0,0,.129-.171m-2.493,13.984c.021-.222.036-.377.057-.594a.838.838,0,0,0-.243.145,1.8,1.8,0,0,0-.129.227c-.057.077-.119.15-.176.222a1.75,1.75,0,0,0,.33.031.447.447,0,0,0,.16-.031m9.153-9.669a.644.644,0,0,0-.743.01.22.22,0,0,0-.067.165c.036.057.134.15.17.14.2-.083.392-.191.64-.315m-11.692-9.339.155.01c.31-.2.387-.464.17-.624-.047-.036-.227.01-.232.051a3.459,3.459,0,0,0-.093.563m-1.822,14.429a.384.384,0,0,1-.036-.108c-.1-.026-.2-.052-.294-.067l.129-.253-.1-.083c-.067.083-.191.17-.191.258a1.667,1.667,0,0,0,.144.4c.124-.047.232-.093.351-.15m5.064-3.629c-.005.067-.016.134-.026.2a2.834,2.834,0,0,0,.5.077c.026.006.052-.2.083-.315-.191.016-.372.026-.552.036m12.709,16.921c.1-.046.191-.1.289-.139.119-.046.242-.083.361-.124-.124-.047-.253-.088-.382-.14-.093-.026-.186-.057-.279-.088l-.041.129c.176.113.279.232.052.361m-15.8-1.925a1.361,1.361,0,0,0,.1-.238l-.088-.072a4.792,4.792,0,0,0-.532.242l.021.14c.165-.021.33-.047.5-.072m-2.9-2.906a1.577,1.577,0,0,0,.237.2.166.166,0,0,0,.15-.016c.026-.026.021-.139.015-.144a1.673,1.673,0,0,0-.5-.062c-.072.015-.114.191-.17.294l.1.046.16-.314m15.3-14.454-.021-.124-.552-.031c.093.191.15.294.227.449.134-.118.243-.2.346-.294m-12.668,13.84.109.01a1.022,1.022,0,0,0,.077-.413c-.021-.062-.232-.067-.361-.1l-.046.082c.072.145.145.279.222.418m6.04-10.52c-.119.154-.237.294-.341.428.093.016.207.067.263.031.155-.077.294-.191.077-.459m2.571,11.894c-.021-.088-.036-.263-.047-.258-.273.015-.3-.191-.3-.423-.2.294-.15.413.351.681m-12.018.645c.041,0,.088-.005.134-.005,0-.144,0-.279-.005-.428-.093.021-.227.005-.274.062-.176.2.015.278.144.371m-.821,1c.372.134.48.021.5-.2.005-.067-.052-.144-.078-.222-.124.129-.253.258-.418.418m10.324-2.189c.2-.031.341-.026.361-.067a.6.6,0,0,0,.016-.33c-.005-.021-.2-.052-.211-.021a2.528,2.528,0,0,0-.165.418m-4.873-5.828-.021-.2c-.145,0-.279,0-.423.01.031.078.052.233.1.238a1.011,1.011,0,0,0,.346-.046m-1.481-5.994a1.432,1.432,0,0,0,.015.15,4.526,4.526,0,0,0,.527-.083c.036-.01.031-.16.062-.315l-.6.248m2.715-7.413.1.01c.1-.124.2-.248.346-.434l-.289-.072c-.062.155-.1.33-.155.5M401.109,788.8a3.928,3.928,0,0,0,.392.134.156.156,0,0,0,.139-.047.187.187,0,0,0,.01-.15c-.093-.159-.413-.129-.542.062m4.4-3.794.046.083a1.39,1.39,0,0,0,.382-.067c.062-.016.1-.1.15-.155-.067-.031-.16-.1-.206-.088a3.92,3.92,0,0,0-.372.227m4.7-7.274c-.119.2-.2.3-.263.423-.015.036-.026.1,0,.124s.093.057.1.041a1.148,1.148,0,0,0,.289-.279c.026-.047-.062-.16-.129-.31M399,789.044a2.416,2.416,0,0,0,.439-.057c.031-.005.031-.1.046-.165a4,4,0,0,0-.434-.015c-.021.005-.026.108-.052.237m5.869-10.309a1.541,1.541,0,0,1-.16-.005l-.088.444c.093-.036.227-.052.258-.113a1,1,0,0,0-.01-.325m12.709,12.781-.5.052c.026.078.026.207.072.232.176.088.32.042.428-.284m-17.557,1.4c-.144-.15-.232-.237-.366-.366-.051.16-.088.263-.155.444l.521-.078m14.568-17.108.052-.155-.33-.191c-.021.083-.046.17-.072.263.119.031.232.057.351.082m-8.512,9.943c.062.248.1.387.129.526.041,0,.083,0,.119,0a1.544,1.544,0,0,0,.041-.4c0-.042-.14-.067-.289-.129" transform="translate(-863.018 -481.449)" fill="#b5b4b2"/>
    <path id="Path_100" data-name="Path 100" d="M486.175,770.393c-.067.206.021.537-.491.387.078.362.145.656.207.96a.707.707,0,0,1,.036.284,10.805,10.805,0,0,1-.475,1.394c-.088.181-.367.284-.558.413-.062.046-.15.057-.222.155.062.026.139.077.181.062.31-.108.336.1.274.279-.165.485-.367.965-.547,1.45a2.113,2.113,0,0,0-.046.315c-.036.155-.083.31-.124.459l-.088-.015c-.052-.2-.088-.4-.155-.6a.848.848,0,0,0-.109-.2c-.031.067-.088.145-.083.207.036.222.114.434.134.656a2.433,2.433,0,0,1-.01.749,12.176,12.176,0,0,1-.377,1.161,2.175,2.175,0,0,1-.16.31l-.1-.02a3.019,3.019,0,0,1,.016-.315c.062-.253.139-.5.2-.754s-.093-.361-.351-.325a2.032,2.032,0,0,1-.356,0c0,.433.284.862-.046,1.285a4.2,4.2,0,0,1,.47.356.387.387,0,0,1,.041.294c-.1.351-.232.707-.346,1.058a1.127,1.127,0,0,0,.6,1.068,3.2,3.2,0,0,1,1.512,1.017.625.625,0,0,1,.036.532c-.021.077-.268.134-.4.118-.372-.051-.387-.051-.341.341-.428.232-.743.527-.413,1.131-.155-.041-.227-.057-.3-.083-.171.5-.171.625,0,.888-.464.072.036.769-.635.79.041-.274.072-.527.113-.78.047-.289.1-.578.129-.795-.2-.206-.382-.382-.558-.557.016-.171.026-.341.031-.511l-.083-.021c-.062.088-.113.181-.191.3-.227-.129-.449-.217-.449-.552,0-.248-.2-.491.01-.738.01-.015-.026-.1-.052-.108a.182.182,0,0,0-.15.015c-.041.052-.1.129-.088.175.113.465-.295.754-.4,1.146-.031.109-.155.2-.294.367.325-.016.6-.026.96-.041-.207.16-.423.247-.46.377-.1.325-.4.562-.408.924-.01.212-.062.382.2.5a.428.428,0,0,1,.206.6c-.186.469-.155.531.284.826l.4-.047c-.021.139-.036.274-.062.506.067.1.181.289.3.475.284-.211.315-.5.15-.893a1.1,1.1,0,0,1-.093-.444c-.005-.207-.057-.47.263-.49.49-.036.573.036.656.454a3.423,3.423,0,0,0,.176.444l.119-.026a2.114,2.114,0,0,0-.073-.423c-.139-.289.155-.3.258-.439.036-.046.207.016.362.078-.811.227-.067.568-.129.857-.083.02-.16.031-.315.062l.367.367a3.185,3.185,0,0,0,.449-.552,1.993,1.993,0,0,0,.113-.594l.15-.036c-.3-.4-.6-.811-.95-1.285.036-.109.109-.32.191-.527.057-.155.191-.336.16-.47-.1-.423.248-.609.408-.888.072-.129.227-.134.253.057.052.336.268.676-.072,1.007a.693.693,0,0,0-.145.444c0,.093.113.206.2.289a3.123,3.123,0,0,0,.336.248l.149-.046c.114.438-.4.294-.5.583.314-.01.614-.016.9-.052.041,0,.1-.16.088-.238-.047-.216-.15-.438.129-.578l.026-.067a6.389,6.389,0,0,0,.145-1.027c0-.243-.047-.552-.444-.563-.077,0-.17-.15-.227-.253-.01-.031.083-.118.139-.186l.237.207a1.778,1.778,0,0,1,.387.18c1.781,1.456,3.557,2.907,5.338,4.367.248.2.506.387.728.6a3.433,3.433,0,0,1,.346.563c.372-.2.573.212.862.433s.578.459.872.686a3.044,3.044,0,0,1,.284.32c-.428,0-.759,0-1.094.005-.078,0-.15-.02-.232-.015-.449.01-.578-.108-.614-.573-.005-.082-.041-.2-.093-.222a.24.24,0,0,0-.242.047c-.041.062.005.17.005.263a1.323,1.323,0,0,1-.015.429c-.01.047-.263.083-.284.047a1.392,1.392,0,0,1-.181-.444,1.535,1.535,0,0,1-.015-.31l-.14-.036a1.354,1.354,0,0,0-.108.3c-.052.4-.145.491-.537.491a6.2,6.2,0,0,1-.878-.01c-.134-.021-.242-.186-.325-.33l-.062-.01c-.532.5-1.182.284-1.791.315a4.8,4.8,0,0,1-.816-.02,6.355,6.355,0,0,1-.651-.16,5.661,5.661,0,0,0-.573-.057c-.031.191-.2.217-.429.212-.826-.026-1.642-.016-2.468-.046-.268-.015-.47.015-.532.217-.594-.119-1.161-.222-1.7-.331a3.049,3.049,0,0,0,.217-.377c.015-.046-.052-.124-.083-.191-.057.036-.145.057-.176.114-.335.511-.516.547-.96.17a1.287,1.287,0,0,0-.434-.242c-.052-.015-.16.072-.207.134a2.024,2.024,0,0,0-.165.31,2.264,2.264,0,0,1-.067.558c-.284.769-.656,1.512-.867,2.307-.139.506-.444.924-.588,1.425s-.377.966-.563,1.445q-.651,1.712-1.29,3.412a2.026,2.026,0,0,1-.129.263l-.227-.165c-.016.026-.047.057-.047.082a5.794,5.794,0,0,1-.114,1.084c-.052.18-.3.3-.49.48.088.01.155.01.248.02-.036.3-.088.594-.367.728-.1.047-.268-.052-.433-.088-.005.289.211.258.423.247a.341.341,0,0,1-.222.455c-.367.139-.4.222-.217.583.026.057.067.134.047.186-.17.428-.362.862-.563,1.352a1.839,1.839,0,0,1-.191-.341c-.124-.361-.227-.733-.341-1.1a1.149,1.149,0,0,1-.015-1.069.254.254,0,0,0,.026-.16c-.077-.485-.176-.96-.227-1.446a9.632,9.632,0,0,1-.021-1.156c0-.067.062-.191.1-.2.434-.047.392-.444.527-.692.155-.268.315-.33.619-.134-.15.14-.284.279-.423.418l.077.005c-.021.154-.041.3-.067.5.124-.021.274-.057.439-.093-.031-.171-.062-.31-.088-.47a.35.35,0,0,1,.243.563c-.155.186-.1.33.015.511.145-.134.269-.253.449-.423-.083-.2-.181-.418-.294-.7a4.214,4.214,0,0,0,.6-1.156c.1-.444.248-.867.372-1.29a1.336,1.336,0,0,0-.026-.883,1.505,1.505,0,0,1-.129-1.234c.021-.036-.005-.1-.01-.149-.392.263-.78.5-1.131.78-.088.067-.134.346-.083.382.284.217.114.356-.082.48.1.072.2.119.242.191a.2.2,0,1,1-.232.3.362.362,0,0,0-.537.212,1.924,1.924,0,0,0,.454.005c.237-.051.372-.036.361.253,0,.036.134.083.206.1a2.794,2.794,0,0,0,.346.015,7.717,7.717,0,0,1-.248.831.946.946,0,0,1-.361.48,1.787,1.787,0,0,1-.64-.005c-.108.134-.232.289-.377.464-.129-.17-.1-.567-.47-.32a.7.7,0,0,1-.718.908.315.315,0,0,1-.206-.113c-.191-.578-.372-1.156-.563-1.75.6-.093.362-.62.609-.965-.212-.026-.372-.047-.563-.078.237.563.237.563-.186.707-.02.16-.046.315-.067.5-.3-.284-.31-.5-.124-.666-.072-.454-.139-.852-.206-1.285-.134.093-.243.17-.351.243l-.108-.083c.067-.093.144-.2.2-.294s.14-.207.124-.279c-.475-1.544-.96-3.082-1.435-4.625a.469.469,0,0,0-.5-.362c-1-.041-1.982-.1-2.984-.149-.227-.016-.465-.083-.64.171-.026.036-.17,0-.248-.026-.144-.062-.274-.191-.413-.2q-3.222-.2-6.453-.382c-1.223-.067-2.452-.124-3.681-.186-.155,0-.3-.031-.563-.057.144-.139.217-.227.3-.3.795-.558,1.59-1.11,2.375-1.678a1.1,1.1,0,0,0,.268-.362c.1-.18.144-.382.439-.227.191.093.212-.072.175-.232-.015-.093-.046-.269-.005-.289a.478.478,0,0,1,.366-.062.5.5,0,0,0,.563-.088q2.88-2.051,5.776-4.1c.671-.475,1.332-.955,2.008-1.42a.383.383,0,0,0,.181-.48c-.418-1.595-.821-3.185-1.234-4.785a1.372,1.372,0,0,0-.062-.2l-.1.067c-.1.057-.2.113-.294.17.01-.144-.026-.315.036-.423.113-.175.294-.32.335-.454a2.55,2.55,0,0,1-.263-.5q-1.007-3.934-2-7.878c-.047-.18-.083-.356-.119-.542a.2.2,0,0,1,.072-.041c.32.232.65.465.97.7.769.594,1.564,1.151,2.3,1.786.268.227.366.666.847.609.666.506,1.347.991,1.982,1.528.5.434,1.074.759,1.59,1.167s1.048.816,1.585,1.208a.748.748,0,0,0,.253.077c.325.284.583.542.867.759s.294.207.243.46a3.316,3.316,0,0,0,.676.237.709.709,0,0,1,.661.454c.026.062.279.077.366.031.357-.2.692-.429,1.033-.65.082-.052.165-.1.294-.186.1.284.191.532.284.78.33-.124.361-.253.1-.48a.362.362,0,0,1,.046-.573c.361-.222.774-.382.966-.805.02-.052.191-.036.294-.052.031-.1.067-.242.108-.382.1.046.2.1.336.165.661-.424,1.358-.862,2.049-1.306a4.757,4.757,0,0,1,.49-.3,1.154,1.154,0,0,1,.3-.036c.005.108.01.211.005.315-.021.186-.067.362-.072.542a.261.261,0,0,0,.1.216c.155.114.134.207.005.32-.227.2-.274.392-.026.614.165.16.289.351,0,.527-.051.031-.051.144-.067.222a1.462,1.462,0,0,0,.212.021.135.135,0,0,0,.113-.062c.176-.3.31-.258.527-.016.072.078.377-.046.552-.077.171.145.351.294.542.444l-.015.088c-.315-.041-.64-.072-.971-.108a1.036,1.036,0,0,1-.062.273,1.348,1.348,0,0,1-.191.284c.062.248.1.506.181.744.057.17.186.32.243.485a4.75,4.75,0,0,1,.263,1c.025.346-.078.7.191,1.033.093-.026.207-.057.346-.093a1.437,1.437,0,0,1-.073-.284.735.735,0,0,1,.047-.191c.057.052.15.093.15.145.005.216.113.284.361.248-.072-.207-.134-.408-.2-.573-.212-.021-.377-.041-.553-.057l-.015-.1a3.072,3.072,0,0,1,.46-.217c.346-.088.439-.279.3-.615-.15-.377-.278-.764-.413-1.146-.021-.036,0-.082,0-.1a7.229,7.229,0,0,1,1.079.093c.1.016.139.268.227.47.062-.067.175-.134.191-.222a.379.379,0,0,0-.1-.289c-.258-.232-.15-.511-.113-.779.01-.119-.015-.248-.015-.362-.01-.176-.016-.351-.036-.521-.015-.155-.01-.362-.1-.46-.356-.4-.367-.382-.315-.81-.248.026-.232.026-.212.227a.722.722,0,0,1-.093.295c-.036-.078-.072-.155-.108-.222-.232-.449-.067-.64.4-.635.031,0,.057-.072.134-.186-.2.031-.315.052-.418.067-.015-.367-.052-.738-.036-1.094,0-.088.149-.175.253-.289a.8.8,0,0,0-.165-.067,1.613,1.613,0,0,0-.454.114.53.53,0,0,0-.227.278c-.067.243-.1.506-.372.63-.067.026-.191.073-.207.047-.15-.206-.366-.413-.387-.63-.026-.341.325-.459.583-.589.067-.031.212.047.253.015a3.684,3.684,0,0,1,.475-.505,9.835,9.835,0,0,1,1.022-.578c.067-.036.17.015.263.026l-.232.237c-.005-.026.026.041.016.083-.1.289-.191.573.315.439.01,0,.176.31.134.439-.181.624.17,1.058.815.97a2.224,2.224,0,0,1,.325-.015Zm-6.164,7.7.088.067c-.088.253-.113.6-.289.728-.258.175-.253.191-.046.382.1.078.108.284.1.423.005.046-.181.134-.263.113a.562.562,0,0,1-.341-.212c-.134-.315-.217-.65-.31-.945-.594.072-.568.439-.532.841l.573.346-.279.769-.093-.021c.005-.155.021-.31.026-.439-.108-.1-.191-.227-.3-.273a.647.647,0,0,0-.356.01c-.031.01-.057.144-.041.217.057.294.129.573.2.867a.232.232,0,0,1-.057.155c-.4.387-.1.847-.14,1.27-.015.212-.01.5-.139.609a.587.587,0,0,1-.749.124c.165-.176.2-.491.558-.3.021-.129.031-.227.047-.361-.181.052-.33.145-.444.109-.1-.021-.16-.191-.253-.326-.047.026-.129.078-.248.145-.036-.134-.046-.243-.082-.341a.893.893,0,0,0-.176-.341c-.047-.041-.207.01-.284.067a.323.323,0,0,0,.015.233c.351.082.351.454.563.65.191.181.2.351-.083.454a1.481,1.481,0,0,0-.217.129,1.4,1.4,0,0,1,.222.036c.083.026.165.062.248.093-.057.1-.108.263-.17.268-.428.026-.237.444-.449.625.289-.2.439-.083.5.15.3-.171.542-.026.847.108-.041-.129-.072-.222-.1-.309.119-.1.232-.207.346-.3-.072-.119-.124-.2-.181-.284-.1-.145-.088-.268.093-.32.289-.077.351-.273.31-.542a2.147,2.147,0,0,1,.016-.361c.48.16.526.129.97-.578-.052-.041-.134-.077-.139-.129a2.349,2.349,0,0,1-.062-.707c0-.077.222-.15.351-.2a4.031,4.031,0,0,1,.491-.093c.078.077.2.279.294.263.335-.062.284.16.294.341a2.094,2.094,0,0,0,.01.4c.015.056.139.082.217.118a4.5,4.5,0,0,0,.1-.516c.005-.077-.1-.165-.093-.227.062-.3.026-.651.315-.867.047-.041.108-.124.1-.165-.124-.367.144-.408.335-.455.036-.176.026-.346.114-.439.165-.186.279-.356.082-.578.382-.361.382-.361.836.1-.01-.331-.02-.687-.031-1.032a.6.6,0,0,0,.14-.4c-.042-.253-.145-.506-.191-.764s.165-.568-.325-.712c-.351-.1-.625-.475-1.017-.79a3.348,3.348,0,0,1,.005.387c-.01.088-.005.238-.062.269-.315.165-.294.387-.124.666-.1.057-.2.108-.294.16a2.342,2.342,0,0,0,.139.217c-.413.031-.263.263-.2.47.083.232.217.475-.16.573l.1.294c-.113.036-.217.062-.31.088m-1.621,9.56.062.067a2.125,2.125,0,0,1-.356.382c-.176.119-.294.227-.222.464.067.217.093.444.14.666a.27.27,0,0,0,.072.16.138.138,0,0,0,.14-.026.212.212,0,0,0,.026-.18.735.735,0,0,1,.083-.733c.052-.1.176-.144.274-.227.083.124.227.243.238.362a6.492,6.492,0,0,1-.052.935c-.021,0-.088.015-.15.015a.7.7,0,0,0-.805.878.856.856,0,0,1-.005.227c0,.021-.047.036-.083.067-.057-.1-.1-.175-.181-.325-.026.3-.3.588.191.64.057.005.109.134.139.207.036.108.057.227.082.34l.1.01.119-.279c.036-.1.041-.253.119-.3.165-.113.124-.227.072-.377a.592.592,0,0,1,.682-.805c.077.005.222-.036.227-.077.046-.516.413-.284.681-.32.17-.031.459-.18.465-.294a5.057,5.057,0,0,0-.088-1.11.921.921,0,0,0-.129-.269c-.088.052-.176.113-.258.16l-.01-.263c-.485.067-.48.067-.5.517a.223.223,0,0,1-.082.165.214.214,0,0,1-.17-.062c-.315-.253-.325-.3-.176-.8-.237.067-.439.124-.64.191m-3.04.072c-.382.109-.377.1-.454-.238a.22.22,0,0,0-.155-.129c-.175-.005-.511.433-.5.645a3,3,0,0,1,.3-.072c.047.207.093.382.119.562.01.083-.01.233-.036.243-.295.047-.377.279-.48.506-.015.031-.083.077-.108.067-.289-.119-.687.222-.934-.238a.655.655,0,0,0-.047.372c.036.129.155.238.181.356a1.546,1.546,0,0,1-.047.553c-.01.041-.217.01-.325.046a.286.286,0,0,0-.16.134,3.3,3.3,0,0,1-.165.3c-.14.134-.325.212-.454.341a.921.921,0,0,0-.113.31c.1,0,.238.046.3,0a4.051,4.051,0,0,0,.434-.459c.1-.119.206-.253.289-.356.134.1.258.248.325.227.227-.072.361.041.511.165a1.154,1.154,0,0,0,.32.1,3.06,3.06,0,0,1-.016-.31c.01-.124,0-.335.062-.361.253-.114.33-.527.707-.4.031.005.119-.093.119-.129a.663.663,0,0,1,.336-.723c-.108-.377-.206-.712-.32-1.1.051-.067.155-.2.31-.408m.64-10.98.077-.016c.062-.253.114-.511.181-.831.16.155.32.238.336.341.057.475.382.294.6.32l.33-.764c-.175.036-.273.052-.423.078.036-.361-.015-.661-.387-.79l.052-.222c.176,0,.274-.067.238-.237a1.342,1.342,0,0,0-.15-.315c-.1.082-.2.165-.294.242-.32.124-.645.243-1.022.392.392.537-.067.831-.325,1.2.253-.056.511-.17.548-.124a2.167,2.167,0,0,1,.149.537,1.278,1.278,0,0,0,.088.191M464,769.882c.537-.026.459.346.47.635.021.325.005.661.3.872a.381.381,0,0,0,.274.1c.088-.031.227-.16.222-.222a12.466,12.466,0,0,0-.289-1.249,2.727,2.727,0,0,0-.248-.516c-.093.026-.3.119-.232-.217.005-.047-.046-.109-.072-.16-.057.02-.145.036-.165.082-.093.2-.16.408-.258.671m10.035,23.359a4.215,4.215,0,0,0-.114-.439c-.021-.052-.093-.078-.139-.124-.036.062-.1.119-.1.181-.01.093.031.2.026.3a1.514,1.514,0,0,1-.073.573.492.492,0,0,0,.32.687c.031.005.072-.031.108-.057-.067-.1-.124-.181-.2-.3.181-.046.315-.078.48-.124-.078.279-.021.392.2.315.088-.2.15-.351.232-.547-.428-.325-.108-.805-.062-1.244l-.16-.031c-.155.243-.31.485-.511.805m3.206-1.13a3.731,3.731,0,0,0-.026.661.817.817,0,0,0,.16.361c.362-.124.341.263.516.392.181-.2.227-.372.005-.558a.211.211,0,0,1-.067-.139c.134-.558-.3-.991-.341-1.507,0-.021-.279-.078-.315-.031a1.277,1.277,0,0,0-.119.4.745.745,0,0,1-.108.263,1.067,1.067,0,0,1-.243.175c.108.005.211.021.325.021a1.411,1.411,0,0,0,.211-.036m-8.693-19.322.279-.455c.216.114.408.2.583-.109-.583-.062-.279-.537-.454-.795.418-.232.475-.423.232-.692-.795.733-.924,1.136-.64,2.049m4.068,5.477a3.475,3.475,0,0,1,.387.015c.2.036.3-.026.186-.227-.2-.377-.423-.733-.651-1.095-.026-.036-.119-.025-.176-.031l-.02.144c.32.227.062.46-.021.65-.175.408.073.733.114,1.095h.139c.01-.171.026-.331.041-.552m8.136,9.823c.134.15.341.377.542.6a4.97,4.97,0,0,0,.315-.413.3.3,0,0,0,.046-.248,6.9,6.9,0,0,0-.346-.63l-.393.14c-.046.155-.1.32-.165.547m3.975-.382c-.113.15-.155.289-.253.336-.284.134-.186.376-.186.588-.005.052.062.1.088.16.062-.036.15-.057.171-.114a.3.3,0,0,1,.459-.171.3.3,0,0,0,.253-.067c.026-.026-.01-.165-.057-.222-.139-.165-.294-.32-.475-.511m-5.095-.893c.284.062.108.645.661.542-.155-.134-.253-.217-.372-.335a.736.736,0,0,1,.212-.072c.237-.01.361-.031.175-.3a5.66,5.66,0,0,1-.413-.846c-.1.392-.18.7-.263,1.017M474.2,776.7l.1-.047c-.088-.077-.2-.232-.268-.217-.31.057-.361-.124-.377-.351-.279-.021-.238.134-.227.3s-.041.315-.046.47.036.274.046.4l.057-.015.17-.454c.186.191.33.341.465.485.031-.212.057-.392.077-.573m-3.02-.842.073.005c.2-.377.392-.759.619-1.2-.139-.052-.33-.186-.429-.134s-.17.263-.191.423c-.047.294-.052.6-.073.9m7.552,10.082c.155.021.454-.253.439-.428-.021-.2-.005-.387-.026-.583a1.153,1.153,0,0,0-.093-.377c-.041-.083-.144-.134-.227-.2a.666.666,0,0,0-.062.289c.036.16.186.32.176.464a5.29,5.29,0,0,1-.206.831m9.406,2.411c.31-.083.583-.206.583-.5,0-.15-.237-.31-.367-.464l-.124.041c-.031.3-.062.594-.093.924M473.378,781.9c.036-.1.083-.211.119-.32-.108-.026-.232-.1-.335-.077-.2.062-.129.212-.067.356.113.243.207.485.32.733a.185.185,0,0,0,.129.067c.041-.052.119-.14.108-.181-.083-.2-.186-.382-.273-.578m-8.033-13.669c0,.191,0,.335.005.475a2.26,2.26,0,0,0,.036.423c.01.047.083.083.134.124.036-.052.108-.093.113-.145.01-.211-.077-.444.181-.583.01,0-.005-.088-.015-.129-.072-.382-.32-.181-.454-.165m1.471,6.866.15-.005a.94.94,0,0,0,.041-.372c-.1-.33-.242-.65-.377-.971-.016-.031-.1-.067-.129-.051s-.072.088-.062.124c.119.429.248.857.377,1.275m8.064,6.231c.2.181.341.315.48.444l.047-.073c-.067-.356-.139-.713-.207-1.1-.439.118-.021.573-.32.728m6.783,1.017c-.31-.217-.553-.212-.594-.016a2.623,2.623,0,0,0-.041.5.147.147,0,0,0,.067.129.133.133,0,0,0,.139-.031c.15-.186.289-.382.429-.578m5.069,4.558c.248-.031.367-.041.485-.067a1.166,1.166,0,0,0,.222-.124,1.14,1.14,0,0,1-.134-.2,1.551,1.551,0,0,1-.088-.232c-.021-.052-.036-.119-.067-.134s-.134.005-.144.036c-.088.211-.165.433-.274.723m-21.965-14.939a.564.564,0,0,1,.361.795c-.021.073.1.186.16.274a1.177,1.177,0,0,0,.093-.279,2.255,2.255,0,0,0-.041-.5c-.057-.273-.248-.366-.573-.294m6.256,8.321c-.3-.361-.408-.377-.717-.128a.274.274,0,0,0-.005.268c.289.289.459-.052.723-.14m7.62,3.33.046-.315c.134.026.243.052.351.073l.046-.114c-.243-.129-.49-.248-.759-.387-.057.439.005.578.315.743m-4.1.7a1.087,1.087,0,0,0,.01-.124c-.165-.046-.325-.1-.49-.139a1.67,1.67,0,0,0-.067.47.254.254,0,0,0,.351.248c-.016-.124-.031-.232-.047-.335l.243-.119m-.139.965-.01.129a2.443,2.443,0,0,0,.274.289c.227.175.315-.067.434-.175a.33.33,0,0,0-.015-.217,6.009,6.009,0,0,0-.682-.026m1.9-2.06c-.32.216-.614.382-.625.8.186-.088.32-.284.5-.315.351-.088.211-.253.129-.485m-9.442-10.495c-.026-.284-.372-.485-.816-.47.14.387.454.418.816.47m4.507,15.7c-.01-.047-.026-.134-.046-.217a1.639,1.639,0,0,0-.212.072.391.391,0,0,0-.1.088,4.069,4.069,0,0,0-.248.361l.109.088a2.631,2.631,0,0,0,.387-.227c.041-.026.057-.072.109-.165m1.146-15.058-.083-.041c-.134.046-.387-.067-.377.206.01.145.088.408.165.423.279.047.181-.243.248-.382a.976.976,0,0,0,.047-.206m3.613,13.736c-.078-.206-.129-.356-.2-.562a.893.893,0,0,0-.16.232,1.929,1.929,0,0,0-.021.263c-.021.088-.046.186-.067.279A2.318,2.318,0,0,0,476,787.2a.421.421,0,0,0,.134-.093m4.238-12.621a.642.642,0,0,0-.666.325.189.189,0,0,0,.005.176c.057.041.186.083.211.052a6.421,6.421,0,0,0,.449-.552m-14.532-3.562.145-.052c.2-.315.16-.589-.1-.64-.057-.01-.207.1-.2.145a3.978,3.978,0,0,0,.155.547m4.408,13.861c-.026-.026-.057-.052-.082-.083l-.294.062.01-.284-.124-.031c-.026.108-.1.237-.067.315a1.687,1.687,0,0,0,.3.3c.088-.093.171-.186.253-.284m3.072-5.421c.021.067.041.129.057.191a2.8,2.8,0,0,0,.485-.134c.026-.006-.036-.207-.057-.32-.165.093-.325.181-.485.263m18.646,10.02c.067-.088.129-.17.2-.248.088-.093.186-.18.274-.268-.134.016-.269.026-.4.036-.1.015-.2.026-.294.036l.015.134c.212.031.351.093.207.31m-15.146,4.883a1.96,1.96,0,0,0-.005-.258l-.114-.026a5.193,5.193,0,0,0-.382.439l.083.124c.134-.093.279-.181.418-.279m-3.856-1.414a1.718,1.718,0,0,0,.3.077c.041,0,.119-.041.124-.077a.206.206,0,0,0-.041-.134,1.514,1.514,0,0,0-.475.15c-.062.042-.026.222-.036.341l.113,0,.015-.351m7.81-19.544-.077-.1-.511.2c.17.134.263.207.4.315.072-.166.134-.289.191-.413m-5.683,17.882.1-.036c-.031-.139-.021-.31-.1-.413-.046-.041-.243.041-.367.067l-.01.093c.124.1.248.2.377.289m1.063-12.09c-.047.2-.093.371-.134.537.093-.026.217-.026.253-.083.108-.134.191-.3-.119-.454m7.325,9.72a2.5,2.5,0,0,0-.15-.222c-.243.129-.351-.041-.454-.253-.057.351.041.439.6.475m-10.635,5.632.119-.062c-.057-.129-.119-.253-.181-.387-.078.057-.206.1-.227.17-.072.258.134.248.289.279m-.325,1.254c.4-.036.444-.186.367-.387-.021-.062-.1-.114-.16-.165-.057.165-.124.335-.207.552m8.456-6.324c.16-.114.294-.165.3-.212a.651.651,0,0,0-.129-.309c-.016-.016-.2.036-.2.067a2.334,2.334,0,0,0,.031.454m-6.876-3.247-.1-.17c-.129.067-.258.118-.382.186.062.062.145.186.191.17a.89.89,0,0,0,.289-.186m-3.861-4.811a1.041,1.041,0,0,0,.077.129,4.368,4.368,0,0,0,.444-.295c.026-.026-.036-.16-.073-.314l-.449.48m-.651-7.867.093-.036c.036-.155.078-.3.134-.537l-.294.051c.01.176.047.351.067.522m3.634,17.9c.155-.015.284-.015.413-.041a.178.178,0,0,0,.109-.1.175.175,0,0,0-.057-.139c-.15-.1-.428.057-.465.284m2.4-5.3.077.057a1.526,1.526,0,0,0,.32-.217c.051-.041.046-.134.067-.207-.073,0-.186-.026-.222.01a3.6,3.6,0,0,0-.242.356m1.208-8.569c-.026.227-.052.361-.057.5a.134.134,0,0,0,.046.113c.026.016.108.01.114-.01a1.076,1.076,0,0,0,.144-.372c.005-.052-.124-.124-.248-.227m-5.42,14.975a2.4,2.4,0,0,0,.377-.238c.026-.015-.016-.1-.031-.165a3.919,3.919,0,0,0-.4.171c-.016.01.026.108.057.232m.991-11.821-.139.067.1.439c.067-.072.186-.144.186-.217s-.093-.186-.15-.289m16.906,6.262c-.176.1-.3.181-.434.258.057.062.108.176.165.181.2.005.31-.1.269-.439m-15.342,8.652c-.191-.077-.315-.119-.49-.18.021.165.036.273.052.464l.439-.284M480,773.913l-.021-.165c-.124-.01-.253-.021-.382-.036.021.087.036.175.052.273.114-.026.232-.052.351-.072m-3.552,12.6c.16.2.253.31.341.423l.109-.046a1.665,1.665,0,0,0-.129-.382c-.021-.031-.155,0-.32.005" transform="translate(-574.491 -462.468)" fill="#b5b4b2"/>
    <path id="Path_101" data-name="Path 101" d="M388.851,767.269c.015-.062.005-.145.036-.191.134-.2.377-.407-.109-.439-.036-.005-.088-.1-.072-.129a.258.258,0,0,1,.144-.15c.134-.036.279-.005.408-.042a1.123,1.123,0,0,0,.279-.15l-.041-.1c-.1-.016-.207-.041-.4-.067a1.589,1.589,0,0,1,.263-.469.612.612,0,0,0,.237-.583.744.744,0,0,1,.057-.294c.124-.4.2-.423.516-.232a4.446,4.446,0,0,0,.583-.227c.217-.114.428-.258.645-.377a.867.867,0,0,1,.232-.073c.026.088.047.181.067.274.1.046.227.1.346.16a2.024,2.024,0,0,1-.222.387c-.279.31-.568.615-.872.9a.465.465,0,0,1-.346.078c-.4-.073-.769.176-.7.573a.839.839,0,0,1-.382.857c-.124.108-.243.238-.356.356-.15.15-.253.129-.315-.067Z" transform="translate(-845.706 -468.403)" fill="#b5b4b2"/>
    <line id="Line_9" data-name="Line 9" x1="83.873" y2="16.261" transform="translate(-198.435 350.769)" fill="#b5b4b2" opacity="0.42"/>
    <path id="Path_102" data-name="Path 102" d="M522.7,774.685l-10.3,2.973-10.381,2.581c-6.928,1.657-13.922,2.995-20.886,4.5-7.021,1.2-14.005,2.581-21.046,3.613l-10.593,1.5-10.67,1.094-.041-.232q41.9-8.309,83.87-16.256Z" transform="translate(-637.244 -423.805)" fill="#b5b4b2" opacity="0.42"/>
    <path id="Path_103" data-name="Path 103" d="M498.874,772.287q-31.631,10.113-63.263,20.231" transform="translate(-650.467 -432.862)" fill="#b5b4b2" opacity="0.42"/>
    <path id="Path_104" data-name="Path 104" d="M498.874,772.287q-31.631,10.113-63.263,20.231" transform="translate(-650.467 -432.862)" fill="none" stroke="#b5b4b2" stroke-miterlimit="10" stroke-width="0.446" opacity="0.42"/>
    <line id="Line_10" data-name="Line 10" x1="36.665" y2="26.154" transform="translate(-234.55 330.586)" fill="#b5b4b2" opacity="0.42"/>
    <line id="Line_11" data-name="Line 11" x1="36.665" y2="26.154" transform="translate(-234.55 330.586)" fill="none" stroke="#b5b4b2" stroke-miterlimit="10" stroke-width="0.446" opacity="0.42"/>
    <line id="Line_12" data-name="Line 12" x1="4.112" y2="28.431" transform="translate(-245.34 326.859)" fill="#b5b4b2" opacity="0.42"/>
    <path id="Path_105" data-name="Path 105" d="M434.025,769.88a37.14,37.14,0,0,1,.465,7.325c-.041,2.421-.392,4.785-.588,7.176-.506,2.343-.816,4.718-1.477,7.041a36.9,36.9,0,0,1-2.514,6.891l-.227-.036q1.866-14.232,4.114-28.428Z" transform="translate(-675.137 -443.01)" fill="#b5b4b2" opacity="0.42"/>
    <line id="Line_13" data-name="Line 13" x2="17.957" y2="27.538" transform="translate(-277.199 327.429)" fill="#b5b4b2" opacity="0.42"/>
    <path id="Path_106" data-name="Path 106" d="M423.707,769.951a48.165,48.165,0,0,1,5.756,6.061c1.755,2.127,3.237,4.424,4.858,6.639,1.363,2.385,2.886,4.666,4.114,7.134a49.014,49.014,0,0,1,3.232,7.7l-.2.124q-9.137-13.66-17.954-27.535Z" transform="translate(-700.809 -442.585)" fill="#b5b4b2" opacity="0.42"/>
    <line id="Line_14" data-name="Line 14" x2="42.185" y2="24.38" transform="translate(-320.776 331.08)" fill="#b5b4b2" opacity="0.42"/>
    <line id="Line_15" data-name="Line 15" x2="42.185" y2="24.38" transform="translate(-320.776 331.08)" fill="none" stroke="#b5b4b2" stroke-miterlimit="10" stroke-width="0.446" opacity="0.42"/>
    <line id="Line_16" data-name="Line 16" x2="58.226" y2="27.108" transform="translate(-358.57 330.976)" fill="#b5b4b2" opacity="0.42"/>
    <path id="Path_107" data-name="Path 107" d="M407.771,770.65c10.108,3.66,19.839,8.12,29.6,12.513,9.648,4.636,19.327,9.2,28.63,14.6-10.113-3.649-19.838-8.115-29.6-12.513-9.643-4.641-19.327-9.215-28.63-14.6" transform="translate(-766.343 -439.675)" fill="#b5b4b2" opacity="0.42"/>
    <line id="Line_17" data-name="Line 17" x2="58.473" y2="27.238" transform="translate(-392.233 332.484)" fill="#b5b4b2" opacity="0.42"/>
    <path id="Path_108" data-name="Path 108" d="M401.25,770.942c10.154,3.681,19.921,8.156,29.724,12.575,9.684,4.662,19.415,9.256,28.748,14.666-10.149-3.67-19.921-8.156-29.719-12.575-9.69-4.667-19.4-9.261-28.753-14.666" transform="translate(-793.484 -438.46)" fill="#b5b4b2" opacity="0.42"/>
    <line id="Line_18" data-name="Line 18" x2="68.393" y2="32.607" transform="translate(-434.043 332.866)" fill="#b5b4b2" opacity="0.42"/>
    <path id="Path_109" data-name="Path 109" d="M393.239,771c6.055,1.982,11.914,4.362,17.748,6.8s11.527,5.162,17.293,7.738c5.632,2.87,11.347,5.549,16.9,8.559s11.1,6.06,16.457,9.509l-.1.212q-34.279-16.129-68.394-32.6Z" transform="translate(-827.236 -438.236)" fill="#b5b4b2" opacity="0.42"/>
    <line id="Line_19" data-name="Line 19" x1="67.533" y2="17.287" transform="translate(-199.834 344.383)" fill="#b5b4b2" opacity="0.42"/>
    <line id="Line_20" data-name="Line 20" x1="67.533" y2="17.287" transform="translate(-199.834 344.383)" fill="none" stroke="#b5b4b2" stroke-miterlimit="10" stroke-width="0.446" opacity="0.42"/>
    <line id="Line_21" data-name="Line 21" x1="50.301" y2="21.29" transform="translate(-225.699 335.86)" fill="#b5b4b2" opacity="0.42"/>
    <path id="Path_110" data-name="Path 110" d="M483.89,771.792A125.582,125.582,0,0,1,471.9,778.5c-4.073,2.065-8.27,3.826-12.4,5.74-4.249,1.621-8.43,3.423-12.751,4.9a128.077,128.077,0,0,1-13.158,3.939l-.088-.211q25.081-10.825,50.3-21.294Z" transform="translate(-659.245 -435.826)" fill="#b5b4b2" opacity="0.42"/>
    <line id="Line_22" data-name="Line 22" x1="13.614" y2="25.173" transform="translate(-239.231 331.545)" fill="#b5b4b2" opacity="0.42"/>
    <line id="Line_23" data-name="Line 23" x1="13.614" y2="25.173" transform="translate(-239.231 331.545)" fill="none" stroke="#b5b4b2" stroke-miterlimit="10" stroke-width="0.446" opacity="0.42"/>
    <line id="Line_24" data-name="Line 24" x2="6.439" y2="25.696" transform="translate(-258.04 329.025)" fill="#b5b4b2" opacity="0.42"/>
    <line id="Line_25" data-name="Line 25" x2="6.439" y2="25.696" transform="translate(-258.04 329.025)" fill="none" stroke="#b5b4b2" stroke-miterlimit="10" stroke-width="0.446" opacity="0.42"/>
    <line id="Line_26" data-name="Line 26" x2="33.187" y2="24.827" transform="translate(-297.591 329.854)" fill="#b5b4b2" opacity="0.42"/>
    <line id="Line_27" data-name="Line 27" x2="33.187" y2="24.827" transform="translate(-297.591 329.854)" fill="none" stroke="#b5b4b2" stroke-miterlimit="10" stroke-width="0.446" opacity="0.42"/>
    <line id="Line_28" data-name="Line 28" x2="49.357" y2="27.314" transform="translate(-339.207 329.874)" fill="#b5b4b2" opacity="0.42"/>
    <line id="Line_29" data-name="Line 29" x2="49.357" y2="27.314" transform="translate(-339.207 329.874)" fill="none" stroke="#b5b4b2" stroke-miterlimit="10" stroke-width="0.446" opacity="0.42"/>
    <line id="Line_30" data-name="Line 30" x2="54.168" y2="27.101" transform="translate(-374.21 330.969)" fill="#b5b4b2" opacity="0.42"/>
    <path id="Path_111" data-name="Path 111" d="M404.742,770.649c9.457,3.665,18.512,8.12,27.6,12.518,8.967,4.636,17.964,9.2,26.565,14.583-9.452-3.66-18.506-8.125-27.6-12.529-8.972-4.635-17.965-9.209-26.57-14.573" transform="translate(-778.95 -439.68)" fill="#b5b4b2" opacity="0.42"/>
    <line id="Line_31" data-name="Line 31" x2="65.23" y2="31.516" transform="translate(-419.102 329.529)" fill="#b5b4b2" opacity="0.42"/>
    <path id="Path_112" data-name="Path 112" d="M396.045,770.37c11.29,4.4,22.187,9.6,33.121,14.722,10.815,5.369,21.661,10.675,32.109,16.793-11.29-4.388-22.182-9.591-33.11-14.723-10.815-5.374-21.661-10.686-32.119-16.792" transform="translate(-815.149 -440.841)" fill="#b5b4b2" opacity="0.42"/>
    <line id="Line_32" data-name="Line 32" y1="9.445" x2="74.085" transform="translate(-166.213 359.614)" fill="#b5b4b2" opacity="0.42"/>
    <path id="Path_113" data-name="Path 113" d="M445.034,785.645c12.229-2.519,24.562-4.156,36.894-5.87,12.363-1.435,24.722-2.958,37.188-3.577-12.229,2.524-24.567,4.156-36.894,5.864-12.364,1.44-24.717,2.953-37.188,3.583" transform="translate(-611.247 -416.584)" fill="#b5b4b2" opacity="0.42"/>
    <line id="Line_33" data-name="Line 33" y1="3.955" x2="81.206" transform="translate(-154.305 369.982)" fill="#b5b4b2" opacity="0.42"/>
    <path id="Path_114" data-name="Path 114" d="M447.341,782.23c13.489-1.611,27.019-2.339,40.544-3.129,13.54-.526,27.081-1.13,40.663-.831-13.494,1.621-27.024,2.339-40.549,3.129-13.535.521-27.076,1.115-40.658.831" transform="translate(-601.645 -408.29)" fill="#b5b4b2" opacity="0.42"/>
    <line id="Line_34" data-name="Line 34" y1="1.047" x2="56.641" transform="translate(-121.573 386.988)" fill="#b5b4b2" opacity="0.42"/>
    <path id="Path_115" data-name="Path 115" d="M453.682,783.081c9.421-1.125,18.857-1.363,28.294-1.678,9.442-.042,18.878-.155,28.345.63-9.431,1.136-18.868,1.368-28.3,1.678-9.437.031-18.883.145-28.335-.63" transform="translate(-575.252 -395.044)" fill="#b5b4b2" opacity="0.42"/>
    <line id="Line_35" data-name="Line 35" y1="2.89" x2="51.927" transform="translate(-134.646 379.093)" fill="#b5b4b2" opacity="0.42"/>
    <path id="Path_116" data-name="Path 116" d="M451.149,783.033c8.6-1.43,17.252-1.977,25.9-2.6,8.662-.346,17.319-.769,26.028-.295-8.6,1.44-17.252,1.982-25.9,2.6-8.662.341-17.319.764-26.028.294" transform="translate(-585.795 -401.051)" fill="#b5b4b2" opacity="0.42"/>
    <line id="Line_36" data-name="Line 36" x1="71.194" y1="28.872" transform="translate(-451.605 336.279)" fill="#b5b4b2" opacity="0.42"/>
    <path id="Path_117" data-name="Path 117" d="M460.945,800.554c-12.224-3.928-24.113-8.688-36.027-13.375-11.816-4.935-23.664-9.8-35.17-15.5,12.229,3.924,24.118,8.683,36.032,13.37,11.816,4.94,23.653,9.808,35.165,15.507" transform="translate(-841.358 -435.401)" fill="#b5b4b2" opacity="0.42"/>
    <line id="Line_37" data-name="Line 37" x1="75.369" y1="25.501" transform="translate(-469.971 341.595)" fill="#b5b4b2" opacity="0.42"/>
    <path id="Path_118" data-name="Path 118" d="M461.559,798.208c-12.864-3.345-25.444-7.536-38.05-11.661-12.518-4.373-25.057-8.683-37.318-13.84,12.869,3.345,25.45,7.542,38.051,11.666,12.524,4.373,25.063,8.688,37.317,13.834" transform="translate(-856.163 -431.114)" fill="#b5b4b2" opacity="0.42"/>
    <line id="Line_38" data-name="Line 38" x1="77.58" y1="22.708" transform="translate(-490.991 349.235)" fill="#b5b4b2" opacity="0.42"/>
    <path id="Path_119" data-name="Path 119" d="M459.7,796.9c-13.195-2.87-26.147-6.6-39.114-10.247-12.9-3.918-25.806-7.754-38.469-12.462,13.2,2.865,26.147,6.592,39.119,10.247,12.885,3.923,25.8,7.764,38.464,12.461" transform="translate(-873.112 -424.954)" fill="#b5b4b2" opacity="0.42"/>
    <line id="Line_39" data-name="Line 39" x1="70.314" y1="21.826" transform="translate(-506.396 357.332)" fill="#b5b4b2" opacity="0.42"/>
    <path id="Path_120" data-name="Path 120" d="M449.438,797.786c-6.1-1.037-12.074-2.5-18.021-4.021s-11.806-3.345-17.716-5.028c-5.807-1.972-11.677-3.763-17.438-5.9-5.761-2.111-11.517-4.295-17.133-6.881l.067-.227q35.217,10.74,70.314,21.836Z" transform="translate(-885.557 -418.519)" fill="#b5b4b2" opacity="0.42"/>
  </g>
</svg>
