<?xml version="1.0" standalone="no"?>
<!DOCTYPE svg PUBLIC "-//W3C//DTD SVG 1.1//EN" "http://www.w3.org/Graphics/SVG/1.1/DTD/svg11.dtd" >
<svg xmlns="http://www.w3.org/2000/svg" xmlns:xlink="http://www.w3.org/1999/xlink" version="1.1">
<metadata>
Created by FontForge 20170731 at Sat Nov 23 00:45:05 2019
 By Aleksey,,,
Gregory Medina, All rights reserved-(c)dcodesign/www.dcoxy.com 
You have to purchase a license for commercial &#38; promotional use.
"personal use only" does not constitut public domain or free. 
Thank you to contact me before at: dcoxymg@gmail.com
or follow instructions at : www.dcoxy.com
</metadata>
<defs>
<font id="SketchLightPersonalUseOnly" horiz-adv-x="1039" >
  <font-face 
    font-family="Sketch Light_PersonalUseOnly"
    font-weight="400"
    font-stretch="normal"
    units-per-em="1000"
    panose-1="2 0 0 0 0 0 0 0 0 0"
    ascent="800"
    descent="-200"
    x-height="394"
    cap-height="697"
    bbox="-280.5 -343.961 1085.97 785"
    underline-thickness="50"
    underline-position="-150"
    unicode-range="U+0020-2212"
  />
<missing-glyph horiz-adv-x="200" 
 />
    <glyph glyph-name=".notdef" horiz-adv-x="200" 
 />
    <glyph glyph-name=".null" horiz-adv-x="0" 
 />
    <glyph glyph-name="nonmarkingreturn" horiz-adv-x="200" 
 />
    <glyph glyph-name="space" unicode=" " horiz-adv-x="200" 
 />
    <glyph glyph-name="space" unicode="&#xa0;" horiz-adv-x="200" 
 />
    <glyph glyph-name="exclam" unicode="!" horiz-adv-x="376" 
d="M306 641q11 0 30.5 -0.5t37.5 -5.5t29 -17.5t5 -35.5q-7 -14 -23 -48t-36.5 -79t-43.5 -97t-46 -102t-43.5 -94t-34.5 -73q-4 0 -19.5 4t-32.5 10t-30.5 12t-12.5 9q13 32 33.5 81t43.5 104t46.5 111t43.5 103t34 79t19 39zM70 86q3 1 17.5 -3t31 -9.5t30.5 -11t16 -7.5
q-6 -11 -10.5 -19.5t-6.5 -12.5q-12 -18 -30.5 -21.5t-34 2t-25 18.5t-3.5 28q3 9 15 36z" />
    <glyph glyph-name="quotedbl" unicode="&#x22;" horiz-adv-x="281" 
d="M60 659q0 6 11 9t24.5 2.5t25 -5t11.5 -12.5q0 -6 -1 -17t-2 -24.5t-3 -28.5t-5 -29q-3 -13 -12 -17t-18.5 -2.5t-17.5 6.5t-8 10q-1 28 -2 58.5t-3 49.5zM147 659q0 6 11 9t24.5 2.5t24.5 -5t11 -12.5q0 -6 -0.5 -17t-2 -24.5t-3.5 -28.5t-5 -29q-3 -13 -12 -17
t-18.5 -2.5t-17.5 6.5t-8 10q-1 28 -1.5 58.5t-2.5 49.5z" />
    <glyph glyph-name="numbersign" unicode="#" horiz-adv-x="209" 
d="M162 573q-3 0 -8 1t-11 3q-1 -5 -1.5 -8.5t-1.5 -7.5q7 -2 11.5 -3t6.5 -2q6 -1 8 -5.5t1 -9t-4.5 -8t-9.5 -2.5q-3 1 -7.5 1.5t-11.5 2.5q-2 -15 -3 -18q-1 -6 -5.5 -8t-9 -1t-8 4.5t-2.5 9.5q1 4 3 18q-4 1 -7.5 1.5t-8.5 2.5q-2 -7 -2.5 -12t-1.5 -7q-1 -6 -5.5 -8
t-9 -1t-8 4.5t-2.5 9.5q1 2 1.5 7t2.5 11q-16 4 -17 4q-8 1 -10 6t-0.5 9.5t6 7.5t10.5 2q2 0 6 -1t10 -3q1 5 1.5 9t1.5 8q-12 3 -16 3q-8 1 -10 6t-0.5 9.5t5.5 8t10 2.5q2 -1 6 -1.5t10 -2.5q3 13 3 17q1 7 6 9.5t9.5 1t8 -5.5t2.5 -10q-1 -4 -3 -17q4 -1 8 -1.5t8 -1.5
q1 6 2 10.5t1 6.5q1 7 6 9.5t9.5 1t7.5 -6t2 -10.5q0 -2 -1 -6t-2 -10q7 -2 11.5 -2.5t6.5 -1.5q6 -1 8 -5.5t1 -9t-4.5 -8t-8.5 -2.5zM114 565q1 5 2 8.5t2 8.5q-5 1 -8.5 1.5t-8.5 1.5q0 -4 -1 -8l-2 -8q4 -2 8 -2t8 -2z" />
    <glyph glyph-name="dollar" unicode="$" horiz-adv-x="302" 
d="M202 356q13 1 15 8.5t-10 17.5q-3 -7 -6.5 -13.5t-7.5 -14.5q43 -35 50 -73.5t-10.5 -68.5t-54 -44t-78.5 1q0 -2 -1 -2q-5 -9 -11.5 -11.5t-11.5 0t-7.5 9.5t2.5 16q0 1 0.5 1.5t0.5 1.5q-17 13 -26.5 32.5t-10 42.5t9 47.5t31.5 47.5q7 7 14 6t11.5 -6t6.5 -11.5
t-1 -8.5q-11 -7 -19.5 -22t-12 -32.5t-1.5 -34.5t14 -29q11 22 26.5 52t31.5 62q-3 2 -6 4.5t-7 4.5q-2 2 -7.5 5.5t-7.5 5.5q-24 20 -25 41.5t13.5 37.5t41 23.5t58.5 -1.5l2 4q6 12 13 15t12 -0.5t6.5 -11.5t-3.5 -17v-1l2 -2q23 -12 28 -29.5t-2 -32t-24 -21.5t-38 1z
M178 395q-16 3 -21.5 -4t10.5 -18q3 6 6 11.5t5 10.5zM117 201q19 -5 34.5 3.5t24 24t7.5 36t-14 40.5q-15 -29 -28.5 -56.5t-23.5 -47.5z" />
    <glyph glyph-name="percent" unicode="%" horiz-adv-x="301" 
d="M139 212q-1 -29 -18.5 -41.5t-37.5 -12t-36.5 14.5t-14.5 40q2 28 19.5 41.5t37.5 13t35.5 -14.5t14.5 -41zM66 213q-1 -10 5 -15t13.5 -5.5t14.5 4.5t7 16q0 10 -6 15t-13.5 5t-14 -5t-6.5 -15zM161 54q2 28 19.5 41t37.5 12.5t35.5 -14.5t14.5 -40q-1 -29 -18.5 -42
t-37.5 -12t-36.5 15t-14.5 40zM195 54q-1 -10 5 -15t13.5 -5.5t14.5 4t7 15.5q0 10 -6 15.5t-13.5 5.5t-14 -5t-6.5 -15zM209 271q7 11 15.5 12t15 -4t9 -14t-2.5 -17q-2 -4 -13.5 -22.5t-27.5 -44.5t-34.5 -56t-34.5 -56.5t-27.5 -45.5t-14.5 -23q-5 -8 -13.5 -8.5
t-15.5 3.5t-10 12t2 16q3 6 15 25.5t28.5 46t34.5 56t34 55.5t27 44t13 21z" />
    <glyph glyph-name="ampersand" unicode="&#x26;" horiz-adv-x="474" 
d="M352 279q10 0 17 -9t6.5 -21t-11 -23t-37.5 -15q-8 -18 -22 -34.5t-33 -28t-42.5 -16t-49.5 0.5q-35 7 -46 33t-2.5 56.5t33.5 58t62 36.5q-15 16 -11.5 39.5t20 44t44.5 32t62 4.5q27 -6 36 -24t4 -40t-22.5 -41.5t-45.5 -28.5q11 -9 18 -20q0 -3 -8.5 -6.5t-19.5 -5.5
t-20 -3t-10 1q-8 6 -13 7q-22 6 -41.5 -9.5t-31 -37.5t-13 -42.5t13.5 -26.5q13 -5 25.5 -2.5t23.5 10.5t20 19.5t15 23.5q-24 2 -27 -9q-7 22 -0.5 33.5t19.5 17.5t30 8t31 3.5t22 4t4 10.5zM318 392q-16 6 -29.5 -1.5t-21 -20t-7 -25.5t12.5 -17q16 -5 29.5 2.5t21 20
t7 25t-12.5 16.5z" />
    <glyph glyph-name="quotesingle" unicode="'" horiz-adv-x="186" 
d="M173 696q6 -1 15.5 -7t18.5 -14.5t16.5 -19t9.5 -20.5q-5 -11 -21 -35t-34 -45q-9 -10 -18 -9.5t-15 5.5t-9.5 13t-1.5 13q5 13 11 30.5l12 35t10 32t6 21.5z" />
    <glyph glyph-name="parenleft" unicode="(" horiz-adv-x="316" 
d="M270 631q12 1 31.5 1t37.5 -4.5t29.5 -16.5t5.5 -35q-37 -35 -69 -81t-58.5 -96.5t-47 -103.5t-35 -102.5t-21.5 -94t-7 -77.5q0 -21 -14.5 -30t-32 -7t-32.5 14t-15 32q0 48 10 107t27.5 120.5t40.5 122t48.5 111.5t51.5 88t50 52z" />
    <glyph glyph-name="parenright" unicode=")" horiz-adv-x="316" 
d="M109 -15q-12 -1 -31.5 -1t-37.5 4.5t-29.5 16.5t-5.5 35q37 35 69 81t58.5 96.5t47 103.5t35 102.5t21.5 94t7 77.5q0 21 14.5 30t32 7t32.5 -14t15 -32q0 -48 -10 -107t-27.5 -120.5t-40.5 -122t-48.5 -111.5t-51.5 -88t-50 -52z" />
    <glyph glyph-name="asterisk" unicode="*" horiz-adv-x="279" 
d="M191 595q7 0 10 -4.5t3 -10.5t-3 -10.5t-10 -4.5h-31q7 -9 11.5 -15.5t6.5 -9.5q4 -5 2.5 -10.5t-6 -9t-10.5 -3.5t-10 5q-2 4 -9 13t-15 20q-9 -12 -15.5 -21.5t-8.5 -12.5q-4 -5 -9.5 -5t-10 3.5t-6.5 9t2 10.5q2 3 7 10t12 16h-31q-9 0 -12.5 4.5t-2.5 10.5t5 10.5
t10 4.5h29q-6 9 -10.5 15t-6.5 8q-5 7 -3.5 13t6 9t11 2.5t10.5 -6.5q2 -2 8.5 -11t14.5 -20q8 12 14.5 21t8.5 11q4 7 10 7.5t10.5 -3.5t6 -10t-2.5 -11q-2 -2 -6.5 -9t-11.5 -16h33v0z" />
    <glyph glyph-name="plus" unicode="+" horiz-adv-x="343" 
d="M234 127q10 0 14.5 -7t4.5 -15t-4.5 -15t-14.5 -7h-64v-64q0 -10 -7 -15t-15.5 -5t-15 5t-6.5 15v64h-61q-13 0 -18.5 7t-4.5 15t7 15t16 7h61v61q0 13 6.5 18.5t15 4.5t15.5 -7t7 -16v-61h64v0z" />
    <glyph glyph-name="comma" unicode="," horiz-adv-x="291" 
d="M64 -92q-10 0 -11 13.5t3 32t10 38t11 32.5q7 19 17.5 33t30.5 14t33.5 -17.5t5.5 -43.5q-3 -9 -15.5 -26.5t-28 -34t-31 -29t-25.5 -12.5z" />
    <glyph glyph-name="hyphen" unicode="-" horiz-adv-x="296" 
d="M190 121v-15.5t-4.5 -19t-15 -18t-31.5 -12.5q-5 -1 -10.5 -1.5t-11.5 -0.5q-30 -1 -44.5 6.5t-19.5 18t-3 21t5 16.5q10 -1 29 -0.5t39.5 1t39 2t27.5 2.5z" />
    <glyph glyph-name="period" unicode="." horiz-adv-x="298" 
d="M110 0q-20 0 -33.5 13.5t-13.5 33.5t13.5 33.5t33.5 13.5t33.5 -13.5t13.5 -33.5t-13.5 -33.5t-33.5 -13.5z" />
    <glyph glyph-name="slash" unicode="/" horiz-adv-x="397" 
d="M268 649q12 1 31.5 1t37.5 -4.5t29.5 -16.5t5.5 -35q-6 -12 -18 -41t-28 -68.5t-35 -86.5t-38.5 -95t-38 -94t-34.5 -83.5t-28 -64.5t-18 -36q-11 -18 -29 -22.5t-34 0.5t-25.5 17.5t-4.5 27.5q3 9 14 38.5t26 71.5t34 93t38.5 103.5t38.5 102.5t35 90.5t26.5 68
t14.5 33.5z" />
    <glyph glyph-name="zero" unicode="0" 
d="M435 558q0 7 3 12t9 5q7 0 10 -5t3 -11q0 -7 -3.5 -12t-9.5 -5t-9 5t-3 11zM625 574h6q16 0 16 -15q0 -16 -17 -16h-5v31zM580 548q0 3 5 6q6 -8 8 -10q-2 -2 -6 -2q-7 0 -7 6zM834 611v-611h-616v611h616zM393 586h414v6h-414v-6zM772 572q2 -3 3.5 -6.5t3.5 -6.5
l13 -20h5v39h-5v-16q0 -11 1 -16q-4 8 -7 12l-13 20h-5v-39h4v17v16zM748 543q-15 0 -15 16q0 15 16 15q6 0 8 -1l2 4q-4 2 -10 2q-10 0 -15.5 -6t-5.5 -15t5 -14t15 -5q8 0 12 2v19h-13v-5h8v-11q-1 -1 -7 -1zM716 578v-39h5v39h-5zM697 557q7 -3 7 -8q0 -6 -8 -6
q-5 0 -9 2l-2 -4q4 -3 10 -3q8 0 11 3.5t3 8.5q0 8 -10 11q-8 3 -8 8q0 2 1.5 4t6.5 2t7 -2l2 4q-4 2 -9 2q-13 0 -13 -11q0 -8 11 -11zM664 562v12h16v4h-21v-39h22v4h-17v14h15v5h-15zM652 559q0 8 -5 15q-5 4 -16 4h-11v-39h9q11 0 18 5q5 7 5 15zM580 563q0 -3 3 -6v-1
q-6 -3 -6 -9q0 -3 2 -6t7 -3t9 4q2 -1 2 -1.5t1 -1.5h5q-2 2 -2.5 3t-2.5 3q4 4 4 11h-3l-3 -9q-2 2 -4 4.5t-4 4.5q7 3 7 8q0 7 -7 7q-8 0 -8 -8zM548 557q7 -3 7 -8q0 -6 -8 -6q-5 0 -9 2l-1 -4q3 -3 10 -3t10 3.5t3 8.5q0 8 -10 11q-8 3 -8 8q0 2 1.5 4t6.5 2t7 -2l2 4
q-4 2 -9 2q-13 0 -13 -11q0 -8 11 -11zM517 574v-35h6v35h11v4h-29v-4h12zM476 572q3 -7 8 -13l12 -20h5v39h-5v-16q0 -11 1 -16q-4 8 -7 12l-13 20h-5v-39h4v17v16zM465 559q0 20 -18 20q-8 0 -13 -5.5t-5 -15.5q0 -20 18 -20q8 0 13 5.5t5 15.5zM408 561v13h16v4h-21v-39
h5v18h15v4h-15zM393 525h414v6h-414v-6zM796 445q0 32 -18 50q-18 19 -46 19q-31 0 -48 -20q-17 -18 -17 -50q0 -33 18 -51q18 -19 46 -19q29 0 47 19t18 52zM578 412q-6 9 -6 31q0 42 21 42q8 0 14 -7q5 -7 5 -19l37 2q-2 24 -16 38q-14 15 -41 15q-28 0 -45 -20
q-16 -19 -16 -51t17 -51q16 -18 44 -18q25 0 39 13q15 14 18 37l-36 2q-3 -22 -20 -22q-10 0 -15 8zM515 445q0 25 -17 47q-17 20 -51 20h-53v-136h55q29 0 48 19q18 19 18 50zM266 519q-11 -2 -17 -15t-3 -30t12.5 -27.5t20.5 -8.5v-8v-1q0 -17 8 -28q12 -17 36 -21
q11 -3 25 -4t29 -1v6q-11 0 -22 0.5t-20 1.5q-10 2 -14 3q-6 2 -10 4q-12 4 -19 14q-5 7 -7 19q7 -13 21 -19q3 -2 9 -4q13 -4 29 -5.5t33 -1.5v9q-17 0 -32.5 1t-27.5 5q-11 4 -18 9q-11 8 -14 18v5q3 9 6 15q10 13 33 18q4 1 14 3l2 2q1 0 2 1h1q1 1 4 1l2 1h1q1 -1 3 -1
l6 -3h1l3 3q3 3 5 3q6 2 8 2h1v108q-24 -1 -39.5 -8t-25.5 -19t-14.5 -27.5t-6.5 -32.5q-10 15 -25 13zM376 455q-12 0 -17 8q-4 -4 -10 -4q-11 0 -13 9v-2q0 -10 13 -10q7 0 10 4q5 -9 17 -9h1v4h-1zM808 362h-563v-339h563v339zM591 564q0 -3 -5 -6q-2 4 -2 6q0 4 4 4
q3 0 3 -4zM447 483q13 0 19 -12q7 -12 7 -26q0 -18 -8 -29q-7 -10 -18 -10h-13v77h13zM710 443q0 42 22 42q20 0 20 -37q0 -28 -5 -35q-4 -10 -16 -10q-21 0 -21 40zM276 446q-7 -2 -13 5t-8 12q-6 14 -4 27t11 17q9 5 15.5 0.5t11.5 -11.5q2 -2 -1 -17q-4 1 -8 -1
q4 -1 4.5 -2t2.5 -2q-4 0 -7 -0.5t-7 -1.5q6 -2 10 -6h-4.5t-4.5 -2q5 -2 6.5 -3.5l2.5 -2.5q-3 -10 -7 -12zM339 489q-12 1 -17.5 8t-4.5 8q31 17 40 1q1 -2 -3 -9.5t-14 -7.5h-1zM278 233q7 0 12 -3q4 -2 4 -8t-4 -9q-4 -4 -12 -4h-3v-14h-8v38h11zM278 215q7 0 7 6t-6 6
h-4v-11q1 -1 3 -1zM308 226v-8h14v-7h-14v-9h15v-7h-24v38h24v-7h-15zM356 223q0 -8 -6 -10q4 -2 5 -7q1 -3 1.5 -6t1.5 -5h-9q-1 2 -1 4t-2 5q-1 6 -6 6h-2v-15h-9v38h12q9 0 12 -2q3 -3 3 -8zM341 216q7 0 7 6q0 5 -6 5h-4v-11h3zM372 202q6 0 6 4q0 3 -6 5q-11 4 -11 11
q0 12 15 12q5 0 9 -2l-1 -7q-4 2 -8 2q-6 0 -6 -4q0 -2 7 -5q10 -4 10 -11q0 -12 -15 -12q-7 0 -11 2l2 7q4 -2 9 -2zM391 214q0 8 5 14t13 6q9 0 13.5 -5.5t4.5 -13.5q0 -20 -18 -20t-18 19zM418 214q0 13 -9 13t-9 -13q0 -12 9 -12t9 12zM447 210q-2 3 -3.5 6.5t-2.5 6.5
h-1q1 -5 1 -16v-12h-8v38h10l8 -14q4 -8 6 -13q0 4 -0.5 7.5t-0.5 8.5v11h8v-38h-9zM480 233h12l11 -38h-9l-3 10h-11l-2 -10h-9zM482 211h8l-2 9q-2 4 -2 7q-1 -2 -1 -3.5t-1 -3.5zM517 233v-30h15v-8h-23v38h8zM557 233v-22q0 -9 7 -9t7 9v22h8v-21q0 -17 -15 -17
q-16 0 -16 17v21h9zM596 202q6 0 6 4t-6 5q-10 3 -10 11q0 12 14 12q4 0 10 -2l-2 -7q-4 2 -8 2q-6 0 -6 -4q0 -2 7 -5q10 -4 10 -11q0 -12 -15 -12q-7 0 -11 2l2 7q4 -2 9 -2zM626 226v-8h13v-7h-13v-9h15v-7h-24v38h23v-7h-14zM656 214q0 8 5.5 14t13.5 6t13 -5.5t5 -13.5
q0 -20 -19 -20q-18 0 -18 19zM684 214q0 13 -9 13t-9 -13q0 -12 9 -12t9 12zM713 210q-2 3 -3.5 6.5t-3.5 6.5v-16v-12h-8v38h10l8 -14q5 -6 6 -13h1q-1 5 -1 16v11h8v-38h-9zM746 233v-30h15v-8h-24v38h9zM769 195v16l-11 22h9l4 -9q1 -3 3 -7q2 4 3 7l4 9h9l-12 -22v-16
h-9zM271 162v-13q0 -6 4 -6t4 6v13h6v-13q0 -11 -10 -11t-10 11v13h6zM295 143q4 0 4 2q0 3 -4 4q-6 1 -6 7q0 7 9 7q2 0 6 -2l-2 -4q-1 1 -5 1q-3 0 -3 -2t4 -3q7 -3 7 -7q0 -8 -10 -8q-3 0 -7 2l1 4q2 -1 6 -1zM314 162h7l7 -23h-6l-2 6h-6l-2 -6h-6zM314 149h6l-2 5
q0 1 -0.5 2t-0.5 2q0 -1 -0.5 -2t-0.5 -2zM343 158q-8 0 -8 -8q0 -7 7 -7h3v5h-4v4h9v-12q-4 -2 -8 -2q-5 0 -9 4q-4 3 -4 8q0 13 14 13q4 0 6 -2l-1 -4q-1 1 -5 1zM360 158v-5h8v-4h-8v-6h9v-4h-15v23h15v-4h-9zM387 162q6 0 7 -1q3 -3 3 -6t-2 -5q-3 -3 -8 -3h-2v-8h-5v23
h7zM387 151q5 0 5 4q0 3 -5 3h-2v-7h2zM406 158v-5h8v-4h-8v-6h9v-4h-15v23h15v-4h-9zM436 156q0 -4 -4 -6q2 -2 3 -5q1 -2 1 -3.5t1 -2.5h-6q-1 0 -1 1v4q-1 4 -4 4h-2v-9h-5v23h7q6 0 8 -1q2 -4 2 -5zM426 152q5 0 5 3t-4 3h-3v-6h2zM446 143q4 0 4 2t-4 4q-7 2 -7 7
q0 7 9 7q4 0 6 -2l-1 -4q-1 1 -5 1q-3 0 -3 -2t4 -3q6 -3 6 -7q0 -8 -9 -8q-5 0 -7 2l1 4q1 -1 6 -1zM458 150q0 13 11 13q5 0 8 -3.5t3 -8.5q0 -13 -11 -13q-5 0 -8 3.5t-3 8.5zM475 151q0 7 -6 7t-6 -8q0 -7 6 -7t6 8zM493 148q-2 2 -4 8h-1q1 -3 1 -10v-7h-5v23h6l5 -8
l2 -4l2 -4q-1 3 -1 9v7h5v-23h-5zM517 148q-2 2 -4 8v-10v-7h-5v23h6l5 -8l2 -4l2 -4v9v7h4v-23h-5zM537 158v-5h9v-4h-9v-6h10v-4h-15v23h15v-4h-10zM556 162v-19h10v-4h-15v23h5zM581 162v-13q0 -6 4 -6q5 0 5 6v13h5v-13q0 -11 -10 -11q-9 0 -9 11v13h5zM609 148
q-2 2 -2.5 4t-2.5 4q0 -2 0.5 -4.5t0.5 -5.5v-7h-5v23h6l5 -8l2 -4l2 -4q-1 3 -1 9v7h5v-23h-5zM624 139v23h5v-23h-5zM655 151q0 -8 -5 -11q2 0 3 -0.5t2 -0.5l-1 -4l-9 3h-2q-10 2 -10 12q0 13 11 13q5 0 8 -3.5t3 -8.5zM644 143q6 0 6 8q0 7 -6 7t-6 -8q0 -7 6 -7z
M664 162v-13q0 -6 4 -6q5 0 5 6v13h5v-13q0 -11 -10 -11q-9 0 -9 11v13h5zM688 158v-5h9v-4h-9v-6h10v-4h-15v23h14v-4h-9zM719 162h7l1 -23h-5l-1 9v9l-3 -9l-2 -9h-5l-2 9q-2 6 -2 9q0 -2 -0.5 -4.5t-0.5 -4.5v-9h-5l1 23h8l2 -8q1 -2 1 -4t1 -4q1 2 1 4t1 4zM736 158v-5
h9v-4h-9v-6h10v-4h-15v23h15v-4h-10zM759 148q-2 2 -4 8h-1q1 -3 1 -10v-7h-5v23h6l5 -8l2 -4l2 -4q0 2 -0.5 4.5t-0.5 4.5v7h5v-23h-5zM779 139v19h-7v4h18v-4h-6v-19h-5zM328 89q9 0 9 -10t-9 -10q-10 0 -10 10t10 10zM328 71q7 0 7 8t-8 8q-7 0 -7 -8t8 -8zM330 75l1 1
l1 -2q-1 0 -2 -0.5t-2 -0.5q-6 0 -6 6t6 6q3 0 4 -1l-1 -1h-3q-4 0 -4 -4t4 -4h2zM356 73v-4h-5v2q-2 -3 -5 -3q-7 0 -7 8q0 9 7 9q3 0 5 -2v8h5v-18zM351 78q-2 3 -3 3q-4 0 -4 -5q0 -4 4 -4q1 0 3 2v2v2zM368 81q-4 0 -4 -5q0 -4 4 -4q2 0 3 1v-4q-1 0 -1.5 -0.5
t-2.5 -0.5q-8 0 -8 8q0 9 9 9q1 0 1.5 -0.5t1.5 -0.5l-1 -4q0 1 -2 1zM381 85q8 0 8 -8q0 -9 -8 -9t-8 8q0 9 8 9zM381 72q3 0 3 4q0 5 -3 5t-3 -5q0 -4 3 -4zM407 73q0 -3 1 -4h-5v2q-2 -3 -5 -3q-7 0 -7 8q0 9 7 9q4 0 4 -2h1v8h4v-18zM403 78h-1q0 3 -2 3q-4 0 -4 -5
q0 -4 4 -4q2 0 2 2q0 1 0.5 1t0.5 1v2zM424 69q-1 0 -2 -0.5t-3 -0.5q-9 0 -9 8q0 3 2 6t6 3q7 0 7 -8v-2h-10q0 -3 5 -3h4v-3zM418 81q-3 0 -3 -3h6q0 3 -3 3zM432 72q3 0 3 1l-3 2q-4 1 -4 4q0 6 6 6q2 0 3 -0.5t2 -0.5l-1 -4q-1 1 -4 1q-2 0 -2 -1t3 -2q4 -1 4 -5
q0 -5 -7 -5q-2 0 -2.5 0.5t-2.5 0.5l1 4q1 -1 4 -1zM445 91q2 0 2 -2q0 -3 -2 -3q-3 0 -3 3q0 2 3 2zM442 84h5v-15h-5v15zM457 66q4 0 4 4v1q-1 -2 -4 -2q-7 0 -7 7q0 9 7 9q3 0 5 -3v2h4v-4v-9q0 -6 -3 -7q-1 -2 -6 -2q-4 0 -6 1l1 4q1 -1 5 -1zM461 78v1q0 2 -3 2t-3 -5
q0 -4 3 -4q1 0 3 2v2v2zM479 85q6 0 6 -7v-9h-5v8q0 4 -3 4q-2 0 -2 -2v-1v-9h-5v10v5h4v-2q3 3 5 3zM496 75h-8v4h8v-4zM509 81h9v-11q-4 -2 -8 -2q-5 0 -8 3q-4 4 -4 8q2 11 13 11q5 0 6 -1l-1 -4q-1 1 -5 1q-7 0 -7 -7t6 -7q2 0 3 1v4h-4v4zM521 69v10v5h4l1 -3q0 4 4 4
l1 -1v-4h-1q-2 0 -4 -2v-2v-7h-5zM547 75h-10q0 -3 4 -3h5v-3q-1 0 -2 -0.5t-3 -0.5q-9 0 -9 8q0 3 2 6t6 3q7 0 7 -8v-2zM543 78q0 3 -3 3t-3 -3h6zM556 66q4 0 4 4v1q-1 -2 -4 -2q-7 0 -7 7q0 9 7 9q3 0 5 -3v2h4v-4v-9q0 -5 -2 -7t-7 -2q-4 0 -5 1l1 4q1 -1 4 -1zM560 78
v1q0 2 -3 2t-3 -5q0 -4 3 -4t3 2v2v2zM584 77q0 -9 -8 -9t-8 8q0 9 8 9t8 -8zM573 76q0 -4 3 -4t3 4q0 5 -3 5t-3 -5zM587 69v10v5h5v-3q1 4 4 4q1 0 1 -1v-4h-1q-2 0 -4 -2v-2v-7h-5zM604 68v1v1l-6 14h6l2 -8l1 -1v-1l1 2l2 8h5l-4 -10q-3 -9 -5 -10q-2 -2 -3 -2t-2 -1
l-1 5h2zM646 90l1 -21h-5v8v9l-3 -9l-2 -8h-4l-2 8q-2 6 -2 9q-1 -2 -1 -4.5v-4.5v-8h-5l2 21h6l2 -7q2 -6 2 -8q1 2 1 4t1 4l3 7h6zM658 85q7 0 7 -8v-2h-10q0 -3 4 -3h4l1 -3q-2 0 -3 -0.5t-3 -0.5q-8 0 -8 8q0 3 1.5 6t6.5 3zM660 78q0 3 -2 3t-2.5 -1t-1.5 -2h6zM683 73
v-4h-4v2h-1q-2 -3 -4 -3q-7 0 -7 8q0 9 7 9q2 0 4 -2v8h5v-18zM678 78q0 3 -3 3t-3 -5q0 -4 3 -4t3 2v2v2zM689 91q3 0 3 -2q0 -3 -3 -3q-2 0 -2 3q0 2 2 2zM687 84h5v-15h-5v15zM705 85q6 0 6 -7v-9h-5v8q0 4 -3 4q-2 0 -2 -2v-1v-9h-5v10v5h4v-2q3 3 5 3zM728 72v-3h-5v1
q-2 -2 -4 -2q-6 0 -6 5q0 6 10 6q0 2 -3 2q-4 0 -5 -1v3q2 2 6 2q7 0 7 -7v-6zM723 76q-5 0 -5 -3q0 -1 2 -1t3 1v1v2zM292 271h-16v71q10 2 22 2q15 0 23 -6q7 -4 7 -15q0 -7 -4 -11.5t-9 -6.5q7 -3 10 -13q2 -7 3 -13t3 -8h-17q-2 4 -5 17q-2 11 -12 12h-5v-29zM292 311h7
q13 0 13 11q0 10 -12 10q-3 0 -4.5 -0.5t-3.5 -0.5v-20zM386 271h-46v72h44v-13h-28v-15h27v-13h-27v-17h30v-14zM410 271h-15l5 72h21l8 -24q2 -6 3 -12.5t3 -13.5q2 7 3.5 13.5t3.5 12.5l7 24h22l4 -72h-16l-1 28q-1 6 -1 13.5v15.5q-3 -12 -8 -28l-9 -28h-13l-7 28
q-2 7 -3.5 14t-3.5 14q-1 -7 -1 -14.5v-14.5zM504 271h-17v72h17v-72zM533 271h-15v72h19l15 -26q3 -6 6 -12.5t6 -12.5q-1 8 -1.5 15t-0.5 15v21h15v-72h-17l-15 28q-3 6 -6.5 12.5t-6.5 12.5q1 -7 1 -14.5v-16.5v-22zM643 280q-10 -10 -33 -10q-6 0 -10.5 0.5t-7.5 0.5v71
q5 1 10 1.5t12 0.5q18 0 29 -8q12 -8 12 -27t-12 -29zM608 283h6q11 0 17.5 6t6.5 19q0 23 -23 23h-7v-48zM712 271h-46v72h45v-13h-29v-15h27v-13h-27v-17h30v-14zM739 271h-16v71q10 2 22 2q15 0 23 -6q7 -4 7 -15q0 -7 -4 -11.5t-9 -6.5q7 -3 10 -13q2 -7 3 -13t3 -8h-17
q-2 4 -5 17q-2 11 -12 12h-5v-29zM739 311h7q13 0 13 11q0 10 -12 10q-3 0 -4.5 -0.5t-3.5 -0.5v-20zM791 249h-527v6h527v-6zM791 173h-527v6h527v-6zM791 119h-527v7h527v-7zM431 51h3l-4 -14h-4l-2 9l-3 -9h-3l-5 14h4l2 -9l3 9h4l2 -9zM452 51h4l-5 -14h-3l-3 9l-2 -9
h-4l-4 14h3l3 -9l3 9h3l3 -9zM474 51h4l-5 -14h-4l-2 9l-2 -9h-4l-5 14h4l3 -9l2 9h4l2 -9zM479 41h4v-4h-4v4zM496 57h4v-20h-4v2q0 -2 -2 -2q-1 0 -2 -1q-1 0 -5 2q-1 2 -1 6t1 6q2 2 5 2q2 0 4 -2v7zM495 41q1 0 1 3t-1 4q-1 0 -1 0.5t-1 0.5t-1.5 -0.5t-1.5 -0.5
q0 -1 -0.5 -1.5t-0.5 -2.5q0 -1 0.5 -1.5t0.5 -1.5q2 -2 3 -2zM511 40q1 1 1 2h4q0 -2 -2 -4t-4 -2t-6 2q-1 2 -1 6t1 6q4 2 6 2t4 -2q2 0 2 -3l-4 -1q0 2 -1 2l-1 1q-1 0 -1.5 -0.5t-1.5 -0.5v-4v-3q1 -1 3 -1h1zM525 52q3 0 6 -3q2 -2 2 -5t-2 -5q-3 -3 -6 -3
q-1 0 -1.5 0.5t-1.5 0.5q-2 1 -2 1.5t-1 1.5t-1 4t1 4t1 1.5t2 1.5q1 0 1.5 0.5t1.5 0.5zM528 41q1 0 1 3t-1 3q-1 1 -3 1q-1 0 -2 -1q-1 0 -1 -3t1 -3q1 -1 2 -1q2 0 3 1zM544 44l5 -7h-5l-3 4l-2 -4h-5l5 7l-5 7h5l2 -4l3 4h5zM560 51h4l-5 -14l-1 -2q0 -2 -1 -2
q0 -1 -1 -1l-1 -1h-2h-2l-1 3h2q2 0 2 1l1 2l-5 14h4l3 -10zM565 41h4v-4h-4v4zM581 40q0 1 1 2h3q0 -2 -2 -4t-4 -2q-3 0 -5 2t-2 6t2 6t5 2q2 0 4 -2q2 0 2 -3l-4 -1q0 2 -1 2l-1 1q-1 0 -1.5 -0.5t-1.5 -0.5v-4v-3q1 -1 3 -1h2zM595 52q2 0 5 -3q2 -2 2 -5t-2 -5
q-3 -3 -5 -3t-2.5 0.5t-1.5 0.5l-3 3q-1 1 -1 4t1 4l3 3q1 0 1.5 0.5t2.5 0.5zM597 41q1 0 1 3t-1 3q-1 1 -2 1q-2 0 -3 -1q-1 0 -1 -3t1 -3q1 -1 3 -1q1 0 2 1zM624 51q1 -1 1 -2q1 -1 1 -3v-9h-4v8v3q-1 0 -1 0.5t-1 0.5t-1 -1q-1 0 -1 -1q-1 -1 -1 -3v-7h-4v8v2v1
q-1 1 -2 1l-1 -1q-1 0 -1 -1t-0.5 -1.5t-0.5 -1.5v-7h-3v14h3v-2q1 3 5 3q1 0 1 -0.5t1 -0.5l2 -2q0 2 2 2q1 0 1 0.5t1 0.5t1.5 -0.5t1.5 -0.5z" />
    <glyph glyph-name="one" unicode="1" 
d="M435 558q0 7 3 12t9 5q7 0 10 -5t3 -11q0 -7 -3.5 -12t-9.5 -5t-9 5t-3 11zM625 574h6q16 0 16 -15q0 -16 -17 -16h-5v31zM580 548q0 3 5 6q6 -8 8 -10q-2 -2 -6 -2q-7 0 -7 6zM834 611v-611h-616v611h616zM393 586h414v6h-414v-6zM772 572q2 -3 3.5 -6.5t3.5 -6.5
l13 -20h5v39h-5v-16q0 -11 1 -16q-4 8 -7 12l-13 20h-5v-39h4v17v16zM748 543q-15 0 -15 16q0 15 16 15q6 0 8 -1l2 4q-4 2 -10 2q-10 0 -15.5 -6t-5.5 -15t5 -14t15 -5q8 0 12 2v19h-13v-5h8v-11q-1 -1 -7 -1zM716 578v-39h5v39h-5zM697 557q7 -3 7 -8q0 -6 -8 -6
q-5 0 -9 2l-2 -4q4 -3 10 -3q8 0 11 3.5t3 8.5q0 8 -10 11q-8 3 -8 8q0 2 1.5 4t6.5 2t7 -2l2 4q-4 2 -9 2q-13 0 -13 -11q0 -8 11 -11zM664 562v12h16v4h-21v-39h22v4h-17v14h15v5h-15zM652 559q0 8 -5 15q-5 4 -16 4h-11v-39h9q11 0 18 5q5 7 5 15zM580 563q0 -3 3 -6v-1
q-6 -3 -6 -9q0 -3 2 -6t7 -3t9 4q2 -1 2 -1.5t1 -1.5h5q-2 2 -2.5 3t-2.5 3q4 4 4 11h-3l-3 -9q-2 2 -4 4.5t-4 4.5q7 3 7 8q0 7 -7 7q-8 0 -8 -8zM548 557q7 -3 7 -8q0 -6 -8 -6q-5 0 -9 2l-1 -4q3 -3 10 -3t10 3.5t3 8.5q0 8 -10 11q-8 3 -8 8q0 2 1.5 4t6.5 2t7 -2l2 4
q-4 2 -9 2q-13 0 -13 -11q0 -8 11 -11zM517 574v-35h6v35h11v4h-29v-4h12zM476 572q3 -7 8 -13l12 -20h5v39h-5v-16q0 -11 1 -16q-4 8 -7 12l-13 20h-5v-39h4v17v16zM465 559q0 20 -18 20q-8 0 -13 -5.5t-5 -15.5q0 -20 18 -20q8 0 13 5.5t5 15.5zM408 561v13h16v4h-21v-39
h5v18h15v4h-15zM393 525h414v6h-414v-6zM796 445q0 32 -18 50q-18 19 -46 19q-31 0 -48 -20q-17 -18 -17 -50q0 -33 18 -51q18 -19 46 -19q29 0 47 19t18 52zM578 412q-6 9 -6 31q0 42 21 42q8 0 14 -7q5 -7 5 -19l37 2q-2 24 -16 38q-14 15 -41 15q-28 0 -45 -20
q-16 -19 -16 -51t17 -51q16 -18 44 -18q25 0 39 13q15 14 18 37l-36 2q-3 -22 -20 -22q-10 0 -15 8zM515 445q0 25 -17 47q-17 20 -51 20h-53v-136h55q29 0 48 19q18 19 18 50zM266 519q-11 -2 -17 -15t-3 -30t12.5 -27.5t20.5 -8.5v-8v-1q0 -17 8 -28q12 -17 36 -21
q11 -3 25 -4t29 -1v6q-11 0 -22 0.5t-20 1.5q-10 2 -14 3q-6 2 -10 4q-12 4 -19 14q-5 7 -7 19q7 -13 21 -19q3 -2 9 -4q13 -4 29 -5.5t33 -1.5v9q-17 0 -32.5 1t-27.5 5q-11 4 -18 9q-11 8 -14 18v5q3 9 6 15q10 13 33 18q4 1 14 3l2 2q1 0 2 1h1q1 1 4 1l2 1h1q1 -1 3 -1
l6 -3h1l3 3q3 3 5 3q6 2 8 2h1v108q-24 -1 -39.5 -8t-25.5 -19t-14.5 -27.5t-6.5 -32.5q-10 15 -25 13zM376 455q-12 0 -17 8q-4 -4 -10 -4q-11 0 -13 9v-2q0 -10 13 -10q7 0 10 4q5 -9 17 -9h1v4h-1zM808 362h-563v-339h563v339zM591 564q0 -3 -5 -6q-2 4 -2 6q0 4 4 4
q3 0 3 -4zM447 483q13 0 19 -12q7 -12 7 -26q0 -18 -8 -29q-7 -10 -18 -10h-13v77h13zM710 443q0 42 22 42q20 0 20 -37q0 -28 -5 -35q-4 -10 -16 -10q-21 0 -21 40zM276 446q-7 -2 -13 5t-8 12q-6 14 -4 27t11 17q9 5 15.5 0.5t11.5 -11.5q2 -2 -1 -17q-4 1 -8 -1
q4 -1 4.5 -2t2.5 -2q-4 0 -7 -0.5t-7 -1.5q6 -2 10 -6h-4.5t-4.5 -2q5 -2 6.5 -3.5l2.5 -2.5q-3 -10 -7 -12zM339 489q-12 1 -17.5 8t-4.5 8q31 17 40 1q1 -2 -3 -9.5t-14 -7.5h-1zM278 233q7 0 12 -3q4 -2 4 -8t-4 -9q-4 -4 -12 -4h-3v-14h-8v38h11zM278 215q7 0 7 6t-6 6
h-4v-11q1 -1 3 -1zM308 226v-8h14v-7h-14v-9h15v-7h-24v38h24v-7h-15zM356 223q0 -8 -6 -10q4 -2 5 -7q1 -3 1.5 -6t1.5 -5h-9q-1 2 -1 4t-2 5q-1 6 -6 6h-2v-15h-9v38h12q9 0 12 -2q3 -3 3 -8zM341 216q7 0 7 6q0 5 -6 5h-4v-11h3zM372 202q6 0 6 4q0 3 -6 5q-11 4 -11 11
q0 12 15 12q5 0 9 -2l-1 -7q-4 2 -8 2q-6 0 -6 -4q0 -2 7 -5q10 -4 10 -11q0 -12 -15 -12q-7 0 -11 2l2 7q4 -2 9 -2zM391 214q0 8 5 14t13 6q9 0 13.5 -5.5t4.5 -13.5q0 -20 -18 -20t-18 19zM418 214q0 13 -9 13t-9 -13q0 -12 9 -12t9 12zM447 210q-2 3 -3.5 6.5t-2.5 6.5
h-1q1 -5 1 -16v-12h-8v38h10l8 -14q4 -8 6 -13q0 4 -0.5 7.5t-0.5 8.5v11h8v-38h-9zM480 233h12l11 -38h-9l-3 10h-11l-2 -10h-9zM482 211h8l-2 9q-2 4 -2 7q-1 -2 -1 -3.5t-1 -3.5zM517 233v-30h15v-8h-23v38h8zM557 233v-22q0 -9 7 -9t7 9v22h8v-21q0 -17 -15 -17
q-16 0 -16 17v21h9zM596 202q6 0 6 4t-6 5q-10 3 -10 11q0 12 14 12q4 0 10 -2l-2 -7q-4 2 -8 2q-6 0 -6 -4q0 -2 7 -5q10 -4 10 -11q0 -12 -15 -12q-7 0 -11 2l2 7q4 -2 9 -2zM626 226v-8h13v-7h-13v-9h15v-7h-24v38h23v-7h-14zM656 214q0 8 5.5 14t13.5 6t13 -5.5t5 -13.5
q0 -20 -19 -20q-18 0 -18 19zM684 214q0 13 -9 13t-9 -13q0 -12 9 -12t9 12zM713 210q-2 3 -3.5 6.5t-3.5 6.5v-16v-12h-8v38h10l8 -14q5 -6 6 -13h1q-1 5 -1 16v11h8v-38h-9zM746 233v-30h15v-8h-24v38h9zM769 195v16l-11 22h9l4 -9q1 -3 3 -7q2 4 3 7l4 9h9l-12 -22v-16
h-9zM271 162v-13q0 -6 4 -6t4 6v13h6v-13q0 -11 -10 -11t-10 11v13h6zM295 143q4 0 4 2q0 3 -4 4q-6 1 -6 7q0 7 9 7q2 0 6 -2l-2 -4q-1 1 -5 1q-3 0 -3 -2t4 -3q7 -3 7 -7q0 -8 -10 -8q-3 0 -7 2l1 4q2 -1 6 -1zM314 162h7l7 -23h-6l-2 6h-6l-2 -6h-6zM314 149h6l-2 5
q0 1 -0.5 2t-0.5 2q0 -1 -0.5 -2t-0.5 -2zM343 158q-8 0 -8 -8q0 -7 7 -7h3v5h-4v4h9v-12q-4 -2 -8 -2q-5 0 -9 4q-4 3 -4 8q0 13 14 13q4 0 6 -2l-1 -4q-1 1 -5 1zM360 158v-5h8v-4h-8v-6h9v-4h-15v23h15v-4h-9zM387 162q6 0 7 -1q3 -3 3 -6t-2 -5q-3 -3 -8 -3h-2v-8h-5v23
h7zM387 151q5 0 5 4q0 3 -5 3h-2v-7h2zM406 158v-5h8v-4h-8v-6h9v-4h-15v23h15v-4h-9zM436 156q0 -4 -4 -6q2 -2 3 -5q1 -2 1 -3.5t1 -2.5h-6q-1 0 -1 1v4q-1 4 -4 4h-2v-9h-5v23h7q6 0 8 -1q2 -4 2 -5zM426 152q5 0 5 3t-4 3h-3v-6h2zM446 143q4 0 4 2t-4 4q-7 2 -7 7
q0 7 9 7q4 0 6 -2l-1 -4q-1 1 -5 1q-3 0 -3 -2t4 -3q6 -3 6 -7q0 -8 -9 -8q-5 0 -7 2l1 4q1 -1 6 -1zM458 150q0 13 11 13q5 0 8 -3.5t3 -8.5q0 -13 -11 -13q-5 0 -8 3.5t-3 8.5zM475 151q0 7 -6 7t-6 -8q0 -7 6 -7t6 8zM493 148q-2 2 -4 8h-1q1 -3 1 -10v-7h-5v23h6l5 -8
l2 -4l2 -4q-1 3 -1 9v7h5v-23h-5zM517 148q-2 2 -4 8v-10v-7h-5v23h6l5 -8l2 -4l2 -4v9v7h4v-23h-5zM537 158v-5h9v-4h-9v-6h10v-4h-15v23h15v-4h-10zM556 162v-19h10v-4h-15v23h5zM581 162v-13q0 -6 4 -6q5 0 5 6v13h5v-13q0 -11 -10 -11q-9 0 -9 11v13h5zM609 148
q-2 2 -2.5 4t-2.5 4q0 -2 0.5 -4.5t0.5 -5.5v-7h-5v23h6l5 -8l2 -4l2 -4q-1 3 -1 9v7h5v-23h-5zM624 139v23h5v-23h-5zM655 151q0 -8 -5 -11q2 0 3 -0.5t2 -0.5l-1 -4l-9 3h-2q-10 2 -10 12q0 13 11 13q5 0 8 -3.5t3 -8.5zM644 143q6 0 6 8q0 7 -6 7t-6 -8q0 -7 6 -7z
M664 162v-13q0 -6 4 -6q5 0 5 6v13h5v-13q0 -11 -10 -11q-9 0 -9 11v13h5zM688 158v-5h9v-4h-9v-6h10v-4h-15v23h14v-4h-9zM719 162h7l1 -23h-5l-1 9v9l-3 -9l-2 -9h-5l-2 9q-2 6 -2 9q0 -2 -0.5 -4.5t-0.5 -4.5v-9h-5l1 23h8l2 -8q1 -2 1 -4t1 -4q1 2 1 4t1 4zM736 158v-5
h9v-4h-9v-6h10v-4h-15v23h15v-4h-10zM759 148q-2 2 -4 8h-1q1 -3 1 -10v-7h-5v23h6l5 -8l2 -4l2 -4q0 2 -0.5 4.5t-0.5 4.5v7h5v-23h-5zM779 139v19h-7v4h18v-4h-6v-19h-5zM328 89q9 0 9 -10t-9 -10q-10 0 -10 10t10 10zM328 71q7 0 7 8t-8 8q-7 0 -7 -8t8 -8zM330 75l1 1
l1 -2q-1 0 -2 -0.5t-2 -0.5q-6 0 -6 6t6 6q3 0 4 -1l-1 -1h-3q-4 0 -4 -4t4 -4h2zM356 73v-4h-5v2q-2 -3 -5 -3q-7 0 -7 8q0 9 7 9q3 0 5 -2v8h5v-18zM351 78q-2 3 -3 3q-4 0 -4 -5q0 -4 4 -4q1 0 3 2v2v2zM368 81q-4 0 -4 -5q0 -4 4 -4q2 0 3 1v-4q-1 0 -1.5 -0.5
t-2.5 -0.5q-8 0 -8 8q0 9 9 9q1 0 1.5 -0.5t1.5 -0.5l-1 -4q0 1 -2 1zM381 85q8 0 8 -8q0 -9 -8 -9t-8 8q0 9 8 9zM381 72q3 0 3 4q0 5 -3 5t-3 -5q0 -4 3 -4zM407 73q0 -3 1 -4h-5v2q-2 -3 -5 -3q-7 0 -7 8q0 9 7 9q4 0 4 -2h1v8h4v-18zM403 78h-1q0 3 -2 3q-4 0 -4 -5
q0 -4 4 -4q2 0 2 2q0 1 0.5 1t0.5 1v2zM424 69q-1 0 -2 -0.5t-3 -0.5q-9 0 -9 8q0 3 2 6t6 3q7 0 7 -8v-2h-10q0 -3 5 -3h4v-3zM418 81q-3 0 -3 -3h6q0 3 -3 3zM432 72q3 0 3 1l-3 2q-4 1 -4 4q0 6 6 6q2 0 3 -0.5t2 -0.5l-1 -4q-1 1 -4 1q-2 0 -2 -1t3 -2q4 -1 4 -5
q0 -5 -7 -5q-2 0 -2.5 0.5t-2.5 0.5l1 4q1 -1 4 -1zM445 91q2 0 2 -2q0 -3 -2 -3q-3 0 -3 3q0 2 3 2zM442 84h5v-15h-5v15zM457 66q4 0 4 4v1q-1 -2 -4 -2q-7 0 -7 7q0 9 7 9q3 0 5 -3v2h4v-4v-9q0 -6 -3 -7q-1 -2 -6 -2q-4 0 -6 1l1 4q1 -1 5 -1zM461 78v1q0 2 -3 2t-3 -5
q0 -4 3 -4q1 0 3 2v2v2zM479 85q6 0 6 -7v-9h-5v8q0 4 -3 4q-2 0 -2 -2v-1v-9h-5v10v5h4v-2q3 3 5 3zM496 75h-8v4h8v-4zM509 81h9v-11q-4 -2 -8 -2q-5 0 -8 3q-4 4 -4 8q2 11 13 11q5 0 6 -1l-1 -4q-1 1 -5 1q-7 0 -7 -7t6 -7q2 0 3 1v4h-4v4zM521 69v10v5h4l1 -3q0 4 4 4
l1 -1v-4h-1q-2 0 -4 -2v-2v-7h-5zM547 75h-10q0 -3 4 -3h5v-3q-1 0 -2 -0.5t-3 -0.5q-9 0 -9 8q0 3 2 6t6 3q7 0 7 -8v-2zM543 78q0 3 -3 3t-3 -3h6zM556 66q4 0 4 4v1q-1 -2 -4 -2q-7 0 -7 7q0 9 7 9q3 0 5 -3v2h4v-4v-9q0 -5 -2 -7t-7 -2q-4 0 -5 1l1 4q1 -1 4 -1zM560 78
v1q0 2 -3 2t-3 -5q0 -4 3 -4t3 2v2v2zM584 77q0 -9 -8 -9t-8 8q0 9 8 9t8 -8zM573 76q0 -4 3 -4t3 4q0 5 -3 5t-3 -5zM587 69v10v5h5v-3q1 4 4 4q1 0 1 -1v-4h-1q-2 0 -4 -2v-2v-7h-5zM604 68v1v1l-6 14h6l2 -8l1 -1v-1l1 2l2 8h5l-4 -10q-3 -9 -5 -10q-2 -2 -3 -2t-2 -1
l-1 5h2zM646 90l1 -21h-5v8v9l-3 -9l-2 -8h-4l-2 8q-2 6 -2 9q-1 -2 -1 -4.5v-4.5v-8h-5l2 21h6l2 -7q2 -6 2 -8q1 2 1 4t1 4l3 7h6zM658 85q7 0 7 -8v-2h-10q0 -3 4 -3h4l1 -3q-2 0 -3 -0.5t-3 -0.5q-8 0 -8 8q0 3 1.5 6t6.5 3zM660 78q0 3 -2 3t-2.5 -1t-1.5 -2h6zM683 73
v-4h-4v2h-1q-2 -3 -4 -3q-7 0 -7 8q0 9 7 9q2 0 4 -2v8h5v-18zM678 78q0 3 -3 3t-3 -5q0 -4 3 -4t3 2v2v2zM689 91q3 0 3 -2q0 -3 -3 -3q-2 0 -2 3q0 2 2 2zM687 84h5v-15h-5v15zM705 85q6 0 6 -7v-9h-5v8q0 4 -3 4q-2 0 -2 -2v-1v-9h-5v10v5h4v-2q3 3 5 3zM728 72v-3h-5v1
q-2 -2 -4 -2q-6 0 -6 5q0 6 10 6q0 2 -3 2q-4 0 -5 -1v3q2 2 6 2q7 0 7 -7v-6zM723 76q-5 0 -5 -3q0 -1 2 -1t3 1v1v2zM292 271h-16v71q10 2 22 2q15 0 23 -6q7 -4 7 -15q0 -7 -4 -11.5t-9 -6.5q7 -3 10 -13q2 -7 3 -13t3 -8h-17q-2 4 -5 17q-2 11 -12 12h-5v-29zM292 311h7
q13 0 13 11q0 10 -12 10q-3 0 -4.5 -0.5t-3.5 -0.5v-20zM386 271h-46v72h44v-13h-28v-15h27v-13h-27v-17h30v-14zM410 271h-15l5 72h21l8 -24q2 -6 3 -12.5t3 -13.5q2 7 3.5 13.5t3.5 12.5l7 24h22l4 -72h-16l-1 28q-1 6 -1 13.5v15.5q-3 -12 -8 -28l-9 -28h-13l-7 28
q-2 7 -3.5 14t-3.5 14q-1 -7 -1 -14.5v-14.5zM504 271h-17v72h17v-72zM533 271h-15v72h19l15 -26q3 -6 6 -12.5t6 -12.5q-1 8 -1.5 15t-0.5 15v21h15v-72h-17l-15 28q-3 6 -6.5 12.5t-6.5 12.5q1 -7 1 -14.5v-16.5v-22zM643 280q-10 -10 -33 -10q-6 0 -10.5 0.5t-7.5 0.5v71
q5 1 10 1.5t12 0.5q18 0 29 -8q12 -8 12 -27t-12 -29zM608 283h6q11 0 17.5 6t6.5 19q0 23 -23 23h-7v-48zM712 271h-46v72h45v-13h-29v-15h27v-13h-27v-17h30v-14zM739 271h-16v71q10 2 22 2q15 0 23 -6q7 -4 7 -15q0 -7 -4 -11.5t-9 -6.5q7 -3 10 -13q2 -7 3 -13t3 -8h-17
q-2 4 -5 17q-2 11 -12 12h-5v-29zM739 311h7q13 0 13 11q0 10 -12 10q-3 0 -4.5 -0.5t-3.5 -0.5v-20zM791 249h-527v6h527v-6zM791 173h-527v6h527v-6zM791 119h-527v7h527v-7zM431 51h3l-4 -14h-4l-2 9l-3 -9h-3l-5 14h4l2 -9l3 9h4l2 -9zM452 51h4l-5 -14h-3l-3 9l-2 -9
h-4l-4 14h3l3 -9l3 9h3l3 -9zM474 51h4l-5 -14h-4l-2 9l-2 -9h-4l-5 14h4l3 -9l2 9h4l2 -9zM479 41h4v-4h-4v4zM496 57h4v-20h-4v2q0 -2 -2 -2q-1 0 -2 -1q-1 0 -5 2q-1 2 -1 6t1 6q2 2 5 2q2 0 4 -2v7zM495 41q1 0 1 3t-1 4q-1 0 -1 0.5t-1 0.5t-1.5 -0.5t-1.5 -0.5
q0 -1 -0.5 -1.5t-0.5 -2.5q0 -1 0.5 -1.5t0.5 -1.5q2 -2 3 -2zM511 40q1 1 1 2h4q0 -2 -2 -4t-4 -2t-6 2q-1 2 -1 6t1 6q4 2 6 2t4 -2q2 0 2 -3l-4 -1q0 2 -1 2l-1 1q-1 0 -1.5 -0.5t-1.5 -0.5v-4v-3q1 -1 3 -1h1zM525 52q3 0 6 -3q2 -2 2 -5t-2 -5q-3 -3 -6 -3
q-1 0 -1.5 0.5t-1.5 0.5q-2 1 -2 1.5t-1 1.5t-1 4t1 4t1 1.5t2 1.5q1 0 1.5 0.5t1.5 0.5zM528 41q1 0 1 3t-1 3q-1 1 -3 1q-1 0 -2 -1q-1 0 -1 -3t1 -3q1 -1 2 -1q2 0 3 1zM544 44l5 -7h-5l-3 4l-2 -4h-5l5 7l-5 7h5l2 -4l3 4h5zM560 51h4l-5 -14l-1 -2q0 -2 -1 -2
q0 -1 -1 -1l-1 -1h-2h-2l-1 3h2q2 0 2 1l1 2l-5 14h4l3 -10zM565 41h4v-4h-4v4zM581 40q0 1 1 2h3q0 -2 -2 -4t-4 -2q-3 0 -5 2t-2 6t2 6t5 2q2 0 4 -2q2 0 2 -3l-4 -1q0 2 -1 2l-1 1q-1 0 -1.5 -0.5t-1.5 -0.5v-4v-3q1 -1 3 -1h2zM595 52q2 0 5 -3q2 -2 2 -5t-2 -5
q-3 -3 -5 -3t-2.5 0.5t-1.5 0.5l-3 3q-1 1 -1 4t1 4l3 3q1 0 1.5 0.5t2.5 0.5zM597 41q1 0 1 3t-1 3q-1 1 -2 1q-2 0 -3 -1q-1 0 -1 -3t1 -3q1 -1 3 -1q1 0 2 1zM624 51q1 -1 1 -2q1 -1 1 -3v-9h-4v8v3q-1 0 -1 0.5t-1 0.5t-1 -1q-1 0 -1 -1q-1 -1 -1 -3v-7h-4v8v2v1
q-1 1 -2 1l-1 -1q-1 0 -1 -1t-0.5 -1.5t-0.5 -1.5v-7h-3v14h3v-2q1 3 5 3q1 0 1 -0.5t1 -0.5l2 -2q0 2 2 2q1 0 1 0.5t1 0.5t1.5 -0.5t1.5 -0.5z" />
    <glyph glyph-name="two" unicode="2" 
d="M435 558q0 7 3 12t9 5q7 0 10 -5t3 -11q0 -7 -3.5 -12t-9.5 -5t-9 5t-3 11zM625 574h6q16 0 16 -15q0 -16 -17 -16h-5v31zM580 548q0 3 5 6q6 -8 8 -10q-2 -2 -6 -2q-7 0 -7 6zM834 611v-611h-616v611h616zM393 586h414v6h-414v-6zM772 572q2 -3 3.5 -6.5t3.5 -6.5
l13 -20h5v39h-5v-16q0 -11 1 -16q-4 8 -7 12l-13 20h-5v-39h4v17v16zM748 543q-15 0 -15 16q0 15 16 15q6 0 8 -1l2 4q-4 2 -10 2q-10 0 -15.5 -6t-5.5 -15t5 -14t15 -5q8 0 12 2v19h-13v-5h8v-11q-1 -1 -7 -1zM716 578v-39h5v39h-5zM697 557q7 -3 7 -8q0 -6 -8 -6
q-5 0 -9 2l-2 -4q4 -3 10 -3q8 0 11 3.5t3 8.5q0 8 -10 11q-8 3 -8 8q0 2 1.5 4t6.5 2t7 -2l2 4q-4 2 -9 2q-13 0 -13 -11q0 -8 11 -11zM664 562v12h16v4h-21v-39h22v4h-17v14h15v5h-15zM652 559q0 8 -5 15q-5 4 -16 4h-11v-39h9q11 0 18 5q5 7 5 15zM580 563q0 -3 3 -6v-1
q-6 -3 -6 -9q0 -3 2 -6t7 -3t9 4q2 -1 2 -1.5t1 -1.5h5q-2 2 -2.5 3t-2.5 3q4 4 4 11h-3l-3 -9q-2 2 -4 4.5t-4 4.5q7 3 7 8q0 7 -7 7q-8 0 -8 -8zM548 557q7 -3 7 -8q0 -6 -8 -6q-5 0 -9 2l-1 -4q3 -3 10 -3t10 3.5t3 8.5q0 8 -10 11q-8 3 -8 8q0 2 1.5 4t6.5 2t7 -2l2 4
q-4 2 -9 2q-13 0 -13 -11q0 -8 11 -11zM517 574v-35h6v35h11v4h-29v-4h12zM476 572q3 -7 8 -13l12 -20h5v39h-5v-16q0 -11 1 -16q-4 8 -7 12l-13 20h-5v-39h4v17v16zM465 559q0 20 -18 20q-8 0 -13 -5.5t-5 -15.5q0 -20 18 -20q8 0 13 5.5t5 15.5zM408 561v13h16v4h-21v-39
h5v18h15v4h-15zM393 525h414v6h-414v-6zM796 445q0 32 -18 50q-18 19 -46 19q-31 0 -48 -20q-17 -18 -17 -50q0 -33 18 -51q18 -19 46 -19q29 0 47 19t18 52zM578 412q-6 9 -6 31q0 42 21 42q8 0 14 -7q5 -7 5 -19l37 2q-2 24 -16 38q-14 15 -41 15q-28 0 -45 -20
q-16 -19 -16 -51t17 -51q16 -18 44 -18q25 0 39 13q15 14 18 37l-36 2q-3 -22 -20 -22q-10 0 -15 8zM515 445q0 25 -17 47q-17 20 -51 20h-53v-136h55q29 0 48 19q18 19 18 50zM266 519q-11 -2 -17 -15t-3 -30t12.5 -27.5t20.5 -8.5v-8v-1q0 -17 8 -28q12 -17 36 -21
q11 -3 25 -4t29 -1v6q-11 0 -22 0.5t-20 1.5q-10 2 -14 3q-6 2 -10 4q-12 4 -19 14q-5 7 -7 19q7 -13 21 -19q3 -2 9 -4q13 -4 29 -5.5t33 -1.5v9q-17 0 -32.5 1t-27.5 5q-11 4 -18 9q-11 8 -14 18v5q3 9 6 15q10 13 33 18q4 1 14 3l2 2q1 0 2 1h1q1 1 4 1l2 1h1q1 -1 3 -1
l6 -3h1l3 3q3 3 5 3q6 2 8 2h1v108q-24 -1 -39.5 -8t-25.5 -19t-14.5 -27.5t-6.5 -32.5q-10 15 -25 13zM376 455q-12 0 -17 8q-4 -4 -10 -4q-11 0 -13 9v-2q0 -10 13 -10q7 0 10 4q5 -9 17 -9h1v4h-1zM808 362h-563v-339h563v339zM591 564q0 -3 -5 -6q-2 4 -2 6q0 4 4 4
q3 0 3 -4zM447 483q13 0 19 -12q7 -12 7 -26q0 -18 -8 -29q-7 -10 -18 -10h-13v77h13zM710 443q0 42 22 42q20 0 20 -37q0 -28 -5 -35q-4 -10 -16 -10q-21 0 -21 40zM276 446q-7 -2 -13 5t-8 12q-6 14 -4 27t11 17q9 5 15.5 0.5t11.5 -11.5q2 -2 -1 -17q-4 1 -8 -1
q4 -1 4.5 -2t2.5 -2q-4 0 -7 -0.5t-7 -1.5q6 -2 10 -6h-4.5t-4.5 -2q5 -2 6.5 -3.5l2.5 -2.5q-3 -10 -7 -12zM339 489q-12 1 -17.5 8t-4.5 8q31 17 40 1q1 -2 -3 -9.5t-14 -7.5h-1zM278 233q7 0 12 -3q4 -2 4 -8t-4 -9q-4 -4 -12 -4h-3v-14h-8v38h11zM278 215q7 0 7 6t-6 6
h-4v-11q1 -1 3 -1zM308 226v-8h14v-7h-14v-9h15v-7h-24v38h24v-7h-15zM356 223q0 -8 -6 -10q4 -2 5 -7q1 -3 1.5 -6t1.5 -5h-9q-1 2 -1 4t-2 5q-1 6 -6 6h-2v-15h-9v38h12q9 0 12 -2q3 -3 3 -8zM341 216q7 0 7 6q0 5 -6 5h-4v-11h3zM372 202q6 0 6 4q0 3 -6 5q-11 4 -11 11
q0 12 15 12q5 0 9 -2l-1 -7q-4 2 -8 2q-6 0 -6 -4q0 -2 7 -5q10 -4 10 -11q0 -12 -15 -12q-7 0 -11 2l2 7q4 -2 9 -2zM391 214q0 8 5 14t13 6q9 0 13.5 -5.5t4.5 -13.5q0 -20 -18 -20t-18 19zM418 214q0 13 -9 13t-9 -13q0 -12 9 -12t9 12zM447 210q-2 3 -3.5 6.5t-2.5 6.5
h-1q1 -5 1 -16v-12h-8v38h10l8 -14q4 -8 6 -13q0 4 -0.5 7.5t-0.5 8.5v11h8v-38h-9zM480 233h12l11 -38h-9l-3 10h-11l-2 -10h-9zM482 211h8l-2 9q-2 4 -2 7q-1 -2 -1 -3.5t-1 -3.5zM517 233v-30h15v-8h-23v38h8zM557 233v-22q0 -9 7 -9t7 9v22h8v-21q0 -17 -15 -17
q-16 0 -16 17v21h9zM596 202q6 0 6 4t-6 5q-10 3 -10 11q0 12 14 12q4 0 10 -2l-2 -7q-4 2 -8 2q-6 0 -6 -4q0 -2 7 -5q10 -4 10 -11q0 -12 -15 -12q-7 0 -11 2l2 7q4 -2 9 -2zM626 226v-8h13v-7h-13v-9h15v-7h-24v38h23v-7h-14zM656 214q0 8 5.5 14t13.5 6t13 -5.5t5 -13.5
q0 -20 -19 -20q-18 0 -18 19zM684 214q0 13 -9 13t-9 -13q0 -12 9 -12t9 12zM713 210q-2 3 -3.5 6.5t-3.5 6.5v-16v-12h-8v38h10l8 -14q5 -6 6 -13h1q-1 5 -1 16v11h8v-38h-9zM746 233v-30h15v-8h-24v38h9zM769 195v16l-11 22h9l4 -9q1 -3 3 -7q2 4 3 7l4 9h9l-12 -22v-16
h-9zM271 162v-13q0 -6 4 -6t4 6v13h6v-13q0 -11 -10 -11t-10 11v13h6zM295 143q4 0 4 2q0 3 -4 4q-6 1 -6 7q0 7 9 7q2 0 6 -2l-2 -4q-1 1 -5 1q-3 0 -3 -2t4 -3q7 -3 7 -7q0 -8 -10 -8q-3 0 -7 2l1 4q2 -1 6 -1zM314 162h7l7 -23h-6l-2 6h-6l-2 -6h-6zM314 149h6l-2 5
q0 1 -0.5 2t-0.5 2q0 -1 -0.5 -2t-0.5 -2zM343 158q-8 0 -8 -8q0 -7 7 -7h3v5h-4v4h9v-12q-4 -2 -8 -2q-5 0 -9 4q-4 3 -4 8q0 13 14 13q4 0 6 -2l-1 -4q-1 1 -5 1zM360 158v-5h8v-4h-8v-6h9v-4h-15v23h15v-4h-9zM387 162q6 0 7 -1q3 -3 3 -6t-2 -5q-3 -3 -8 -3h-2v-8h-5v23
h7zM387 151q5 0 5 4q0 3 -5 3h-2v-7h2zM406 158v-5h8v-4h-8v-6h9v-4h-15v23h15v-4h-9zM436 156q0 -4 -4 -6q2 -2 3 -5q1 -2 1 -3.5t1 -2.5h-6q-1 0 -1 1v4q-1 4 -4 4h-2v-9h-5v23h7q6 0 8 -1q2 -4 2 -5zM426 152q5 0 5 3t-4 3h-3v-6h2zM446 143q4 0 4 2t-4 4q-7 2 -7 7
q0 7 9 7q4 0 6 -2l-1 -4q-1 1 -5 1q-3 0 -3 -2t4 -3q6 -3 6 -7q0 -8 -9 -8q-5 0 -7 2l1 4q1 -1 6 -1zM458 150q0 13 11 13q5 0 8 -3.5t3 -8.5q0 -13 -11 -13q-5 0 -8 3.5t-3 8.5zM475 151q0 7 -6 7t-6 -8q0 -7 6 -7t6 8zM493 148q-2 2 -4 8h-1q1 -3 1 -10v-7h-5v23h6l5 -8
l2 -4l2 -4q-1 3 -1 9v7h5v-23h-5zM517 148q-2 2 -4 8v-10v-7h-5v23h6l5 -8l2 -4l2 -4v9v7h4v-23h-5zM537 158v-5h9v-4h-9v-6h10v-4h-15v23h15v-4h-10zM556 162v-19h10v-4h-15v23h5zM581 162v-13q0 -6 4 -6q5 0 5 6v13h5v-13q0 -11 -10 -11q-9 0 -9 11v13h5zM609 148
q-2 2 -2.5 4t-2.5 4q0 -2 0.5 -4.5t0.5 -5.5v-7h-5v23h6l5 -8l2 -4l2 -4q-1 3 -1 9v7h5v-23h-5zM624 139v23h5v-23h-5zM655 151q0 -8 -5 -11q2 0 3 -0.5t2 -0.5l-1 -4l-9 3h-2q-10 2 -10 12q0 13 11 13q5 0 8 -3.5t3 -8.5zM644 143q6 0 6 8q0 7 -6 7t-6 -8q0 -7 6 -7z
M664 162v-13q0 -6 4 -6q5 0 5 6v13h5v-13q0 -11 -10 -11q-9 0 -9 11v13h5zM688 158v-5h9v-4h-9v-6h10v-4h-15v23h14v-4h-9zM719 162h7l1 -23h-5l-1 9v9l-3 -9l-2 -9h-5l-2 9q-2 6 -2 9q0 -2 -0.5 -4.5t-0.5 -4.5v-9h-5l1 23h8l2 -8q1 -2 1 -4t1 -4q1 2 1 4t1 4zM736 158v-5
h9v-4h-9v-6h10v-4h-15v23h15v-4h-10zM759 148q-2 2 -4 8h-1q1 -3 1 -10v-7h-5v23h6l5 -8l2 -4l2 -4q0 2 -0.5 4.5t-0.5 4.5v7h5v-23h-5zM779 139v19h-7v4h18v-4h-6v-19h-5zM328 89q9 0 9 -10t-9 -10q-10 0 -10 10t10 10zM328 71q7 0 7 8t-8 8q-7 0 -7 -8t8 -8zM330 75l1 1
l1 -2q-1 0 -2 -0.5t-2 -0.5q-6 0 -6 6t6 6q3 0 4 -1l-1 -1h-3q-4 0 -4 -4t4 -4h2zM356 73v-4h-5v2q-2 -3 -5 -3q-7 0 -7 8q0 9 7 9q3 0 5 -2v8h5v-18zM351 78q-2 3 -3 3q-4 0 -4 -5q0 -4 4 -4q1 0 3 2v2v2zM368 81q-4 0 -4 -5q0 -4 4 -4q2 0 3 1v-4q-1 0 -1.5 -0.5
t-2.5 -0.5q-8 0 -8 8q0 9 9 9q1 0 1.5 -0.5t1.5 -0.5l-1 -4q0 1 -2 1zM381 85q8 0 8 -8q0 -9 -8 -9t-8 8q0 9 8 9zM381 72q3 0 3 4q0 5 -3 5t-3 -5q0 -4 3 -4zM407 73q0 -3 1 -4h-5v2q-2 -3 -5 -3q-7 0 -7 8q0 9 7 9q4 0 4 -2h1v8h4v-18zM403 78h-1q0 3 -2 3q-4 0 -4 -5
q0 -4 4 -4q2 0 2 2q0 1 0.5 1t0.5 1v2zM424 69q-1 0 -2 -0.5t-3 -0.5q-9 0 -9 8q0 3 2 6t6 3q7 0 7 -8v-2h-10q0 -3 5 -3h4v-3zM418 81q-3 0 -3 -3h6q0 3 -3 3zM432 72q3 0 3 1l-3 2q-4 1 -4 4q0 6 6 6q2 0 3 -0.5t2 -0.5l-1 -4q-1 1 -4 1q-2 0 -2 -1t3 -2q4 -1 4 -5
q0 -5 -7 -5q-2 0 -2.5 0.5t-2.5 0.5l1 4q1 -1 4 -1zM445 91q2 0 2 -2q0 -3 -2 -3q-3 0 -3 3q0 2 3 2zM442 84h5v-15h-5v15zM457 66q4 0 4 4v1q-1 -2 -4 -2q-7 0 -7 7q0 9 7 9q3 0 5 -3v2h4v-4v-9q0 -6 -3 -7q-1 -2 -6 -2q-4 0 -6 1l1 4q1 -1 5 -1zM461 78v1q0 2 -3 2t-3 -5
q0 -4 3 -4q1 0 3 2v2v2zM479 85q6 0 6 -7v-9h-5v8q0 4 -3 4q-2 0 -2 -2v-1v-9h-5v10v5h4v-2q3 3 5 3zM496 75h-8v4h8v-4zM509 81h9v-11q-4 -2 -8 -2q-5 0 -8 3q-4 4 -4 8q2 11 13 11q5 0 6 -1l-1 -4q-1 1 -5 1q-7 0 -7 -7t6 -7q2 0 3 1v4h-4v4zM521 69v10v5h4l1 -3q0 4 4 4
l1 -1v-4h-1q-2 0 -4 -2v-2v-7h-5zM547 75h-10q0 -3 4 -3h5v-3q-1 0 -2 -0.5t-3 -0.5q-9 0 -9 8q0 3 2 6t6 3q7 0 7 -8v-2zM543 78q0 3 -3 3t-3 -3h6zM556 66q4 0 4 4v1q-1 -2 -4 -2q-7 0 -7 7q0 9 7 9q3 0 5 -3v2h4v-4v-9q0 -5 -2 -7t-7 -2q-4 0 -5 1l1 4q1 -1 4 -1zM560 78
v1q0 2 -3 2t-3 -5q0 -4 3 -4t3 2v2v2zM584 77q0 -9 -8 -9t-8 8q0 9 8 9t8 -8zM573 76q0 -4 3 -4t3 4q0 5 -3 5t-3 -5zM587 69v10v5h5v-3q1 4 4 4q1 0 1 -1v-4h-1q-2 0 -4 -2v-2v-7h-5zM604 68v1v1l-6 14h6l2 -8l1 -1v-1l1 2l2 8h5l-4 -10q-3 -9 -5 -10q-2 -2 -3 -2t-2 -1
l-1 5h2zM646 90l1 -21h-5v8v9l-3 -9l-2 -8h-4l-2 8q-2 6 -2 9q-1 -2 -1 -4.5v-4.5v-8h-5l2 21h6l2 -7q2 -6 2 -8q1 2 1 4t1 4l3 7h6zM658 85q7 0 7 -8v-2h-10q0 -3 4 -3h4l1 -3q-2 0 -3 -0.5t-3 -0.5q-8 0 -8 8q0 3 1.5 6t6.5 3zM660 78q0 3 -2 3t-2.5 -1t-1.5 -2h6zM683 73
v-4h-4v2h-1q-2 -3 -4 -3q-7 0 -7 8q0 9 7 9q2 0 4 -2v8h5v-18zM678 78q0 3 -3 3t-3 -5q0 -4 3 -4t3 2v2v2zM689 91q3 0 3 -2q0 -3 -3 -3q-2 0 -2 3q0 2 2 2zM687 84h5v-15h-5v15zM705 85q6 0 6 -7v-9h-5v8q0 4 -3 4q-2 0 -2 -2v-1v-9h-5v10v5h4v-2q3 3 5 3zM728 72v-3h-5v1
q-2 -2 -4 -2q-6 0 -6 5q0 6 10 6q0 2 -3 2q-4 0 -5 -1v3q2 2 6 2q7 0 7 -7v-6zM723 76q-5 0 -5 -3q0 -1 2 -1t3 1v1v2zM292 271h-16v71q10 2 22 2q15 0 23 -6q7 -4 7 -15q0 -7 -4 -11.5t-9 -6.5q7 -3 10 -13q2 -7 3 -13t3 -8h-17q-2 4 -5 17q-2 11 -12 12h-5v-29zM292 311h7
q13 0 13 11q0 10 -12 10q-3 0 -4.5 -0.5t-3.5 -0.5v-20zM386 271h-46v72h44v-13h-28v-15h27v-13h-27v-17h30v-14zM410 271h-15l5 72h21l8 -24q2 -6 3 -12.5t3 -13.5q2 7 3.5 13.5t3.5 12.5l7 24h22l4 -72h-16l-1 28q-1 6 -1 13.5v15.5q-3 -12 -8 -28l-9 -28h-13l-7 28
q-2 7 -3.5 14t-3.5 14q-1 -7 -1 -14.5v-14.5zM504 271h-17v72h17v-72zM533 271h-15v72h19l15 -26q3 -6 6 -12.5t6 -12.5q-1 8 -1.5 15t-0.5 15v21h15v-72h-17l-15 28q-3 6 -6.5 12.5t-6.5 12.5q1 -7 1 -14.5v-16.5v-22zM643 280q-10 -10 -33 -10q-6 0 -10.5 0.5t-7.5 0.5v71
q5 1 10 1.5t12 0.5q18 0 29 -8q12 -8 12 -27t-12 -29zM608 283h6q11 0 17.5 6t6.5 19q0 23 -23 23h-7v-48zM712 271h-46v72h45v-13h-29v-15h27v-13h-27v-17h30v-14zM739 271h-16v71q10 2 22 2q15 0 23 -6q7 -4 7 -15q0 -7 -4 -11.5t-9 -6.5q7 -3 10 -13q2 -7 3 -13t3 -8h-17
q-2 4 -5 17q-2 11 -12 12h-5v-29zM739 311h7q13 0 13 11q0 10 -12 10q-3 0 -4.5 -0.5t-3.5 -0.5v-20zM791 249h-527v6h527v-6zM791 173h-527v6h527v-6zM791 119h-527v7h527v-7zM431 51h3l-4 -14h-4l-2 9l-3 -9h-3l-5 14h4l2 -9l3 9h4l2 -9zM452 51h4l-5 -14h-3l-3 9l-2 -9
h-4l-4 14h3l3 -9l3 9h3l3 -9zM474 51h4l-5 -14h-4l-2 9l-2 -9h-4l-5 14h4l3 -9l2 9h4l2 -9zM479 41h4v-4h-4v4zM496 57h4v-20h-4v2q0 -2 -2 -2q-1 0 -2 -1q-1 0 -5 2q-1 2 -1 6t1 6q2 2 5 2q2 0 4 -2v7zM495 41q1 0 1 3t-1 4q-1 0 -1 0.5t-1 0.5t-1.5 -0.5t-1.5 -0.5
q0 -1 -0.5 -1.5t-0.5 -2.5q0 -1 0.5 -1.5t0.5 -1.5q2 -2 3 -2zM511 40q1 1 1 2h4q0 -2 -2 -4t-4 -2t-6 2q-1 2 -1 6t1 6q4 2 6 2t4 -2q2 0 2 -3l-4 -1q0 2 -1 2l-1 1q-1 0 -1.5 -0.5t-1.5 -0.5v-4v-3q1 -1 3 -1h1zM525 52q3 0 6 -3q2 -2 2 -5t-2 -5q-3 -3 -6 -3
q-1 0 -1.5 0.5t-1.5 0.5q-2 1 -2 1.5t-1 1.5t-1 4t1 4t1 1.5t2 1.5q1 0 1.5 0.5t1.5 0.5zM528 41q1 0 1 3t-1 3q-1 1 -3 1q-1 0 -2 -1q-1 0 -1 -3t1 -3q1 -1 2 -1q2 0 3 1zM544 44l5 -7h-5l-3 4l-2 -4h-5l5 7l-5 7h5l2 -4l3 4h5zM560 51h4l-5 -14l-1 -2q0 -2 -1 -2
q0 -1 -1 -1l-1 -1h-2h-2l-1 3h2q2 0 2 1l1 2l-5 14h4l3 -10zM565 41h4v-4h-4v4zM581 40q0 1 1 2h3q0 -2 -2 -4t-4 -2q-3 0 -5 2t-2 6t2 6t5 2q2 0 4 -2q2 0 2 -3l-4 -1q0 2 -1 2l-1 1q-1 0 -1.5 -0.5t-1.5 -0.5v-4v-3q1 -1 3 -1h2zM595 52q2 0 5 -3q2 -2 2 -5t-2 -5
q-3 -3 -5 -3t-2.5 0.5t-1.5 0.5l-3 3q-1 1 -1 4t1 4l3 3q1 0 1.5 0.5t2.5 0.5zM597 41q1 0 1 3t-1 3q-1 1 -2 1q-2 0 -3 -1q-1 0 -1 -3t1 -3q1 -1 3 -1q1 0 2 1zM624 51q1 -1 1 -2q1 -1 1 -3v-9h-4v8v3q-1 0 -1 0.5t-1 0.5t-1 -1q-1 0 -1 -1q-1 -1 -1 -3v-7h-4v8v2v1
q-1 1 -2 1l-1 -1q-1 0 -1 -1t-0.5 -1.5t-0.5 -1.5v-7h-3v14h3v-2q1 3 5 3q1 0 1 -0.5t1 -0.5l2 -2q0 2 2 2q1 0 1 0.5t1 0.5t1.5 -0.5t1.5 -0.5z" />
    <glyph glyph-name="three" unicode="3" 
d="M435 558q0 7 3 12t9 5q7 0 10 -5t3 -11q0 -7 -3.5 -12t-9.5 -5t-9 5t-3 11zM625 574h6q16 0 16 -15q0 -16 -17 -16h-5v31zM580 548q0 3 5 6q6 -8 8 -10q-2 -2 -6 -2q-7 0 -7 6zM834 611v-611h-616v611h616zM393 586h414v6h-414v-6zM772 572q2 -3 3.5 -6.5t3.5 -6.5
l13 -20h5v39h-5v-16q0 -11 1 -16q-4 8 -7 12l-13 20h-5v-39h4v17v16zM748 543q-15 0 -15 16q0 15 16 15q6 0 8 -1l2 4q-4 2 -10 2q-10 0 -15.5 -6t-5.5 -15t5 -14t15 -5q8 0 12 2v19h-13v-5h8v-11q-1 -1 -7 -1zM716 578v-39h5v39h-5zM697 557q7 -3 7 -8q0 -6 -8 -6
q-5 0 -9 2l-2 -4q4 -3 10 -3q8 0 11 3.5t3 8.5q0 8 -10 11q-8 3 -8 8q0 2 1.5 4t6.5 2t7 -2l2 4q-4 2 -9 2q-13 0 -13 -11q0 -8 11 -11zM664 562v12h16v4h-21v-39h22v4h-17v14h15v5h-15zM652 559q0 8 -5 15q-5 4 -16 4h-11v-39h9q11 0 18 5q5 7 5 15zM580 563q0 -3 3 -6v-1
q-6 -3 -6 -9q0 -3 2 -6t7 -3t9 4q2 -1 2 -1.5t1 -1.5h5q-2 2 -2.5 3t-2.5 3q4 4 4 11h-3l-3 -9q-2 2 -4 4.5t-4 4.5q7 3 7 8q0 7 -7 7q-8 0 -8 -8zM548 557q7 -3 7 -8q0 -6 -8 -6q-5 0 -9 2l-1 -4q3 -3 10 -3t10 3.5t3 8.5q0 8 -10 11q-8 3 -8 8q0 2 1.5 4t6.5 2t7 -2l2 4
q-4 2 -9 2q-13 0 -13 -11q0 -8 11 -11zM517 574v-35h6v35h11v4h-29v-4h12zM476 572q3 -7 8 -13l12 -20h5v39h-5v-16q0 -11 1 -16q-4 8 -7 12l-13 20h-5v-39h4v17v16zM465 559q0 20 -18 20q-8 0 -13 -5.5t-5 -15.5q0 -20 18 -20q8 0 13 5.5t5 15.5zM408 561v13h16v4h-21v-39
h5v18h15v4h-15zM393 525h414v6h-414v-6zM796 445q0 32 -18 50q-18 19 -46 19q-31 0 -48 -20q-17 -18 -17 -50q0 -33 18 -51q18 -19 46 -19q29 0 47 19t18 52zM578 412q-6 9 -6 31q0 42 21 42q8 0 14 -7q5 -7 5 -19l37 2q-2 24 -16 38q-14 15 -41 15q-28 0 -45 -20
q-16 -19 -16 -51t17 -51q16 -18 44 -18q25 0 39 13q15 14 18 37l-36 2q-3 -22 -20 -22q-10 0 -15 8zM515 445q0 25 -17 47q-17 20 -51 20h-53v-136h55q29 0 48 19q18 19 18 50zM266 519q-11 -2 -17 -15t-3 -30t12.5 -27.5t20.5 -8.5v-8v-1q0 -17 8 -28q12 -17 36 -21
q11 -3 25 -4t29 -1v6q-11 0 -22 0.5t-20 1.5q-10 2 -14 3q-6 2 -10 4q-12 4 -19 14q-5 7 -7 19q7 -13 21 -19q3 -2 9 -4q13 -4 29 -5.5t33 -1.5v9q-17 0 -32.5 1t-27.5 5q-11 4 -18 9q-11 8 -14 18v5q3 9 6 15q10 13 33 18q4 1 14 3l2 2q1 0 2 1h1q1 1 4 1l2 1h1q1 -1 3 -1
l6 -3h1l3 3q3 3 5 3q6 2 8 2h1v108q-24 -1 -39.5 -8t-25.5 -19t-14.5 -27.5t-6.5 -32.5q-10 15 -25 13zM376 455q-12 0 -17 8q-4 -4 -10 -4q-11 0 -13 9v-2q0 -10 13 -10q7 0 10 4q5 -9 17 -9h1v4h-1zM808 362h-563v-339h563v339zM591 564q0 -3 -5 -6q-2 4 -2 6q0 4 4 4
q3 0 3 -4zM447 483q13 0 19 -12q7 -12 7 -26q0 -18 -8 -29q-7 -10 -18 -10h-13v77h13zM710 443q0 42 22 42q20 0 20 -37q0 -28 -5 -35q-4 -10 -16 -10q-21 0 -21 40zM276 446q-7 -2 -13 5t-8 12q-6 14 -4 27t11 17q9 5 15.5 0.5t11.5 -11.5q2 -2 -1 -17q-4 1 -8 -1
q4 -1 4.5 -2t2.5 -2q-4 0 -7 -0.5t-7 -1.5q6 -2 10 -6h-4.5t-4.5 -2q5 -2 6.5 -3.5l2.5 -2.5q-3 -10 -7 -12zM339 489q-12 1 -17.5 8t-4.5 8q31 17 40 1q1 -2 -3 -9.5t-14 -7.5h-1zM278 233q7 0 12 -3q4 -2 4 -8t-4 -9q-4 -4 -12 -4h-3v-14h-8v38h11zM278 215q7 0 7 6t-6 6
h-4v-11q1 -1 3 -1zM308 226v-8h14v-7h-14v-9h15v-7h-24v38h24v-7h-15zM356 223q0 -8 -6 -10q4 -2 5 -7q1 -3 1.5 -6t1.5 -5h-9q-1 2 -1 4t-2 5q-1 6 -6 6h-2v-15h-9v38h12q9 0 12 -2q3 -3 3 -8zM341 216q7 0 7 6q0 5 -6 5h-4v-11h3zM372 202q6 0 6 4q0 3 -6 5q-11 4 -11 11
q0 12 15 12q5 0 9 -2l-1 -7q-4 2 -8 2q-6 0 -6 -4q0 -2 7 -5q10 -4 10 -11q0 -12 -15 -12q-7 0 -11 2l2 7q4 -2 9 -2zM391 214q0 8 5 14t13 6q9 0 13.5 -5.5t4.5 -13.5q0 -20 -18 -20t-18 19zM418 214q0 13 -9 13t-9 -13q0 -12 9 -12t9 12zM447 210q-2 3 -3.5 6.5t-2.5 6.5
h-1q1 -5 1 -16v-12h-8v38h10l8 -14q4 -8 6 -13q0 4 -0.5 7.5t-0.5 8.5v11h8v-38h-9zM480 233h12l11 -38h-9l-3 10h-11l-2 -10h-9zM482 211h8l-2 9q-2 4 -2 7q-1 -2 -1 -3.5t-1 -3.5zM517 233v-30h15v-8h-23v38h8zM557 233v-22q0 -9 7 -9t7 9v22h8v-21q0 -17 -15 -17
q-16 0 -16 17v21h9zM596 202q6 0 6 4t-6 5q-10 3 -10 11q0 12 14 12q4 0 10 -2l-2 -7q-4 2 -8 2q-6 0 -6 -4q0 -2 7 -5q10 -4 10 -11q0 -12 -15 -12q-7 0 -11 2l2 7q4 -2 9 -2zM626 226v-8h13v-7h-13v-9h15v-7h-24v38h23v-7h-14zM656 214q0 8 5.5 14t13.5 6t13 -5.5t5 -13.5
q0 -20 -19 -20q-18 0 -18 19zM684 214q0 13 -9 13t-9 -13q0 -12 9 -12t9 12zM713 210q-2 3 -3.5 6.5t-3.5 6.5v-16v-12h-8v38h10l8 -14q5 -6 6 -13h1q-1 5 -1 16v11h8v-38h-9zM746 233v-30h15v-8h-24v38h9zM769 195v16l-11 22h9l4 -9q1 -3 3 -7q2 4 3 7l4 9h9l-12 -22v-16
h-9zM271 162v-13q0 -6 4 -6t4 6v13h6v-13q0 -11 -10 -11t-10 11v13h6zM295 143q4 0 4 2q0 3 -4 4q-6 1 -6 7q0 7 9 7q2 0 6 -2l-2 -4q-1 1 -5 1q-3 0 -3 -2t4 -3q7 -3 7 -7q0 -8 -10 -8q-3 0 -7 2l1 4q2 -1 6 -1zM314 162h7l7 -23h-6l-2 6h-6l-2 -6h-6zM314 149h6l-2 5
q0 1 -0.5 2t-0.5 2q0 -1 -0.5 -2t-0.5 -2zM343 158q-8 0 -8 -8q0 -7 7 -7h3v5h-4v4h9v-12q-4 -2 -8 -2q-5 0 -9 4q-4 3 -4 8q0 13 14 13q4 0 6 -2l-1 -4q-1 1 -5 1zM360 158v-5h8v-4h-8v-6h9v-4h-15v23h15v-4h-9zM387 162q6 0 7 -1q3 -3 3 -6t-2 -5q-3 -3 -8 -3h-2v-8h-5v23
h7zM387 151q5 0 5 4q0 3 -5 3h-2v-7h2zM406 158v-5h8v-4h-8v-6h9v-4h-15v23h15v-4h-9zM436 156q0 -4 -4 -6q2 -2 3 -5q1 -2 1 -3.5t1 -2.5h-6q-1 0 -1 1v4q-1 4 -4 4h-2v-9h-5v23h7q6 0 8 -1q2 -4 2 -5zM426 152q5 0 5 3t-4 3h-3v-6h2zM446 143q4 0 4 2t-4 4q-7 2 -7 7
q0 7 9 7q4 0 6 -2l-1 -4q-1 1 -5 1q-3 0 -3 -2t4 -3q6 -3 6 -7q0 -8 -9 -8q-5 0 -7 2l1 4q1 -1 6 -1zM458 150q0 13 11 13q5 0 8 -3.5t3 -8.5q0 -13 -11 -13q-5 0 -8 3.5t-3 8.5zM475 151q0 7 -6 7t-6 -8q0 -7 6 -7t6 8zM493 148q-2 2 -4 8h-1q1 -3 1 -10v-7h-5v23h6l5 -8
l2 -4l2 -4q-1 3 -1 9v7h5v-23h-5zM517 148q-2 2 -4 8v-10v-7h-5v23h6l5 -8l2 -4l2 -4v9v7h4v-23h-5zM537 158v-5h9v-4h-9v-6h10v-4h-15v23h15v-4h-10zM556 162v-19h10v-4h-15v23h5zM581 162v-13q0 -6 4 -6q5 0 5 6v13h5v-13q0 -11 -10 -11q-9 0 -9 11v13h5zM609 148
q-2 2 -2.5 4t-2.5 4q0 -2 0.5 -4.5t0.5 -5.5v-7h-5v23h6l5 -8l2 -4l2 -4q-1 3 -1 9v7h5v-23h-5zM624 139v23h5v-23h-5zM655 151q0 -8 -5 -11q2 0 3 -0.5t2 -0.5l-1 -4l-9 3h-2q-10 2 -10 12q0 13 11 13q5 0 8 -3.5t3 -8.5zM644 143q6 0 6 8q0 7 -6 7t-6 -8q0 -7 6 -7z
M664 162v-13q0 -6 4 -6q5 0 5 6v13h5v-13q0 -11 -10 -11q-9 0 -9 11v13h5zM688 158v-5h9v-4h-9v-6h10v-4h-15v23h14v-4h-9zM719 162h7l1 -23h-5l-1 9v9l-3 -9l-2 -9h-5l-2 9q-2 6 -2 9q0 -2 -0.5 -4.5t-0.5 -4.5v-9h-5l1 23h8l2 -8q1 -2 1 -4t1 -4q1 2 1 4t1 4zM736 158v-5
h9v-4h-9v-6h10v-4h-15v23h15v-4h-10zM759 148q-2 2 -4 8h-1q1 -3 1 -10v-7h-5v23h6l5 -8l2 -4l2 -4q0 2 -0.5 4.5t-0.5 4.5v7h5v-23h-5zM779 139v19h-7v4h18v-4h-6v-19h-5zM328 89q9 0 9 -10t-9 -10q-10 0 -10 10t10 10zM328 71q7 0 7 8t-8 8q-7 0 -7 -8t8 -8zM330 75l1 1
l1 -2q-1 0 -2 -0.5t-2 -0.5q-6 0 -6 6t6 6q3 0 4 -1l-1 -1h-3q-4 0 -4 -4t4 -4h2zM356 73v-4h-5v2q-2 -3 -5 -3q-7 0 -7 8q0 9 7 9q3 0 5 -2v8h5v-18zM351 78q-2 3 -3 3q-4 0 -4 -5q0 -4 4 -4q1 0 3 2v2v2zM368 81q-4 0 -4 -5q0 -4 4 -4q2 0 3 1v-4q-1 0 -1.5 -0.5
t-2.5 -0.5q-8 0 -8 8q0 9 9 9q1 0 1.5 -0.5t1.5 -0.5l-1 -4q0 1 -2 1zM381 85q8 0 8 -8q0 -9 -8 -9t-8 8q0 9 8 9zM381 72q3 0 3 4q0 5 -3 5t-3 -5q0 -4 3 -4zM407 73q0 -3 1 -4h-5v2q-2 -3 -5 -3q-7 0 -7 8q0 9 7 9q4 0 4 -2h1v8h4v-18zM403 78h-1q0 3 -2 3q-4 0 -4 -5
q0 -4 4 -4q2 0 2 2q0 1 0.5 1t0.5 1v2zM424 69q-1 0 -2 -0.5t-3 -0.5q-9 0 -9 8q0 3 2 6t6 3q7 0 7 -8v-2h-10q0 -3 5 -3h4v-3zM418 81q-3 0 -3 -3h6q0 3 -3 3zM432 72q3 0 3 1l-3 2q-4 1 -4 4q0 6 6 6q2 0 3 -0.5t2 -0.5l-1 -4q-1 1 -4 1q-2 0 -2 -1t3 -2q4 -1 4 -5
q0 -5 -7 -5q-2 0 -2.5 0.5t-2.5 0.5l1 4q1 -1 4 -1zM445 91q2 0 2 -2q0 -3 -2 -3q-3 0 -3 3q0 2 3 2zM442 84h5v-15h-5v15zM457 66q4 0 4 4v1q-1 -2 -4 -2q-7 0 -7 7q0 9 7 9q3 0 5 -3v2h4v-4v-9q0 -6 -3 -7q-1 -2 -6 -2q-4 0 -6 1l1 4q1 -1 5 -1zM461 78v1q0 2 -3 2t-3 -5
q0 -4 3 -4q1 0 3 2v2v2zM479 85q6 0 6 -7v-9h-5v8q0 4 -3 4q-2 0 -2 -2v-1v-9h-5v10v5h4v-2q3 3 5 3zM496 75h-8v4h8v-4zM509 81h9v-11q-4 -2 -8 -2q-5 0 -8 3q-4 4 -4 8q2 11 13 11q5 0 6 -1l-1 -4q-1 1 -5 1q-7 0 -7 -7t6 -7q2 0 3 1v4h-4v4zM521 69v10v5h4l1 -3q0 4 4 4
l1 -1v-4h-1q-2 0 -4 -2v-2v-7h-5zM547 75h-10q0 -3 4 -3h5v-3q-1 0 -2 -0.5t-3 -0.5q-9 0 -9 8q0 3 2 6t6 3q7 0 7 -8v-2zM543 78q0 3 -3 3t-3 -3h6zM556 66q4 0 4 4v1q-1 -2 -4 -2q-7 0 -7 7q0 9 7 9q3 0 5 -3v2h4v-4v-9q0 -5 -2 -7t-7 -2q-4 0 -5 1l1 4q1 -1 4 -1zM560 78
v1q0 2 -3 2t-3 -5q0 -4 3 -4t3 2v2v2zM584 77q0 -9 -8 -9t-8 8q0 9 8 9t8 -8zM573 76q0 -4 3 -4t3 4q0 5 -3 5t-3 -5zM587 69v10v5h5v-3q1 4 4 4q1 0 1 -1v-4h-1q-2 0 -4 -2v-2v-7h-5zM604 68v1v1l-6 14h6l2 -8l1 -1v-1l1 2l2 8h5l-4 -10q-3 -9 -5 -10q-2 -2 -3 -2t-2 -1
l-1 5h2zM646 90l1 -21h-5v8v9l-3 -9l-2 -8h-4l-2 8q-2 6 -2 9q-1 -2 -1 -4.5v-4.5v-8h-5l2 21h6l2 -7q2 -6 2 -8q1 2 1 4t1 4l3 7h6zM658 85q7 0 7 -8v-2h-10q0 -3 4 -3h4l1 -3q-2 0 -3 -0.5t-3 -0.5q-8 0 -8 8q0 3 1.5 6t6.5 3zM660 78q0 3 -2 3t-2.5 -1t-1.5 -2h6zM683 73
v-4h-4v2h-1q-2 -3 -4 -3q-7 0 -7 8q0 9 7 9q2 0 4 -2v8h5v-18zM678 78q0 3 -3 3t-3 -5q0 -4 3 -4t3 2v2v2zM689 91q3 0 3 -2q0 -3 -3 -3q-2 0 -2 3q0 2 2 2zM687 84h5v-15h-5v15zM705 85q6 0 6 -7v-9h-5v8q0 4 -3 4q-2 0 -2 -2v-1v-9h-5v10v5h4v-2q3 3 5 3zM728 72v-3h-5v1
q-2 -2 -4 -2q-6 0 -6 5q0 6 10 6q0 2 -3 2q-4 0 -5 -1v3q2 2 6 2q7 0 7 -7v-6zM723 76q-5 0 -5 -3q0 -1 2 -1t3 1v1v2zM292 271h-16v71q10 2 22 2q15 0 23 -6q7 -4 7 -15q0 -7 -4 -11.5t-9 -6.5q7 -3 10 -13q2 -7 3 -13t3 -8h-17q-2 4 -5 17q-2 11 -12 12h-5v-29zM292 311h7
q13 0 13 11q0 10 -12 10q-3 0 -4.5 -0.5t-3.5 -0.5v-20zM386 271h-46v72h44v-13h-28v-15h27v-13h-27v-17h30v-14zM410 271h-15l5 72h21l8 -24q2 -6 3 -12.5t3 -13.5q2 7 3.5 13.5t3.5 12.5l7 24h22l4 -72h-16l-1 28q-1 6 -1 13.5v15.5q-3 -12 -8 -28l-9 -28h-13l-7 28
q-2 7 -3.5 14t-3.5 14q-1 -7 -1 -14.5v-14.5zM504 271h-17v72h17v-72zM533 271h-15v72h19l15 -26q3 -6 6 -12.5t6 -12.5q-1 8 -1.5 15t-0.5 15v21h15v-72h-17l-15 28q-3 6 -6.5 12.5t-6.5 12.5q1 -7 1 -14.5v-16.5v-22zM643 280q-10 -10 -33 -10q-6 0 -10.5 0.5t-7.5 0.5v71
q5 1 10 1.5t12 0.5q18 0 29 -8q12 -8 12 -27t-12 -29zM608 283h6q11 0 17.5 6t6.5 19q0 23 -23 23h-7v-48zM712 271h-46v72h45v-13h-29v-15h27v-13h-27v-17h30v-14zM739 271h-16v71q10 2 22 2q15 0 23 -6q7 -4 7 -15q0 -7 -4 -11.5t-9 -6.5q7 -3 10 -13q2 -7 3 -13t3 -8h-17
q-2 4 -5 17q-2 11 -12 12h-5v-29zM739 311h7q13 0 13 11q0 10 -12 10q-3 0 -4.5 -0.5t-3.5 -0.5v-20zM791 249h-527v6h527v-6zM791 173h-527v6h527v-6zM791 119h-527v7h527v-7zM431 51h3l-4 -14h-4l-2 9l-3 -9h-3l-5 14h4l2 -9l3 9h4l2 -9zM452 51h4l-5 -14h-3l-3 9l-2 -9
h-4l-4 14h3l3 -9l3 9h3l3 -9zM474 51h4l-5 -14h-4l-2 9l-2 -9h-4l-5 14h4l3 -9l2 9h4l2 -9zM479 41h4v-4h-4v4zM496 57h4v-20h-4v2q0 -2 -2 -2q-1 0 -2 -1q-1 0 -5 2q-1 2 -1 6t1 6q2 2 5 2q2 0 4 -2v7zM495 41q1 0 1 3t-1 4q-1 0 -1 0.5t-1 0.5t-1.5 -0.5t-1.5 -0.5
q0 -1 -0.5 -1.5t-0.5 -2.5q0 -1 0.5 -1.5t0.5 -1.5q2 -2 3 -2zM511 40q1 1 1 2h4q0 -2 -2 -4t-4 -2t-6 2q-1 2 -1 6t1 6q4 2 6 2t4 -2q2 0 2 -3l-4 -1q0 2 -1 2l-1 1q-1 0 -1.5 -0.5t-1.5 -0.5v-4v-3q1 -1 3 -1h1zM525 52q3 0 6 -3q2 -2 2 -5t-2 -5q-3 -3 -6 -3
q-1 0 -1.5 0.5t-1.5 0.5q-2 1 -2 1.5t-1 1.5t-1 4t1 4t1 1.5t2 1.5q1 0 1.5 0.5t1.5 0.5zM528 41q1 0 1 3t-1 3q-1 1 -3 1q-1 0 -2 -1q-1 0 -1 -3t1 -3q1 -1 2 -1q2 0 3 1zM544 44l5 -7h-5l-3 4l-2 -4h-5l5 7l-5 7h5l2 -4l3 4h5zM560 51h4l-5 -14l-1 -2q0 -2 -1 -2
q0 -1 -1 -1l-1 -1h-2h-2l-1 3h2q2 0 2 1l1 2l-5 14h4l3 -10zM565 41h4v-4h-4v4zM581 40q0 1 1 2h3q0 -2 -2 -4t-4 -2q-3 0 -5 2t-2 6t2 6t5 2q2 0 4 -2q2 0 2 -3l-4 -1q0 2 -1 2l-1 1q-1 0 -1.5 -0.5t-1.5 -0.5v-4v-3q1 -1 3 -1h2zM595 52q2 0 5 -3q2 -2 2 -5t-2 -5
q-3 -3 -5 -3t-2.5 0.5t-1.5 0.5l-3 3q-1 1 -1 4t1 4l3 3q1 0 1.5 0.5t2.5 0.5zM597 41q1 0 1 3t-1 3q-1 1 -2 1q-2 0 -3 -1q-1 0 -1 -3t1 -3q1 -1 3 -1q1 0 2 1zM624 51q1 -1 1 -2q1 -1 1 -3v-9h-4v8v3q-1 0 -1 0.5t-1 0.5t-1 -1q-1 0 -1 -1q-1 -1 -1 -3v-7h-4v8v2v1
q-1 1 -2 1l-1 -1q-1 0 -1 -1t-0.5 -1.5t-0.5 -1.5v-7h-3v14h3v-2q1 3 5 3q1 0 1 -0.5t1 -0.5l2 -2q0 2 2 2q1 0 1 0.5t1 0.5t1.5 -0.5t1.5 -0.5z" />
    <glyph glyph-name="four" unicode="4" 
d="M435 558q0 7 3 12t9 5q7 0 10 -5t3 -11q0 -7 -3.5 -12t-9.5 -5t-9 5t-3 11zM625 574h6q16 0 16 -15q0 -16 -17 -16h-5v31zM580 548q0 3 5 6q6 -8 8 -10q-2 -2 -6 -2q-7 0 -7 6zM834 611v-611h-616v611h616zM393 586h414v6h-414v-6zM772 572q2 -3 3.5 -6.5t3.5 -6.5
l13 -20h5v39h-5v-16q0 -11 1 -16q-4 8 -7 12l-13 20h-5v-39h4v17v16zM748 543q-15 0 -15 16q0 15 16 15q6 0 8 -1l2 4q-4 2 -10 2q-10 0 -15.5 -6t-5.5 -15t5 -14t15 -5q8 0 12 2v19h-13v-5h8v-11q-1 -1 -7 -1zM716 578v-39h5v39h-5zM697 557q7 -3 7 -8q0 -6 -8 -6
q-5 0 -9 2l-2 -4q4 -3 10 -3q8 0 11 3.5t3 8.5q0 8 -10 11q-8 3 -8 8q0 2 1.5 4t6.5 2t7 -2l2 4q-4 2 -9 2q-13 0 -13 -11q0 -8 11 -11zM664 562v12h16v4h-21v-39h22v4h-17v14h15v5h-15zM652 559q0 8 -5 15q-5 4 -16 4h-11v-39h9q11 0 18 5q5 7 5 15zM580 563q0 -3 3 -6v-1
q-6 -3 -6 -9q0 -3 2 -6t7 -3t9 4q2 -1 2 -1.5t1 -1.5h5q-2 2 -2.5 3t-2.5 3q4 4 4 11h-3l-3 -9q-2 2 -4 4.5t-4 4.5q7 3 7 8q0 7 -7 7q-8 0 -8 -8zM548 557q7 -3 7 -8q0 -6 -8 -6q-5 0 -9 2l-1 -4q3 -3 10 -3t10 3.5t3 8.5q0 8 -10 11q-8 3 -8 8q0 2 1.5 4t6.5 2t7 -2l2 4
q-4 2 -9 2q-13 0 -13 -11q0 -8 11 -11zM517 574v-35h6v35h11v4h-29v-4h12zM476 572q3 -7 8 -13l12 -20h5v39h-5v-16q0 -11 1 -16q-4 8 -7 12l-13 20h-5v-39h4v17v16zM465 559q0 20 -18 20q-8 0 -13 -5.5t-5 -15.5q0 -20 18 -20q8 0 13 5.5t5 15.5zM408 561v13h16v4h-21v-39
h5v18h15v4h-15zM393 525h414v6h-414v-6zM796 445q0 32 -18 50q-18 19 -46 19q-31 0 -48 -20q-17 -18 -17 -50q0 -33 18 -51q18 -19 46 -19q29 0 47 19t18 52zM578 412q-6 9 -6 31q0 42 21 42q8 0 14 -7q5 -7 5 -19l37 2q-2 24 -16 38q-14 15 -41 15q-28 0 -45 -20
q-16 -19 -16 -51t17 -51q16 -18 44 -18q25 0 39 13q15 14 18 37l-36 2q-3 -22 -20 -22q-10 0 -15 8zM515 445q0 25 -17 47q-17 20 -51 20h-53v-136h55q29 0 48 19q18 19 18 50zM266 519q-11 -2 -17 -15t-3 -30t12.5 -27.5t20.5 -8.5v-8v-1q0 -17 8 -28q12 -17 36 -21
q11 -3 25 -4t29 -1v6q-11 0 -22 0.5t-20 1.5q-10 2 -14 3q-6 2 -10 4q-12 4 -19 14q-5 7 -7 19q7 -13 21 -19q3 -2 9 -4q13 -4 29 -5.5t33 -1.5v9q-17 0 -32.5 1t-27.5 5q-11 4 -18 9q-11 8 -14 18v5q3 9 6 15q10 13 33 18q4 1 14 3l2 2q1 0 2 1h1q1 1 4 1l2 1h1q1 -1 3 -1
l6 -3h1l3 3q3 3 5 3q6 2 8 2h1v108q-24 -1 -39.5 -8t-25.5 -19t-14.5 -27.5t-6.5 -32.5q-10 15 -25 13zM376 455q-12 0 -17 8q-4 -4 -10 -4q-11 0 -13 9v-2q0 -10 13 -10q7 0 10 4q5 -9 17 -9h1v4h-1zM808 362h-563v-339h563v339zM591 564q0 -3 -5 -6q-2 4 -2 6q0 4 4 4
q3 0 3 -4zM447 483q13 0 19 -12q7 -12 7 -26q0 -18 -8 -29q-7 -10 -18 -10h-13v77h13zM710 443q0 42 22 42q20 0 20 -37q0 -28 -5 -35q-4 -10 -16 -10q-21 0 -21 40zM276 446q-7 -2 -13 5t-8 12q-6 14 -4 27t11 17q9 5 15.5 0.5t11.5 -11.5q2 -2 -1 -17q-4 1 -8 -1
q4 -1 4.5 -2t2.5 -2q-4 0 -7 -0.5t-7 -1.5q6 -2 10 -6h-4.5t-4.5 -2q5 -2 6.5 -3.5l2.5 -2.5q-3 -10 -7 -12zM339 489q-12 1 -17.5 8t-4.5 8q31 17 40 1q1 -2 -3 -9.5t-14 -7.5h-1zM278 233q7 0 12 -3q4 -2 4 -8t-4 -9q-4 -4 -12 -4h-3v-14h-8v38h11zM278 215q7 0 7 6t-6 6
h-4v-11q1 -1 3 -1zM308 226v-8h14v-7h-14v-9h15v-7h-24v38h24v-7h-15zM356 223q0 -8 -6 -10q4 -2 5 -7q1 -3 1.5 -6t1.5 -5h-9q-1 2 -1 4t-2 5q-1 6 -6 6h-2v-15h-9v38h12q9 0 12 -2q3 -3 3 -8zM341 216q7 0 7 6q0 5 -6 5h-4v-11h3zM372 202q6 0 6 4q0 3 -6 5q-11 4 -11 11
q0 12 15 12q5 0 9 -2l-1 -7q-4 2 -8 2q-6 0 -6 -4q0 -2 7 -5q10 -4 10 -11q0 -12 -15 -12q-7 0 -11 2l2 7q4 -2 9 -2zM391 214q0 8 5 14t13 6q9 0 13.5 -5.5t4.5 -13.5q0 -20 -18 -20t-18 19zM418 214q0 13 -9 13t-9 -13q0 -12 9 -12t9 12zM447 210q-2 3 -3.5 6.5t-2.5 6.5
h-1q1 -5 1 -16v-12h-8v38h10l8 -14q4 -8 6 -13q0 4 -0.5 7.5t-0.5 8.5v11h8v-38h-9zM480 233h12l11 -38h-9l-3 10h-11l-2 -10h-9zM482 211h8l-2 9q-2 4 -2 7q-1 -2 -1 -3.5t-1 -3.5zM517 233v-30h15v-8h-23v38h8zM557 233v-22q0 -9 7 -9t7 9v22h8v-21q0 -17 -15 -17
q-16 0 -16 17v21h9zM596 202q6 0 6 4t-6 5q-10 3 -10 11q0 12 14 12q4 0 10 -2l-2 -7q-4 2 -8 2q-6 0 -6 -4q0 -2 7 -5q10 -4 10 -11q0 -12 -15 -12q-7 0 -11 2l2 7q4 -2 9 -2zM626 226v-8h13v-7h-13v-9h15v-7h-24v38h23v-7h-14zM656 214q0 8 5.5 14t13.5 6t13 -5.5t5 -13.5
q0 -20 -19 -20q-18 0 -18 19zM684 214q0 13 -9 13t-9 -13q0 -12 9 -12t9 12zM713 210q-2 3 -3.5 6.5t-3.5 6.5v-16v-12h-8v38h10l8 -14q5 -6 6 -13h1q-1 5 -1 16v11h8v-38h-9zM746 233v-30h15v-8h-24v38h9zM769 195v16l-11 22h9l4 -9q1 -3 3 -7q2 4 3 7l4 9h9l-12 -22v-16
h-9zM271 162v-13q0 -6 4 -6t4 6v13h6v-13q0 -11 -10 -11t-10 11v13h6zM295 143q4 0 4 2q0 3 -4 4q-6 1 -6 7q0 7 9 7q2 0 6 -2l-2 -4q-1 1 -5 1q-3 0 -3 -2t4 -3q7 -3 7 -7q0 -8 -10 -8q-3 0 -7 2l1 4q2 -1 6 -1zM314 162h7l7 -23h-6l-2 6h-6l-2 -6h-6zM314 149h6l-2 5
q0 1 -0.5 2t-0.5 2q0 -1 -0.5 -2t-0.5 -2zM343 158q-8 0 -8 -8q0 -7 7 -7h3v5h-4v4h9v-12q-4 -2 -8 -2q-5 0 -9 4q-4 3 -4 8q0 13 14 13q4 0 6 -2l-1 -4q-1 1 -5 1zM360 158v-5h8v-4h-8v-6h9v-4h-15v23h15v-4h-9zM387 162q6 0 7 -1q3 -3 3 -6t-2 -5q-3 -3 -8 -3h-2v-8h-5v23
h7zM387 151q5 0 5 4q0 3 -5 3h-2v-7h2zM406 158v-5h8v-4h-8v-6h9v-4h-15v23h15v-4h-9zM436 156q0 -4 -4 -6q2 -2 3 -5q1 -2 1 -3.5t1 -2.5h-6q-1 0 -1 1v4q-1 4 -4 4h-2v-9h-5v23h7q6 0 8 -1q2 -4 2 -5zM426 152q5 0 5 3t-4 3h-3v-6h2zM446 143q4 0 4 2t-4 4q-7 2 -7 7
q0 7 9 7q4 0 6 -2l-1 -4q-1 1 -5 1q-3 0 -3 -2t4 -3q6 -3 6 -7q0 -8 -9 -8q-5 0 -7 2l1 4q1 -1 6 -1zM458 150q0 13 11 13q5 0 8 -3.5t3 -8.5q0 -13 -11 -13q-5 0 -8 3.5t-3 8.5zM475 151q0 7 -6 7t-6 -8q0 -7 6 -7t6 8zM493 148q-2 2 -4 8h-1q1 -3 1 -10v-7h-5v23h6l5 -8
l2 -4l2 -4q-1 3 -1 9v7h5v-23h-5zM517 148q-2 2 -4 8v-10v-7h-5v23h6l5 -8l2 -4l2 -4v9v7h4v-23h-5zM537 158v-5h9v-4h-9v-6h10v-4h-15v23h15v-4h-10zM556 162v-19h10v-4h-15v23h5zM581 162v-13q0 -6 4 -6q5 0 5 6v13h5v-13q0 -11 -10 -11q-9 0 -9 11v13h5zM609 148
q-2 2 -2.5 4t-2.5 4q0 -2 0.5 -4.5t0.5 -5.5v-7h-5v23h6l5 -8l2 -4l2 -4q-1 3 -1 9v7h5v-23h-5zM624 139v23h5v-23h-5zM655 151q0 -8 -5 -11q2 0 3 -0.5t2 -0.5l-1 -4l-9 3h-2q-10 2 -10 12q0 13 11 13q5 0 8 -3.5t3 -8.5zM644 143q6 0 6 8q0 7 -6 7t-6 -8q0 -7 6 -7z
M664 162v-13q0 -6 4 -6q5 0 5 6v13h5v-13q0 -11 -10 -11q-9 0 -9 11v13h5zM688 158v-5h9v-4h-9v-6h10v-4h-15v23h14v-4h-9zM719 162h7l1 -23h-5l-1 9v9l-3 -9l-2 -9h-5l-2 9q-2 6 -2 9q0 -2 -0.5 -4.5t-0.5 -4.5v-9h-5l1 23h8l2 -8q1 -2 1 -4t1 -4q1 2 1 4t1 4zM736 158v-5
h9v-4h-9v-6h10v-4h-15v23h15v-4h-10zM759 148q-2 2 -4 8h-1q1 -3 1 -10v-7h-5v23h6l5 -8l2 -4l2 -4q0 2 -0.5 4.5t-0.5 4.5v7h5v-23h-5zM779 139v19h-7v4h18v-4h-6v-19h-5zM328 89q9 0 9 -10t-9 -10q-10 0 -10 10t10 10zM328 71q7 0 7 8t-8 8q-7 0 -7 -8t8 -8zM330 75l1 1
l1 -2q-1 0 -2 -0.5t-2 -0.5q-6 0 -6 6t6 6q3 0 4 -1l-1 -1h-3q-4 0 -4 -4t4 -4h2zM356 73v-4h-5v2q-2 -3 -5 -3q-7 0 -7 8q0 9 7 9q3 0 5 -2v8h5v-18zM351 78q-2 3 -3 3q-4 0 -4 -5q0 -4 4 -4q1 0 3 2v2v2zM368 81q-4 0 -4 -5q0 -4 4 -4q2 0 3 1v-4q-1 0 -1.5 -0.5
t-2.5 -0.5q-8 0 -8 8q0 9 9 9q1 0 1.5 -0.5t1.5 -0.5l-1 -4q0 1 -2 1zM381 85q8 0 8 -8q0 -9 -8 -9t-8 8q0 9 8 9zM381 72q3 0 3 4q0 5 -3 5t-3 -5q0 -4 3 -4zM407 73q0 -3 1 -4h-5v2q-2 -3 -5 -3q-7 0 -7 8q0 9 7 9q4 0 4 -2h1v8h4v-18zM403 78h-1q0 3 -2 3q-4 0 -4 -5
q0 -4 4 -4q2 0 2 2q0 1 0.5 1t0.5 1v2zM424 69q-1 0 -2 -0.5t-3 -0.5q-9 0 -9 8q0 3 2 6t6 3q7 0 7 -8v-2h-10q0 -3 5 -3h4v-3zM418 81q-3 0 -3 -3h6q0 3 -3 3zM432 72q3 0 3 1l-3 2q-4 1 -4 4q0 6 6 6q2 0 3 -0.5t2 -0.5l-1 -4q-1 1 -4 1q-2 0 -2 -1t3 -2q4 -1 4 -5
q0 -5 -7 -5q-2 0 -2.5 0.5t-2.5 0.5l1 4q1 -1 4 -1zM445 91q2 0 2 -2q0 -3 -2 -3q-3 0 -3 3q0 2 3 2zM442 84h5v-15h-5v15zM457 66q4 0 4 4v1q-1 -2 -4 -2q-7 0 -7 7q0 9 7 9q3 0 5 -3v2h4v-4v-9q0 -6 -3 -7q-1 -2 -6 -2q-4 0 -6 1l1 4q1 -1 5 -1zM461 78v1q0 2 -3 2t-3 -5
q0 -4 3 -4q1 0 3 2v2v2zM479 85q6 0 6 -7v-9h-5v8q0 4 -3 4q-2 0 -2 -2v-1v-9h-5v10v5h4v-2q3 3 5 3zM496 75h-8v4h8v-4zM509 81h9v-11q-4 -2 -8 -2q-5 0 -8 3q-4 4 -4 8q2 11 13 11q5 0 6 -1l-1 -4q-1 1 -5 1q-7 0 -7 -7t6 -7q2 0 3 1v4h-4v4zM521 69v10v5h4l1 -3q0 4 4 4
l1 -1v-4h-1q-2 0 -4 -2v-2v-7h-5zM547 75h-10q0 -3 4 -3h5v-3q-1 0 -2 -0.5t-3 -0.5q-9 0 -9 8q0 3 2 6t6 3q7 0 7 -8v-2zM543 78q0 3 -3 3t-3 -3h6zM556 66q4 0 4 4v1q-1 -2 -4 -2q-7 0 -7 7q0 9 7 9q3 0 5 -3v2h4v-4v-9q0 -5 -2 -7t-7 -2q-4 0 -5 1l1 4q1 -1 4 -1zM560 78
v1q0 2 -3 2t-3 -5q0 -4 3 -4t3 2v2v2zM584 77q0 -9 -8 -9t-8 8q0 9 8 9t8 -8zM573 76q0 -4 3 -4t3 4q0 5 -3 5t-3 -5zM587 69v10v5h5v-3q1 4 4 4q1 0 1 -1v-4h-1q-2 0 -4 -2v-2v-7h-5zM604 68v1v1l-6 14h6l2 -8l1 -1v-1l1 2l2 8h5l-4 -10q-3 -9 -5 -10q-2 -2 -3 -2t-2 -1
l-1 5h2zM646 90l1 -21h-5v8v9l-3 -9l-2 -8h-4l-2 8q-2 6 -2 9q-1 -2 -1 -4.5v-4.5v-8h-5l2 21h6l2 -7q2 -6 2 -8q1 2 1 4t1 4l3 7h6zM658 85q7 0 7 -8v-2h-10q0 -3 4 -3h4l1 -3q-2 0 -3 -0.5t-3 -0.5q-8 0 -8 8q0 3 1.5 6t6.5 3zM660 78q0 3 -2 3t-2.5 -1t-1.5 -2h6zM683 73
v-4h-4v2h-1q-2 -3 -4 -3q-7 0 -7 8q0 9 7 9q2 0 4 -2v8h5v-18zM678 78q0 3 -3 3t-3 -5q0 -4 3 -4t3 2v2v2zM689 91q3 0 3 -2q0 -3 -3 -3q-2 0 -2 3q0 2 2 2zM687 84h5v-15h-5v15zM705 85q6 0 6 -7v-9h-5v8q0 4 -3 4q-2 0 -2 -2v-1v-9h-5v10v5h4v-2q3 3 5 3zM728 72v-3h-5v1
q-2 -2 -4 -2q-6 0 -6 5q0 6 10 6q0 2 -3 2q-4 0 -5 -1v3q2 2 6 2q7 0 7 -7v-6zM723 76q-5 0 -5 -3q0 -1 2 -1t3 1v1v2zM292 271h-16v71q10 2 22 2q15 0 23 -6q7 -4 7 -15q0 -7 -4 -11.5t-9 -6.5q7 -3 10 -13q2 -7 3 -13t3 -8h-17q-2 4 -5 17q-2 11 -12 12h-5v-29zM292 311h7
q13 0 13 11q0 10 -12 10q-3 0 -4.5 -0.5t-3.5 -0.5v-20zM386 271h-46v72h44v-13h-28v-15h27v-13h-27v-17h30v-14zM410 271h-15l5 72h21l8 -24q2 -6 3 -12.5t3 -13.5q2 7 3.5 13.5t3.5 12.5l7 24h22l4 -72h-16l-1 28q-1 6 -1 13.5v15.5q-3 -12 -8 -28l-9 -28h-13l-7 28
q-2 7 -3.5 14t-3.5 14q-1 -7 -1 -14.5v-14.5zM504 271h-17v72h17v-72zM533 271h-15v72h19l15 -26q3 -6 6 -12.5t6 -12.5q-1 8 -1.5 15t-0.5 15v21h15v-72h-17l-15 28q-3 6 -6.5 12.5t-6.5 12.5q1 -7 1 -14.5v-16.5v-22zM643 280q-10 -10 -33 -10q-6 0 -10.5 0.5t-7.5 0.5v71
q5 1 10 1.5t12 0.5q18 0 29 -8q12 -8 12 -27t-12 -29zM608 283h6q11 0 17.5 6t6.5 19q0 23 -23 23h-7v-48zM712 271h-46v72h45v-13h-29v-15h27v-13h-27v-17h30v-14zM739 271h-16v71q10 2 22 2q15 0 23 -6q7 -4 7 -15q0 -7 -4 -11.5t-9 -6.5q7 -3 10 -13q2 -7 3 -13t3 -8h-17
q-2 4 -5 17q-2 11 -12 12h-5v-29zM739 311h7q13 0 13 11q0 10 -12 10q-3 0 -4.5 -0.5t-3.5 -0.5v-20zM791 249h-527v6h527v-6zM791 173h-527v6h527v-6zM791 119h-527v7h527v-7zM431 51h3l-4 -14h-4l-2 9l-3 -9h-3l-5 14h4l2 -9l3 9h4l2 -9zM452 51h4l-5 -14h-3l-3 9l-2 -9
h-4l-4 14h3l3 -9l3 9h3l3 -9zM474 51h4l-5 -14h-4l-2 9l-2 -9h-4l-5 14h4l3 -9l2 9h4l2 -9zM479 41h4v-4h-4v4zM496 57h4v-20h-4v2q0 -2 -2 -2q-1 0 -2 -1q-1 0 -5 2q-1 2 -1 6t1 6q2 2 5 2q2 0 4 -2v7zM495 41q1 0 1 3t-1 4q-1 0 -1 0.5t-1 0.5t-1.5 -0.5t-1.5 -0.5
q0 -1 -0.5 -1.5t-0.5 -2.5q0 -1 0.5 -1.5t0.5 -1.5q2 -2 3 -2zM511 40q1 1 1 2h4q0 -2 -2 -4t-4 -2t-6 2q-1 2 -1 6t1 6q4 2 6 2t4 -2q2 0 2 -3l-4 -1q0 2 -1 2l-1 1q-1 0 -1.5 -0.5t-1.5 -0.5v-4v-3q1 -1 3 -1h1zM525 52q3 0 6 -3q2 -2 2 -5t-2 -5q-3 -3 -6 -3
q-1 0 -1.5 0.5t-1.5 0.5q-2 1 -2 1.5t-1 1.5t-1 4t1 4t1 1.5t2 1.5q1 0 1.5 0.5t1.5 0.5zM528 41q1 0 1 3t-1 3q-1 1 -3 1q-1 0 -2 -1q-1 0 -1 -3t1 -3q1 -1 2 -1q2 0 3 1zM544 44l5 -7h-5l-3 4l-2 -4h-5l5 7l-5 7h5l2 -4l3 4h5zM560 51h4l-5 -14l-1 -2q0 -2 -1 -2
q0 -1 -1 -1l-1 -1h-2h-2l-1 3h2q2 0 2 1l1 2l-5 14h4l3 -10zM565 41h4v-4h-4v4zM581 40q0 1 1 2h3q0 -2 -2 -4t-4 -2q-3 0 -5 2t-2 6t2 6t5 2q2 0 4 -2q2 0 2 -3l-4 -1q0 2 -1 2l-1 1q-1 0 -1.5 -0.5t-1.5 -0.5v-4v-3q1 -1 3 -1h2zM595 52q2 0 5 -3q2 -2 2 -5t-2 -5
q-3 -3 -5 -3t-2.5 0.5t-1.5 0.5l-3 3q-1 1 -1 4t1 4l3 3q1 0 1.5 0.5t2.5 0.5zM597 41q1 0 1 3t-1 3q-1 1 -2 1q-2 0 -3 -1q-1 0 -1 -3t1 -3q1 -1 3 -1q1 0 2 1zM624 51q1 -1 1 -2q1 -1 1 -3v-9h-4v8v3q-1 0 -1 0.5t-1 0.5t-1 -1q-1 0 -1 -1q-1 -1 -1 -3v-7h-4v8v2v1
q-1 1 -2 1l-1 -1q-1 0 -1 -1t-0.5 -1.5t-0.5 -1.5v-7h-3v14h3v-2q1 3 5 3q1 0 1 -0.5t1 -0.5l2 -2q0 2 2 2q1 0 1 0.5t1 0.5t1.5 -0.5t1.5 -0.5z" />
    <glyph glyph-name="five" unicode="5" 
d="M435 558q0 7 3 12t9 5q7 0 10 -5t3 -11q0 -7 -3.5 -12t-9.5 -5t-9 5t-3 11zM625 574h6q16 0 16 -15q0 -16 -17 -16h-5v31zM580 548q0 3 5 6q6 -8 8 -10q-2 -2 -6 -2q-7 0 -7 6zM834 611v-611h-616v611h616zM393 586h414v6h-414v-6zM772 572q2 -3 3.5 -6.5t3.5 -6.5
l13 -20h5v39h-5v-16q0 -11 1 -16q-4 8 -7 12l-13 20h-5v-39h4v17v16zM748 543q-15 0 -15 16q0 15 16 15q6 0 8 -1l2 4q-4 2 -10 2q-10 0 -15.5 -6t-5.5 -15t5 -14t15 -5q8 0 12 2v19h-13v-5h8v-11q-1 -1 -7 -1zM716 578v-39h5v39h-5zM697 557q7 -3 7 -8q0 -6 -8 -6
q-5 0 -9 2l-2 -4q4 -3 10 -3q8 0 11 3.5t3 8.5q0 8 -10 11q-8 3 -8 8q0 2 1.5 4t6.5 2t7 -2l2 4q-4 2 -9 2q-13 0 -13 -11q0 -8 11 -11zM664 562v12h16v4h-21v-39h22v4h-17v14h15v5h-15zM652 559q0 8 -5 15q-5 4 -16 4h-11v-39h9q11 0 18 5q5 7 5 15zM580 563q0 -3 3 -6v-1
q-6 -3 -6 -9q0 -3 2 -6t7 -3t9 4q2 -1 2 -1.5t1 -1.5h5q-2 2 -2.5 3t-2.5 3q4 4 4 11h-3l-3 -9q-2 2 -4 4.5t-4 4.5q7 3 7 8q0 7 -7 7q-8 0 -8 -8zM548 557q7 -3 7 -8q0 -6 -8 -6q-5 0 -9 2l-1 -4q3 -3 10 -3t10 3.5t3 8.5q0 8 -10 11q-8 3 -8 8q0 2 1.5 4t6.5 2t7 -2l2 4
q-4 2 -9 2q-13 0 -13 -11q0 -8 11 -11zM517 574v-35h6v35h11v4h-29v-4h12zM476 572q3 -7 8 -13l12 -20h5v39h-5v-16q0 -11 1 -16q-4 8 -7 12l-13 20h-5v-39h4v17v16zM465 559q0 20 -18 20q-8 0 -13 -5.5t-5 -15.5q0 -20 18 -20q8 0 13 5.5t5 15.5zM408 561v13h16v4h-21v-39
h5v18h15v4h-15zM393 525h414v6h-414v-6zM796 445q0 32 -18 50q-18 19 -46 19q-31 0 -48 -20q-17 -18 -17 -50q0 -33 18 -51q18 -19 46 -19q29 0 47 19t18 52zM578 412q-6 9 -6 31q0 42 21 42q8 0 14 -7q5 -7 5 -19l37 2q-2 24 -16 38q-14 15 -41 15q-28 0 -45 -20
q-16 -19 -16 -51t17 -51q16 -18 44 -18q25 0 39 13q15 14 18 37l-36 2q-3 -22 -20 -22q-10 0 -15 8zM515 445q0 25 -17 47q-17 20 -51 20h-53v-136h55q29 0 48 19q18 19 18 50zM266 519q-11 -2 -17 -15t-3 -30t12.5 -27.5t20.5 -8.5v-8v-1q0 -17 8 -28q12 -17 36 -21
q11 -3 25 -4t29 -1v6q-11 0 -22 0.5t-20 1.5q-10 2 -14 3q-6 2 -10 4q-12 4 -19 14q-5 7 -7 19q7 -13 21 -19q3 -2 9 -4q13 -4 29 -5.5t33 -1.5v9q-17 0 -32.5 1t-27.5 5q-11 4 -18 9q-11 8 -14 18v5q3 9 6 15q10 13 33 18q4 1 14 3l2 2q1 0 2 1h1q1 1 4 1l2 1h1q1 -1 3 -1
l6 -3h1l3 3q3 3 5 3q6 2 8 2h1v108q-24 -1 -39.5 -8t-25.5 -19t-14.5 -27.5t-6.5 -32.5q-10 15 -25 13zM376 455q-12 0 -17 8q-4 -4 -10 -4q-11 0 -13 9v-2q0 -10 13 -10q7 0 10 4q5 -9 17 -9h1v4h-1zM808 362h-563v-339h563v339zM591 564q0 -3 -5 -6q-2 4 -2 6q0 4 4 4
q3 0 3 -4zM447 483q13 0 19 -12q7 -12 7 -26q0 -18 -8 -29q-7 -10 -18 -10h-13v77h13zM710 443q0 42 22 42q20 0 20 -37q0 -28 -5 -35q-4 -10 -16 -10q-21 0 -21 40zM276 446q-7 -2 -13 5t-8 12q-6 14 -4 27t11 17q9 5 15.5 0.5t11.5 -11.5q2 -2 -1 -17q-4 1 -8 -1
q4 -1 4.5 -2t2.5 -2q-4 0 -7 -0.5t-7 -1.5q6 -2 10 -6h-4.5t-4.5 -2q5 -2 6.5 -3.5l2.5 -2.5q-3 -10 -7 -12zM339 489q-12 1 -17.5 8t-4.5 8q31 17 40 1q1 -2 -3 -9.5t-14 -7.5h-1zM278 233q7 0 12 -3q4 -2 4 -8t-4 -9q-4 -4 -12 -4h-3v-14h-8v38h11zM278 215q7 0 7 6t-6 6
h-4v-11q1 -1 3 -1zM308 226v-8h14v-7h-14v-9h15v-7h-24v38h24v-7h-15zM356 223q0 -8 -6 -10q4 -2 5 -7q1 -3 1.5 -6t1.5 -5h-9q-1 2 -1 4t-2 5q-1 6 -6 6h-2v-15h-9v38h12q9 0 12 -2q3 -3 3 -8zM341 216q7 0 7 6q0 5 -6 5h-4v-11h3zM372 202q6 0 6 4q0 3 -6 5q-11 4 -11 11
q0 12 15 12q5 0 9 -2l-1 -7q-4 2 -8 2q-6 0 -6 -4q0 -2 7 -5q10 -4 10 -11q0 -12 -15 -12q-7 0 -11 2l2 7q4 -2 9 -2zM391 214q0 8 5 14t13 6q9 0 13.5 -5.5t4.5 -13.5q0 -20 -18 -20t-18 19zM418 214q0 13 -9 13t-9 -13q0 -12 9 -12t9 12zM447 210q-2 3 -3.5 6.5t-2.5 6.5
h-1q1 -5 1 -16v-12h-8v38h10l8 -14q4 -8 6 -13q0 4 -0.5 7.5t-0.5 8.5v11h8v-38h-9zM480 233h12l11 -38h-9l-3 10h-11l-2 -10h-9zM482 211h8l-2 9q-2 4 -2 7q-1 -2 -1 -3.5t-1 -3.5zM517 233v-30h15v-8h-23v38h8zM557 233v-22q0 -9 7 -9t7 9v22h8v-21q0 -17 -15 -17
q-16 0 -16 17v21h9zM596 202q6 0 6 4t-6 5q-10 3 -10 11q0 12 14 12q4 0 10 -2l-2 -7q-4 2 -8 2q-6 0 -6 -4q0 -2 7 -5q10 -4 10 -11q0 -12 -15 -12q-7 0 -11 2l2 7q4 -2 9 -2zM626 226v-8h13v-7h-13v-9h15v-7h-24v38h23v-7h-14zM656 214q0 8 5.5 14t13.5 6t13 -5.5t5 -13.5
q0 -20 -19 -20q-18 0 -18 19zM684 214q0 13 -9 13t-9 -13q0 -12 9 -12t9 12zM713 210q-2 3 -3.5 6.5t-3.5 6.5v-16v-12h-8v38h10l8 -14q5 -6 6 -13h1q-1 5 -1 16v11h8v-38h-9zM746 233v-30h15v-8h-24v38h9zM769 195v16l-11 22h9l4 -9q1 -3 3 -7q2 4 3 7l4 9h9l-12 -22v-16
h-9zM271 162v-13q0 -6 4 -6t4 6v13h6v-13q0 -11 -10 -11t-10 11v13h6zM295 143q4 0 4 2q0 3 -4 4q-6 1 -6 7q0 7 9 7q2 0 6 -2l-2 -4q-1 1 -5 1q-3 0 -3 -2t4 -3q7 -3 7 -7q0 -8 -10 -8q-3 0 -7 2l1 4q2 -1 6 -1zM314 162h7l7 -23h-6l-2 6h-6l-2 -6h-6zM314 149h6l-2 5
q0 1 -0.5 2t-0.5 2q0 -1 -0.5 -2t-0.5 -2zM343 158q-8 0 -8 -8q0 -7 7 -7h3v5h-4v4h9v-12q-4 -2 -8 -2q-5 0 -9 4q-4 3 -4 8q0 13 14 13q4 0 6 -2l-1 -4q-1 1 -5 1zM360 158v-5h8v-4h-8v-6h9v-4h-15v23h15v-4h-9zM387 162q6 0 7 -1q3 -3 3 -6t-2 -5q-3 -3 -8 -3h-2v-8h-5v23
h7zM387 151q5 0 5 4q0 3 -5 3h-2v-7h2zM406 158v-5h8v-4h-8v-6h9v-4h-15v23h15v-4h-9zM436 156q0 -4 -4 -6q2 -2 3 -5q1 -2 1 -3.5t1 -2.5h-6q-1 0 -1 1v4q-1 4 -4 4h-2v-9h-5v23h7q6 0 8 -1q2 -4 2 -5zM426 152q5 0 5 3t-4 3h-3v-6h2zM446 143q4 0 4 2t-4 4q-7 2 -7 7
q0 7 9 7q4 0 6 -2l-1 -4q-1 1 -5 1q-3 0 -3 -2t4 -3q6 -3 6 -7q0 -8 -9 -8q-5 0 -7 2l1 4q1 -1 6 -1zM458 150q0 13 11 13q5 0 8 -3.5t3 -8.5q0 -13 -11 -13q-5 0 -8 3.5t-3 8.5zM475 151q0 7 -6 7t-6 -8q0 -7 6 -7t6 8zM493 148q-2 2 -4 8h-1q1 -3 1 -10v-7h-5v23h6l5 -8
l2 -4l2 -4q-1 3 -1 9v7h5v-23h-5zM517 148q-2 2 -4 8v-10v-7h-5v23h6l5 -8l2 -4l2 -4v9v7h4v-23h-5zM537 158v-5h9v-4h-9v-6h10v-4h-15v23h15v-4h-10zM556 162v-19h10v-4h-15v23h5zM581 162v-13q0 -6 4 -6q5 0 5 6v13h5v-13q0 -11 -10 -11q-9 0 -9 11v13h5zM609 148
q-2 2 -2.5 4t-2.5 4q0 -2 0.5 -4.5t0.5 -5.5v-7h-5v23h6l5 -8l2 -4l2 -4q-1 3 -1 9v7h5v-23h-5zM624 139v23h5v-23h-5zM655 151q0 -8 -5 -11q2 0 3 -0.5t2 -0.5l-1 -4l-9 3h-2q-10 2 -10 12q0 13 11 13q5 0 8 -3.5t3 -8.5zM644 143q6 0 6 8q0 7 -6 7t-6 -8q0 -7 6 -7z
M664 162v-13q0 -6 4 -6q5 0 5 6v13h5v-13q0 -11 -10 -11q-9 0 -9 11v13h5zM688 158v-5h9v-4h-9v-6h10v-4h-15v23h14v-4h-9zM719 162h7l1 -23h-5l-1 9v9l-3 -9l-2 -9h-5l-2 9q-2 6 -2 9q0 -2 -0.5 -4.5t-0.5 -4.5v-9h-5l1 23h8l2 -8q1 -2 1 -4t1 -4q1 2 1 4t1 4zM736 158v-5
h9v-4h-9v-6h10v-4h-15v23h15v-4h-10zM759 148q-2 2 -4 8h-1q1 -3 1 -10v-7h-5v23h6l5 -8l2 -4l2 -4q0 2 -0.5 4.5t-0.5 4.5v7h5v-23h-5zM779 139v19h-7v4h18v-4h-6v-19h-5zM328 89q9 0 9 -10t-9 -10q-10 0 -10 10t10 10zM328 71q7 0 7 8t-8 8q-7 0 -7 -8t8 -8zM330 75l1 1
l1 -2q-1 0 -2 -0.5t-2 -0.5q-6 0 -6 6t6 6q3 0 4 -1l-1 -1h-3q-4 0 -4 -4t4 -4h2zM356 73v-4h-5v2q-2 -3 -5 -3q-7 0 -7 8q0 9 7 9q3 0 5 -2v8h5v-18zM351 78q-2 3 -3 3q-4 0 -4 -5q0 -4 4 -4q1 0 3 2v2v2zM368 81q-4 0 -4 -5q0 -4 4 -4q2 0 3 1v-4q-1 0 -1.5 -0.5
t-2.5 -0.5q-8 0 -8 8q0 9 9 9q1 0 1.5 -0.5t1.5 -0.5l-1 -4q0 1 -2 1zM381 85q8 0 8 -8q0 -9 -8 -9t-8 8q0 9 8 9zM381 72q3 0 3 4q0 5 -3 5t-3 -5q0 -4 3 -4zM407 73q0 -3 1 -4h-5v2q-2 -3 -5 -3q-7 0 -7 8q0 9 7 9q4 0 4 -2h1v8h4v-18zM403 78h-1q0 3 -2 3q-4 0 -4 -5
q0 -4 4 -4q2 0 2 2q0 1 0.5 1t0.5 1v2zM424 69q-1 0 -2 -0.5t-3 -0.5q-9 0 -9 8q0 3 2 6t6 3q7 0 7 -8v-2h-10q0 -3 5 -3h4v-3zM418 81q-3 0 -3 -3h6q0 3 -3 3zM432 72q3 0 3 1l-3 2q-4 1 -4 4q0 6 6 6q2 0 3 -0.5t2 -0.5l-1 -4q-1 1 -4 1q-2 0 -2 -1t3 -2q4 -1 4 -5
q0 -5 -7 -5q-2 0 -2.5 0.5t-2.5 0.5l1 4q1 -1 4 -1zM445 91q2 0 2 -2q0 -3 -2 -3q-3 0 -3 3q0 2 3 2zM442 84h5v-15h-5v15zM457 66q4 0 4 4v1q-1 -2 -4 -2q-7 0 -7 7q0 9 7 9q3 0 5 -3v2h4v-4v-9q0 -6 -3 -7q-1 -2 -6 -2q-4 0 -6 1l1 4q1 -1 5 -1zM461 78v1q0 2 -3 2t-3 -5
q0 -4 3 -4q1 0 3 2v2v2zM479 85q6 0 6 -7v-9h-5v8q0 4 -3 4q-2 0 -2 -2v-1v-9h-5v10v5h4v-2q3 3 5 3zM496 75h-8v4h8v-4zM509 81h9v-11q-4 -2 -8 -2q-5 0 -8 3q-4 4 -4 8q2 11 13 11q5 0 6 -1l-1 -4q-1 1 -5 1q-7 0 -7 -7t6 -7q2 0 3 1v4h-4v4zM521 69v10v5h4l1 -3q0 4 4 4
l1 -1v-4h-1q-2 0 -4 -2v-2v-7h-5zM547 75h-10q0 -3 4 -3h5v-3q-1 0 -2 -0.5t-3 -0.5q-9 0 -9 8q0 3 2 6t6 3q7 0 7 -8v-2zM543 78q0 3 -3 3t-3 -3h6zM556 66q4 0 4 4v1q-1 -2 -4 -2q-7 0 -7 7q0 9 7 9q3 0 5 -3v2h4v-4v-9q0 -5 -2 -7t-7 -2q-4 0 -5 1l1 4q1 -1 4 -1zM560 78
v1q0 2 -3 2t-3 -5q0 -4 3 -4t3 2v2v2zM584 77q0 -9 -8 -9t-8 8q0 9 8 9t8 -8zM573 76q0 -4 3 -4t3 4q0 5 -3 5t-3 -5zM587 69v10v5h5v-3q1 4 4 4q1 0 1 -1v-4h-1q-2 0 -4 -2v-2v-7h-5zM604 68v1v1l-6 14h6l2 -8l1 -1v-1l1 2l2 8h5l-4 -10q-3 -9 -5 -10q-2 -2 -3 -2t-2 -1
l-1 5h2zM646 90l1 -21h-5v8v9l-3 -9l-2 -8h-4l-2 8q-2 6 -2 9q-1 -2 -1 -4.5v-4.5v-8h-5l2 21h6l2 -7q2 -6 2 -8q1 2 1 4t1 4l3 7h6zM658 85q7 0 7 -8v-2h-10q0 -3 4 -3h4l1 -3q-2 0 -3 -0.5t-3 -0.5q-8 0 -8 8q0 3 1.5 6t6.5 3zM660 78q0 3 -2 3t-2.5 -1t-1.5 -2h6zM683 73
v-4h-4v2h-1q-2 -3 -4 -3q-7 0 -7 8q0 9 7 9q2 0 4 -2v8h5v-18zM678 78q0 3 -3 3t-3 -5q0 -4 3 -4t3 2v2v2zM689 91q3 0 3 -2q0 -3 -3 -3q-2 0 -2 3q0 2 2 2zM687 84h5v-15h-5v15zM705 85q6 0 6 -7v-9h-5v8q0 4 -3 4q-2 0 -2 -2v-1v-9h-5v10v5h4v-2q3 3 5 3zM728 72v-3h-5v1
q-2 -2 -4 -2q-6 0 -6 5q0 6 10 6q0 2 -3 2q-4 0 -5 -1v3q2 2 6 2q7 0 7 -7v-6zM723 76q-5 0 -5 -3q0 -1 2 -1t3 1v1v2zM292 271h-16v71q10 2 22 2q15 0 23 -6q7 -4 7 -15q0 -7 -4 -11.5t-9 -6.5q7 -3 10 -13q2 -7 3 -13t3 -8h-17q-2 4 -5 17q-2 11 -12 12h-5v-29zM292 311h7
q13 0 13 11q0 10 -12 10q-3 0 -4.5 -0.5t-3.5 -0.5v-20zM386 271h-46v72h44v-13h-28v-15h27v-13h-27v-17h30v-14zM410 271h-15l5 72h21l8 -24q2 -6 3 -12.5t3 -13.5q2 7 3.5 13.5t3.5 12.5l7 24h22l4 -72h-16l-1 28q-1 6 -1 13.5v15.5q-3 -12 -8 -28l-9 -28h-13l-7 28
q-2 7 -3.5 14t-3.5 14q-1 -7 -1 -14.5v-14.5zM504 271h-17v72h17v-72zM533 271h-15v72h19l15 -26q3 -6 6 -12.5t6 -12.5q-1 8 -1.5 15t-0.5 15v21h15v-72h-17l-15 28q-3 6 -6.5 12.5t-6.5 12.5q1 -7 1 -14.5v-16.5v-22zM643 280q-10 -10 -33 -10q-6 0 -10.5 0.5t-7.5 0.5v71
q5 1 10 1.5t12 0.5q18 0 29 -8q12 -8 12 -27t-12 -29zM608 283h6q11 0 17.5 6t6.5 19q0 23 -23 23h-7v-48zM712 271h-46v72h45v-13h-29v-15h27v-13h-27v-17h30v-14zM739 271h-16v71q10 2 22 2q15 0 23 -6q7 -4 7 -15q0 -7 -4 -11.5t-9 -6.5q7 -3 10 -13q2 -7 3 -13t3 -8h-17
q-2 4 -5 17q-2 11 -12 12h-5v-29zM739 311h7q13 0 13 11q0 10 -12 10q-3 0 -4.5 -0.5t-3.5 -0.5v-20zM791 249h-527v6h527v-6zM791 173h-527v6h527v-6zM791 119h-527v7h527v-7zM431 51h3l-4 -14h-4l-2 9l-3 -9h-3l-5 14h4l2 -9l3 9h4l2 -9zM452 51h4l-5 -14h-3l-3 9l-2 -9
h-4l-4 14h3l3 -9l3 9h3l3 -9zM474 51h4l-5 -14h-4l-2 9l-2 -9h-4l-5 14h4l3 -9l2 9h4l2 -9zM479 41h4v-4h-4v4zM496 57h4v-20h-4v2q0 -2 -2 -2q-1 0 -2 -1q-1 0 -5 2q-1 2 -1 6t1 6q2 2 5 2q2 0 4 -2v7zM495 41q1 0 1 3t-1 4q-1 0 -1 0.5t-1 0.5t-1.5 -0.5t-1.5 -0.5
q0 -1 -0.5 -1.5t-0.5 -2.5q0 -1 0.5 -1.5t0.5 -1.5q2 -2 3 -2zM511 40q1 1 1 2h4q0 -2 -2 -4t-4 -2t-6 2q-1 2 -1 6t1 6q4 2 6 2t4 -2q2 0 2 -3l-4 -1q0 2 -1 2l-1 1q-1 0 -1.5 -0.5t-1.5 -0.5v-4v-3q1 -1 3 -1h1zM525 52q3 0 6 -3q2 -2 2 -5t-2 -5q-3 -3 -6 -3
q-1 0 -1.5 0.5t-1.5 0.5q-2 1 -2 1.5t-1 1.5t-1 4t1 4t1 1.5t2 1.5q1 0 1.5 0.5t1.5 0.5zM528 41q1 0 1 3t-1 3q-1 1 -3 1q-1 0 -2 -1q-1 0 -1 -3t1 -3q1 -1 2 -1q2 0 3 1zM544 44l5 -7h-5l-3 4l-2 -4h-5l5 7l-5 7h5l2 -4l3 4h5zM560 51h4l-5 -14l-1 -2q0 -2 -1 -2
q0 -1 -1 -1l-1 -1h-2h-2l-1 3h2q2 0 2 1l1 2l-5 14h4l3 -10zM565 41h4v-4h-4v4zM581 40q0 1 1 2h3q0 -2 -2 -4t-4 -2q-3 0 -5 2t-2 6t2 6t5 2q2 0 4 -2q2 0 2 -3l-4 -1q0 2 -1 2l-1 1q-1 0 -1.5 -0.5t-1.5 -0.5v-4v-3q1 -1 3 -1h2zM595 52q2 0 5 -3q2 -2 2 -5t-2 -5
q-3 -3 -5 -3t-2.5 0.5t-1.5 0.5l-3 3q-1 1 -1 4t1 4l3 3q1 0 1.5 0.5t2.5 0.5zM597 41q1 0 1 3t-1 3q-1 1 -2 1q-2 0 -3 -1q-1 0 -1 -3t1 -3q1 -1 3 -1q1 0 2 1zM624 51q1 -1 1 -2q1 -1 1 -3v-9h-4v8v3q-1 0 -1 0.5t-1 0.5t-1 -1q-1 0 -1 -1q-1 -1 -1 -3v-7h-4v8v2v1
q-1 1 -2 1l-1 -1q-1 0 -1 -1t-0.5 -1.5t-0.5 -1.5v-7h-3v14h3v-2q1 3 5 3q1 0 1 -0.5t1 -0.5l2 -2q0 2 2 2q1 0 1 0.5t1 0.5t1.5 -0.5t1.5 -0.5z" />
    <glyph glyph-name="six" unicode="6" 
d="M435 558q0 7 3 12t9 5q7 0 10 -5t3 -11q0 -7 -3.5 -12t-9.5 -5t-9 5t-3 11zM625 574h6q16 0 16 -15q0 -16 -17 -16h-5v31zM580 548q0 3 5 6q6 -8 8 -10q-2 -2 -6 -2q-7 0 -7 6zM834 611v-611h-616v611h616zM393 586h414v6h-414v-6zM772 572q2 -3 3.5 -6.5t3.5 -6.5
l13 -20h5v39h-5v-16q0 -11 1 -16q-4 8 -7 12l-13 20h-5v-39h4v17v16zM748 543q-15 0 -15 16q0 15 16 15q6 0 8 -1l2 4q-4 2 -10 2q-10 0 -15.5 -6t-5.5 -15t5 -14t15 -5q8 0 12 2v19h-13v-5h8v-11q-1 -1 -7 -1zM716 578v-39h5v39h-5zM697 557q7 -3 7 -8q0 -6 -8 -6
q-5 0 -9 2l-2 -4q4 -3 10 -3q8 0 11 3.5t3 8.5q0 8 -10 11q-8 3 -8 8q0 2 1.5 4t6.5 2t7 -2l2 4q-4 2 -9 2q-13 0 -13 -11q0 -8 11 -11zM664 562v12h16v4h-21v-39h22v4h-17v14h15v5h-15zM652 559q0 8 -5 15q-5 4 -16 4h-11v-39h9q11 0 18 5q5 7 5 15zM580 563q0 -3 3 -6v-1
q-6 -3 -6 -9q0 -3 2 -6t7 -3t9 4q2 -1 2 -1.5t1 -1.5h5q-2 2 -2.5 3t-2.5 3q4 4 4 11h-3l-3 -9q-2 2 -4 4.5t-4 4.5q7 3 7 8q0 7 -7 7q-8 0 -8 -8zM548 557q7 -3 7 -8q0 -6 -8 -6q-5 0 -9 2l-1 -4q3 -3 10 -3t10 3.5t3 8.5q0 8 -10 11q-8 3 -8 8q0 2 1.5 4t6.5 2t7 -2l2 4
q-4 2 -9 2q-13 0 -13 -11q0 -8 11 -11zM517 574v-35h6v35h11v4h-29v-4h12zM476 572q3 -7 8 -13l12 -20h5v39h-5v-16q0 -11 1 -16q-4 8 -7 12l-13 20h-5v-39h4v17v16zM465 559q0 20 -18 20q-8 0 -13 -5.5t-5 -15.5q0 -20 18 -20q8 0 13 5.5t5 15.5zM408 561v13h16v4h-21v-39
h5v18h15v4h-15zM393 525h414v6h-414v-6zM796 445q0 32 -18 50q-18 19 -46 19q-31 0 -48 -20q-17 -18 -17 -50q0 -33 18 -51q18 -19 46 -19q29 0 47 19t18 52zM578 412q-6 9 -6 31q0 42 21 42q8 0 14 -7q5 -7 5 -19l37 2q-2 24 -16 38q-14 15 -41 15q-28 0 -45 -20
q-16 -19 -16 -51t17 -51q16 -18 44 -18q25 0 39 13q15 14 18 37l-36 2q-3 -22 -20 -22q-10 0 -15 8zM515 445q0 25 -17 47q-17 20 -51 20h-53v-136h55q29 0 48 19q18 19 18 50zM266 519q-11 -2 -17 -15t-3 -30t12.5 -27.5t20.5 -8.5v-8v-1q0 -17 8 -28q12 -17 36 -21
q11 -3 25 -4t29 -1v6q-11 0 -22 0.5t-20 1.5q-10 2 -14 3q-6 2 -10 4q-12 4 -19 14q-5 7 -7 19q7 -13 21 -19q3 -2 9 -4q13 -4 29 -5.5t33 -1.5v9q-17 0 -32.5 1t-27.5 5q-11 4 -18 9q-11 8 -14 18v5q3 9 6 15q10 13 33 18q4 1 14 3l2 2q1 0 2 1h1q1 1 4 1l2 1h1q1 -1 3 -1
l6 -3h1l3 3q3 3 5 3q6 2 8 2h1v108q-24 -1 -39.5 -8t-25.5 -19t-14.5 -27.5t-6.5 -32.5q-10 15 -25 13zM376 455q-12 0 -17 8q-4 -4 -10 -4q-11 0 -13 9v-2q0 -10 13 -10q7 0 10 4q5 -9 17 -9h1v4h-1zM808 362h-563v-339h563v339zM591 564q0 -3 -5 -6q-2 4 -2 6q0 4 4 4
q3 0 3 -4zM447 483q13 0 19 -12q7 -12 7 -26q0 -18 -8 -29q-7 -10 -18 -10h-13v77h13zM710 443q0 42 22 42q20 0 20 -37q0 -28 -5 -35q-4 -10 -16 -10q-21 0 -21 40zM276 446q-7 -2 -13 5t-8 12q-6 14 -4 27t11 17q9 5 15.5 0.5t11.5 -11.5q2 -2 -1 -17q-4 1 -8 -1
q4 -1 4.5 -2t2.5 -2q-4 0 -7 -0.5t-7 -1.5q6 -2 10 -6h-4.5t-4.5 -2q5 -2 6.5 -3.5l2.5 -2.5q-3 -10 -7 -12zM339 489q-12 1 -17.5 8t-4.5 8q31 17 40 1q1 -2 -3 -9.5t-14 -7.5h-1zM278 233q7 0 12 -3q4 -2 4 -8t-4 -9q-4 -4 -12 -4h-3v-14h-8v38h11zM278 215q7 0 7 6t-6 6
h-4v-11q1 -1 3 -1zM308 226v-8h14v-7h-14v-9h15v-7h-24v38h24v-7h-15zM356 223q0 -8 -6 -10q4 -2 5 -7q1 -3 1.5 -6t1.5 -5h-9q-1 2 -1 4t-2 5q-1 6 -6 6h-2v-15h-9v38h12q9 0 12 -2q3 -3 3 -8zM341 216q7 0 7 6q0 5 -6 5h-4v-11h3zM372 202q6 0 6 4q0 3 -6 5q-11 4 -11 11
q0 12 15 12q5 0 9 -2l-1 -7q-4 2 -8 2q-6 0 -6 -4q0 -2 7 -5q10 -4 10 -11q0 -12 -15 -12q-7 0 -11 2l2 7q4 -2 9 -2zM391 214q0 8 5 14t13 6q9 0 13.5 -5.5t4.5 -13.5q0 -20 -18 -20t-18 19zM418 214q0 13 -9 13t-9 -13q0 -12 9 -12t9 12zM447 210q-2 3 -3.5 6.5t-2.5 6.5
h-1q1 -5 1 -16v-12h-8v38h10l8 -14q4 -8 6 -13q0 4 -0.5 7.5t-0.5 8.5v11h8v-38h-9zM480 233h12l11 -38h-9l-3 10h-11l-2 -10h-9zM482 211h8l-2 9q-2 4 -2 7q-1 -2 -1 -3.5t-1 -3.5zM517 233v-30h15v-8h-23v38h8zM557 233v-22q0 -9 7 -9t7 9v22h8v-21q0 -17 -15 -17
q-16 0 -16 17v21h9zM596 202q6 0 6 4t-6 5q-10 3 -10 11q0 12 14 12q4 0 10 -2l-2 -7q-4 2 -8 2q-6 0 -6 -4q0 -2 7 -5q10 -4 10 -11q0 -12 -15 -12q-7 0 -11 2l2 7q4 -2 9 -2zM626 226v-8h13v-7h-13v-9h15v-7h-24v38h23v-7h-14zM656 214q0 8 5.5 14t13.5 6t13 -5.5t5 -13.5
q0 -20 -19 -20q-18 0 -18 19zM684 214q0 13 -9 13t-9 -13q0 -12 9 -12t9 12zM713 210q-2 3 -3.5 6.5t-3.5 6.5v-16v-12h-8v38h10l8 -14q5 -6 6 -13h1q-1 5 -1 16v11h8v-38h-9zM746 233v-30h15v-8h-24v38h9zM769 195v16l-11 22h9l4 -9q1 -3 3 -7q2 4 3 7l4 9h9l-12 -22v-16
h-9zM271 162v-13q0 -6 4 -6t4 6v13h6v-13q0 -11 -10 -11t-10 11v13h6zM295 143q4 0 4 2q0 3 -4 4q-6 1 -6 7q0 7 9 7q2 0 6 -2l-2 -4q-1 1 -5 1q-3 0 -3 -2t4 -3q7 -3 7 -7q0 -8 -10 -8q-3 0 -7 2l1 4q2 -1 6 -1zM314 162h7l7 -23h-6l-2 6h-6l-2 -6h-6zM314 149h6l-2 5
q0 1 -0.5 2t-0.5 2q0 -1 -0.5 -2t-0.5 -2zM343 158q-8 0 -8 -8q0 -7 7 -7h3v5h-4v4h9v-12q-4 -2 -8 -2q-5 0 -9 4q-4 3 -4 8q0 13 14 13q4 0 6 -2l-1 -4q-1 1 -5 1zM360 158v-5h8v-4h-8v-6h9v-4h-15v23h15v-4h-9zM387 162q6 0 7 -1q3 -3 3 -6t-2 -5q-3 -3 -8 -3h-2v-8h-5v23
h7zM387 151q5 0 5 4q0 3 -5 3h-2v-7h2zM406 158v-5h8v-4h-8v-6h9v-4h-15v23h15v-4h-9zM436 156q0 -4 -4 -6q2 -2 3 -5q1 -2 1 -3.5t1 -2.5h-6q-1 0 -1 1v4q-1 4 -4 4h-2v-9h-5v23h7q6 0 8 -1q2 -4 2 -5zM426 152q5 0 5 3t-4 3h-3v-6h2zM446 143q4 0 4 2t-4 4q-7 2 -7 7
q0 7 9 7q4 0 6 -2l-1 -4q-1 1 -5 1q-3 0 -3 -2t4 -3q6 -3 6 -7q0 -8 -9 -8q-5 0 -7 2l1 4q1 -1 6 -1zM458 150q0 13 11 13q5 0 8 -3.5t3 -8.5q0 -13 -11 -13q-5 0 -8 3.5t-3 8.5zM475 151q0 7 -6 7t-6 -8q0 -7 6 -7t6 8zM493 148q-2 2 -4 8h-1q1 -3 1 -10v-7h-5v23h6l5 -8
l2 -4l2 -4q-1 3 -1 9v7h5v-23h-5zM517 148q-2 2 -4 8v-10v-7h-5v23h6l5 -8l2 -4l2 -4v9v7h4v-23h-5zM537 158v-5h9v-4h-9v-6h10v-4h-15v23h15v-4h-10zM556 162v-19h10v-4h-15v23h5zM581 162v-13q0 -6 4 -6q5 0 5 6v13h5v-13q0 -11 -10 -11q-9 0 -9 11v13h5zM609 148
q-2 2 -2.5 4t-2.5 4q0 -2 0.5 -4.5t0.5 -5.5v-7h-5v23h6l5 -8l2 -4l2 -4q-1 3 -1 9v7h5v-23h-5zM624 139v23h5v-23h-5zM655 151q0 -8 -5 -11q2 0 3 -0.5t2 -0.5l-1 -4l-9 3h-2q-10 2 -10 12q0 13 11 13q5 0 8 -3.5t3 -8.5zM644 143q6 0 6 8q0 7 -6 7t-6 -8q0 -7 6 -7z
M664 162v-13q0 -6 4 -6q5 0 5 6v13h5v-13q0 -11 -10 -11q-9 0 -9 11v13h5zM688 158v-5h9v-4h-9v-6h10v-4h-15v23h14v-4h-9zM719 162h7l1 -23h-5l-1 9v9l-3 -9l-2 -9h-5l-2 9q-2 6 -2 9q0 -2 -0.5 -4.5t-0.5 -4.5v-9h-5l1 23h8l2 -8q1 -2 1 -4t1 -4q1 2 1 4t1 4zM736 158v-5
h9v-4h-9v-6h10v-4h-15v23h15v-4h-10zM759 148q-2 2 -4 8h-1q1 -3 1 -10v-7h-5v23h6l5 -8l2 -4l2 -4q0 2 -0.5 4.5t-0.5 4.5v7h5v-23h-5zM779 139v19h-7v4h18v-4h-6v-19h-5zM328 89q9 0 9 -10t-9 -10q-10 0 -10 10t10 10zM328 71q7 0 7 8t-8 8q-7 0 -7 -8t8 -8zM330 75l1 1
l1 -2q-1 0 -2 -0.5t-2 -0.5q-6 0 -6 6t6 6q3 0 4 -1l-1 -1h-3q-4 0 -4 -4t4 -4h2zM356 73v-4h-5v2q-2 -3 -5 -3q-7 0 -7 8q0 9 7 9q3 0 5 -2v8h5v-18zM351 78q-2 3 -3 3q-4 0 -4 -5q0 -4 4 -4q1 0 3 2v2v2zM368 81q-4 0 -4 -5q0 -4 4 -4q2 0 3 1v-4q-1 0 -1.5 -0.5
t-2.5 -0.5q-8 0 -8 8q0 9 9 9q1 0 1.5 -0.5t1.5 -0.5l-1 -4q0 1 -2 1zM381 85q8 0 8 -8q0 -9 -8 -9t-8 8q0 9 8 9zM381 72q3 0 3 4q0 5 -3 5t-3 -5q0 -4 3 -4zM407 73q0 -3 1 -4h-5v2q-2 -3 -5 -3q-7 0 -7 8q0 9 7 9q4 0 4 -2h1v8h4v-18zM403 78h-1q0 3 -2 3q-4 0 -4 -5
q0 -4 4 -4q2 0 2 2q0 1 0.5 1t0.5 1v2zM424 69q-1 0 -2 -0.5t-3 -0.5q-9 0 -9 8q0 3 2 6t6 3q7 0 7 -8v-2h-10q0 -3 5 -3h4v-3zM418 81q-3 0 -3 -3h6q0 3 -3 3zM432 72q3 0 3 1l-3 2q-4 1 -4 4q0 6 6 6q2 0 3 -0.5t2 -0.5l-1 -4q-1 1 -4 1q-2 0 -2 -1t3 -2q4 -1 4 -5
q0 -5 -7 -5q-2 0 -2.5 0.5t-2.5 0.5l1 4q1 -1 4 -1zM445 91q2 0 2 -2q0 -3 -2 -3q-3 0 -3 3q0 2 3 2zM442 84h5v-15h-5v15zM457 66q4 0 4 4v1q-1 -2 -4 -2q-7 0 -7 7q0 9 7 9q3 0 5 -3v2h4v-4v-9q0 -6 -3 -7q-1 -2 -6 -2q-4 0 -6 1l1 4q1 -1 5 -1zM461 78v1q0 2 -3 2t-3 -5
q0 -4 3 -4q1 0 3 2v2v2zM479 85q6 0 6 -7v-9h-5v8q0 4 -3 4q-2 0 -2 -2v-1v-9h-5v10v5h4v-2q3 3 5 3zM496 75h-8v4h8v-4zM509 81h9v-11q-4 -2 -8 -2q-5 0 -8 3q-4 4 -4 8q2 11 13 11q5 0 6 -1l-1 -4q-1 1 -5 1q-7 0 -7 -7t6 -7q2 0 3 1v4h-4v4zM521 69v10v5h4l1 -3q0 4 4 4
l1 -1v-4h-1q-2 0 -4 -2v-2v-7h-5zM547 75h-10q0 -3 4 -3h5v-3q-1 0 -2 -0.5t-3 -0.5q-9 0 -9 8q0 3 2 6t6 3q7 0 7 -8v-2zM543 78q0 3 -3 3t-3 -3h6zM556 66q4 0 4 4v1q-1 -2 -4 -2q-7 0 -7 7q0 9 7 9q3 0 5 -3v2h4v-4v-9q0 -5 -2 -7t-7 -2q-4 0 -5 1l1 4q1 -1 4 -1zM560 78
v1q0 2 -3 2t-3 -5q0 -4 3 -4t3 2v2v2zM584 77q0 -9 -8 -9t-8 8q0 9 8 9t8 -8zM573 76q0 -4 3 -4t3 4q0 5 -3 5t-3 -5zM587 69v10v5h5v-3q1 4 4 4q1 0 1 -1v-4h-1q-2 0 -4 -2v-2v-7h-5zM604 68v1v1l-6 14h6l2 -8l1 -1v-1l1 2l2 8h5l-4 -10q-3 -9 -5 -10q-2 -2 -3 -2t-2 -1
l-1 5h2zM646 90l1 -21h-5v8v9l-3 -9l-2 -8h-4l-2 8q-2 6 -2 9q-1 -2 -1 -4.5v-4.5v-8h-5l2 21h6l2 -7q2 -6 2 -8q1 2 1 4t1 4l3 7h6zM658 85q7 0 7 -8v-2h-10q0 -3 4 -3h4l1 -3q-2 0 -3 -0.5t-3 -0.5q-8 0 -8 8q0 3 1.5 6t6.5 3zM660 78q0 3 -2 3t-2.5 -1t-1.5 -2h6zM683 73
v-4h-4v2h-1q-2 -3 -4 -3q-7 0 -7 8q0 9 7 9q2 0 4 -2v8h5v-18zM678 78q0 3 -3 3t-3 -5q0 -4 3 -4t3 2v2v2zM689 91q3 0 3 -2q0 -3 -3 -3q-2 0 -2 3q0 2 2 2zM687 84h5v-15h-5v15zM705 85q6 0 6 -7v-9h-5v8q0 4 -3 4q-2 0 -2 -2v-1v-9h-5v10v5h4v-2q3 3 5 3zM728 72v-3h-5v1
q-2 -2 -4 -2q-6 0 -6 5q0 6 10 6q0 2 -3 2q-4 0 -5 -1v3q2 2 6 2q7 0 7 -7v-6zM723 76q-5 0 -5 -3q0 -1 2 -1t3 1v1v2zM292 271h-16v71q10 2 22 2q15 0 23 -6q7 -4 7 -15q0 -7 -4 -11.5t-9 -6.5q7 -3 10 -13q2 -7 3 -13t3 -8h-17q-2 4 -5 17q-2 11 -12 12h-5v-29zM292 311h7
q13 0 13 11q0 10 -12 10q-3 0 -4.5 -0.5t-3.5 -0.5v-20zM386 271h-46v72h44v-13h-28v-15h27v-13h-27v-17h30v-14zM410 271h-15l5 72h21l8 -24q2 -6 3 -12.5t3 -13.5q2 7 3.5 13.5t3.5 12.5l7 24h22l4 -72h-16l-1 28q-1 6 -1 13.5v15.5q-3 -12 -8 -28l-9 -28h-13l-7 28
q-2 7 -3.5 14t-3.5 14q-1 -7 -1 -14.5v-14.5zM504 271h-17v72h17v-72zM533 271h-15v72h19l15 -26q3 -6 6 -12.5t6 -12.5q-1 8 -1.5 15t-0.5 15v21h15v-72h-17l-15 28q-3 6 -6.5 12.5t-6.5 12.5q1 -7 1 -14.5v-16.5v-22zM643 280q-10 -10 -33 -10q-6 0 -10.5 0.5t-7.5 0.5v71
q5 1 10 1.5t12 0.5q18 0 29 -8q12 -8 12 -27t-12 -29zM608 283h6q11 0 17.5 6t6.5 19q0 23 -23 23h-7v-48zM712 271h-46v72h45v-13h-29v-15h27v-13h-27v-17h30v-14zM739 271h-16v71q10 2 22 2q15 0 23 -6q7 -4 7 -15q0 -7 -4 -11.5t-9 -6.5q7 -3 10 -13q2 -7 3 -13t3 -8h-17
q-2 4 -5 17q-2 11 -12 12h-5v-29zM739 311h7q13 0 13 11q0 10 -12 10q-3 0 -4.5 -0.5t-3.5 -0.5v-20zM791 249h-527v6h527v-6zM791 173h-527v6h527v-6zM791 119h-527v7h527v-7zM431 51h3l-4 -14h-4l-2 9l-3 -9h-3l-5 14h4l2 -9l3 9h4l2 -9zM452 51h4l-5 -14h-3l-3 9l-2 -9
h-4l-4 14h3l3 -9l3 9h3l3 -9zM474 51h4l-5 -14h-4l-2 9l-2 -9h-4l-5 14h4l3 -9l2 9h4l2 -9zM479 41h4v-4h-4v4zM496 57h4v-20h-4v2q0 -2 -2 -2q-1 0 -2 -1q-1 0 -5 2q-1 2 -1 6t1 6q2 2 5 2q2 0 4 -2v7zM495 41q1 0 1 3t-1 4q-1 0 -1 0.5t-1 0.5t-1.5 -0.5t-1.5 -0.5
q0 -1 -0.5 -1.5t-0.5 -2.5q0 -1 0.5 -1.5t0.5 -1.5q2 -2 3 -2zM511 40q1 1 1 2h4q0 -2 -2 -4t-4 -2t-6 2q-1 2 -1 6t1 6q4 2 6 2t4 -2q2 0 2 -3l-4 -1q0 2 -1 2l-1 1q-1 0 -1.5 -0.5t-1.5 -0.5v-4v-3q1 -1 3 -1h1zM525 52q3 0 6 -3q2 -2 2 -5t-2 -5q-3 -3 -6 -3
q-1 0 -1.5 0.5t-1.5 0.5q-2 1 -2 1.5t-1 1.5t-1 4t1 4t1 1.5t2 1.5q1 0 1.5 0.5t1.5 0.5zM528 41q1 0 1 3t-1 3q-1 1 -3 1q-1 0 -2 -1q-1 0 -1 -3t1 -3q1 -1 2 -1q2 0 3 1zM544 44l5 -7h-5l-3 4l-2 -4h-5l5 7l-5 7h5l2 -4l3 4h5zM560 51h4l-5 -14l-1 -2q0 -2 -1 -2
q0 -1 -1 -1l-1 -1h-2h-2l-1 3h2q2 0 2 1l1 2l-5 14h4l3 -10zM565 41h4v-4h-4v4zM581 40q0 1 1 2h3q0 -2 -2 -4t-4 -2q-3 0 -5 2t-2 6t2 6t5 2q2 0 4 -2q2 0 2 -3l-4 -1q0 2 -1 2l-1 1q-1 0 -1.5 -0.5t-1.5 -0.5v-4v-3q1 -1 3 -1h2zM595 52q2 0 5 -3q2 -2 2 -5t-2 -5
q-3 -3 -5 -3t-2.5 0.5t-1.5 0.5l-3 3q-1 1 -1 4t1 4l3 3q1 0 1.5 0.5t2.5 0.5zM597 41q1 0 1 3t-1 3q-1 1 -2 1q-2 0 -3 -1q-1 0 -1 -3t1 -3q1 -1 3 -1q1 0 2 1zM624 51q1 -1 1 -2q1 -1 1 -3v-9h-4v8v3q-1 0 -1 0.5t-1 0.5t-1 -1q-1 0 -1 -1q-1 -1 -1 -3v-7h-4v8v2v1
q-1 1 -2 1l-1 -1q-1 0 -1 -1t-0.5 -1.5t-0.5 -1.5v-7h-3v14h3v-2q1 3 5 3q1 0 1 -0.5t1 -0.5l2 -2q0 2 2 2q1 0 1 0.5t1 0.5t1.5 -0.5t1.5 -0.5z" />
    <glyph glyph-name="seven" unicode="7" 
d="M435 558q0 7 3 12t9 5q7 0 10 -5t3 -11q0 -7 -3.5 -12t-9.5 -5t-9 5t-3 11zM625 574h6q16 0 16 -15q0 -16 -17 -16h-5v31zM580 548q0 3 5 6q6 -8 8 -10q-2 -2 -6 -2q-7 0 -7 6zM834 611v-611h-616v611h616zM393 586h414v6h-414v-6zM772 572q2 -3 3.5 -6.5t3.5 -6.5
l13 -20h5v39h-5v-16q0 -11 1 -16q-4 8 -7 12l-13 20h-5v-39h4v17v16zM748 543q-15 0 -15 16q0 15 16 15q6 0 8 -1l2 4q-4 2 -10 2q-10 0 -15.5 -6t-5.5 -15t5 -14t15 -5q8 0 12 2v19h-13v-5h8v-11q-1 -1 -7 -1zM716 578v-39h5v39h-5zM697 557q7 -3 7 -8q0 -6 -8 -6
q-5 0 -9 2l-2 -4q4 -3 10 -3q8 0 11 3.5t3 8.5q0 8 -10 11q-8 3 -8 8q0 2 1.5 4t6.5 2t7 -2l2 4q-4 2 -9 2q-13 0 -13 -11q0 -8 11 -11zM664 562v12h16v4h-21v-39h22v4h-17v14h15v5h-15zM652 559q0 8 -5 15q-5 4 -16 4h-11v-39h9q11 0 18 5q5 7 5 15zM580 563q0 -3 3 -6v-1
q-6 -3 -6 -9q0 -3 2 -6t7 -3t9 4q2 -1 2 -1.5t1 -1.5h5q-2 2 -2.5 3t-2.5 3q4 4 4 11h-3l-3 -9q-2 2 -4 4.5t-4 4.5q7 3 7 8q0 7 -7 7q-8 0 -8 -8zM548 557q7 -3 7 -8q0 -6 -8 -6q-5 0 -9 2l-1 -4q3 -3 10 -3t10 3.5t3 8.5q0 8 -10 11q-8 3 -8 8q0 2 1.5 4t6.5 2t7 -2l2 4
q-4 2 -9 2q-13 0 -13 -11q0 -8 11 -11zM517 574v-35h6v35h11v4h-29v-4h12zM476 572q3 -7 8 -13l12 -20h5v39h-5v-16q0 -11 1 -16q-4 8 -7 12l-13 20h-5v-39h4v17v16zM465 559q0 20 -18 20q-8 0 -13 -5.5t-5 -15.5q0 -20 18 -20q8 0 13 5.5t5 15.5zM408 561v13h16v4h-21v-39
h5v18h15v4h-15zM393 525h414v6h-414v-6zM796 445q0 32 -18 50q-18 19 -46 19q-31 0 -48 -20q-17 -18 -17 -50q0 -33 18 -51q18 -19 46 -19q29 0 47 19t18 52zM578 412q-6 9 -6 31q0 42 21 42q8 0 14 -7q5 -7 5 -19l37 2q-2 24 -16 38q-14 15 -41 15q-28 0 -45 -20
q-16 -19 -16 -51t17 -51q16 -18 44 -18q25 0 39 13q15 14 18 37l-36 2q-3 -22 -20 -22q-10 0 -15 8zM515 445q0 25 -17 47q-17 20 -51 20h-53v-136h55q29 0 48 19q18 19 18 50zM266 519q-11 -2 -17 -15t-3 -30t12.5 -27.5t20.5 -8.5v-8v-1q0 -17 8 -28q12 -17 36 -21
q11 -3 25 -4t29 -1v6q-11 0 -22 0.5t-20 1.5q-10 2 -14 3q-6 2 -10 4q-12 4 -19 14q-5 7 -7 19q7 -13 21 -19q3 -2 9 -4q13 -4 29 -5.5t33 -1.5v9q-17 0 -32.5 1t-27.5 5q-11 4 -18 9q-11 8 -14 18v5q3 9 6 15q10 13 33 18q4 1 14 3l2 2q1 0 2 1h1q1 1 4 1l2 1h1q1 -1 3 -1
l6 -3h1l3 3q3 3 5 3q6 2 8 2h1v108q-24 -1 -39.5 -8t-25.5 -19t-14.5 -27.5t-6.5 -32.5q-10 15 -25 13zM376 455q-12 0 -17 8q-4 -4 -10 -4q-11 0 -13 9v-2q0 -10 13 -10q7 0 10 4q5 -9 17 -9h1v4h-1zM808 362h-563v-339h563v339zM591 564q0 -3 -5 -6q-2 4 -2 6q0 4 4 4
q3 0 3 -4zM447 483q13 0 19 -12q7 -12 7 -26q0 -18 -8 -29q-7 -10 -18 -10h-13v77h13zM710 443q0 42 22 42q20 0 20 -37q0 -28 -5 -35q-4 -10 -16 -10q-21 0 -21 40zM276 446q-7 -2 -13 5t-8 12q-6 14 -4 27t11 17q9 5 15.5 0.5t11.5 -11.5q2 -2 -1 -17q-4 1 -8 -1
q4 -1 4.5 -2t2.5 -2q-4 0 -7 -0.5t-7 -1.5q6 -2 10 -6h-4.5t-4.5 -2q5 -2 6.5 -3.5l2.5 -2.5q-3 -10 -7 -12zM339 489q-12 1 -17.5 8t-4.5 8q31 17 40 1q1 -2 -3 -9.5t-14 -7.5h-1zM278 233q7 0 12 -3q4 -2 4 -8t-4 -9q-4 -4 -12 -4h-3v-14h-8v38h11zM278 215q7 0 7 6t-6 6
h-4v-11q1 -1 3 -1zM308 226v-8h14v-7h-14v-9h15v-7h-24v38h24v-7h-15zM356 223q0 -8 -6 -10q4 -2 5 -7q1 -3 1.5 -6t1.5 -5h-9q-1 2 -1 4t-2 5q-1 6 -6 6h-2v-15h-9v38h12q9 0 12 -2q3 -3 3 -8zM341 216q7 0 7 6q0 5 -6 5h-4v-11h3zM372 202q6 0 6 4q0 3 -6 5q-11 4 -11 11
q0 12 15 12q5 0 9 -2l-1 -7q-4 2 -8 2q-6 0 -6 -4q0 -2 7 -5q10 -4 10 -11q0 -12 -15 -12q-7 0 -11 2l2 7q4 -2 9 -2zM391 214q0 8 5 14t13 6q9 0 13.5 -5.5t4.5 -13.5q0 -20 -18 -20t-18 19zM418 214q0 13 -9 13t-9 -13q0 -12 9 -12t9 12zM447 210q-2 3 -3.5 6.5t-2.5 6.5
h-1q1 -5 1 -16v-12h-8v38h10l8 -14q4 -8 6 -13q0 4 -0.5 7.5t-0.5 8.5v11h8v-38h-9zM480 233h12l11 -38h-9l-3 10h-11l-2 -10h-9zM482 211h8l-2 9q-2 4 -2 7q-1 -2 -1 -3.5t-1 -3.5zM517 233v-30h15v-8h-23v38h8zM557 233v-22q0 -9 7 -9t7 9v22h8v-21q0 -17 -15 -17
q-16 0 -16 17v21h9zM596 202q6 0 6 4t-6 5q-10 3 -10 11q0 12 14 12q4 0 10 -2l-2 -7q-4 2 -8 2q-6 0 -6 -4q0 -2 7 -5q10 -4 10 -11q0 -12 -15 -12q-7 0 -11 2l2 7q4 -2 9 -2zM626 226v-8h13v-7h-13v-9h15v-7h-24v38h23v-7h-14zM656 214q0 8 5.5 14t13.5 6t13 -5.5t5 -13.5
q0 -20 -19 -20q-18 0 -18 19zM684 214q0 13 -9 13t-9 -13q0 -12 9 -12t9 12zM713 210q-2 3 -3.5 6.5t-3.5 6.5v-16v-12h-8v38h10l8 -14q5 -6 6 -13h1q-1 5 -1 16v11h8v-38h-9zM746 233v-30h15v-8h-24v38h9zM769 195v16l-11 22h9l4 -9q1 -3 3 -7q2 4 3 7l4 9h9l-12 -22v-16
h-9zM271 162v-13q0 -6 4 -6t4 6v13h6v-13q0 -11 -10 -11t-10 11v13h6zM295 143q4 0 4 2q0 3 -4 4q-6 1 -6 7q0 7 9 7q2 0 6 -2l-2 -4q-1 1 -5 1q-3 0 -3 -2t4 -3q7 -3 7 -7q0 -8 -10 -8q-3 0 -7 2l1 4q2 -1 6 -1zM314 162h7l7 -23h-6l-2 6h-6l-2 -6h-6zM314 149h6l-2 5
q0 1 -0.5 2t-0.5 2q0 -1 -0.5 -2t-0.5 -2zM343 158q-8 0 -8 -8q0 -7 7 -7h3v5h-4v4h9v-12q-4 -2 -8 -2q-5 0 -9 4q-4 3 -4 8q0 13 14 13q4 0 6 -2l-1 -4q-1 1 -5 1zM360 158v-5h8v-4h-8v-6h9v-4h-15v23h15v-4h-9zM387 162q6 0 7 -1q3 -3 3 -6t-2 -5q-3 -3 -8 -3h-2v-8h-5v23
h7zM387 151q5 0 5 4q0 3 -5 3h-2v-7h2zM406 158v-5h8v-4h-8v-6h9v-4h-15v23h15v-4h-9zM436 156q0 -4 -4 -6q2 -2 3 -5q1 -2 1 -3.5t1 -2.5h-6q-1 0 -1 1v4q-1 4 -4 4h-2v-9h-5v23h7q6 0 8 -1q2 -4 2 -5zM426 152q5 0 5 3t-4 3h-3v-6h2zM446 143q4 0 4 2t-4 4q-7 2 -7 7
q0 7 9 7q4 0 6 -2l-1 -4q-1 1 -5 1q-3 0 -3 -2t4 -3q6 -3 6 -7q0 -8 -9 -8q-5 0 -7 2l1 4q1 -1 6 -1zM458 150q0 13 11 13q5 0 8 -3.5t3 -8.5q0 -13 -11 -13q-5 0 -8 3.5t-3 8.5zM475 151q0 7 -6 7t-6 -8q0 -7 6 -7t6 8zM493 148q-2 2 -4 8h-1q1 -3 1 -10v-7h-5v23h6l5 -8
l2 -4l2 -4q-1 3 -1 9v7h5v-23h-5zM517 148q-2 2 -4 8v-10v-7h-5v23h6l5 -8l2 -4l2 -4v9v7h4v-23h-5zM537 158v-5h9v-4h-9v-6h10v-4h-15v23h15v-4h-10zM556 162v-19h10v-4h-15v23h5zM581 162v-13q0 -6 4 -6q5 0 5 6v13h5v-13q0 -11 -10 -11q-9 0 -9 11v13h5zM609 148
q-2 2 -2.5 4t-2.5 4q0 -2 0.5 -4.5t0.5 -5.5v-7h-5v23h6l5 -8l2 -4l2 -4q-1 3 -1 9v7h5v-23h-5zM624 139v23h5v-23h-5zM655 151q0 -8 -5 -11q2 0 3 -0.5t2 -0.5l-1 -4l-9 3h-2q-10 2 -10 12q0 13 11 13q5 0 8 -3.5t3 -8.5zM644 143q6 0 6 8q0 7 -6 7t-6 -8q0 -7 6 -7z
M664 162v-13q0 -6 4 -6q5 0 5 6v13h5v-13q0 -11 -10 -11q-9 0 -9 11v13h5zM688 158v-5h9v-4h-9v-6h10v-4h-15v23h14v-4h-9zM719 162h7l1 -23h-5l-1 9v9l-3 -9l-2 -9h-5l-2 9q-2 6 -2 9q0 -2 -0.5 -4.5t-0.5 -4.5v-9h-5l1 23h8l2 -8q1 -2 1 -4t1 -4q1 2 1 4t1 4zM736 158v-5
h9v-4h-9v-6h10v-4h-15v23h15v-4h-10zM759 148q-2 2 -4 8h-1q1 -3 1 -10v-7h-5v23h6l5 -8l2 -4l2 -4q0 2 -0.5 4.5t-0.5 4.5v7h5v-23h-5zM779 139v19h-7v4h18v-4h-6v-19h-5zM328 89q9 0 9 -10t-9 -10q-10 0 -10 10t10 10zM328 71q7 0 7 8t-8 8q-7 0 -7 -8t8 -8zM330 75l1 1
l1 -2q-1 0 -2 -0.5t-2 -0.5q-6 0 -6 6t6 6q3 0 4 -1l-1 -1h-3q-4 0 -4 -4t4 -4h2zM356 73v-4h-5v2q-2 -3 -5 -3q-7 0 -7 8q0 9 7 9q3 0 5 -2v8h5v-18zM351 78q-2 3 -3 3q-4 0 -4 -5q0 -4 4 -4q1 0 3 2v2v2zM368 81q-4 0 -4 -5q0 -4 4 -4q2 0 3 1v-4q-1 0 -1.5 -0.5
t-2.5 -0.5q-8 0 -8 8q0 9 9 9q1 0 1.5 -0.5t1.5 -0.5l-1 -4q0 1 -2 1zM381 85q8 0 8 -8q0 -9 -8 -9t-8 8q0 9 8 9zM381 72q3 0 3 4q0 5 -3 5t-3 -5q0 -4 3 -4zM407 73q0 -3 1 -4h-5v2q-2 -3 -5 -3q-7 0 -7 8q0 9 7 9q4 0 4 -2h1v8h4v-18zM403 78h-1q0 3 -2 3q-4 0 -4 -5
q0 -4 4 -4q2 0 2 2q0 1 0.5 1t0.5 1v2zM424 69q-1 0 -2 -0.5t-3 -0.5q-9 0 -9 8q0 3 2 6t6 3q7 0 7 -8v-2h-10q0 -3 5 -3h4v-3zM418 81q-3 0 -3 -3h6q0 3 -3 3zM432 72q3 0 3 1l-3 2q-4 1 -4 4q0 6 6 6q2 0 3 -0.5t2 -0.5l-1 -4q-1 1 -4 1q-2 0 -2 -1t3 -2q4 -1 4 -5
q0 -5 -7 -5q-2 0 -2.5 0.5t-2.5 0.5l1 4q1 -1 4 -1zM445 91q2 0 2 -2q0 -3 -2 -3q-3 0 -3 3q0 2 3 2zM442 84h5v-15h-5v15zM457 66q4 0 4 4v1q-1 -2 -4 -2q-7 0 -7 7q0 9 7 9q3 0 5 -3v2h4v-4v-9q0 -6 -3 -7q-1 -2 -6 -2q-4 0 -6 1l1 4q1 -1 5 -1zM461 78v1q0 2 -3 2t-3 -5
q0 -4 3 -4q1 0 3 2v2v2zM479 85q6 0 6 -7v-9h-5v8q0 4 -3 4q-2 0 -2 -2v-1v-9h-5v10v5h4v-2q3 3 5 3zM496 75h-8v4h8v-4zM509 81h9v-11q-4 -2 -8 -2q-5 0 -8 3q-4 4 -4 8q2 11 13 11q5 0 6 -1l-1 -4q-1 1 -5 1q-7 0 -7 -7t6 -7q2 0 3 1v4h-4v4zM521 69v10v5h4l1 -3q0 4 4 4
l1 -1v-4h-1q-2 0 -4 -2v-2v-7h-5zM547 75h-10q0 -3 4 -3h5v-3q-1 0 -2 -0.5t-3 -0.5q-9 0 -9 8q0 3 2 6t6 3q7 0 7 -8v-2zM543 78q0 3 -3 3t-3 -3h6zM556 66q4 0 4 4v1q-1 -2 -4 -2q-7 0 -7 7q0 9 7 9q3 0 5 -3v2h4v-4v-9q0 -5 -2 -7t-7 -2q-4 0 -5 1l1 4q1 -1 4 -1zM560 78
v1q0 2 -3 2t-3 -5q0 -4 3 -4t3 2v2v2zM584 77q0 -9 -8 -9t-8 8q0 9 8 9t8 -8zM573 76q0 -4 3 -4t3 4q0 5 -3 5t-3 -5zM587 69v10v5h5v-3q1 4 4 4q1 0 1 -1v-4h-1q-2 0 -4 -2v-2v-7h-5zM604 68v1v1l-6 14h6l2 -8l1 -1v-1l1 2l2 8h5l-4 -10q-3 -9 -5 -10q-2 -2 -3 -2t-2 -1
l-1 5h2zM646 90l1 -21h-5v8v9l-3 -9l-2 -8h-4l-2 8q-2 6 -2 9q-1 -2 -1 -4.5v-4.5v-8h-5l2 21h6l2 -7q2 -6 2 -8q1 2 1 4t1 4l3 7h6zM658 85q7 0 7 -8v-2h-10q0 -3 4 -3h4l1 -3q-2 0 -3 -0.5t-3 -0.5q-8 0 -8 8q0 3 1.5 6t6.5 3zM660 78q0 3 -2 3t-2.5 -1t-1.5 -2h6zM683 73
v-4h-4v2h-1q-2 -3 -4 -3q-7 0 -7 8q0 9 7 9q2 0 4 -2v8h5v-18zM678 78q0 3 -3 3t-3 -5q0 -4 3 -4t3 2v2v2zM689 91q3 0 3 -2q0 -3 -3 -3q-2 0 -2 3q0 2 2 2zM687 84h5v-15h-5v15zM705 85q6 0 6 -7v-9h-5v8q0 4 -3 4q-2 0 -2 -2v-1v-9h-5v10v5h4v-2q3 3 5 3zM728 72v-3h-5v1
q-2 -2 -4 -2q-6 0 -6 5q0 6 10 6q0 2 -3 2q-4 0 -5 -1v3q2 2 6 2q7 0 7 -7v-6zM723 76q-5 0 -5 -3q0 -1 2 -1t3 1v1v2zM292 271h-16v71q10 2 22 2q15 0 23 -6q7 -4 7 -15q0 -7 -4 -11.5t-9 -6.5q7 -3 10 -13q2 -7 3 -13t3 -8h-17q-2 4 -5 17q-2 11 -12 12h-5v-29zM292 311h7
q13 0 13 11q0 10 -12 10q-3 0 -4.5 -0.5t-3.5 -0.5v-20zM386 271h-46v72h44v-13h-28v-15h27v-13h-27v-17h30v-14zM410 271h-15l5 72h21l8 -24q2 -6 3 -12.5t3 -13.5q2 7 3.5 13.5t3.5 12.5l7 24h22l4 -72h-16l-1 28q-1 6 -1 13.5v15.5q-3 -12 -8 -28l-9 -28h-13l-7 28
q-2 7 -3.5 14t-3.5 14q-1 -7 -1 -14.5v-14.5zM504 271h-17v72h17v-72zM533 271h-15v72h19l15 -26q3 -6 6 -12.5t6 -12.5q-1 8 -1.5 15t-0.5 15v21h15v-72h-17l-15 28q-3 6 -6.5 12.5t-6.5 12.5q1 -7 1 -14.5v-16.5v-22zM643 280q-10 -10 -33 -10q-6 0 -10.5 0.5t-7.5 0.5v71
q5 1 10 1.5t12 0.5q18 0 29 -8q12 -8 12 -27t-12 -29zM608 283h6q11 0 17.5 6t6.5 19q0 23 -23 23h-7v-48zM712 271h-46v72h45v-13h-29v-15h27v-13h-27v-17h30v-14zM739 271h-16v71q10 2 22 2q15 0 23 -6q7 -4 7 -15q0 -7 -4 -11.5t-9 -6.5q7 -3 10 -13q2 -7 3 -13t3 -8h-17
q-2 4 -5 17q-2 11 -12 12h-5v-29zM739 311h7q13 0 13 11q0 10 -12 10q-3 0 -4.5 -0.5t-3.5 -0.5v-20zM791 249h-527v6h527v-6zM791 173h-527v6h527v-6zM791 119h-527v7h527v-7zM431 51h3l-4 -14h-4l-2 9l-3 -9h-3l-5 14h4l2 -9l3 9h4l2 -9zM452 51h4l-5 -14h-3l-3 9l-2 -9
h-4l-4 14h3l3 -9l3 9h3l3 -9zM474 51h4l-5 -14h-4l-2 9l-2 -9h-4l-5 14h4l3 -9l2 9h4l2 -9zM479 41h4v-4h-4v4zM496 57h4v-20h-4v2q0 -2 -2 -2q-1 0 -2 -1q-1 0 -5 2q-1 2 -1 6t1 6q2 2 5 2q2 0 4 -2v7zM495 41q1 0 1 3t-1 4q-1 0 -1 0.5t-1 0.5t-1.5 -0.5t-1.5 -0.5
q0 -1 -0.5 -1.5t-0.5 -2.5q0 -1 0.5 -1.5t0.5 -1.5q2 -2 3 -2zM511 40q1 1 1 2h4q0 -2 -2 -4t-4 -2t-6 2q-1 2 -1 6t1 6q4 2 6 2t4 -2q2 0 2 -3l-4 -1q0 2 -1 2l-1 1q-1 0 -1.5 -0.5t-1.5 -0.5v-4v-3q1 -1 3 -1h1zM525 52q3 0 6 -3q2 -2 2 -5t-2 -5q-3 -3 -6 -3
q-1 0 -1.5 0.5t-1.5 0.5q-2 1 -2 1.5t-1 1.5t-1 4t1 4t1 1.5t2 1.5q1 0 1.5 0.5t1.5 0.5zM528 41q1 0 1 3t-1 3q-1 1 -3 1q-1 0 -2 -1q-1 0 -1 -3t1 -3q1 -1 2 -1q2 0 3 1zM544 44l5 -7h-5l-3 4l-2 -4h-5l5 7l-5 7h5l2 -4l3 4h5zM560 51h4l-5 -14l-1 -2q0 -2 -1 -2
q0 -1 -1 -1l-1 -1h-2h-2l-1 3h2q2 0 2 1l1 2l-5 14h4l3 -10zM565 41h4v-4h-4v4zM581 40q0 1 1 2h3q0 -2 -2 -4t-4 -2q-3 0 -5 2t-2 6t2 6t5 2q2 0 4 -2q2 0 2 -3l-4 -1q0 2 -1 2l-1 1q-1 0 -1.5 -0.5t-1.5 -0.5v-4v-3q1 -1 3 -1h2zM595 52q2 0 5 -3q2 -2 2 -5t-2 -5
q-3 -3 -5 -3t-2.5 0.5t-1.5 0.5l-3 3q-1 1 -1 4t1 4l3 3q1 0 1.5 0.5t2.5 0.5zM597 41q1 0 1 3t-1 3q-1 1 -2 1q-2 0 -3 -1q-1 0 -1 -3t1 -3q1 -1 3 -1q1 0 2 1zM624 51q1 -1 1 -2q1 -1 1 -3v-9h-4v8v3q-1 0 -1 0.5t-1 0.5t-1 -1q-1 0 -1 -1q-1 -1 -1 -3v-7h-4v8v2v1
q-1 1 -2 1l-1 -1q-1 0 -1 -1t-0.5 -1.5t-0.5 -1.5v-7h-3v14h3v-2q1 3 5 3q1 0 1 -0.5t1 -0.5l2 -2q0 2 2 2q1 0 1 0.5t1 0.5t1.5 -0.5t1.5 -0.5z" />
    <glyph glyph-name="eight" unicode="8" 
d="M435 558q0 7 3 12t9 5q7 0 10 -5t3 -11q0 -7 -3.5 -12t-9.5 -5t-9 5t-3 11zM625 574h6q16 0 16 -15q0 -16 -17 -16h-5v31zM580 548q0 3 5 6q6 -8 8 -10q-2 -2 -6 -2q-7 0 -7 6zM834 611v-611h-616v611h616zM393 586h414v6h-414v-6zM772 572q2 -3 3.5 -6.5t3.5 -6.5
l13 -20h5v39h-5v-16q0 -11 1 -16q-4 8 -7 12l-13 20h-5v-39h4v17v16zM748 543q-15 0 -15 16q0 15 16 15q6 0 8 -1l2 4q-4 2 -10 2q-10 0 -15.5 -6t-5.5 -15t5 -14t15 -5q8 0 12 2v19h-13v-5h8v-11q-1 -1 -7 -1zM716 578v-39h5v39h-5zM697 557q7 -3 7 -8q0 -6 -8 -6
q-5 0 -9 2l-2 -4q4 -3 10 -3q8 0 11 3.5t3 8.5q0 8 -10 11q-8 3 -8 8q0 2 1.5 4t6.5 2t7 -2l2 4q-4 2 -9 2q-13 0 -13 -11q0 -8 11 -11zM664 562v12h16v4h-21v-39h22v4h-17v14h15v5h-15zM652 559q0 8 -5 15q-5 4 -16 4h-11v-39h9q11 0 18 5q5 7 5 15zM580 563q0 -3 3 -6v-1
q-6 -3 -6 -9q0 -3 2 -6t7 -3t9 4q2 -1 2 -1.5t1 -1.5h5q-2 2 -2.5 3t-2.5 3q4 4 4 11h-3l-3 -9q-2 2 -4 4.5t-4 4.5q7 3 7 8q0 7 -7 7q-8 0 -8 -8zM548 557q7 -3 7 -8q0 -6 -8 -6q-5 0 -9 2l-1 -4q3 -3 10 -3t10 3.5t3 8.5q0 8 -10 11q-8 3 -8 8q0 2 1.5 4t6.5 2t7 -2l2 4
q-4 2 -9 2q-13 0 -13 -11q0 -8 11 -11zM517 574v-35h6v35h11v4h-29v-4h12zM476 572q3 -7 8 -13l12 -20h5v39h-5v-16q0 -11 1 -16q-4 8 -7 12l-13 20h-5v-39h4v17v16zM465 559q0 20 -18 20q-8 0 -13 -5.5t-5 -15.5q0 -20 18 -20q8 0 13 5.5t5 15.5zM408 561v13h16v4h-21v-39
h5v18h15v4h-15zM393 525h414v6h-414v-6zM796 445q0 32 -18 50q-18 19 -46 19q-31 0 -48 -20q-17 -18 -17 -50q0 -33 18 -51q18 -19 46 -19q29 0 47 19t18 52zM578 412q-6 9 -6 31q0 42 21 42q8 0 14 -7q5 -7 5 -19l37 2q-2 24 -16 38q-14 15 -41 15q-28 0 -45 -20
q-16 -19 -16 -51t17 -51q16 -18 44 -18q25 0 39 13q15 14 18 37l-36 2q-3 -22 -20 -22q-10 0 -15 8zM515 445q0 25 -17 47q-17 20 -51 20h-53v-136h55q29 0 48 19q18 19 18 50zM266 519q-11 -2 -17 -15t-3 -30t12.5 -27.5t20.5 -8.5v-8v-1q0 -17 8 -28q12 -17 36 -21
q11 -3 25 -4t29 -1v6q-11 0 -22 0.5t-20 1.5q-10 2 -14 3q-6 2 -10 4q-12 4 -19 14q-5 7 -7 19q7 -13 21 -19q3 -2 9 -4q13 -4 29 -5.5t33 -1.5v9q-17 0 -32.5 1t-27.5 5q-11 4 -18 9q-11 8 -14 18v5q3 9 6 15q10 13 33 18q4 1 14 3l2 2q1 0 2 1h1q1 1 4 1l2 1h1q1 -1 3 -1
l6 -3h1l3 3q3 3 5 3q6 2 8 2h1v108q-24 -1 -39.5 -8t-25.5 -19t-14.5 -27.5t-6.5 -32.5q-10 15 -25 13zM376 455q-12 0 -17 8q-4 -4 -10 -4q-11 0 -13 9v-2q0 -10 13 -10q7 0 10 4q5 -9 17 -9h1v4h-1zM808 362h-563v-339h563v339zM591 564q0 -3 -5 -6q-2 4 -2 6q0 4 4 4
q3 0 3 -4zM447 483q13 0 19 -12q7 -12 7 -26q0 -18 -8 -29q-7 -10 -18 -10h-13v77h13zM710 443q0 42 22 42q20 0 20 -37q0 -28 -5 -35q-4 -10 -16 -10q-21 0 -21 40zM276 446q-7 -2 -13 5t-8 12q-6 14 -4 27t11 17q9 5 15.5 0.5t11.5 -11.5q2 -2 -1 -17q-4 1 -8 -1
q4 -1 4.5 -2t2.5 -2q-4 0 -7 -0.5t-7 -1.5q6 -2 10 -6h-4.5t-4.5 -2q5 -2 6.5 -3.5l2.5 -2.5q-3 -10 -7 -12zM339 489q-12 1 -17.5 8t-4.5 8q31 17 40 1q1 -2 -3 -9.5t-14 -7.5h-1zM278 233q7 0 12 -3q4 -2 4 -8t-4 -9q-4 -4 -12 -4h-3v-14h-8v38h11zM278 215q7 0 7 6t-6 6
h-4v-11q1 -1 3 -1zM308 226v-8h14v-7h-14v-9h15v-7h-24v38h24v-7h-15zM356 223q0 -8 -6 -10q4 -2 5 -7q1 -3 1.5 -6t1.5 -5h-9q-1 2 -1 4t-2 5q-1 6 -6 6h-2v-15h-9v38h12q9 0 12 -2q3 -3 3 -8zM341 216q7 0 7 6q0 5 -6 5h-4v-11h3zM372 202q6 0 6 4q0 3 -6 5q-11 4 -11 11
q0 12 15 12q5 0 9 -2l-1 -7q-4 2 -8 2q-6 0 -6 -4q0 -2 7 -5q10 -4 10 -11q0 -12 -15 -12q-7 0 -11 2l2 7q4 -2 9 -2zM391 214q0 8 5 14t13 6q9 0 13.5 -5.5t4.5 -13.5q0 -20 -18 -20t-18 19zM418 214q0 13 -9 13t-9 -13q0 -12 9 -12t9 12zM447 210q-2 3 -3.5 6.5t-2.5 6.5
h-1q1 -5 1 -16v-12h-8v38h10l8 -14q4 -8 6 -13q0 4 -0.5 7.5t-0.5 8.5v11h8v-38h-9zM480 233h12l11 -38h-9l-3 10h-11l-2 -10h-9zM482 211h8l-2 9q-2 4 -2 7q-1 -2 -1 -3.5t-1 -3.5zM517 233v-30h15v-8h-23v38h8zM557 233v-22q0 -9 7 -9t7 9v22h8v-21q0 -17 -15 -17
q-16 0 -16 17v21h9zM596 202q6 0 6 4t-6 5q-10 3 -10 11q0 12 14 12q4 0 10 -2l-2 -7q-4 2 -8 2q-6 0 -6 -4q0 -2 7 -5q10 -4 10 -11q0 -12 -15 -12q-7 0 -11 2l2 7q4 -2 9 -2zM626 226v-8h13v-7h-13v-9h15v-7h-24v38h23v-7h-14zM656 214q0 8 5.5 14t13.5 6t13 -5.5t5 -13.5
q0 -20 -19 -20q-18 0 -18 19zM684 214q0 13 -9 13t-9 -13q0 -12 9 -12t9 12zM713 210q-2 3 -3.5 6.5t-3.5 6.5v-16v-12h-8v38h10l8 -14q5 -6 6 -13h1q-1 5 -1 16v11h8v-38h-9zM746 233v-30h15v-8h-24v38h9zM769 195v16l-11 22h9l4 -9q1 -3 3 -7q2 4 3 7l4 9h9l-12 -22v-16
h-9zM271 162v-13q0 -6 4 -6t4 6v13h6v-13q0 -11 -10 -11t-10 11v13h6zM295 143q4 0 4 2q0 3 -4 4q-6 1 -6 7q0 7 9 7q2 0 6 -2l-2 -4q-1 1 -5 1q-3 0 -3 -2t4 -3q7 -3 7 -7q0 -8 -10 -8q-3 0 -7 2l1 4q2 -1 6 -1zM314 162h7l7 -23h-6l-2 6h-6l-2 -6h-6zM314 149h6l-2 5
q0 1 -0.5 2t-0.5 2q0 -1 -0.5 -2t-0.5 -2zM343 158q-8 0 -8 -8q0 -7 7 -7h3v5h-4v4h9v-12q-4 -2 -8 -2q-5 0 -9 4q-4 3 -4 8q0 13 14 13q4 0 6 -2l-1 -4q-1 1 -5 1zM360 158v-5h8v-4h-8v-6h9v-4h-15v23h15v-4h-9zM387 162q6 0 7 -1q3 -3 3 -6t-2 -5q-3 -3 -8 -3h-2v-8h-5v23
h7zM387 151q5 0 5 4q0 3 -5 3h-2v-7h2zM406 158v-5h8v-4h-8v-6h9v-4h-15v23h15v-4h-9zM436 156q0 -4 -4 -6q2 -2 3 -5q1 -2 1 -3.5t1 -2.5h-6q-1 0 -1 1v4q-1 4 -4 4h-2v-9h-5v23h7q6 0 8 -1q2 -4 2 -5zM426 152q5 0 5 3t-4 3h-3v-6h2zM446 143q4 0 4 2t-4 4q-7 2 -7 7
q0 7 9 7q4 0 6 -2l-1 -4q-1 1 -5 1q-3 0 -3 -2t4 -3q6 -3 6 -7q0 -8 -9 -8q-5 0 -7 2l1 4q1 -1 6 -1zM458 150q0 13 11 13q5 0 8 -3.5t3 -8.5q0 -13 -11 -13q-5 0 -8 3.5t-3 8.5zM475 151q0 7 -6 7t-6 -8q0 -7 6 -7t6 8zM493 148q-2 2 -4 8h-1q1 -3 1 -10v-7h-5v23h6l5 -8
l2 -4l2 -4q-1 3 -1 9v7h5v-23h-5zM517 148q-2 2 -4 8v-10v-7h-5v23h6l5 -8l2 -4l2 -4v9v7h4v-23h-5zM537 158v-5h9v-4h-9v-6h10v-4h-15v23h15v-4h-10zM556 162v-19h10v-4h-15v23h5zM581 162v-13q0 -6 4 -6q5 0 5 6v13h5v-13q0 -11 -10 -11q-9 0 -9 11v13h5zM609 148
q-2 2 -2.5 4t-2.5 4q0 -2 0.5 -4.5t0.5 -5.5v-7h-5v23h6l5 -8l2 -4l2 -4q-1 3 -1 9v7h5v-23h-5zM624 139v23h5v-23h-5zM655 151q0 -8 -5 -11q2 0 3 -0.5t2 -0.5l-1 -4l-9 3h-2q-10 2 -10 12q0 13 11 13q5 0 8 -3.5t3 -8.5zM644 143q6 0 6 8q0 7 -6 7t-6 -8q0 -7 6 -7z
M664 162v-13q0 -6 4 -6q5 0 5 6v13h5v-13q0 -11 -10 -11q-9 0 -9 11v13h5zM688 158v-5h9v-4h-9v-6h10v-4h-15v23h14v-4h-9zM719 162h7l1 -23h-5l-1 9v9l-3 -9l-2 -9h-5l-2 9q-2 6 -2 9q0 -2 -0.5 -4.5t-0.5 -4.5v-9h-5l1 23h8l2 -8q1 -2 1 -4t1 -4q1 2 1 4t1 4zM736 158v-5
h9v-4h-9v-6h10v-4h-15v23h15v-4h-10zM759 148q-2 2 -4 8h-1q1 -3 1 -10v-7h-5v23h6l5 -8l2 -4l2 -4q0 2 -0.5 4.5t-0.5 4.5v7h5v-23h-5zM779 139v19h-7v4h18v-4h-6v-19h-5zM328 89q9 0 9 -10t-9 -10q-10 0 -10 10t10 10zM328 71q7 0 7 8t-8 8q-7 0 -7 -8t8 -8zM330 75l1 1
l1 -2q-1 0 -2 -0.5t-2 -0.5q-6 0 -6 6t6 6q3 0 4 -1l-1 -1h-3q-4 0 -4 -4t4 -4h2zM356 73v-4h-5v2q-2 -3 -5 -3q-7 0 -7 8q0 9 7 9q3 0 5 -2v8h5v-18zM351 78q-2 3 -3 3q-4 0 -4 -5q0 -4 4 -4q1 0 3 2v2v2zM368 81q-4 0 -4 -5q0 -4 4 -4q2 0 3 1v-4q-1 0 -1.5 -0.5
t-2.5 -0.5q-8 0 -8 8q0 9 9 9q1 0 1.5 -0.5t1.5 -0.5l-1 -4q0 1 -2 1zM381 85q8 0 8 -8q0 -9 -8 -9t-8 8q0 9 8 9zM381 72q3 0 3 4q0 5 -3 5t-3 -5q0 -4 3 -4zM407 73q0 -3 1 -4h-5v2q-2 -3 -5 -3q-7 0 -7 8q0 9 7 9q4 0 4 -2h1v8h4v-18zM403 78h-1q0 3 -2 3q-4 0 -4 -5
q0 -4 4 -4q2 0 2 2q0 1 0.5 1t0.5 1v2zM424 69q-1 0 -2 -0.5t-3 -0.5q-9 0 -9 8q0 3 2 6t6 3q7 0 7 -8v-2h-10q0 -3 5 -3h4v-3zM418 81q-3 0 -3 -3h6q0 3 -3 3zM432 72q3 0 3 1l-3 2q-4 1 -4 4q0 6 6 6q2 0 3 -0.5t2 -0.5l-1 -4q-1 1 -4 1q-2 0 -2 -1t3 -2q4 -1 4 -5
q0 -5 -7 -5q-2 0 -2.5 0.5t-2.5 0.5l1 4q1 -1 4 -1zM445 91q2 0 2 -2q0 -3 -2 -3q-3 0 -3 3q0 2 3 2zM442 84h5v-15h-5v15zM457 66q4 0 4 4v1q-1 -2 -4 -2q-7 0 -7 7q0 9 7 9q3 0 5 -3v2h4v-4v-9q0 -6 -3 -7q-1 -2 -6 -2q-4 0 -6 1l1 4q1 -1 5 -1zM461 78v1q0 2 -3 2t-3 -5
q0 -4 3 -4q1 0 3 2v2v2zM479 85q6 0 6 -7v-9h-5v8q0 4 -3 4q-2 0 -2 -2v-1v-9h-5v10v5h4v-2q3 3 5 3zM496 75h-8v4h8v-4zM509 81h9v-11q-4 -2 -8 -2q-5 0 -8 3q-4 4 -4 8q2 11 13 11q5 0 6 -1l-1 -4q-1 1 -5 1q-7 0 -7 -7t6 -7q2 0 3 1v4h-4v4zM521 69v10v5h4l1 -3q0 4 4 4
l1 -1v-4h-1q-2 0 -4 -2v-2v-7h-5zM547 75h-10q0 -3 4 -3h5v-3q-1 0 -2 -0.5t-3 -0.5q-9 0 -9 8q0 3 2 6t6 3q7 0 7 -8v-2zM543 78q0 3 -3 3t-3 -3h6zM556 66q4 0 4 4v1q-1 -2 -4 -2q-7 0 -7 7q0 9 7 9q3 0 5 -3v2h4v-4v-9q0 -5 -2 -7t-7 -2q-4 0 -5 1l1 4q1 -1 4 -1zM560 78
v1q0 2 -3 2t-3 -5q0 -4 3 -4t3 2v2v2zM584 77q0 -9 -8 -9t-8 8q0 9 8 9t8 -8zM573 76q0 -4 3 -4t3 4q0 5 -3 5t-3 -5zM587 69v10v5h5v-3q1 4 4 4q1 0 1 -1v-4h-1q-2 0 -4 -2v-2v-7h-5zM604 68v1v1l-6 14h6l2 -8l1 -1v-1l1 2l2 8h5l-4 -10q-3 -9 -5 -10q-2 -2 -3 -2t-2 -1
l-1 5h2zM646 90l1 -21h-5v8v9l-3 -9l-2 -8h-4l-2 8q-2 6 -2 9q-1 -2 -1 -4.5v-4.5v-8h-5l2 21h6l2 -7q2 -6 2 -8q1 2 1 4t1 4l3 7h6zM658 85q7 0 7 -8v-2h-10q0 -3 4 -3h4l1 -3q-2 0 -3 -0.5t-3 -0.5q-8 0 -8 8q0 3 1.5 6t6.5 3zM660 78q0 3 -2 3t-2.5 -1t-1.5 -2h6zM683 73
v-4h-4v2h-1q-2 -3 -4 -3q-7 0 -7 8q0 9 7 9q2 0 4 -2v8h5v-18zM678 78q0 3 -3 3t-3 -5q0 -4 3 -4t3 2v2v2zM689 91q3 0 3 -2q0 -3 -3 -3q-2 0 -2 3q0 2 2 2zM687 84h5v-15h-5v15zM705 85q6 0 6 -7v-9h-5v8q0 4 -3 4q-2 0 -2 -2v-1v-9h-5v10v5h4v-2q3 3 5 3zM728 72v-3h-5v1
q-2 -2 -4 -2q-6 0 -6 5q0 6 10 6q0 2 -3 2q-4 0 -5 -1v3q2 2 6 2q7 0 7 -7v-6zM723 76q-5 0 -5 -3q0 -1 2 -1t3 1v1v2zM292 271h-16v71q10 2 22 2q15 0 23 -6q7 -4 7 -15q0 -7 -4 -11.5t-9 -6.5q7 -3 10 -13q2 -7 3 -13t3 -8h-17q-2 4 -5 17q-2 11 -12 12h-5v-29zM292 311h7
q13 0 13 11q0 10 -12 10q-3 0 -4.5 -0.5t-3.5 -0.5v-20zM386 271h-46v72h44v-13h-28v-15h27v-13h-27v-17h30v-14zM410 271h-15l5 72h21l8 -24q2 -6 3 -12.5t3 -13.5q2 7 3.5 13.5t3.5 12.5l7 24h22l4 -72h-16l-1 28q-1 6 -1 13.5v15.5q-3 -12 -8 -28l-9 -28h-13l-7 28
q-2 7 -3.5 14t-3.5 14q-1 -7 -1 -14.5v-14.5zM504 271h-17v72h17v-72zM533 271h-15v72h19l15 -26q3 -6 6 -12.5t6 -12.5q-1 8 -1.5 15t-0.5 15v21h15v-72h-17l-15 28q-3 6 -6.5 12.5t-6.5 12.5q1 -7 1 -14.5v-16.5v-22zM643 280q-10 -10 -33 -10q-6 0 -10.5 0.5t-7.5 0.5v71
q5 1 10 1.5t12 0.5q18 0 29 -8q12 -8 12 -27t-12 -29zM608 283h6q11 0 17.5 6t6.5 19q0 23 -23 23h-7v-48zM712 271h-46v72h45v-13h-29v-15h27v-13h-27v-17h30v-14zM739 271h-16v71q10 2 22 2q15 0 23 -6q7 -4 7 -15q0 -7 -4 -11.5t-9 -6.5q7 -3 10 -13q2 -7 3 -13t3 -8h-17
q-2 4 -5 17q-2 11 -12 12h-5v-29zM739 311h7q13 0 13 11q0 10 -12 10q-3 0 -4.5 -0.5t-3.5 -0.5v-20zM791 249h-527v6h527v-6zM791 173h-527v6h527v-6zM791 119h-527v7h527v-7zM431 51h3l-4 -14h-4l-2 9l-3 -9h-3l-5 14h4l2 -9l3 9h4l2 -9zM452 51h4l-5 -14h-3l-3 9l-2 -9
h-4l-4 14h3l3 -9l3 9h3l3 -9zM474 51h4l-5 -14h-4l-2 9l-2 -9h-4l-5 14h4l3 -9l2 9h4l2 -9zM479 41h4v-4h-4v4zM496 57h4v-20h-4v2q0 -2 -2 -2q-1 0 -2 -1q-1 0 -5 2q-1 2 -1 6t1 6q2 2 5 2q2 0 4 -2v7zM495 41q1 0 1 3t-1 4q-1 0 -1 0.5t-1 0.5t-1.5 -0.5t-1.5 -0.5
q0 -1 -0.5 -1.5t-0.5 -2.5q0 -1 0.5 -1.5t0.5 -1.5q2 -2 3 -2zM511 40q1 1 1 2h4q0 -2 -2 -4t-4 -2t-6 2q-1 2 -1 6t1 6q4 2 6 2t4 -2q2 0 2 -3l-4 -1q0 2 -1 2l-1 1q-1 0 -1.5 -0.5t-1.5 -0.5v-4v-3q1 -1 3 -1h1zM525 52q3 0 6 -3q2 -2 2 -5t-2 -5q-3 -3 -6 -3
q-1 0 -1.5 0.5t-1.5 0.5q-2 1 -2 1.5t-1 1.5t-1 4t1 4t1 1.5t2 1.5q1 0 1.5 0.5t1.5 0.5zM528 41q1 0 1 3t-1 3q-1 1 -3 1q-1 0 -2 -1q-1 0 -1 -3t1 -3q1 -1 2 -1q2 0 3 1zM544 44l5 -7h-5l-3 4l-2 -4h-5l5 7l-5 7h5l2 -4l3 4h5zM560 51h4l-5 -14l-1 -2q0 -2 -1 -2
q0 -1 -1 -1l-1 -1h-2h-2l-1 3h2q2 0 2 1l1 2l-5 14h4l3 -10zM565 41h4v-4h-4v4zM581 40q0 1 1 2h3q0 -2 -2 -4t-4 -2q-3 0 -5 2t-2 6t2 6t5 2q2 0 4 -2q2 0 2 -3l-4 -1q0 2 -1 2l-1 1q-1 0 -1.5 -0.5t-1.5 -0.5v-4v-3q1 -1 3 -1h2zM595 52q2 0 5 -3q2 -2 2 -5t-2 -5
q-3 -3 -5 -3t-2.5 0.5t-1.5 0.5l-3 3q-1 1 -1 4t1 4l3 3q1 0 1.5 0.5t2.5 0.5zM597 41q1 0 1 3t-1 3q-1 1 -2 1q-2 0 -3 -1q-1 0 -1 -3t1 -3q1 -1 3 -1q1 0 2 1zM624 51q1 -1 1 -2q1 -1 1 -3v-9h-4v8v3q-1 0 -1 0.5t-1 0.5t-1 -1q-1 0 -1 -1q-1 -1 -1 -3v-7h-4v8v2v1
q-1 1 -2 1l-1 -1q-1 0 -1 -1t-0.5 -1.5t-0.5 -1.5v-7h-3v14h3v-2q1 3 5 3q1 0 1 -0.5t1 -0.5l2 -2q0 2 2 2q1 0 1 0.5t1 0.5t1.5 -0.5t1.5 -0.5z" />
    <glyph glyph-name="nine" unicode="9" 
d="M435 558q0 7 3 12t9 5q7 0 10 -5t3 -11q0 -7 -3.5 -12t-9.5 -5t-9 5t-3 11zM625 574h6q16 0 16 -15q0 -16 -17 -16h-5v31zM580 548q0 3 5 6q6 -8 8 -10q-2 -2 -6 -2q-7 0 -7 6zM834 611v-611h-616v611h616zM393 586h414v6h-414v-6zM772 572q2 -3 3.5 -6.5t3.5 -6.5
l13 -20h5v39h-5v-16q0 -11 1 -16q-4 8 -7 12l-13 20h-5v-39h4v17v16zM748 543q-15 0 -15 16q0 15 16 15q6 0 8 -1l2 4q-4 2 -10 2q-10 0 -15.5 -6t-5.5 -15t5 -14t15 -5q8 0 12 2v19h-13v-5h8v-11q-1 -1 -7 -1zM716 578v-39h5v39h-5zM697 557q7 -3 7 -8q0 -6 -8 -6
q-5 0 -9 2l-2 -4q4 -3 10 -3q8 0 11 3.5t3 8.5q0 8 -10 11q-8 3 -8 8q0 2 1.5 4t6.5 2t7 -2l2 4q-4 2 -9 2q-13 0 -13 -11q0 -8 11 -11zM664 562v12h16v4h-21v-39h22v4h-17v14h15v5h-15zM652 559q0 8 -5 15q-5 4 -16 4h-11v-39h9q11 0 18 5q5 7 5 15zM580 563q0 -3 3 -6v-1
q-6 -3 -6 -9q0 -3 2 -6t7 -3t9 4q2 -1 2 -1.5t1 -1.5h5q-2 2 -2.5 3t-2.5 3q4 4 4 11h-3l-3 -9q-2 2 -4 4.5t-4 4.5q7 3 7 8q0 7 -7 7q-8 0 -8 -8zM548 557q7 -3 7 -8q0 -6 -8 -6q-5 0 -9 2l-1 -4q3 -3 10 -3t10 3.5t3 8.5q0 8 -10 11q-8 3 -8 8q0 2 1.5 4t6.5 2t7 -2l2 4
q-4 2 -9 2q-13 0 -13 -11q0 -8 11 -11zM517 574v-35h6v35h11v4h-29v-4h12zM476 572q3 -7 8 -13l12 -20h5v39h-5v-16q0 -11 1 -16q-4 8 -7 12l-13 20h-5v-39h4v17v16zM465 559q0 20 -18 20q-8 0 -13 -5.5t-5 -15.5q0 -20 18 -20q8 0 13 5.5t5 15.5zM408 561v13h16v4h-21v-39
h5v18h15v4h-15zM393 525h414v6h-414v-6zM796 445q0 32 -18 50q-18 19 -46 19q-31 0 -48 -20q-17 -18 -17 -50q0 -33 18 -51q18 -19 46 -19q29 0 47 19t18 52zM578 412q-6 9 -6 31q0 42 21 42q8 0 14 -7q5 -7 5 -19l37 2q-2 24 -16 38q-14 15 -41 15q-28 0 -45 -20
q-16 -19 -16 -51t17 -51q16 -18 44 -18q25 0 39 13q15 14 18 37l-36 2q-3 -22 -20 -22q-10 0 -15 8zM515 445q0 25 -17 47q-17 20 -51 20h-53v-136h55q29 0 48 19q18 19 18 50zM266 519q-11 -2 -17 -15t-3 -30t12.5 -27.5t20.5 -8.5v-8v-1q0 -17 8 -28q12 -17 36 -21
q11 -3 25 -4t29 -1v6q-11 0 -22 0.5t-20 1.5q-10 2 -14 3q-6 2 -10 4q-12 4 -19 14q-5 7 -7 19q7 -13 21 -19q3 -2 9 -4q13 -4 29 -5.5t33 -1.5v9q-17 0 -32.5 1t-27.5 5q-11 4 -18 9q-11 8 -14 18v5q3 9 6 15q10 13 33 18q4 1 14 3l2 2q1 0 2 1h1q1 1 4 1l2 1h1q1 -1 3 -1
l6 -3h1l3 3q3 3 5 3q6 2 8 2h1v108q-24 -1 -39.5 -8t-25.5 -19t-14.5 -27.5t-6.5 -32.5q-10 15 -25 13zM376 455q-12 0 -17 8q-4 -4 -10 -4q-11 0 -13 9v-2q0 -10 13 -10q7 0 10 4q5 -9 17 -9h1v4h-1zM808 362h-563v-339h563v339zM591 564q0 -3 -5 -6q-2 4 -2 6q0 4 4 4
q3 0 3 -4zM447 483q13 0 19 -12q7 -12 7 -26q0 -18 -8 -29q-7 -10 -18 -10h-13v77h13zM710 443q0 42 22 42q20 0 20 -37q0 -28 -5 -35q-4 -10 -16 -10q-21 0 -21 40zM276 446q-7 -2 -13 5t-8 12q-6 14 -4 27t11 17q9 5 15.5 0.5t11.5 -11.5q2 -2 -1 -17q-4 1 -8 -1
q4 -1 4.5 -2t2.5 -2q-4 0 -7 -0.5t-7 -1.5q6 -2 10 -6h-4.5t-4.5 -2q5 -2 6.5 -3.5l2.5 -2.5q-3 -10 -7 -12zM339 489q-12 1 -17.5 8t-4.5 8q31 17 40 1q1 -2 -3 -9.5t-14 -7.5h-1zM278 233q7 0 12 -3q4 -2 4 -8t-4 -9q-4 -4 -12 -4h-3v-14h-8v38h11zM278 215q7 0 7 6t-6 6
h-4v-11q1 -1 3 -1zM308 226v-8h14v-7h-14v-9h15v-7h-24v38h24v-7h-15zM356 223q0 -8 -6 -10q4 -2 5 -7q1 -3 1.5 -6t1.5 -5h-9q-1 2 -1 4t-2 5q-1 6 -6 6h-2v-15h-9v38h12q9 0 12 -2q3 -3 3 -8zM341 216q7 0 7 6q0 5 -6 5h-4v-11h3zM372 202q6 0 6 4q0 3 -6 5q-11 4 -11 11
q0 12 15 12q5 0 9 -2l-1 -7q-4 2 -8 2q-6 0 -6 -4q0 -2 7 -5q10 -4 10 -11q0 -12 -15 -12q-7 0 -11 2l2 7q4 -2 9 -2zM391 214q0 8 5 14t13 6q9 0 13.5 -5.5t4.5 -13.5q0 -20 -18 -20t-18 19zM418 214q0 13 -9 13t-9 -13q0 -12 9 -12t9 12zM447 210q-2 3 -3.5 6.5t-2.5 6.5
h-1q1 -5 1 -16v-12h-8v38h10l8 -14q4 -8 6 -13q0 4 -0.5 7.5t-0.5 8.5v11h8v-38h-9zM480 233h12l11 -38h-9l-3 10h-11l-2 -10h-9zM482 211h8l-2 9q-2 4 -2 7q-1 -2 -1 -3.5t-1 -3.5zM517 233v-30h15v-8h-23v38h8zM557 233v-22q0 -9 7 -9t7 9v22h8v-21q0 -17 -15 -17
q-16 0 -16 17v21h9zM596 202q6 0 6 4t-6 5q-10 3 -10 11q0 12 14 12q4 0 10 -2l-2 -7q-4 2 -8 2q-6 0 -6 -4q0 -2 7 -5q10 -4 10 -11q0 -12 -15 -12q-7 0 -11 2l2 7q4 -2 9 -2zM626 226v-8h13v-7h-13v-9h15v-7h-24v38h23v-7h-14zM656 214q0 8 5.5 14t13.5 6t13 -5.5t5 -13.5
q0 -20 -19 -20q-18 0 -18 19zM684 214q0 13 -9 13t-9 -13q0 -12 9 -12t9 12zM713 210q-2 3 -3.5 6.5t-3.5 6.5v-16v-12h-8v38h10l8 -14q5 -6 6 -13h1q-1 5 -1 16v11h8v-38h-9zM746 233v-30h15v-8h-24v38h9zM769 195v16l-11 22h9l4 -9q1 -3 3 -7q2 4 3 7l4 9h9l-12 -22v-16
h-9zM271 162v-13q0 -6 4 -6t4 6v13h6v-13q0 -11 -10 -11t-10 11v13h6zM295 143q4 0 4 2q0 3 -4 4q-6 1 -6 7q0 7 9 7q2 0 6 -2l-2 -4q-1 1 -5 1q-3 0 -3 -2t4 -3q7 -3 7 -7q0 -8 -10 -8q-3 0 -7 2l1 4q2 -1 6 -1zM314 162h7l7 -23h-6l-2 6h-6l-2 -6h-6zM314 149h6l-2 5
q0 1 -0.5 2t-0.5 2q0 -1 -0.5 -2t-0.5 -2zM343 158q-8 0 -8 -8q0 -7 7 -7h3v5h-4v4h9v-12q-4 -2 -8 -2q-5 0 -9 4q-4 3 -4 8q0 13 14 13q4 0 6 -2l-1 -4q-1 1 -5 1zM360 158v-5h8v-4h-8v-6h9v-4h-15v23h15v-4h-9zM387 162q6 0 7 -1q3 -3 3 -6t-2 -5q-3 -3 -8 -3h-2v-8h-5v23
h7zM387 151q5 0 5 4q0 3 -5 3h-2v-7h2zM406 158v-5h8v-4h-8v-6h9v-4h-15v23h15v-4h-9zM436 156q0 -4 -4 -6q2 -2 3 -5q1 -2 1 -3.5t1 -2.5h-6q-1 0 -1 1v4q-1 4 -4 4h-2v-9h-5v23h7q6 0 8 -1q2 -4 2 -5zM426 152q5 0 5 3t-4 3h-3v-6h2zM446 143q4 0 4 2t-4 4q-7 2 -7 7
q0 7 9 7q4 0 6 -2l-1 -4q-1 1 -5 1q-3 0 -3 -2t4 -3q6 -3 6 -7q0 -8 -9 -8q-5 0 -7 2l1 4q1 -1 6 -1zM458 150q0 13 11 13q5 0 8 -3.5t3 -8.5q0 -13 -11 -13q-5 0 -8 3.5t-3 8.5zM475 151q0 7 -6 7t-6 -8q0 -7 6 -7t6 8zM493 148q-2 2 -4 8h-1q1 -3 1 -10v-7h-5v23h6l5 -8
l2 -4l2 -4q-1 3 -1 9v7h5v-23h-5zM517 148q-2 2 -4 8v-10v-7h-5v23h6l5 -8l2 -4l2 -4v9v7h4v-23h-5zM537 158v-5h9v-4h-9v-6h10v-4h-15v23h15v-4h-10zM556 162v-19h10v-4h-15v23h5zM581 162v-13q0 -6 4 -6q5 0 5 6v13h5v-13q0 -11 -10 -11q-9 0 -9 11v13h5zM609 148
q-2 2 -2.5 4t-2.5 4q0 -2 0.5 -4.5t0.5 -5.5v-7h-5v23h6l5 -8l2 -4l2 -4q-1 3 -1 9v7h5v-23h-5zM624 139v23h5v-23h-5zM655 151q0 -8 -5 -11q2 0 3 -0.5t2 -0.5l-1 -4l-9 3h-2q-10 2 -10 12q0 13 11 13q5 0 8 -3.5t3 -8.5zM644 143q6 0 6 8q0 7 -6 7t-6 -8q0 -7 6 -7z
M664 162v-13q0 -6 4 -6q5 0 5 6v13h5v-13q0 -11 -10 -11q-9 0 -9 11v13h5zM688 158v-5h9v-4h-9v-6h10v-4h-15v23h14v-4h-9zM719 162h7l1 -23h-5l-1 9v9l-3 -9l-2 -9h-5l-2 9q-2 6 -2 9q0 -2 -0.5 -4.5t-0.5 -4.5v-9h-5l1 23h8l2 -8q1 -2 1 -4t1 -4q1 2 1 4t1 4zM736 158v-5
h9v-4h-9v-6h10v-4h-15v23h15v-4h-10zM759 148q-2 2 -4 8h-1q1 -3 1 -10v-7h-5v23h6l5 -8l2 -4l2 -4q0 2 -0.5 4.5t-0.5 4.5v7h5v-23h-5zM779 139v19h-7v4h18v-4h-6v-19h-5zM328 89q9 0 9 -10t-9 -10q-10 0 -10 10t10 10zM328 71q7 0 7 8t-8 8q-7 0 -7 -8t8 -8zM330 75l1 1
l1 -2q-1 0 -2 -0.5t-2 -0.5q-6 0 -6 6t6 6q3 0 4 -1l-1 -1h-3q-4 0 -4 -4t4 -4h2zM356 73v-4h-5v2q-2 -3 -5 -3q-7 0 -7 8q0 9 7 9q3 0 5 -2v8h5v-18zM351 78q-2 3 -3 3q-4 0 -4 -5q0 -4 4 -4q1 0 3 2v2v2zM368 81q-4 0 -4 -5q0 -4 4 -4q2 0 3 1v-4q-1 0 -1.5 -0.5
t-2.5 -0.5q-8 0 -8 8q0 9 9 9q1 0 1.5 -0.5t1.5 -0.5l-1 -4q0 1 -2 1zM381 85q8 0 8 -8q0 -9 -8 -9t-8 8q0 9 8 9zM381 72q3 0 3 4q0 5 -3 5t-3 -5q0 -4 3 -4zM407 73q0 -3 1 -4h-5v2q-2 -3 -5 -3q-7 0 -7 8q0 9 7 9q4 0 4 -2h1v8h4v-18zM403 78h-1q0 3 -2 3q-4 0 -4 -5
q0 -4 4 -4q2 0 2 2q0 1 0.5 1t0.5 1v2zM424 69q-1 0 -2 -0.5t-3 -0.5q-9 0 -9 8q0 3 2 6t6 3q7 0 7 -8v-2h-10q0 -3 5 -3h4v-3zM418 81q-3 0 -3 -3h6q0 3 -3 3zM432 72q3 0 3 1l-3 2q-4 1 -4 4q0 6 6 6q2 0 3 -0.5t2 -0.5l-1 -4q-1 1 -4 1q-2 0 -2 -1t3 -2q4 -1 4 -5
q0 -5 -7 -5q-2 0 -2.5 0.5t-2.5 0.5l1 4q1 -1 4 -1zM445 91q2 0 2 -2q0 -3 -2 -3q-3 0 -3 3q0 2 3 2zM442 84h5v-15h-5v15zM457 66q4 0 4 4v1q-1 -2 -4 -2q-7 0 -7 7q0 9 7 9q3 0 5 -3v2h4v-4v-9q0 -6 -3 -7q-1 -2 -6 -2q-4 0 -6 1l1 4q1 -1 5 -1zM461 78v1q0 2 -3 2t-3 -5
q0 -4 3 -4q1 0 3 2v2v2zM479 85q6 0 6 -7v-9h-5v8q0 4 -3 4q-2 0 -2 -2v-1v-9h-5v10v5h4v-2q3 3 5 3zM496 75h-8v4h8v-4zM509 81h9v-11q-4 -2 -8 -2q-5 0 -8 3q-4 4 -4 8q2 11 13 11q5 0 6 -1l-1 -4q-1 1 -5 1q-7 0 -7 -7t6 -7q2 0 3 1v4h-4v4zM521 69v10v5h4l1 -3q0 4 4 4
l1 -1v-4h-1q-2 0 -4 -2v-2v-7h-5zM547 75h-10q0 -3 4 -3h5v-3q-1 0 -2 -0.5t-3 -0.5q-9 0 -9 8q0 3 2 6t6 3q7 0 7 -8v-2zM543 78q0 3 -3 3t-3 -3h6zM556 66q4 0 4 4v1q-1 -2 -4 -2q-7 0 -7 7q0 9 7 9q3 0 5 -3v2h4v-4v-9q0 -5 -2 -7t-7 -2q-4 0 -5 1l1 4q1 -1 4 -1zM560 78
v1q0 2 -3 2t-3 -5q0 -4 3 -4t3 2v2v2zM584 77q0 -9 -8 -9t-8 8q0 9 8 9t8 -8zM573 76q0 -4 3 -4t3 4q0 5 -3 5t-3 -5zM587 69v10v5h5v-3q1 4 4 4q1 0 1 -1v-4h-1q-2 0 -4 -2v-2v-7h-5zM604 68v1v1l-6 14h6l2 -8l1 -1v-1l1 2l2 8h5l-4 -10q-3 -9 -5 -10q-2 -2 -3 -2t-2 -1
l-1 5h2zM646 90l1 -21h-5v8v9l-3 -9l-2 -8h-4l-2 8q-2 6 -2 9q-1 -2 -1 -4.5v-4.5v-8h-5l2 21h6l2 -7q2 -6 2 -8q1 2 1 4t1 4l3 7h6zM658 85q7 0 7 -8v-2h-10q0 -3 4 -3h4l1 -3q-2 0 -3 -0.5t-3 -0.5q-8 0 -8 8q0 3 1.5 6t6.5 3zM660 78q0 3 -2 3t-2.5 -1t-1.5 -2h6zM683 73
v-4h-4v2h-1q-2 -3 -4 -3q-7 0 -7 8q0 9 7 9q2 0 4 -2v8h5v-18zM678 78q0 3 -3 3t-3 -5q0 -4 3 -4t3 2v2v2zM689 91q3 0 3 -2q0 -3 -3 -3q-2 0 -2 3q0 2 2 2zM687 84h5v-15h-5v15zM705 85q6 0 6 -7v-9h-5v8q0 4 -3 4q-2 0 -2 -2v-1v-9h-5v10v5h4v-2q3 3 5 3zM728 72v-3h-5v1
q-2 -2 -4 -2q-6 0 -6 5q0 6 10 6q0 2 -3 2q-4 0 -5 -1v3q2 2 6 2q7 0 7 -7v-6zM723 76q-5 0 -5 -3q0 -1 2 -1t3 1v1v2zM292 271h-16v71q10 2 22 2q15 0 23 -6q7 -4 7 -15q0 -7 -4 -11.5t-9 -6.5q7 -3 10 -13q2 -7 3 -13t3 -8h-17q-2 4 -5 17q-2 11 -12 12h-5v-29zM292 311h7
q13 0 13 11q0 10 -12 10q-3 0 -4.5 -0.5t-3.5 -0.5v-20zM386 271h-46v72h44v-13h-28v-15h27v-13h-27v-17h30v-14zM410 271h-15l5 72h21l8 -24q2 -6 3 -12.5t3 -13.5q2 7 3.5 13.5t3.5 12.5l7 24h22l4 -72h-16l-1 28q-1 6 -1 13.5v15.5q-3 -12 -8 -28l-9 -28h-13l-7 28
q-2 7 -3.5 14t-3.5 14q-1 -7 -1 -14.5v-14.5zM504 271h-17v72h17v-72zM533 271h-15v72h19l15 -26q3 -6 6 -12.5t6 -12.5q-1 8 -1.5 15t-0.5 15v21h15v-72h-17l-15 28q-3 6 -6.5 12.5t-6.5 12.5q1 -7 1 -14.5v-16.5v-22zM643 280q-10 -10 -33 -10q-6 0 -10.5 0.5t-7.5 0.5v71
q5 1 10 1.5t12 0.5q18 0 29 -8q12 -8 12 -27t-12 -29zM608 283h6q11 0 17.5 6t6.5 19q0 23 -23 23h-7v-48zM712 271h-46v72h45v-13h-29v-15h27v-13h-27v-17h30v-14zM739 271h-16v71q10 2 22 2q15 0 23 -6q7 -4 7 -15q0 -7 -4 -11.5t-9 -6.5q7 -3 10 -13q2 -7 3 -13t3 -8h-17
q-2 4 -5 17q-2 11 -12 12h-5v-29zM739 311h7q13 0 13 11q0 10 -12 10q-3 0 -4.5 -0.5t-3.5 -0.5v-20zM791 249h-527v6h527v-6zM791 173h-527v6h527v-6zM791 119h-527v7h527v-7zM431 51h3l-4 -14h-4l-2 9l-3 -9h-3l-5 14h4l2 -9l3 9h4l2 -9zM452 51h4l-5 -14h-3l-3 9l-2 -9
h-4l-4 14h3l3 -9l3 9h3l3 -9zM474 51h4l-5 -14h-4l-2 9l-2 -9h-4l-5 14h4l3 -9l2 9h4l2 -9zM479 41h4v-4h-4v4zM496 57h4v-20h-4v2q0 -2 -2 -2q-1 0 -2 -1q-1 0 -5 2q-1 2 -1 6t1 6q2 2 5 2q2 0 4 -2v7zM495 41q1 0 1 3t-1 4q-1 0 -1 0.5t-1 0.5t-1.5 -0.5t-1.5 -0.5
q0 -1 -0.5 -1.5t-0.5 -2.5q0 -1 0.5 -1.5t0.5 -1.5q2 -2 3 -2zM511 40q1 1 1 2h4q0 -2 -2 -4t-4 -2t-6 2q-1 2 -1 6t1 6q4 2 6 2t4 -2q2 0 2 -3l-4 -1q0 2 -1 2l-1 1q-1 0 -1.5 -0.5t-1.5 -0.5v-4v-3q1 -1 3 -1h1zM525 52q3 0 6 -3q2 -2 2 -5t-2 -5q-3 -3 -6 -3
q-1 0 -1.5 0.5t-1.5 0.5q-2 1 -2 1.5t-1 1.5t-1 4t1 4t1 1.5t2 1.5q1 0 1.5 0.5t1.5 0.5zM528 41q1 0 1 3t-1 3q-1 1 -3 1q-1 0 -2 -1q-1 0 -1 -3t1 -3q1 -1 2 -1q2 0 3 1zM544 44l5 -7h-5l-3 4l-2 -4h-5l5 7l-5 7h5l2 -4l3 4h5zM560 51h4l-5 -14l-1 -2q0 -2 -1 -2
q0 -1 -1 -1l-1 -1h-2h-2l-1 3h2q2 0 2 1l1 2l-5 14h4l3 -10zM565 41h4v-4h-4v4zM581 40q0 1 1 2h3q0 -2 -2 -4t-4 -2q-3 0 -5 2t-2 6t2 6t5 2q2 0 4 -2q2 0 2 -3l-4 -1q0 2 -1 2l-1 1q-1 0 -1.5 -0.5t-1.5 -0.5v-4v-3q1 -1 3 -1h2zM595 52q2 0 5 -3q2 -2 2 -5t-2 -5
q-3 -3 -5 -3t-2.5 0.5t-1.5 0.5l-3 3q-1 1 -1 4t1 4l3 3q1 0 1.5 0.5t2.5 0.5zM597 41q1 0 1 3t-1 3q-1 1 -2 1q-2 0 -3 -1q-1 0 -1 -3t1 -3q1 -1 3 -1q1 0 2 1zM624 51q1 -1 1 -2q1 -1 1 -3v-9h-4v8v3q-1 0 -1 0.5t-1 0.5t-1 -1q-1 0 -1 -1q-1 -1 -1 -3v-7h-4v8v2v1
q-1 1 -2 1l-1 -1q-1 0 -1 -1t-0.5 -1.5t-0.5 -1.5v-7h-3v14h3v-2q1 3 5 3q1 0 1 -0.5t1 -0.5l2 -2q0 2 2 2q1 0 1 0.5t1 0.5t1.5 -0.5t1.5 -0.5z" />
    <glyph glyph-name="colon" unicode=":" horiz-adv-x="349" 
d="M107 0q-20 0 -33.5 13.5t-13.5 33.5t13.5 33.5t33.5 13.5t33.5 -13.5t13.5 -33.5t-13.5 -33.5t-33.5 -13.5zM172 152q-20 0 -33.5 13.5t-13.5 33.5t13.5 33.5t33.5 13.5t33.5 -13.5t13.5 -33.5t-13.5 -33.5t-33.5 -13.5z" />
    <glyph glyph-name="semicolon" unicode=";" horiz-adv-x="376" 
d="M45 -111q-10 0 -11 13.5t3 32t10 38t11 32.5q7 19 17.5 33t30.5 14t33.5 -17.5t5.5 -43.5q-3 -9 -15.5 -26.5t-28 -34t-31 -29t-25.5 -12.5zM170 110q-20 0 -33.5 13.5t-13.5 33.5t13.5 33.5t33.5 13.5t33.5 -13.5t13.5 -33.5t-13.5 -33.5t-33.5 -13.5z" />
    <glyph glyph-name="less" unicode="&#x3c;" horiz-adv-x="375" 
d="M249 128q8 -6 8 -14.5t-4.5 -15t-12.5 -9.5t-16 2q-8 6 -29 20t-44 30t-42.5 29t-24.5 16q-11 8 -11 17q-4 16 10 25q5 3 25.5 16.5t44.5 28.5t45 28.5t27 17.5q8 5 16 2t12.5 -10t4 -15.5t-8.5 -13.5q-6 -4 -20 -13t-31 -19.5t-34.5 -22t-31.5 -20.5q14 -9 32 -21.5
t35.5 -24.5t31 -21t18.5 -12z" />
    <glyph glyph-name="equal" unicode="=" horiz-adv-x="369" 
d="M249 139q10 0 14.5 -7t4.5 -15.5t-4.5 -15t-14.5 -6.5h-169q-13 0 -18 6.5t-4.5 15t6.5 15.5t16 7h169zM237 44q10 0 14.5 -7t4.5 -15t-4.5 -15t-14.5 -7h-169q-13 0 -18.5 7t-4.5 15t7 15t16 7h169z" />
    <glyph glyph-name="greater" unicode="&#x3e;" horiz-adv-x="410" 
d="M113 128q5 3 18.5 12t31 21t35.5 24.5t32 21.5q-14 9 -31.5 20.5t-34.5 22t-31 19.5t-20 13q-8 5 -8.5 13.5t4 15.5t12.5 10t16 -2q6 -4 27 -17.5t45 -28.5t44.5 -28.5t25.5 -16.5q14 -9 10 -25q0 -9 -11 -17q-5 -3 -24.5 -16t-42.5 -29t-44 -30t-29 -20q-8 -5 -16 -2
t-12.5 9.5t-4.5 15t8 14.5z" />
    <glyph glyph-name="question" unicode="?" horiz-adv-x="520" 
d="M393 628q57 -19 83.5 -57t28.5 -84t-17.5 -94t-54.5 -88t-82.5 -65t-101.5 -25q-10 -23 -18.5 -40.5t-16.5 -32t-15 -27.5t-13 -26q-4 0 -19.5 4t-33 10t-30.5 11.5t-13 8.5q6 14 12.5 27.5t13.5 28.5t15 33.5t17 41.5q4 12 11.5 23.5t17.5 20t22 12.5t24 1q35 -8 64 2
t50.5 30.5t33.5 47.5t13.5 53t-10 47t-36.5 29q-38 12 -67.5 3t-48 -29t-25.5 -45.5t1 -46.5q-7 -6 -23 -9t-34.5 -1t-35.5 9.5t-26 22.5q-4 45 18 91.5t64 79.5t101 45t131 -12zM75 85q3 1 17.5 -3t31 -9t30.5 -10.5t16 -7.5q-5 -12 -10 -20t-7 -12q-11 -18 -29 -22t-34 2
t-26 18.5t-4 27.5q4 9 15 36z" />
    <glyph glyph-name="at" unicode="@" horiz-adv-x="583" 
d="M426 46q6 -2 18 -5.5t25.5 -8t25 -10.5t15.5 -14q-35 -48 -84.5 -82t-105 -53t-112.5 -21t-106 14.5t-85 52t-50 92t-1.5 135.5t61.5 181q33 70 79 118t96 75.5t101 34t95 -5.5t77 -42.5t47 -77.5t5 -110.5t-48 -142.5q-15 -31 -38 -65.5t-50 -62t-55.5 -42t-55.5 -4.5
q-19 7 -28.5 22t-11.5 36q-18 -28 -43.5 -46t-65.5 -16q-34 2 -45.5 28.5t-7.5 66t19 85.5t34 87t38.5 70t32.5 35q47 23 84.5 19.5t59.5 -22.5q2 5 4.5 9t5.5 9q1 3 18 3.5t35.5 -3t31 -11t5.5 -20.5q-10 -19 -27 -47t-35.5 -60t-37 -65t-31 -60.5t-17 -47t4.5 -24.5
q14 -9 33 3t38 35.5t36 53t29 54.5q39 85 37.5 147t-29.5 98t-75.5 44.5t-100.5 -12t-105 -71.5t-89 -134q-49 -110 -53.5 -185.5t21 -119t73 -57.5t102.5 -2t110 48.5t96 93.5zM161 48q18 -11 57.5 56t93.5 205q-1 6 -7.5 10.5t-16 6.5t-19.5 1t-17 -7q-2 -3 -13 -22
t-25 -47.5t-28 -61t-23.5 -62t-11.5 -51.5t10 -28z" />
    <glyph glyph-name="A" unicode="A" horiz-adv-x="679" 
d="M663 168q-8 -52 -35 -74.5t-67 -24.5q-6 -35 -6 -63t9 -45.5t28.5 -24t51.5 2.5q-10 -10 -31.5 -18.5t-47.5 -11t-52.5 4t-45 27t-25.5 56t6 92.5q-32 11 -64 24.5t-62 29.5q-90 -106 -165 -142.5t-151 -0.5q-43 20 -60.5 58.5t-13 81t30 82t68 63t101 24t130.5 -36.5
q19 -9 38.5 -18t40.5 -18q69 88 145 200t157 236q5 24 2 28q4 0 20 -5t34 -12.5t33.5 -16t20.5 -15.5q5 -10 -2 -36.5t-20.5 -65t-33 -86.5t-40 -99.5t-40 -104.5t-34.5 -102q33 -5 54 -3t26 14zM23 27q52 -29 117 9.5t141 126.5q-26 14 -48.5 26.5t-39.5 21.5
q-46 25 -85 25t-67.5 -14.5t-45.5 -41t-20.5 -55t8 -55.5t40.5 -43zM603 539q-63 -97 -117.5 -177t-102.5 -144q24 -9 48 -17.5t47 -16.5q12 34 27.5 77.5t32.5 90.5t34 95.5t31 91.5z" />
    <glyph glyph-name="B" unicode="B" horiz-adv-x="778" 
d="M80 516q0 53 30 89.5t78.5 58t109.5 30.5t124 6t122.5 -15t103 -32.5t66.5 -47t14 -57.5q-10 -32 -41 -67.5t-75.5 -68t-97 -58t-105.5 -36.5q93 -28 150 -66.5t83.5 -80.5t24 -84.5t-29 -77t-74.5 -59t-113.5 -30.5t-145.5 9.5t-170 59.5q-38 -30 -74 -39t-66 -2.5
t-52.5 25t-32.5 43.5t-6.5 53t25.5 53q17 20 37 20.5t43 -10t48.5 -29t54.5 -36.5q20 23 41 54t40 72q19 40 38.5 88t39 98t38 99.5t34.5 91.5q-34 -8 -63.5 -19.5t-49 -26.5t-26 -34t4.5 -42q-6 -2 -25.5 6.5t-41.5 20.5t-40 23.5t-21 17.5zM-55 48q-13 -17 -8 -31
t22.5 -19.5t45.5 0.5t60 29q-20 12 -37 21.5t-32 14t-28 1.5t-23 -16zM178 32q104 -43 177.5 -45.5t117 21.5t56.5 66.5t-5.5 87.5t-68.5 86t-132 62q-17 -43 -34.5 -84t-34.5 -76q-18 -37 -37 -66t-39 -52zM604 562q2 9 -13.5 15t-41.5 8.5t-60.5 1.5t-71.5 -5
q-14 -43 -34.5 -104.5t-44.5 -127.5q48 6 93.5 29t81.5 54.5t60.5 66t30.5 62.5z" />
    <glyph glyph-name="C" unicode="C" horiz-adv-x="599" 
d="M494 690q41 -14 64.5 -49.5t25 -85.5t-20.5 -111.5t-72 -126.5q-17 -23 -41.5 -28.5t-45.5 2.5t-34.5 27t-8.5 45q46 37 74 78t39 76.5t5 62.5t-28 36q-27 12 -64 2.5t-79 -44t-86 -96.5t-86 -155q-37 -82 -38 -142t22 -95.5t64.5 -45.5t89.5 6.5t97 61.5t88 119
q12 1 21.5 -11.5t15.5 -30t7.5 -34.5t-2.5 -23q-51 -85 -118 -129.5t-134 -52.5t-126 17.5t-94 81t-37 138.5t44 190q38 87 80 147t85 97.5t85.5 56.5t80.5 25.5t70.5 2.5t56.5 -12z" />
    <glyph glyph-name="D" unicode="D" horiz-adv-x="687" 
d="M511 692q69 -4 114 -11t71.5 -15t38 -17t14.5 -19t0 -19.5t-5 -17.5q-10 -30 -28.5 -82t-40 -110.5t-43.5 -117t-39 -100.5q-36 -91 -74.5 -146t-78.5 -82t-80.5 -30.5t-80.5 7.5t-78.5 32.5t-74.5 44.5q-40 -33 -78 -43t-69.5 -4t-54 25.5t-33 45t-6 54t27.5 53.5
q18 20 40 22.5t46.5 -6.5t51.5 -26t56 -37q19 21 37 47.5t36 61.5q20 39 40.5 84.5t41 93t39.5 94t36 86.5q-48 -3 -92.5 -9.5t-77.5 -19t-50 -31.5t-11 -47q-11 -7 -21 -5q-4 0 -8 2q-18 68 -12.5 118t51 80.5t140 41.5t255.5 2zM-72 66q-15 -18 -9 -32.5t25.5 -20t50 1.5
t66.5 34q-42 26 -76 35t-57 -18zM508 192q15 32 31.5 75.5t33 91t32.5 95t30 87.5q0 2 -19 5.5t-50 7t-71.5 6t-83.5 2.5q-15 -41 -34.5 -92.5t-42 -106.5t-46.5 -109t-48 -98q-17 -32 -34.5 -58t-35.5 -46q41 -26 84 -40.5t86 -4.5t85.5 52.5t82.5 132.5z" />
    <glyph glyph-name="E" unicode="E" horiz-adv-x="676" 
d="M463 689q94 -27 130.5 -63t24.5 -88q-5 -20 -13.5 -30.5t-17 -17t-15.5 -12.5t-8 -17q-29 23 -58 42.5t-56.5 31.5t-54 15t-51.5 -6q-14 -6 -18.5 -15.5t-1.5 -20t11.5 -21t21.5 -18.5q46 -28 57.5 -57.5t2 -54.5t-31.5 -43t-42 -24q6 15 0.5 31.5t-18 30t-29.5 22.5
t-34 9q-49 0 -84.5 -27.5t-56 -70t-26 -93.5t5 -97.5t37.5 -81.5t72 -46q53 -13 100 4.5t81.5 50t53 72t15.5 69.5q-26 6 -31.5 17t-3.5 18q11 6 37 13t53 11t47.5 3.5t20.5 -9.5q1 -60 -24.5 -119t-74 -102t-119 -63.5t-159.5 -3.5q-80 15 -130 60t-70.5 103t-12.5 121
t41.5 112.5t92.5 78t142 18.5q-41 27 -58.5 61t-15.5 68.5t22 66t55 52t83.5 27.5t107.5 -7z" />
    <glyph glyph-name="F" unicode="F" horiz-adv-x="688" 
d="M789 710q28 -47 28 -80.5t-20.5 -56t-58.5 -35t-87 -17t-105 -3t-113 6.5q-20 -54 -41 -120t-47 -135q49 4 108 3q63 -1 93.5 -26t34.5 -56.5t-15.5 -60.5t-56.5 -39q4 25 -11.5 41t-44.5 24.5t-68.5 10.5t-83.5 -2q-24 -52 -51 -97.5t-59.5 -79t-69.5 -51t-80 -14.5
q-46 4 -73.5 25t-35 52.5t6.5 69t51 73t98.5 66t148.5 47.5q26 72 50 145t47 136q-48 6 -91 13.5t-76 14t-54.5 11t-26.5 6.5q-13 8 -18 19t-5.5 23t2.5 23t5 19q11 -2 40.5 -4t71.5 -4t93 -3.5t106 -2.5q8 14 15 25.5t15 18.5q4 -1 14.5 -5t21.5 -10t21 -13.5t14 -16.5
q61 1 117.5 4t99.5 10t67.5 18t22.5 27zM41 -37q22 3 42 18t39 39.5t37 57t35 70.5q-31 -6 -59 -15q-57 -17 -94.5 -47.5t-52 -59.5t-2.5 -49t55 -14z" />
    <glyph glyph-name="G" unicode="G" horiz-adv-x="651" 
d="M542 238q10 -2 15.5 -16.5t1 -33t-21.5 -36t-51 -23.5q-50 -92 -113.5 -141t-127 -60.5t-120.5 12.5t-93.5 77.5t-46.5 134.5t21 185q33 110 78.5 180.5t96.5 112t103.5 57t99.5 16t84.5 -11t58.5 -24.5q38 -24 59.5 -59t25.5 -78t-9.5 -92.5t-45.5 -102.5
q-13 -21 -24.5 -33.5t-23 -18.5t-24.5 -6.5t-28 1.5q-31 5 -66 21t-55 41q32 4 59 24t46.5 48.5t30.5 61.5t9.5 62.5t-15.5 51.5t-44 28q-29 6 -70.5 -10.5t-87 -59t-90.5 -111.5t-80 -168q-24 -69 -22 -124.5t22 -94t54.5 -57t74 -12t81 39t76.5 96.5q-3 0 -24.5 -0.5
t-49 0.5t-53.5 5t-37 13t-16.5 22.5t-7 27.5t0.5 26.5t5 19.5q5 -3 33 -6.5t67.5 -6t83.5 -3.5t80.5 1t59.5 7.5t20 16.5z" />
    <glyph glyph-name="H" unicode="H" horiz-adv-x="626" 
d="M512 141q29 -15 34.5 -34t-1.5 -35.5t-21.5 -26.5t-24.5 -7q5 -9 3 -16t-7 -11.5t-12 -6t-11 0.5q-7 -38 0 -59.5t31 -23.5q-2 -8 -14.5 -14.5t-29 -8t-34.5 4t-30.5 22t-16 45.5t8.5 75q-54 25 -102 41t-86 24q-25 -62 -51.5 -107t-56 -71.5t-62 -32t-69.5 11.5
q-25 12 -39 37.5t-15.5 58t10 68t38 66t68.5 52.5t101 29q12 31 20 52t16.5 43.5t19.5 53.5t28 82q12 35 22.5 71.5t17 67.5t6 52t-10.5 25q-12 4 -27.5 -9.5t-32 -40t-30.5 -61t-23 -72t-10 -74.5t9 -66q-10 -5 -27 -2.5t-34.5 14.5t-32.5 33t-21 52t0 72.5t30 94.5
q19 42 55 64.5t77.5 27t81.5 -8t67.5 -40.5t36.5 -71.5t-12 -99.5q-15 -39 -25.5 -66.5t-21.5 -55t-24 -60.5t-32 -82q39 -6 84.5 -18.5t98.5 -29.5q18 51 40 111.5t43.5 119t41 110.5t31.5 87q5 10 18.5 19.5t30 15t35 6t34.5 -7.5q-57 -150 -107.5 -274t-83.5 -217z
M-11 -17q8 -9 18 -6.5t22.5 19t28 47.5t35.5 80q-44 -2 -69 -20.5t-35.5 -41.5t-9 -45.5t9.5 -32.5z" />
    <glyph glyph-name="I" unicode="I" horiz-adv-x="392" 
d="M246 697q55 -2 97.5 -13.5t69.5 -28.5t36.5 -38.5t-0.5 -43.5q-12 -27 -33.5 -74t-48.5 -105t-56.5 -123t-58 -126.5t-53.5 -114.5t-43 -89q-12 -10 -38.5 -13t-56.5 4q-27 26 -44.5 74t-23 105.5t3 118.5t34.5 113q9 18 32.5 29t48.5 15.5t45 4t22 -6.5
q-22 -10 -41.5 -48t-32 -91.5t-16.5 -115.5t6 -119q11 26 28 67t37 90.5t42 104t43 108t39.5 101.5t32.5 84q-19 8 -49 12.5t-65 4.5t-70.5 -4t-63.5 -12t-45.5 -19.5t-15.5 -27.5q-28 42 -25 76.5t33.5 58t88.5 34.5t141 8z" />
    <glyph glyph-name="J" unicode="J" horiz-adv-x="426" 
d="M349 692q54 8 87 -3t49.5 -29.5t20 -39t-1.5 -32.5q-16 -38 -38 -90t-47 -110.5t-51 -120.5t-51 -120.5t-47.5 -110t-39.5 -88.5q-66 -143 -127.5 -194.5t-115.5 -25.5q-18 9 -27.5 39t-11 73t5.5 94.5t22.5 102t39.5 96t56.5 77t74 44.5t91.5 -1q29 71 62.5 152
t69.5 167q-34 7 -69.5 0t-66.5 -25t-55 -44.5t-35 -59t-7 -68t29 -71.5q-13 -12 -37 -20t-48.5 -12t-45 -3.5t-27.5 5.5q-21 62 -0.5 131t69.5 129t120.5 103t151.5 55zM4 -243q5 -6 18 14t30.5 55.5t38 81t39.5 90t35 83.5t26 61q-36 8 -66 -15t-53.5 -63t-40 -89
t-25.5 -94.5t-9.5 -80t7.5 -43.5z" />
    <glyph glyph-name="K" unicode="K" horiz-adv-x="582" 
d="M606 698q4 -1 16 -17t24 -39.5t21 -50.5t8 -49q-8 -47 -42.5 -100.5t-92.5 -103t-135.5 -90.5t-170.5 -63q16 -27 40.5 -56t52.5 -55.5t57.5 -49.5t54.5 -39.5t44.5 -24t27.5 -3.5q-2 -4 -7.5 -7.5t-13 -4.5t-16.5 0.5t-18 8.5q4 -7 12 -11.5t16.5 -6t16.5 0t12 4.5
q0 -10 -8 -24.5t-21 -27.5t-28.5 -22t-28.5 -7q-14 2 -36.5 17t-49 37.5t-55 52t-54 61t-46 62.5t-31.5 59q-34 -78 -79 -116.5t-87.5 -48.5t-75 3.5t-40.5 39.5q36 -15 65.5 -0.5t53.5 44t43.5 68t34.5 71.5q39 88 70 178.5t69 188.5q7 20 22 29t32 9t33.5 -7t27 -19
t12.5 -27t-10 -31q0 4 -1 11t-4.5 6.5t-10.5 -13.5t-19 -48q-16 -44 -27 -75.5t-21 -58t-20.5 -52t-23.5 -57.5q93 32 163 85.5t119.5 116.5t80 129t44.5 123z" />
    <glyph glyph-name="L" unicode="L" horiz-adv-x="694" 
d="M300 40q36 -22 75.5 -42.5t84.5 -29.5t94.5 -3t104.5 38q-62 -64 -120.5 -86t-112.5 -18t-103 26.5t-90 47.5q-32 -26 -65.5 -43.5t-68.5 -23.5q-61 -11 -102 0.5t-63.5 34.5t-25.5 53.5t13 58t50 48t87 23.5t96.5 -10.5t82.5 -35.5q29 46 57.5 103.5t54.5 118.5
t49.5 122.5t43.5 116t36 98t27 69.5q6 0 19 -13t25.5 -31.5t20.5 -39t4 -35.5q-3 -13 -14.5 -46t-29 -79t-41.5 -101.5t-53.5 -112t-63.5 -110.5t-72 -98zM80 -66q26 4 51.5 22.5t51.5 47.5q-42 24 -81.5 36t-79.5 -6q-30 -13 -43.5 -33t-7.5 -37t32.5 -27t76.5 -3z" />
    <glyph glyph-name="M" unicode="M" horiz-adv-x="587" 
d="M600 672q11 -1 23.5 -12t21 -27t11 -33.5t-4.5 -31.5q-51 -93 -89 -188t-66 -179t-47.5 -151.5t-32.5 -106.5q-12 -13 -28 -20.5t-32.5 -10.5t-32 -2t-25.5 4q23 83 61.5 195t101.5 260q-57 -72 -101 -150.5t-76 -167.5q-3 -9 -19 -13t-34 -3.5t-34 4t-20 9.5
q6 26 11.5 65t9 84t5 91t0.5 87q-12 -58 -29 -121t-39.5 -124.5t-51.5 -117t-64 -98.5q-22 16 -39 35.5t-24 41.5t-2.5 47t26.5 53q-4 -12 -4 -18.5t1.5 -11t2.5 -8t-2 -9.5q30 48 60 111.5t55.5 144.5t44.5 181t28 221q5 0 13.5 -2t18 -5.5t18 -9t14.5 -11.5v-1q4 -6 5 -9
q7 -17 12.5 -52t8.5 -82.5t4 -103.5t-2 -113.5t-9.5 -114.5t-17.5 -105q31 73 64.5 144.5t67 136.5t67 120t64 95t57.5 62t49 21z" />
    <glyph glyph-name="N" unicode="N" horiz-adv-x="511" 
d="M579 688q14 7 39 1t47.5 -17.5t36 -23.5t3.5 -16q-49 -27 -91.5 -77t-78 -112t-64.5 -132.5t-50.5 -139.5t-36 -131t-20.5 -108q-9 -5 -25 -7t-31.5 0t-27.5 10t-14 22q-6 36 -6 80t3.5 99t8 121t6.5 147q-29 -125 -66 -209.5t-73 -137.5t-67.5 -79t-50.5 -34
q-9 1 -22.5 7.5t-26 16t-22 21t-12.5 22.5q-2 96 3.5 168.5t22.5 112.5t47.5 43.5t77.5 -36.5q-18 1 -30 -30.5t-18.5 -77.5t-9 -97t-1.5 -90q7 13 22.5 37.5t35 63.5t41 94t40 129t32 168.5t17.5 211.5q6 1 22.5 -1.5t34 -7.5t32 -12.5t15.5 -16.5q11 -116 9.5 -226.5
t-7 -198.5t-10 -143.5t0.5 -61.5q7 50 18.5 109.5t28 122t37.5 124t47.5 117t59.5 100.5t73 75z" />
    <glyph glyph-name="O" unicode="O" horiz-adv-x="558" 
d="M553 631q4 -38 2.5 -91t-10 -112t-23.5 -121.5t-38.5 -121t-55.5 -109t-73 -86t-92.5 -52t-113.5 -7.5q-60 9 -96 47t-51 94t-11.5 124t22 137t49.5 133t71 112t86.5 74t95.5 19q12 -9 18.5 -26t8.5 -35.5t1 -35.5t-4 -25q-67 -34 -118 -87.5t-85.5 -115t-50.5 -124.5
t-13 -115.5t26 -88.5t68 -44t84.5 20.5t70.5 81.5t52.5 124t30 148.5t2 155.5t-31.5 145q-9 20 -12 29t-3 17q0 6 13 8t33.5 0.5t44.5 -6.5t45.5 -14.5t37.5 -22t20 -29.5z" />
    <glyph glyph-name="P" unicode="P" horiz-adv-x="761" 
d="M478 687q90 -23 144 -69.5t78 -106t20 -127.5t-30 -132.5t-71 -121t-103.5 -94.5t-128 -51.5t-144.5 8.5q-52 -55 -106 -74.5t-98.5 -11.5t-75 39.5t-36 78.5t18.5 105t89 120q13 2 26 -7t23.5 -24.5t18 -34.5t9.5 -37q-48 -48 -67 -86t-17.5 -63t19 -35.5t43 -4t55 32
t53.5 72.5q27 51 48.5 128.5t41.5 179.5q16 82 32 151.5t45 113.5q-42 -2 -70 -20.5t-40 -41t-7 -43t28 -27.5q-6 -33 -30.5 -48.5t-52 -13.5t-51.5 20t-29 51q-2 48 24 89.5t74 67t116 32t151 -14.5zM290 49q72 -3 130.5 26.5t100.5 78t65 110t23 122.5t-24.5 116t-77.5 90
q-26 12 -42.5 -9.5t-26.5 -63.5q-38 -159 -69.5 -277t-78.5 -193z" />
    <glyph glyph-name="Q" unicode="Q" horiz-adv-x="551" 
d="M378 21q24 -20 40 -27.5t27 -1.5q9 -14 0.5 -28.5t-25 -27.5t-36 -23.5t-31.5 -16.5q-17 -5 -40 10t-47 39q-55 -20 -121 -11q-61 9 -96.5 47t-51 94t-12 124t22 137t49.5 133t71 112t86.5 74t95.5 19q12 -9 18.5 -26t8.5 -35.5t1 -35t-4 -24.5q-67 -34 -118 -88
t-85 -115t-50.5 -124t-13.5 -115.5t26 -88.5t68 -44q34 -6 67 10q-15 19 -28.5 37.5t-23.5 33.5t-16 25t-6 13q-2 7 11.5 15t31.5 13.5t35.5 8t24.5 -0.5q16 -16 30.5 -29.5t27.5 -25.5q32 52 54 123.5t30 149.5t1.5 156.5t-31.5 145.5q-9 20 -12 28.5t-3 16.5q0 6 13 8.5
t33.5 1t44.5 -7t45.5 -14.5t37.5 -22t20 -30q4 -36 2.5 -84.5t-8.5 -104t-20 -114t-33 -114.5t-47.5 -106.5t-63.5 -89.5z" />
    <glyph glyph-name="R" unicode="R" horiz-adv-x="637" 
d="M460 680q61 -21 98.5 -57t55 -81t16 -95.5t-19 -99t-49 -92.5t-74 -75.5t-95 -47.5t-110.5 -10q21 -39 47.5 -76t51.5 -62.5t45.5 -35t29.5 5.5q6 -11 0.5 -24.5t-18 -25.5t-29.5 -21.5t-34 -14.5t-32 -3.5t-24 11.5q-34 38 -62.5 90t-50.5 112q-5 -9 -10.5 -16.5
t-10.5 -15.5q-44 -66 -88.5 -90t-82 -23.5t-64.5 17t-37 30.5q23 -11 46 -6.5t45.5 19.5t43.5 38t39.5 49t34 52.5t26.5 48.5q22 42 43 93.5t41 106t40.5 109t40.5 102.5q9 20 24.5 28t32.5 7.5t33 -9t25.5 -21t10.5 -28t-12 -30.5v9.5t-3.5 3t-11.5 -16.5t-22 -49
q-33 -81 -62.5 -152.5t-57.5 -132.5q61 -1 108.5 27.5t79 72.5t46 97.5t10 103.5t-29 89t-71.5 55q-58 19 -107.5 2.5t-87 -53.5t-61 -87t-30.5 -97t4.5 -83.5t44.5 -47.5q-9 -18 -33 -32.5t-51.5 -17.5t-51.5 8.5t-33 45.5q-8 39 -1 91.5t29.5 106t60 101.5t90.5 79
t121.5 38.5t152.5 -20.5z" />
    <glyph glyph-name="S" unicode="S" horiz-adv-x="607" 
d="M670 665q14 -5 18 -18t2.5 -30t-8.5 -36t-15.5 -35t-17 -27t-14.5 -13q-19 8 -36 0.5t-27.5 -24t-12 -38t11.5 -40.5q-14 -11 -36.5 -5t-41 26.5t-27 54.5t5.5 78v-1q-53 36 -95.5 37.5t-63.5 -17t-16 -48.5t47 -57q67 -43 105.5 -94.5t53.5 -105t8 -106t-30.5 -97
t-62.5 -79t-87.5 -51.5t-105.5 -14t-118 32q-52 25 -80.5 65t-38 86t-1.5 93.5t27.5 89t49.5 71.5t65 41q22 0 46 -14t43 -33.5t30 -41.5t8 -37q-28 10 -57 -1.5t-54 -36t-42.5 -58t-22 -68.5t6.5 -67t44 -54q41 -27 85 -22.5t80.5 31.5t60.5 71.5t25.5 97t-25.5 108.5
t-92 105q-63 48 -90 98t-23.5 93.5t33.5 76.5t79.5 46t116.5 1.5t144 -55.5q18 16 38.5 24t40 10t37 -1.5t29.5 -10.5z" />
    <glyph glyph-name="T" unicode="T" horiz-adv-x="469" 
d="M697 633q9 -5 12 -18t1 -30.5t-7.5 -37.5t-13 -36.5t-16 -29t-16.5 -14.5q11 14 -31 34.5t-121 38.5q-12 -35 -27 -76.5t-31 -84.5t-31.5 -84.5t-28.5 -75.5q-34 -87 -77 -146.5t-88.5 -94.5t-90 -46.5t-82.5 -4t-66 33t-39 65.5q-5 18 -2.5 41t10.5 47.5t20.5 47.5
t26.5 42t28.5 31.5t27.5 14.5q-19 -53 -17.5 -95.5t17.5 -68.5t43 -34t59 7.5t65.5 56t62.5 111.5q15 38 32.5 83.5t34.5 90.5t32 85t25 68q0 1 -20.5 4t-53.5 6.5t-74.5 6t-83 1.5t-79 -6.5t-62.5 -17.5t-33.5 -31.5t8.5 -49.5q-5 -3 -19.5 -6t-22.5 2q-11 46 -14.5 84
t9.5 67t44 48t89 29t144.5 9.5t210.5 -10.5q39 -3 77 -10t71 -15t58 -16.5t39 -15.5z" />
    <glyph glyph-name="U" unicode="U" horiz-adv-x="516" 
d="M583 651q7 -12 -6 -51t-36 -94t-52 -121t-55 -131.5t-43.5 -125.5t-17.5 -103t22 -64t75 -9q-8 -11 -29 -20.5t-47.5 -14t-54 -1.5t-49 18.5t-33 45.5t-5.5 79q-69 -90 -130.5 -121.5t-99.5 -7.5t-45.5 102.5t30.5 208.5q22 74 48.5 148.5t50 138t40 110t18.5 64.5
q33 1 60 -2t45 -11t25.5 -21t0.5 -31q-8 -20 -22 -56t-31.5 -80.5t-36.5 -94t-37 -97t-33 -89t-24 -69.5q-31 -96 -22.5 -135.5t44 -18.5t91.5 104t121 231q18 48 37.5 96.5t36.5 93.5q13 38 26 77.5t27 83.5q0 2 -0.5 3.5t-0.5 2.5q4 1 20 -2t34.5 -9t35 -13t22.5 -14z" />
    <glyph glyph-name="V" unicode="V" horiz-adv-x="538" 
d="M715 668q14 -6 19.5 -22.5t5 -37.5t-6 -44t-14.5 -42t-20.5 -31.5t-23.5 -12.5q11 15 -18 38t-99 39q-52 -194 -122 -325.5t-141 -205t-136.5 -92.5t-109.5 10.5t-59 104.5t14 190q13 50 29 103.5t31.5 104t29 96.5t21 80.5t8 56t-10.5 23.5q33 3 63.5 0.5t52.5 -10
t33 -20.5t5 -31q-7 -20 -19 -57t-27 -82.5t-31.5 -95.5t-32 -98.5t-28.5 -90.5t-21 -70q-19 -70 -16 -110.5t22.5 -49t52.5 17t73.5 87.5t86 162.5t89.5 242.5q15 48 -2.5 62t-65.5 13q-6 18 -1.5 40t15 41t25.5 33t29 16q68 4 118 2t86 -8t59 -13.5t37 -13.5z" />
    <glyph glyph-name="W" unicode="W" horiz-adv-x="748" 
d="M954 669q14 -7 19.5 -23.5t5 -37.5t-6.5 -44t-15 -41.5t-20.5 -31t-23.5 -12.5q11 15 -18 38t-99 39q-44 -165 -99.5 -284.5t-114 -196.5t-114.5 -113.5t-102 -36.5t-77 35t-38 101q-75 -96 -138 -126.5t-102.5 -4t-49.5 105t21 201.5q13 50 29 103.5t31.5 104.5t29 96.5
t21.5 80.5t8 56t-10 23q32 3 62.5 0.5t53 -10t33.5 -20.5t5 -31q-7 -20 -19 -57t-27 -82.5t-31.5 -95.5t-31.5 -98.5t-28.5 -90.5t-21.5 -70q-21 -71 -21 -107t15 -42t40.5 13.5t54.5 59t57.5 96t49.5 122.5q20 71 42.5 143.5t39 131.5t22.5 97t-9 41q32 3 62.5 0.5t53 -10
t33.5 -20.5t5 -31q-7 -20 -19.5 -57t-27.5 -82.5t-31 -95.5t-31.5 -98.5t-28.5 -90.5t-21 -70q-20 -70 -19 -110.5t17.5 -49t46 17t67.5 88t81.5 163t87.5 242.5q15 47 -2 61.5t-65 13.5q-6 18 -2 40t14.5 41t25.5 32.5t29 15.5q68 4 118 2t86 -7.5t59.5 -13t37.5 -13.5z
" />
    <glyph glyph-name="X" unicode="X" horiz-adv-x="691" 
d="M634 689q45 -20 65.5 -59t20.5 -88.5t-19 -105t-53 -107.5q-14 -21 -25.5 -33.5t-23.5 -18.5t-24.5 -6t-27.5 3t-25.5 6t-19 8.5t-15.5 13.5t-16 21q25 12 46.5 37.5t38.5 56.5t29 64.5t19.5 61.5t9.5 46.5t-1 19.5q-14 5 -36.5 -17.5t-50 -63t-56.5 -94.5t-55 -111.5
t-47 -115t-32 -104.5t-9 -80t21 -42q14 -7 33.5 4.5t39 37t37.5 62t30 80.5q13 6 28.5 8t31.5 1t31 -5t27 -10q-38 -72 -73 -123.5t-70 -81.5t-70.5 -38t-73.5 8q-30 12 -45 42t-19 73q-24 -33 -49 -58t-50 -40.5t-49 -19.5t-46 6q-45 19 -65.5 58t-20 88.5t19.5 105
t52 108.5q13 21 25 33.5t24 18t25 6t28 -2.5t25 -6.5t18.5 -8.5t15.5 -13t16 -21q-28 -9 -50.5 -33.5t-39.5 -56t-28.5 -66t-17.5 -63t-7.5 -48t1.5 -20.5q14 -5 36.5 17t50 61.5t56.5 92.5t55 109.5t47 112.5t32 102.5t9.5 78.5t-20.5 41q-18 9 -35.5 -4.5t-33.5 -41.5
t-30 -66.5t-24 -79.5q-13 -6 -29 -5t-32.5 6t-31.5 12t-27 13q26 63 57.5 113.5t66 83t72 44t75.5 -4.5q30 -12 45.5 -42t18.5 -72q24 32 49 57.5t50 40.5t49 19.5t46 -5.5z" />
    <glyph glyph-name="Y" unicode="Y" horiz-adv-x="639" 
d="M600 675q3 10 20 17t38.5 9t42.5 -1t31 -14q-8 -32 -26 -88.5t-45 -125t-62.5 -144t-78 -145.5t-92 -129.5t-105 -96t-116.5 -45t-127 23.5q-49 24 -72.5 55t-31.5 65t-5 67.5t6.5 61.5t3 48t-14.5 27q50 -7 79 -20t43 -30t15.5 -36.5t-2.5 -40.5t-10.5 -42t-9.5 -40
t1.5 -35t22.5 -27q39 -25 81 -17t84 42q-45 -6 -78 20.5t-48.5 76.5t-10.5 120.5t37 153.5q23 62 48 112t47 88q-21 3 -38.5 1.5t-29.5 -8t-17.5 -18.5t-1.5 -31q-12 4 -20.5 19.5t-10 35t5.5 41.5t27 40t55 29t89 10q29 -1 56 -9t45 -21t24.5 -28t-5.5 -29
q-22 -26 -40.5 -51t-36.5 -52.5t-35.5 -59t-36.5 -71.5q-47 -96 -57.5 -165t5.5 -100.5t53.5 -20.5t87 75.5t106 187.5t110.5 315z" />
    <glyph glyph-name="Z" unicode="Z" horiz-adv-x="601" 
d="M586 650q19 -1 34.5 -23t24 -50.5t7.5 -57.5t-14 -45q-7 -5 -23.5 -4t-40.5 6q-45 -68 -88.5 -131t-85.5 -118t-81.5 -99.5t-75.5 -76.5q51 -21 101 -40.5t91.5 -30.5t68.5 -12t32 15q-5 -47 -25.5 -69.5t-51 -27t-68.5 5.5t-77.5 27t-78 37t-69.5 36q-114 -72 -200 -26
q-27 14 -41 36t-14 44t16 41t48 27t82 1t119 -35q34 33 71.5 80t77.5 101.5t81 115.5t82 123q-44 13 -93 28.5t-95.5 28t-88.5 20t-70.5 5t-41.5 -17.5t-3 -47q-12 3 -23.5 19.5t-17.5 38.5t-4 46.5t18 44t48 30t86 5.5q38 -3 85.5 -15t96.5 -26t94.5 -29t78.5 -24
q10 14 14 21.5t14 21.5zM-18 -8q25 -14 56.5 -6t68.5 34q-63 27 -96 29t-44.5 -7.5t-5.5 -25t21 -24.5z" />
    <glyph glyph-name="bracketleft" unicode="[" horiz-adv-x="397" 
d="M417 618q12 -4 16 -19t2 -33t-7 -33.5t-11 -21.5q-8 0 -28 1t-41 2q-17 -41 -41.5 -101.5t-51 -126t-52 -127.5t-44.5 -105q17 1 31.5 1h22.5q2 -6 -0.5 -18.5t-7.5 -26t-11.5 -25t-12.5 -15.5h-14.5h-23.5t-26 0.5t-22 0.5q-12 -2 -24 1.5t-21 9.5t-13 15t0 19
q3 9 14 38.5t26.5 71.5t34.5 93t38.5 103.5t38.5 103t34.5 91t26.5 67.5t14 34h26h48.5h49.5h29z" />
    <glyph glyph-name="backslash" unicode="\" horiz-adv-x="397" 
d="M145 649q4 -6 14.5 -33.5t26.5 -68t35 -90.5t38.5 -102.5t38.5 -103.5t34 -93t26 -71.5t14 -38.5q5 -15 -4.5 -27.5t-25.5 -17.5t-34 -0.5t-29 22.5q-6 9 -18 36t-28 64.5t-35 83.5t-38.5 94t-38 95t-34.5 86.5t-28 68.5t-18 41q-6 23 5.5 35t29.5 16.5t37.5 4.5t31.5 -1
z" />
    <glyph glyph-name="bracketright" unicode="]" horiz-adv-x="397" 
d="M35 -31q-12 4 -16 19t-2 33t7 33.5t11 21.5q8 0 28 -1t41 -2q17 40 41.5 101t51 126.5t52 127.5t44.5 105q-17 -1 -31.5 -1h-22.5q-2 6 0.5 18.5t7.5 26t11.5 25t12.5 15.5h14.5h23t26 -0.5t22.5 -0.5q12 1 24 -2t21 -9t13 -15t0 -19q-3 -9 -14 -38.5t-26.5 -71.5
t-34.5 -93t-38.5 -103.5t-38.5 -103t-34.5 -91t-26.5 -67.5t-14 -34h-26h-48.5h-49.5h-29z" />
    <glyph glyph-name="underscore" unicode="_" horiz-adv-x="722" 
d="M560 0v-15.5t-4.5 -19t-15 -18t-31.5 -12.5h-34t-79 0.5t-101.5 1t-102 0.5t-79.5 0.5t-34 0.5q-30 -1 -44.5 6.5t-19.5 18t-3 21t5 16.5q7 0 48 -0.5t99.5 -1t125 -0.5h125t99 0.5t46.5 1.5z" />
    <glyph glyph-name="grave" unicode="`" horiz-adv-x="380" 
d="M225 441q3 -2 4.5 -7.5t0.5 -11.5t-5.5 -10t-13.5 -2q-19 3 -38 9t-26 9q-3 6 -4 15t0 17.5t3.5 16t5.5 10.5q4 -3 12.5 -8.5t19.5 -12.5t22 -13.5t19 -11.5z" />
    <glyph glyph-name="a" unicode="a" horiz-adv-x="344" 
d="M347 242q5 9 12.5 12.5t13.5 1.5t7.5 -10t-4.5 -23q-7 -16 -20.5 -40.5t-31 -51.5t-38 -53t-43 -44.5t-45 -27.5t-44.5 -1q-20 7 -29 22.5t-11 36.5q-18 -28 -44 -46.5t-66 -16.5q-34 2 -45.5 29t-7.5 66.5t19 85.5t34.5 87t39 70t31.5 35q47 22 85 18.5t60 -22.5
q2 5 4.5 9.5t4.5 9.5q2 3 19 3.5t35.5 -3t31 -11t5.5 -20.5q-10 -19 -27 -47t-36 -60t-37 -65t-30.5 -60.5t-17 -47t4.5 -25.5q12 -8 28.5 1.5t34.5 28.5t35.5 44t32.5 48.5t25 42t14 24.5zM35 51q18 -10 57.5 56.5t93.5 204.5q-1 6 -7.5 10.5t-16 7t-20 1.5t-17.5 -7
q-2 -3 -12.5 -22t-24.5 -47.5t-28.5 -61.5t-23.5 -62.5t-11 -51.5t10 -28z" />
    <glyph glyph-name="b" unicode="b" horiz-adv-x="299" 
d="M301 242q5 9 12.5 12.5t13.5 1t7.5 -10.5t-4.5 -22q-11 -22 -32 -56t-48 -65.5t-57.5 -52.5t-60.5 -17q-26 -24 -49 -29.5t-41 2.5t-30 28t-15 47q-10 -21 -19 -40.5t-17 -36.5q-9 -5 -18.5 -0.5t-18.5 13.5t-15 19t-7 15q15 25 36.5 70t44.5 98t44.5 109t35.5 103
t18.5 80t-6.5 40q6 5 23 1.5t35.5 -13.5t33.5 -26t16 -36q-27 -44 -60.5 -116.5t-75.5 -166.5q-15 -36 -17.5 -64t4 -45.5t19.5 -23.5t30 3q-18 25 -21 61t5 75.5t26 77.5t42 66t52.5 41.5t58.5 4.5q18 -6 22.5 -30.5t-2 -59t-21 -75.5t-33.5 -78q-9 -17 -17.5 -32
t-17.5 -28q19 12 39 35t37.5 48t30.5 45.5t17 27.5zM127 106q16 24 36 60q25 49 32 79t2.5 38.5t-18 -6t-29.5 -54.5q-13 -31 -20 -63t-3 -54z" />
    <glyph glyph-name="c" unicode="c" horiz-adv-x="303" 
d="M304 235q7 13 15 17.5t14 2.5t7.5 -10t-3.5 -20q-23 -54 -57.5 -97.5t-73 -73.5t-76.5 -44t-68 -9q-39 7 -62 29t-31.5 53t-4.5 68.5t18.5 75t38.5 71t55 57.5t67.5 35.5t76.5 3.5q24 -5 35.5 -24t11 -44.5t-12.5 -53.5t-33 -51q-8 -4 -20.5 -6t-25.5 -2t-25.5 0.5
t-20.5 2.5q12 10 20.5 25.5t13.5 30t5.5 24.5t-3.5 10q-21 -2 -43 -19.5t-40.5 -42.5t-31.5 -55t-16 -57.5t6 -49t35 -30.5q21 -8 51 4.5t61.5 38t62 62t54.5 78.5z" />
    <glyph glyph-name="d" unicode="d" horiz-adv-x="358" 
d="M290 478q9 15 32 23t46 10t39 -1t11 -10q-18 -25 -45 -66t-55 -88.5t-55 -97t-46 -91t-27.5 -70t0.5 -34.5q12 -8 28.5 1.5t34.5 28.5t35.5 44t32.5 48.5t25 42t14 24.5q5 9 12.5 12.5t13.5 1t7.5 -10.5t-4.5 -22q-8 -16 -21 -40.5t-30.5 -51.5t-38 -53t-43 -45
t-45 -27.5t-44.5 -0.5q-20 7 -29.5 22.5t-11.5 37.5q-19 -29 -45.5 -48.5t-63.5 -15.5q-44 5 -56.5 40t-4.5 83.5t30.5 101.5t47.5 95q21 34 48.5 51.5t55 21t52 -5t39.5 -25.5q6 12 15.5 30t19 35.5t17 31.5t9.5 18zM37 35q22 -5 50 35.5t69 135.5q9 23 20 49q2 6 5 12.5
t5 13.5q10 19 7.5 36t-13.5 22.5t-29 -6t-39 -50.5q-4 -7 -14.5 -27t-23 -47t-25 -56.5t-19.5 -55t-6.5 -43t13.5 -19.5z" />
    <glyph glyph-name="e" unicode="e" horiz-adv-x="321" 
d="M322 236q7 13 15 17.5t14 2.5t8 -10t-4 -20q-23 -54 -60 -97.5t-78 -73.5t-81 -44.5t-70 -9.5q-52 9 -75.5 44.5t-24 83t19.5 99.5t55 92.5t82 63t100 11.5q25 -5 38 -25.5t13.5 -50t-11 -65.5t-34.5 -72.5t-57 -70.5t-78 -59q24 1 54 15.5t61.5 39.5t61 58t51.5 71z
M163 297q-20 1 -43 -19t-42 -51t-30.5 -66t-8.5 -62q35 12 65.5 43.5t49.5 65.5t23 60.5t-14 28.5z" />
    <glyph glyph-name="f" unicode="f" horiz-adv-x="161" 
d="M400 627q2 -3 -5.5 -14.5t-17.5 -24t-19.5 -23.5t-12.5 -12q-3 15 -15 25t-27 12.5t-31.5 -5t-28.5 -27.5q-6 -11 -29.5 -58.5t-56 -114.5t-70 -143.5t-71 -144.5t-59 -118.5t-34.5 -64.5l-5 -8.5t-11 -19.5t-11.5 -22t-8.5 -15q-16 -25 -37.5 -39.5t-44 -17.5t-44.5 7
t-40 34q-3 3 0 13.5t8.5 22.5t11 22.5t8.5 12.5q13 -41 37 -42.5t45 40.5q4 8 19 40t37.5 79t49.5 104.5t56 118t57.5 119.5t52.5 108.5t42.5 85.5t26.5 50q24 41 58.5 57t68 14.5t61.5 -16t40 -35.5z" />
    <glyph glyph-name="g" unicode="g" horiz-adv-x="358" 
d="M360 242q5 9 12.5 12.5t13.5 1t7.5 -10.5t-4.5 -22q-8 -16 -21 -40.5t-30.5 -51.5t-38 -53t-43 -45t-45 -27.5t-44.5 -0.5q-9 2 -18 10q-11 -23 -20.5 -42l-16.5 -33q-14 -27 -36.5 -39t-48 -11.5t-51 13t-44.5 34.5q-3 3 -0.5 14.5t6.5 24t9 23t7 12.5q8 -20 21 -34.5
t27.5 -20t29 -0.5t25.5 25q5 8 9 15.5t8 15.5q-13 -8 -28 -11t-34 0q-35 5 -50 26.5t-15 53t11.5 71t29 80t37.5 79.5t37 70q6 11 25 13.5t43 -1.5t49 -14t43 -24q7 19 15 33q1 3 15 3.5t28.5 -3t24 -11t3.5 -20.5q-7 -14 -17.5 -36t-23 -48.5t-26.5 -57t-28 -61.5
q-8 -19 -14 -36t-9.5 -30.5t-4 -22.5t4.5 -12q13 -8 29.5 1.5t34 28.5t35 44t32.5 48.5t25 42t14 24.5zM32 35q9 -5 24 3.5t35.5 39.5t46 87.5t55.5 146.5q-1 6 -9 10.5t-18.5 6.5t-21.5 1.5t-18 -6.5q-10 -19 -24 -46t-28 -56.5t-26.5 -60t-19.5 -56.5t-7 -45t11 -25z" />
    <glyph glyph-name="h" unicode="h" horiz-adv-x="343" 
d="M345 242q5 9 13 12.5t13.5 1t7.5 -10.5t-5 -22q-7 -16 -21 -42t-33 -55t-41.5 -57t-46 -49t-47 -31t-45.5 -2t-37 26.5t-15.5 55t19 93.5t66.5 143q-12 -3 -32.5 -22.5t-45.5 -54t-53 -82.5t-56 -109q-4 -8 -7.5 -17t-7.5 -17q-9 -6 -18.5 0t-18 16.5t-15 21.5t-7.5 16
q103 227 150 358.5t34 160.5q6 5 22 -2t34 -22t32 -35t16 -40q-17 -25 -40 -62t-45 -87q28 29 56.5 47.5t54.5 20.5q16 -13 25.5 -31.5t13.5 -37t4.5 -34.5t-0.5 -23q-63 -106 -90 -167t-16 -68q13 -8 30.5 3t36.5 32t38 48.5t35 53t27.5 45t14.5 25.5z" />
    <glyph glyph-name="i" unicode="i" horiz-adv-x="226" 
d="M227 242q5 9 13 12.5t13.5 1t7.5 -10.5t-5 -22q-6 -13 -16 -32t-23.5 -41t-29.5 -45.5t-34 -44.5q-32 -38 -65 -56t-69 -11q-34 6 -48 41t-9 87.5t30 116.5t69 128q18 -12 37 -15.5t36.5 -2t32.5 7t25 10.5q-52 -74 -84 -133t-48.5 -101.5t-19.5 -67.5t5 -29
q13 -8 30.5 3t36.5 32t38 48.5t35 53t27.5 45t14.5 25.5zM121 363q-26 -1 -38 11.5t-8.5 28t24 28.5t59.5 13q28 0 40.5 -12t8 -27t-25.5 -28t-60 -14z" />
    <glyph glyph-name="j" unicode="j" horiz-adv-x="182" 
d="M183 242q5 9 13 12.5t13.5 1t7.5 -10.5t-5 -22q-7 -16 -20.5 -40.5t-31 -51.5t-38 -53t-43 -45t-45 -27.5t-44.5 -0.5q-13 5 -21 13q-23 -46 -38 -73q-9 -17 -24 -29.5t-32.5 -18.5t-36.5 -5.5t-35 9.5q-3 4 -1.5 16t5.5 25.5t9.5 25t11.5 14.5q4 -11 18 -11t28 22
q8 13 20.5 39t28.5 60.5t33 73t34 75t31.5 68.5t25.5 53q3 6 -0.5 10t-9 7t-10 4.5t-3.5 3.5q3 6 18 6h58q19 1 33 -7.5t4 -27.5q-8 -15 -18.5 -37t-24 -49t-28.5 -58l-30 -62q-16 -36 -23.5 -65t0.5 -34q13 -8 29.5 1.5t34 28.5t35 44t32.5 48.5t25 42t14 24.5z" />
    <glyph glyph-name="k" unicode="k" horiz-adv-x="337" 
d="M338 242q5 9 12.5 12.5t13.5 1t7.5 -10.5t-4.5 -22q-8 -16 -22 -42t-33 -55t-41 -57t-46 -49t-47.5 -31t-45.5 -2q-10 3 -23 11.5t-26 20.5t-24.5 28t-18.5 36q-18 -14 -32.5 -28t-25.5 -31q-2 -5 -5 -10.5t-5 -10.5q-9 -6 -18.5 0t-18 16.5t-15 21.5t-7.5 16
q51 113 88 205t60 160t31.5 110.5t2.5 57.5q6 5 22 -2t34 -22t32 -35t16 -40q-14 -21 -33 -58.5t-40 -84.5q25 29 49 47.5t45 20.5q16 -13 27.5 -32.5t18 -39.5t9.5 -37t2 -24q-8 -25 -23 -45.5t-35 -37.5t-43.5 -32.5t-47.5 -29.5q-3 -20 -0.5 -37.5t7.5 -32t11 -23.5
t9 -10q13 -7 31 4.5t37 32.5t38 48t35 52.5t27 44.5t15 25zM199 280q-29 17 -69 -12.5t-87 -111.5q25 20 53.5 34.5t52 28t38 28t12.5 33.5z" />
    <glyph glyph-name="l" unicode="l" horiz-adv-x="204" 
d="M206 241q5 9 13 12.5t13.5 1.5t7.5 -10t-5 -22q-7 -16 -20 -40.5t-29.5 -50.5t-37 -51.5t-43 -44.5t-46 -29t-47.5 -4q-54 12 -63 70.5t36 154.5q34 72 57 122.5t37.5 87.5t20 65.5t4.5 58.5q6 5 24 -3.5t37.5 -24.5t35 -37t17.5 -41q-69 -114 -111.5 -188.5t-63 -120
t-21.5 -67.5t13 -29q13 -7 29.5 3t34.5 29t35.5 44t32.5 48.5t25.5 41.5t13.5 24z" />
    <glyph glyph-name="m" unicode="m" horiz-adv-x="548" 
d="M550 241q5 9 13 12.5t13.5 1.5t7.5 -10t-5 -22q-8 -16 -22 -42t-33 -55t-41 -57.5t-46 -49.5t-47.5 -31t-45.5 -2t-35.5 30.5t-13.5 58.5t17 85t56 111q-35 -15 -67 -43.5t-59 -66t-47.5 -81t-32.5 -87.5h-20h-31h-18q2 23 8.5 60t18 80t29 88.5t40.5 85.5
q-14 -3 -41.5 -34t-58.5 -74t-60.5 -91t-48.5 -86q-5 -11 -10 -19q-8 -6 -18 0t-18.5 16.5t-14.5 21.5t-7 16q46 101 77.5 177.5t54.5 142.5q8 6 22 10t28 5.5t26 1.5t16 -2q-7 -14 -13 -28.5t-13 -31.5q28 32 58 56.5t61 38.5q12 -6 28.5 -15.5t30.5 -20t24 -19.5t10 -14
q-2 0 -10.5 -7.5t-20.5 -20.5t-26 -31t-27 -40q44 48 92 80.5t93 46.5q17 -13 26.5 -32t14 -38t5 -35.5t-0.5 -24.5q-63 -106 -87.5 -160.5t-12.5 -61.5q13 -8 30.5 3t36.5 32t38 48.5t35 53t27 45t15 25.5z" />
    <glyph glyph-name="n" unicode="n" horiz-adv-x="361" 
d="M363 242q5 9 13 12.5t13.5 1.5t7.5 -10t-5 -23q-7 -16 -21.5 -42t-33 -54.5t-41 -57t-46 -49.5t-47.5 -31t-45 -2q-22 8 -33.5 28t-8 58t26 97t69.5 145q-30 -14 -64.5 -50.5t-67 -80t-59 -87t-40.5 -70.5l-6 -12t-5 -12q-9 -5 -18.5 1t-18.5 16.5t-15 21.5t-7 16
q46 101 78 177t55 142q8 7 21.5 11t27.5 5.5t26 1.5t16 -2q-9 -20 -19 -43.5t-21 -48.5q37 47 74.5 80.5t69.5 35.5q17 -13 27 -34.5t15 -44t6 -41.5t0 -27q-63 -106 -90 -167t-16 -68q13 -8 30.5 3t36.5 32t38 48.5t35 53t27.5 45t14.5 25.5z" />
    <glyph glyph-name="o" unicode="o" horiz-adv-x="322" 
d="M324 242q5 9 12.5 12.5t13.5 1t7.5 -10.5t-4.5 -22q-11 -24 -33 -59.5t-50.5 -66.5t-61 -48t-64.5 -4l-12 6q-47 -45 -90.5 -48.5t-68 26t-22 88.5t46.5 139q34 61 70 94.5t68 43.5t58 -1t40 -38t13.5 -67.5t-21.5 -89.5q-29 -66 -60 -108q13 -7 29 0.5t32.5 22.5
t32.5 35t29 39t22 34t13 21zM173 250q-16 -20 -24.5 -44.5t-10.5 -47.5q3 7 6.5 13.5t7.5 14.5q17 38 21 64zM46 198q-21 -43 -25 -76t4.5 -49.5t27 -13.5t43.5 33q-11 21 -14.5 47t-1 53t12 53.5t25.5 49.5q-17 -11 -35.5 -35t-36.5 -62z" />
    <glyph glyph-name="p" unicode="p" horiz-adv-x="366" 
d="M368 241q5 9 13 12.5t13.5 1.5t7.5 -10t-5 -22q-7 -16 -21.5 -42t-33.5 -55t-41 -57.5t-46 -49.5t-47.5 -31t-45.5 -2t-33.5 27t-9 52.5t20.5 85t56 124.5q-49 -10 -97.5 -58t-90.5 -135q-9 -21 -19.5 -43t-21 -42.5t-19.5 -38t-15 -28.5q-8 -9 -22.5 -15t-29.5 -9.5
t-28 -4t-18 2.5q23 51 54.5 118.5t63 135.5t57.5 127t38 92q8 6 22 10t28 5.5t26 1.5t16 -2q-9 -20 -19.5 -44t-22.5 -52q32 35 68.5 65t78.5 47q16 -13 27 -31.5t17 -37t8 -34t1 -23.5q-32 -53 -55.5 -97t-38 -76.5t-20 -52t0.5 -22.5q13 -8 30.5 3t37 32t38.5 48.5t35 53
t27 45t15 25.5z" />
    <glyph glyph-name="q" unicode="q" horiz-adv-x="362" 
d="M364 242q5 9 13 12.5t13.5 1t7.5 -10.5t-5 -22q-7 -16 -20.5 -40.5t-30.5 -51.5t-38 -53t-43 -45t-45 -27.5t-44 -0.5q-10 3 -17 10q-9 -23 -17.5 -41.5t-16.5 -33.5q-8 -9 -22.5 -16t-29.5 -11.5t-28 -6t-18 1.5q10 22 21.5 47t23.5 52q-11 -5 -24 -6.5t-29 0.5
q-35 5 -48 33t-10 67.5t17 85t32.5 85.5t37.5 68.5t31 34.5q45 21 84 18t63 -20l2 4q8 6 21.5 10t27.5 6t26 1.5t16 -2.5q-9 -21 -21 -48.5t-25 -59t-27.5 -66t-28.5 -68.5q-36 -86 -18 -97q12 -8 28.5 1.5t34.5 28.5t35.5 44t32 48.5t25 42t13.5 24.5zM46 51
q18 -10 57 56.5t93 204.5q-1 6 -7.5 10.5t-16 6.5t-19.5 1t-17 -7q-2 -2 -12.5 -21.5t-24.5 -47.5t-28.5 -61t-23.5 -62.5t-11 -51.5t10 -28z" />
    <glyph glyph-name="r" unicode="r" horiz-adv-x="315" 
d="M317 242q5 9 12.5 12.5t13.5 1.5t7.5 -10t-4.5 -23q-7 -16 -20.5 -40.5t-31 -51.5t-38 -53t-43 -44.5t-45 -27.5t-44.5 -1q-27 10 -37.5 37t-8 63.5t14.5 78.5t29 83q-27 6 -58 20q-20 -46 -46 -92q-6 -10 -11.5 -8.5t-9.5 8.5t-5 16.5t2 14.5q11 18 21 38.5t19 40.5
q-21 17 -28.5 39.5t0.5 47.5q4 13 12.5 22t18.5 13.5t20.5 3t19.5 -9.5q11 -11 13 -28t-3 -40q26 -19 58 -30q0 2 1 3q13 30 31.5 50.5t37.5 32t37 13.5t32 -5q20 -10 24.5 -35t-5.5 -52t-34 -49t-60 -26q-17 -32 -32 -65t-24.5 -61.5t-12 -49t6.5 -26.5q12 -8 28.5 1.5
t34.5 28.5t35.5 44t32.5 48.5t25 42t14 24.5zM58 398q-8 4 -8.5 -2.5t11.5 -19.5q3 19 -3 22zM268 346q5 8 4 8.5t-5.5 -3.5t-11 -12t-13.5 -16q15 7 26 23z" />
    <glyph glyph-name="s" unicode="s" horiz-adv-x="295" 
d="M296 242q5 9 12.5 12.5t13.5 1t7.5 -10.5t-4.5 -22q-4 -9 -12 -23.5t-17.5 -31t-21 -34t-21.5 -32.5q-27 -41 -61.5 -64.5t-69 -31.5t-67.5 -2.5t-58 23.5t-39 47.5t-12 67.5q2 30 15 60.5t41 59.5q9 10 21.5 4t23 -18t16 -24t0.5 -13q-24 -5 -39.5 -25t-19.5 -44.5
t6 -48.5t38 -36q37 -16 66 -1.5t38.5 45t-5.5 69t-66 71.5q-4 2 -11 7.5t-10 7.5q-37 31 -35 64.5t30 56t74 26.5t97 -24q31 -18 38.5 -42t-2.5 -43.5t-33.5 -29.5t-52.5 1q20 2 21 15t-26 28q-17 9 -31 11t-21.5 -2t-6 -11.5t15.5 -16.5q2 -2 11.5 -8.5t11.5 -8.5
q42 -30 62 -63.5t23 -65.5q23 33 39 62t21 37z" />
    <glyph glyph-name="t" unicode="t" horiz-adv-x="194" 
d="M260 502q1 -10 -2.5 -23.5t-10.5 -26.5t-16 -24t-18 -16q-2 0 -4 0.5t-7.5 1t-14.5 1.5t-25 2q-45 -92 -74.5 -158.5t-45.5 -110t-19.5 -66.5t3.5 -29q12 -9 28.5 0t34 28t35.5 44.5t33 49.5t25.5 42.5t13.5 24.5q5 9 13 12.5t13.5 1.5t7.5 -10t-5 -23
q-7 -16 -20.5 -40.5t-31 -51.5t-38 -53t-42.5 -44.5t-45 -27.5t-45 -1q-29 11 -37.5 44t0.5 86.5t34 127t63 166.5q-14 2 -19.5 4t-14.5 4q3 12 10.5 28t18.5 37q3 0 11 -0.5t25 -0.5q1 2 4 10t6 18t6 20.5l5 17.5q5 1 21.5 1t35 -2t34.5 -7t19 -13q-3 -6 -11.5 -21.5
t-10.5 -23.5h25t32 1z" />
    <glyph glyph-name="u" unicode="u" horiz-adv-x="373" 
d="M375 242q5 9 13 12.5t13.5 1t7.5 -10.5t-5 -22q-7 -16 -20.5 -40.5t-31 -51.5t-38 -53t-43 -45t-45 -27.5t-44.5 -0.5q-19 7 -27 24t-9 41q-31 -43 -59 -58.5t-57 -10.5q-35 5 -49.5 34t-14 70t12 88t28 88t34 70t29.5 35q15 6 33.5 7.5t35 0.5t27.5 -4t11 -6
q-20 -24 -40 -56.5t-38 -67.5t-32 -70t-21 -64t-6.5 -49t12.5 -26q19 -9 47 26t69 128q13 30 27 60t26 55t22 43.5t15 25.5q1 2 10 2.5t21 -0.5t25 -3.5t23 -6.5t13.5 -10t-2.5 -13q-10 -12 -27 -38t-36 -58t-37 -66.5t-30.5 -64t-17 -51t4.5 -27.5q12 -8 28.5 1.5
t34.5 28.5t35.5 44t32.5 48.5t25 42t14 24.5z" />
    <glyph glyph-name="v" unicode="v" horiz-adv-x="377" 
d="M420 332q-1 -27 -24.5 -42.5t-57.5 -13.5q-33 -73 -72.5 -128t-78 -90t-73 -50t-58.5 -8q-23 7 -37.5 34t-21 64.5t-6.5 81t5.5 83.5t17 71t26.5 44q9 8 28 10.5t38 2t33.5 -3t14.5 -5.5q-34 -38 -54.5 -91.5t-29 -103t-6.5 -85t13 -38.5q7 -2 28 10t48.5 40t58 73
t57.5 109q-24 16 -29 40.5t5 45t33 32t56 2.5q35 -10 41 -29.5t-8 -38.5q-8 -12 -2.5 -20t16.5 -10.5t22.5 0.5t16.5 14z" />
    <glyph glyph-name="w" unicode="w" horiz-adv-x="511" 
d="M563 326q0 -14 -8 -25t-21 -19t-29.5 -12t-32.5 -2q-33 -73 -69.5 -128t-72.5 -90t-68 -50t-55 -8q-25 7 -39 38q-29 -23 -54.5 -32.5t-43.5 -4.5q-24 7 -40.5 34t-26 64.5t-12 81t1.5 83t14 70.5t25 44q9 8 28 10.5t38 2t33 -3t14 -5.5q-23 -26 -37.5 -59t-22.5 -68.5
t-10.5 -70t-1 -62t7 -45.5t12.5 -20q6 -2 22 7t36 30q-6 35 -4.5 75t7 76t14 64t18.5 39q19 20 46.5 28t52 4t40 -21t9.5 -46q-14 -69 -46.5 -128.5t-72.5 -102.5q7 -17 13 -18q7 -2 26 10t43.5 40t52 73t52.5 109q-24 16 -29 40.5t5 45t33.5 32t56.5 2.5q35 -10 40 -29
t-7 -39q-7 -12 0.5 -18.5t20.5 -8t25.5 1.5t15.5 11zM249 295q-15 -29 -23.5 -59t-12.5 -59q11 25 20.5 54t15.5 64z" />
    <glyph glyph-name="x" unicode="x" horiz-adv-x="510" 
d="M512 236q7 13 15 17.5t14 2.5t8 -10t-4 -20q-23 -54 -58 -98t-73 -74t-76 -44t-68 -8q-38 8 -59.5 29.5t-30.5 51.5q-48 -54 -94.5 -72t-74.5 -3t-30 60.5t38 118.5q8 15 24 16t31.5 -4t26.5 -11.5t11 -7.5q-52 -64 -60.5 -97.5t9 -31.5t53 42.5t71.5 125.5q16 38 8 67
t-31.5 36.5t-57.5 -13.5t-69 -84q-4 -7 -8 -14.5t-5 -8.5q-3 -6 -9 -4.5t-11 6t-7.5 11t-0.5 11.5q1 2 4.5 8.5t8 13.5t8 13t5.5 9q36 58 74 86.5t72.5 34.5t62.5 -7t43 -39q31 28 68.5 42.5t79.5 7.5q21 -3 30.5 -22t9 -44.5t-10.5 -54t-28 -52.5q-8 -4 -20 -6t-25.5 -2
t-26 0.5t-20.5 2.5q10 12 18.5 27.5t14 29.5t7 23.5t-2.5 9.5q-20 -2 -42 -20t-40 -45t-31 -58.5t-15 -59t8 -47.5t38 -24q25 -4 55 8.5t60.5 37.5t59.5 60t53 77z" />
    <glyph glyph-name="y" unicode="y" horiz-adv-x="365" 
d="M367 242q5 9 13 12.5t13.5 1t7.5 -10.5t-5 -22q-7 -16 -20.5 -40.5t-31 -51.5t-38 -53t-42.5 -45t-45 -27.5t-45 -0.5q-9 4 -18 11q-17 -36 -29 -61q-14 -26 -34 -42.5t-42.5 -21t-46 3.5t-42.5 30q-3 3 -0.5 14.5t7 24t9 23t6.5 12.5q17 -40 41 -40.5t47 38.5q4 6 6 10
q-12 -5 -23.5 -6.5t-23.5 0.5q-35 5 -49.5 34t-14 70t12 88t28 88t34 70t29.5 35q15 6 33.5 8t35 0.5t27.5 -4.5t11 -6q-20 -24 -39.5 -56.5t-36 -67t-29.5 -69.5t-19 -64t-5 -49.5t13 -26.5q12 -7 34.5 22.5t53.5 92.5q8 19 20 48.5t25 60.5t25 58.5t21 44.5q5 9 18.5 12.5
t26.5 2t21.5 -7.5t3.5 -15q-8 -14 -17.5 -35.5t-21 -47.5t-24 -55.5t-25.5 -59.5q-43 -109 -26 -119q13 -8 29.5 1.5t34.5 29t35.5 44.5t32 48.5t24.5 41.5t14 24z" />
    <glyph glyph-name="z" unicode="z" horiz-adv-x="380" 
d="M381 242q5 9 12.5 12.5t13.5 1.5t7.5 -10t-4.5 -23q-8 -16 -21 -40.5t-30.5 -51.5t-38 -53t-43 -44.5t-45 -27.5t-44.5 -1q-10 4 -19 11q-8 -18 -15.5 -33.5t-13.5 -26.5q-14 -27 -34 -43.5t-42.5 -21t-45.5 3.5t-42 30q-3 3 -0.5 14.5t6.5 24t9 23t7 12.5
q16 -40 40.5 -40.5t47.5 38.5q3 5 10.5 20.5t17 37.5t21.5 48.5t24 54.5q-5 -2 -15.5 -7t-21.5 -10.5t-20 -11t-12 -8.5q-5 2 -12.5 10t-11.5 16q-2 7 5 26t16.5 39t18 37t9.5 20q-14 4 -26 7.5t-26 10.5q-11 -23 -23 -46t-25 -46q-6 -10 -11.5 -8.5t-9 8.5t-5 16.5
t1.5 14.5q11 18 21.5 38.5t19.5 40.5q-20 17 -28 39.5t0 47.5q4 13 12.5 22t18.5 13t20.5 2.5t19.5 -9.5q11 -11 13.5 -27.5t-2.5 -39.5q14 -10 30.5 -17.5t31.5 -12.5q0 2 1 3q13 30 30 48t35 25.5t35 7t31 -7.5q20 -10 21 -34t-13 -49t-42.5 -43t-68.5 -16
q-5 -7 -11 -16.5t-12.5 -18.5t-13 -17.5t-10.5 -13.5q26 21 49 30.5t38.5 7t21 -18t-4.5 -46.5q-17 -53 -24.5 -79.5t1.5 -31.5q13 -8 29.5 1.5t34 29t35 44.5t32.5 48.5t25 41.5t14 24zM271 346q5 8 4 8.5t-5.5 -3.5t-11 -12t-13.5 -16q15 7 26 23zM59 376q3 19 -3 22
q-8 4 -8 -2.5t11 -19.5z" />
    <glyph glyph-name="braceleft" unicode="{" horiz-adv-x="351" 
d="M191 571q12 30 33 45.5t45 20.5t48 0.5t43.5 -14.5t31 -24.5t10.5 -28.5q-6 -10 -20.5 -19.5t-30.5 -16.5t-29.5 -10t-17.5 1q3 9 1 18t-6.5 12.5t-10.5 0.5t-9 -18q-19 -79 -55 -124.5t-76 -63.5q24 -38 26 -99t-34 -140q-6 -14 -4 -20t8 -6t13.5 5.5t10.5 14.5
q6 1 15 -9.5t17 -25.5t13 -31.5t4 -28.5q-8 -12 -26 -16t-39.5 0t-43 15.5t-37.5 30t-23 44t2 56.5q8 26 20.5 58t20.5 61t6.5 51t-21.5 29v1q-10 2 -15 4q-8 3 -8.5 13t4 20.5t13.5 17.5t20 4h1q20 -5 34.5 12t25.5 44t20.5 59t19.5 57z" />
    <glyph glyph-name="bar" unicode="|" horiz-adv-x="272" 
d="M73 674q11 5 29.5 12t37 9t33 -5t17.5 -31q-1 -18 -2.5 -66.5t-3 -112.5t-3 -135t-4 -133.5t-4.5 -108.5t-5 -60q-3 -21 -18.5 -31.5t-32 -11t-30.5 7.5t-14 24q0 10 -0.5 41t-0.5 76t-0.5 99t-0.5 110v110v97t0.5 72.5t1.5 36.5z" />
    <glyph glyph-name="braceright" unicode="}" horiz-adv-x="453" 
d="M226 61q-12 -30 -33 -45.5t-45 -20.5t-48 -0.5t-43.5 14.5t-31.5 24t-10 29q6 10 20.5 19.5t30.5 16.5t29.5 10t17.5 -1q-3 -9 -1 -18t6.5 -12.5t10.5 -0.5t9 18q19 79 55 124.5t76 63.5q-24 38 -26 99t34 140q6 13 4 19t-8 6t-13.5 -5t-10.5 -14q-6 -1 -15 9.5t-17 25.5
t-13 31.5t-4 28.5q8 12 26 16t39.5 0t43 -15.5t37.5 -30t23 -44t-2 -56.5q-8 -26 -20.5 -58t-20.5 -61t-6.5 -51t21.5 -29v-1q10 -2 15 -4q8 -3 8.5 -13t-4 -20.5t-13.5 -17.5t-20 -4h-1q-20 4 -34.5 -12.5t-25.5 -43.5t-20.5 -59t-19.5 -57z" />
    <glyph glyph-name="exclamdown" unicode="&#xa1;" horiz-adv-x="310" 
d="M-17.9814 -341.961q-10.999 0 -30.498 0.5t-37.498 5.5q-17.999 4.99902 -28.998 17.499q-10.999 12.499 -4.99902 35.4971q6.99902 14 22.998 47.9971q15.999 33.998 36.498 78.9951q20.498 44.998 43.4971 96.9941q22.999 51.9971 45.9971 101.994
q22.999 49.9971 43.4971 93.9941q20.499 43.9971 34.498 72.9961q4 0 19.499 -4t32.498 -10q16.999 -5.99902 30.498 -11.999q13.499 -5.99902 12.499 -8.99902q-12.999 -31.998 -33.498 -80.9951q-20.498 -48.9971 -43.4971 -103.994q-22.998 -54.9961 -46.4971 -110.993
q-23.498 -55.9961 -43.4971 -102.993t-33.998 -78.9951t-18.999 -38.998zM218.004 213.005q-2.99902 -1 -17.499 3q-14.499 4 -30.998 9.5q-16.499 5.49902 -30.498 10.999t-15.999 7.49902q6 11 10.5 19.499q4.49902 8.5 6.49902 12.499q11.999 17.999 30.498 21.499
t33.998 -2q15.499 -5.49902 24.999 -18.499q9.49902 -12.999 3.49902 -27.998q-2.99902 -8.99902 -14.999 -35.998z" />
    <glyph glyph-name="cent" unicode="&#xa2;" horiz-adv-x="238" 
d="M189 534q7 11 13.5 9t1.5 -13q-11 -24 -26 -43.5t-32 -33t-34 -19.5t-30 -4q-2 1 -2.5 1t-2.5 1q-2 -5 -3 -6q-6 -12 -14.5 -7.5t-2.5 15.5l2 6q-19 14 -19.5 41.5t13 55t37.5 48t53 21.5l2 4q4 7 8 9.5t7 0.5t4 -6.5t-1 -10.5q9 -3 12.5 -12t2.5 -19.5t-5.5 -22.5
t-13.5 -21q-8 -4 -15.5 -3t-15.5 3q8 6 11 15.5t2 16.5q-12 -25 -27 -55l-26 -52q9 -3 22.5 2t27.5 16.5t27.5 28t23.5 34.5zM120 561q-12 -6 -22.5 -18t-17.5 -25.5t-9.5 -27t2.5 -23.5q10 20 23 45.5t24 48.5z" />
    <glyph glyph-name="sterling" unicode="&#xa3;" horiz-adv-x="328" 
d="M132 441q6 32 21 47.5t33 20.5t37.5 0.5t35.5 -12.5t26.5 -17.5t10.5 -15.5q0 -18 -5.5 -34t-12 -27.5t-12 -16.5t-5.5 -1q-2 22 -13 36t-24 19t-24.5 -0.5t-14.5 -23.5q-2 -11 -6.5 -32.5t-12.5 -45.5q14 -2 25 -3.5t15 -1.5q6 -1 8.5 -6.5t2 -11t-4.5 -9.5t-10 -3
q-5 1 -18 2.5t-29 3.5q-8 -18 -17.5 -34.5t-21.5 -28.5q12 2 33.5 0t43.5 -6t40.5 -8.5t23.5 -6.5q3 -3 3.5 -9t-0.5 -12.5t-3.5 -12t-6.5 -5.5q-18 7 -49.5 11.5t-62.5 7t-55.5 3.5t-28.5 2q-1 2 -1.5 8t-0.5 13t0.5 13t1.5 9q20 11 31.5 26t19.5 36q-12 1 -17 3
q-9 1 -12 6t-1.5 10.5t6 10t11.5 3.5q4 -1 21 -3q5 19 9 42.5t10 53.5z" />
    <glyph glyph-name="currency" unicode="&#xa4;" horiz-adv-x="403" 
d="M289 242q2 2 8 -3.5t10.5 -13t6 -15t-5.5 -10.5q-11 -5 -22.5 -9.5t-17.5 -7.5q5 -21 -0.5 -38.5t-17.5 -30.5q13 -28 20 -40q1 -2 -4 -7.5t-13 -10t-15.5 -6t-10.5 5.5q-4 9 -7.5 18.5t-6.5 17.5q-20 -5 -39.5 -1t-34.5 20q-12 -5 -22 -10.5t-14 -7.5q-2 -2 -8 3.5
t-10.5 13.5t-6 15.5t5.5 10.5q10 4 19.5 8t16.5 7q-5 22 1.5 40t19.5 31q-6 13 -11.5 23.5t-8.5 15.5q-2 2 3.5 8t13.5 10.5t15.5 6t10.5 -5.5q8 -22 15 -38q18 5 36.5 0t32.5 -21q-1 0 1 2q13 5 24 10.5t16 8.5zM169 154q5 -13 16 -15.5t20.5 2t14.5 15t-1 24.5
q-6 12 -17 14.5t-20.5 -2t-14 -15t1.5 -23.5z" />
    <glyph glyph-name="yen" unicode="&#xa5;" 
d="M435 558q0 7 3 12t9 5q7 0 10 -5t3 -11q0 -7 -3.5 -12t-9.5 -5t-9 5t-3 11zM625 574h6q16 0 16 -15q0 -16 -17 -16h-5v31zM580 548q0 3 5 6q6 -8 8 -10q-2 -2 -6 -2q-7 0 -7 6zM834 611v-611h-616v611h616zM393 586h414v6h-414v-6zM772 572q2 -3 3.5 -6.5t3.5 -6.5
l13 -20h5v39h-5v-16q0 -11 1 -16q-4 8 -7 12l-13 20h-5v-39h4v17v16zM748 543q-15 0 -15 16q0 15 16 15q6 0 8 -1l2 4q-4 2 -10 2q-10 0 -15.5 -6t-5.5 -15t5 -14t15 -5q8 0 12 2v19h-13v-5h8v-11q-1 -1 -7 -1zM716 578v-39h5v39h-5zM697 557q7 -3 7 -8q0 -6 -8 -6
q-5 0 -9 2l-2 -4q4 -3 10 -3q8 0 11 3.5t3 8.5q0 8 -10 11q-8 3 -8 8q0 2 1.5 4t6.5 2t7 -2l2 4q-4 2 -9 2q-13 0 -13 -11q0 -8 11 -11zM664 562v12h16v4h-21v-39h22v4h-17v14h15v5h-15zM652 559q0 8 -5 15q-5 4 -16 4h-11v-39h9q11 0 18 5q5 7 5 15zM580 563q0 -3 3 -6v-1
q-6 -3 -6 -9q0 -3 2 -6t7 -3t9 4q2 -1 2 -1.5t1 -1.5h5q-2 2 -2.5 3t-2.5 3q4 4 4 11h-3l-3 -9q-2 2 -4 4.5t-4 4.5q7 3 7 8q0 7 -7 7q-8 0 -8 -8zM548 557q7 -3 7 -8q0 -6 -8 -6q-5 0 -9 2l-1 -4q3 -3 10 -3t10 3.5t3 8.5q0 8 -10 11q-8 3 -8 8q0 2 1.5 4t6.5 2t7 -2l2 4
q-4 2 -9 2q-13 0 -13 -11q0 -8 11 -11zM517 574v-35h6v35h11v4h-29v-4h12zM476 572q3 -7 8 -13l12 -20h5v39h-5v-16q0 -11 1 -16q-4 8 -7 12l-13 20h-5v-39h4v17v16zM465 559q0 20 -18 20q-8 0 -13 -5.5t-5 -15.5q0 -20 18 -20q8 0 13 5.5t5 15.5zM408 561v13h16v4h-21v-39
h5v18h15v4h-15zM393 525h414v6h-414v-6zM796 445q0 32 -18 50q-18 19 -46 19q-31 0 -48 -20q-17 -18 -17 -50q0 -33 18 -51q18 -19 46 -19q29 0 47 19t18 52zM578 412q-6 9 -6 31q0 42 21 42q8 0 14 -7q5 -7 5 -19l37 2q-2 24 -16 38q-14 15 -41 15q-28 0 -45 -20
q-16 -19 -16 -51t17 -51q16 -18 44 -18q25 0 39 13q15 14 18 37l-36 2q-3 -22 -20 -22q-10 0 -15 8zM515 445q0 25 -17 47q-17 20 -51 20h-53v-136h55q29 0 48 19q18 19 18 50zM266 519q-11 -2 -17 -15t-3 -30t12.5 -27.5t20.5 -8.5v-8v-1q0 -17 8 -28q12 -17 36 -21
q11 -3 25 -4t29 -1v6q-11 0 -22 0.5t-20 1.5q-10 2 -14 3q-6 2 -10 4q-12 4 -19 14q-5 7 -7 19q7 -13 21 -19q3 -2 9 -4q13 -4 29 -5.5t33 -1.5v9q-17 0 -32.5 1t-27.5 5q-11 4 -18 9q-11 8 -14 18v5q3 9 6 15q10 13 33 18q4 1 14 3l2 2q1 0 2 1h1q1 1 4 1l2 1h1q1 -1 3 -1
l6 -3h1l3 3q3 3 5 3q6 2 8 2h1v108q-24 -1 -39.5 -8t-25.5 -19t-14.5 -27.5t-6.5 -32.5q-10 15 -25 13zM376 455q-12 0 -17 8q-4 -4 -10 -4q-11 0 -13 9v-2q0 -10 13 -10q7 0 10 4q5 -9 17 -9h1v4h-1zM808 362h-563v-339h563v339zM591 564q0 -3 -5 -6q-2 4 -2 6q0 4 4 4
q3 0 3 -4zM447 483q13 0 19 -12q7 -12 7 -26q0 -18 -8 -29q-7 -10 -18 -10h-13v77h13zM710 443q0 42 22 42q20 0 20 -37q0 -28 -5 -35q-4 -10 -16 -10q-21 0 -21 40zM276 446q-7 -2 -13 5t-8 12q-6 14 -4 27t11 17q9 5 15.5 0.5t11.5 -11.5q2 -2 -1 -17q-4 1 -8 -1
q4 -1 4.5 -2t2.5 -2q-4 0 -7 -0.5t-7 -1.5q6 -2 10 -6h-4.5t-4.5 -2q5 -2 6.5 -3.5l2.5 -2.5q-3 -10 -7 -12zM339 489q-12 1 -17.5 8t-4.5 8q31 17 40 1q1 -2 -3 -9.5t-14 -7.5h-1zM278 233q7 0 12 -3q4 -2 4 -8t-4 -9q-4 -4 -12 -4h-3v-14h-8v38h11zM278 215q7 0 7 6t-6 6
h-4v-11q1 -1 3 -1zM308 226v-8h14v-7h-14v-9h15v-7h-24v38h24v-7h-15zM356 223q0 -8 -6 -10q4 -2 5 -7q1 -3 1.5 -6t1.5 -5h-9q-1 2 -1 4t-2 5q-1 6 -6 6h-2v-15h-9v38h12q9 0 12 -2q3 -3 3 -8zM341 216q7 0 7 6q0 5 -6 5h-4v-11h3zM372 202q6 0 6 4q0 3 -6 5q-11 4 -11 11
q0 12 15 12q5 0 9 -2l-1 -7q-4 2 -8 2q-6 0 -6 -4q0 -2 7 -5q10 -4 10 -11q0 -12 -15 -12q-7 0 -11 2l2 7q4 -2 9 -2zM391 214q0 8 5 14t13 6q9 0 13.5 -5.5t4.5 -13.5q0 -20 -18 -20t-18 19zM418 214q0 13 -9 13t-9 -13q0 -12 9 -12t9 12zM447 210q-2 3 -3.5 6.5t-2.5 6.5
h-1q1 -5 1 -16v-12h-8v38h10l8 -14q4 -8 6 -13q0 4 -0.5 7.5t-0.5 8.5v11h8v-38h-9zM480 233h12l11 -38h-9l-3 10h-11l-2 -10h-9zM482 211h8l-2 9q-2 4 -2 7q-1 -2 -1 -3.5t-1 -3.5zM517 233v-30h15v-8h-23v38h8zM557 233v-22q0 -9 7 -9t7 9v22h8v-21q0 -17 -15 -17
q-16 0 -16 17v21h9zM596 202q6 0 6 4t-6 5q-10 3 -10 11q0 12 14 12q4 0 10 -2l-2 -7q-4 2 -8 2q-6 0 -6 -4q0 -2 7 -5q10 -4 10 -11q0 -12 -15 -12q-7 0 -11 2l2 7q4 -2 9 -2zM626 226v-8h13v-7h-13v-9h15v-7h-24v38h23v-7h-14zM656 214q0 8 5.5 14t13.5 6t13 -5.5t5 -13.5
q0 -20 -19 -20q-18 0 -18 19zM684 214q0 13 -9 13t-9 -13q0 -12 9 -12t9 12zM713 210q-2 3 -3.5 6.5t-3.5 6.5v-16v-12h-8v38h10l8 -14q5 -6 6 -13h1q-1 5 -1 16v11h8v-38h-9zM746 233v-30h15v-8h-24v38h9zM769 195v16l-11 22h9l4 -9q1 -3 3 -7q2 4 3 7l4 9h9l-12 -22v-16
h-9zM271 162v-13q0 -6 4 -6t4 6v13h6v-13q0 -11 -10 -11t-10 11v13h6zM295 143q4 0 4 2q0 3 -4 4q-6 1 -6 7q0 7 9 7q2 0 6 -2l-2 -4q-1 1 -5 1q-3 0 -3 -2t4 -3q7 -3 7 -7q0 -8 -10 -8q-3 0 -7 2l1 4q2 -1 6 -1zM314 162h7l7 -23h-6l-2 6h-6l-2 -6h-6zM314 149h6l-2 5
q0 1 -0.5 2t-0.5 2q0 -1 -0.5 -2t-0.5 -2zM343 158q-8 0 -8 -8q0 -7 7 -7h3v5h-4v4h9v-12q-4 -2 -8 -2q-5 0 -9 4q-4 3 -4 8q0 13 14 13q4 0 6 -2l-1 -4q-1 1 -5 1zM360 158v-5h8v-4h-8v-6h9v-4h-15v23h15v-4h-9zM387 162q6 0 7 -1q3 -3 3 -6t-2 -5q-3 -3 -8 -3h-2v-8h-5v23
h7zM387 151q5 0 5 4q0 3 -5 3h-2v-7h2zM406 158v-5h8v-4h-8v-6h9v-4h-15v23h15v-4h-9zM436 156q0 -4 -4 -6q2 -2 3 -5q1 -2 1 -3.5t1 -2.5h-6q-1 0 -1 1v4q-1 4 -4 4h-2v-9h-5v23h7q6 0 8 -1q2 -4 2 -5zM426 152q5 0 5 3t-4 3h-3v-6h2zM446 143q4 0 4 2t-4 4q-7 2 -7 7
q0 7 9 7q4 0 6 -2l-1 -4q-1 1 -5 1q-3 0 -3 -2t4 -3q6 -3 6 -7q0 -8 -9 -8q-5 0 -7 2l1 4q1 -1 6 -1zM458 150q0 13 11 13q5 0 8 -3.5t3 -8.5q0 -13 -11 -13q-5 0 -8 3.5t-3 8.5zM475 151q0 7 -6 7t-6 -8q0 -7 6 -7t6 8zM493 148q-2 2 -4 8h-1q1 -3 1 -10v-7h-5v23h6l5 -8
l2 -4l2 -4q-1 3 -1 9v7h5v-23h-5zM517 148q-2 2 -4 8v-10v-7h-5v23h6l5 -8l2 -4l2 -4v9v7h4v-23h-5zM537 158v-5h9v-4h-9v-6h10v-4h-15v23h15v-4h-10zM556 162v-19h10v-4h-15v23h5zM581 162v-13q0 -6 4 -6q5 0 5 6v13h5v-13q0 -11 -10 -11q-9 0 -9 11v13h5zM609 148
q-2 2 -2.5 4t-2.5 4q0 -2 0.5 -4.5t0.5 -5.5v-7h-5v23h6l5 -8l2 -4l2 -4q-1 3 -1 9v7h5v-23h-5zM624 139v23h5v-23h-5zM655 151q0 -8 -5 -11q2 0 3 -0.5t2 -0.5l-1 -4l-9 3h-2q-10 2 -10 12q0 13 11 13q5 0 8 -3.5t3 -8.5zM644 143q6 0 6 8q0 7 -6 7t-6 -8q0 -7 6 -7z
M664 162v-13q0 -6 4 -6q5 0 5 6v13h5v-13q0 -11 -10 -11q-9 0 -9 11v13h5zM688 158v-5h9v-4h-9v-6h10v-4h-15v23h14v-4h-9zM719 162h7l1 -23h-5l-1 9v9l-3 -9l-2 -9h-5l-2 9q-2 6 -2 9q0 -2 -0.5 -4.5t-0.5 -4.5v-9h-5l1 23h8l2 -8q1 -2 1 -4t1 -4q1 2 1 4t1 4zM736 158v-5
h9v-4h-9v-6h10v-4h-15v23h15v-4h-10zM759 148q-2 2 -4 8h-1q1 -3 1 -10v-7h-5v23h6l5 -8l2 -4l2 -4q0 2 -0.5 4.5t-0.5 4.5v7h5v-23h-5zM779 139v19h-7v4h18v-4h-6v-19h-5zM328 89q9 0 9 -10t-9 -10q-10 0 -10 10t10 10zM328 71q7 0 7 8t-8 8q-7 0 -7 -8t8 -8zM330 75l1 1
l1 -2q-1 0 -2 -0.5t-2 -0.5q-6 0 -6 6t6 6q3 0 4 -1l-1 -1h-3q-4 0 -4 -4t4 -4h2zM356 73v-4h-5v2q-2 -3 -5 -3q-7 0 -7 8q0 9 7 9q3 0 5 -2v8h5v-18zM351 78q-2 3 -3 3q-4 0 -4 -5q0 -4 4 -4q1 0 3 2v2v2zM368 81q-4 0 -4 -5q0 -4 4 -4q2 0 3 1v-4q-1 0 -1.5 -0.5
t-2.5 -0.5q-8 0 -8 8q0 9 9 9q1 0 1.5 -0.5t1.5 -0.5l-1 -4q0 1 -2 1zM381 85q8 0 8 -8q0 -9 -8 -9t-8 8q0 9 8 9zM381 72q3 0 3 4q0 5 -3 5t-3 -5q0 -4 3 -4zM407 73q0 -3 1 -4h-5v2q-2 -3 -5 -3q-7 0 -7 8q0 9 7 9q4 0 4 -2h1v8h4v-18zM403 78h-1q0 3 -2 3q-4 0 -4 -5
q0 -4 4 -4q2 0 2 2q0 1 0.5 1t0.5 1v2zM424 69q-1 0 -2 -0.5t-3 -0.5q-9 0 -9 8q0 3 2 6t6 3q7 0 7 -8v-2h-10q0 -3 5 -3h4v-3zM418 81q-3 0 -3 -3h6q0 3 -3 3zM432 72q3 0 3 1l-3 2q-4 1 -4 4q0 6 6 6q2 0 3 -0.5t2 -0.5l-1 -4q-1 1 -4 1q-2 0 -2 -1t3 -2q4 -1 4 -5
q0 -5 -7 -5q-2 0 -2.5 0.5t-2.5 0.5l1 4q1 -1 4 -1zM445 91q2 0 2 -2q0 -3 -2 -3q-3 0 -3 3q0 2 3 2zM442 84h5v-15h-5v15zM457 66q4 0 4 4v1q-1 -2 -4 -2q-7 0 -7 7q0 9 7 9q3 0 5 -3v2h4v-4v-9q0 -6 -3 -7q-1 -2 -6 -2q-4 0 -6 1l1 4q1 -1 5 -1zM461 78v1q0 2 -3 2t-3 -5
q0 -4 3 -4q1 0 3 2v2v2zM479 85q6 0 6 -7v-9h-5v8q0 4 -3 4q-2 0 -2 -2v-1v-9h-5v10v5h4v-2q3 3 5 3zM496 75h-8v4h8v-4zM509 81h9v-11q-4 -2 -8 -2q-5 0 -8 3q-4 4 -4 8q2 11 13 11q5 0 6 -1l-1 -4q-1 1 -5 1q-7 0 -7 -7t6 -7q2 0 3 1v4h-4v4zM521 69v10v5h4l1 -3q0 4 4 4
l1 -1v-4h-1q-2 0 -4 -2v-2v-7h-5zM547 75h-10q0 -3 4 -3h5v-3q-1 0 -2 -0.5t-3 -0.5q-9 0 -9 8q0 3 2 6t6 3q7 0 7 -8v-2zM543 78q0 3 -3 3t-3 -3h6zM556 66q4 0 4 4v1q-1 -2 -4 -2q-7 0 -7 7q0 9 7 9q3 0 5 -3v2h4v-4v-9q0 -5 -2 -7t-7 -2q-4 0 -5 1l1 4q1 -1 4 -1zM560 78
v1q0 2 -3 2t-3 -5q0 -4 3 -4t3 2v2v2zM584 77q0 -9 -8 -9t-8 8q0 9 8 9t8 -8zM573 76q0 -4 3 -4t3 4q0 5 -3 5t-3 -5zM587 69v10v5h5v-3q1 4 4 4q1 0 1 -1v-4h-1q-2 0 -4 -2v-2v-7h-5zM604 68v1v1l-6 14h6l2 -8l1 -1v-1l1 2l2 8h5l-4 -10q-3 -9 -5 -10q-2 -2 -3 -2t-2 -1
l-1 5h2zM646 90l1 -21h-5v8v9l-3 -9l-2 -8h-4l-2 8q-2 6 -2 9q-1 -2 -1 -4.5v-4.5v-8h-5l2 21h6l2 -7q2 -6 2 -8q1 2 1 4t1 4l3 7h6zM658 85q7 0 7 -8v-2h-10q0 -3 4 -3h4l1 -3q-2 0 -3 -0.5t-3 -0.5q-8 0 -8 8q0 3 1.5 6t6.5 3zM660 78q0 3 -2 3t-2.5 -1t-1.5 -2h6zM683 73
v-4h-4v2h-1q-2 -3 -4 -3q-7 0 -7 8q0 9 7 9q2 0 4 -2v8h5v-18zM678 78q0 3 -3 3t-3 -5q0 -4 3 -4t3 2v2v2zM689 91q3 0 3 -2q0 -3 -3 -3q-2 0 -2 3q0 2 2 2zM687 84h5v-15h-5v15zM705 85q6 0 6 -7v-9h-5v8q0 4 -3 4q-2 0 -2 -2v-1v-9h-5v10v5h4v-2q3 3 5 3zM728 72v-3h-5v1
q-2 -2 -4 -2q-6 0 -6 5q0 6 10 6q0 2 -3 2q-4 0 -5 -1v3q2 2 6 2q7 0 7 -7v-6zM723 76q-5 0 -5 -3q0 -1 2 -1t3 1v1v2zM292 271h-16v71q10 2 22 2q15 0 23 -6q7 -4 7 -15q0 -7 -4 -11.5t-9 -6.5q7 -3 10 -13q2 -7 3 -13t3 -8h-17q-2 4 -5 17q-2 11 -12 12h-5v-29zM292 311h7
q13 0 13 11q0 10 -12 10q-3 0 -4.5 -0.5t-3.5 -0.5v-20zM386 271h-46v72h44v-13h-28v-15h27v-13h-27v-17h30v-14zM410 271h-15l5 72h21l8 -24q2 -6 3 -12.5t3 -13.5q2 7 3.5 13.5t3.5 12.5l7 24h22l4 -72h-16l-1 28q-1 6 -1 13.5v15.5q-3 -12 -8 -28l-9 -28h-13l-7 28
q-2 7 -3.5 14t-3.5 14q-1 -7 -1 -14.5v-14.5zM504 271h-17v72h17v-72zM533 271h-15v72h19l15 -26q3 -6 6 -12.5t6 -12.5q-1 8 -1.5 15t-0.5 15v21h15v-72h-17l-15 28q-3 6 -6.5 12.5t-6.5 12.5q1 -7 1 -14.5v-16.5v-22zM643 280q-10 -10 -33 -10q-6 0 -10.5 0.5t-7.5 0.5v71
q5 1 10 1.5t12 0.5q18 0 29 -8q12 -8 12 -27t-12 -29zM608 283h6q11 0 17.5 6t6.5 19q0 23 -23 23h-7v-48zM712 271h-46v72h45v-13h-29v-15h27v-13h-27v-17h30v-14zM739 271h-16v71q10 2 22 2q15 0 23 -6q7 -4 7 -15q0 -7 -4 -11.5t-9 -6.5q7 -3 10 -13q2 -7 3 -13t3 -8h-17
q-2 4 -5 17q-2 11 -12 12h-5v-29zM739 311h7q13 0 13 11q0 10 -12 10q-3 0 -4.5 -0.5t-3.5 -0.5v-20zM791 249h-527v6h527v-6zM791 173h-527v6h527v-6zM791 119h-527v7h527v-7zM431 51h3l-4 -14h-4l-2 9l-3 -9h-3l-5 14h4l2 -9l3 9h4l2 -9zM452 51h4l-5 -14h-3l-3 9l-2 -9
h-4l-4 14h3l3 -9l3 9h3l3 -9zM474 51h4l-5 -14h-4l-2 9l-2 -9h-4l-5 14h4l3 -9l2 9h4l2 -9zM479 41h4v-4h-4v4zM496 57h4v-20h-4v2q0 -2 -2 -2q-1 0 -2 -1q-1 0 -5 2q-1 2 -1 6t1 6q2 2 5 2q2 0 4 -2v7zM495 41q1 0 1 3t-1 4q-1 0 -1 0.5t-1 0.5t-1.5 -0.5t-1.5 -0.5
q0 -1 -0.5 -1.5t-0.5 -2.5q0 -1 0.5 -1.5t0.5 -1.5q2 -2 3 -2zM511 40q1 1 1 2h4q0 -2 -2 -4t-4 -2t-6 2q-1 2 -1 6t1 6q4 2 6 2t4 -2q2 0 2 -3l-4 -1q0 2 -1 2l-1 1q-1 0 -1.5 -0.5t-1.5 -0.5v-4v-3q1 -1 3 -1h1zM525 52q3 0 6 -3q2 -2 2 -5t-2 -5q-3 -3 -6 -3
q-1 0 -1.5 0.5t-1.5 0.5q-2 1 -2 1.5t-1 1.5t-1 4t1 4t1 1.5t2 1.5q1 0 1.5 0.5t1.5 0.5zM528 41q1 0 1 3t-1 3q-1 1 -3 1q-1 0 -2 -1q-1 0 -1 -3t1 -3q1 -1 2 -1q2 0 3 1zM544 44l5 -7h-5l-3 4l-2 -4h-5l5 7l-5 7h5l2 -4l3 4h5zM560 51h4l-5 -14l-1 -2q0 -2 -1 -2
q0 -1 -1 -1l-1 -1h-2h-2l-1 3h2q2 0 2 1l1 2l-5 14h4l3 -10zM565 41h4v-4h-4v4zM581 40q0 1 1 2h3q0 -2 -2 -4t-4 -2q-3 0 -5 2t-2 6t2 6t5 2q2 0 4 -2q2 0 2 -3l-4 -1q0 2 -1 2l-1 1q-1 0 -1.5 -0.5t-1.5 -0.5v-4v-3q1 -1 3 -1h2zM595 52q2 0 5 -3q2 -2 2 -5t-2 -5
q-3 -3 -5 -3t-2.5 0.5t-1.5 0.5l-3 3q-1 1 -1 4t1 4l3 3q1 0 1.5 0.5t2.5 0.5zM597 41q1 0 1 3t-1 3q-1 1 -2 1q-2 0 -3 -1q-1 0 -1 -3t1 -3q1 -1 3 -1q1 0 2 1zM624 51q1 -1 1 -2q1 -1 1 -3v-9h-4v8v3q-1 0 -1 0.5t-1 0.5t-1 -1q-1 0 -1 -1q-1 -1 -1 -3v-7h-4v8v2v1
q-1 1 -2 1l-1 -1q-1 0 -1 -1t-0.5 -1.5t-0.5 -1.5v-7h-3v14h3v-2q1 3 5 3q1 0 1 -0.5t1 -0.5l2 -2q0 2 2 2q1 0 1 0.5t1 0.5t1.5 -0.5t1.5 -0.5z" />
    <glyph glyph-name="brokenbar" unicode="&#xa6;" horiz-adv-x="160" 
d="M98 376q0 -13 -8 -19.5t-18 -6.5t-18 6.5t-8 19.5v231q0 17 8 24t18 6t18 -9t8 -21v-231zM46 246q0 16 8 23t18 6.5t18 -8.5t8 -21v-231q0 -13 -8 -19.5t-18 -6.5t-18 6.5t-8 19.5v231z" />
    <glyph glyph-name="section" unicode="&#xa7;" horiz-adv-x="419" 
d="M262 382q14 2 14.5 10.5t-17.5 19.5q-12 6 -21.5 7t-14.5 -1.5t-4 -8t10 -11.5q2 -1 8 -5.5t8 -5.5q33 -24 47.5 -48.5t14.5 -46.5t-12.5 -39.5t-33.5 -25.5q26 -26 26 -57.5t-18.5 -55.5t-53.5 -34t-78 6q-32 12 -46 34t-13.5 45.5t14 43t36.5 25.5q9 3 17.5 -3
t14 -13.5t7.5 -14t-2 -6.5q-9 2 -18 -5t-12.5 -18t1.5 -22.5t23 -18.5q21 -9 37 -1t21 23.5t-2 35t-31 34.5q-2 1 -6 3.5t-9 5.5t-9.5 6t-5.5 4q-20 16 -23.5 35t5 35.5t27 28.5t43.5 14q-4 2 -7.5 5t-7.5 5l-7.5 5t-6.5 5q-26 21 -24 45.5t22.5 42t54 21.5t72.5 -15
q25 -12 30.5 -31.5t-2.5 -35.5t-26.5 -24t-41.5 2zM237 299q-11 6 -19.5 3t-12.5 -10t-2 -15t13 -12q10 -4 17.5 -0.5t11 9.5t2 13.5t-9.5 11.5z" />
    <glyph glyph-name="dieresis" unicode="&#xa8;" horiz-adv-x="419" 
d="M197 448q4 -1 4.5 -8t-2 -14.5t-6.5 -13t-10 -3.5q-12 2 -22 5q-4 1 -4.5 8t1.5 14.5t6 13t10 4.5t11.5 -2.5t11.5 -3.5zM253 435q4 -1 4.5 -8t-2 -14.5t-7 -13t-10.5 -4.5q-5 2 -11 3t-10 3q-4 1 -4.5 8t1 14.5t5.5 13t10 4.5z" />
    <glyph glyph-name="copyright" unicode="&#xa9;" horiz-adv-x="263" 
d="M150 70q2 5 4.5 4t0.5 -5q-8 -20 -22.5 -31t-25.5 -9q-14 2 -16.5 14.5t2.5 25.5t16.5 22.5t25.5 6.5q8 -2 8 -12t-8 -18q-3 -2 -8 -2t-8 1q4 4 6 10t0 6q-6 -1 -11.5 -7t-9 -14t-3 -15t7.5 -9q8 -2 20.5 8t20.5 24zM53 67q5 41 28.5 60t48.5 18t43.5 -20.5t13.5 -56.5
q-5 -35 -28 -52.5t-48 -18t-43.5 17t-14.5 52.5zM167 68q3 25 -9.5 38.5t-30 14t-34 -12t-19.5 -40.5q-4 -30 9 -44t30.5 -13t34 16t19.5 41z" />
    <glyph glyph-name="guillemotleft" unicode="&#xab;" horiz-adv-x="570" 
d="M409 88q9 -6 8 -19t-8 -25t-17 -19t-18 -1t-28.5 19.5t-42.5 28.5t-40.5 27.5t-22.5 16.5q-6 5 -8 13t-1.5 16t3 15t5.5 9q5 4 25.5 17t44.5 28.5t45 28.5t27 17q9 5 17.5 -2.5t14 -20t5.5 -25.5t-8 -18q-13 -8 -34.5 -21t-48.5 -30q28 -19 50 -33.5t32 -21.5zM246 88
q9 -6 8 -19t-8 -25t-17 -19t-18 -1t-28.5 19.5t-42.5 28.5t-40.5 27.5t-22.5 16.5q-6 5 -8 13t-1.5 16t3 15t5.5 9q5 4 25.5 17t44.5 28.5t45 28.5t27 17q9 5 17.5 -2.5t14 -20t5.5 -25.5t-8 -18q-13 -8 -34.5 -21t-48.5 -30q28 -19 50 -33.5t32 -21.5z" />
    <glyph glyph-name="registered" unicode="&#xae;" horiz-adv-x="299" 
d="M147 110q14 -1 20 -9.5t5.5 -18t-7 -18.5t-18.5 -12q6 -6 13.5 -10t8.5 -1q2 -2 -3 -7.5t-9 -3.5q-9 6 -17 17q0 -1 -2 -5q-5 -13 -12 -12.5t-10 2.5q8 -2 10.5 6t4.5 16q1 2 1 4.5t1 5.5q-1 -5 -7.5 -9t-11.5 2q-5 7 -5 16.5t3.5 18t12 14t22.5 4.5zM133 64q1 8 1.5 16
t1.5 15q-6 -2 -9 -7t-3.5 -10.5t2 -9.5t7.5 -4zM142 58q15 4 16.5 18.5t-11.5 19.5v-6q-2 -9 -2.5 -17t-2.5 -15zM74 68q5 41 28.5 60t48.5 18t43 -20.5t13 -56.5q-5 -35 -27.5 -52.5t-47.5 -18t-43.5 17t-14.5 52.5zM188 69q3 25 -9.5 38.5t-30 14t-34 -12t-19.5 -40.5
q-4 -30 9 -44t30.5 -13t34 16t19.5 41z" />
    <glyph glyph-name="degree" unicode="&#xb0;" horiz-adv-x="160" 
d="M32 585q1 22 15.5 33t30.5 10.5t29 -12t12 -32.5q-1 -23 -15 -34t-30.5 -10t-29.5 12.5t-12 32.5zM59 585q0 -8 5 -12.5t11 -4.5t11.5 3.5t5.5 12.5q0 8 -4.5 12.5t-10.5 4.5t-11.5 -4t-6.5 -12z" />
    <glyph glyph-name="acute" unicode="&#xb4;" horiz-adv-x="380" 
d="M148 441q8 5 19 11.5t22 13.5t19.5 12.5t12.5 8.5q3 -3 5.5 -10.5t3.5 -16t0 -17.5t-4 -15q-7 -3 -26 -9t-38 -9q-9 -2 -13.5 2t-5.5 10t0.5 11.5t4.5 7.5z" />
    <glyph glyph-name="mu" unicode="&#xb5;" horiz-adv-x="378" 
d="M380 242q5 9 13 12.5t13.5 1t7.5 -10.5t-5 -22q-7 -16 -20.5 -40.5t-31 -51.5t-38 -53t-43 -45t-45 -27.5t-44.5 -0.5q-19 7 -27 24t-9 41q-28 -38 -53.5 -54.5t-51.5 -15.5q5 -20 9 -35t7 -21q-3 -2 -10 -4.5t-13.5 -4t-12.5 -2.5t-7 -1q-24 23 -34.5 63t-11 87.5t8 97
t22.5 92t32.5 73.5t38.5 41q14 7 32.5 8.5t35 0t27.5 -5t11 -6.5q-19 -24 -39 -56t-38 -67t-31.5 -69.5t-21 -63.5t-7 -49.5t12.5 -26.5q29 -16 112 154q14 31 28 61t27 54.5t23 42.5t15 25q2 3 20 2.5t37 -4t31.5 -11t2.5 -18.5q-11 -12 -28 -37.5t-35.5 -57.5t-36.5 -66.5
t-30.5 -64t-17 -51t4.5 -27.5q12 -8 28.5 1.5t34.5 28.5t35.5 44t32.5 48.5t25 42t14 24.5z" />
    <glyph glyph-name="paragraph" unicode="&#xb6;" horiz-adv-x="593" 
d="M539 609q15 0 22.5 -12.5t7.5 -28t-9.5 -30.5t-28.5 -19q-6 -1 -15 -2t-20 -2q-13 -31 -31.5 -76.5t-39.5 -97t-42 -104t-39.5 -97t-32.5 -76t-20 -41.5q-10 -17 -27 -21t-32 1t-24 16.5t-4 25.5q3 9 13 36t24 65.5t31.5 85.5t35.5 95.5t35.5 95t32.5 84.5q-8 0 -15 -0.5
t-15 -0.5q-14 -32 -32.5 -77.5t-38.5 -96t-41 -101.5t-39 -94t-31 -73.5t-19 -40.5q-11 -17 -27.5 -21t-31.5 1t-24.5 16.5t-4.5 25.5q3 8 12.5 34.5t23.5 64.5t31 84t35 93.5t35.5 94t32.5 84.5q-28 -2 -44 -3q-22 2 -29 15.5t-6 31t7 35t10 27.5q9 1 36.5 2t65 1h80h81
h68.5h43z" />
    <glyph glyph-name="guillemotright" unicode="&#xbb;" horiz-adv-x="494" 
d="M76 88q10 7 32 21.5t50 33.5q-27 17 -48.5 30t-34.5 21q-8 5 -8 18t5.5 25.5t14 20t17.5 2.5q6 -4 27 -17t45 -28.5t44.5 -28.5t25.5 -17q3 -2 5.5 -9t3 -15t-1.5 -16t-8 -13q-5 -4 -23 -16.5t-40 -27.5t-42.5 -28.5t-28.5 -19.5t-18 1t-17 19t-8 25t8 19zM239 88
q10 7 32 21.5t50 33.5q-27 17 -48.5 30t-34.5 21q-8 5 -8 18t5.5 25.5t14 20t17.5 2.5q6 -4 27 -17t45 -28.5t44.5 -28.5t25.5 -17q3 -2 5.5 -9t3 -15t-1.5 -16t-8 -13q-5 -4 -23 -16.5t-40 -27.5t-42.5 -28.5t-28.5 -19.5t-18 1t-17 19t-8 25t8 19z" />
    <glyph glyph-name="questiondown" unicode="&#xbf;" horiz-adv-x="432" 
d="M30.0244 -327.962q-56.9971 18.999 -83.4951 56.9971q-26.499 37.9971 -28.498 83.9941q-2 45.998 17.498 93.9951q19.499 47.9971 54.4971 87.9941q34.998 39.998 82.4951 64.9961t101.494 24.998q9.99902 22.999 18.498 40.498q8.5 17.499 16.499 31.998
q8 14.499 14.999 27.498q7 12.999 13 25.999q3.99902 0 19.498 -4t32.998 -10q17.499 -5.99902 30.498 -11.499q13 -5.49902 13 -8.49902q-6 -13.999 -12.5 -27.499q-6.49902 -13.499 -13.499 -28.498q-6.99902 -14.999 -14.999 -33.498q-7.99902 -18.499 -16.999 -41.4971
q-3.99902 -11.999 -11.499 -23.499q-7.5 -11.499 -17.499 -19.998q-9.99902 -8.5 -21.999 -12.5q-11.999 -3.99902 -23.998 -1q-34.998 8 -63.9961 -1.99902q-28.998 -10 -50.4971 -30.499q-21.499 -20.498 -33.498 -47.4971q-11.999 -26.998 -13.499 -52.9961
q-1.5 -25.999 9.99902 -46.9971q11.5 -20.999 36.498 -28.999q37.998 -11.999 67.4961 -2.99902q29.498 8.99902 47.9971 28.998t25.498 45.4971q7 25.498 -1 46.4971q7 6 22.999 9q15.999 2.99902 34.498 0.999023q18.499 -1.99902 35.498 -9.49902
q16.999 -7.49902 25.998 -22.499q4 -44.9971 -17.999 -91.4941t-63.9961 -79.4951t-100.994 -44.9971q-58.9961 -11.999 -130.991 11.999zM348.005 215.005q-3 -1 -17.499 3t-30.998 9q-16.499 4.99902 -30.498 10.499q-14 5.5 -15.999 7.49902q4.99902 12 9.99902 19.999
q5 8 7 11.999q10.999 17.999 28.998 21.999t33.998 -2q15.999 -5.99902 25.998 -18.499q9.99902 -12.499 4 -27.498q-4 -8.99902 -14.999 -35.998z" />
    <glyph glyph-name="Agrave" unicode="&#xc0;" horiz-adv-x="679" 
d="M663 168q-8 -52 -35 -74.5t-67 -24.5q-6 -35 -6 -63t9 -45.5t28.5 -24t51.5 2.5q-10 -10 -31.5 -18.5t-47.5 -11t-52.5 4t-45 27t-25.5 56t6 92.5q-32 11 -64 24.5t-62 29.5q-90 -106 -165 -142.5t-151 -0.5q-43 20 -60.5 58.5t-13 81t30 82t68 63t101 24t130.5 -36.5
q19 -9 38.5 -18t40.5 -18q69 88 145 200t157 236q5 24 2 28q4 0 20 -5t34 -12.5t33.5 -16t20.5 -15.5q5 -10 -2 -36.5t-20.5 -65t-33 -86.5t-40 -99.5t-40 -104.5t-34.5 -102q33 -5 54 -3t26 14zM23 27q52 -29 117 9.5t141 126.5q-26 14 -48.5 26.5t-39.5 21.5
q-46 25 -85 25t-67.5 -14.5t-45.5 -41t-20.5 -55t8 -55.5t40.5 -43zM603 539q-63 -97 -117.5 -177t-102.5 -144q24 -9 48 -17.5t47 -16.5q12 34 27.5 77.5t32.5 90.5t34 95.5t31 91.5zM755 716q3 -2 4.5 -7.5t0.5 -11.5t-5.5 -10t-13.5 -2q-19 3 -38 9t-26 9q-3 6 -4 15
t0 17.5t3.5 16t5.5 10.5q4 -3 12.5 -8.5t19.5 -12.5t22 -13.5t19 -11.5z" />
    <glyph glyph-name="Aacute" unicode="&#xc1;" horiz-adv-x="679" 
d="M663 168q-8 -52 -35 -74.5t-67 -24.5q-6 -35 -6 -63t9 -45.5t28.5 -24t51.5 2.5q-10 -10 -31.5 -18.5t-47.5 -11t-52.5 4t-45 27t-25.5 56t6 92.5q-32 11 -64 24.5t-62 29.5q-90 -106 -165 -142.5t-151 -0.5q-43 20 -60.5 58.5t-13 81t30 82t68 63t101 24t130.5 -36.5
q19 -9 38.5 -18t40.5 -18q69 88 145 200t157 236q5 24 2 28q4 0 20 -5t34 -12.5t33.5 -16t20.5 -15.5q5 -10 -2 -36.5t-20.5 -65t-33 -86.5t-40 -99.5t-40 -104.5t-34.5 -102q33 -5 54 -3t26 14zM23 27q52 -29 117 9.5t141 126.5q-26 14 -48.5 26.5t-39.5 21.5
q-46 25 -85 25t-67.5 -14.5t-45.5 -41t-20.5 -55t8 -55.5t40.5 -43zM603 539q-63 -97 -117.5 -177t-102.5 -144q24 -9 48 -17.5t47 -16.5q12 34 27.5 77.5t32.5 90.5t34 95.5t31 91.5zM693 725q8 5 19 11.5t22 13.5t19.5 12.5t12.5 8.5q3 -3 5.5 -10.5t3.5 -16t0 -17.5
t-4 -15q-7 -3 -26 -9t-38 -9q-9 -2 -13.5 2t-5.5 10t0.5 11.5t4.5 7.5z" />
    <glyph glyph-name="Acircumflex" unicode="&#xc2;" horiz-adv-x="679" 
d="M663 168q-8 -52 -35 -74.5t-67 -24.5q-6 -35 -6 -63t9 -45.5t28.5 -24t51.5 2.5q-10 -10 -31.5 -18.5t-47.5 -11t-52.5 4t-45 27t-25.5 56t6 92.5q-32 11 -64 24.5t-62 29.5q-90 -106 -165 -142.5t-151 -0.5q-43 20 -60.5 58.5t-13 81t30 82t68 63t101 24t130.5 -36.5
q19 -9 38.5 -18t40.5 -18q69 88 145 200t157 236q5 24 2 28q4 0 20 -5t34 -12.5t33.5 -16t20.5 -15.5q5 -10 -2 -36.5t-20.5 -65t-33 -86.5t-40 -99.5t-40 -104.5t-34.5 -102q33 -5 54 -3t26 14zM23 27q52 -29 117 9.5t141 126.5q-26 14 -48.5 26.5t-39.5 21.5
q-46 25 -85 25t-67.5 -14.5t-45.5 -41t-20.5 -55t8 -55.5t40.5 -43zM603 539q-63 -97 -117.5 -177t-102.5 -144q24 -9 48 -17.5t47 -16.5q12 34 27.5 77.5t32.5 90.5t34 95.5t31 91.5zM764 704q2 -3 2.5 -8t-2 -9.5t-7 -7t-12.5 1.5q-13 6 -19 10t-11 8q-5 -1 -13 -1t-22 2
q-8 1 -11 5.5t-2.5 9.5t3.5 9.5t6 5.5q14 3 26.5 8.5t20.5 10.5q4 2 7.5 -0.5t5.5 -4.5q5 -8 12.5 -19.5t15.5 -20.5z" />
    <glyph glyph-name="Atilde" unicode="&#xc3;" horiz-adv-x="679" 
d="M663 168q-8 -52 -35 -74.5t-67 -24.5q-6 -35 -6 -63t9 -45.5t28.5 -24t51.5 2.5q-10 -10 -31.5 -18.5t-47.5 -11t-52.5 4t-45 27t-25.5 56t6 92.5q-32 11 -64 24.5t-62 29.5q-90 -106 -165 -142.5t-151 -0.5q-43 20 -60.5 58.5t-13 81t30 82t68 63t101 24t130.5 -36.5
q19 -9 38.5 -18t40.5 -18q69 88 145 200t157 236q5 24 2 28q4 0 20 -5t34 -12.5t33.5 -16t20.5 -15.5q5 -10 -2 -36.5t-20.5 -65t-33 -86.5t-40 -99.5t-40 -104.5t-34.5 -102q33 -5 54 -3t26 14zM23 27q52 -29 117 9.5t141 126.5q-26 14 -48.5 26.5t-39.5 21.5
q-46 25 -85 25t-67.5 -14.5t-45.5 -41t-20.5 -55t8 -55.5t40.5 -43zM603 539q-63 -97 -117.5 -177t-102.5 -144q24 -9 48 -17.5t47 -16.5q12 34 27.5 77.5t32.5 90.5t34 95.5t31 91.5zM754 727q1 -3 2 -12t-0.5 -17.5t-5.5 -12.5t-11 2q-9 7 -18.5 9t-18 2t-15.5 1t-10 6
q-7 12 -3.5 29t9.5 22q4 -10 14 -11.5t21 -1.5t21 -2t15 -14z" />
    <glyph glyph-name="Adieresis" unicode="&#xc4;" horiz-adv-x="679" 
d="M663 168q-8 -52 -35 -74.5t-67 -24.5q-6 -35 -6 -63t9 -45.5t28.5 -24t51.5 2.5q-10 -10 -31.5 -18.5t-47.5 -11t-52.5 4t-45 27t-25.5 56t6 92.5q-32 11 -64 24.5t-62 29.5q-90 -106 -165 -142.5t-151 -0.5q-43 20 -60.5 58.5t-13 81t30 82t68 63t101 24t130.5 -36.5
q19 -9 38.5 -18t40.5 -18q69 88 145 200t157 236q5 24 2 28q4 0 20 -5t34 -12.5t33.5 -16t20.5 -15.5q5 -10 -2 -36.5t-20.5 -65t-33 -86.5t-40 -99.5t-40 -104.5t-34.5 -102q33 -5 54 -3t26 14zM23 27q52 -29 117 9.5t141 126.5q-26 14 -48.5 26.5t-39.5 21.5
q-46 25 -85 25t-67.5 -14.5t-45.5 -41t-20.5 -55t8 -55.5t40.5 -43zM603 539q-63 -97 -117.5 -177t-102.5 -144q24 -9 48 -17.5t47 -16.5q12 34 27.5 77.5t32.5 90.5t34 95.5t31 91.5zM708 738q4 -1 4.5 -8t-2 -14.5t-6.5 -13t-10 -3.5q-12 2 -22 5q-4 1 -4.5 8t1.5 14.5
t6 13t10 4.5t11.5 -2.5t11.5 -3.5zM764 725q4 -1 4.5 -8t-2 -14.5t-7 -13t-10.5 -4.5q-5 2 -11 3t-10 3q-4 1 -4.5 8t1 14.5t5.5 13t10 4.5z" />
    <glyph glyph-name="Aring" unicode="&#xc5;" horiz-adv-x="679" 
d="M663 168q-8 -52 -35 -74.5t-67 -24.5q-6 -35 -6 -63t9 -45.5t28.5 -24t51.5 2.5q-10 -10 -31.5 -18.5t-47.5 -11t-52.5 4t-45 27t-25.5 56t6 92.5q-32 11 -64 24.5t-62 29.5q-90 -106 -165 -142.5t-151 -0.5q-43 20 -60.5 58.5t-13 81t30 82t68 63t101 24t130.5 -36.5
q19 -9 38.5 -18t40.5 -18q69 88 145 200t157 236q5 24 2 28q4 0 20 -5t34 -12.5t33.5 -16t20.5 -15.5q5 -10 -2 -36.5t-20.5 -65t-33 -86.5t-40 -99.5t-40 -104.5t-34.5 -102q33 -5 54 -3t26 14zM23 27q52 -29 117 9.5t141 126.5q-26 14 -48.5 26.5t-39.5 21.5
q-46 25 -85 25t-67.5 -14.5t-45.5 -41t-20.5 -55t8 -55.5t40.5 -43zM603 539q-63 -97 -117.5 -177t-102.5 -144q24 -9 48 -17.5t47 -16.5q12 34 27.5 77.5t32.5 90.5t34 95.5t31 91.5zM680 734q1 24 16 35t32.5 10.5t31 -12.5t12.5 -34q-1 -25 -16 -36t-32.5 -10.5t-31 13
t-12.5 34.5zM709 733q-1 -8 4 -12.5t11.5 -5t12.5 4t6 13.5t-5 13.5t-11.5 4.5t-12 -4.5t-5.5 -13.5z" />
    <glyph glyph-name="AE" unicode="&#xc6;" horiz-adv-x="1127" 
d="M928 693q94 -27 130.5 -63t24.5 -88q-5 -20 -13.5 -30t-17 -17t-16 -13t-8.5 -17q-20 18 -46.5 36.5t-55.5 31t-58 16.5t-54 -6q-28 -14 -23 -34t30 -35q47 -28 58 -57.5t2 -54.5t-31.5 -43t-41.5 -24q6 15 0.5 31t-18 29.5t-29.5 22.5t-34 9q-49 0 -84.5 -27.5t-56 -70
t-26.5 -93.5t4.5 -97t38 -81.5t72.5 -46.5q53 -13 100 4.5t81.5 50t53 72t15.5 69.5q-26 7 -32 18t-4 17q11 6 37 13t53 11.5t48 4t21 -9.5q0 -60 -25.5 -119t-74 -102t-118.5 -63.5t-159 -3.5q-56 10 -96.5 35t-67.5 60q-2 -25 2 -44.5t14.5 -31.5t28 -15t44.5 4
q-10 -10 -31.5 -18.5t-47 -11t-52 4t-45 27t-25.5 56t6 92.5q-32 11 -64.5 25t-62.5 29q-90 -106 -165 -142t-151 0q-43 20 -60.5 58t-13 80.5t30 82.5t68 63.5t101 23.5t130.5 -36q19 -10 38.5 -19t40.5 -18q69 89 145 200.5t157 235.5q5 24 2 28q4 0 20 -5t34 -12.5
t34 -16t21 -15.5v-3q35 32 92 46.5t130 -3.5zM-25 29q52 -29 117 10t141 127q-26 14 -48.5 26.5t-39.5 21.5q-46 24 -85 24.5t-67.5 -14.5t-45.5 -41.5t-20.5 -55t8 -55.5t40.5 -43zM430 186q12 34 27.5 77.5t32.5 90.5t34 95.5t31 91.5q-63 -97 -117.5 -177t-102.5 -143
q24 -10 48 -18.5t47 -16.5zM632 421q46 11 102 5q-27 17 -43.5 38t-24.5 44q-8 -20 -16.5 -42t-17.5 -45z" />
    <glyph glyph-name="Ccedilla" unicode="&#xc7;" horiz-adv-x="548" 
d="M460 685q82 -35 103.5 -119t-24.5 -196q-9 -23 -18.5 -36.5t-20.5 -21t-23.5 -10t-27.5 -2.5q-31 0 -68 10t-60 31q31 8 54.5 32t38.5 54.5t20.5 63.5t0 61.5t-23 47t-48.5 20.5q-29 1 -67.5 -21.5t-77 -70.5t-72.5 -121.5t-53 -173.5q-13 -70 -2.5 -123.5t36 -87t62 -46
t74.5 -0.5t74 50t61 105q23 16 50 26.5t52 2.5q-27 -72 -65 -122t-82.5 -79t-91.5 -38t-90 2q-4 -5 -7 -8.5t-4 -4.5q7 3 18 0t19.5 -11.5t11 -20.5t-7.5 -26q-18 -25 -43.5 -33t-48 -3t-36 21t-7.5 39q1 0 6 3t11 6t11 6t7 3q-3 -19 2.5 -30t14.5 -15t19.5 -2t16.5 10
q14 17 3.5 26.5t-27.5 2.5q-6 5 -17.5 11t-17.5 11q8 8 14.5 17.5t11.5 17.5q-33 18 -60.5 49.5t-45 74.5t-23 98t3.5 121q16 111 50 186t78 122.5t93.5 71t95.5 31t85 2.5t62 -14z" />
    <glyph glyph-name="Egrave" unicode="&#xc8;" horiz-adv-x="676" 
d="M463 689q94 -27 130.5 -63t24.5 -88q-5 -20 -13.5 -30.5t-17 -17t-15.5 -12.5t-8 -17q-29 23 -58 42.5t-56.5 31.5t-54 15t-51.5 -6q-14 -6 -18.5 -15.5t-1.5 -20t11.5 -21t21.5 -18.5q46 -28 57.5 -57.5t2 -54.5t-31.5 -43t-42 -24q6 15 0.5 31.5t-18 30t-29.5 22.5
t-34 9q-49 0 -84.5 -27.5t-56 -70t-26 -93.5t5 -97.5t37.5 -81.5t72 -46q53 -13 100 4.5t81.5 50t53 72t15.5 69.5q-26 6 -31.5 17t-3.5 18q11 6 37 13t53 11t47.5 3.5t20.5 -9.5q1 -60 -24.5 -119t-74 -102t-119 -63.5t-159.5 -3.5q-80 15 -130 60t-70.5 103t-12.5 121
t41.5 112.5t92.5 78t142 18.5q-41 27 -58.5 61t-15.5 68.5t22 66t55 52t83.5 27.5t107.5 -7zM541 715q3 -2 4.5 -7.5t0.5 -11.5t-5.5 -10t-13.5 -2q-19 3 -38 9t-26 9q-3 6 -4 15t0 17.5t3.5 16t5.5 10.5q4 -3 12.5 -8.5t19.5 -12.5t22 -13.5t19 -11.5z" />
    <glyph glyph-name="Eacute" unicode="&#xc9;" horiz-adv-x="676" 
d="M463 689q94 -27 130.5 -63t24.5 -88q-5 -20 -13.5 -30.5t-17 -17t-15.5 -12.5t-8 -17q-29 23 -58 42.5t-56.5 31.5t-54 15t-51.5 -6q-14 -6 -18.5 -15.5t-1.5 -20t11.5 -21t21.5 -18.5q46 -28 57.5 -57.5t2 -54.5t-31.5 -43t-42 -24q6 15 0.5 31.5t-18 30t-29.5 22.5
t-34 9q-49 0 -84.5 -27.5t-56 -70t-26 -93.5t5 -97.5t37.5 -81.5t72 -46q53 -13 100 4.5t81.5 50t53 72t15.5 69.5q-26 6 -31.5 17t-3.5 18q11 6 37 13t53 11t47.5 3.5t20.5 -9.5q1 -60 -24.5 -119t-74 -102t-119 -63.5t-159.5 -3.5q-80 15 -130 60t-70.5 103t-12.5 121
t41.5 112.5t92.5 78t142 18.5q-41 27 -58.5 61t-15.5 68.5t22 66t55 52t83.5 27.5t107.5 -7zM493 718q8 5 19 11.5t22 13.5t19.5 12.5t12.5 8.5q3 -3 5.5 -10.5t3.5 -16t0 -17.5t-4 -15q-7 -3 -26 -9t-38 -9q-9 -2 -13.5 2t-5.5 10t0.5 11.5t4.5 7.5z" />
    <glyph glyph-name="Ecircumflex" unicode="&#xca;" horiz-adv-x="676" 
d="M463 689q94 -27 130.5 -63t24.5 -88q-5 -20 -13.5 -30.5t-17 -17t-15.5 -12.5t-8 -17q-29 23 -58 42.5t-56.5 31.5t-54 15t-51.5 -6q-14 -6 -18.5 -15.5t-1.5 -20t11.5 -21t21.5 -18.5q46 -28 57.5 -57.5t2 -54.5t-31.5 -43t-42 -24q6 15 0.5 31.5t-18 30t-29.5 22.5
t-34 9q-49 0 -84.5 -27.5t-56 -70t-26 -93.5t5 -97.5t37.5 -81.5t72 -46q53 -13 100 4.5t81.5 50t53 72t15.5 69.5q-26 6 -31.5 17t-3.5 18q11 6 37 13t53 11t47.5 3.5t20.5 -9.5q1 -60 -24.5 -119t-74 -102t-119 -63.5t-159.5 -3.5q-80 15 -130 60t-70.5 103t-12.5 121
t41.5 112.5t92.5 78t142 18.5q-41 27 -58.5 61t-15.5 68.5t22 66t55 52t83.5 27.5t107.5 -7zM562 698q2 -3 2.5 -8t-2 -9.5t-7 -7t-12.5 1.5q-13 6 -19 10t-11 8q-5 -1 -13 -1t-22 2q-8 1 -11 5.5t-2.5 9.5t3.5 9.5t6 5.5q14 3 26.5 8.5t20.5 10.5q4 2 7.5 -0.5t5.5 -4.5
q5 -8 12.5 -19.5t15.5 -20.5z" />
    <glyph glyph-name="Edieresis" unicode="&#xcb;" horiz-adv-x="676" 
d="M463 689q94 -27 130.5 -63t24.5 -88q-5 -20 -13.5 -30.5t-17 -17t-15.5 -12.5t-8 -17q-29 23 -58 42.5t-56.5 31.5t-54 15t-51.5 -6q-14 -6 -18.5 -15.5t-1.5 -20t11.5 -21t21.5 -18.5q46 -28 57.5 -57.5t2 -54.5t-31.5 -43t-42 -24q6 15 0.5 31.5t-18 30t-29.5 22.5
t-34 9q-49 0 -84.5 -27.5t-56 -70t-26 -93.5t5 -97.5t37.5 -81.5t72 -46q53 -13 100 4.5t81.5 50t53 72t15.5 69.5q-26 6 -31.5 17t-3.5 18q11 6 37 13t53 11t47.5 3.5t20.5 -9.5q1 -60 -24.5 -119t-74 -102t-119 -63.5t-159.5 -3.5q-80 15 -130 60t-70.5 103t-12.5 121
t41.5 112.5t92.5 78t142 18.5q-41 27 -58.5 61t-15.5 68.5t22 66t55 52t83.5 27.5t107.5 -7zM512 733q4 -1 4.5 -8t-2 -14.5t-6.5 -13t-10 -3.5q-12 2 -22 5q-4 1 -4.5 8t1.5 14.5t6 13t10 4.5t11.5 -2.5t11.5 -3.5zM568 720q4 -1 4.5 -8t-2 -14.5t-7 -13t-10.5 -4.5
q-5 2 -11 3t-10 3q-4 1 -4.5 8t1 14.5t5.5 13t10 4.5z" />
    <glyph glyph-name="Igrave" unicode="&#xcc;" horiz-adv-x="392" 
d="M246 697q55 -2 97.5 -13.5t69.5 -28.5t36.5 -38.5t-0.5 -43.5q-12 -27 -33.5 -74t-48.5 -105t-56.5 -123t-58 -126.5t-53.5 -114.5t-43 -89q-12 -10 -38.5 -13t-56.5 4q-27 26 -44.5 74t-23 105.5t3 118.5t34.5 113q9 18 32.5 29t48.5 15.5t45 4t22 -6.5
q-22 -10 -41.5 -48t-32 -91.5t-16.5 -115.5t6 -119q11 26 28 67t37 90.5t42 104t43 108t39.5 101.5t32.5 84q-19 8 -49 12.5t-65 4.5t-70.5 -4t-63.5 -12t-45.5 -19.5t-15.5 -27.5q-28 42 -25 76.5t33.5 58t88.5 34.5t141 8zM285 731q3 -2 4.5 -7.5t0.5 -11.5t-5.5 -10
t-13.5 -2q-19 3 -38 9t-26 9q-3 6 -4 15t0 17.5t3.5 16t5.5 10.5q4 -3 12.5 -8.5t19.5 -12.5t22 -13.5t19 -11.5z" />
    <glyph glyph-name="Iacute" unicode="&#xcd;" horiz-adv-x="392" 
d="M246 697q55 -2 97.5 -13.5t69.5 -28.5t36.5 -38.5t-0.5 -43.5q-12 -27 -33.5 -74t-48.5 -105t-56.5 -123t-58 -126.5t-53.5 -114.5t-43 -89q-12 -10 -38.5 -13t-56.5 4q-27 26 -44.5 74t-23 105.5t3 118.5t34.5 113q9 18 32.5 29t48.5 15.5t45 4t22 -6.5
q-22 -10 -41.5 -48t-32 -91.5t-16.5 -115.5t6 -119q11 26 28 67t37 90.5t42 104t43 108t39.5 101.5t32.5 84q-19 8 -49 12.5t-65 4.5t-70.5 -4t-63.5 -12t-45.5 -19.5t-15.5 -27.5q-28 42 -25 76.5t33.5 58t88.5 34.5t141 8zM197 739q8 5 19 11.5t22 13.5t19.5 12.5
t12.5 8.5q3 -3 5.5 -10.5t3.5 -16t0 -17.5t-4 -15q-7 -3 -26 -9t-38 -9q-9 -2 -13.5 2t-5.5 10t0.5 11.5t4.5 7.5z" />
    <glyph glyph-name="Icircumflex" unicode="&#xce;" horiz-adv-x="392" 
d="M246 697q55 -2 97.5 -13.5t69.5 -28.5t36.5 -38.5t-0.5 -43.5q-12 -27 -33.5 -74t-48.5 -105t-56.5 -123t-58 -126.5t-53.5 -114.5t-43 -89q-12 -10 -38.5 -13t-56.5 4q-27 26 -44.5 74t-23 105.5t3 118.5t34.5 113q9 18 32.5 29t48.5 15.5t45 4t22 -6.5
q-22 -10 -41.5 -48t-32 -91.5t-16.5 -115.5t6 -119q11 26 28 67t37 90.5t42 104t43 108t39.5 101.5t32.5 84q-19 8 -49 12.5t-65 4.5t-70.5 -4t-63.5 -12t-45.5 -19.5t-15.5 -27.5q-28 42 -25 76.5t33.5 58t88.5 34.5t141 8zM316 721q2 -3 2.5 -8t-2 -9.5t-7 -7t-12.5 1.5
q-13 6 -19 10t-11 8q-5 -1 -13 -1t-22 2q-8 1 -11 5.5t-2.5 9.5t3.5 9.5t6 5.5q14 3 26.5 8.5t20.5 10.5q4 2 7.5 -0.5t5.5 -4.5q5 -8 12.5 -19.5t15.5 -20.5z" />
    <glyph glyph-name="Idieresis" unicode="&#xcf;" horiz-adv-x="392" 
d="M246 697q55 -2 97.5 -13.5t69.5 -28.5t36.5 -38.5t-0.5 -43.5q-12 -27 -33.5 -74t-48.5 -105t-56.5 -123t-58 -126.5t-53.5 -114.5t-43 -89q-12 -10 -38.5 -13t-56.5 4q-27 26 -44.5 74t-23 105.5t3 118.5t34.5 113q9 18 32.5 29t48.5 15.5t45 4t22 -6.5
q-22 -10 -41.5 -48t-32 -91.5t-16.5 -115.5t6 -119q11 26 28 67t37 90.5t42 104t43 108t39.5 101.5t32.5 84q-19 8 -49 12.5t-65 4.5t-70.5 -4t-63.5 -12t-45.5 -19.5t-15.5 -27.5q-28 42 -25 76.5t33.5 58t88.5 34.5t141 8zM267 755q4 -1 4.5 -8t-2 -14.5t-6.5 -13
t-10 -3.5q-12 2 -22 5q-4 1 -4.5 8t1.5 14.5t6 13t10 4.5t11.5 -2.5t11.5 -3.5zM323 742q4 -1 4.5 -8t-2 -14.5t-7 -13t-10.5 -4.5q-5 2 -11 3t-10 3q-4 1 -4.5 8t1 14.5t5.5 13t10 4.5z" />
    <glyph glyph-name="Eth" unicode="&#xd0;" horiz-adv-x="687" 
d="M507 697q104 -4 155 -14.5t70 -24t16.5 -28t-6.5 -27.5q-9 -30 -26.5 -82.5t-37.5 -111.5t-40.5 -117.5t-36.5 -101.5q-34 -92 -71 -147.5t-76.5 -83.5t-80 -32.5t-81 5.5t-79.5 30.5t-75 42.5q-39 -34 -77 -45t-69.5 -5.5t-54.5 24t-34 44t-7.5 54t26.5 54.5
q18 20 39.5 23.5t46.5 -5t52.5 -25t56.5 -35.5q18 21 36 48t35 62q4 8 7.5 16t7.5 16q-10 6 -14 13.5t-5 15t1 14.5t5 11q6 -1 15.5 -1h20.5q29 69 57.5 142.5t52.5 134.5q-48 -4 -92.5 -11.5t-77 -21t-49 -33t-9.5 -47.5q-11 -7 -21 -5q-4 0 -8 2q-19 68 -15 118t49 81.5
t139 45t255 7.5zM325 290v-14.5t-3.5 -18t-12.5 -18t-26 -12.5q-9 -20 -17.5 -37.5t-16.5 -34.5q-17 -32 -34 -58.5t-34 -47.5q42 -24 85 -38t86 -3t84.5 54.5t79.5 134.5q14 32 29.5 76t31 92t30.5 96t28 88q-1 2 -20 5t-50 5.5t-71.5 4t-83.5 0.5q-18 -55 -44.5 -128.5
t-56.5 -147.5q5 1 9 1t7 1zM-61 57q-14 -18 -8 -32.5t25.5 -19.5t50 3t65.5 36q-21 12 -40.5 21t-36.5 12t-31 -1.5t-25 -18.5z" />
    <glyph glyph-name="Ntilde" unicode="&#xd1;" horiz-adv-x="511" 
d="M579 688q14 7 39 1t47.5 -17.5t36 -23.5t3.5 -16q-49 -27 -91.5 -77t-78 -112t-64.5 -132.5t-50.5 -139.5t-36 -131t-20.5 -108q-9 -5 -25 -7t-31.5 0t-27.5 10t-14 22q-6 36 -6 80t3.5 99t8 121t6.5 147q-29 -125 -66 -209.5t-73 -137.5t-67.5 -79t-50.5 -34
q-9 1 -22.5 7.5t-26 16t-22 21t-12.5 22.5q-2 96 3.5 168.5t22.5 112.5t47.5 43.5t77.5 -36.5q-18 1 -30 -30.5t-18.5 -77.5t-9 -97t-1.5 -90q7 13 22.5 37.5t35 63.5t41 94t40 129t32 168.5t17.5 211.5q6 1 22.5 -1.5t34 -7.5t32 -12.5t15.5 -16.5q11 -116 9.5 -226.5
t-7 -198.5t-10 -143.5t0.5 -61.5q7 50 18.5 109.5t28 122t37.5 124t47.5 117t59.5 100.5t73 75zM470 702q1 -3 2 -12t-0.5 -17.5t-5.5 -12.5t-11 2q-9 7 -18.5 9t-18 2t-15.5 1t-10 6q-7 12 -3.5 29t9.5 22q4 -10 14 -11.5t21 -1.5t21 -2t15 -14z" />
    <glyph glyph-name="Ograve" unicode="&#xd2;" horiz-adv-x="558" 
d="M553 631q4 -38 2.5 -91t-10 -112t-23.5 -121.5t-38.5 -121t-55.5 -109t-73 -86t-92.5 -52t-113.5 -7.5q-60 9 -96 47t-51 94t-11.5 124t22 137t49.5 133t71 112t86.5 74t95.5 19q12 -9 18.5 -26t8.5 -35.5t1 -35.5t-4 -25q-67 -34 -118 -87.5t-85.5 -115t-50.5 -124.5
t-13 -115.5t26 -88.5t68 -44t84.5 20.5t70.5 81.5t52.5 124t30 148.5t2 155.5t-31.5 145q-9 20 -12 29t-3 17q0 6 13 8t33.5 0.5t44.5 -6.5t45.5 -14.5t37.5 -22t20 -29.5zM352 734q3 -2 4.5 -7.5t0.5 -11.5t-5.5 -10t-13.5 -2q-19 3 -38 9t-26 9q-3 6 -4 15t0 17.5t3.5 16
t5.5 10.5q4 -3 12.5 -8.5t19.5 -12.5t22 -13.5t19 -11.5z" />
    <glyph glyph-name="Oacute" unicode="&#xd3;" horiz-adv-x="558" 
d="M553 631q4 -38 2.5 -91t-10 -112t-23.5 -121.5t-38.5 -121t-55.5 -109t-73 -86t-92.5 -52t-113.5 -7.5q-60 9 -96 47t-51 94t-11.5 124t22 137t49.5 133t71 112t86.5 74t95.5 19q12 -9 18.5 -26t8.5 -35.5t1 -35.5t-4 -25q-67 -34 -118 -87.5t-85.5 -115t-50.5 -124.5
t-13 -115.5t26 -88.5t68 -44t84.5 20.5t70.5 81.5t52.5 124t30 148.5t2 155.5t-31.5 145q-9 20 -12 29t-3 17q0 6 13 8t33.5 0.5t44.5 -6.5t45.5 -14.5t37.5 -22t20 -29.5zM293 731q8 5 19 11.5t22 13.5t19.5 12.5t12.5 8.5q3 -3 5.5 -10.5t3.5 -16t0 -17.5t-4 -15
q-7 -3 -26 -9t-38 -9q-9 -2 -13.5 2t-5.5 10t0.5 11.5t4.5 7.5z" />
    <glyph glyph-name="Ocircumflex" unicode="&#xd4;" horiz-adv-x="558" 
d="M553 631q4 -38 2.5 -91t-10 -112t-23.5 -121.5t-38.5 -121t-55.5 -109t-73 -86t-92.5 -52t-113.5 -7.5q-60 9 -96 47t-51 94t-11.5 124t22 137t49.5 133t71 112t86.5 74t95.5 19q12 -9 18.5 -26t8.5 -35.5t1 -35.5t-4 -25q-67 -34 -118 -87.5t-85.5 -115t-50.5 -124.5
t-13 -115.5t26 -88.5t68 -44t84.5 20.5t70.5 81.5t52.5 124t30 148.5t2 155.5t-31.5 145q-9 20 -12 29t-3 17q0 6 13 8t33.5 0.5t44.5 -6.5t45.5 -14.5t37.5 -22t20 -29.5zM417 736q2 -3 2.5 -8t-2 -9.5t-7 -7t-12.5 1.5q-13 6 -19 10t-11 8q-5 -1 -13 -1t-22 2
q-8 1 -11 5.5t-2.5 9.5t3.5 9.5t6 5.5q14 3 26.5 8.5t20.5 10.5q4 2 7.5 -0.5t5.5 -4.5q5 -8 12.5 -19.5t15.5 -20.5z" />
    <glyph glyph-name="Otilde" unicode="&#xd5;" horiz-adv-x="558" 
d="M553 631q4 -38 2.5 -91t-10 -112t-23.5 -121.5t-38.5 -121t-55.5 -109t-73 -86t-92.5 -52t-113.5 -7.5q-60 9 -96 47t-51 94t-11.5 124t22 137t49.5 133t71 112t86.5 74t95.5 19q12 -9 18.5 -26t8.5 -35.5t1 -35.5t-4 -25q-67 -34 -118 -87.5t-85.5 -115t-50.5 -124.5
t-13 -115.5t26 -88.5t68 -44t84.5 20.5t70.5 81.5t52.5 124t30 148.5t2 155.5t-31.5 145q-9 20 -12 29t-3 17q0 6 13 8t33.5 0.5t44.5 -6.5t45.5 -14.5t37.5 -22t20 -29.5zM393 754q1 -3 2 -12t-0.5 -17.5t-5.5 -12.5t-11 2q-9 7 -18.5 9t-18 2t-15.5 1t-10 6q-7 12 -3.5 29
t9.5 22q4 -10 14 -11.5t21 -1.5t21 -2t15 -14z" />
    <glyph glyph-name="Odieresis" unicode="&#xd6;" horiz-adv-x="558" 
d="M553 631q4 -38 2.5 -91t-10 -112t-23.5 -121.5t-38.5 -121t-55.5 -109t-73 -86t-92.5 -52t-113.5 -7.5q-60 9 -96 47t-51 94t-11.5 124t22 137t49.5 133t71 112t86.5 74t95.5 19q12 -9 18.5 -26t8.5 -35.5t1 -35.5t-4 -25q-67 -34 -118 -87.5t-85.5 -115t-50.5 -124.5
t-13 -115.5t26 -88.5t68 -44t84.5 20.5t70.5 81.5t52.5 124t30 148.5t2 155.5t-31.5 145q-9 20 -12 29t-3 17q0 6 13 8t33.5 0.5t44.5 -6.5t45.5 -14.5t37.5 -22t20 -29.5zM347 766q4 -1 4.5 -8t-2 -14.5t-6.5 -13t-10 -3.5q-12 2 -22 5q-4 1 -4.5 8t1.5 14.5t6 13t10 4.5
t11.5 -2.5t11.5 -3.5zM403 753q4 -1 4.5 -8t-2 -14.5t-7 -13t-10.5 -4.5q-5 2 -11 3t-10 3q-4 1 -4.5 8t1 14.5t5.5 13t10 4.5z" />
    <glyph glyph-name="multiply" unicode="&#xd7;" horiz-adv-x="339" 
d="M182 82q15 -16 27.5 -28.5t16.5 -17.5q7 -7 5.5 -15.5t-7.5 -14t-14 -6.5t-15 6l-17.5 17.5t-27.5 28.5q-16 -16 -28.5 -28t-17.5 -17q-7 -7 -15.5 -5.5t-14 7.5t-7 14.5t5.5 15.5q6 5 18.5 17.5l27.5 27.5q-15 16 -26.5 28t-15.5 15q-9 9 -8 18t7.5 14t16 5.5t16.5 -6.5
q4 -4 15.5 -16t26.5 -28q16 16 28 27.5t16 14.5q9 9 17.5 8t13.5 -7.5t5.5 -15.5t-6.5 -16q-3 -4 -15 -15.5t-28 -27.5z" />
    <glyph glyph-name="Oslash" unicode="&#xd8;" horiz-adv-x="558" 
d="M350 605q7 0 16.5 0.5t20.5 0.5q-3 11 -6 21t-7 21q-9 20 -12 29t-3 17q0 6 13 8t33.5 0.5t44.5 -6.5t45.5 -14.5t37.5 -22t20 -29.5q4 -38 2.5 -91t-10 -112t-23.5 -121.5t-38.5 -121t-55.5 -109t-73 -86t-92.5 -52t-113.5 -7.5q-60 9 -96 47t-51 94t-11.5 124t22 137
t49.5 133t71 112t86.5 74t95.5 19q16 -11 21.5 -34.5t6.5 -46.5q5 13 7 16zM322 539q-57 -32 -102 -79t-76.5 -100.5t-49.5 -109.5t-21.5 -106t8.5 -90t40 -61q0 7 2 11q4 10 16 43t29 80.5t38 103.5t42 112.5t40 107.5t34 88zM212 -24q43 12 79 56.5t62 108.5t40.5 142
t14.5 157q-16 -39 -35 -86t-38.5 -94.5t-38.5 -94t-35 -84t-28 -64.5t-17 -36q-2 -4 -4 -5z" />
    <glyph glyph-name="Ugrave" unicode="&#xd9;" horiz-adv-x="516" 
d="M583 651q7 -12 -6 -51t-36 -94t-52 -121t-55 -131.5t-43.5 -125.5t-17.5 -103t22 -64t75 -9q-8 -11 -29 -20.5t-47.5 -14t-54 -1.5t-49 18.5t-33 45.5t-5.5 79q-69 -90 -130.5 -121.5t-99.5 -7.5t-45.5 102.5t30.5 208.5q22 74 48.5 148.5t50 138t40 110t18.5 64.5
q33 1 60 -2t45 -11t25.5 -21t0.5 -31q-8 -20 -22 -56t-31.5 -80.5t-36.5 -94t-37 -97t-33 -89t-24 -69.5q-31 -96 -22.5 -135.5t44 -18.5t91.5 104t121 231q18 48 37.5 96.5t36.5 93.5q13 38 26 77.5t27 83.5q0 2 -0.5 3.5t-0.5 2.5q4 1 20 -2t34.5 -9t35 -13t22.5 -14z
M419 722q3 -2 4.5 -7.5t0.5 -11.5t-5.5 -10t-13.5 -2q-19 3 -38 9t-26 9q-3 6 -4 15t0 17.5t3.5 16t5.5 10.5q4 -3 12.5 -8.5t19.5 -12.5t22 -13.5t19 -11.5z" />
    <glyph glyph-name="Uacute" unicode="&#xda;" horiz-adv-x="516" 
d="M583 651q7 -12 -6 -51t-36 -94t-52 -121t-55 -131.5t-43.5 -125.5t-17.5 -103t22 -64t75 -9q-8 -11 -29 -20.5t-47.5 -14t-54 -1.5t-49 18.5t-33 45.5t-5.5 79q-69 -90 -130.5 -121.5t-99.5 -7.5t-45.5 102.5t30.5 208.5q22 74 48.5 148.5t50 138t40 110t18.5 64.5
q33 1 60 -2t45 -11t25.5 -21t0.5 -31q-8 -20 -22 -56t-31.5 -80.5t-36.5 -94t-37 -97t-33 -89t-24 -69.5q-31 -96 -22.5 -135.5t44 -18.5t91.5 104t121 231q18 48 37.5 96.5t36.5 93.5q13 38 26 77.5t27 83.5q0 2 -0.5 3.5t-0.5 2.5q4 1 20 -2t34.5 -9t35 -13t22.5 -14z
M344 708q8 5 19 11.5t22 13.5t19.5 12.5t12.5 8.5q3 -3 5.5 -10.5t3.5 -16t0 -17.5t-4 -15q-7 -3 -26 -9t-38 -9q-9 -2 -13.5 2t-5.5 10t0.5 11.5t4.5 7.5z" />
    <glyph glyph-name="Ucircumflex" unicode="&#xdb;" horiz-adv-x="516" 
d="M583 651q7 -12 -6 -51t-36 -94t-52 -121t-55 -131.5t-43.5 -125.5t-17.5 -103t22 -64t75 -9q-8 -11 -29 -20.5t-47.5 -14t-54 -1.5t-49 18.5t-33 45.5t-5.5 79q-69 -90 -130.5 -121.5t-99.5 -7.5t-45.5 102.5t30.5 208.5q22 74 48.5 148.5t50 138t40 110t18.5 64.5
q33 1 60 -2t45 -11t25.5 -21t0.5 -31q-8 -20 -22 -56t-31.5 -80.5t-36.5 -94t-37 -97t-33 -89t-24 -69.5q-31 -96 -22.5 -135.5t44 -18.5t91.5 104t121 231q18 48 37.5 96.5t36.5 93.5q13 38 26 77.5t27 83.5q0 2 -0.5 3.5t-0.5 2.5q4 1 20 -2t34.5 -9t35 -13t22.5 -14z
M428 714q2 -3 2.5 -8t-2 -9.5t-7 -7t-12.5 1.5q-13 6 -19 10t-11 8q-5 -1 -13 -1t-22 2q-8 1 -11 5.5t-2.5 9.5t3.5 9.5t6 5.5q14 3 26.5 8.5t20.5 10.5q4 2 7.5 -0.5t5.5 -4.5q5 -8 12.5 -19.5t15.5 -20.5z" />
    <glyph glyph-name="Udieresis" unicode="&#xdc;" horiz-adv-x="516" 
d="M583 651q7 -12 -6 -51t-36 -94t-52 -121t-55 -131.5t-43.5 -125.5t-17.5 -103t22 -64t75 -9q-8 -11 -29 -20.5t-47.5 -14t-54 -1.5t-49 18.5t-33 45.5t-5.5 79q-69 -90 -130.5 -121.5t-99.5 -7.5t-45.5 102.5t30.5 208.5q22 74 48.5 148.5t50 138t40 110t18.5 64.5
q33 1 60 -2t45 -11t25.5 -21t0.5 -31q-8 -20 -22 -56t-31.5 -80.5t-36.5 -94t-37 -97t-33 -89t-24 -69.5q-31 -96 -22.5 -135.5t44 -18.5t91.5 104t121 231q18 48 37.5 96.5t36.5 93.5q13 38 26 77.5t27 83.5q0 2 -0.5 3.5t-0.5 2.5q4 1 20 -2t34.5 -9t35 -13t22.5 -14z
M382 742q4 -1 4.5 -8t-2 -14.5t-6.5 -13t-10 -3.5q-12 2 -22 5q-4 1 -4.5 8t1.5 14.5t6 13t10 4.5t11.5 -2.5t11.5 -3.5zM438 729q4 -1 4.5 -8t-2 -14.5t-7 -13t-10.5 -4.5q-5 2 -11 3t-10 3q-4 1 -4.5 8t1 14.5t5.5 13t10 4.5z" />
    </font>
</defs>
</svg>
