<?xml version="1.0" standalone="no"?>
<!DOCTYPE svg PUBLIC "-//W3C//DTD SVG 1.1//EN" "http://www.w3.org/Graphics/SVG/1.1/DTD/svg11.dtd" >
<svg xmlns="http://www.w3.org/2000/svg" xmlns:xlink="http://www.w3.org/1999/xlink" version="1.1">
<metadata>
Created by FontForge 20170731 at Fri Aug 31 19:31:11 2018
 By Aleksey,,,
Debut Studio
</metadata>
<defs>
<font id="HandletterinkRegular" horiz-adv-x="455" >
  <font-face 
    font-family="Handletterink"
    font-weight="400"
    font-stretch="normal"
    units-per-em="1000"
    panose-1="0 0 0 0 0 0 0 0 0 0"
    ascent="800"
    descent="-200"
    x-height="531"
    cap-height="836"
    bbox="-259.758 -202.4 942 955.333"
    underline-thickness="50"
    underline-position="-200"
    unicode-range="U+000A-20AC"
  />
<missing-glyph horiz-adv-x="579" 
 />
    <glyph glyph-name=".notdef" horiz-adv-x="579" 
 />
    <glyph glyph-name=".notdef" horiz-adv-x="579" 
 />
    <glyph glyph-name=".null" horiz-adv-x="0" 
 />
    <glyph glyph-name="nonmarkingreturn" horiz-adv-x="333" 
 />
    <glyph glyph-name="LF" unicode="&#xa;" horiz-adv-x="116" 
 />
    <glyph glyph-name="controlCR" unicode="&#xd;" horiz-adv-x="116" 
 />
    <glyph glyph-name="space" unicode=" " horiz-adv-x="289" 
 />
    <glyph glyph-name="exclam" unicode="!" horiz-adv-x="270" 
d="M284 833q1 0 3.5 -0.5t10 -1.5t15.5 -3t18.5 -6.5t20 -10.5t20 -16t18.5 -22q-83 -97 -149 -218q-39 -72 -70.5 -144t-48.5 -123.5t-29 -92.5t-15 -62l-4 -21q-2 -1 -5 -3t-13 -6.5t-20 -6t-24 2t-26 13.5q-9 5 -6.5 31.5t9 65t22.5 90.5t35 107t46.5 115.5t56 115
t64 106.5t71.5 90zM-54 44q2 1 5.5 3t16 6.5t25 6t31.5 -2t38 -13.5l-7 -16t-17 -40.5t-20 -51.5t-16 -55t-5 -45l-15.5 -5t-37 -8t-46.5 5z" />
    <glyph glyph-name="quotedbl" unicode="&#x22;" horiz-adv-x="324" 
d="M82 761q2 0 6 1t17 1.5t25.5 -2t29.5 -11.5t32 -23q0 -1 -6 -8t-16 -18.5t-22.5 -26t-25.5 -31.5t-24 -33.5t-19.5 -33.5t-12.5 -29q-3 2 -15.5 0.5t-38 3.5t-42.5 18zM243 761q2 0 6.5 1t17 1.5t25 -2t30 -11.5t32.5 -23q0 -1 -11.5 -14t-28.5 -33.5t-35 -43.5
t-32.5 -47.5t-18.5 -41.5q-4 2 -16.5 0.5t-37.5 3.5t-43 18z" />
    <glyph glyph-name="numbersign" unicode="#" horiz-adv-x="621" 
d="M541 408v-6.5t-1 -13t-3 -18.5t-6.5 -22t-11 -23t-18 -22.5t-26 -19.5t-35.5 -15t-47 -8q-8 -15 -15 -31q77 11 118 48l-0.5 -5.5t-1.5 -13.5t-3 -18.5t-7 -22t-12 -23t-18.5 -22t-26.5 -19t-37 -14t-48 -6.5q-4 -16 -7.5 -31t-5 -25.5t-2.5 -18.5t-1 -12v-4
q-4 -3 -10 -6.5t-29 -4t-50 10.5q-2 1 -3.5 12.5t0.5 34t7 49.5q-39 2 -82 6l-6 -48q-3 -3 -9.5 -6t-29.5 -4t-49 10q-9 4 -2 58q-40 4 -59.5 4.5t-33.5 -3.5v6.5t4.5 16.5t12.5 22t27 19.5t44 13.5q9 1 21 1q6 21 13 42q-59 4 -74 -3v7.5t4 16.5t12 22t26.5 20t44.5 14
q9 2 22 2q49 98 128 181h3.5t10 -1t15 -3t18.5 -6.5t20.5 -10.5t20 -16t18.5 -22q-2 -1 -6 -2.5t-15.5 -8.5t-23 -17t-28.5 -30t-33 -45l-14 -22q51 -3 85 -3q43 71 101 133h4.5t10 -1.5t15 -3.5t18 -6.5t20 -10.5t20 -15.5t18.5 -22.5q-32 -8 -73 -57q50 14 81 43zM266 224
q7 20 15 39q-39 2 -82 5q-9 -20 -16 -39q52 -4 83 -5z" />
    <glyph glyph-name="dollar" unicode="$" horiz-adv-x="318" 
d="M339 535q12 -38 6.5 -64t-23.5 -40.5t-37 -21.5t-33 -9l-15 -2l2.5 7.5t5 17.5t5.5 25t1 26.5t-6 24.5l-62 -228q6 -24 11 -43q15 -64 -23 -101q-9 -17 -34 -29l-22 -82h-87l17 63q-21 0 -25 5q-27 16 -39.5 35.5t-10.5 39.5t10 39t24.5 37.5t29 31t26.5 23.5
q-24 57 -32 86q-19 63 31 120t125 81l18 68h81l-15 -58q55 -6 71 -52zM144 433l23 83q-33 -16 -23 -83z" />
    <glyph glyph-name="percent" unicode="%" horiz-adv-x="516" 
d="M357 477q-2 -1 -6 -2.5t-15.5 -8.5t-23.5 -17t-29 -30t-32 -45q-21 -33 -37.5 -66t-27 -59.5t-18 -51t-11 -42.5t-6 -31.5t-2.5 -20.5v-7q-3 -3 -9.5 -6t-29.5 -4t-50 10q-3 2 -4 22t5.5 56.5t19.5 80.5t41.5 100.5t67.5 108.5q-32 -27 -63 -32q-13 -23 -31 -45
q-35 -61 -82 -56q-55 7 -42 84q12 68 58 123q29 35 53 37q25 1 41 -22q9 -2 14 -9q9 -12 9 -35t-10 -53q35 0 73 34q20 24 41 46h1.5t6.5 -0.5t10 -1.5t12.5 -3t14.5 -5t15 -7.5t15.5 -10t15.5 -14t15 -17.5zM95 411q6 9 13 20q-18 0 -29.5 5.5t-16.5 13t-6.5 13.5t-1.5 12
q-12 -29 -15.5 -58t3.5 -34q15 -9 53 28v0zM121 458q19 47 2 66q-15 16 -23 -10q-9 -32 5 -50q6 -4 14 -6h1h-1h2v0zM120 458h1h-1zM367 319q6 -9 7.5 -26t-2 -37.5t-16 -45.5t-32.5 -48q-34 -61 -81 -57q-56 8 -42 85q11 68 57 123q29 35 54 36q24 1 40 -21q10 -2 15 -9z
M349 233q20 47 3 65q-15 16 -23 -8q-10 -29 2 -49q6 -10 18 -8q-1 0 -5 -1.5t-8 -2.5t-10 -1.5t-11 -1t-11 1t-10 4t-7 7.5t-4 12q-13 -29 -16.5 -59t4.5 -34q14 -9 53 27v0q13 18 25 48z" />
    <glyph glyph-name="ampersand" unicode="&#x26;" 
d="M222 316q9 3 24 2.5t31 -3.5t34.5 -2.5t35 4t32 17.5t25.5 37v-10t-1 -23t-3 -29.5t-7.5 -31.5t-13.5 -28t-21 -20.5t-30 -5.5q-10 0 -21 1q-12 -18 -26 -37t-39 -45t-50 -45t-59 -30.5t-66 -8.5q-48 7 -74 45.5t-23 93t35 107.5q25 43 80 51q-31 34 -26.5 76.5t27 79.5
t55 62.5t57.5 26.5q27 2 47.5 -10.5t31 -33.5t15.5 -35.5t7 -28.5q11 23 11 50.5t-5 42.5l-5 15q3 -1 9 -5t18.5 -17t20 -29t7.5 -42.5t-13.5 -56t-29.5 -42.5t-29 -10.5t-24.5 9.5t-17.5 15l-6 8q43 22 61 57q-49 21 -90 -3.5t-71 -80.5q-1 -3 -1.5 -7.5t1.5 -15t8 -18
t21.5 -13t38.5 -2.5q-61 -9 -90 -45q-18 -34 -23 -62.5t2.5 -47t15 -28t16.5 -16.5q35 -25 172 78q-16 2 -34 5t-29 5t-21.5 3.5t-16.5 1t-9 -4.5q-1 8 0 19t10 33t26 28z" />
    <glyph glyph-name="quotesingle" unicode="'" horiz-adv-x="162" 
d="M66 546q-1 1 -6 0.5t-16 0t-23 1.5t-26 6.5t-25 13.5l112 192q2 0 6 1t17 1.5t25.5 -2t29.5 -11.5t32 -23q0 -1 -11.5 -14t-28.5 -33.5t-34.5 -43.5t-32 -47.5t-19.5 -41.5z" />
    <glyph glyph-name="parenleft" unicode="(" horiz-adv-x="320" 
d="M144 297q-15 -65 -15.5 -125.5t9 -101t21 -71.5t21.5 -46l10 -14q0 1 -10 -0.5t-26.5 2t-37.5 6.5t-42 14.5t-41.5 25.5t-35 40t-22.5 57t-4.5 77t19.5 100q29 99 64 173.5t69 119t71 71.5t70 35t66 4q-3 -3 -8 -8.5t-19.5 -24.5t-29 -39.5t-34 -54t-36 -68t-32.5 -80.5
t-27 -92z" />
    <glyph glyph-name="parenright" unicode=")" horiz-adv-x="408" 
d="M211 664q36 4 64 -4t51.5 -35t34 -71.5t6 -119t-27.5 -173.5q-16 -69 -45 -124t-62.5 -88t-70.5 -56.5t-70.5 -33.5t-61 -15.5t-43.5 -5.5l-16 1q7 5 18.5 15t44 44.5t60.5 73t60 99.5t51 125.5t26.5 126t5 103t-7.5 74t-11 48.5z" />
    <glyph glyph-name="asterisk" unicode="*" horiz-adv-x="329" 
d="M344 614l3.5 -8t6.5 -19.5t4.5 -26.5t-3.5 -31t-16.5 -31t-36 -29t-59.5 -23q44 -41 106 -46q0 -1 -9.5 -9t-22 -18.5t-31 -19t-37 -11t-40 7t-39.5 31.5q-4 -13 -7.5 -25.5t-5.5 -22.5t-3.5 -19.5t-2.5 -15.5t-1.5 -11t-0.5 -7v-3q-3 -2 -9.5 -5.5t-29.5 -4t-49 9.5
q-3 2 -4 17t2.5 45t12.5 64q-22 -8 -39.5 -17t-24.5 -13.5t-18.5 -13.5t-12.5 -10q-2 4 -3.5 11.5t-3 27.5t2 37t18 35.5t39.5 28.5q19 7 48 15q-63 79 -101 96q3 3 7.5 8t20 15t31 14.5t37.5 0.5t43 -21q16 -13 32 -35q43 72 103 136q1 0 2.5 -0.5t6.5 -1t10 -1.5t12 -3
t14 -4.5t15.5 -7.5t16 -10.5t15.5 -13.5t14 -18q-2 0 -5.5 -1.5t-15.5 -8.5t-23.5 -17.5t-28.5 -30t-33 -44.5q-1 -3 -4 -7q64 25 97 65z" />
    <glyph glyph-name="plus" unicode="+" horiz-adv-x="407" 
d="M271 355q109 5 166 43q-1 -1 -1 -7.5t-0.5 -16t-3.5 -22t-8 -25.5t-14.5 -25t-22 -21.5t-32 -15t-44.5 -5.5q-43 0 -87 1q-19 -44 -29.5 -85.5t-12.5 -60.5l-1 -19q-3 -3 -9.5 -6t-29.5 -4t-49 10q-5 2 -5 23t7 62.5t22 86.5q-15 1 -42.5 3.5t-39 3.5t-27.5 2t-24.5 0
t-13.5 -4v7.5t4 16.5t12 22t26.5 20t44.5 14q29 5 98 3q49 98 128 180h7t18.5 -3.5t26 -9t27.5 -18t27 -28.5q-2 -1 -6 -2.5t-15.5 -8.5t-23.5 -17t-28.5 -30t-32.5 -45q-6 -9 -12 -19z" />
    <glyph glyph-name="comma" unicode="," horiz-adv-x="213" 
d="M82 190q2 1 6 2t17 1.5t25.5 -2t29.5 -11.5t32 -23q0 -1 -11.5 -14t-28.5 -33.5t-34.5 -43.5t-32 -47.5t-19.5 -41.5q-3 2 -15.5 0.5t-38 3.5t-42.5 18z" />
    <glyph glyph-name="period" unicode="." horiz-adv-x="171" 
d="M25 129h115l-55 -109h-115z" />
    <glyph glyph-name="slash" unicode="/" horiz-adv-x="279" 
d="M579 825q3 0 7.5 -0.5t16.5 -3.5t22 -8.5t19.5 -18t13.5 -29.5q-264 -232 -384 -352q-71 -72 -142.5 -155.5t-123 -150.5t-92.5 -124.5t-62 -88.5l-21 -32q-7 0 -18.5 1.5t-36.5 11t-37 25.5q-5 7 23 50t81.5 110.5t123 150.5t151 172.5t161 172t159 154.5t139.5 115z
" />
    <glyph glyph-name="zero" unicode="0" 
d="M459 656q19 -29 23.5 -82t-6.5 -119.5t-47 -146t-93 -151.5q-19 -38 -41.5 -69t-52 -59.5t-66.5 -42.5t-77 -10q-122 19 -129 173q-6 143 79 327q76 165 167 239q45 36 83 38q72 4 118 -69q28 -6 42 -28zM334 231q4 5 9.5 15t21 39t28 57.5t25 66t18 69t1 62.5t-20.5 51
q-35 42 -66 -7q-28 -46 -26 -114q3 -72 45 -78q7 -1 16 0q-1 0 -13.5 -5t-25.5 -9t-31 -8t-33.5 -2.5t-30.5 7.5t-24.5 22.5t-11.5 42.5q-36 -92 -46.5 -187t11.5 -109q42 -30 154 86v1z" />
    <glyph glyph-name="one" unicode="1" horiz-adv-x="281" 
d="M380 679q-83 -98 -148 -218q-39 -72 -71 -144t-49 -123.5t-28.5 -92.5t-15.5 -62l-3 -21q-2 -1 -5.5 -3.5t-13.5 -6.5t-19.5 -5.5t-23.5 2t-27 13.5q-15 13 4 103.5t69.5 223.5t113.5 241l-132 -54l244 207q2 0 7 -0.5t18 -4t25.5 -9t28 -17.5t26.5 -29z" />
    <glyph glyph-name="two" unicode="2" horiz-adv-x="559" 
d="M196 687q14 7 36.5 16.5t80 24t100.5 11.5t76.5 -38.5t28.5 -108.5q-3 -54 -30 -115t-64 -113.5t-87.5 -108t-90.5 -93t-82 -73.5q56 -3 95 -3t90 5t91 20.5t67 41.5v-11.5t-3 -26t-9 -33.5t-21 -36.5t-36 -32t-57 -23t-81 -6.5q-61 1 -123.5 5t-102.5 7.5t-75.5 6t-57 2
t-31.5 -5.5v6t2.5 14t7 19.5t16 20.5t27.5 18q44 41 90 85t116 114t123 127.5t94 111t46 77.5q6 32 -10 47.5t-41.5 14t-50.5 -4.5q-30 -11 -58 -27q-42 -23 -67 -48t-31 -44.5t-5.5 -35.5t5.5 -24l5 -9q0 1 -6 0t-15.5 0.5t-22 2.5t-25.5 5t-25 8.5t-21.5 13.5t-15 19.5
t-4.5 26t9 34.5q32 74 143 116z" />
    <glyph glyph-name="three" unicode="3" horiz-adv-x="485" 
d="M122 687q4 2 11.5 5.5t30.5 12t45 15.5t52 12.5t55.5 6t51 -6.5t42.5 -23t27 -45.5t7 -71.5q-4 -59 -48 -130t-97 -99q5 -39 -1 -87.5t-23 -98.5t-42 -93t-62 -73t-79 -36q-31 -2 -53 5t-31.5 19.5t-14 27.5t-2 30.5t5.5 28.5t6 21l4 8q1 0 2 -1.5t6 -5t9.5 -7t11.5 -8
t14.5 -7.5t16 -6t17 -3.5t17.5 1t18 6.5q18 9 27 67t0.5 131t-33.5 115q0 1 0.5 3t4.5 6.5t9 9t15 10t22.5 9.5t32 6.5t42.5 2.5q50 33 82 78t37 70q6 32 -10.5 47.5t-41.5 14t-50 -4.5q-30 -11 -59 -27q-42 -23 -67 -48t-30.5 -44.5t-5 -35.5t5.5 -24l5 -9q0 1 -6 0
t-15.5 0.5t-22 2.5t-25.5 5t-25 8.5t-21.5 13.5t-15 19.5t-4.5 26t9 34.5q31 74 143 116z" />
    <glyph glyph-name="four" unicode="4" horiz-adv-x="419" 
d="M422 739q3 0 7.5 -0.5t18 -4t26 -9t28 -17.5t26.5 -29q-83 -98 -148 -218q-39 -72 -71 -144t-49 -123.5t-28.5 -92.5t-15.5 -62l-4 -21l-2 -1.5t-7.5 -4.5t-11 -5t-14 -3.5t-16.5 -1t-18 4.5t-19 11q-15 12 3.5 100.5t60.5 202.5q-90 -59 -145 -45q-17 -4 -31 2t-21 15.5
t-12 22.5t-6 18.5t-2 8.5q-3 43 2.5 86.5t22 95t54 105t93.5 101.5q1 1 4.5 3t15 4t24.5 -0.5t34.5 -14t44.5 -31.5q-5 -4 -12.5 -11t-29 -30t-40.5 -48t-39.5 -65t-31.5 -82q-10 -34 -14 -69q-1 -36 22 -41q33 -7 107 74q91 210 194 319z" />
    <glyph glyph-name="five" unicode="5" horiz-adv-x="437" 
d="M381 612q-89 0 -153 7q-30 -82 -56 -131q68 47 129 44.5t76 -77.5q19 -89 -31 -203q-58 -132 -167 -191q-52 -28 -110 -34q-39 -3 -63 7t-30.5 28t-5 41t10 46t18 42.5t16.5 31.5l8 12q0 -5 1 -13t6 -28t13.5 -33.5t25.5 -22t39 -2.5q45 13 94 85q60 86 53 149
q-10 83 -145 53h-2q-6 -2 -12 -3q-12 -2 -21.5 -1.5t-15.5 2.5l-6 2l87 225q16 47 83 58q32 3 69 2.5t68.5 -2t70.5 9t76 34.5q0 -1 -0.5 -9t-2 -20t-5.5 -27t-12.5 -29t-21.5 -26.5t-34.5 -19.5t-49.5 -7z" />
    <glyph glyph-name="six" unicode="6" horiz-adv-x="436" 
d="M378 363q8 -54 -6.5 -107t-41 -90t-54 -66t-48.5 -43l-20 -14q-68 -31 -123 -25q-117 17 -115 166q2 137 94 312q81 155 171 220q41 29 73 31q34 2 61 -13.5t40.5 -38.5t22.5 -46t11 -40l3 -16q-72 32 -130 -5.5t-100 -120.5q20 5 38 7t39 -1.5t37 -15t29 -35.5t19 -59z
M295 304q2 31 -6.5 52.5t-25.5 32t-34 15t-38 5.5q-32 -88 -40.5 -173t11.5 -97q9 -7 23 -6q4 1 11 4.5t24.5 17t31.5 31.5t26.5 49.5t16.5 68.5z" />
    <glyph glyph-name="seven" unicode="7" horiz-adv-x="456" 
d="M609 678q-14 -16 -32 -28q-108 -95 -192 -189q-65 -72 -122 -144t-92.5 -123.5t-62 -92.5t-37.5 -62l-11 -21q-2 -1 -6 -3.5t-15.5 -6.5t-22 -5.5t-23 2t-21.5 13.5q-7 8 10.5 51t57 109.5t91 141t120 156t136.5 145.5q-44 3 -84 7t-57 6t-33 3t-23.5 0t-16.5 -5
q0 4 1.5 10.5t8 23t16.5 30t30 26.5t46 17q30 4 64 0t76.5 -8t81 -7t79 5t70.5 28q-1 -1 -2 -6t-3 -12.5t-5.5 -17t-10 -20.5t-14.5 -22q-1 0 -2 -1z" />
    <glyph glyph-name="eight" unicode="8" horiz-adv-x="501" 
d="M521 566q-11 -31 -33 -59.5t-47 -49t-54 -38.5t-51.5 -29t-43.5 -19q22 -90 32 -134q10 -37 5 -67t-15 -51t-30 -37t-39.5 -25t-43.5 -15l-15 -11q-4 -2 -10 -4t-25 -7t-37 -8t-41 -2.5t-41 5.5t-34 19t-23 36q-17 52 19 95q31 71 154 152q-36 92 -48 134q-28 103 64 197
q74 77 177 101q107 26 156 -30q15 -16 22 -39q22 -68 2 -114zM70 153q-2 -18 -1.5 -32.5t5 -28.5t15 -20.5t28 -9t44.5 7.5q24 23 29.5 57t-1.5 66.5t-24 79.5q-46 -42 -95 -120zM277 432q14 11 29 24.5t26.5 26.5t22.5 26t19.5 24.5t14.5 20t9 13.5l3 5q2 42 -15 67.5
t-63 22.5q-26 -2 -42 -14t-22.5 -31t-5 -49.5t7 -61t16.5 -74.5z" />
    <glyph glyph-name="nine" unicode="9" horiz-adv-x="416" 
d="M331 767q117 -17 115 -167q-3 -136 -94 -311q-82 -155 -172 -221q-40 -29 -73 -31q-34 -1 -60.5 14t-40.5 38t-22.5 46.5t-11.5 39.5l-2 17q71 -33 129 4.5t100 121.5q-25 -7 -48 -8t-47 7t-42 34.5t-24 70.5q-6 39 0 78t20.5 70t33.5 59t39.5 48t37.5 35t28 22l11 8
q67 31 123 25zM121 480q-2 -20 1.5 -37t11.5 -28t18 -18.5t23 -12t24.5 -6.5t24.5 -2q33 87 41.5 172.5t-12.5 97.5q-8 6 -23 6l-6 -3t-14 -8.5t-20 -14.5t-22 -22.5t-21 -31t-16.5 -40.5t-9.5 -52z" />
    <glyph glyph-name="colon" unicode=":" horiz-adv-x="231" 
d="M-30 144l55 109h115l-55 -109h-115zM86 479h115l-55 -109h-115z" />
    <glyph glyph-name="semicolon" unicode=";" horiz-adv-x="243" 
d="M82 295q2 0 6 1t17 1.5t25.5 -2t29.5 -11.5t32 -23q0 -1 -11.5 -14t-28.5 -33.5t-34.5 -43.5t-32 -47.5t-19.5 -41.5q-3 2 -15.5 0.5t-38 3.5t-42.5 18zM192 479l-55 -109h-115l55 109h115z" />
    <glyph glyph-name="less" unicode="&#x3c;" horiz-adv-x="473" 
d="M393 446zM384 89h1h-1zM101 169q16 -6 42 -18t46 -20.5t48.5 -20t49.5 -16t49.5 -8.5t47.5 3q0 -1 -3 -7.5t-8 -15.5t-13 -19.5t-20 -19t-26 -14t-34 -4t-42 11.5q-66 27 -130 60t-95 49t-43 16q1 4 4 9.5t16 16t32 13.5q9 32 47 58q20 13 57 30t73 33t74 36t70 47t50 57
l3.5 -8t7 -19.5t7 -26.5t1.5 -31.5t-8.5 -33t-23 -32t-40.5 -27.5q-88 -42 -239 -99z" />
    <glyph glyph-name="equal" unicode="=" horiz-adv-x="535" 
d="M484 359zM104 314q32 4 84 3.5t101.5 -2t104 8.5t90.5 35v-9.5t-2 -20t-5.5 -26.5t-12.5 -29.5t-21.5 -26.5t-34 -19t-49.5 -7q-66 0 -133 4t-100.5 7.5t-69.5 5t-38 -3.5q-1 3 -0.5 7.5t4.5 16.5t12 22t26.5 20t43.5 14zM437 178zM57 134q31 3 83 3t101.5 -2t104 8.5
t91.5 34.5q-1 0 -1 -8.5t-1.5 -20.5t-5.5 -27t-12.5 -29t-21.5 -26t-34.5 -19.5t-49.5 -7.5q-65 0 -132.5 4t-101 8t-69 5.5t-38.5 -3.5v6.5t4 17t12 22.5t26.5 20t44.5 14z" />
    <glyph glyph-name="greater" unicode="&#x3e;" horiz-adv-x="511" 
d="M-21 -9v-1v1zM193 390q49 -29 96 -61.5t73 -52.5t47.5 -33.5t31.5 -15.5q-2 -3 -5.5 -8t-18 -13.5t-33.5 -8.5q-14 -30 -55 -51q-25 -12 -78.5 -27.5t-99 -28.5t-95 -39.5t-77.5 -59.5l-2 8t-4 20t-3 27t3 31.5t12.5 31.5t27 28.5t45.5 22.5q92 28 250 63q-16 9 -59 36.5
t-70 43t-67 29t-73 11.5l4 6.5t10.5 14.5t15.5 17.5t22 16t28 10t34.5 -1t39.5 -16.5zM39 343h-1h1z" />
    <glyph glyph-name="question" unicode="?" horiz-adv-x="524" 
d="M-30 0l55 109h115l-55 -109h-115zM511 832q24 -186 -196 -485q-65 -89 -122 -150l-158 -11q16 21 42.5 57t94 132t119 175t94 157.5t41.5 107.5q0 20 -7.5 32t-18.5 16.5t-26.5 3.5t-29 -5t-28.5 -10q-28 -16 -53 -37q-37 -30 -56.5 -59.5t-21.5 -49.5t1.5 -35.5
t9.5 -23.5l7 -7q-7 -2 -18.5 -4t-39.5 -2t-48.5 6.5t-33.5 27.5t-5 56q17 78 119 140q4 3 10.5 8t27.5 18t41.5 23.5t49 22t53 16.5t51 2.5t46.5 -14.5t35 -39.5t20 -68.5z" />
    <glyph glyph-name="at" unicode="@" horiz-adv-x="384" 
d="M414 263q-18 -58 -47 -88q-22 -32 -46 -60.5t-56 -57t-70 -44t-76 -13.5q-33 3 -59 14t-41.5 26.5t-26.5 34t-15 36.5t-6 32.5t-1 23.5v9h1q-1 61 38.5 136t102.5 129.5t123 54.5q21 0 38.5 -9.5t27 -23.5t16.5 -28t9 -23l3 -10q-47 32 -90.5 19.5t-77.5 -50.5t-55 -82
t-22 -76q0 -20 4.5 -39.5t15 -38.5t31.5 -31t49 -12q50 -1 135 70q-29 11 -35.5 44t2.5 67.5t26 69.5q-23 1 -44 -15t-34 -39t-22.5 -48.5t-9.5 -43.5t4 -23q10 -7 26 4.5t27 26.5l11 15q-1 -4 -2.5 -10.5t-9 -23.5t-17 -29t-27.5 -21t-39 -7q-60 8 -43 89q14 72 67 136
q37 44 66 46q34 1 58 -37q21 37 31 37q11 0 22 -6t16 -12l5 -5q-18 -21 -33 -46t-23 -47t-11 -41t-0.5 -30.5t10.5 -13.5q9 -1 19.5 5t20 15.5t17.5 19.5t13 17z" />
    <glyph glyph-name="A" unicode="A" horiz-adv-x="667" 
d="M467 376q-62 -6 -109 -17q-72 -118 -117.5 -203t-54.5 -110l-9 -26q-2 -2 -6 -4t-14.5 -6.5t-21 -5.5t-23.5 2.5t-24 13.5q-9 8 4 53.5t43 113.5q-11 0 -21.5 0.5t-28 2t-32.5 4.5t-31.5 8t-27.5 12.5t-18 17t-6 23.5t11 30q52 85 269 122q103 169 212 278
q-55 -13 -97 -33q-42 -21 -67 -43.5t-30.5 -39.5t-5 -31.5t5.5 -22.5l5 -8q0 1 -6 0.5t-15.5 0.5t-22 2t-25.5 4.5t-25 7.5t-21.5 12t-15 17.5t-4.5 23.5t9 30q17 36 62 64t106.5 45.5t116 27.5t113.5 16q124 93 232 78q-2 -1 -6 -2q44 -14 3 -69q-7 -8 -17 -16q27 -1 50 -9
q-97 -137 -154 -239q6 0 13 -0.5t20 -4.5t19 -10.5t2.5 -21.5t-23.5 -35q-27 -28 -82 -39q-35 -81 -61.5 -149t-39 -107.5t-20.5 -66.5t-9 -37l-2 -10q0 -1 -2 -2.5t-7.5 -4.5t-11 -5t-14 -3.5t-16.5 -0.5t-18 4.5t-19 11.5q-17 13 8 120t77 236zM414 449q-8 -12 -16 -25
q46 4 91 5q80 182 171 288q-19 -4 -48 -8q-99 -102 -198 -260zM138 194q22 49 49 101q-26 -16 -40 -32.5t-16 -29.5t0 -22t7 -17z" />
    <glyph glyph-name="A" unicode="&#xc5;" horiz-adv-x="667" 
d="M467 376q-62 -6 -109 -17q-72 -118 -117.5 -203t-54.5 -110l-9 -26q-2 -2 -6 -4t-14.5 -6.5t-21 -5.5t-23.5 2.5t-24 13.5q-9 8 4 53.5t43 113.5q-11 0 -21.5 0.5t-28 2t-32.5 4.5t-31.5 8t-27.5 12.5t-18 17t-6 23.5t11 30q52 85 269 122q103 169 212 278
q-55 -13 -97 -33q-42 -21 -67 -43.5t-30.5 -39.5t-5 -31.5t5.5 -22.5l5 -8q0 1 -6 0.5t-15.5 0.5t-22 2t-25.5 4.5t-25 7.5t-21.5 12t-15 17.5t-4.5 23.5t9 30q17 36 62 64t106.5 45.5t116 27.5t113.5 16q124 93 232 78q-2 -1 -6 -2q44 -14 3 -69q-7 -8 -17 -16q27 -1 50 -9
q-97 -137 -154 -239q6 0 13 -0.5t20 -4.5t19 -10.5t2.5 -21.5t-23.5 -35q-27 -28 -82 -39q-35 -81 -61.5 -149t-39 -107.5t-20.5 -66.5t-9 -37l-2 -10q0 -1 -2 -2.5t-7.5 -4.5t-11 -5t-14 -3.5t-16.5 -0.5t-18 4.5t-19 11.5q-17 13 8 120t77 236zM414 449q-8 -12 -16 -25
q46 4 91 5q80 182 171 288q-19 -4 -48 -8q-99 -102 -198 -260zM138 194q22 49 49 101q-26 -16 -40 -32.5t-16 -29.5t0 -22t7 -17z" />
    <glyph glyph-name="A" unicode="&#xc4;" horiz-adv-x="667" 
d="M467 376q-62 -6 -109 -17q-72 -118 -117.5 -203t-54.5 -110l-9 -26q-2 -2 -6 -4t-14.5 -6.5t-21 -5.5t-23.5 2.5t-24 13.5q-9 8 4 53.5t43 113.5q-11 0 -21.5 0.5t-28 2t-32.5 4.5t-31.5 8t-27.5 12.5t-18 17t-6 23.5t11 30q52 85 269 122q103 169 212 278
q-55 -13 -97 -33q-42 -21 -67 -43.5t-30.5 -39.5t-5 -31.5t5.5 -22.5l5 -8q0 1 -6 0.5t-15.5 0.5t-22 2t-25.5 4.5t-25 7.5t-21.5 12t-15 17.5t-4.5 23.5t9 30q17 36 62 64t106.5 45.5t116 27.5t113.5 16q124 93 232 78q-2 -1 -6 -2q44 -14 3 -69q-7 -8 -17 -16q27 -1 50 -9
q-97 -137 -154 -239q6 0 13 -0.5t20 -4.5t19 -10.5t2.5 -21.5t-23.5 -35q-27 -28 -82 -39q-35 -81 -61.5 -149t-39 -107.5t-20.5 -66.5t-9 -37l-2 -10q0 -1 -2 -2.5t-7.5 -4.5t-11 -5t-14 -3.5t-16.5 -0.5t-18 4.5t-19 11.5q-17 13 8 120t77 236zM414 449q-8 -12 -16 -25
q46 4 91 5q80 182 171 288q-19 -4 -48 -8q-99 -102 -198 -260zM138 194q22 49 49 101q-26 -16 -40 -32.5t-16 -29.5t0 -22t7 -17z" />
    <glyph glyph-name="A" unicode="&#xc3;" horiz-adv-x="667" 
d="M467 376q-62 -6 -109 -17q-72 -118 -117.5 -203t-54.5 -110l-9 -26q-2 -2 -6 -4t-14.5 -6.5t-21 -5.5t-23.5 2.5t-24 13.5q-9 8 4 53.5t43 113.5q-11 0 -21.5 0.5t-28 2t-32.5 4.5t-31.5 8t-27.5 12.5t-18 17t-6 23.5t11 30q52 85 269 122q103 169 212 278
q-55 -13 -97 -33q-42 -21 -67 -43.5t-30.5 -39.5t-5 -31.5t5.5 -22.5l5 -8q0 1 -6 0.5t-15.5 0.5t-22 2t-25.5 4.5t-25 7.5t-21.5 12t-15 17.5t-4.5 23.5t9 30q17 36 62 64t106.5 45.5t116 27.5t113.5 16q124 93 232 78q-2 -1 -6 -2q44 -14 3 -69q-7 -8 -17 -16q27 -1 50 -9
q-97 -137 -154 -239q6 0 13 -0.5t20 -4.5t19 -10.5t2.5 -21.5t-23.5 -35q-27 -28 -82 -39q-35 -81 -61.5 -149t-39 -107.5t-20.5 -66.5t-9 -37l-2 -10q0 -1 -2 -2.5t-7.5 -4.5t-11 -5t-14 -3.5t-16.5 -0.5t-18 4.5t-19 11.5q-17 13 8 120t77 236zM414 449q-8 -12 -16 -25
q46 4 91 5q80 182 171 288q-19 -4 -48 -8q-99 -102 -198 -260zM138 194q22 49 49 101q-26 -16 -40 -32.5t-16 -29.5t0 -22t7 -17z" />
    <glyph glyph-name="A" unicode="&#xc2;" horiz-adv-x="667" 
d="M467 376q-62 -6 -109 -17q-72 -118 -117.5 -203t-54.5 -110l-9 -26q-2 -2 -6 -4t-14.5 -6.5t-21 -5.5t-23.5 2.5t-24 13.5q-9 8 4 53.5t43 113.5q-11 0 -21.5 0.5t-28 2t-32.5 4.5t-31.5 8t-27.5 12.5t-18 17t-6 23.5t11 30q52 85 269 122q103 169 212 278
q-55 -13 -97 -33q-42 -21 -67 -43.5t-30.5 -39.5t-5 -31.5t5.5 -22.5l5 -8q0 1 -6 0.5t-15.5 0.5t-22 2t-25.5 4.5t-25 7.5t-21.5 12t-15 17.5t-4.5 23.5t9 30q17 36 62 64t106.5 45.5t116 27.5t113.5 16q124 93 232 78q-2 -1 -6 -2q44 -14 3 -69q-7 -8 -17 -16q27 -1 50 -9
q-97 -137 -154 -239q6 0 13 -0.5t20 -4.5t19 -10.5t2.5 -21.5t-23.5 -35q-27 -28 -82 -39q-35 -81 -61.5 -149t-39 -107.5t-20.5 -66.5t-9 -37l-2 -10q0 -1 -2 -2.5t-7.5 -4.5t-11 -5t-14 -3.5t-16.5 -0.5t-18 4.5t-19 11.5q-17 13 8 120t77 236zM414 449q-8 -12 -16 -25
q46 4 91 5q80 182 171 288q-19 -4 -48 -8q-99 -102 -198 -260zM138 194q22 49 49 101q-26 -16 -40 -32.5t-16 -29.5t0 -22t7 -17z" />
    <glyph glyph-name="A" unicode="&#xc1;" horiz-adv-x="667" 
d="M467 376q-62 -6 -109 -17q-72 -118 -117.5 -203t-54.5 -110l-9 -26q-2 -2 -6 -4t-14.5 -6.5t-21 -5.5t-23.5 2.5t-24 13.5q-9 8 4 53.5t43 113.5q-11 0 -21.5 0.5t-28 2t-32.5 4.5t-31.5 8t-27.5 12.5t-18 17t-6 23.5t11 30q52 85 269 122q103 169 212 278
q-55 -13 -97 -33q-42 -21 -67 -43.5t-30.5 -39.5t-5 -31.5t5.5 -22.5l5 -8q0 1 -6 0.5t-15.5 0.5t-22 2t-25.5 4.5t-25 7.5t-21.5 12t-15 17.5t-4.5 23.5t9 30q17 36 62 64t106.5 45.5t116 27.5t113.5 16q124 93 232 78q-2 -1 -6 -2q44 -14 3 -69q-7 -8 -17 -16q27 -1 50 -9
q-97 -137 -154 -239q6 0 13 -0.5t20 -4.5t19 -10.5t2.5 -21.5t-23.5 -35q-27 -28 -82 -39q-35 -81 -61.5 -149t-39 -107.5t-20.5 -66.5t-9 -37l-2 -10q0 -1 -2 -2.5t-7.5 -4.5t-11 -5t-14 -3.5t-16.5 -0.5t-18 4.5t-19 11.5q-17 13 8 120t77 236zM414 449q-8 -12 -16 -25
q46 4 91 5q80 182 171 288q-19 -4 -48 -8q-99 -102 -198 -260zM138 194q22 49 49 101q-26 -16 -40 -32.5t-16 -29.5t0 -22t7 -17z" />
    <glyph glyph-name="A" unicode="&#xc0;" horiz-adv-x="667" 
d="M467 376q-62 -6 -109 -17q-72 -118 -117.5 -203t-54.5 -110l-9 -26q-2 -2 -6 -4t-14.5 -6.5t-21 -5.5t-23.5 2.5t-24 13.5q-9 8 4 53.5t43 113.5q-11 0 -21.5 0.5t-28 2t-32.5 4.5t-31.5 8t-27.5 12.5t-18 17t-6 23.5t11 30q52 85 269 122q103 169 212 278
q-55 -13 -97 -33q-42 -21 -67 -43.5t-30.5 -39.5t-5 -31.5t5.5 -22.5l5 -8q0 1 -6 0.5t-15.5 0.5t-22 2t-25.5 4.5t-25 7.5t-21.5 12t-15 17.5t-4.5 23.5t9 30q17 36 62 64t106.5 45.5t116 27.5t113.5 16q124 93 232 78q-2 -1 -6 -2q44 -14 3 -69q-7 -8 -17 -16q27 -1 50 -9
q-97 -137 -154 -239q6 0 13 -0.5t20 -4.5t19 -10.5t2.5 -21.5t-23.5 -35q-27 -28 -82 -39q-35 -81 -61.5 -149t-39 -107.5t-20.5 -66.5t-9 -37l-2 -10q0 -1 -2 -2.5t-7.5 -4.5t-11 -5t-14 -3.5t-16.5 -0.5t-18 4.5t-19 11.5q-17 13 8 120t77 236zM414 449q-8 -12 -16 -25
q46 4 91 5q80 182 171 288q-19 -4 -48 -8q-99 -102 -198 -260zM138 194q22 49 49 101q-26 -16 -40 -32.5t-16 -29.5t0 -22t7 -17z" />
    <glyph glyph-name="B" unicode="B" horiz-adv-x="533" 
d="M598 694q62 -21 39 -99q-23 -79 -110 -153q-43 -37 -91 -60q18 -27 21 -79t-11 -111t-39 -114.5t-67.5 -95.5t-91.5 -48q-36 -4 -52 16t-14 51.5t9.5 63.5t16.5 54l9 23l7 -48q14 -69 50 -51q19 10 30.5 65t5.5 125t-33 112q-47 1 -91 19q-32 -75 -56 -138.5t-35.5 -99.5
t-19 -62t-8.5 -35l-1 -9q-2 -2 -5 -4t-13 -6.5t-20 -5.5t-24 2.5t-26 13.5q-7 5 -7.5 27t4.5 55.5t16 77.5t26.5 93t37.5 103.5t46.5 106t55.5 102.5t64 93q-12 -5 -24 -11q-42 -21 -67 -43t-30.5 -39.5t-5 -32t5.5 -21.5l5 -8q0 1 -6 0t-15.5 0.5t-22 2t-25.5 4t-25 8
t-21.5 12t-15 17t-4.5 23.5t9 31q11 23 31.5 42.5t47.5 33.5t56.5 25t63 18.5t62 12t59.5 7.5q104 89 212 76q9 -1 16.5 -4t14.5 -10t3.5 -21.5t-19.5 -35.5q-4 -6 -10 -11t-10.5 -9t-13 -7.5t-13 -6t-15.5 -4.5t-15 -3.5t-17.5 -3t-17 -2t-19.5 -2.5t-19 -2
q-48 -61 -93 -143q17 16 34.5 30.5t40 30.5t44.5 28.5t47.5 23t49.5 15.5t50 4t49 -9zM498 627q0 83 -215 -102q-21 -17 -43 -37q-8 -19 -17 -39q-12 -26 -23 -52q30 2 59 7.5t67 20.5t69.5 39t59.5 66t43 97z" />
    <glyph glyph-name="C" unicode="C" horiz-adv-x="481" 
d="M85 49q-117 18 -115 167q2 136 94 311q81 156 171 221q41 29 73 31q25 1 46 -6.5t35 -22t24.5 -30t16.5 -34t9.5 -30.5t4.5 -23q15 32 15.5 68.5t-6.5 56.5l-7 21q4 -2 12 -7t25 -23t27 -39.5t10 -57t-18 -75t-39.5 -57t-39 -14t-33 12.5t-23.5 20l-9 11q58 29 83 76
q-58 25 -104.5 3.5t-82 -69t-59.5 -110.5t-36 -122t-11 -103.5t14 -54.5q18 -10 48 -1.5t67 29.5t69 43t54 39l22 17q-3 -6 -9 -15.5t-25 -37t-39 -52t-51.5 -54t-63 -49.5t-71.5 -32t-78 -8z" />
    <glyph glyph-name="C" unicode="&#xc7;" horiz-adv-x="481" 
d="M85 49q-117 18 -115 167q2 136 94 311q81 156 171 221q41 29 73 31q25 1 46 -6.5t35 -22t24.5 -30t16.5 -34t9.5 -30.5t4.5 -23q15 32 15.5 68.5t-6.5 56.5l-7 21q4 -2 12 -7t25 -23t27 -39.5t10 -57t-18 -75t-39.5 -57t-39 -14t-33 12.5t-23.5 20l-9 11q58 29 83 76
q-58 25 -104.5 3.5t-82 -69t-59.5 -110.5t-36 -122t-11 -103.5t14 -54.5q18 -10 48 -1.5t67 29.5t69 43t54 39l22 17q-3 -6 -9 -15.5t-25 -37t-39 -52t-51.5 -54t-63 -49.5t-71.5 -32t-78 -8z" />
    <glyph glyph-name="D" unicode="D" horiz-adv-x="564" 
d="M551 687q62 -37 35 -180q-27 -147 -121 -292q-101 -157 -211 -191q-96 -31 -176 49l-12 -53q-2 -2 -5 -4t-13 -6.5t-20 -5.5t-24 2.5t-26 13.5q-7 5 -7.5 27t4.5 55.5t16 77.5t26.5 93t37.5 103.5t46.5 106t55.5 102.5t64 93q-12 -5 -24 -11q-42 -21 -67 -43t-30.5 -39.5
t-5 -32t5.5 -21.5l5 -8q0 1 -6 0t-15.5 0.5t-22 2t-25.5 4t-25 8t-21.5 12t-15 17t-4.5 23.5t9 31q13 27 40.5 49.5t59.5 37t73 26t75.5 17t71.5 9.5q104 89 212 76q9 -1 16.5 -4t14.5 -10t3.5 -21.5t-19.5 -35.5q-4 -6 -10 -11t-10.5 -9t-13 -7.5t-13 -6t-15.5 -4.5
t-15 -3.5t-17.5 -3t-17 -2t-19.5 -2.5t-19 -2q-78 -99 -147 -251q15 24 30 46t34 47.5t39 47t41.5 41.5t43.5 33t44.5 20t45.5 4.5t44 -15.5zM451 571q0 128 -172 -114q-75 -106 -149 -230q-22 -59 -37 -106q8 -2 19.5 -3t39.5 4t55.5 17.5t63.5 44.5t66.5 78.5t61.5 126.5
t52 182z" />
    <glyph glyph-name="E" unicode="E" horiz-adv-x="459" 
d="M100 49q-64 10 -99 61.5t-31 125t47 144.5q34 58 108 68q-42 47 -36 104t36.5 107t74 84t76.5 36q25 1 46 -6.5t35 -22t24.5 -30t16.5 -34t9.5 -30.5t4.5 -23q15 32 15.5 68.5t-6.5 56.5l-7 21q4 -2 12 -7t25 -23t27 -39.5t10 -57t-18 -75t-39.5 -57t-39 -14t-33 12.5
t-23.5 20l-9 11q58 29 83 76q-66 29 -121 -4.5t-96 -108.5q-1 -4 -1.5 -9.5t2 -20t10 -24.5t28.5 -17t53 -4q-83 -12 -121 -60q-20 -38 -27.5 -71t-5 -54.5t12 -40t17.5 -27t18 -15.5q17 -10 47.5 -1.5t67 29.5t69 43t53.5 39l22 17q-3 -6 -8.5 -15.5t-24.5 -37t-39.5 -52
t-52 -54t-63 -49.5t-71 -32t-78.5 -8z" />
    <glyph glyph-name="E" unicode="&#xcb;" horiz-adv-x="459" 
d="M100 49q-64 10 -99 61.5t-31 125t47 144.5q34 58 108 68q-42 47 -36 104t36.5 107t74 84t76.5 36q25 1 46 -6.5t35 -22t24.5 -30t16.5 -34t9.5 -30.5t4.5 -23q15 32 15.5 68.5t-6.5 56.5l-7 21q4 -2 12 -7t25 -23t27 -39.5t10 -57t-18 -75t-39.5 -57t-39 -14t-33 12.5
t-23.5 20l-9 11q58 29 83 76q-66 29 -121 -4.5t-96 -108.5q-1 -4 -1.5 -9.5t2 -20t10 -24.5t28.5 -17t53 -4q-83 -12 -121 -60q-20 -38 -27.5 -71t-5 -54.5t12 -40t17.5 -27t18 -15.5q17 -10 47.5 -1.5t67 29.5t69 43t53.5 39l22 17q-3 -6 -8.5 -15.5t-24.5 -37t-39.5 -52
t-52 -54t-63 -49.5t-71 -32t-78.5 -8z" />
    <glyph glyph-name="E" unicode="&#xca;" horiz-adv-x="459" 
d="M100 49q-64 10 -99 61.5t-31 125t47 144.5q34 58 108 68q-42 47 -36 104t36.5 107t74 84t76.5 36q25 1 46 -6.5t35 -22t24.5 -30t16.5 -34t9.5 -30.5t4.5 -23q15 32 15.5 68.5t-6.5 56.5l-7 21q4 -2 12 -7t25 -23t27 -39.5t10 -57t-18 -75t-39.5 -57t-39 -14t-33 12.5
t-23.5 20l-9 11q58 29 83 76q-66 29 -121 -4.5t-96 -108.5q-1 -4 -1.5 -9.5t2 -20t10 -24.5t28.5 -17t53 -4q-83 -12 -121 -60q-20 -38 -27.5 -71t-5 -54.5t12 -40t17.5 -27t18 -15.5q17 -10 47.5 -1.5t67 29.5t69 43t53.5 39l22 17q-3 -6 -8.5 -15.5t-24.5 -37t-39.5 -52
t-52 -54t-63 -49.5t-71 -32t-78.5 -8z" />
    <glyph glyph-name="E" unicode="&#xc9;" horiz-adv-x="459" 
d="M100 49q-64 10 -99 61.5t-31 125t47 144.5q34 58 108 68q-42 47 -36 104t36.5 107t74 84t76.5 36q25 1 46 -6.5t35 -22t24.5 -30t16.5 -34t9.5 -30.5t4.5 -23q15 32 15.5 68.5t-6.5 56.5l-7 21q4 -2 12 -7t25 -23t27 -39.5t10 -57t-18 -75t-39.5 -57t-39 -14t-33 12.5
t-23.5 20l-9 11q58 29 83 76q-66 29 -121 -4.5t-96 -108.5q-1 -4 -1.5 -9.5t2 -20t10 -24.5t28.5 -17t53 -4q-83 -12 -121 -60q-20 -38 -27.5 -71t-5 -54.5t12 -40t17.5 -27t18 -15.5q17 -10 47.5 -1.5t67 29.5t69 43t53.5 39l22 17q-3 -6 -8.5 -15.5t-24.5 -37t-39.5 -52
t-52 -54t-63 -49.5t-71 -32t-78.5 -8z" />
    <glyph glyph-name="E" unicode="&#xc8;" horiz-adv-x="459" 
d="M100 49q-64 10 -99 61.5t-31 125t47 144.5q34 58 108 68q-42 47 -36 104t36.5 107t74 84t76.5 36q25 1 46 -6.5t35 -22t24.5 -30t16.5 -34t9.5 -30.5t4.5 -23q15 32 15.5 68.5t-6.5 56.5l-7 21q4 -2 12 -7t25 -23t27 -39.5t10 -57t-18 -75t-39.5 -57t-39 -14t-33 12.5
t-23.5 20l-9 11q58 29 83 76q-66 29 -121 -4.5t-96 -108.5q-1 -4 -1.5 -9.5t2 -20t10 -24.5t28.5 -17t53 -4q-83 -12 -121 -60q-20 -38 -27.5 -71t-5 -54.5t12 -40t17.5 -27t18 -15.5q17 -10 47.5 -1.5t67 29.5t69 43t53.5 39l22 17q-3 -6 -8.5 -15.5t-24.5 -37t-39.5 -52
t-52 -54t-63 -49.5t-71 -32t-78.5 -8z" />
    <glyph glyph-name="F" unicode="F" horiz-adv-x="570" 
d="M69 412q21 3 55 2q68 159 151 264q-12 -5 -24 -11q-42 -21 -67 -43t-30.5 -39.5t-5 -32t5.5 -21.5l5 -8q0 1 -6 0t-16 0.5t-22.5 2t-25 4t-25 8t-21.5 12t-14.5 17t-5 23.5t8.5 31q10 20 27 37t37.5 30t46.5 24t51.5 18.5t54.5 13.5t53.5 9.5t49.5 6.5q104 89 212 76
q10 -1 17 -4t14 -10t3.5 -21.5t-18.5 -35.5q-5 -6 -10.5 -11t-10.5 -9t-13 -7.5t-13 -6t-15.5 -4.5t-15 -3.5t-17.5 -3t-17 -2t-19.5 -2.5t-19.5 -2q-81 -103 -153 -265q-9 -20 -18 -41q105 -4 183.5 8.5t125.5 57.5v-11.5t-3 -26t-9 -33.5t-21 -36.5t-36 -32t-57 -23
t-81 -6.5q-69 2 -142 6q-42 -100 -66.5 -173t-28.5 -96l-4 -22q-1 -2 -4.5 -4t-13.5 -6.5t-20 -5.5t-23.5 2.5t-26.5 13.5q-16 12 0 100.5t57 200.5q-99 8 -118 -1q1 1 0 4.5t1 11t4.5 15.5t10 17.5t17.5 18t27.5 15t38.5 10.5z" />
    <glyph glyph-name="G" unicode="G" horiz-adv-x="521" 
d="M85 49q-117 18 -115 167q2 136 94 311q81 156 171 221q41 29 73 31q30 1 54 -10.5t38 -28.5t24 -40t14 -38t6 -29q15 32 15.5 68.5t-6.5 56.5l-7 21q4 -2 12 -7t25 -23t27 -39.5t10 -57t-18 -75t-39.5 -57t-39 -14t-33 12.5t-23.5 20l-9 11q58 29 83 76
q-58 25 -104.5 3.5t-82 -69t-59.5 -110.5t-36 -122t-11 -103.5t14 -54.5q34 -24 151 49q17 45 43 95q-26 10 -44.5 14.5t-47.5 4t-56 -12.5q0 4 -0.5 11t2.5 24.5t11 30.5t28 24t49 11q33 0 70 -10.5t59.5 -18t55 1t67.5 40.5l-0.5 -12.5t-2.5 -28t-9.5 -34.5t-18.5 -34
t-32.5 -24t-50.5 -8q-29 -43 -48.5 -111.5t-25.5 -114.5t-4 -52q-88 5 -70 115q-103 -91 -203 -81z" />
    <glyph glyph-name="H" unicode="H" horiz-adv-x="692" 
d="M269 523q0 1 -6 0t-16 0.5t-22.5 2t-25 4t-25 8t-21.5 12t-14.5 17t-5 23.5t8.5 31q13 27 40.5 49.5t60 37t73 26t75 17t71.5 9.5q104 89 212 76q9 -1 16.5 -4t14.5 -10t3.5 -21.5t-18.5 -35.5q-5 -6 -10.5 -11t-10.5 -9t-13.5 -7.5t-13 -6t-15 -4.5t-15 -3.5t-17.5 -3
t-17 -2t-19.5 -2.5t-19.5 -2q-81 -103 -153 -265q-6 -13 -12 -27q39 4 77 5.5t56 1.5h19l17 9q87 192 183 294h4t10 -1.5t15.5 -3.5t18 -6.5t20 -10.5t20 -16t18.5 -22q-68 -80 -130 -184q21 -19 -18 -59q-10 -10 -23 -18q-54 -104 -90 -204t-45 -148l-10 -47q-2 -2 -5 -4
t-13 -6.5t-20 -5.5t-24 2.5t-26 13.5q-17 13 9 125t81 243q-112 -9 -172 -23q-49 -117 -78.5 -201.5t-33.5 -110.5l-5 -25l-2.5 -2.5t-7 -4.5t-11 -5t-14 -3.5t-16.5 -0.5t-18 4.5t-19 11.5q-15 9 -1.5 90t49.5 186q-28 -16 -42.5 -33.5t-16 -30.5t1 -23.5t7.5 -16.5l5 -5
h-10t-25 0.5t-34 3t-36.5 6.5t-33.5 11.5t-25 17.5t-10 25t11 34q50 80 248 118q70 166 156 275q-13 -5 -24 -11q-42 -21 -67 -43t-30.5 -39.5t-5.5 -32t6 -21.5z" />
    <glyph glyph-name="I" unicode="I" horiz-adv-x="392" 
d="M462 714q-82 -103 -153 -265q-103 -234 -142 -366q27 -8 45.5 -9.5t45 9t55.5 36.5l-1 -12t-3 -26.5t-7.5 -33.5t-16.5 -33t-29.5 -25.5t-45.5 -11t-65 11.5q-4 1 -9.5 3t-10 4t-10.5 4t-11 4q-16 0 -30 9q-56 13 -103 -8q-1 4 -1.5 11t2.5 24t11 30.5t28 24t50 10.5v0
q20 120 87 287.5t160 285.5q-13 -5 -24 -11q-42 -21 -67 -43t-31 -39.5t-5.5 -32t5.5 -21.5l5 -8q0 1 -6 0t-15.5 0.5t-22 2t-25.5 4t-25 8t-21.5 12t-15 17t-4.5 23.5t9 31q11 23 31.5 42.5t47.5 33.5t56.5 25t63 18.5t62 12t59.5 7.5q104 89 212 76q9 -1 16.5 -4t14.5 -10
t3.5 -21.5t-18.5 -35.5q-14 -18 -37 -28.5t-42 -13.5t-57 -7q-10 -1 -15 -2z" />
    <glyph glyph-name="I" unicode="&#xcf;" horiz-adv-x="392" 
d="M462 714q-82 -103 -153 -265q-103 -234 -142 -366q27 -8 45.5 -9.5t45 9t55.5 36.5l-1 -12t-3 -26.5t-7.5 -33.5t-16.5 -33t-29.5 -25.5t-45.5 -11t-65 11.5q-4 1 -9.5 3t-10 4t-10.5 4t-11 4q-16 0 -30 9q-56 13 -103 -8q-1 4 -1.5 11t2.5 24t11 30.5t28 24t50 10.5v0
q20 120 87 287.5t160 285.5q-13 -5 -24 -11q-42 -21 -67 -43t-31 -39.5t-5.5 -32t5.5 -21.5l5 -8q0 1 -6 0t-15.5 0.5t-22 2t-25.5 4t-25 8t-21.5 12t-15 17t-4.5 23.5t9 31q11 23 31.5 42.5t47.5 33.5t56.5 25t63 18.5t62 12t59.5 7.5q104 89 212 76q9 -1 16.5 -4t14.5 -10
t3.5 -21.5t-18.5 -35.5q-14 -18 -37 -28.5t-42 -13.5t-57 -7q-10 -1 -15 -2z" />
    <glyph glyph-name="I" unicode="&#xce;" horiz-adv-x="392" 
d="M462 714q-82 -103 -153 -265q-103 -234 -142 -366q27 -8 45.5 -9.5t45 9t55.5 36.5l-1 -12t-3 -26.5t-7.5 -33.5t-16.5 -33t-29.5 -25.5t-45.5 -11t-65 11.5q-4 1 -9.5 3t-10 4t-10.5 4t-11 4q-16 0 -30 9q-56 13 -103 -8q-1 4 -1.5 11t2.5 24t11 30.5t28 24t50 10.5v0
q20 120 87 287.5t160 285.5q-13 -5 -24 -11q-42 -21 -67 -43t-31 -39.5t-5.5 -32t5.5 -21.5l5 -8q0 1 -6 0t-15.5 0.5t-22 2t-25.5 4t-25 8t-21.5 12t-15 17t-4.5 23.5t9 31q11 23 31.5 42.5t47.5 33.5t56.5 25t63 18.5t62 12t59.5 7.5q104 89 212 76q9 -1 16.5 -4t14.5 -10
t3.5 -21.5t-18.5 -35.5q-14 -18 -37 -28.5t-42 -13.5t-57 -7q-10 -1 -15 -2z" />
    <glyph glyph-name="I" unicode="&#xcd;" horiz-adv-x="392" 
d="M462 714q-82 -103 -153 -265q-103 -234 -142 -366q27 -8 45.5 -9.5t45 9t55.5 36.5l-1 -12t-3 -26.5t-7.5 -33.5t-16.5 -33t-29.5 -25.5t-45.5 -11t-65 11.5q-4 1 -9.5 3t-10 4t-10.5 4t-11 4q-16 0 -30 9q-56 13 -103 -8q-1 4 -1.5 11t2.5 24t11 30.5t28 24t50 10.5v0
q20 120 87 287.5t160 285.5q-13 -5 -24 -11q-42 -21 -67 -43t-31 -39.5t-5.5 -32t5.5 -21.5l5 -8q0 1 -6 0t-15.5 0.5t-22 2t-25.5 4t-25 8t-21.5 12t-15 17t-4.5 23.5t9 31q11 23 31.5 42.5t47.5 33.5t56.5 25t63 18.5t62 12t59.5 7.5q104 89 212 76q9 -1 16.5 -4t14.5 -10
t3.5 -21.5t-18.5 -35.5q-14 -18 -37 -28.5t-42 -13.5t-57 -7q-10 -1 -15 -2z" />
    <glyph glyph-name="I" unicode="&#xcc;" horiz-adv-x="392" 
d="M462 714q-82 -103 -153 -265q-103 -234 -142 -366q27 -8 45.5 -9.5t45 9t55.5 36.5l-1 -12t-3 -26.5t-7.5 -33.5t-16.5 -33t-29.5 -25.5t-45.5 -11t-65 11.5q-4 1 -9.5 3t-10 4t-10.5 4t-11 4q-16 0 -30 9q-56 13 -103 -8q-1 4 -1.5 11t2.5 24t11 30.5t28 24t50 10.5v0
q20 120 87 287.5t160 285.5q-13 -5 -24 -11q-42 -21 -67 -43t-31 -39.5t-5.5 -32t5.5 -21.5l5 -8q0 1 -6 0t-15.5 0.5t-22 2t-25.5 4t-25 8t-21.5 12t-15 17t-4.5 23.5t9 31q11 23 31.5 42.5t47.5 33.5t56.5 25t63 18.5t62 12t59.5 7.5q104 89 212 76q9 -1 16.5 -4t14.5 -10
t3.5 -21.5t-18.5 -35.5q-14 -18 -37 -28.5t-42 -13.5t-57 -7q-10 -1 -15 -2z" />
    <glyph glyph-name="J" unicode="J" horiz-adv-x="294" 
d="M57 -16q-22 -21 -42.5 -32.5t-36 -13.5t-28.5 0.5t-22 8.5t-15.5 12.5t-9.5 11.5l-3 5q-1 2 -3 5.5t-5 15.5t-2.5 23.5t7 28t20 31.5t40.5 31.5t65 30.5q9 21 18 45q31 122 91 257.5t138 233.5q-13 -5 -24 -11q-42 -21 -67 -43t-30.5 -39.5t-5.5 -32t5 -21.5l6 -8
q0 1 -6 0t-16 0.5t-22.5 2t-25 4t-25 8t-21.5 12t-14.5 17t-5 23.5t8.5 31q16 34 52.5 60t84.5 41.5t91.5 24t91.5 13.5q104 89 212 76q9 -1 16.5 -4t14.5 -10t3.5 -21.5t-18.5 -35.5q-5 -6 -10.5 -11t-10.5 -9t-13.5 -7.5t-13 -6t-15 -4.5t-15 -3.5t-18 -3t-17 -2t-19 -2.5
t-19.5 -2q-81 -103 -153 -265q-8 -18 -15 -35q-4 -15 -10.5 -37t-28 -84.5t-43.5 -115t-54 -109t-62 -84.5z" />
    <glyph glyph-name="K" unicode="K" horiz-adv-x="518" 
d="M382 112q25 4 47.5 11.5t38.5 17t30 20t22.5 20t15 17.5t9.5 13l2 5q-4 -9 -11 -23.5t-31.5 -51t-50.5 -64.5t-66 -51t-81 -23q-31 0 -54 13.5t-36.5 35.5t-21 53.5t-9 63t0.5 68.5t5.5 66t8.5 59q-14 -15 -29 -30q-45 -108 -71.5 -186t-30.5 -102l-4 -24q-2 -2 -5 -4
t-13 -6.5t-20 -5.5t-24 2.5t-26 13.5q-7 5 -7.5 27t4.5 55.5t16 77.5t26.5 93t37.5 103.5t46.5 106t55.5 102.5t64 93q-12 -5 -24 -11q-42 -21 -67 -43t-30.5 -39.5t-5 -32t5.5 -21.5l5 -8q0 1 -6 0t-15.5 0.5t-22 2t-25.5 4t-25 8t-21.5 12t-15 17t-4.5 23.5t9 31
q13 27 40.5 49.5t59.5 37t73 26t75.5 17t71.5 9.5q104 89 212 76q9 -1 16.5 -4t14.5 -10t3.5 -21.5t-19.5 -35.5q-4 -6 -10 -11t-10.5 -9t-13 -7.5t-13 -6t-15.5 -4.5t-15 -3.5t-17.5 -3t-17 -2t-19.5 -2.5t-19 -2q-61 -77 -117 -188q25 23 51 42q32 24 63 35t54 10.5
t44.5 -7t35 -15.5l25.5 -17t15 -9q-82 21 -229 -97q-4 -24 -6.5 -50.5t-5.5 -73t-0.5 -85t9.5 -75.5t24 -56.5t43 -15.5z" />
    <glyph glyph-name="L" unicode="L" horiz-adv-x="615" 
d="M360 -24q-61 2 -123.5 6t-103 7t-75.5 5.5t-56.5 2t-31.5 -4.5v8t4.5 19t13.5 25.5t30 23t51 15.5q1 0 2 1q14 113 83 291.5t166 302.5q-12 -5 -23 -11q-43 -21 -67.5 -43t-30.5 -39.5t-5.5 -32t5.5 -21.5l5 -8q0 1 -6 0t-15.5 0.5t-22 2t-25.5 4t-25 8t-21.5 12t-15 17
t-4.5 23.5t9 31q16 34 52.5 60t84.5 41.5t91.5 24t91.5 13.5q104 89 212 76q9 -1 16.5 -4t14.5 -10t3.5 -21.5t-19.5 -35.5q-4 -6 -10 -11t-10.5 -9t-13 -7.5t-13 -6t-15.5 -4.5t-15 -3.5t-17.5 -3t-17 -2t-19.5 -2.5t-19 -2q-82 -103 -153 -265q-103 -233 -142 -365
q7 -1 21 -1q52 -3 80 -4t77.5 0.5t81.5 8t68 21t59 36.5v-11t-3 -26t-9 -34t-21 -36t-36 -32t-57 -23t-81 -7z" />
    <glyph glyph-name="M" unicode="M" horiz-adv-x="682" 
d="M822 672q-83 -97 -149 -218q-39 -72 -70.5 -144t-49 -123.5t-29 -92.5t-14.5 -62l-4 -20q-2 -2 -5 -4t-13 -6.5t-20 -5.5t-24 2.5t-26 13.5q-16 12 3.5 104t70.5 226t116 242q-203 -160 -314 -418l-8 -20l-27 -4q-62 0 -43 85q10 43 42 106q9 18 22 43t21.5 41t18.5 35.5
t15 32.5t8.5 25.5t2.5 20.5t-7 12q-15 13 -52 -23l-2 -2q-5 -5 -10 -11q-46 -51 -95 -158q-48 -114 -76.5 -196.5t-33.5 -107.5l-4 -25q-2 -2 -5 -4t-13 -6.5t-20 -5.5t-24 2.5t-26 13.5q-7 5 -7.5 27t4.5 55.5t16 77.5t26.5 93t37.5 103.5t46.5 106t55.5 102.5t64 93
q-12 -5 -24 -11q-42 -21 -67 -43t-30.5 -39.5t-5 -32t5.5 -21.5l5 -8q0 1 -6 0t-15.5 0.5t-22 2t-25.5 4t-25 8t-21.5 12t-15 17t-4.5 23.5t9 31q13 27 40.5 49.5t59.5 37t73 26t75.5 17t71.5 9.5q104 89 212 76q9 -1 16.5 -4t14.5 -10t3.5 -21.5t-19.5 -35.5q-4 -6 -10 -11
t-10.5 -9t-13 -7.5t-13 -6t-15.5 -4.5t-15 -3.5t-17.5 -3t-17 -2t-19.5 -2.5t-19 -2q-35 -44 -68 -98q24 21 44.5 31.5t28.5 11.5h9q53 5 71 -55q7 -24 -2 -61q122 153 257 189q3 0 7.5 -0.5t18 -3.5t26 -8.5t28 -18t26.5 -29.5z" />
    <glyph glyph-name="N" unicode="N" horiz-adv-x="570" 
d="M730 672q-84 -97 -149 -218q-39 -72 -71 -144t-49 -123.5t-28.5 -92.5t-15.5 -62l-3 -20q-2 -2 -5.5 -4t-13.5 -6.5t-19.5 -5.5t-23.5 2.5t-27 13.5q-15 12 3 99.5t66.5 216.5t109.5 237q-60 -47 -115.5 -99.5t-117.5 -121t-115.5 -153t-89.5 -171.5q-2 -2 -5 -4
t-13 -6.5t-20 -5.5t-24 2.5t-26 13.5q-7 5 -7.5 27t4.5 55.5t16 77.5t26.5 93t37.5 103.5t46.5 106t55.5 102.5t64 93q-12 -5 -24 -11q-42 -21 -67 -43t-30.5 -39.5t-5 -32t5.5 -21.5l5 -8q0 1 -6 0t-15.5 0.5t-22 2t-25.5 4t-25 8t-21.5 12t-15 17t-4.5 23.5t9 31
q11 23 31.5 42.5t47.5 33.5t56.5 25t63 18.5t62 12t59.5 7.5q104 89 212 76q9 -1 16.5 -4t14.5 -10t3.5 -21.5t-19.5 -35.5q-4 -6 -10 -11t-10.5 -9t-13 -7.5t-13 -6t-15.5 -4.5t-15 -3.5t-17.5 -3t-17 -2t-19.5 -2.5t-19 -2q-82 -103 -153 -265q-52 -116 -88 -210
q22 37 44.5 73t55 82t65 86.5t72.5 82.5t79.5 74.5t84.5 58t88 36.5q2 0 7 -0.5t18.5 -3.5t25.5 -8.5t27.5 -18t27.5 -29.5z" />
    <glyph glyph-name="N" unicode="&#xd1;" horiz-adv-x="570" 
d="M730 672q-84 -97 -149 -218q-39 -72 -71 -144t-49 -123.5t-28.5 -92.5t-15.5 -62l-3 -20q-2 -2 -5.5 -4t-13.5 -6.5t-19.5 -5.5t-23.5 2.5t-27 13.5q-15 12 3 99.5t66.5 216.5t109.5 237q-60 -47 -115.5 -99.5t-117.5 -121t-115.5 -153t-89.5 -171.5q-2 -2 -5 -4
t-13 -6.5t-20 -5.5t-24 2.5t-26 13.5q-7 5 -7.5 27t4.5 55.5t16 77.5t26.5 93t37.5 103.5t46.5 106t55.5 102.5t64 93q-12 -5 -24 -11q-42 -21 -67 -43t-30.5 -39.5t-5 -32t5.5 -21.5l5 -8q0 1 -6 0t-15.5 0.5t-22 2t-25.5 4t-25 8t-21.5 12t-15 17t-4.5 23.5t9 31
q11 23 31.5 42.5t47.5 33.5t56.5 25t63 18.5t62 12t59.5 7.5q104 89 212 76q9 -1 16.5 -4t14.5 -10t3.5 -21.5t-19.5 -35.5q-4 -6 -10 -11t-10.5 -9t-13 -7.5t-13 -6t-15.5 -4.5t-15 -3.5t-17.5 -3t-17 -2t-19.5 -2.5t-19 -2q-82 -103 -153 -265q-52 -116 -88 -210
q22 37 44.5 73t55 82t65 86.5t72.5 82.5t79.5 74.5t84.5 58t88 36.5q2 0 7 -0.5t18.5 -3.5t25.5 -8.5t27.5 -18t27.5 -29.5z" />
    <glyph glyph-name="O" unicode="O" horiz-adv-x="542" 
d="M186 33q-65 9 -97.5 58.5t-32 121t21 154.5t58 164t82.5 146q-10 -5 -21 -10q-42 -21 -67 -43t-30.5 -39.5t-5 -32t5.5 -21.5l5 -8q0 1 -6 0t-15.5 0.5t-22 2t-25.5 4t-25 8t-21.5 12t-15 17t-4.5 23.5t9 31q15 33 50 58.5t81 41t88.5 24.5t89.5 14q53 48 98 51
q71 3 118 -69q28 -6 42 -28q19 -30 23.5 -83t-6.5 -119t-47 -146t-93 -152q-19 -38 -41.5 -69t-52 -59.5t-66.5 -42t-77 -9.5zM421 287q4 6 9.5 15.5t21 39t28 57.5t25 65.5t18 69.5t1 63t-20.5 51q-35 41 -66 -7q-28 -46 -26 -114q3 -72 45 -79q7 -1 16 1q-1 -1 -13.5 -6
t-25.5 -9t-31 -8t-33.5 -2.5t-30.5 7.5t-24.5 23t-12.5 42q-35 -92 -45.5 -187t11.5 -109q42 -30 154 87z" />
    <glyph glyph-name="O" unicode="&#xd8;" horiz-adv-x="542" 
d="M186 33q-65 9 -97.5 58.5t-32 121t21 154.5t58 164t82.5 146q-10 -5 -21 -10q-42 -21 -67 -43t-30.5 -39.5t-5 -32t5.5 -21.5l5 -8q0 1 -6 0t-15.5 0.5t-22 2t-25.5 4t-25 8t-21.5 12t-15 17t-4.5 23.5t9 31q15 33 50 58.5t81 41t88.5 24.5t89.5 14q53 48 98 51
q71 3 118 -69q28 -6 42 -28q19 -30 23.5 -83t-6.5 -119t-47 -146t-93 -152q-19 -38 -41.5 -69t-52 -59.5t-66.5 -42t-77 -9.5zM421 287q4 6 9.5 15.5t21 39t28 57.5t25 65.5t18 69.5t1 63t-20.5 51q-35 41 -66 -7q-28 -46 -26 -114q3 -72 45 -79q7 -1 16 1q-1 -1 -13.5 -6
t-25.5 -9t-31 -8t-33.5 -2.5t-30.5 7.5t-24.5 23t-12.5 42q-35 -92 -45.5 -187t11.5 -109q42 -30 154 87z" />
    <glyph glyph-name="O" unicode="&#xd6;" horiz-adv-x="542" 
d="M186 33q-65 9 -97.5 58.5t-32 121t21 154.5t58 164t82.5 146q-10 -5 -21 -10q-42 -21 -67 -43t-30.5 -39.5t-5 -32t5.5 -21.5l5 -8q0 1 -6 0t-15.5 0.5t-22 2t-25.5 4t-25 8t-21.5 12t-15 17t-4.5 23.5t9 31q15 33 50 58.5t81 41t88.5 24.5t89.5 14q53 48 98 51
q71 3 118 -69q28 -6 42 -28q19 -30 23.5 -83t-6.5 -119t-47 -146t-93 -152q-19 -38 -41.5 -69t-52 -59.5t-66.5 -42t-77 -9.5zM421 287q4 6 9.5 15.5t21 39t28 57.5t25 65.5t18 69.5t1 63t-20.5 51q-35 41 -66 -7q-28 -46 -26 -114q3 -72 45 -79q7 -1 16 1q-1 -1 -13.5 -6
t-25.5 -9t-31 -8t-33.5 -2.5t-30.5 7.5t-24.5 23t-12.5 42q-35 -92 -45.5 -187t11.5 -109q42 -30 154 87z" />
    <glyph glyph-name="O" unicode="&#xd5;" horiz-adv-x="542" 
d="M186 33q-65 9 -97.5 58.5t-32 121t21 154.5t58 164t82.5 146q-10 -5 -21 -10q-42 -21 -67 -43t-30.5 -39.5t-5 -32t5.5 -21.5l5 -8q0 1 -6 0t-15.5 0.5t-22 2t-25.5 4t-25 8t-21.5 12t-15 17t-4.5 23.5t9 31q15 33 50 58.5t81 41t88.5 24.5t89.5 14q53 48 98 51
q71 3 118 -69q28 -6 42 -28q19 -30 23.5 -83t-6.5 -119t-47 -146t-93 -152q-19 -38 -41.5 -69t-52 -59.5t-66.5 -42t-77 -9.5zM421 287q4 6 9.5 15.5t21 39t28 57.5t25 65.5t18 69.5t1 63t-20.5 51q-35 41 -66 -7q-28 -46 -26 -114q3 -72 45 -79q7 -1 16 1q-1 -1 -13.5 -6
t-25.5 -9t-31 -8t-33.5 -2.5t-30.5 7.5t-24.5 23t-12.5 42q-35 -92 -45.5 -187t11.5 -109q42 -30 154 87z" />
    <glyph glyph-name="O" unicode="&#xd4;" horiz-adv-x="542" 
d="M186 33q-65 9 -97.5 58.5t-32 121t21 154.5t58 164t82.5 146q-10 -5 -21 -10q-42 -21 -67 -43t-30.5 -39.5t-5 -32t5.5 -21.5l5 -8q0 1 -6 0t-15.5 0.5t-22 2t-25.5 4t-25 8t-21.5 12t-15 17t-4.5 23.5t9 31q15 33 50 58.5t81 41t88.5 24.5t89.5 14q53 48 98 51
q71 3 118 -69q28 -6 42 -28q19 -30 23.5 -83t-6.5 -119t-47 -146t-93 -152q-19 -38 -41.5 -69t-52 -59.5t-66.5 -42t-77 -9.5zM421 287q4 6 9.5 15.5t21 39t28 57.5t25 65.5t18 69.5t1 63t-20.5 51q-35 41 -66 -7q-28 -46 -26 -114q3 -72 45 -79q7 -1 16 1q-1 -1 -13.5 -6
t-25.5 -9t-31 -8t-33.5 -2.5t-30.5 7.5t-24.5 23t-12.5 42q-35 -92 -45.5 -187t11.5 -109q42 -30 154 87z" />
    <glyph glyph-name="O" unicode="&#xd3;" horiz-adv-x="542" 
d="M186 33q-65 9 -97.5 58.5t-32 121t21 154.5t58 164t82.5 146q-10 -5 -21 -10q-42 -21 -67 -43t-30.5 -39.5t-5 -32t5.5 -21.5l5 -8q0 1 -6 0t-15.5 0.5t-22 2t-25.5 4t-25 8t-21.5 12t-15 17t-4.5 23.5t9 31q15 33 50 58.5t81 41t88.5 24.5t89.5 14q53 48 98 51
q71 3 118 -69q28 -6 42 -28q19 -30 23.5 -83t-6.5 -119t-47 -146t-93 -152q-19 -38 -41.5 -69t-52 -59.5t-66.5 -42t-77 -9.5zM421 287q4 6 9.5 15.5t21 39t28 57.5t25 65.5t18 69.5t1 63t-20.5 51q-35 41 -66 -7q-28 -46 -26 -114q3 -72 45 -79q7 -1 16 1q-1 -1 -13.5 -6
t-25.5 -9t-31 -8t-33.5 -2.5t-30.5 7.5t-24.5 23t-12.5 42q-35 -92 -45.5 -187t11.5 -109q42 -30 154 87z" />
    <glyph glyph-name="O" unicode="&#xd2;" horiz-adv-x="542" 
d="M186 33q-65 9 -97.5 58.5t-32 121t21 154.5t58 164t82.5 146q-10 -5 -21 -10q-42 -21 -67 -43t-30.5 -39.5t-5 -32t5.5 -21.5l5 -8q0 1 -6 0t-15.5 0.5t-22 2t-25.5 4t-25 8t-21.5 12t-15 17t-4.5 23.5t9 31q15 33 50 58.5t81 41t88.5 24.5t89.5 14q53 48 98 51
q71 3 118 -69q28 -6 42 -28q19 -30 23.5 -83t-6.5 -119t-47 -146t-93 -152q-19 -38 -41.5 -69t-52 -59.5t-66.5 -42t-77 -9.5zM421 287q4 6 9.5 15.5t21 39t28 57.5t25 65.5t18 69.5t1 63t-20.5 51q-35 41 -66 -7q-28 -46 -26 -114q3 -72 45 -79q7 -1 16 1q-1 -1 -13.5 -6
t-25.5 -9t-31 -8t-33.5 -2.5t-30.5 7.5t-24.5 23t-12.5 42q-35 -92 -45.5 -187t11.5 -109q42 -30 154 87z" />
    <glyph glyph-name="P" unicode="P" horiz-adv-x="513" 
d="M598 694q62 -21 40 -98q-23 -78 -110 -153q-115 -98 -239 -99q-54 0 -103 20q-51 -119 -81 -205.5t-34 -112.5l-5 -26q-2 -2 -5 -4t-13 -6.5t-20 -5.5t-24 2.5t-26 13.5q-7 5 -7.5 27t4.5 55.5t16 77.5t26.5 93t37.5 103.5t46.5 106t55.5 102.5t64 93q-12 -5 -24 -11
q-42 -21 -67 -43t-30.5 -39.5t-5 -32t5.5 -21.5l5 -8q0 1 -6 0t-15.5 0.5t-22 2t-25.5 4t-25 8t-21.5 12t-15 17t-4.5 23.5t9 31q13 27 40.5 49.5t59.5 37t73 26t75.5 17t71.5 9.5q104 89 212 76q9 -1 16.5 -4t14.5 -10t3.5 -21.5t-19.5 -35.5q-4 -6 -10 -11t-10.5 -9
t-13 -7.5t-13 -6t-15.5 -4.5t-15 -3.5t-17.5 -3t-17 -2t-19.5 -2.5t-19 -2q-48 -61 -93 -143q17 16 34.5 30.5t40 30.5t44.5 28.5t47.5 23t49.5 15.5t50 4t49 -9zM200 397q24 2 48 6t55 13t59 26t54.5 41t48 61t33.5 83q0 54 -79 2t-179 -141q-8 -19 -17 -39
q-12 -26 -23 -52z" />
    <glyph glyph-name="Q" unicode="Q" horiz-adv-x="644" 
d="M456 213q-45 -88 -100 -134q147 6 211 66v-11t-3 -26t-9 -34t-21 -36t-36 -32t-57 -23t-81 -7q-61 2 -123.5 6t-103 7t-75.5 5.5t-56.5 2t-31.5 -4.5v8t4.5 19t13.5 25.5t30 23t51 15.5q21 3 57 3q-44 64 -35 168.5t53 219t107 203.5q-11 -5 -21 -10q-42 -21 -67 -43
t-30.5 -39.5t-5 -32t5.5 -21.5l5 -8q0 1 -6 0t-15.5 0.5t-22 2t-25.5 4t-25 8t-21.5 12t-15 17t-5 23.5t8.5 31q16 33 51 58.5t81 41t88.5 24.5t89.5 14q53 48 98 51q71 3 118 -69q27 -6 42 -28q19 -30 23.5 -83t-6.5 -119t-47 -146t-93 -152zM454 287q3 6 9 15.5t21 39
t27.5 57.5t25.5 65.5t18 69.5t1 63t-21 51q-35 41 -65 -7q-29 -46 -26 -114q2 -72 44 -79q8 -1 17 1q-1 -1 -14 -6t-25.5 -9t-30.5 -8t-34 -2.5t-30.5 7.5t-24 23t-12.5 42q-35 -92 -45.5 -187t11.5 -109q42 -30 154 87z" />
    <glyph glyph-name="R" unicode="R" horiz-adv-x="573" 
d="M598 694q62 -21 39 -99t-110 -153q-114 -97 -239 -98q-7 0 -13 1q-5 -31 -3.5 -73t6.5 -79.5t25 -61t52 -19.5q25 4 47.5 11.5t38.5 17t30 20t22.5 20t15 17.5t9.5 13l2 5q-4 -9 -11 -23.5t-31.5 -51t-50.5 -64.5t-66 -51t-81 -23q-37 0 -62.5 17t-37.5 43t-17 62
t-3.5 69t7.5 70t10.5 58.5t10.5 41.5h-2q-23 -55 -42.5 -103.5t-31.5 -82.5t-21 -62.5t-13.5 -45.5t-7.5 -29t-4 -17v-4q-2 -2 -5 -4t-13 -6.5t-20 -5.5t-24 2.5t-26 13.5q-7 5 -7.5 27t4.5 55.5t16 77.5t26.5 93t37.5 103.5t46.5 106t55.5 102.5t64 93q-12 -5 -24 -11
q-42 -21 -67 -43t-30.5 -39.5t-5 -32t5.5 -21.5l5 -8q0 1 -6 0t-15.5 0.5t-22 2t-25.5 4t-25 8t-21.5 12t-15 17t-4.5 23.5t9 31q13 27 40.5 49.5t59.5 37t73 26t75.5 17t71.5 9.5q104 89 212 76q9 -1 16.5 -4t14.5 -10t3.5 -21.5t-19.5 -35.5q-13 -18 -36 -28.5t-42 -13.5
t-57 -7q-3 -1 -4.5 -1h-3.5t-4 -0.5t-3 -0.5q-48 -61 -93 -143q17 16 34.5 30.5t40 30.5t44.5 28.5t47.5 23t49.5 15.5t50 4t49 -9zM223 449q-12 -26 -23 -52q30 2 59 7.5t67 21t69.5 39t59.5 65.5t43 97q0 54 -79 2t-179 -141q-8 -19 -17 -39z" />
    <glyph glyph-name="S" unicode="S" horiz-adv-x="411" 
d="M186 4q-4 -2 -10 -4.5t-25 -7.5t-37 -8t-41 -3t-41 5.5t-34 20.5t-23 39q-9 34 -1.5 61.5t26.5 47.5t39 33t35 19l16 6l-16 -54q-26 -123 48 -121q17 0 39 8q24 25 30.5 59t-3.5 76.5t-24 82t-34 94.5t-30 95q-28 109 64 210q73 81 174 107q105 28 156 -27q17 -19 25 -46
q12 -43 11 -75t-12 -54.5t-27.5 -37.5t-35.5 -24t-35.5 -13t-27.5 -6l-10 -1q1 3 2 7.5t5 18t6.5 26.5t4.5 31t1 33t-5.5 30.5t-13 25.5t-23.5 16t-36 4q-25 -2 -41 -12.5t-21.5 -35t-7 -46t6 -65.5t13.5 -72t20 -86q21 -89 31 -137q10 -40 5 -71.5t-15 -54t-30 -39.5
t-39.5 -27t-43.5 -17z" />
    <glyph glyph-name="T" unicode="T" horiz-adv-x="270" 
d="M-24 12q-7 3 -6 26t6 54.5t17.5 76.5t28 92.5t37.5 101.5t45.5 104.5t53 102t60.5 93.5q-14 1 -38 2.5t-36 2.5t-31 2.5t-28.5 2t-23.5 1t-21.5 0t-17 -1t-15 -1.5t-10.5 -3v9.5t6 23.5t17 31t36.5 28t62.5 20q30 3 79.5 3t103.5 -5t116 -4t117 6t107.5 24t86.5 52v-14
t-3.5 -32t-11 -41t-26 -44.5t-44.5 -39.5t-69.5 -28t-99.5 -9q-55 2 -110 5q-79 -98 -133 -199q-39 -72 -71 -144t-49 -123.5t-28.5 -92.5t-15.5 -62l-3 -20q-2 -2 -5.5 -4t-13.5 -6.5t-19.5 -5.5t-23.5 2.5t-27 13.5z" />
    <glyph glyph-name="U" unicode="U" horiz-adv-x="599" 
d="M508 741q31 0 61 -19.5t45 -39.5l15 -19q-54 -73 -104 -156.5t-85 -158t-58.5 -140.5t-23.5 -103t20 -45q24 -6 54 14t56 53t49 66.5t36 57.5l13 24q-2 -8 -6 -22.5t-18 -56t-29 -78t-39 -79t-48.5 -70t-56 -40.5t-63.5 -1q-116 50 -95 235q-120 -139 -188 -114
q-17 -5 -31 4t-21 23t-12 33.5t-6 28t-2 13.5q-3 64 2.5 129.5t22 142.5t54 157t93.5 151q1 2 4.5 4.5t15 5.5t24.5 -0.5t34.5 -20.5t44.5 -48q-5 -5 -12.5 -15t-29 -44.5t-40.5 -73t-39.5 -98t-31.5 -122.5q-10 -51 -14 -103q-1 -54 22 -61q33 -11 109 113q22 38 49 88
q33 93 81.5 185t89 146t58.5 54z" />
    <glyph glyph-name="U" unicode="&#xdc;" horiz-adv-x="599" 
d="M508 741q31 0 61 -19.5t45 -39.5l15 -19q-54 -73 -104 -156.5t-85 -158t-58.5 -140.5t-23.5 -103t20 -45q24 -6 54 14t56 53t49 66.5t36 57.5l13 24q-2 -8 -6 -22.5t-18 -56t-29 -78t-39 -79t-48.5 -70t-56 -40.5t-63.5 -1q-116 50 -95 235q-120 -139 -188 -114
q-17 -5 -31 4t-21 23t-12 33.5t-6 28t-2 13.5q-3 64 2.5 129.5t22 142.5t54 157t93.5 151q1 2 4.5 4.5t15 5.5t24.5 -0.5t34.5 -20.5t44.5 -48q-5 -5 -12.5 -15t-29 -44.5t-40.5 -73t-39.5 -98t-31.5 -122.5q-10 -51 -14 -103q-1 -54 22 -61q33 -11 109 113q22 38 49 88
q33 93 81.5 185t89 146t58.5 54z" />
    <glyph glyph-name="U" unicode="&#xdb;" horiz-adv-x="599" 
d="M508 741q31 0 61 -19.5t45 -39.5l15 -19q-54 -73 -104 -156.5t-85 -158t-58.5 -140.5t-23.5 -103t20 -45q24 -6 54 14t56 53t49 66.5t36 57.5l13 24q-2 -8 -6 -22.5t-18 -56t-29 -78t-39 -79t-48.5 -70t-56 -40.5t-63.5 -1q-116 50 -95 235q-120 -139 -188 -114
q-17 -5 -31 4t-21 23t-12 33.5t-6 28t-2 13.5q-3 64 2.5 129.5t22 142.5t54 157t93.5 151q1 2 4.5 4.5t15 5.5t24.5 -0.5t34.5 -20.5t44.5 -48q-5 -5 -12.5 -15t-29 -44.5t-40.5 -73t-39.5 -98t-31.5 -122.5q-10 -51 -14 -103q-1 -54 22 -61q33 -11 109 113q22 38 49 88
q33 93 81.5 185t89 146t58.5 54z" />
    <glyph glyph-name="U" unicode="&#xda;" horiz-adv-x="599" 
d="M508 741q31 0 61 -19.5t45 -39.5l15 -19q-54 -73 -104 -156.5t-85 -158t-58.5 -140.5t-23.5 -103t20 -45q24 -6 54 14t56 53t49 66.5t36 57.5l13 24q-2 -8 -6 -22.5t-18 -56t-29 -78t-39 -79t-48.5 -70t-56 -40.5t-63.5 -1q-116 50 -95 235q-120 -139 -188 -114
q-17 -5 -31 4t-21 23t-12 33.5t-6 28t-2 13.5q-3 64 2.5 129.5t22 142.5t54 157t93.5 151q1 2 4.5 4.5t15 5.5t24.5 -0.5t34.5 -20.5t44.5 -48q-5 -5 -12.5 -15t-29 -44.5t-40.5 -73t-39.5 -98t-31.5 -122.5q-10 -51 -14 -103q-1 -54 22 -61q33 -11 109 113q22 38 49 88
q33 93 81.5 185t89 146t58.5 54z" />
    <glyph glyph-name="U" unicode="&#xd9;" horiz-adv-x="599" 
d="M508 741q31 0 61 -19.5t45 -39.5l15 -19q-54 -73 -104 -156.5t-85 -158t-58.5 -140.5t-23.5 -103t20 -45q24 -6 54 14t56 53t49 66.5t36 57.5l13 24q-2 -8 -6 -22.5t-18 -56t-29 -78t-39 -79t-48.5 -70t-56 -40.5t-63.5 -1q-116 50 -95 235q-120 -139 -188 -114
q-17 -5 -31 4t-21 23t-12 33.5t-6 28t-2 13.5q-3 64 2.5 129.5t22 142.5t54 157t93.5 151q1 2 4.5 4.5t15 5.5t24.5 -0.5t34.5 -20.5t44.5 -48q-5 -5 -12.5 -15t-29 -44.5t-40.5 -73t-39.5 -98t-31.5 -122.5q-10 -51 -14 -103q-1 -54 22 -61q33 -11 109 113q22 38 49 88
q33 93 81.5 185t89 146t58.5 54z" />
    <glyph glyph-name="V" unicode="V" horiz-adv-x="469" 
d="M266 672q-2 -2 -4.5 -5t-10.5 -14t-16 -23t-19.5 -31.5t-22 -40.5t-22.5 -48.5t-22.5 -56t-20 -63.5t-15.5 -71q-10 -51 -14 -103q1 -31 19 -31q53 1 212 295q33 70 69.5 131t65.5 95.5t43 34.5q19 0 38.5 -8t33.5 -19.5t25.5 -23t17.5 -19.5l6 -8l-289 -354
q-37 -55 -72 -100.5t-76.5 -88.5t-80.5 -62.5t-68 -8.5q-17 -5 -31 4t-21 23t-12 33.5t-6 28t-2 13.5q-3 64 2.5 129.5t22 142.5t54 157t93.5 151q1 2 4.5 4.5t15 5.5t24.5 -0.5t34.5 -20.5t44.5 -48z" />
    <glyph glyph-name="W" unicode="W" horiz-adv-x="732" 
d="M284 151q-2 39 -1 78q-69 -93 -131.5 -145t-108.5 -35q-17 -5 -31 4t-21 23t-12 33.5t-6 27.5t-2 14q-3 64 2.5 129.5t22 142.5t54 157t93.5 151q1 2 4.5 4.5t15 5.5t24.5 -0.5t34.5 -20.5t44.5 -48q-5 -5 -12.5 -15t-29 -44.5t-40.5 -73t-39.5 -98t-31.5 -122.5
q-10 -51 -14 -103q-1 -54 22 -61q35 -12 118 128q19 33 40 73q13 24 25 45q39 186 152 330q1 2 4.5 4.5t15 5.5t24.5 -0.5t34.5 -20.5t44.5 -48q-5 -5 -12.5 -15t-29 -44.5t-40.5 -73t-39.5 -98t-31.5 -122.5q-10 -51 -14 -103q1 -31 19 -31q53 1 212 295q33 70 69.5 131
t65.5 95.5t43 34.5q19 0 38.5 -8t33.5 -19.5t25.5 -23t17.5 -19.5l6 -8l-289 -354q-37 -55 -72 -100.5t-76.5 -88.5t-80.5 -62.5t-68 -8.5q-10 -5 -19 -2t-15.5 6.5t-12 13t-9 17t-6.5 18.5t-5 18t-3 15.5t-1.5 11t-0.5 4.5z" />
    <glyph glyph-name="X" unicode="X" horiz-adv-x="515" 
d="M326 133q25 -5 56.5 12.5t59 45.5t51.5 57t37 50l14 21q-2 -7 -6.5 -20t-19 -48.5t-30 -67t-40.5 -68t-51 -60.5t-59.5 -35t-66.5 -1q-112 39 -158 179q-93 -93 -132 -109q-33 -13 -60 -12t-48 12t-35 24t-21 24l-7 10q101 11 278 166q-4 41 -4 84t3.5 82t9.5 76t14.5 67
t18 52.5t19.5 34.5t19 12q15 0 30 -3.5t27 -9.5t23 -13.5t19.5 -14.5t14.5 -13t9 -10l3 -3q-61 -74 -66 -208q61 63 123.5 132.5t93.5 108.5l31 38l47 -62q-145 -178 -288 -336q12 -78 37.5 -133.5t53.5 -60.5z" />
    <glyph glyph-name="Y" unicode="Y" horiz-adv-x="342" 
d="M386 732h3.5t10 -1.5t15 -3.5t18 -6.5t20 -10.5t20 -16t19.5 -22q-84 -97 -149 -218q-39 -72 -71 -144t-49 -123.5t-28.5 -92.5t-15.5 -62l-3 -20q-2 -2 -5.5 -4t-13.5 -6.5t-19.5 -5.5t-23.5 2.5t-27 13.5q-17 13 8 121t78 237q-95 -94 -148 -77q-13 -4 -23.5 1.5
t-16 14.5t-9 21t-4.5 17t-1 8q-4 55 4 109t39 123.5t85 126.5q2 1 4.5 3t11 3.5t18 -0.5t26 -12.5t33.5 -29.5q-3 -4 -9 -10t-22 -27.5t-30 -45t-29.5 -60.5t-24.5 -75q-7 -32 -10 -65q-1 -36 19 -38q34 -3 116 125q45 70 72 97q55 93 112 153z" />
    <glyph glyph-name="Y" unicode="&#xdd;" horiz-adv-x="342" 
d="M386 732h3.5t10 -1.5t15 -3.5t18 -6.5t20 -10.5t20 -16t19.5 -22q-84 -97 -149 -218q-39 -72 -71 -144t-49 -123.5t-28.5 -92.5t-15.5 -62l-3 -20q-2 -2 -5.5 -4t-13.5 -6.5t-19.5 -5.5t-23.5 2.5t-27 13.5q-17 13 8 121t78 237q-95 -94 -148 -77q-13 -4 -23.5 1.5
t-16 14.5t-9 21t-4.5 17t-1 8q-4 55 4 109t39 123.5t85 126.5q2 1 4.5 3t11 3.5t18 -0.5t26 -12.5t33.5 -29.5q-3 -4 -9 -10t-22 -27.5t-30 -45t-29.5 -60.5t-24.5 -75q-7 -32 -10 -65q-1 -36 19 -38q34 -3 116 125q45 70 72 97q55 93 112 153z" />
    <glyph glyph-name="Z" unicode="Z" horiz-adv-x="512" 
d="M648 741l1.5 -8t1.5 -19.5t-2 -26t-10.5 -28.5t-22.5 -26.5t-40.5 -21.5t-62.5 -11q6 -6 11.5 -12t9 -10.5t6 -9t3.5 -6.5l1 -2q-42 -34 -103 -80.5t-107.5 -81t-99 -76.5t-89 -74.5t-65 -66.5t-39.5 -61q22 -1 69 -3t79.5 -3.5t79 0.5t80.5 8t69.5 20.5t58.5 36.5v-11
t-3 -25.5t-9 -33.5t-21 -36.5t-36 -32.5t-57 -23t-81 -7q-61 2 -123.5 6t-103 7t-75.5 5.5t-56.5 2t-31.5 -4.5q-2 19 10 39h-1q18 61 81 144t142 159t155 138.5t129 95.5q-48 2 -99 5.5t-82.5 6t-61 4.5t-47 1t-26.5 -5v8.5t4.5 19t13.5 25t30.5 23t50.5 16.5q35 5 77 0.5
t96.5 -8.5t105 -5.5t102.5 10t88 38.5z" />
    <glyph glyph-name="bracketleft" unicode="[" 
d="M299 717q20 1 39.5 -2.5t35 -10t30 -15t25.5 -18.5t20 -20t15.5 -19t11 -16t6.5 -11.5l2 -4.5q-99 82 -204 -31q-84 -91 -132 -253q-45 -152 -19 -231q5 -17 14 -28q19 -22 49 -27t50 1l21 7q0 -2 0.5 -4.5t1.5 -10.5t-0.5 -15.5t-4.5 -18t-10.5 -18t-19 -16t-30 -12
t-43.5 -6t-58 2.5q-122 18 -129 173q-6 142 79 327q76 165 167 239q45 36 83 38z" />
    <glyph glyph-name="backslash" unicode="\" horiz-adv-x="446" 
d="M41 941q8 0 21 -2t54 -17t81 -41q33 -232 68 -353q33 -114 86 -242t89 -199l36 -71q0 -1 -1 -2t-3.5 -4t-6.5 -5.5t-11.5 -3.5t-16 -0.5t-21.5 4.5t-28 11q-24 11 -84.5 128.5t-122 266t-105 302.5t-35.5 228z" />
    <glyph glyph-name="bracketright" unicode="]" horiz-adv-x="416" 
d="M351 717q68 -4 88 -115q24 -128 -25 -299q-57 -197 -169 -295q-66 -58 -141 -68q-137 -14 -134 44q1 26 26 54q2 -2 6.5 -3.5t18.5 -4t28.5 -2t36 7.5t41.5 21q69 50 123 195q57 153 45 268q-13 115 -96 114q-42 -1 -100 -34q5 5 14.5 13.5t38 29.5t57.5 36.5t68 27.5
t74 10z" />
    <glyph glyph-name="underscore" unicode="_" horiz-adv-x="584" 
d="M90 -28q43 3 115 3t140.5 -1.5t143.5 6.5t125 27q-1 0 -1 -7t-2.5 -16t-7.5 -20.5t-17 -22.5t-29.5 -20.5t-47.5 -15.5t-68 -5q-114 0 -234.5 5t-156.5 7t-80 -2q1 0 0 3t1.5 8t5.5 10.5t12 12t21 12t33 10t47 6.5zM614 7z" />
    <glyph glyph-name="a" unicode="a" horiz-adv-x="479" 
d="M361 160q16 -3 35.5 8t37 29t32.5 36t24 31l8 14q-1 -5 -4 -13t-12 -30.5t-19 -42t-25.5 -42.5t-32 -38t-37.5 -22.5t-42 -0.5q-43 15 -61.5 53.5t-13.5 88.5t19.5 99t38.5 97q-30 1 -59 -14.5t-51 -41t-41 -57.5t-30 -65t-17.5 -62t-5.5 -49t9 -25q12 -7 27.5 -1.5
t31.5 19.5t29 29t21 27l8 11q0 -4 -1.5 -10.5t-8 -25t-14.5 -35.5t-22.5 -37t-32 -33.5t-42.5 -21.5t-54 -5q-95 13 -85 129q8 105 87 228q69 108 135 136q16 7 30 8q62 2 106 -67q39 67 58 67q21 0 40.5 -11t29.5 -21l10 -11q-35 -39 -62 -84.5t-41.5 -86.5t-21 -75.5
t-1.5 -56.5t20 -25z" />
    <glyph glyph-name="a" unicode="&#xe5;" horiz-adv-x="479" 
d="M361 160q16 -3 35.5 8t37 29t32.5 36t24 31l8 14q-1 -5 -4 -13t-12 -30.5t-19 -42t-25.5 -42.5t-32 -38t-37.5 -22.5t-42 -0.5q-43 15 -61.5 53.5t-13.5 88.5t19.5 99t38.5 97q-30 1 -59 -14.5t-51 -41t-41 -57.5t-30 -65t-17.5 -62t-5.5 -49t9 -25q12 -7 27.5 -1.5
t31.5 19.5t29 29t21 27l8 11q0 -4 -1.5 -10.5t-8 -25t-14.5 -35.5t-22.5 -37t-32 -33.5t-42.5 -21.5t-54 -5q-95 13 -85 129q8 105 87 228q69 108 135 136q16 7 30 8q62 2 106 -67q39 67 58 67q21 0 40.5 -11t29.5 -21l10 -11q-35 -39 -62 -84.5t-41.5 -86.5t-21 -75.5
t-1.5 -56.5t20 -25z" />
    <glyph glyph-name="a" unicode="&#xe4;" horiz-adv-x="479" 
d="M361 160q16 -3 35.5 8t37 29t32.5 36t24 31l8 14q-1 -5 -4 -13t-12 -30.5t-19 -42t-25.5 -42.5t-32 -38t-37.5 -22.5t-42 -0.5q-43 15 -61.5 53.5t-13.5 88.5t19.5 99t38.5 97q-30 1 -59 -14.5t-51 -41t-41 -57.5t-30 -65t-17.5 -62t-5.5 -49t9 -25q12 -7 27.5 -1.5
t31.5 19.5t29 29t21 27l8 11q0 -4 -1.5 -10.5t-8 -25t-14.5 -35.5t-22.5 -37t-32 -33.5t-42.5 -21.5t-54 -5q-95 13 -85 129q8 105 87 228q69 108 135 136q16 7 30 8q62 2 106 -67q39 67 58 67q21 0 40.5 -11t29.5 -21l10 -11q-35 -39 -62 -84.5t-41.5 -86.5t-21 -75.5
t-1.5 -56.5t20 -25z" />
    <glyph glyph-name="a" unicode="&#xe3;" horiz-adv-x="479" 
d="M361 160q16 -3 35.5 8t37 29t32.5 36t24 31l8 14q-1 -5 -4 -13t-12 -30.5t-19 -42t-25.5 -42.5t-32 -38t-37.5 -22.5t-42 -0.5q-43 15 -61.5 53.5t-13.5 88.5t19.5 99t38.5 97q-30 1 -59 -14.5t-51 -41t-41 -57.5t-30 -65t-17.5 -62t-5.5 -49t9 -25q12 -7 27.5 -1.5
t31.5 19.5t29 29t21 27l8 11q0 -4 -1.5 -10.5t-8 -25t-14.5 -35.5t-22.5 -37t-32 -33.5t-42.5 -21.5t-54 -5q-95 13 -85 129q8 105 87 228q69 108 135 136q16 7 30 8q62 2 106 -67q39 67 58 67q21 0 40.5 -11t29.5 -21l10 -11q-35 -39 -62 -84.5t-41.5 -86.5t-21 -75.5
t-1.5 -56.5t20 -25z" />
    <glyph glyph-name="a" unicode="&#xe2;" horiz-adv-x="479" 
d="M361 160q16 -3 35.5 8t37 29t32.5 36t24 31l8 14q-1 -5 -4 -13t-12 -30.5t-19 -42t-25.5 -42.5t-32 -38t-37.5 -22.5t-42 -0.5q-43 15 -61.5 53.5t-13.5 88.5t19.5 99t38.5 97q-30 1 -59 -14.5t-51 -41t-41 -57.5t-30 -65t-17.5 -62t-5.5 -49t9 -25q12 -7 27.5 -1.5
t31.5 19.5t29 29t21 27l8 11q0 -4 -1.5 -10.5t-8 -25t-14.5 -35.5t-22.5 -37t-32 -33.5t-42.5 -21.5t-54 -5q-95 13 -85 129q8 105 87 228q69 108 135 136q16 7 30 8q62 2 106 -67q39 67 58 67q21 0 40.5 -11t29.5 -21l10 -11q-35 -39 -62 -84.5t-41.5 -86.5t-21 -75.5
t-1.5 -56.5t20 -25z" />
    <glyph glyph-name="a" unicode="&#xe1;" horiz-adv-x="479" 
d="M361 160q16 -3 35.5 8t37 29t32.5 36t24 31l8 14q-1 -5 -4 -13t-12 -30.5t-19 -42t-25.5 -42.5t-32 -38t-37.5 -22.5t-42 -0.5q-43 15 -61.5 53.5t-13.5 88.5t19.5 99t38.5 97q-30 1 -59 -14.5t-51 -41t-41 -57.5t-30 -65t-17.5 -62t-5.5 -49t9 -25q12 -7 27.5 -1.5
t31.5 19.5t29 29t21 27l8 11q0 -4 -1.5 -10.5t-8 -25t-14.5 -35.5t-22.5 -37t-32 -33.5t-42.5 -21.5t-54 -5q-95 13 -85 129q8 105 87 228q69 108 135 136q16 7 30 8q62 2 106 -67q39 67 58 67q21 0 40.5 -11t29.5 -21l10 -11q-35 -39 -62 -84.5t-41.5 -86.5t-21 -75.5
t-1.5 -56.5t20 -25z" />
    <glyph glyph-name="a" unicode="&#xe0;" horiz-adv-x="479" 
d="M361 160q16 -3 35.5 8t37 29t32.5 36t24 31l8 14q-1 -5 -4 -13t-12 -30.5t-19 -42t-25.5 -42.5t-32 -38t-37.5 -22.5t-42 -0.5q-43 15 -61.5 53.5t-13.5 88.5t19.5 99t38.5 97q-30 1 -59 -14.5t-51 -41t-41 -57.5t-30 -65t-17.5 -62t-5.5 -49t9 -25q12 -7 27.5 -1.5
t31.5 19.5t29 29t21 27l8 11q0 -4 -1.5 -10.5t-8 -25t-14.5 -35.5t-22.5 -37t-32 -33.5t-42.5 -21.5t-54 -5q-95 13 -85 129q8 105 87 228q69 108 135 136q16 7 30 8q62 2 106 -67q39 67 58 67q21 0 40.5 -11t29.5 -21l10 -11q-35 -39 -62 -84.5t-41.5 -86.5t-21 -75.5
t-1.5 -56.5t20 -25z" />
    <glyph glyph-name="b" unicode="b" horiz-adv-x="439" 
d="M358 531q50 0 51 -90q0 -105 -59 -229q-66 -140 -155 -177q-18 -7 -35 -10q-36 -4 -52.5 16t-14 51t9.5 63t17 55l9 23l6 -48q15 -70 51 -51q27 14 61 93q46 110 27 166q-16 45 -76 30q-31 -62 -56 -124t-39 -105.5t-23 -78.5t-12 -52l-3 -18q-2 -1 -5.5 -3t-13.5 -6.5
t-19.5 -5.5t-23.5 2.5t-27 12.5q-8 5 -6 31.5t9 65t23 90.5t35 107t46 115.5t56 115t64.5 106.5t71.5 90h3.5t10 -1.5t15 -3.5t18 -6.5t20 -10.5t20 -16t18.5 -22q-83 -97 -148 -218q-5 -8 -9 -16q64 59 135 59z" />
    <glyph glyph-name="c" unicode="c" horiz-adv-x="358" 
d="M185 121q23 0 51 16t50 39t41.5 46t29.5 39l11 17q-2 -6 -5.5 -15.5t-15.5 -36t-25.5 -50.5t-35.5 -53.5t-45.5 -49.5t-55.5 -33t-65.5 -10.5t-59.5 13.5t-41.5 27t-26.5 34t-15 36t-6 32.5t-1 24.5v9h1q-1 60 38.5 135.5t103 130t122.5 54.5q36 0 57.5 -23.5t31.5 -53.5
q4 -5 5 -15v-2q2 -22 -5 -48t-24 -46.5t-44 -22t-64 25.5q2 1 4.5 1.5t11 4t16 8t17 11.5t16 16t11.5 21t6 26q-2 26 -24 24q-3 0 -6 -1q-41 -8 -79 -48t-58.5 -84.5t-22.5 -76.5q0 -20 4.5 -39.5t15 -39t31.5 -31.5t50 -12z" />
    <glyph glyph-name="c" unicode="&#xe7;" horiz-adv-x="358" 
d="M185 121q23 0 51 16t50 39t41.5 46t29.5 39l11 17q-2 -6 -5.5 -15.5t-15.5 -36t-25.5 -50.5t-35.5 -53.5t-45.5 -49.5t-55.5 -33t-65.5 -10.5t-59.5 13.5t-41.5 27t-26.5 34t-15 36t-6 32.5t-1 24.5v9h1q-1 60 38.5 135.5t103 130t122.5 54.5q36 0 57.5 -23.5t31.5 -53.5
q4 -5 5 -15v-2q2 -22 -5 -48t-24 -46.5t-44 -22t-64 25.5q2 1 4.5 1.5t11 4t16 8t17 11.5t16 16t11.5 21t6 26q-2 26 -24 24q-3 0 -6 -1q-41 -8 -79 -48t-58.5 -84.5t-22.5 -76.5q0 -20 4.5 -39.5t15 -39t31.5 -31.5t50 -12z" />
    <glyph glyph-name="d" unicode="d" horiz-adv-x="521" 
d="M354 70q18 10 61 62t77 99l34 47q-3 -7 -6.5 -17.5t-16.5 -41.5t-28 -59t-38 -62.5t-47.5 -59t-57 -41.5t-66.5 -17q-18 0 -29.5 11t-14 29t-1.5 39.5t5.5 43t9.5 39.5t9 29l3 11q29 114 82 242q-33 7 -64.5 -4.5t-55.5 -36.5t-45 -57.5t-33.5 -67.5t-20 -65.5t-7 -52.5
t9.5 -27q12 -7 27.5 -1.5t31.5 19.5t29 29t21 27l8 11q0 -4 -1.5 -10.5t-8 -25t-14.5 -35.5t-22.5 -37t-32 -33.5t-42.5 -21.5t-54 -5q-95 13 -85 129q8 105 87 228q69 108 135 136q16 7 30 8q71 3 116 -86q92 211 196 321q3 0 7.5 -0.5t18 -3.5t26 -9t28 -18t26.5 -29
q-83 -97 -149 -218q-84 -154 -132 -306q-12 -36 -21 -70q-5 -22 -2 -35.5t17 -6.5z" />
    <glyph glyph-name="e" unicode="e" horiz-adv-x="358" 
d="M185 121q23 0 51 16t50 39t41.5 46t29.5 39l11 17q-1 -4 -3 -9.5t-9.5 -23.5t-15.5 -35t-21.5 -40t-28 -42.5t-34 -39t-39.5 -32.5t-45.5 -20.5t-51.5 -5.5q-34 2 -60 13t-41.5 27t-26.5 34t-15 36t-6 32.5t-1 24.5v9h1q-1 60 38.5 135.5t103 130t122.5 54.5
q36 0 57.5 -23.5t31.5 -53.5q2 -2 3 -7l2 -10l-2 1q-1 -18 -11 -43t-31 -53t-48.5 -50t-67.5 -33t-84 -3q-1 -4 -1 -8q0 -20 4.5 -39.5t15 -39t31.5 -31.5t50 -12zM244 452q-51 -10 -93.5 -63t-59.5 -109q29 15 55 31t56 37.5t49 45t21 45.5q-5 15 -22 14q-3 0 -6 -1z" />
    <glyph glyph-name="e" unicode="&#xeb;" horiz-adv-x="358" 
d="M185 121q23 0 51 16t50 39t41.5 46t29.5 39l11 17q-1 -4 -3 -9.5t-9.5 -23.5t-15.5 -35t-21.5 -40t-28 -42.5t-34 -39t-39.5 -32.5t-45.5 -20.5t-51.5 -5.5q-34 2 -60 13t-41.5 27t-26.5 34t-15 36t-6 32.5t-1 24.5v9h1q-1 60 38.5 135.5t103 130t122.5 54.5
q36 0 57.5 -23.5t31.5 -53.5q2 -2 3 -7l2 -10l-2 1q-1 -18 -11 -43t-31 -53t-48.5 -50t-67.5 -33t-84 -3q-1 -4 -1 -8q0 -20 4.5 -39.5t15 -39t31.5 -31.5t50 -12zM244 452q-51 -10 -93.5 -63t-59.5 -109q29 15 55 31t56 37.5t49 45t21 45.5q-5 15 -22 14q-3 0 -6 -1z" />
    <glyph glyph-name="e" unicode="&#xea;" horiz-adv-x="358" 
d="M185 121q23 0 51 16t50 39t41.5 46t29.5 39l11 17q-1 -4 -3 -9.5t-9.5 -23.5t-15.5 -35t-21.5 -40t-28 -42.5t-34 -39t-39.5 -32.5t-45.5 -20.5t-51.5 -5.5q-34 2 -60 13t-41.5 27t-26.5 34t-15 36t-6 32.5t-1 24.5v9h1q-1 60 38.5 135.5t103 130t122.5 54.5
q36 0 57.5 -23.5t31.5 -53.5q2 -2 3 -7l2 -10l-2 1q-1 -18 -11 -43t-31 -53t-48.5 -50t-67.5 -33t-84 -3q-1 -4 -1 -8q0 -20 4.5 -39.5t15 -39t31.5 -31.5t50 -12zM244 452q-51 -10 -93.5 -63t-59.5 -109q29 15 55 31t56 37.5t49 45t21 45.5q-5 15 -22 14q-3 0 -6 -1z" />
    <glyph glyph-name="e" unicode="&#xe9;" horiz-adv-x="358" 
d="M185 121q23 0 51 16t50 39t41.5 46t29.5 39l11 17q-1 -4 -3 -9.5t-9.5 -23.5t-15.5 -35t-21.5 -40t-28 -42.5t-34 -39t-39.5 -32.5t-45.5 -20.5t-51.5 -5.5q-34 2 -60 13t-41.5 27t-26.5 34t-15 36t-6 32.5t-1 24.5v9h1q-1 60 38.5 135.5t103 130t122.5 54.5
q36 0 57.5 -23.5t31.5 -53.5q2 -2 3 -7l2 -10l-2 1q-1 -18 -11 -43t-31 -53t-48.5 -50t-67.5 -33t-84 -3q-1 -4 -1 -8q0 -20 4.5 -39.5t15 -39t31.5 -31.5t50 -12zM244 452q-51 -10 -93.5 -63t-59.5 -109q29 15 55 31t56 37.5t49 45t21 45.5q-5 15 -22 14q-3 0 -6 -1z" />
    <glyph glyph-name="e" unicode="&#xe8;" horiz-adv-x="358" 
d="M185 121q23 0 51 16t50 39t41.5 46t29.5 39l11 17q-1 -4 -3 -9.5t-9.5 -23.5t-15.5 -35t-21.5 -40t-28 -42.5t-34 -39t-39.5 -32.5t-45.5 -20.5t-51.5 -5.5q-34 2 -60 13t-41.5 27t-26.5 34t-15 36t-6 32.5t-1 24.5v9h1q-1 60 38.5 135.5t103 130t122.5 54.5
q36 0 57.5 -23.5t31.5 -53.5q2 -2 3 -7l2 -10l-2 1q-1 -18 -11 -43t-31 -53t-48.5 -50t-67.5 -33t-84 -3q-1 -4 -1 -8q0 -20 4.5 -39.5t15 -39t31.5 -31.5t50 -12zM244 452q-51 -10 -93.5 -63t-59.5 -109q29 15 55 31t56 37.5t49 45t21 45.5q-5 15 -22 14q-3 0 -6 -1z" />
    <glyph glyph-name="f" unicode="f" horiz-adv-x="261" 
d="M132 160q16 -3 36 8t37 29t32 36t24 31l9 14q-2 -5 -4.5 -13t-12 -30.5t-19.5 -42t-25.5 -42.5t-31.5 -38t-37 -22.5t-42 -0.5q-22 8 -38 21q9 -25 15 -49t10.5 -52.5t3.5 -54t-7 -50t-21.5 -44.5t-38.5 -34q-19 -11 -36 -17t-30 -7t-24 0.5t-19 5.5t-14.5 9.5t-10.5 11
t-7 10.5t-4 8l-1 3q-8 4 -6 31t9 65t23 90t35 107t46 115.5t56 115.5t64.5 107t71.5 89h7t18 -3.5t25.5 -9t28 -18t26.5 -28.5q-83 -98 -148 -219q-6 -11 -13 -22q-11 -45 -7.5 -75.5t20.5 -34.5z" />
    <glyph glyph-name="g" unicode="g" horiz-adv-x="473" 
d="M310 74q20 14 62 65t73 95l32 44q-2 -5 -5 -13.5t-13 -33.5t-21.5 -48.5t-29.5 -54t-37 -55.5t-44.5 -47t-51.5 -34q-43 -85 -93 -132q-30 -28 -57.5 -39t-44.5 -7t-30 12.5t-19 17.5l-5 9q-1 2 -3 5.5t-5 15.5t-2.5 23.5t7 28t20 31.5t40 31.5t64.5 30.5q11 25 22 52
q-47 -48 -113 -41q-95 13 -85 129q8 105 87 228q69 108 135 136q16 7 30 8q69 3 114 -82q32 50 65 84q2 0 6 -1t16.5 -5.5t24 -11.5t27 -20.5t27.5 -31.5q-8 -8 -21 -24.5t-50.5 -82t-71.5 -147.5q-11 -25 -25 -58q-11 -39 -25 -77zM205 164q58 160 118 261q-32 5 -63 -8
t-54 -38t-43 -57.5t-32.5 -67t-19.5 -64t-6.5 -51t9.5 -26.5q30 -20 91 51z" />
    <glyph glyph-name="h" unicode="h" horiz-adv-x="492" 
d="M319 70q19 10 62 62t77 99l33 47q-2 -7 -5.5 -17.5t-17 -41.5t-28 -59t-37.5 -62.5t-47.5 -59t-57 -41.5t-66.5 -17q-26 0 -37 18t-9 43.5t7.5 51t12.5 42.5l7 18q15 43 42.5 95t39 79t0.5 36q-16 13 -55 -25l-203 -281l-2 -12q-2 -1 -5.5 -3t-13.5 -6.5t-19.5 -5.5
t-23.5 2.5t-27 12.5q-8 5 -6 31.5t9 65t23 90.5t35 107t46 115.5t56 115t64.5 106.5t71.5 90q2 0 7 -0.5t18 -3.5t25.5 -9t28 -18t26.5 -29q-83 -97 -148 -218q-90 -165 -138 -325q29 53 58 97.5t52 75.5t45 55.5t38.5 39t31 25t25 15t17.5 6.5t11 2h3q53 5 71 -55
q10 -32 -8 -82.5t-50 -112t-40 -84.5q-3 -9 -6 -13q-24 -71 1 -64z" />
    <glyph glyph-name="i" unicode="i" horiz-adv-x="212" 
d="M80 160q12 -2 25.5 3.5t26.5 15.5t26 23t23.5 26t19 24t12.5 19l5 7q-2 -5 -4.5 -13t-11.5 -30.5t-19 -42t-26 -42.5t-32 -38t-37 -22.5t-42 -0.5q-44 15 -62.5 55t-13.5 88.5t21 101.5t39 96.5t44.5 72t32.5 28.5q20 0 40 -11t30 -21l9 -11q-34 -39 -61.5 -84.5
t-42 -86.5t-20.5 -75.5t-1 -56.5t19 -25zM228 735q6 1 14.5 1.5t30.5 -7.5t39 -27l-5 -5.5t-13.5 -13.5t-19 -19t-22 -23t-21 -24.5t-17.5 -24.5t-11 -22q0 1 -12 1.5t-30.5 5.5t-30.5 16z" />
    <glyph glyph-name="i" unicode="&#xef;" horiz-adv-x="212" 
d="M80 160q12 -2 25.5 3.5t26.5 15.5t26 23t23.5 26t19 24t12.5 19l5 7q-2 -5 -4.5 -13t-11.5 -30.5t-19 -42t-26 -42.5t-32 -38t-37 -22.5t-42 -0.5q-44 15 -62.5 55t-13.5 88.5t21 101.5t39 96.5t44.5 72t32.5 28.5q20 0 40 -11t30 -21l9 -11q-34 -39 -61.5 -84.5
t-42 -86.5t-20.5 -75.5t-1 -56.5t19 -25zM228 735q6 1 14.5 1.5t30.5 -7.5t39 -27l-5 -5.5t-13.5 -13.5t-19 -19t-22 -23t-21 -24.5t-17.5 -24.5t-11 -22q0 1 -12 1.5t-30.5 5.5t-30.5 16z" />
    <glyph glyph-name="i" unicode="&#xee;" horiz-adv-x="212" 
d="M80 160q12 -2 25.5 3.5t26.5 15.5t26 23t23.5 26t19 24t12.5 19l5 7q-2 -5 -4.5 -13t-11.5 -30.5t-19 -42t-26 -42.5t-32 -38t-37 -22.5t-42 -0.5q-44 15 -62.5 55t-13.5 88.5t21 101.5t39 96.5t44.5 72t32.5 28.5q20 0 40 -11t30 -21l9 -11q-34 -39 -61.5 -84.5
t-42 -86.5t-20.5 -75.5t-1 -56.5t19 -25zM228 735q6 1 14.5 1.5t30.5 -7.5t39 -27l-5 -5.5t-13.5 -13.5t-19 -19t-22 -23t-21 -24.5t-17.5 -24.5t-11 -22q0 1 -12 1.5t-30.5 5.5t-30.5 16z" />
    <glyph glyph-name="i" unicode="&#xed;" horiz-adv-x="212" 
d="M80 160q12 -2 25.5 3.5t26.5 15.5t26 23t23.5 26t19 24t12.5 19l5 7q-2 -5 -4.5 -13t-11.5 -30.5t-19 -42t-26 -42.5t-32 -38t-37 -22.5t-42 -0.5q-44 15 -62.5 55t-13.5 88.5t21 101.5t39 96.5t44.5 72t32.5 28.5q20 0 40 -11t30 -21l9 -11q-34 -39 -61.5 -84.5
t-42 -86.5t-20.5 -75.5t-1 -56.5t19 -25zM228 735q6 1 14.5 1.5t30.5 -7.5t39 -27l-5 -5.5t-13.5 -13.5t-19 -19t-22 -23t-21 -24.5t-17.5 -24.5t-11 -22q0 1 -12 1.5t-30.5 5.5t-30.5 16z" />
    <glyph glyph-name="i" unicode="&#xec;" horiz-adv-x="212" 
d="M80 160q12 -2 25.5 3.5t26.5 15.5t26 23t23.5 26t19 24t12.5 19l5 7q-2 -5 -4.5 -13t-11.5 -30.5t-19 -42t-26 -42.5t-32 -38t-37 -22.5t-42 -0.5q-44 15 -62.5 55t-13.5 88.5t21 101.5t39 96.5t44.5 72t32.5 28.5q20 0 40 -11t30 -21l9 -11q-34 -39 -61.5 -84.5
t-42 -86.5t-20.5 -75.5t-1 -56.5t19 -25zM228 735q6 1 14.5 1.5t30.5 -7.5t39 -27l-5 -5.5t-13.5 -13.5t-19 -19t-22 -23t-21 -24.5t-17.5 -24.5t-11 -22q0 1 -12 1.5t-30.5 5.5t-30.5 16z" />
    <glyph glyph-name="j" unicode="j" horiz-adv-x="200" 
d="M94 209q-10 -25 -24 -58q-11 -39 -26 -77q21 14 62.5 65t73.5 95l31 44q-3 -10 -8.5 -25.5t-25.5 -58t-41.5 -78t-56 -72t-70.5 -52.5q-42 -85 -92 -132q-30 -28 -57.5 -39t-45 -7t-30 12.5t-18.5 17.5l-6 9q-1 2 -3 5.5t-5 15.5t-2.5 23.5t7 28t20 31.5t40.5 31.5
t64 30.5q22 50 41 104q2 6 4 13l7 17h3q97 271 200 380q3 0 7 -1t16 -5.5t24 -11.5t27 -20.5t27 -31.5q-7 -8 -20 -24.5t-51 -82t-72 -147.5zM256 735q2 0 5.5 0.5t13.5 0t19.5 -3t22 -10.5t23.5 -20l-5.5 -5.5t-14 -13.5t-18.5 -19t-21.5 -23t-21 -24.5t-17.5 -24.5
t-11 -22q0 1 -12 1.5t-30.5 5.5t-31.5 16z" />
    <glyph glyph-name="k" unicode="k" horiz-adv-x="492" 
d="M349 70q19 10 62 62t77 99l33 47q-2 -7 -5.5 -17.5t-17 -41.5t-28 -59t-37.5 -62.5t-47.5 -59t-57 -41.5t-66.5 -17q-24 0 -40.5 16.5t-21 40t-7 49t1.5 43.5q0 28 4.5 53.5t10.5 42.5t11.5 30t9.5 19l4 6q-4 1 45 50q101 99 84 124q-5 6 -16 9q-23 4 -56 -20.5
t-63 -60.5t-58.5 -76t-43.5 -64t-17 -28q-16 -46 -27.5 -88.5t-14.5 -61.5l-3 -19q-1 0 -3 -1.5t-7.5 -4.5t-11 -5t-14 -3.5t-16.5 -1t-18 4.5t-19 11q-8 5 -6 31.5t9 65t23 90.5t35 107t46 115.5t56 115t64.5 106.5t71.5 90q2 0 7 -0.5t18 -3.5t25.5 -9t28 -18t26.5 -29
q-83 -97 -148 -218q-27 -49 -50 -98q90 161 198 136q55 -12 73.5 -40t4 -60.5t-45.5 -64t-71 -53.5q-17 -27 -26.5 -66t-10.5 -64l-1 -25l6 -43q12 -55 40 -40z" />
    <glyph glyph-name="l" unicode="l" horiz-adv-x="281" 
d="M103 70q19 10 62 62t77 99l33 47q-2 -7 -5.5 -17.5t-17 -41.5t-28 -59t-38 -62.5t-48 -59t-56.5 -41.5t-66 -17q-19 0 -30 11t-14 29t-2 39.5t6 43t9.5 39.5t8.5 29l4 11q37 145 115 315t172 269h3.5t10 -1.5t15 -3.5t18 -6.5t20.5 -10.5t20 -16t19 -22
q-84 -97 -149 -218q-106 -194 -153 -376q-5 -22 -2 -35.5t16 -6.5z" />
    <glyph glyph-name="m" unicode="m" horiz-adv-x="642" 
d="M490 70q19 10 61.5 62t76.5 99l34 47q-2 -7 -6 -17.5t-17 -41.5t-28 -59t-38 -62.5t-47.5 -59t-57 -41.5t-66.5 -17q-25 0 -36.5 18t-9.5 43.5t8 51t13 42.5l7 18q14 43 41.5 95t39 79t0.5 36q-16 13 -52 -23q-2 -1 -2 -2h-1q-5 -5 -10 -11q-14 -15 -30 -38t-31 -46.5
t-29.5 -48.5t-26 -47t-20.5 -39.5t-14 -27.5l-5 -10q-2 0 -5 -0.5t-11 -1.5t-16 -1t-18 1.5t-18.5 5t-15.5 10t-10.5 15.5t-3 23t6.5 31q15 43 42.5 95t39 79t0.5 36q-16 13 -53 -23l-2 -2q-5 -5 -10 -11q-59 -66 -116 -206q-2 -6 -5 -11v0q-1 -4 -3 -7q-22 -18 -69 -2
q-6 1 -7 2q-3 53 10 124t49.5 155.5t90.5 141.5q2 1 4 3t11 4t18.5 -0.5t25.5 -13t34 -29.5q-61 -70 -105 -161q32 45 62.5 77t50.5 46t35 21.5t22 7.5h7q53 5 71 -55q9 -31 -9 -85q31 41 60 71t47.5 42.5t33 19.5t21.5 7h6h1q53 5 70 -55q10 -32 -8 -82.5t-50 -112
t-40 -84.5q-3 -9 -6 -13q-24 -71 1 -64q3 1 7 2z" />
    <glyph glyph-name="n" unicode="n" horiz-adv-x="450" 
d="M288 70q19 10 62 62t76 99l34 47q-2 -7 -6 -17.5t-17 -41.5t-27.5 -59t-38 -62.5t-48 -59t-57 -41.5t-65.5 -17q-26 0 -37.5 18t-9.5 43.5t8 51t13 42.5l7 18q15 43 42 95t38.5 79t0.5 36q-16 13 -52 -23q-2 -1 -2 -2q-6 -6 -12 -12.5t-11 -12.5t-8.5 -10.5t-5.5 -7.5
l-2 -3l3 5q-59 -74 -125 -190l-2 -4q-21 -6 -40 -5.5t-27 2.5t-9 3q-3 53 10 124t49.5 155.5t90.5 141.5q2 1 4 3t11 4t18.5 -0.5t25.5 -13t34 -29.5q-5 -5 -12.5 -14t-28 -38t-38 -58t-36 -70t-27.5 -79q45 73 86.5 126t68.5 75.5t48 35t30 13.5h9h1q53 5 71 -55
q9 -32 -9 -82.5t-50 -112t-40 -84.5q-3 -9 -6 -13q-23 -71 1 -64z" />
    <glyph glyph-name="n" unicode="&#xf1;" horiz-adv-x="450" 
d="M288 70q19 10 62 62t76 99l34 47q-2 -7 -6 -17.5t-17 -41.5t-27.5 -59t-38 -62.5t-48 -59t-57 -41.5t-65.5 -17q-26 0 -37.5 18t-9.5 43.5t8 51t13 42.5l7 18q15 43 42 95t38.5 79t0.5 36q-16 13 -52 -23q-2 -1 -2 -2q-6 -6 -12 -12.5t-11 -12.5t-8.5 -10.5t-5.5 -7.5
l-2 -3l3 5q-59 -74 -125 -190l-2 -4q-21 -6 -40 -5.5t-27 2.5t-9 3q-3 53 10 124t49.5 155.5t90.5 141.5q2 1 4 3t11 4t18.5 -0.5t25.5 -13t34 -29.5q-5 -5 -12.5 -14t-28 -38t-38 -58t-36 -70t-27.5 -79q45 73 86.5 126t68.5 75.5t48 35t30 13.5h9h1q53 5 71 -55
q9 -32 -9 -82.5t-50 -112t-40 -84.5q-3 -9 -6 -13q-23 -71 1 -64z" />
    <glyph glyph-name="o" unicode="o" horiz-adv-x="371" 
d="M318 303q70 33 163 160q-1 -4 -3 -11t-10 -28.5t-17.5 -41.5t-25.5 -44.5t-34.5 -43.5t-44.5 -34.5t-55 -20.5q-25 -48 -63 -92q-71 -126 -167 -116q-95 13 -91 129q3 106 75 228q64 108 128 135q16 7 29 8q51 2 83 -45q20 -4 30 -18q16 -23 17.5 -66t-14.5 -99zM227 195
q12 17 26 42q-36 0 -60 10.5t-34 26.5t-13.5 28.5t-3.5 24.5q-25 -59 -32 -119t8 -69q30 -19 109 55v1zM280 292q39 97 5 134q-27 29 -45 -9q-18 -40 -7 -85q7 -30 26 -38q10 -2 20 -2h1z" />
    <glyph glyph-name="o" unicode="&#xf8;" horiz-adv-x="371" 
d="M318 303q70 33 163 160q-1 -4 -3 -11t-10 -28.5t-17.5 -41.5t-25.5 -44.5t-34.5 -43.5t-44.5 -34.5t-55 -20.5q-25 -48 -63 -92q-71 -126 -167 -116q-95 13 -91 129q3 106 75 228q64 108 128 135q16 7 29 8q51 2 83 -45q20 -4 30 -18q16 -23 17.5 -66t-14.5 -99zM227 195
q12 17 26 42q-36 0 -60 10.5t-34 26.5t-13.5 28.5t-3.5 24.5q-25 -59 -32 -119t8 -69q30 -19 109 55v1zM280 292q39 97 5 134q-27 29 -45 -9q-18 -40 -7 -85q7 -30 26 -38q10 -2 20 -2h1z" />
    <glyph glyph-name="o" unicode="&#xf6;" horiz-adv-x="371" 
d="M318 303q70 33 163 160q-1 -4 -3 -11t-10 -28.5t-17.5 -41.5t-25.5 -44.5t-34.5 -43.5t-44.5 -34.5t-55 -20.5q-25 -48 -63 -92q-71 -126 -167 -116q-95 13 -91 129q3 106 75 228q64 108 128 135q16 7 29 8q51 2 83 -45q20 -4 30 -18q16 -23 17.5 -66t-14.5 -99zM227 195
q12 17 26 42q-36 0 -60 10.5t-34 26.5t-13.5 28.5t-3.5 24.5q-25 -59 -32 -119t8 -69q30 -19 109 55v1zM280 292q39 97 5 134q-27 29 -45 -9q-18 -40 -7 -85q7 -30 26 -38q10 -2 20 -2h1z" />
    <glyph glyph-name="o" unicode="&#xf5;" horiz-adv-x="371" 
d="M318 303q70 33 163 160q-1 -4 -3 -11t-10 -28.5t-17.5 -41.5t-25.5 -44.5t-34.5 -43.5t-44.5 -34.5t-55 -20.5q-25 -48 -63 -92q-71 -126 -167 -116q-95 13 -91 129q3 106 75 228q64 108 128 135q16 7 29 8q51 2 83 -45q20 -4 30 -18q16 -23 17.5 -66t-14.5 -99zM227 195
q12 17 26 42q-36 0 -60 10.5t-34 26.5t-13.5 28.5t-3.5 24.5q-25 -59 -32 -119t8 -69q30 -19 109 55v1zM280 292q39 97 5 134q-27 29 -45 -9q-18 -40 -7 -85q7 -30 26 -38q10 -2 20 -2h1z" />
    <glyph glyph-name="o" unicode="&#xf4;" horiz-adv-x="371" 
d="M318 303q70 33 163 160q-1 -4 -3 -11t-10 -28.5t-17.5 -41.5t-25.5 -44.5t-34.5 -43.5t-44.5 -34.5t-55 -20.5q-25 -48 -63 -92q-71 -126 -167 -116q-95 13 -91 129q3 106 75 228q64 108 128 135q16 7 29 8q51 2 83 -45q20 -4 30 -18q16 -23 17.5 -66t-14.5 -99zM227 195
q12 17 26 42q-36 0 -60 10.5t-34 26.5t-13.5 28.5t-3.5 24.5q-25 -59 -32 -119t8 -69q30 -19 109 55v1zM280 292q39 97 5 134q-27 29 -45 -9q-18 -40 -7 -85q7 -30 26 -38q10 -2 20 -2h1z" />
    <glyph glyph-name="o" unicode="&#xf3;" horiz-adv-x="371" 
d="M318 303q70 33 163 160q-1 -4 -3 -11t-10 -28.5t-17.5 -41.5t-25.5 -44.5t-34.5 -43.5t-44.5 -34.5t-55 -20.5q-25 -48 -63 -92q-71 -126 -167 -116q-95 13 -91 129q3 106 75 228q64 108 128 135q16 7 29 8q51 2 83 -45q20 -4 30 -18q16 -23 17.5 -66t-14.5 -99zM227 195
q12 17 26 42q-36 0 -60 10.5t-34 26.5t-13.5 28.5t-3.5 24.5q-25 -59 -32 -119t8 -69q30 -19 109 55v1zM280 292q39 97 5 134q-27 29 -45 -9q-18 -40 -7 -85q7 -30 26 -38q10 -2 20 -2h1z" />
    <glyph glyph-name="o" unicode="&#xf2;" horiz-adv-x="371" 
d="M318 303q70 33 163 160q-1 -4 -3 -11t-10 -28.5t-17.5 -41.5t-25.5 -44.5t-34.5 -43.5t-44.5 -34.5t-55 -20.5q-25 -48 -63 -92q-71 -126 -167 -116q-95 13 -91 129q3 106 75 228q64 108 128 135q16 7 29 8q51 2 83 -45q20 -4 30 -18q16 -23 17.5 -66t-14.5 -99zM227 195
q12 17 26 42q-36 0 -60 10.5t-34 26.5t-13.5 28.5t-3.5 24.5q-25 -59 -32 -119t8 -69q30 -19 109 55v1zM280 292q39 97 5 134q-27 29 -45 -9q-18 -40 -7 -85q7 -30 26 -38q10 -2 20 -2h1z" />
    <glyph glyph-name="p" unicode="p" horiz-adv-x="412" 
d="M372 531q46 -3 39 -97q-9 -111 -74 -233q-76 -140 -168 -170q-12 -4 -25 -6q-35 -4 -51.5 16t-14.5 51t9.5 63t16.5 55l10 23l6 -48q15 -70 51 -51q27 14 71 95q60 113 47 167q-12 49 -88 20q-71 -108 -99 -173q-42 -95 -74 -174t-47 -124.5t-24 -77t-11 -42.5l-1 -11
q-2 -2 -5.5 -4t-13.5 -6.5t-19.5 -5.5t-23.5 2.5t-27 13.5q-8 4 -6 30.5t9 65t23 90.5t35 107t46 115.5t56 115t64.5 106.5t71.5 90q2 0 6.5 -0.5t17 -2.5t24 -5.5t26.5 -11t26 -17.5q-23 -32 -51 -76q12 13 27 28t40 36t52 34t49 12z" />
    <glyph glyph-name="q" unicode="q" horiz-adv-x="489" 
d="M338 70q19 10 62 62t77 99l33 47q-2 -6 -5.5 -16t-15.5 -39t-25.5 -55.5t-35 -60t-44.5 -58.5t-53 -44t-61 -24q-20 -56 -32.5 -98t-14.5 -56l-2 -13q-1 -1 -3 -2.5t-7.5 -4.5t-11 -5t-14 -3.5t-16.5 -0.5t-18 4.5t-19 11.5q-14 11 2 93t55 190q-51 -75 -133 -67
q-95 13 -85 129q8 105 87 228q69 108 135 136q16 7 30 8q26 1 48.5 -10.5t37.5 -30.5t24 -33.5t15 -29.5q41 63 83 107q5 0 15 -1.5t33.5 -15.5t39.5 -38q-98 -136 -141 -236q-23 -51 -43 -99q-30 -82 -4 -76q3 0 7 2zM225 189q55 132 118 231q-36 11 -68 2.5t-58.5 -33.5
t-47.5 -57.5t-35.5 -68.5t-22 -67.5t-7 -54.5t9.5 -28q15 -10 39.5 5.5t40.5 33t31 37.5z" />
    <glyph glyph-name="r" unicode="r" horiz-adv-x="358" 
d="M200 109q18 -3 40.5 9.5t42 32.5t36.5 41t27 36l10 15q-1 -6 -4.5 -15t-13.5 -34.5t-21.5 -48t-29.5 -48.5t-36.5 -43t-42.5 -25.5t-48 -0.5q-44 16 -61 54t-10.5 85t27.5 102t48.5 102.5t57.5 87.5q-40 1 -68 10l-67 -119q-65 -135 -108 -144q-8 -1 -9 2q46 49 129 255
q7 18 13 33q-35 41 1 133q15 40 45.5 47t52.5 -12t17 -43q-4 -21 -42 -93q17 -7 43 -7t43 3l17 4q5 3 8 3q15 0 29.5 -5t25 -12.5t19 -14.5t13.5 -12l4 -5q-67 -75 -122.5 -162.5t-72.5 -143t7 -67.5zM162 610l12 27h-4q-5 -4 -8 -27z" />
    <glyph glyph-name="s" unicode="s" horiz-adv-x="318" 
d="M339 480q12 -39 6.5 -64.5t-23.5 -40t-37 -21.5t-33 -9l-15 -2l2.5 7.5t5 18t5.5 25.5t0.5 27t-6.5 25t-18 16.5t-33 5.5q-20 -2 -32 -10t-16 -24.5t-3.5 -34.5t6.5 -46.5t12.5 -52.5t17 -62t16.5 -65q15 -64 -23 -101q-8 -17 -32 -28.5t-49 -15.5t-45.5 -4t-24.5 5
q-27 16 -39.5 35.5t-10.5 39.5t10 39t24.5 37.5t29 31t26.5 23.5q-24 57 -32 86q-23 77 55 145q66 57 147 66q84 10 107 -47q1 -2 2 -5z" />
    <glyph glyph-name="s" unicode="&#xdf;" horiz-adv-x="318" 
d="M339 480q12 -39 6.5 -64.5t-23.5 -40t-37 -21.5t-33 -9l-15 -2l2.5 7.5t5 18t5.5 25.5t0.5 27t-6.5 25t-18 16.5t-33 5.5q-20 -2 -32 -10t-16 -24.5t-3.5 -34.5t6.5 -46.5t12.5 -52.5t17 -62t16.5 -65q15 -64 -23 -101q-8 -17 -32 -28.5t-49 -15.5t-45.5 -4t-24.5 5
q-27 16 -39.5 35.5t-10.5 39.5t10 39t24.5 37.5t29 31t26.5 23.5q-24 57 -32 86q-23 77 55 145q66 57 147 66q84 10 107 -47q1 -2 2 -5z" />
    <glyph glyph-name="t" unicode="t" horiz-adv-x="254" 
d="M341 643q165 3 233 67l-0.5 -11.5t-3 -26t-9 -33.5t-21 -36.5t-36 -32.5t-57 -23t-81 -6.5t-92.5 3.5q-17 -28 -32 -56q-106 -194 -153 -376q-5 -22 -2 -35.5t16 -6.5q19 10 62 62t77 99l33 47q-2 -7 -5.5 -17.5t-17 -41.5t-28 -59t-38 -62.5t-48 -59t-56.5 -41.5
t-66 -17q-19 0 -30 11t-14 29t-2 39.5t6 43t9.5 39.5t8.5 29l4 11q47 188 143 371q-6 1 -17 2q-38 3 -55 4t-39.5 2t-34 -0.5t-18.5 -4.5q-1 3 -0.5 8t5 19t13.5 25.5t30 23t51 15.5q31 5 119 1q44 70 90 118q2 0 7 -0.5t18.5 -3.5t25.5 -9t27.5 -18t27.5 -29
q-21 -24 -50 -63z" />
    <glyph glyph-name="u" unicode="u" horiz-adv-x="435" 
d="M276 109q18 -3 40.5 9.5t42.5 32.5t37 41t27 36l10 15l-5 -15t-13.5 -34.5t-22 -48t-29 -48.5t-36 -43t-42.5 -25.5t-48 -0.5q-87 31 -71 145q-90 -86 -141 -70q-13 -3 -23.5 2.5t-16 14t-9 20.5t-4.5 17.5t-1 8.5q-4 54 4 108t39 123.5t85 126.5q1 1 2.5 2t5.5 3t9 2.5
t13.5 -1t17 -5.5t20.5 -13.5t25 -23.5q-3 -3 -9 -9.5t-22 -27.5t-30 -44.5t-29.5 -61t-24.5 -75.5q-7 -32 -10 -64q-1 -37 19 -38q34 -3 116 124q19 44 45 88.5t50.5 77t45.5 53t31 20.5q14 0 29 -5t25.5 -12.5t19 -14.5t12.5 -12l4 -5q-67 -75 -122 -162.5t-72.5 -143
t6.5 -67.5z" />
    <glyph glyph-name="u" unicode="&#xfc;" horiz-adv-x="435" 
d="M276 109q18 -3 40.5 9.5t42.5 32.5t37 41t27 36l10 15l-5 -15t-13.5 -34.5t-22 -48t-29 -48.5t-36 -43t-42.5 -25.5t-48 -0.5q-87 31 -71 145q-90 -86 -141 -70q-13 -3 -23.5 2.5t-16 14t-9 20.5t-4.5 17.5t-1 8.5q-4 54 4 108t39 123.5t85 126.5q1 1 2.5 2t5.5 3t9 2.5
t13.5 -1t17 -5.5t20.5 -13.5t25 -23.5q-3 -3 -9 -9.5t-22 -27.5t-30 -44.5t-29.5 -61t-24.5 -75.5q-7 -32 -10 -64q-1 -37 19 -38q34 -3 116 124q19 44 45 88.5t50.5 77t45.5 53t31 20.5q14 0 29 -5t25.5 -12.5t19 -14.5t12.5 -12l4 -5q-67 -75 -122 -162.5t-72.5 -143
t6.5 -67.5z" />
    <glyph glyph-name="u" unicode="&#xfb;" horiz-adv-x="435" 
d="M276 109q18 -3 40.5 9.5t42.5 32.5t37 41t27 36l10 15l-5 -15t-13.5 -34.5t-22 -48t-29 -48.5t-36 -43t-42.5 -25.5t-48 -0.5q-87 31 -71 145q-90 -86 -141 -70q-13 -3 -23.5 2.5t-16 14t-9 20.5t-4.5 17.5t-1 8.5q-4 54 4 108t39 123.5t85 126.5q1 1 2.5 2t5.5 3t9 2.5
t13.5 -1t17 -5.5t20.5 -13.5t25 -23.5q-3 -3 -9 -9.5t-22 -27.5t-30 -44.5t-29.5 -61t-24.5 -75.5q-7 -32 -10 -64q-1 -37 19 -38q34 -3 116 124q19 44 45 88.5t50.5 77t45.5 53t31 20.5q14 0 29 -5t25.5 -12.5t19 -14.5t12.5 -12l4 -5q-67 -75 -122 -162.5t-72.5 -143
t6.5 -67.5z" />
    <glyph glyph-name="u" unicode="&#xfa;" horiz-adv-x="435" 
d="M276 109q18 -3 40.5 9.5t42.5 32.5t37 41t27 36l10 15l-5 -15t-13.5 -34.5t-22 -48t-29 -48.5t-36 -43t-42.5 -25.5t-48 -0.5q-87 31 -71 145q-90 -86 -141 -70q-13 -3 -23.5 2.5t-16 14t-9 20.5t-4.5 17.5t-1 8.5q-4 54 4 108t39 123.5t85 126.5q1 1 2.5 2t5.5 3t9 2.5
t13.5 -1t17 -5.5t20.5 -13.5t25 -23.5q-3 -3 -9 -9.5t-22 -27.5t-30 -44.5t-29.5 -61t-24.5 -75.5q-7 -32 -10 -64q-1 -37 19 -38q34 -3 116 124q19 44 45 88.5t50.5 77t45.5 53t31 20.5q14 0 29 -5t25.5 -12.5t19 -14.5t12.5 -12l4 -5q-67 -75 -122 -162.5t-72.5 -143
t6.5 -67.5z" />
    <glyph glyph-name="u" unicode="&#xf9;" horiz-adv-x="435" 
d="M276 109q18 -3 40.5 9.5t42.5 32.5t37 41t27 36l10 15l-5 -15t-13.5 -34.5t-22 -48t-29 -48.5t-36 -43t-42.5 -25.5t-48 -0.5q-87 31 -71 145q-90 -86 -141 -70q-13 -3 -23.5 2.5t-16 14t-9 20.5t-4.5 17.5t-1 8.5q-4 54 4 108t39 123.5t85 126.5q1 1 2.5 2t5.5 3t9 2.5
t13.5 -1t17 -5.5t20.5 -13.5t25 -23.5q-3 -3 -9 -9.5t-22 -27.5t-30 -44.5t-29.5 -61t-24.5 -75.5q-7 -32 -10 -64q-1 -37 19 -38q34 -3 116 124q19 44 45 88.5t50.5 77t45.5 53t31 20.5q14 0 29 -5t25.5 -12.5t19 -14.5t12.5 -12l4 -5q-67 -75 -122 -162.5t-72.5 -143
t6.5 -67.5z" />
    <glyph glyph-name="v" unicode="v" horiz-adv-x="382" 
d="M393 587q17 -23 19 -65t-16 -100t-56 -113v0q-15 -23 -33 -44q0 1 -1 1q-133 -161 -198 -188q-24 -9 -43.5 -8.5t-34 8.5t-24.5 17.5t-15 16.5l-5 8q-12 18 -15 46q-4 54 4 108t39 123.5t85 126.5q1 1 2.5 2t5.5 3t9 2.5t13.5 -1t17 -5.5t20.5 -13.5t25 -23.5
q-3 -3 -9 -9.5t-22 -27.5t-30 -44.5t-29.5 -61t-24.5 -75.5q-11 -50 -12 -101q29 -23 65 -10.5t74.5 50.5t70.5 78t53 71l21 32v-1q53 114 14 156q-27 29 -50 -10q-21 -39 -13 -83q8 -40 41 -35l-10.5 -4t-20.5 -6.5t-24 -5t-25.5 0t-21.5 9t-15 22t-3 38.5q3 34 18 62
t36.5 44t44.5 24t43 4t30 -18z" />
    <glyph glyph-name="w" unicode="w" horiz-adv-x="654" 
d="M666 587q12 -17 16 -46t-0.5 -65.5t-22.5 -80.5t-46 -86v0q-16 -23 -34 -44v1q-134 -161 -198 -188q-24 -9 -43.5 -8.5t-34.5 8.5t-25 17.5t-15 16.5l-5 8q-12 18 -15 46q-2 28 0 57q-124 -140 -188 -120q-13 -3 -23.5 2.5t-16 14t-9 20.5t-4.5 17.5t-1 8.5q-4 54 4 108
t39 123.5t85 126.5q2 1 4.5 3t11 4t18 -0.5t26 -13t33.5 -29.5q-3 -3 -9 -9.5t-22 -27.5t-30 -44.5t-29.5 -61t-24.5 -75.5q-7 -32 -10 -64q-1 -37 19 -38q34 -3 116 124q16 26 31 46q31 105 109 186q1 1 3.5 3t11 4t18.5 -0.5t26 -13t33 -29.5q-1 -2 -4.5 -5t-12.5 -14
t-18 -23.5t-21 -32t-22 -40t-20 -48t-17 -55.5q-11 -50 -11 -101q29 -23 65 -10.5t74.5 50.5t70.5 78t52 71l21 32v-1q53 114 14 156q-27 29 -49 -10t-14 -83q8 -40 42 -35q-1 0 -11.5 -4t-20 -6.5t-24 -5t-26 0t-21.5 9t-15 22t-3 38.5q2 24 11 45.5t22 37t28.5 27.5
t32 17.5t31.5 7t28 -3.5t20 -15z" />
    <glyph glyph-name="x" unicode="x" horiz-adv-x="406" 
d="M259 109q18 -3 40.5 9.5t42.5 32.5t37 41t27 36l10 15l-5 -15t-13.5 -34.5t-22 -48t-29 -48.5t-36 -43t-42.5 -25.5t-48 -0.5q-80 28 -113 128q-67 -67 -94 -78q-24 -9 -43.5 -8.5t-34.5 8.5t-25 17.5t-15 16.5l-5 8q72 8 199 119q-4 42 -2.5 83.5t7.5 79t14.5 66.5
t18.5 46t19 17q23 0 45.5 -12.5t34.5 -24.5l11 -12q-44 -52 -48 -148q20 20 41 42.5t38 41t32.5 37t27.5 32.5l21 24.5t13 16.5l5 5l34 -44q-104 -128 -207 -241q9 -55 27 -95t38 -44z" />
    <glyph glyph-name="y" unicode="y" horiz-adv-x="443" 
d="M279 74q21 14 62.5 65t73.5 95l31 44q-3 -10 -8.5 -25.5t-25.5 -58t-41.5 -78t-56 -72t-70.5 -52.5q-42 -85 -92 -132q-30 -28 -57.5 -39t-45 -7t-30 12.5t-18.5 17.5l-6 9q-1 2 -3 5.5t-5 15.5t-2.5 23.5t7 28t20 31.5t40.5 31.5t65 30.5q21 50 40 104l11 30h3
q7 20 14 39q-104 -107 -160 -89q-13 -3 -23.5 2.5t-16 14t-9 20.5t-4.5 17.5t-1 8.5q-4 54 4 108t39 123.5t85 126.5q2 1 4.5 3t11 4t18 -0.5t26 -13t33.5 -29.5q-3 -3 -9 -9.5t-22 -27.5t-30 -44.5t-29.5 -61t-24.5 -75.5q-7 -32 -10 -64q-1 -37 19 -38q34 -3 116 124
q41 64 68 93q50 94 101 148q3 0 7 -1t16 -5.5t24 -11.5t27 -20.5t27 -31.5q-7 -8 -20 -24.5t-51 -82t-72 -147.5q-10 -25 -24 -58q-11 -39 -26 -77z" />
    <glyph glyph-name="y" unicode="&#xff;" horiz-adv-x="443" 
d="M279 74q21 14 62.5 65t73.5 95l31 44q-3 -10 -8.5 -25.5t-25.5 -58t-41.5 -78t-56 -72t-70.5 -52.5q-42 -85 -92 -132q-30 -28 -57.5 -39t-45 -7t-30 12.5t-18.5 17.5l-6 9q-1 2 -3 5.5t-5 15.5t-2.5 23.5t7 28t20 31.5t40.5 31.5t65 30.5q21 50 40 104l11 30h3
q7 20 14 39q-104 -107 -160 -89q-13 -3 -23.5 2.5t-16 14t-9 20.5t-4.5 17.5t-1 8.5q-4 54 4 108t39 123.5t85 126.5q2 1 4.5 3t11 4t18 -0.5t26 -13t33.5 -29.5q-3 -3 -9 -9.5t-22 -27.5t-30 -44.5t-29.5 -61t-24.5 -75.5q-7 -32 -10 -64q-1 -37 19 -38q34 -3 116 124
q41 64 68 93q50 94 101 148q3 0 7 -1t16 -5.5t24 -11.5t27 -20.5t27 -31.5q-7 -8 -20 -24.5t-51 -82t-72 -147.5q-10 -25 -24 -58q-11 -39 -26 -77z" />
    <glyph glyph-name="y" unicode="&#xfd;" horiz-adv-x="443" 
d="M279 74q21 14 62.5 65t73.5 95l31 44q-3 -10 -8.5 -25.5t-25.5 -58t-41.5 -78t-56 -72t-70.5 -52.5q-42 -85 -92 -132q-30 -28 -57.5 -39t-45 -7t-30 12.5t-18.5 17.5l-6 9q-1 2 -3 5.5t-5 15.5t-2.5 23.5t7 28t20 31.5t40.5 31.5t65 30.5q21 50 40 104l11 30h3
q7 20 14 39q-104 -107 -160 -89q-13 -3 -23.5 2.5t-16 14t-9 20.5t-4.5 17.5t-1 8.5q-4 54 4 108t39 123.5t85 126.5q2 1 4.5 3t11 4t18 -0.5t26 -13t33.5 -29.5q-3 -3 -9 -9.5t-22 -27.5t-30 -44.5t-29.5 -61t-24.5 -75.5q-7 -32 -10 -64q-1 -37 19 -38q34 -3 116 124
q41 64 68 93q50 94 101 148q3 0 7 -1t16 -5.5t24 -11.5t27 -20.5t27 -31.5q-7 -8 -20 -24.5t-51 -82t-72 -147.5q-10 -25 -24 -58q-11 -39 -26 -77z" />
    <glyph glyph-name="z" unicode="z" horiz-adv-x="338" 
d="M180 109q13 -2 28.5 4t30 17.5t29.5 26t27 29.5t21.5 28t14.5 21l5 8q-1 -6 -4.5 -15t-13.5 -34.5t-21.5 -48t-29.5 -48.5t-36.5 -43t-42.5 -25.5t-48 -0.5q-36 13 -54.5 41t-18.5 66.5t11 79t31 86.5q-8 5 -13.5 11.5t-6.5 12t-0.5 10t1.5 7.5t2 2q16 -4 34 -8
q30 58 67 110q-48 0 -79 13q-90 -227 -150 -251q-13 -5 -14 0q48 52 135 271q-18 20 -18 52h210q23 0 46 -12.5t34 -24.5l11 -12q-64 -72 -118 -156l56 1l-8 -39q-41 -4 -75 -5q-41 -72 -53.5 -119t10.5 -55z" />
    <glyph glyph-name="braceleft" unicode="{" horiz-adv-x="474" 
d="M318 717q36 2 68.5 -9.5t52.5 -29t35.5 -35t22.5 -30.5l6 -13q-32 28 -66.5 33t-66.5 -10.5t-61 -44t-55 -69.5v0q-15 -23 -29 -43.5t-26 -34.5t-23 -25.5t-20 -19t-16.5 -12.5t-13.5 -7.5t-9.5 -3.5t-5.5 -1q19 -3 29 -27t10.5 -56.5t-1.5 -65t-6 -54.5l-3 -23
q-10 -40 23 -79q18 -22 48 -27t50 1l21 7q0 -2 0.5 -4.5t1.5 -10.5t0 -15.5t-4.5 -18t-11 -18t-19 -16t-30 -12t-43 -6t-58.5 2.5q-47 7 -77 35t-41.5 71t-10 95t14.5 112q4 24 3.5 41.5t-3.5 31t-7.5 22.5t-9.5 15t-9 9t-6.5 4.5t-1.5 2.5q58 12 130 124q33 61 70 107.5
t75.5 75.5t72.5 31z" />
    <glyph glyph-name="verticalbar" unicode="|" horiz-adv-x="474" 
d="M397 857h4.5t10 -1t15 -3t18 -6.5t20 -10.5t20 -16t18.5 -22q-160 -232 -225 -353q-62 -114 -116 -242t-77 -199l-23 -71q-5 -4 -13.5 -9t-32 -6t-42.5 15q-12 9 9.5 86.5t66.5 192.5t101 237.5t123 235.5t123 172z" />
    <glyph glyph-name="braceright" unicode="}" horiz-adv-x="476" 
d="M506 379q0 -1 -6 -3.5t-17.5 -10.5t-24.5 -20.5t-29.5 -36.5t-29.5 -55q-45 -126 -121 -212.5t-174 -100.5q-139 -14 -134 45q2 25 26 53q2 -2 6.5 -3.5t18.5 -4t28.5 -2t36 7.5t41.5 21q54 39 69 79q3 9 9.5 24t25.5 52.5t37 67t42.5 54.5t44.5 28q-2 0 -5.5 1t-9 5
t-10.5 10.5t-11 18t-10 26.5t-7.5 37t-4.5 49v0q-2 41 -14.5 69.5t-35.5 44t-60.5 10.5t-85.5 -33q5 5 14.5 13.5t38 29.5t57.5 36.5t68.5 27.5t73.5 10q49 -3 73 -62t21 -152q8 -112 59 -124z" />
    <glyph glyph-name="asciitilde" unicode="~" horiz-adv-x="407" 
d="M57 353q31 4 83 3.5t101.5 -2t104 8.5t91.5 35q-1 -1 -1 -7.5t-0.5 -16t-3.5 -22t-8 -25.5t-14.5 -25t-22 -21.5t-32 -15t-44.5 -5.5q-65 0 -132.5 4t-101 7.5t-69 5t-38.5 -3.5v7.5t4 16.5t12 22t26.5 20t44.5 14z" />
    <glyph glyph-name="nonbreakingspace" unicode="&#xa0;" horiz-adv-x="514" 
 />
    <glyph glyph-name="divide" unicode="&#xf7;" horiz-adv-x="407" 
d="M57 251q31 3 83 3t101.5 -2t104 8.5t91.5 34.5q-1 0 -1 -8.5t-1.5 -20.5t-5.5 -26.5t-12.5 -29t-21.5 -26.5t-34.5 -19.5t-49.5 -7.5q-65 0 -132.5 4.5t-101 8t-69 5t-38.5 -3.5v7.5t4 16.5t12 22t26.5 20t44.5 14zM437 295zM327 423l-56 -109h-115l56 109h115zM71 0
l55 109h115l-55 -109h-115z" />
    <glyph glyph-name="Euro" unicode="&#x20ac;" horiz-adv-x="418" 
d="M209 103q15 -9 40.5 -1.5t56.5 25t58.5 36t45.5 33.5l18 14q-5 -9 -14 -24t-39.5 -53.5t-62 -66.5t-78 -49t-91.5 -16q-62 9 -83.5 61.5t-7.5 133.5q-69 6 -82 1v6t3.5 14t10 18.5t22 17t37.5 11.5q11 2 25 3q12 38 29 78q-80 7 -92 2v6t3.5 14t10 18.5t22 17t37.5 11.5
q20 3 54 3q47 86 101.5 142t99.5 59q20 1 38 -6t29.5 -18t20.5 -25.5t14 -28.5t8.5 -26t4.5 -19v-8q-98 45 -173 -70q80 5 124 35v-8t-1.5 -17t-4.5 -22.5t-10.5 -24.5t-18.5 -22.5t-29 -16.5t-42 -6q-29 0 -58 1q-13 -34 -22 -71q101 3 151 37v-8t-1.5 -17t-4.5 -22.5
t-10.5 -24.5t-18.5 -22.5t-29 -16.5t-41 -6q-30 0 -60 1q-7 -71 10 -83zM399 452zM364 302h1h-1z" />
    </font>
</defs>
</svg>
